%TF.GenerationSoftware,KiCad,Pcbnew,(6.0.7)*%
%TF.CreationDate,2023-02-21T16:01:17-05:00*%
%TF.ProjectId,HEADPHONE_AMP,48454144-5048-44f4-9e45-5f414d502e6b,rev?*%
%TF.SameCoordinates,Original*%
%TF.FileFunction,Soldermask,Top*%
%TF.FilePolarity,Negative*%
%FSLAX46Y46*%
G04 Gerber Fmt 4.6, Leading zero omitted, Abs format (unit mm)*
G04 Created by KiCad (PCBNEW (6.0.7)) date 2023-02-21 16:01:17*
%MOMM*%
%LPD*%
G01*
G04 APERTURE LIST*
G04 Aperture macros list*
%AMRoundRect*
0 Rectangle with rounded corners*
0 $1 Rounding radius*
0 $2 $3 $4 $5 $6 $7 $8 $9 X,Y pos of 4 corners*
0 Add a 4 corners polygon primitive as box body*
4,1,4,$2,$3,$4,$5,$6,$7,$8,$9,$2,$3,0*
0 Add four circle primitives for the rounded corners*
1,1,$1+$1,$2,$3*
1,1,$1+$1,$4,$5*
1,1,$1+$1,$6,$7*
1,1,$1+$1,$8,$9*
0 Add four rect primitives between the rounded corners*
20,1,$1+$1,$2,$3,$4,$5,0*
20,1,$1+$1,$4,$5,$6,$7,0*
20,1,$1+$1,$6,$7,$8,$9,0*
20,1,$1+$1,$8,$9,$2,$3,0*%
G04 Aperture macros list end*
%ADD10C,5.600000*%
%ADD11RoundRect,0.250000X-0.620000X-0.620000X0.620000X-0.620000X0.620000X0.620000X-0.620000X0.620000X0*%
%ADD12C,1.740000*%
%ADD13C,1.600000*%
%ADD14O,1.600000X1.600000*%
%ADD15R,2.000000X2.000000*%
%ADD16C,2.000000*%
%ADD17R,2.200000X2.200000*%
%ADD18O,2.200000X2.200000*%
%ADD19R,1.600000X1.600000*%
%ADD20R,2.400000X2.400000*%
%ADD21C,2.400000*%
%ADD22RoundRect,0.250000X-0.600000X0.600000X-0.600000X-0.600000X0.600000X-0.600000X0.600000X0.600000X0*%
%ADD23C,1.700000*%
G04 APERTURE END LIST*
D10*
%TO.C,H2*%
X144920000Y-43500000D03*
%TD*%
D11*
%TO.C,J2*%
X107500000Y-112690000D03*
D12*
X110040000Y-112690000D03*
%TD*%
D13*
%TO.C,R1*%
X122940000Y-94500000D03*
D14*
X130560000Y-94500000D03*
%TD*%
D13*
%TO.C,C1*%
X116000000Y-97250000D03*
X116000000Y-92250000D03*
%TD*%
%TO.C,C4*%
X129250000Y-121750000D03*
X124250000Y-121750000D03*
%TD*%
D15*
%TO.C,C10*%
X146000000Y-125750000D03*
D16*
X142200000Y-125750000D03*
%TD*%
D11*
%TO.C,J6*%
X142000000Y-98000000D03*
D12*
X144540000Y-98000000D03*
%TD*%
D13*
%TO.C,R6*%
X104560000Y-105940000D03*
D14*
X112180000Y-105940000D03*
%TD*%
D13*
%TO.C,C2*%
X129250000Y-118000000D03*
X124250000Y-118000000D03*
%TD*%
D17*
%TO.C,D1*%
X112920000Y-132250000D03*
D18*
X123080000Y-132250000D03*
%TD*%
D13*
%TO.C,R4*%
X116000000Y-113560000D03*
D14*
X116000000Y-105940000D03*
%TD*%
D19*
%TO.C,U1*%
X130550000Y-114375000D03*
D14*
X130550000Y-111835000D03*
X130550000Y-109295000D03*
X130550000Y-106755000D03*
X130550000Y-104215000D03*
X130550000Y-101675000D03*
X130550000Y-99135000D03*
X122930000Y-99135000D03*
X122930000Y-101675000D03*
X122930000Y-104215000D03*
X122930000Y-106755000D03*
X122930000Y-109295000D03*
X122930000Y-111835000D03*
X122930000Y-114375000D03*
%TD*%
D11*
%TO.C,J4*%
X142000000Y-112000000D03*
D12*
X144540000Y-112000000D03*
%TD*%
D15*
%TO.C,C9*%
X109517677Y-125250000D03*
D16*
X105717677Y-125250000D03*
%TD*%
D11*
%TO.C,R3*%
X124460000Y-81750000D03*
D12*
X127000000Y-81750000D03*
X129540000Y-81750000D03*
%TD*%
D17*
%TO.C,D4*%
X129170000Y-136000000D03*
D18*
X139330000Y-136000000D03*
%TD*%
D13*
%TO.C,R7*%
X123250000Y-67250000D03*
D14*
X130870000Y-67250000D03*
%TD*%
D17*
%TO.C,D3*%
X112920000Y-136000000D03*
D18*
X123080000Y-136000000D03*
%TD*%
D19*
%TO.C,C5*%
X132947349Y-121000000D03*
D13*
X136747349Y-121000000D03*
%TD*%
D11*
%TO.C,J8*%
X125460000Y-59250000D03*
D12*
X128000000Y-59250000D03*
%TD*%
D20*
%TO.C,C6*%
X109000000Y-80552651D03*
D21*
X109000000Y-75552651D03*
%TD*%
D13*
%TO.C,C3*%
X124250000Y-89750000D03*
X129250000Y-89750000D03*
%TD*%
D22*
%TO.C,J3*%
X135000000Y-142460000D03*
D23*
X135000000Y-145000000D03*
X132460000Y-142460000D03*
X132460000Y-145000000D03*
X129920000Y-142460000D03*
X129920000Y-145000000D03*
X127380000Y-142460000D03*
X127380000Y-145000000D03*
X124840000Y-142460000D03*
X124840000Y-145000000D03*
X122300000Y-142460000D03*
X122300000Y-145000000D03*
X119760000Y-142460000D03*
X119760000Y-145000000D03*
X117220000Y-142460000D03*
X117220000Y-145000000D03*
%TD*%
D11*
%TO.C,J1*%
X107370000Y-98690000D03*
D12*
X109910000Y-98690000D03*
%TD*%
D13*
%TO.C,R2*%
X130810000Y-75250000D03*
D14*
X123190000Y-75250000D03*
%TD*%
D10*
%TO.C,H4*%
X144920000Y-148500000D03*
%TD*%
%TO.C,H1*%
X105080000Y-43500000D03*
%TD*%
D13*
%TO.C,R5*%
X104810000Y-92690000D03*
D14*
X112430000Y-92690000D03*
%TD*%
D17*
%TO.C,D2*%
X129170000Y-132250000D03*
D18*
X139330000Y-132250000D03*
%TD*%
D10*
%TO.C,H3*%
X105080000Y-148500000D03*
%TD*%
M02*
