M48
; DRILL file {KiCad (6.0.7)} date Tue Feb 21 16:01:11 2023
; FORMAT={-:-/ absolute / metric / decimal}
; #@! TF.CreationDate,2023-02-21T16:01:11-05:00
; #@! TF.GenerationSoftware,Kicad,Pcbnew,(6.0.7)
; #@! TF.FileFunction,Plated,1,2,PTH
FMAT,2
METRIC
; #@! TA.AperFunction,Plated,PTH,ViaDrill
T1C0.800
; #@! TA.AperFunction,Plated,PTH,ComponentDrill
T2C0.800
; #@! TA.AperFunction,Plated,PTH,ComponentDrill
T3C1.000
; #@! TA.AperFunction,Plated,PTH,ComponentDrill
T4C1.090
; #@! TA.AperFunction,Plated,PTH,ComponentDrill
T5C1.100
; #@! TA.AperFunction,Plated,PTH,ComponentDrill
T6C1.200
; #@! TA.AperFunction,Plated,PTH,ComponentDrill
T7C3.200
%
G90
G05
T1
X115.0Y-87.5
X135.25Y-87.5
T2
X104.56Y-105.94
X104.81Y-92.69
X112.18Y-105.94
X112.43Y-92.69
X116.0Y-92.25
X116.0Y-97.25
X116.0Y-105.94
X116.0Y-113.56
X122.93Y-99.135
X122.93Y-101.675
X122.93Y-104.215
X122.93Y-106.755
X122.93Y-109.295
X122.93Y-111.835
X122.93Y-114.375
X122.94Y-94.5
X123.19Y-75.25
X123.25Y-67.25
X124.25Y-89.75
X124.25Y-118.0
X124.25Y-121.75
X129.25Y-89.75
X129.25Y-118.0
X129.25Y-121.75
X130.55Y-99.135
X130.55Y-101.675
X130.55Y-104.215
X130.55Y-106.755
X130.55Y-109.295
X130.55Y-111.835
X130.55Y-114.375
X130.56Y-94.5
X130.81Y-75.25
X130.87Y-67.25
X132.947Y-121.0
X136.747Y-121.0
T3
X105.718Y-125.25
X109.518Y-125.25
X117.22Y-142.46
X117.22Y-145.0
X119.76Y-142.46
X119.76Y-145.0
X122.3Y-142.46
X122.3Y-145.0
X124.84Y-142.46
X124.84Y-145.0
X127.38Y-142.46
X127.38Y-145.0
X129.92Y-142.46
X129.92Y-145.0
X132.46Y-142.46
X132.46Y-145.0
X135.0Y-142.46
X135.0Y-145.0
X142.2Y-125.75
X146.0Y-125.75
T4
X107.37Y-98.69
X107.5Y-112.69
X109.91Y-98.69
X110.04Y-112.69
X124.46Y-81.75
X125.46Y-59.25
X127.0Y-81.75
X128.0Y-59.25
X129.54Y-81.75
X142.0Y-98.0
X142.0Y-112.0
X144.54Y-98.0
X144.54Y-112.0
T5
X112.92Y-132.25
X112.92Y-136.0
X123.08Y-132.25
X123.08Y-136.0
X129.17Y-132.25
X129.17Y-136.0
X139.33Y-132.25
X139.33Y-136.0
T6
X109.0Y-75.553
X109.0Y-80.553
T7
X105.08Y-43.5
X105.08Y-148.5
X144.92Y-43.5
X144.92Y-148.5
T0
M30
