M48
; DRILL file {KiCad (6.0.7)} date Tue Feb 21 16:05:37 2023
; FORMAT={-:-/ absolute / metric / decimal}
; #@! TF.CreationDate,2023-02-21T16:05:37-05:00
; #@! TF.GenerationSoftware,Kicad,Pcbnew,(6.0.7)
; #@! TF.FileFunction,Plated,1,2,PTH
FMAT,2
METRIC
; #@! TA.AperFunction,Plated,PTH,ViaDrill
T1C0.800
; #@! TA.AperFunction,Plated,PTH,ComponentDrill
T2C0.800
; #@! TA.AperFunction,Plated,PTH,ComponentDrill
T3C1.000
; #@! TA.AperFunction,Plated,PTH,ComponentDrill
T4C1.090
; #@! TA.AperFunction,Plated,PTH,ComponentDrill
T5C1.100
; #@! TA.AperFunction,Plated,PTH,ComponentDrill
T6C1.200
; #@! TA.AperFunction,Plated,PTH,ComponentDrill
T7C3.200
%
G90
G05
T1
X120.75Y-137.5
X131.0Y-137.5
T2
X105.68Y-88.885
X105.68Y-91.425
X105.68Y-93.965
X105.68Y-96.505
X105.68Y-99.045
X105.68Y-101.585
X105.68Y-104.125
X107.0Y-108.25
X112.0Y-108.25
X113.3Y-88.885
X113.3Y-91.425
X113.3Y-93.965
X113.3Y-96.505
X113.3Y-99.045
X113.3Y-101.585
X113.3Y-104.125
X114.5Y-111.44
X114.5Y-119.06
X117.25Y-84.69
X117.25Y-92.31
X122.0Y-84.75
X122.0Y-89.75
X122.0Y-92.75
X122.0Y-97.75
X122.0Y-100.75
X122.0Y-105.75
X125.75Y-48.69
X125.75Y-56.31
X127.0Y-84.75
X127.0Y-92.37
X127.25Y-98.25
X127.25Y-105.87
X131.0Y-50.25
X131.0Y-55.25
X135.5Y-48.69
X135.5Y-56.31
X135.5Y-61.19
X135.5Y-68.81
T3
X112.232Y-131.25
X116.032Y-131.25
X117.22Y-142.46
X117.22Y-145.0
X119.76Y-142.46
X119.76Y-145.0
X122.3Y-142.46
X122.3Y-145.0
X122.482Y-113.0
X124.84Y-142.46
X124.84Y-145.0
X125.732Y-131.25
X126.282Y-113.0
X127.38Y-142.46
X127.38Y-145.0
X129.532Y-131.25
X129.92Y-142.46
X129.92Y-145.0
X132.46Y-142.46
X132.46Y-145.0
X135.0Y-142.46
X135.0Y-145.0
T4
X105.75Y-114.71
X105.75Y-117.25
X110.25Y-77.23
X110.25Y-79.77
X135.0Y-86.75
X135.0Y-89.29
X135.0Y-91.83
X135.0Y-99.0
X135.0Y-101.54
X135.0Y-104.08
X144.75Y-50.71
X144.75Y-53.25
X144.75Y-55.79
X144.75Y-62.5
X144.75Y-65.04
X144.75Y-67.58
X144.75Y-74.71
X144.75Y-77.25
X144.75Y-79.79
X145.0Y-87.75
X145.0Y-90.29
X145.0Y-100.5
X145.0Y-103.04
X145.0Y-109.73
X145.0Y-112.27
X145.0Y-119.75
X145.0Y-122.29
T5
X109.17Y-123.75
X119.33Y-123.75
X124.42Y-123.75
X134.58Y-123.75
T6
X121.452Y-72.25
X126.452Y-72.25
T7
X105.08Y-43.5
X105.08Y-148.5
X144.92Y-43.5
X144.92Y-148.5
T3
G00X135.636Y-133.634
M15
G01X135.636Y-131.034
M16
G05
G00X137.436Y-127.534
M15
G01X139.636Y-127.534
M16
G05
G00X141.936Y-133.434
M15
G01X141.936Y-131.234
M16
G05
T0
M30
