%TF.GenerationSoftware,KiCad,Pcbnew,(6.0.7)*%
%TF.CreationDate,2023-03-07T14:28:06-05:00*%
%TF.ProjectId,ULTRA_FUZZ,554c5452-415f-4465-955a-5a2e6b696361,rev?*%
%TF.SameCoordinates,Original*%
%TF.FileFunction,Soldermask,Bot*%
%TF.FilePolarity,Negative*%
%FSLAX46Y46*%
G04 Gerber Fmt 4.6, Leading zero omitted, Abs format (unit mm)*
G04 Created by KiCad (PCBNEW (6.0.7)) date 2023-03-07 14:28:06*
%MOMM*%
%LPD*%
G01*
G04 APERTURE LIST*
G04 Aperture macros list*
%AMRoundRect*
0 Rectangle with rounded corners*
0 $1 Rounding radius*
0 $2 $3 $4 $5 $6 $7 $8 $9 X,Y pos of 4 corners*
0 Add a 4 corners polygon primitive as box body*
4,1,4,$2,$3,$4,$5,$6,$7,$8,$9,$2,$3,0*
0 Add four circle primitives for the rounded corners*
1,1,$1+$1,$2,$3*
1,1,$1+$1,$4,$5*
1,1,$1+$1,$6,$7*
1,1,$1+$1,$8,$9*
0 Add four rect primitives between the rounded corners*
20,1,$1+$1,$2,$3,$4,$5,0*
20,1,$1+$1,$4,$5,$6,$7,0*
20,1,$1+$1,$6,$7,$8,$9,0*
20,1,$1+$1,$8,$9,$2,$3,0*%
G04 Aperture macros list end*
%ADD10C,5.600000*%
%ADD11R,1.500000X1.500000*%
%ADD12C,1.500000*%
%ADD13C,1.600000*%
%ADD14O,1.600000X1.600000*%
%ADD15R,1.600000X1.600000*%
%ADD16RoundRect,0.250000X-0.620000X-0.620000X0.620000X-0.620000X0.620000X0.620000X-0.620000X0.620000X0*%
%ADD17C,1.740000*%
%ADD18R,2.000000X2.000000*%
%ADD19C,2.000000*%
%ADD20R,2.400000X1.600000*%
%ADD21O,2.400000X1.600000*%
%ADD22R,2.200000X2.200000*%
%ADD23O,2.200000X2.200000*%
%ADD24RoundRect,0.250000X-0.600000X0.600000X-0.600000X-0.600000X0.600000X-0.600000X0.600000X0.600000X0*%
%ADD25C,1.700000*%
G04 APERTURE END LIST*
D10*
%TO.C,H2*%
X144920000Y-43500000D03*
%TD*%
D11*
%TO.C,Q1*%
X122450000Y-63450000D03*
D12*
X124990000Y-63450000D03*
X127530000Y-63450000D03*
%TD*%
D13*
%TO.C,R1*%
X116000000Y-121310000D03*
D14*
X116000000Y-113690000D03*
%TD*%
D13*
%TO.C,R2*%
X104500000Y-96190000D03*
D14*
X104500000Y-103810000D03*
%TD*%
D15*
%TO.C,C6*%
X127000000Y-100500000D03*
D13*
X123200000Y-100500000D03*
%TD*%
D16*
%TO.C,J4*%
X141460000Y-56500000D03*
D17*
X144000000Y-56500000D03*
%TD*%
D18*
%TO.C,C10*%
X144000000Y-127732323D03*
D19*
X144000000Y-131532323D03*
%TD*%
D13*
%TO.C,R7*%
X135500000Y-113690000D03*
D14*
X135500000Y-121310000D03*
%TD*%
D16*
%TO.C,SW1A1*%
X116176666Y-76000000D03*
D17*
X118716666Y-76000000D03*
X121256666Y-76000000D03*
%TD*%
D13*
%TO.C,C3*%
X145500000Y-115000000D03*
X145500000Y-120000000D03*
%TD*%
%TO.C,C2*%
X111000000Y-120000000D03*
X111000000Y-115000000D03*
%TD*%
D18*
%TO.C,C9*%
X108000000Y-131767677D03*
D19*
X108000000Y-127967677D03*
%TD*%
D20*
%TO.C,U1*%
X128800000Y-121300000D03*
D21*
X128800000Y-118760000D03*
X128800000Y-116220000D03*
X128800000Y-113680000D03*
X121180000Y-113680000D03*
X121180000Y-116220000D03*
X121180000Y-118760000D03*
X121180000Y-121300000D03*
%TD*%
D22*
%TO.C,D4*%
X128920000Y-136000000D03*
D23*
X139080000Y-136000000D03*
%TD*%
D15*
%TO.C,D2*%
X121190000Y-55000000D03*
D14*
X128810000Y-55000000D03*
%TD*%
D22*
%TO.C,D3*%
X112920000Y-136000000D03*
D23*
X123080000Y-136000000D03*
%TD*%
D15*
%TO.C,D1*%
X128810000Y-58500000D03*
D14*
X121190000Y-58500000D03*
%TD*%
D13*
%TO.C,R8*%
X120690000Y-131000000D03*
D14*
X128310000Y-131000000D03*
%TD*%
D13*
%TO.C,R3*%
X112500000Y-104000000D03*
D14*
X112500000Y-96380000D03*
%TD*%
D13*
%TO.C,R11*%
X129000000Y-51500000D03*
D14*
X121380000Y-51500000D03*
%TD*%
D16*
%TO.C,J8*%
X107500000Y-56500000D03*
D17*
X110040000Y-56500000D03*
%TD*%
D13*
%TO.C,C1*%
X127000000Y-127000000D03*
X122000000Y-127000000D03*
%TD*%
D24*
%TO.C,J3*%
X135000000Y-142460000D03*
D25*
X135000000Y-145000000D03*
X132460000Y-142460000D03*
X132460000Y-145000000D03*
X129920000Y-142460000D03*
X129920000Y-145000000D03*
X127380000Y-142460000D03*
X127380000Y-145000000D03*
X124840000Y-142460000D03*
X124840000Y-145000000D03*
X122300000Y-142460000D03*
X122300000Y-145000000D03*
X119760000Y-142460000D03*
X119760000Y-145000000D03*
X117220000Y-142460000D03*
X117220000Y-145000000D03*
%TD*%
D10*
%TO.C,H4*%
X144920000Y-148500000D03*
%TD*%
%TO.C,H1*%
X105080000Y-43500000D03*
%TD*%
D16*
%TO.C,J1*%
X105730000Y-76000000D03*
D17*
X108270000Y-76000000D03*
%TD*%
D13*
%TO.C,R10*%
X129310000Y-68000000D03*
D14*
X121690000Y-68000000D03*
%TD*%
D13*
%TO.C,R9*%
X104880000Y-64500000D03*
D14*
X112500000Y-64500000D03*
%TD*%
D16*
%TO.C,R5*%
X139460000Y-90000000D03*
D17*
X142000000Y-90000000D03*
X144540000Y-90000000D03*
%TD*%
D16*
%TO.C,SW1B1*%
X129243332Y-76000000D03*
D17*
X131783332Y-76000000D03*
X134323332Y-76000000D03*
%TD*%
D16*
%TO.C,R4*%
X105960000Y-89500000D03*
D17*
X108500000Y-89500000D03*
X111040000Y-89500000D03*
%TD*%
D16*
%TO.C,J2*%
X142230000Y-76000000D03*
D17*
X144770000Y-76000000D03*
%TD*%
D10*
%TO.C,H3*%
X105080000Y-148500000D03*
%TD*%
D13*
%TO.C,R6*%
X117310000Y-108000000D03*
D14*
X109690000Y-108000000D03*
%TD*%
M02*
