%TF.GenerationSoftware,KiCad,Pcbnew,(6.0.7)*%
%TF.CreationDate,2023-03-07T14:40:37-05:00*%
%TF.ProjectId,BASS_FUZZ,42415353-5f46-4555-9a5a-2e6b69636164,rev?*%
%TF.SameCoordinates,Original*%
%TF.FileFunction,Soldermask,Top*%
%TF.FilePolarity,Negative*%
%FSLAX46Y46*%
G04 Gerber Fmt 4.6, Leading zero omitted, Abs format (unit mm)*
G04 Created by KiCad (PCBNEW (6.0.7)) date 2023-03-07 14:40:37*
%MOMM*%
%LPD*%
G01*
G04 APERTURE LIST*
G04 Aperture macros list*
%AMRoundRect*
0 Rectangle with rounded corners*
0 $1 Rounding radius*
0 $2 $3 $4 $5 $6 $7 $8 $9 X,Y pos of 4 corners*
0 Add a 4 corners polygon primitive as box body*
4,1,4,$2,$3,$4,$5,$6,$7,$8,$9,$2,$3,0*
0 Add four circle primitives for the rounded corners*
1,1,$1+$1,$2,$3*
1,1,$1+$1,$4,$5*
1,1,$1+$1,$6,$7*
1,1,$1+$1,$8,$9*
0 Add four rect primitives between the rounded corners*
20,1,$1+$1,$2,$3,$4,$5,0*
20,1,$1+$1,$4,$5,$6,$7,0*
20,1,$1+$1,$6,$7,$8,$9,0*
20,1,$1+$1,$8,$9,$2,$3,0*%
G04 Aperture macros list end*
%ADD10C,5.600000*%
%ADD11RoundRect,0.250000X-0.620000X-0.620000X0.620000X-0.620000X0.620000X0.620000X-0.620000X0.620000X0*%
%ADD12C,1.740000*%
%ADD13R,1.500000X1.500000*%
%ADD14C,1.500000*%
%ADD15R,1.600000X1.600000*%
%ADD16C,1.600000*%
%ADD17O,1.600000X1.600000*%
%ADD18R,2.000000X2.000000*%
%ADD19C,2.000000*%
%ADD20R,2.200000X2.200000*%
%ADD21O,2.200000X2.200000*%
%ADD22R,2.400000X1.600000*%
%ADD23O,2.400000X1.600000*%
%ADD24R,1.800000X1.800000*%
%ADD25C,1.800000*%
%ADD26RoundRect,0.250000X-0.600000X0.600000X-0.600000X-0.600000X0.600000X-0.600000X0.600000X0.600000X0*%
%ADD27C,1.700000*%
G04 APERTURE END LIST*
D10*
%TO.C,H2*%
X144920000Y-43500000D03*
%TD*%
D11*
%TO.C,SW2*%
X124000000Y-90000000D03*
D12*
X126540000Y-90000000D03*
%TD*%
D13*
%TO.C,Q1*%
X122450000Y-63450000D03*
D14*
X124990000Y-63450000D03*
X127530000Y-63450000D03*
%TD*%
D15*
%TO.C,C4*%
X110000000Y-104000000D03*
D16*
X106200000Y-104000000D03*
%TD*%
%TO.C,R4*%
X120190000Y-103500000D03*
D17*
X127810000Y-103500000D03*
%TD*%
D11*
%TO.C,R2*%
X106000000Y-90000000D03*
D12*
X108540000Y-90000000D03*
X111080000Y-90000000D03*
%TD*%
D16*
%TO.C,R1*%
X105190000Y-97000000D03*
D17*
X112810000Y-97000000D03*
%TD*%
D11*
%TO.C,J4*%
X141460000Y-56500000D03*
D12*
X144000000Y-56500000D03*
%TD*%
D18*
%TO.C,C10*%
X144000000Y-127732323D03*
D19*
X144000000Y-131532323D03*
%TD*%
D11*
%TO.C,SW1A1*%
X116176666Y-76000000D03*
D12*
X118716666Y-76000000D03*
X121256666Y-76000000D03*
%TD*%
D18*
%TO.C,C9*%
X108000000Y-131767677D03*
D19*
X108000000Y-127967677D03*
%TD*%
D15*
%TO.C,C5*%
X142000000Y-102802651D03*
D16*
X142000000Y-99002651D03*
%TD*%
D20*
%TO.C,D2*%
X128920000Y-136000000D03*
D21*
X139080000Y-136000000D03*
%TD*%
D15*
%TO.C,D6*%
X121190000Y-55000000D03*
D17*
X128810000Y-55000000D03*
%TD*%
D20*
%TO.C,D1*%
X112920000Y-136000000D03*
D21*
X123080000Y-136000000D03*
%TD*%
D22*
%TO.C,U1*%
X128000000Y-117000000D03*
D23*
X128000000Y-114460000D03*
X128000000Y-111920000D03*
X128000000Y-109380000D03*
X120380000Y-109380000D03*
X120380000Y-111920000D03*
X120380000Y-114460000D03*
X120380000Y-117000000D03*
%TD*%
D24*
%TO.C,D4*%
X107000000Y-119000000D03*
D25*
X107000000Y-121540000D03*
%TD*%
D11*
%TO.C,R3*%
X139000000Y-90000000D03*
D12*
X141540000Y-90000000D03*
X144080000Y-90000000D03*
%TD*%
D15*
%TO.C,D5*%
X128810000Y-58500000D03*
D17*
X121190000Y-58500000D03*
%TD*%
D16*
%TO.C,R5*%
X133750000Y-109440000D03*
D17*
X133750000Y-117060000D03*
%TD*%
D16*
%TO.C,C3*%
X118000000Y-88500000D03*
X118000000Y-93500000D03*
%TD*%
%TO.C,R11*%
X129000000Y-51500000D03*
D17*
X121380000Y-51500000D03*
%TD*%
D11*
%TO.C,J8*%
X107500000Y-56500000D03*
D12*
X110040000Y-56500000D03*
%TD*%
D16*
%TO.C,C1*%
X112000000Y-112000000D03*
X112000000Y-117000000D03*
%TD*%
D26*
%TO.C,J3*%
X135000000Y-142460000D03*
D27*
X135000000Y-145000000D03*
X132460000Y-142460000D03*
X132460000Y-145000000D03*
X129920000Y-142460000D03*
X129920000Y-145000000D03*
X127380000Y-142460000D03*
X127380000Y-145000000D03*
X124840000Y-142460000D03*
X124840000Y-145000000D03*
X122300000Y-142460000D03*
X122300000Y-145000000D03*
X119760000Y-142460000D03*
X119760000Y-145000000D03*
X117220000Y-142460000D03*
X117220000Y-145000000D03*
%TD*%
D10*
%TO.C,H4*%
X144920000Y-148500000D03*
%TD*%
D16*
%TO.C,R6*%
X116000000Y-110190000D03*
D17*
X116000000Y-117810000D03*
%TD*%
D10*
%TO.C,H1*%
X105080000Y-43500000D03*
%TD*%
D16*
%TO.C,C2*%
X122500000Y-98000000D03*
X127500000Y-98000000D03*
%TD*%
D11*
%TO.C,J1*%
X105730000Y-76000000D03*
D12*
X108270000Y-76000000D03*
%TD*%
D16*
%TO.C,R10*%
X129310000Y-68000000D03*
D17*
X121690000Y-68000000D03*
%TD*%
D16*
%TO.C,R9*%
X104880000Y-64500000D03*
D17*
X112500000Y-64500000D03*
%TD*%
D11*
%TO.C,SW1B1*%
X129243332Y-76000000D03*
D12*
X131783332Y-76000000D03*
X134323332Y-76000000D03*
%TD*%
D24*
%TO.C,D3*%
X107000000Y-111000000D03*
D25*
X107000000Y-113540000D03*
%TD*%
D11*
%TO.C,J2*%
X142230000Y-76000000D03*
D12*
X144770000Y-76000000D03*
%TD*%
D10*
%TO.C,H3*%
X105080000Y-148500000D03*
%TD*%
M02*
