M48
; DRILL file {KiCad (6.0.7)} date Tue Mar  7 14:40:33 2023
; FORMAT={-:-/ absolute / metric / decimal}
; #@! TF.CreationDate,2023-03-07T14:40:33-05:00
; #@! TF.GenerationSoftware,Kicad,Pcbnew,(6.0.7)
; #@! TF.FileFunction,Plated,1,2,PTH
FMAT,2
METRIC
; #@! TA.AperFunction,Plated,PTH,ViaDrill
T1C0.800
; #@! TA.AperFunction,Plated,PTH,ComponentDrill
T2C0.800
; #@! TA.AperFunction,Plated,PTH,ComponentDrill
T3C0.900
; #@! TA.AperFunction,Plated,PTH,ComponentDrill
T4C1.000
; #@! TA.AperFunction,Plated,PTH,ComponentDrill
T5C1.090
; #@! TA.AperFunction,Plated,PTH,ComponentDrill
T6C1.100
; #@! TA.AperFunction,Plated,PTH,ComponentDrill
T7C3.200
%
G90
G05
T1
X114.0Y-106.25
X129.25Y-83.0
X138.25Y-106.25
X142.25Y-83.0
T2
X104.88Y-64.5
X105.19Y-97.0
X106.2Y-104.0
X110.0Y-104.0
X112.0Y-112.0
X112.0Y-117.0
X112.5Y-64.5
X112.81Y-97.0
X116.0Y-110.19
X116.0Y-117.81
X118.0Y-88.5
X118.0Y-93.5
X120.19Y-103.5
X120.38Y-109.38
X120.38Y-111.92
X120.38Y-114.46
X120.38Y-117.0
X121.19Y-55.0
X121.19Y-58.5
X121.38Y-51.5
X121.69Y-68.0
X122.45Y-63.45
X122.5Y-98.0
X124.99Y-63.45
X127.5Y-98.0
X127.53Y-63.45
X127.81Y-103.5
X128.0Y-109.38
X128.0Y-111.92
X128.0Y-114.46
X128.0Y-117.0
X128.81Y-55.0
X128.81Y-58.5
X129.0Y-51.5
X129.31Y-68.0
X133.75Y-109.44
X133.75Y-117.06
X142.0Y-99.003
X142.0Y-102.803
T3
X107.0Y-111.0
X107.0Y-113.54
X107.0Y-119.0
X107.0Y-121.54
T4
X108.0Y-127.968
X108.0Y-131.768
X117.22Y-142.46
X117.22Y-145.0
X119.76Y-142.46
X119.76Y-145.0
X122.3Y-142.46
X122.3Y-145.0
X124.84Y-142.46
X124.84Y-145.0
X127.38Y-142.46
X127.38Y-145.0
X129.92Y-142.46
X129.92Y-145.0
X132.46Y-142.46
X132.46Y-145.0
X135.0Y-142.46
X135.0Y-145.0
X144.0Y-127.732
X144.0Y-131.532
T5
X105.73Y-76.0
X106.0Y-90.0
X107.5Y-56.5
X108.27Y-76.0
X108.54Y-90.0
X110.04Y-56.5
X111.08Y-90.0
X116.177Y-76.0
X118.717Y-76.0
X121.257Y-76.0
X124.0Y-90.0
X126.54Y-90.0
X129.243Y-76.0
X131.783Y-76.0
X134.323Y-76.0
X139.0Y-90.0
X141.46Y-56.5
X141.54Y-90.0
X142.23Y-76.0
X144.0Y-56.5
X144.08Y-90.0
X144.77Y-76.0
T6
X112.92Y-136.0
X123.08Y-136.0
X128.92Y-136.0
X139.08Y-136.0
T7
X105.08Y-43.5
X105.08Y-148.5
X144.92Y-43.5
X144.92Y-148.5
T0
M30
