%TF.GenerationSoftware,KiCad,Pcbnew,(6.0.7)*%
%TF.CreationDate,2023-01-30T14:02:46-05:00*%
%TF.ProjectId,METRONOME,4d455452-4f4e-44f4-9d45-2e6b69636164,rev?*%
%TF.SameCoordinates,Original*%
%TF.FileFunction,Copper,L1,Top*%
%TF.FilePolarity,Positive*%
%FSLAX46Y46*%
G04 Gerber Fmt 4.6, Leading zero omitted, Abs format (unit mm)*
G04 Created by KiCad (PCBNEW (6.0.7)) date 2023-01-30 14:02:46*
%MOMM*%
%LPD*%
G01*
G04 APERTURE LIST*
G04 Aperture macros list*
%AMRoundRect*
0 Rectangle with rounded corners*
0 $1 Rounding radius*
0 $2 $3 $4 $5 $6 $7 $8 $9 X,Y pos of 4 corners*
0 Add a 4 corners polygon primitive as box body*
4,1,4,$2,$3,$4,$5,$6,$7,$8,$9,$2,$3,0*
0 Add four circle primitives for the rounded corners*
1,1,$1+$1,$2,$3*
1,1,$1+$1,$4,$5*
1,1,$1+$1,$6,$7*
1,1,$1+$1,$8,$9*
0 Add four rect primitives between the rounded corners*
20,1,$1+$1,$2,$3,$4,$5,0*
20,1,$1+$1,$4,$5,$6,$7,0*
20,1,$1+$1,$6,$7,$8,$9,0*
20,1,$1+$1,$8,$9,$2,$3,0*%
G04 Aperture macros list end*
%TA.AperFunction,ComponentPad*%
%ADD10C,5.600000*%
%TD*%
%TA.AperFunction,ComponentPad*%
%ADD11C,2.400000*%
%TD*%
%TA.AperFunction,ComponentPad*%
%ADD12RoundRect,0.250000X-0.620000X-0.620000X0.620000X-0.620000X0.620000X0.620000X-0.620000X0.620000X0*%
%TD*%
%TA.AperFunction,ComponentPad*%
%ADD13C,1.740000*%
%TD*%
%TA.AperFunction,ComponentPad*%
%ADD14R,1.600000X1.600000*%
%TD*%
%TA.AperFunction,ComponentPad*%
%ADD15C,1.600000*%
%TD*%
%TA.AperFunction,ComponentPad*%
%ADD16O,1.600000X1.600000*%
%TD*%
%TA.AperFunction,ComponentPad*%
%ADD17R,2.000000X2.000000*%
%TD*%
%TA.AperFunction,ComponentPad*%
%ADD18C,2.000000*%
%TD*%
%TA.AperFunction,ComponentPad*%
%ADD19R,2.200000X2.200000*%
%TD*%
%TA.AperFunction,ComponentPad*%
%ADD20O,2.200000X2.200000*%
%TD*%
%TA.AperFunction,ComponentPad*%
%ADD21RoundRect,0.250000X-0.600000X0.600000X-0.600000X-0.600000X0.600000X-0.600000X0.600000X0.600000X0*%
%TD*%
%TA.AperFunction,ComponentPad*%
%ADD22C,1.700000*%
%TD*%
%TA.AperFunction,ViaPad*%
%ADD23C,1.000000*%
%TD*%
%TA.AperFunction,Conductor*%
%ADD24C,0.500000*%
%TD*%
G04 APERTURE END LIST*
D10*
%TO.P,H2,1*%
%TO.N,N/C*%
X144920000Y-43500000D03*
%TD*%
D11*
%TO.P,-12V,1,1*%
%TO.N,Net-(C10-Pad2)*%
X136500000Y-125000000D03*
%TD*%
D12*
%TO.P,J2,1,Pin_1*%
%TO.N,VCC*%
X125230000Y-61250000D03*
D13*
%TO.P,J2,2,Pin_2*%
%TO.N,Net-(J2-Pad2)*%
X127770000Y-61250000D03*
%TD*%
D14*
%TO.P,C2,1*%
%TO.N,Earth*%
X138697349Y-104000000D03*
D15*
%TO.P,C2,2*%
%TO.N,Net-(C1-Pad2)*%
X142497349Y-104000000D03*
%TD*%
%TO.P,R4,1*%
%TO.N,Net-(C4-Pad2)*%
X111560000Y-109000000D03*
D16*
%TO.P,R4,2*%
%TO.N,Net-(J1-Pad1)*%
X103940000Y-109000000D03*
%TD*%
D15*
%TO.P,R1,1*%
%TO.N,Net-(C1-Pad1)*%
X122940000Y-100500000D03*
D16*
%TO.P,R1,2*%
%TO.N,Net-(R1-Pad2)*%
X130560000Y-100500000D03*
%TD*%
D17*
%TO.P,C3,1*%
%TO.N,VCC*%
X128267677Y-79750000D03*
D18*
%TO.P,C3,2*%
%TO.N,Earth*%
X124467677Y-79750000D03*
%TD*%
D17*
%TO.P,C10,1*%
%TO.N,Earth*%
X144000000Y-127732323D03*
D18*
%TO.P,C10,2*%
%TO.N,Net-(C10-Pad2)*%
X144000000Y-131532323D03*
%TD*%
D17*
%TO.P,C9,1*%
%TO.N,VCC*%
X108000000Y-131767677D03*
D18*
%TO.P,C9,2*%
%TO.N,Earth*%
X108000000Y-127967677D03*
%TD*%
D15*
%TO.P,R5,1*%
%TO.N,Earth*%
X104440000Y-70500000D03*
D16*
%TO.P,R5,2*%
%TO.N,Net-(J8-Pad2)*%
X112060000Y-70500000D03*
%TD*%
D19*
%TO.P,D4,1,K*%
%TO.N,-12V*%
X139330000Y-136000000D03*
D20*
%TO.P,D4,2,A*%
%TO.N,Net-(C10-Pad2)*%
X129170000Y-136000000D03*
%TD*%
D12*
%TO.P,J6,1,Pin_1*%
%TO.N,Net-(J6-Pad1)*%
X142750000Y-116500000D03*
D13*
%TO.P,J6,2,Pin_2*%
%TO.N,Earth*%
X145290000Y-116500000D03*
%TD*%
D19*
%TO.P,D3,1,K*%
%TO.N,VCC*%
X112920000Y-136000000D03*
D20*
%TO.P,D3,2,A*%
%TO.N,+12V*%
X123080000Y-136000000D03*
%TD*%
D12*
%TO.P,R3,1,Pin_1*%
%TO.N,Net-(R1-Pad2)*%
X139460000Y-61250000D03*
D13*
%TO.P,R3,2,Pin_2*%
X142000000Y-61250000D03*
%TO.P,R3,3,Pin_3*%
%TO.N,Net-(R2-Pad2)*%
X144540000Y-61250000D03*
%TD*%
D12*
%TO.P,J8,1,Pin_1*%
%TO.N,VCC*%
X106980000Y-61250000D03*
D13*
%TO.P,J8,2,Pin_2*%
%TO.N,Net-(J8-Pad2)*%
X109520000Y-61250000D03*
%TD*%
D14*
%TO.P,U1,1,GND*%
%TO.N,Earth*%
X122700000Y-88700000D03*
D16*
%TO.P,U1,2,TR*%
%TO.N,Net-(C1-Pad1)*%
X122700000Y-91240000D03*
%TO.P,U1,3,Q*%
%TO.N,Net-(C4-Pad1)*%
X122700000Y-93780000D03*
%TO.P,U1,4,R*%
%TO.N,VCC*%
X122700000Y-96320000D03*
%TO.P,U1,5,CV*%
%TO.N,unconnected-(U1-Pad5)*%
X130320000Y-96320000D03*
%TO.P,U1,6,THR*%
%TO.N,Net-(C1-Pad1)*%
X130320000Y-93780000D03*
%TO.P,U1,7,DIS*%
%TO.N,Net-(R1-Pad2)*%
X130320000Y-91240000D03*
%TO.P,U1,8,VCC*%
%TO.N,VCC*%
X130320000Y-88700000D03*
%TD*%
D17*
%TO.P,C4,1*%
%TO.N,Net-(C4-Pad1)*%
X108000000Y-92232323D03*
D18*
%TO.P,C4,2*%
%TO.N,Net-(C4-Pad2)*%
X108000000Y-96032323D03*
%TD*%
D15*
%TO.P,R6,1*%
%TO.N,Earth*%
X111560000Y-104500000D03*
D16*
%TO.P,R6,2*%
%TO.N,Net-(J1-Pad1)*%
X103940000Y-104500000D03*
%TD*%
D15*
%TO.P,R7,1*%
%TO.N,Net-(C4-Pad1)*%
X122690000Y-70500000D03*
D16*
%TO.P,R7,2*%
%TO.N,Net-(J2-Pad2)*%
X130310000Y-70500000D03*
%TD*%
D21*
%TO.P,J3,1,Pin_1*%
%TO.N,-12V*%
X135000000Y-142460000D03*
D22*
%TO.P,J3,2,Pin_2*%
X135000000Y-145000000D03*
%TO.P,J3,3,Pin_3*%
%TO.N,Earth*%
X132460000Y-142460000D03*
%TO.P,J3,4,Pin_4*%
X132460000Y-145000000D03*
%TO.P,J3,5,Pin_5*%
X129920000Y-142460000D03*
%TO.P,J3,6,Pin_6*%
X129920000Y-145000000D03*
%TO.P,J3,7,Pin_7*%
X127380000Y-142460000D03*
%TO.P,J3,8,Pin_8*%
X127380000Y-145000000D03*
%TO.P,J3,9,Pin_9*%
%TO.N,+12V*%
X124840000Y-142460000D03*
%TO.P,J3,10,Pin_10*%
X124840000Y-145000000D03*
%TO.P,J3,11,Pin_11*%
%TO.N,+5V*%
X122300000Y-142460000D03*
%TO.P,J3,12,Pin_12*%
X122300000Y-145000000D03*
%TO.P,J3,13,Pin_13*%
%TO.N,CV*%
X119760000Y-142460000D03*
%TO.P,J3,14,Pin_14*%
X119760000Y-145000000D03*
%TO.P,J3,15,Pin_15*%
%TO.N,GATE*%
X117220000Y-142460000D03*
%TO.P,J3,16,Pin_16*%
X117220000Y-145000000D03*
%TD*%
D10*
%TO.P,H4,1*%
%TO.N,N/C*%
X144920000Y-148500000D03*
%TD*%
%TO.P,H1,1*%
%TO.N,N/C*%
X105080000Y-43500000D03*
%TD*%
D14*
%TO.P,C1,1*%
%TO.N,Net-(C1-Pad1)*%
X138697349Y-92250000D03*
D15*
%TO.P,C1,2*%
%TO.N,Net-(C1-Pad2)*%
X142497349Y-92250000D03*
%TD*%
%TO.P,R2,1*%
%TO.N,VCC*%
X136940000Y-83500000D03*
D16*
%TO.P,R2,2*%
%TO.N,Net-(R2-Pad2)*%
X144560000Y-83500000D03*
%TD*%
D12*
%TO.P,S1,1,Pin_1*%
%TO.N,Net-(C4-Pad2)*%
X125230000Y-116500000D03*
D13*
%TO.P,S1,2,Pin_2*%
%TO.N,Net-(J6-Pad1)*%
X127770000Y-116500000D03*
%TD*%
D10*
%TO.P,H3,1*%
%TO.N,N/C*%
X105080000Y-148500000D03*
%TD*%
D12*
%TO.P,J1,1,Pin_1*%
%TO.N,Net-(J1-Pad1)*%
X106460000Y-116750000D03*
D13*
%TO.P,J1,2,Pin_2*%
%TO.N,Earth*%
X109000000Y-116750000D03*
%TD*%
D23*
%TO.N,Net-(C4-Pad2)*%
X120500000Y-116500000D03*
X114000000Y-116500000D03*
%TO.N,Net-(C1-Pad1)*%
X123000000Y-104000000D03*
X120000000Y-100500000D03*
X120000000Y-91250000D03*
X130750000Y-104000000D03*
%TD*%
D24*
%TO.N,Net-(C4-Pad2)*%
X120500000Y-116500000D02*
X114000000Y-116500000D01*
%TO.N,Net-(C1-Pad1)*%
X120000000Y-91250000D02*
X120000000Y-100500000D01*
X130750000Y-104000000D02*
X123000000Y-104000000D01*
%TD*%
M02*
