M48
; DRILL file {KiCad (6.0.7)} date Mon Jan 30 14:02:38 2023
; FORMAT={-:-/ absolute / metric / decimal}
; #@! TF.CreationDate,2023-01-30T14:02:38-05:00
; #@! TF.GenerationSoftware,Kicad,Pcbnew,(6.0.7)
; #@! TF.FileFunction,Plated,1,2,PTH
FMAT,2
METRIC
; #@! TA.AperFunction,Plated,PTH,ViaDrill
T1C0.800
; #@! TA.AperFunction,Plated,PTH,ComponentDrill
T2C0.800
; #@! TA.AperFunction,Plated,PTH,ComponentDrill
T3C1.000
; #@! TA.AperFunction,Plated,PTH,ComponentDrill
T4C1.090
; #@! TA.AperFunction,Plated,PTH,ComponentDrill
T5C1.100
; #@! TA.AperFunction,Plated,PTH,ComponentDrill
T6C1.200
; #@! TA.AperFunction,Plated,PTH,ComponentDrill
T7C3.200
%
G90
G05
T1
X114.0Y-116.5
X120.0Y-91.25
X120.0Y-100.5
X120.5Y-116.5
X123.0Y-104.0
X130.75Y-104.0
T2
X103.94Y-104.5
X103.94Y-109.0
X104.44Y-70.5
X111.56Y-104.5
X111.56Y-109.0
X112.06Y-70.5
X122.69Y-70.5
X122.7Y-88.7
X122.7Y-91.24
X122.7Y-93.78
X122.7Y-96.32
X122.94Y-100.5
X130.31Y-70.5
X130.32Y-88.7
X130.32Y-91.24
X130.32Y-93.78
X130.32Y-96.32
X130.56Y-100.5
X136.94Y-83.5
X138.697Y-92.25
X138.697Y-104.0
X142.497Y-92.25
X142.497Y-104.0
X144.56Y-83.5
T3
X108.0Y-92.232
X108.0Y-96.032
X108.0Y-127.968
X108.0Y-131.768
X117.22Y-142.46
X117.22Y-145.0
X119.76Y-142.46
X119.76Y-145.0
X122.3Y-142.46
X122.3Y-145.0
X124.468Y-79.75
X124.84Y-142.46
X124.84Y-145.0
X127.38Y-142.46
X127.38Y-145.0
X128.268Y-79.75
X129.92Y-142.46
X129.92Y-145.0
X132.46Y-142.46
X132.46Y-145.0
X135.0Y-142.46
X135.0Y-145.0
X144.0Y-127.732
X144.0Y-131.532
T4
X106.46Y-116.75
X106.98Y-61.25
X109.0Y-116.75
X109.52Y-61.25
X125.23Y-61.25
X125.23Y-116.5
X127.77Y-61.25
X127.77Y-116.5
X139.46Y-61.25
X142.0Y-61.25
X142.75Y-116.5
X144.54Y-61.25
X145.29Y-116.5
T5
X112.92Y-136.0
X123.08Y-136.0
X129.17Y-136.0
X139.33Y-136.0
T6
X136.5Y-125.0
T7
X105.08Y-43.5
X105.08Y-148.5
X144.92Y-43.5
X144.92Y-148.5
T0
M30
