  0
SECTION
  2
HEADER
  9
$ANGBASE
  50
0.0
  9
$ANGDIR
  70
1
  9
$MEASUREMENT
  70
1
  0
ENDSEC
  0
SECTION
  2
TABLES
  0
TABLE
  2
LTYPE
  70
4
  0
LTYPE
  5
40F
  2
CONTINUOUS
  70
0
  3
Solid line
  72
65
  73
0
  40
0.0
  0
LTYPE
  5
410
  2
DASHDOT
 70
0
  3
Dash Dot ____ _ ____ _
 72
65
 73
4
 40
2.0
 49
1.25
 49
-0.25
 49
0.25
 49
-0.25
  0
LTYPE
  5
411
  2
DASHED
 70
0
  3
Dashed __ __ __ __ __
 72
65
 73
2
 40
0.75
 49
0.5
 49
-0.25
  0
LTYPE
  5
43B
  2
DOTTED
 70
0
  3
Dotted .  .  .  .
 72
65
 73
2
 40
0.2
 49
0.0
 49
-0.2
  0
ENDTAB
  0
TABLE
  2
STYLE
  70
4
  0
STYLE
  2
KICAD
  70
0
  40
0
  41
1
  42
1
  50
0
  71
0
  3
isocp.shx
  0
STYLE
  2
KICADB
  70
0
  40
0
  41
1
  42
1
  50
0
  71
0
  3
isocp.shx
  0
STYLE
  2
KICADI
  70
0
  40
0
  41
1
  42
1
  50
15
  71
0
  3
isocp.shx
  0
STYLE
  2
KICADBI
  70
0
  40
0
  41
1
  42
1
  50
15
  71
0
  3
isocp.shx
  0
ENDTAB
  0
TABLE
  2
LAYER
  70
1
  0
LAYER
  2
BLACK
  70
0
  62
7
  6
CONTINUOUS
  0
ENDTAB
  0
ENDSEC
  0
SECTION
  2
ENTITIES
0
ARC
8
BLACK
10
146
20
-148
40
4
50
-90
51
-0
0
ARC
8
BLACK
10
104
20
-44
40
4
50
90
51
180
0
LINE
8
BLACK
6
CONTINUOUS
10
146
20
-40
11
104
21
-40
0
LINE
8
BLACK
6
CONTINUOUS
10
104
20
-152
11
146
21
-152
0
LINE
8
BLACK
6
CONTINUOUS
10
100
20
-148
11
100
21
-44
0
ARC
8
BLACK
10
104
20
-148
40
4
50
-180
51
-90
0
ARC
8
BLACK
10
146
20
-44
40
4
50
-0
51
90
0
LINE
8
BLACK
6
CONTINUOUS
10
150
20
-44
11
150
21
-148
0
LINE
8
BLACK
6
CONTINUOUS
10
102.526
20
-155.155
11
102.526
21
-153.155
0
LINE
8
BLACK
6
CONTINUOUS
10
102.526
20
-153.155
11
103.002
21
-153.155
0
LINE
8
BLACK
6
CONTINUOUS
10
103.002
20
-153.155
11
103.288
21
-153.25
0
LINE
8
BLACK
6
CONTINUOUS
10
103.288
20
-153.25
11
103.479
21
-153.44
0
LINE
8
BLACK
6
CONTINUOUS
10
103.479
20
-153.44
11
103.574
21
-153.631
0
LINE
8
BLACK
6
CONTINUOUS
10
103.574
20
-153.631
11
103.669
21
-154.012
0
LINE
8
BLACK
6
CONTINUOUS
10
103.669
20
-154.012
11
103.669
21
-154.298
0
LINE
8
BLACK
6
CONTINUOUS
10
103.669
20
-154.298
11
103.574
21
-154.679
0
LINE
8
BLACK
6
CONTINUOUS
10
103.574
20
-154.679
11
103.479
21
-154.869
0
LINE
8
BLACK
6
CONTINUOUS
10
103.479
20
-154.869
11
103.288
21
-155.06
0
LINE
8
BLACK
6
CONTINUOUS
10
103.288
20
-155.06
11
103.002
21
-155.155
0
LINE
8
BLACK
6
CONTINUOUS
10
103.002
20
-155.155
11
102.526
21
-155.155
0
LINE
8
BLACK
6
CONTINUOUS
10
104.526
20
-155.155
11
104.526
21
-153.821
0
LINE
8
BLACK
6
CONTINUOUS
10
104.526
20
-154.202
11
104.621
21
-154.012
0
LINE
8
BLACK
6
CONTINUOUS
10
104.621
20
-154.012
11
104.717
21
-153.917
0
LINE
8
BLACK
6
CONTINUOUS
10
104.717
20
-153.917
11
104.907
21
-153.821
0
LINE
8
BLACK
6
CONTINUOUS
10
104.907
20
-153.821
11
105.098
21
-153.821
0
LINE
8
BLACK
6
CONTINUOUS
10
105.764
20
-155.155
11
105.764
21
-153.821
0
LINE
8
BLACK
6
CONTINUOUS
10
105.764
20
-153.155
11
105.669
21
-153.25
0
LINE
8
BLACK
6
CONTINUOUS
10
105.669
20
-153.25
11
105.764
21
-153.345
0
LINE
8
BLACK
6
CONTINUOUS
10
105.764
20
-153.345
11
105.86
21
-153.25
0
LINE
8
BLACK
6
CONTINUOUS
10
105.86
20
-153.25
11
105.764
21
-153.155
0
LINE
8
BLACK
6
CONTINUOUS
10
105.764
20
-153.155
11
105.764
21
-153.345
0
LINE
8
BLACK
6
CONTINUOUS
10
107.002
20
-155.155
11
106.812
21
-155.06
0
LINE
8
BLACK
6
CONTINUOUS
10
106.812
20
-155.06
11
106.717
21
-154.869
0
LINE
8
BLACK
6
CONTINUOUS
10
106.717
20
-154.869
11
106.717
21
-153.155
0
LINE
8
BLACK
6
CONTINUOUS
10
108.05
20
-155.155
11
107.86
21
-155.06
0
LINE
8
BLACK
6
CONTINUOUS
10
107.86
20
-155.06
11
107.764
21
-154.869
0
LINE
8
BLACK
6
CONTINUOUS
10
107.764
20
-154.869
11
107.764
21
-153.155
0
LINE
8
BLACK
6
CONTINUOUS
10
110.336
20
-155.155
11
110.336
21
-153.155
0
LINE
8
BLACK
6
CONTINUOUS
10
110.336
20
-153.155
11
111.002
21
-154.583
0
LINE
8
BLACK
6
CONTINUOUS
10
111.002
20
-154.583
11
111.669
21
-153.155
0
LINE
8
BLACK
6
CONTINUOUS
10
111.669
20
-153.155
11
111.669
21
-155.155
0
LINE
8
BLACK
6
CONTINUOUS
10
113.479
20
-155.155
11
113.479
21
-154.107
0
LINE
8
BLACK
6
CONTINUOUS
10
113.479
20
-154.107
11
113.383
21
-153.917
0
LINE
8
BLACK
6
CONTINUOUS
10
113.383
20
-153.917
11
113.193
21
-153.821
0
LINE
8
BLACK
6
CONTINUOUS
10
113.193
20
-153.821
11
112.812
21
-153.821
0
LINE
8
BLACK
6
CONTINUOUS
10
112.812
20
-153.821
11
112.621
21
-153.917
0
LINE
8
BLACK
6
CONTINUOUS
10
113.479
20
-155.06
11
113.288
21
-155.155
0
LINE
8
BLACK
6
CONTINUOUS
10
113.288
20
-155.155
11
112.812
21
-155.155
0
LINE
8
BLACK
6
CONTINUOUS
10
112.812
20
-155.155
11
112.621
21
-155.06
0
LINE
8
BLACK
6
CONTINUOUS
10
112.621
20
-155.06
11
112.526
21
-154.869
0
LINE
8
BLACK
6
CONTINUOUS
10
112.526
20
-154.869
11
112.526
21
-154.679
0
LINE
8
BLACK
6
CONTINUOUS
10
112.526
20
-154.679
11
112.621
21
-154.488
0
LINE
8
BLACK
6
CONTINUOUS
10
112.621
20
-154.488
11
112.812
21
-154.393
0
LINE
8
BLACK
6
CONTINUOUS
10
112.812
20
-154.393
11
113.288
21
-154.393
0
LINE
8
BLACK
6
CONTINUOUS
10
113.288
20
-154.393
11
113.479
21
-154.298
0
LINE
8
BLACK
6
CONTINUOUS
10
114.431
20
-153.821
11
114.431
21
-155.821
0
LINE
8
BLACK
6
CONTINUOUS
10
114.431
20
-153.917
11
114.621
21
-153.821
0
LINE
8
BLACK
6
CONTINUOUS
10
114.621
20
-153.821
11
115.002
21
-153.821
0
LINE
8
BLACK
6
CONTINUOUS
10
115.002
20
-153.821
11
115.193
21
-153.917
0
LINE
8
BLACK
6
CONTINUOUS
10
115.193
20
-153.917
11
115.288
21
-154.012
0
LINE
8
BLACK
6
CONTINUOUS
10
115.288
20
-154.012
11
115.383
21
-154.202
0
LINE
8
BLACK
6
CONTINUOUS
10
115.383
20
-154.202
11
115.383
21
-154.774
0
LINE
8
BLACK
6
CONTINUOUS
10
115.383
20
-154.774
11
115.288
21
-154.964
0
LINE
8
BLACK
6
CONTINUOUS
10
115.288
20
-154.964
11
115.193
21
-155.06
0
LINE
8
BLACK
6
CONTINUOUS
10
115.193
20
-155.06
11
115.002
21
-155.155
0
LINE
8
BLACK
6
CONTINUOUS
10
115.002
20
-155.155
11
114.621
21
-155.155
0
LINE
8
BLACK
6
CONTINUOUS
10
114.621
20
-155.155
11
114.431
21
-155.06
0
LINE
8
BLACK
6
CONTINUOUS
10
116.24
20
-154.964
11
116.336
21
-155.06
0
LINE
8
BLACK
6
CONTINUOUS
10
116.336
20
-155.06
11
116.24
21
-155.155
0
LINE
8
BLACK
6
CONTINUOUS
10
116.24
20
-155.155
11
116.145
21
-155.06
0
LINE
8
BLACK
6
CONTINUOUS
10
116.145
20
-155.06
11
116.24
21
-154.964
0
LINE
8
BLACK
6
CONTINUOUS
10
116.24
20
-154.964
11
116.24
21
-155.155
0
LINE
8
BLACK
6
CONTINUOUS
10
116.24
20
-153.917
11
116.336
21
-154.012
0
LINE
8
BLACK
6
CONTINUOUS
10
116.336
20
-154.012
11
116.24
21
-154.107
0
LINE
8
BLACK
6
CONTINUOUS
10
116.24
20
-154.107
11
116.145
21
-154.012
0
LINE
8
BLACK
6
CONTINUOUS
10
116.145
20
-154.012
11
116.24
21
-153.917
0
LINE
8
BLACK
6
CONTINUOUS
10
116.24
20
-153.917
11
116.24
21
-154.107
  0
ENDSEC
  0
EOF
