%TF.GenerationSoftware,KiCad,Pcbnew,(6.0.7)*%
%TF.CreationDate,2023-01-26T16:05:42-05:00*%
%TF.ProjectId,PREAMP,50524541-4d50-42e6-9b69-6361645f7063,rev?*%
%TF.SameCoordinates,Original*%
%TF.FileFunction,Copper,L1,Top*%
%TF.FilePolarity,Positive*%
%FSLAX46Y46*%
G04 Gerber Fmt 4.6, Leading zero omitted, Abs format (unit mm)*
G04 Created by KiCad (PCBNEW (6.0.7)) date 2023-01-26 16:05:42*
%MOMM*%
%LPD*%
G01*
G04 APERTURE LIST*
G04 Aperture macros list*
%AMRoundRect*
0 Rectangle with rounded corners*
0 $1 Rounding radius*
0 $2 $3 $4 $5 $6 $7 $8 $9 X,Y pos of 4 corners*
0 Add a 4 corners polygon primitive as box body*
4,1,4,$2,$3,$4,$5,$6,$7,$8,$9,$2,$3,0*
0 Add four circle primitives for the rounded corners*
1,1,$1+$1,$2,$3*
1,1,$1+$1,$4,$5*
1,1,$1+$1,$6,$7*
1,1,$1+$1,$8,$9*
0 Add four rect primitives between the rounded corners*
20,1,$1+$1,$2,$3,$4,$5,0*
20,1,$1+$1,$4,$5,$6,$7,0*
20,1,$1+$1,$6,$7,$8,$9,0*
20,1,$1+$1,$8,$9,$2,$3,0*%
G04 Aperture macros list end*
%TA.AperFunction,ComponentPad*%
%ADD10C,1.600000*%
%TD*%
%TA.AperFunction,ComponentPad*%
%ADD11O,1.600000X1.600000*%
%TD*%
%TA.AperFunction,ComponentPad*%
%ADD12RoundRect,0.250000X-0.620000X-0.620000X0.620000X-0.620000X0.620000X0.620000X-0.620000X0.620000X0*%
%TD*%
%TA.AperFunction,ComponentPad*%
%ADD13C,1.740000*%
%TD*%
%TA.AperFunction,ComponentPad*%
%ADD14R,1.600000X1.600000*%
%TD*%
%TA.AperFunction,ComponentPad*%
%ADD15C,5.600000*%
%TD*%
%TA.AperFunction,ComponentPad*%
%ADD16R,1.700000X1.700000*%
%TD*%
%TA.AperFunction,ComponentPad*%
%ADD17O,1.700000X1.700000*%
%TD*%
%TA.AperFunction,ComponentPad*%
%ADD18RoundRect,0.250000X-0.600000X0.600000X-0.600000X-0.600000X0.600000X-0.600000X0.600000X0.600000X0*%
%TD*%
%TA.AperFunction,ComponentPad*%
%ADD19C,1.700000*%
%TD*%
%TA.AperFunction,ComponentPad*%
%ADD20R,2.200000X2.200000*%
%TD*%
%TA.AperFunction,ComponentPad*%
%ADD21O,2.200000X2.200000*%
%TD*%
%TA.AperFunction,ComponentPad*%
%ADD22R,1.800000X1.800000*%
%TD*%
%TA.AperFunction,ComponentPad*%
%ADD23C,1.800000*%
%TD*%
%TA.AperFunction,ComponentPad*%
%ADD24R,2.000000X2.000000*%
%TD*%
%TA.AperFunction,ComponentPad*%
%ADD25C,2.000000*%
%TD*%
%TA.AperFunction,ComponentPad*%
%ADD26R,2.400000X1.600000*%
%TD*%
%TA.AperFunction,ComponentPad*%
%ADD27O,2.400000X1.600000*%
%TD*%
%TA.AperFunction,ViaPad*%
%ADD28C,1.000000*%
%TD*%
%TA.AperFunction,Conductor*%
%ADD29C,0.500000*%
%TD*%
G04 APERTURE END LIST*
D10*
%TO.P,R11,1*%
%TO.N,Net-(C4-Pad2)*%
X122500000Y-59000000D03*
D11*
%TO.P,R11,2*%
%TO.N,Earth*%
X130120000Y-59000000D03*
%TD*%
D10*
%TO.P,R5,1*%
%TO.N,Earth*%
X130060000Y-55250000D03*
D11*
%TO.P,R5,2*%
%TO.N,Net-(J8-Pad2)*%
X122440000Y-55250000D03*
%TD*%
D12*
%TO.P,J8,1,Pin_1*%
%TO.N,Net-(C9-Pad1)*%
X107980000Y-51750000D03*
D13*
%TO.P,J8,2,Pin_2*%
%TO.N,Net-(J8-Pad2)*%
X110520000Y-51750000D03*
%TD*%
D10*
%TO.P,C5,2*%
%TO.N,Net-(C5-Pad2)*%
X124200000Y-66000000D03*
D14*
%TO.P,C5,1*%
%TO.N,Net-(C5-Pad1)*%
X128000000Y-66000000D03*
%TD*%
D15*
%TO.P,H4,1*%
%TO.N,N/C*%
X144920000Y-148500000D03*
%TD*%
%TO.P,H3,1*%
%TO.N,N/C*%
X105080000Y-148500000D03*
%TD*%
%TO.P,H2,1*%
%TO.N,N/C*%
X144920000Y-43500000D03*
%TD*%
%TO.P,H1,1*%
%TO.N,N/C*%
X105080000Y-43500000D03*
%TD*%
D12*
%TO.P,S1,1,Pin_1*%
%TO.N,Net-(C2-Pad1)*%
X141500000Y-54000000D03*
D13*
%TO.P,S1,2,Pin_2*%
%TO.N,Net-(D1-Pad1)*%
X144040000Y-54000000D03*
%TD*%
D10*
%TO.P,R10,1*%
%TO.N,Net-(C2-Pad2)*%
X137440000Y-96250000D03*
D11*
%TO.P,R10,2*%
%TO.N,Net-(C2-Pad1)*%
X145060000Y-96250000D03*
%TD*%
D10*
%TO.P,R9,1*%
%TO.N,Net-(C1-Pad2)*%
X113000000Y-77000000D03*
D11*
%TO.P,R9,2*%
%TO.N,Earth*%
X105380000Y-77000000D03*
%TD*%
D10*
%TO.P,R8,1*%
%TO.N,Net-(C4-Pad1)*%
X112810000Y-94250000D03*
D11*
%TO.P,R8,2*%
%TO.N,Earth*%
X105190000Y-94250000D03*
%TD*%
D12*
%TO.P,R7,1,Pin_1*%
%TO.N,Earth*%
X140000000Y-65000000D03*
D13*
%TO.P,R7,2,Pin_2*%
%TO.N,Net-(R3-Pad2)*%
X142540000Y-65000000D03*
%TO.P,R7,3,Pin_3*%
%TO.N,Net-(C6-Pad2)*%
X145080000Y-65000000D03*
%TD*%
D12*
%TO.P,R6,1,Pin_1*%
%TO.N,Earth*%
X107000000Y-65250000D03*
D13*
%TO.P,R6,2,Pin_2*%
%TO.N,Net-(R2-Pad1)*%
X109540000Y-65250000D03*
%TO.P,R6,3,Pin_3*%
%TO.N,Net-(C5-Pad2)*%
X112080000Y-65250000D03*
%TD*%
D10*
%TO.P,R4,1*%
%TO.N,Net-(R3-Pad1)*%
X122440000Y-79000000D03*
D11*
%TO.P,R4,2*%
%TO.N,Net-(C7-Pad1)*%
X130060000Y-79000000D03*
%TD*%
D10*
%TO.P,R3,1*%
%TO.N,Net-(R3-Pad1)*%
X122440000Y-75000000D03*
D11*
%TO.P,R3,2*%
%TO.N,Net-(R3-Pad2)*%
X130060000Y-75000000D03*
%TD*%
D10*
%TO.P,R2,1*%
%TO.N,Net-(R2-Pad1)*%
X105380000Y-73000000D03*
D11*
%TO.P,R2,2*%
%TO.N,Net-(C2-Pad2)*%
X113000000Y-73000000D03*
%TD*%
D10*
%TO.P,R1,1*%
%TO.N,Net-(R1-Pad1)*%
X105190000Y-90000000D03*
D11*
%TO.P,R1,2*%
%TO.N,Net-(C5-Pad1)*%
X112810000Y-90000000D03*
%TD*%
D16*
%TO.P,JP1,1,A*%
%TO.N,Net-(C4-Pad2)*%
X107460000Y-59750000D03*
D17*
%TO.P,JP1,2,B*%
%TO.N,Net-(R3-Pad2)*%
X110000000Y-59750000D03*
%TD*%
D12*
%TO.P,J7,1,Pin_1*%
%TO.N,Earth*%
X122710000Y-122500000D03*
D13*
%TO.P,J7,2,Pin_2*%
%TO.N,Net-(R3-Pad2)*%
X125250000Y-122500000D03*
%TO.P,J7,3,Pin_3*%
%TO.N,Net-(C7-Pad2)*%
X127790000Y-122500000D03*
%TD*%
D12*
%TO.P,J6,1,Pin_1*%
%TO.N,Net-(R3-Pad2)*%
X139500000Y-117250000D03*
D13*
%TO.P,J6,2,Pin_2*%
%TO.N,Earth*%
X142040000Y-117250000D03*
%TD*%
D12*
%TO.P,J5,1,Pin_1*%
%TO.N,Net-(C8-Pad2)*%
X130480000Y-47250000D03*
D13*
%TO.P,J5,2,Pin_2*%
%TO.N,Earth*%
X133020000Y-47250000D03*
%TD*%
D12*
%TO.P,J4,1,Pin_1*%
%TO.N,Earth*%
X107480000Y-82250000D03*
D13*
%TO.P,J4,2,Pin_2*%
%TO.N,Net-(R1-Pad1)*%
X110020000Y-82250000D03*
%TD*%
D18*
%TO.P,J3,1,Pin_1*%
%TO.N,-12V*%
X135000000Y-142460000D03*
D19*
%TO.P,J3,2,Pin_2*%
X135000000Y-145000000D03*
%TO.P,J3,3,Pin_3*%
%TO.N,Earth*%
X132460000Y-142460000D03*
%TO.P,J3,4,Pin_4*%
X132460000Y-145000000D03*
%TO.P,J3,5,Pin_5*%
X129920000Y-142460000D03*
%TO.P,J3,6,Pin_6*%
X129920000Y-145000000D03*
%TO.P,J3,7,Pin_7*%
X127380000Y-142460000D03*
%TO.P,J3,8,Pin_8*%
X127380000Y-145000000D03*
%TO.P,J3,9,Pin_9*%
%TO.N,+12V*%
X124840000Y-142460000D03*
%TO.P,J3,10,Pin_10*%
X124840000Y-145000000D03*
%TO.P,J3,11,Pin_11*%
%TO.N,+5V*%
X122300000Y-142460000D03*
%TO.P,J3,12,Pin_12*%
X122300000Y-145000000D03*
%TO.P,J3,13,Pin_13*%
%TO.N,CV*%
X119760000Y-142460000D03*
%TO.P,J3,14,Pin_14*%
X119760000Y-145000000D03*
%TO.P,J3,15,Pin_15*%
%TO.N,GATE*%
X117220000Y-142460000D03*
%TO.P,J3,16,Pin_16*%
X117220000Y-145000000D03*
%TD*%
D12*
%TO.P,J2,1,Pin_1*%
%TO.N,Net-(C4-Pad2)*%
X119460000Y-47250000D03*
D13*
%TO.P,J2,2,Pin_2*%
%TO.N,Earth*%
X122000000Y-47250000D03*
%TD*%
D12*
%TO.P,J1,1,Pin_1*%
%TO.N,Net-(C3-Pad1)*%
X107730000Y-117250000D03*
D13*
%TO.P,J1,2,Pin_2*%
%TO.N,Earth*%
X110270000Y-117250000D03*
%TD*%
D20*
%TO.P,D4,1,K*%
%TO.N,-12V*%
X139330000Y-136000000D03*
D21*
%TO.P,D4,2,A*%
%TO.N,Net-(C10-Pad2)*%
X129170000Y-136000000D03*
%TD*%
D20*
%TO.P,D3,1,K*%
%TO.N,Net-(C9-Pad1)*%
X112920000Y-136000000D03*
D21*
%TO.P,D3,2,A*%
%TO.N,+12V*%
X123080000Y-136000000D03*
%TD*%
D22*
%TO.P,D2,1,K*%
%TO.N,Net-(C2-Pad2)*%
X139725000Y-88000000D03*
D23*
%TO.P,D2,2,A*%
%TO.N,Net-(D1-Pad1)*%
X142265000Y-88000000D03*
%TD*%
D22*
%TO.P,D1,1,K*%
%TO.N,Net-(D1-Pad1)*%
X142250000Y-80750000D03*
D23*
%TO.P,D1,2,A*%
%TO.N,Net-(C2-Pad2)*%
X139710000Y-80750000D03*
%TD*%
D24*
%TO.P,C10,1*%
%TO.N,Earth*%
X144000000Y-127732323D03*
D25*
%TO.P,C10,2*%
%TO.N,Net-(C10-Pad2)*%
X144000000Y-131532323D03*
%TD*%
D24*
%TO.P,C9,1*%
%TO.N,Net-(C9-Pad1)*%
X108000000Y-131767677D03*
D25*
%TO.P,C9,2*%
%TO.N,Earth*%
X108000000Y-127967677D03*
%TD*%
D14*
%TO.P,C8,1*%
%TO.N,Net-(C8-Pad1)*%
X110750000Y-104000000D03*
D10*
%TO.P,C8,2*%
%TO.N,Net-(C8-Pad2)*%
X106950000Y-104000000D03*
%TD*%
%TO.P,C7,2*%
%TO.N,Net-(C7-Pad2)*%
X124200000Y-113000000D03*
D14*
%TO.P,C7,1*%
%TO.N,Net-(C7-Pad1)*%
X128000000Y-113000000D03*
%TD*%
%TO.P,C6,1*%
%TO.N,Net-(C2-Pad1)*%
X139197349Y-102750000D03*
D10*
%TO.P,C6,2*%
%TO.N,Net-(C6-Pad2)*%
X142997349Y-102750000D03*
%TD*%
%TO.P,C4,1*%
%TO.N,Net-(C4-Pad1)*%
X111250000Y-97750000D03*
%TO.P,C4,2*%
%TO.N,Net-(C4-Pad2)*%
X106250000Y-97750000D03*
%TD*%
%TO.P,C3,1*%
%TO.N,Net-(C3-Pad1)*%
X106500000Y-111000000D03*
%TO.P,C3,2*%
%TO.N,Net-(C1-Pad2)*%
X111500000Y-111000000D03*
%TD*%
%TO.P,C2,1*%
%TO.N,Net-(C2-Pad1)*%
X129000000Y-105250000D03*
%TO.P,C2,2*%
%TO.N,Net-(C2-Pad2)*%
X124000000Y-105250000D03*
%TD*%
%TO.P,C1,1*%
%TO.N,Earth*%
X143750000Y-110500000D03*
%TO.P,C1,2*%
%TO.N,Net-(C1-Pad2)*%
X138750000Y-110500000D03*
%TD*%
D26*
%TO.P,U1,1*%
%TO.N,Net-(C5-Pad1)*%
X122500000Y-85000000D03*
D27*
%TO.P,U1,2,-*%
X122500000Y-87540000D03*
%TO.P,U1,3,+*%
%TO.N,Net-(C1-Pad2)*%
X122500000Y-90080000D03*
%TO.P,U1,4,V+*%
%TO.N,Net-(C9-Pad1)*%
X122500000Y-92620000D03*
%TO.P,U1,5,+*%
%TO.N,Net-(C4-Pad1)*%
X122500000Y-95160000D03*
%TO.P,U1,6,-*%
%TO.N,Net-(C8-Pad1)*%
X122500000Y-97700000D03*
%TO.P,U1,7*%
X122500000Y-100240000D03*
%TO.P,U1,8*%
%TO.N,Net-(C2-Pad1)*%
X130120000Y-100240000D03*
%TO.P,U1,9,-*%
%TO.N,Net-(C2-Pad2)*%
X130120000Y-97700000D03*
%TO.P,U1,10,+*%
%TO.N,Earth*%
X130120000Y-95160000D03*
%TO.P,U1,11,V-*%
%TO.N,Net-(C10-Pad2)*%
X130120000Y-92620000D03*
%TO.P,U1,12,+*%
%TO.N,Earth*%
X130120000Y-90080000D03*
%TO.P,U1,13,-*%
%TO.N,Net-(R3-Pad1)*%
X130120000Y-87540000D03*
%TO.P,U1,14*%
%TO.N,Net-(C7-Pad1)*%
X130120000Y-85000000D03*
%TD*%
D28*
%TO.N,Net-(D1-Pad1)*%
X134750000Y-59500000D03*
X134750000Y-70750000D03*
%TO.N,Net-(C2-Pad1)*%
X136250000Y-57250000D03*
X136250000Y-92500000D03*
%TO.N,Net-(C2-Pad2)*%
X132500000Y-71750000D03*
X116250000Y-71750000D03*
%TO.N,Net-(R3-Pad2)*%
X132500000Y-82250000D03*
X132500000Y-114750000D03*
%TO.N,Net-(C7-Pad1)*%
X133750000Y-85000000D03*
X133750000Y-113000000D03*
%TO.N,Net-(C8-Pad2)*%
X116500000Y-59750000D03*
X116500000Y-67750000D03*
%TO.N,Net-(C2-Pad2)*%
X135000000Y-88000000D03*
X135000000Y-94500000D03*
%TD*%
D29*
%TO.N,Net-(D1-Pad1)*%
X134750000Y-59500000D02*
X134750000Y-70750000D01*
%TO.N,Net-(C2-Pad1)*%
X136250000Y-57250000D02*
X136250000Y-92500000D01*
%TO.N,Net-(C2-Pad2)*%
X116250000Y-71750000D02*
X132500000Y-71750000D01*
%TO.N,Net-(R3-Pad2)*%
X132500000Y-114750000D02*
X132500000Y-82250000D01*
%TO.N,Net-(C7-Pad1)*%
X133750000Y-113000000D02*
X133750000Y-85000000D01*
%TO.N,Net-(C8-Pad2)*%
X116500000Y-67750000D02*
X116500000Y-59750000D01*
%TO.N,Net-(C2-Pad2)*%
X135000000Y-94500000D02*
X135000000Y-88000000D01*
%TD*%
M02*
