%TF.GenerationSoftware,KiCad,Pcbnew,(6.0.7)*%
%TF.CreationDate,2023-01-26T16:05:42-05:00*%
%TF.ProjectId,PREAMP,50524541-4d50-42e6-9b69-6361645f7063,rev?*%
%TF.SameCoordinates,Original*%
%TF.FileFunction,Legend,Top*%
%TF.FilePolarity,Positive*%
%FSLAX46Y46*%
G04 Gerber Fmt 4.6, Leading zero omitted, Abs format (unit mm)*
G04 Created by KiCad (PCBNEW (6.0.7)) date 2023-01-26 16:05:42*
%MOMM*%
%LPD*%
G01*
G04 APERTURE LIST*
%ADD10C,0.300000*%
%ADD11C,0.150000*%
%ADD12C,0.120000*%
G04 APERTURE END LIST*
D10*
X116154761Y-128747142D02*
X116821428Y-128747142D01*
X117107142Y-129794761D02*
X116154761Y-129794761D01*
X116154761Y-127794761D01*
X117107142Y-127794761D01*
X117773809Y-128461428D02*
X118821428Y-128461428D01*
X117773809Y-129794761D01*
X118821428Y-129794761D01*
X120345238Y-129699523D02*
X120154761Y-129794761D01*
X119773809Y-129794761D01*
X119583333Y-129699523D01*
X119488095Y-129509047D01*
X119488095Y-128747142D01*
X119583333Y-128556666D01*
X119773809Y-128461428D01*
X120154761Y-128461428D01*
X120345238Y-128556666D01*
X120440476Y-128747142D01*
X120440476Y-128937619D01*
X119488095Y-129128095D01*
X121297619Y-129794761D02*
X121297619Y-128461428D01*
X121297619Y-128842380D02*
X121392857Y-128651904D01*
X121488095Y-128556666D01*
X121678571Y-128461428D01*
X121869047Y-128461428D01*
X125011904Y-129794761D02*
X124059523Y-129794761D01*
X124059523Y-127794761D01*
X125964285Y-129794761D02*
X125773809Y-129699523D01*
X125678571Y-129604285D01*
X125583333Y-129413809D01*
X125583333Y-128842380D01*
X125678571Y-128651904D01*
X125773809Y-128556666D01*
X125964285Y-128461428D01*
X126250000Y-128461428D01*
X126440476Y-128556666D01*
X126535714Y-128651904D01*
X126630952Y-128842380D01*
X126630952Y-129413809D01*
X126535714Y-129604285D01*
X126440476Y-129699523D01*
X126250000Y-129794761D01*
X125964285Y-129794761D01*
X127488095Y-128461428D02*
X127488095Y-129794761D01*
X127488095Y-128651904D02*
X127583333Y-128556666D01*
X127773809Y-128461428D01*
X128059523Y-128461428D01*
X128250000Y-128556666D01*
X128345238Y-128747142D01*
X128345238Y-129794761D01*
X130154761Y-128461428D02*
X130154761Y-130080476D01*
X130059523Y-130270952D01*
X129964285Y-130366190D01*
X129773809Y-130461428D01*
X129488095Y-130461428D01*
X129297619Y-130366190D01*
X130154761Y-129699523D02*
X129964285Y-129794761D01*
X129583333Y-129794761D01*
X129392857Y-129699523D01*
X129297619Y-129604285D01*
X129202380Y-129413809D01*
X129202380Y-128842380D01*
X129297619Y-128651904D01*
X129392857Y-128556666D01*
X129583333Y-128461428D01*
X129964285Y-128461428D01*
X130154761Y-128556666D01*
X131107142Y-129794761D02*
X131107142Y-128461428D01*
X131107142Y-127794761D02*
X131011904Y-127890000D01*
X131107142Y-127985238D01*
X131202380Y-127890000D01*
X131107142Y-127794761D01*
X131107142Y-127985238D01*
X132059523Y-128461428D02*
X132059523Y-129794761D01*
X132059523Y-128651904D02*
X132154761Y-128556666D01*
X132345238Y-128461428D01*
X132630952Y-128461428D01*
X132821428Y-128556666D01*
X132916666Y-128747142D01*
X132916666Y-129794761D01*
X134726190Y-128461428D02*
X134726190Y-129794761D01*
X133869047Y-128461428D02*
X133869047Y-129509047D01*
X133964285Y-129699523D01*
X134154761Y-129794761D01*
X134440476Y-129794761D01*
X134630952Y-129699523D01*
X134726190Y-129604285D01*
X135583333Y-129699523D02*
X135773809Y-129794761D01*
X136154761Y-129794761D01*
X136345238Y-129699523D01*
X136440476Y-129509047D01*
X136440476Y-129413809D01*
X136345238Y-129223333D01*
X136154761Y-129128095D01*
X135869047Y-129128095D01*
X135678571Y-129032857D01*
X135583333Y-128842380D01*
X135583333Y-128747142D01*
X135678571Y-128556666D01*
X135869047Y-128461428D01*
X136154761Y-128461428D01*
X136345238Y-128556666D01*
X120154761Y-131014761D02*
X120154761Y-132443333D01*
X120059523Y-132729047D01*
X119869047Y-132919523D01*
X119583333Y-133014761D01*
X119392857Y-133014761D01*
X121964285Y-133014761D02*
X121964285Y-131967142D01*
X121869047Y-131776666D01*
X121678571Y-131681428D01*
X121297619Y-131681428D01*
X121107142Y-131776666D01*
X121964285Y-132919523D02*
X121773809Y-133014761D01*
X121297619Y-133014761D01*
X121107142Y-132919523D01*
X121011904Y-132729047D01*
X121011904Y-132538571D01*
X121107142Y-132348095D01*
X121297619Y-132252857D01*
X121773809Y-132252857D01*
X121964285Y-132157619D01*
X122916666Y-131681428D02*
X122916666Y-133014761D01*
X122916666Y-131871904D02*
X123011904Y-131776666D01*
X123202380Y-131681428D01*
X123488095Y-131681428D01*
X123678571Y-131776666D01*
X123773809Y-131967142D01*
X123773809Y-133014761D01*
X126154761Y-131205238D02*
X126250000Y-131110000D01*
X126440476Y-131014761D01*
X126916666Y-131014761D01*
X127107142Y-131110000D01*
X127202380Y-131205238D01*
X127297619Y-131395714D01*
X127297619Y-131586190D01*
X127202380Y-131871904D01*
X126059523Y-133014761D01*
X127297619Y-133014761D01*
X128535714Y-131014761D02*
X128726190Y-131014761D01*
X128916666Y-131110000D01*
X129011904Y-131205238D01*
X129107142Y-131395714D01*
X129202380Y-131776666D01*
X129202380Y-132252857D01*
X129107142Y-132633809D01*
X129011904Y-132824285D01*
X128916666Y-132919523D01*
X128726190Y-133014761D01*
X128535714Y-133014761D01*
X128345238Y-132919523D01*
X128250000Y-132824285D01*
X128154761Y-132633809D01*
X128059523Y-132252857D01*
X128059523Y-131776666D01*
X128154761Y-131395714D01*
X128250000Y-131205238D01*
X128345238Y-131110000D01*
X128535714Y-131014761D01*
X129964285Y-131205238D02*
X130059523Y-131110000D01*
X130250000Y-131014761D01*
X130726190Y-131014761D01*
X130916666Y-131110000D01*
X131011904Y-131205238D01*
X131107142Y-131395714D01*
X131107142Y-131586190D01*
X131011904Y-131871904D01*
X129869047Y-133014761D01*
X131107142Y-133014761D01*
X131773809Y-131014761D02*
X133011904Y-131014761D01*
X132345238Y-131776666D01*
X132630952Y-131776666D01*
X132821428Y-131871904D01*
X132916666Y-131967142D01*
X133011904Y-132157619D01*
X133011904Y-132633809D01*
X132916666Y-132824285D01*
X132821428Y-132919523D01*
X132630952Y-133014761D01*
X132059523Y-133014761D01*
X131869047Y-132919523D01*
X131773809Y-132824285D01*
X113904761Y-42107142D02*
X114571428Y-42107142D01*
X114857142Y-43154761D02*
X113904761Y-43154761D01*
X113904761Y-41154761D01*
X114857142Y-41154761D01*
X115714285Y-43154761D02*
X115714285Y-41154761D01*
X116476190Y-41154761D01*
X116666666Y-41250000D01*
X116761904Y-41345238D01*
X116857142Y-41535714D01*
X116857142Y-41821428D01*
X116761904Y-42011904D01*
X116666666Y-42107142D01*
X116476190Y-42202380D01*
X115714285Y-42202380D01*
X118380952Y-42107142D02*
X117714285Y-42107142D01*
X117714285Y-43154761D02*
X117714285Y-41154761D01*
X118666666Y-41154761D01*
X119428571Y-43154761D02*
X119428571Y-41154761D01*
X120095238Y-42583333D01*
X120761904Y-41154761D01*
X120761904Y-43154761D01*
X123238095Y-42392857D02*
X124761904Y-42392857D01*
X127238095Y-43154761D02*
X127238095Y-41154761D01*
X128000000Y-41154761D01*
X128190476Y-41250000D01*
X128285714Y-41345238D01*
X128380952Y-41535714D01*
X128380952Y-41821428D01*
X128285714Y-42011904D01*
X128190476Y-42107142D01*
X128000000Y-42202380D01*
X127238095Y-42202380D01*
X130380952Y-43154761D02*
X129714285Y-42202380D01*
X129238095Y-43154761D02*
X129238095Y-41154761D01*
X130000000Y-41154761D01*
X130190476Y-41250000D01*
X130285714Y-41345238D01*
X130380952Y-41535714D01*
X130380952Y-41821428D01*
X130285714Y-42011904D01*
X130190476Y-42107142D01*
X130000000Y-42202380D01*
X129238095Y-42202380D01*
X131238095Y-42107142D02*
X131904761Y-42107142D01*
X132190476Y-43154761D02*
X131238095Y-43154761D01*
X131238095Y-41154761D01*
X132190476Y-41154761D01*
X132952380Y-42583333D02*
X133904761Y-42583333D01*
X132761904Y-43154761D02*
X133428571Y-41154761D01*
X134095238Y-43154761D01*
X134761904Y-43154761D02*
X134761904Y-41154761D01*
X135428571Y-42583333D01*
X136095238Y-41154761D01*
X136095238Y-43154761D01*
X137047619Y-43154761D02*
X137047619Y-41154761D01*
X137809523Y-41154761D01*
X138000000Y-41250000D01*
X138095238Y-41345238D01*
X138190476Y-41535714D01*
X138190476Y-41821428D01*
X138095238Y-42011904D01*
X138000000Y-42107142D01*
X137809523Y-42202380D01*
X137047619Y-42202380D01*
D11*
%TO.C,R11*%
X119107142Y-58702380D02*
X118773809Y-58226190D01*
X118535714Y-58702380D02*
X118535714Y-57702380D01*
X118916666Y-57702380D01*
X119011904Y-57750000D01*
X119059523Y-57797619D01*
X119107142Y-57892857D01*
X119107142Y-58035714D01*
X119059523Y-58130952D01*
X119011904Y-58178571D01*
X118916666Y-58226190D01*
X118535714Y-58226190D01*
X120059523Y-58702380D02*
X119488095Y-58702380D01*
X119773809Y-58702380D02*
X119773809Y-57702380D01*
X119678571Y-57845238D01*
X119583333Y-57940476D01*
X119488095Y-57988095D01*
X121011904Y-58702380D02*
X120440476Y-58702380D01*
X120726190Y-58702380D02*
X120726190Y-57702380D01*
X120630952Y-57845238D01*
X120535714Y-57940476D01*
X120440476Y-57988095D01*
X132464285Y-58702380D02*
X131892857Y-58702380D01*
X132178571Y-58702380D02*
X132178571Y-57702380D01*
X132083333Y-57845238D01*
X131988095Y-57940476D01*
X131892857Y-57988095D01*
X132892857Y-58702380D02*
X132892857Y-57702380D01*
X133226190Y-58416666D01*
X133559523Y-57702380D01*
X133559523Y-58702380D01*
%TO.C,R5*%
X119833333Y-55202380D02*
X119500000Y-54726190D01*
X119261904Y-55202380D02*
X119261904Y-54202380D01*
X119642857Y-54202380D01*
X119738095Y-54250000D01*
X119785714Y-54297619D01*
X119833333Y-54392857D01*
X119833333Y-54535714D01*
X119785714Y-54630952D01*
X119738095Y-54678571D01*
X119642857Y-54726190D01*
X119261904Y-54726190D01*
X120738095Y-54202380D02*
X120261904Y-54202380D01*
X120214285Y-54678571D01*
X120261904Y-54630952D01*
X120357142Y-54583333D01*
X120595238Y-54583333D01*
X120690476Y-54630952D01*
X120738095Y-54678571D01*
X120785714Y-54773809D01*
X120785714Y-55011904D01*
X120738095Y-55107142D01*
X120690476Y-55154761D01*
X120595238Y-55202380D01*
X120357142Y-55202380D01*
X120261904Y-55154761D01*
X120214285Y-55107142D01*
X132380952Y-55202380D02*
X131809523Y-55202380D01*
X132095238Y-55202380D02*
X132095238Y-54202380D01*
X132000000Y-54345238D01*
X131904761Y-54440476D01*
X131809523Y-54488095D01*
X132809523Y-55202380D02*
X132809523Y-54202380D01*
X132904761Y-54821428D02*
X133190476Y-55202380D01*
X133190476Y-54535714D02*
X132809523Y-54916666D01*
%TO.C,J8*%
X108916666Y-47452380D02*
X108916666Y-48166666D01*
X108869047Y-48309523D01*
X108773809Y-48404761D01*
X108630952Y-48452380D01*
X108535714Y-48452380D01*
X109535714Y-47880952D02*
X109440476Y-47833333D01*
X109392857Y-47785714D01*
X109345238Y-47690476D01*
X109345238Y-47642857D01*
X109392857Y-47547619D01*
X109440476Y-47500000D01*
X109535714Y-47452380D01*
X109726190Y-47452380D01*
X109821428Y-47500000D01*
X109869047Y-47547619D01*
X109916666Y-47642857D01*
X109916666Y-47690476D01*
X109869047Y-47785714D01*
X109821428Y-47833333D01*
X109726190Y-47880952D01*
X109535714Y-47880952D01*
X109440476Y-47928571D01*
X109392857Y-47976190D01*
X109345238Y-48071428D01*
X109345238Y-48261904D01*
X109392857Y-48357142D01*
X109440476Y-48404761D01*
X109535714Y-48452380D01*
X109726190Y-48452380D01*
X109821428Y-48404761D01*
X109869047Y-48357142D01*
X109916666Y-48261904D01*
X109916666Y-48071428D01*
X109869047Y-47976190D01*
X109821428Y-47928571D01*
X109726190Y-47880952D01*
X105535714Y-57452380D02*
X105535714Y-56452380D01*
X105916666Y-56452380D01*
X106011904Y-56500000D01*
X106059523Y-56547619D01*
X106107142Y-56642857D01*
X106107142Y-56785714D01*
X106059523Y-56880952D01*
X106011904Y-56928571D01*
X105916666Y-56976190D01*
X105535714Y-56976190D01*
X106678571Y-57452380D02*
X106583333Y-57404761D01*
X106535714Y-57357142D01*
X106488095Y-57261904D01*
X106488095Y-56976190D01*
X106535714Y-56880952D01*
X106583333Y-56833333D01*
X106678571Y-56785714D01*
X106821428Y-56785714D01*
X106916666Y-56833333D01*
X106964285Y-56880952D01*
X107011904Y-56976190D01*
X107011904Y-57261904D01*
X106964285Y-57357142D01*
X106916666Y-57404761D01*
X106821428Y-57452380D01*
X106678571Y-57452380D01*
X107345238Y-56785714D02*
X107535714Y-57452380D01*
X107726190Y-56976190D01*
X107916666Y-57452380D01*
X108107142Y-56785714D01*
X108869047Y-57404761D02*
X108773809Y-57452380D01*
X108583333Y-57452380D01*
X108488095Y-57404761D01*
X108440476Y-57309523D01*
X108440476Y-56928571D01*
X108488095Y-56833333D01*
X108583333Y-56785714D01*
X108773809Y-56785714D01*
X108869047Y-56833333D01*
X108916666Y-56928571D01*
X108916666Y-57023809D01*
X108440476Y-57119047D01*
X109345238Y-57452380D02*
X109345238Y-56785714D01*
X109345238Y-56976190D02*
X109392857Y-56880952D01*
X109440476Y-56833333D01*
X109535714Y-56785714D01*
X109630952Y-56785714D01*
X111202380Y-57452380D02*
X110726190Y-57452380D01*
X110726190Y-56452380D01*
X111535714Y-56928571D02*
X111869047Y-56928571D01*
X112011904Y-57452380D02*
X111535714Y-57452380D01*
X111535714Y-56452380D01*
X112011904Y-56452380D01*
X112440476Y-57452380D02*
X112440476Y-56452380D01*
X112678571Y-56452380D01*
X112821428Y-56500000D01*
X112916666Y-56595238D01*
X112964285Y-56690476D01*
X113011904Y-56880952D01*
X113011904Y-57023809D01*
X112964285Y-57214285D01*
X112916666Y-57309523D01*
X112821428Y-57404761D01*
X112678571Y-57452380D01*
X112440476Y-57452380D01*
%TO.C,C5*%
X120083333Y-65357142D02*
X120035714Y-65404761D01*
X119892857Y-65452380D01*
X119797619Y-65452380D01*
X119654761Y-65404761D01*
X119559523Y-65309523D01*
X119511904Y-65214285D01*
X119464285Y-65023809D01*
X119464285Y-64880952D01*
X119511904Y-64690476D01*
X119559523Y-64595238D01*
X119654761Y-64500000D01*
X119797619Y-64452380D01*
X119892857Y-64452380D01*
X120035714Y-64500000D01*
X120083333Y-64547619D01*
X120988095Y-64452380D02*
X120511904Y-64452380D01*
X120464285Y-64928571D01*
X120511904Y-64880952D01*
X120607142Y-64833333D01*
X120845238Y-64833333D01*
X120940476Y-64880952D01*
X120988095Y-64928571D01*
X121035714Y-65023809D01*
X121035714Y-65261904D01*
X120988095Y-65357142D01*
X120940476Y-65404761D01*
X120845238Y-65452380D01*
X120607142Y-65452380D01*
X120511904Y-65404761D01*
X120464285Y-65357142D01*
X117869047Y-66047619D02*
X117916666Y-66000000D01*
X118011904Y-65952380D01*
X118250000Y-65952380D01*
X118345238Y-66000000D01*
X118392857Y-66047619D01*
X118440476Y-66142857D01*
X118440476Y-66238095D01*
X118392857Y-66380952D01*
X117821428Y-66952380D01*
X118440476Y-66952380D01*
X118869047Y-66857142D02*
X118916666Y-66904761D01*
X118869047Y-66952380D01*
X118821428Y-66904761D01*
X118869047Y-66857142D01*
X118869047Y-66952380D01*
X119297619Y-66047619D02*
X119345238Y-66000000D01*
X119440476Y-65952380D01*
X119678571Y-65952380D01*
X119773809Y-66000000D01*
X119821428Y-66047619D01*
X119869047Y-66142857D01*
X119869047Y-66238095D01*
X119821428Y-66380952D01*
X119250000Y-66952380D01*
X119869047Y-66952380D01*
X120726190Y-66285714D02*
X120726190Y-66952380D01*
X120297619Y-66285714D02*
X120297619Y-66809523D01*
X120345238Y-66904761D01*
X120440476Y-66952380D01*
X120583333Y-66952380D01*
X120678571Y-66904761D01*
X120726190Y-66857142D01*
X121535714Y-66428571D02*
X121202380Y-66428571D01*
X121202380Y-66952380D02*
X121202380Y-65952380D01*
X121678571Y-65952380D01*
%TO.C,S1*%
X142008095Y-50654761D02*
X142150952Y-50702380D01*
X142389047Y-50702380D01*
X142484285Y-50654761D01*
X142531904Y-50607142D01*
X142579523Y-50511904D01*
X142579523Y-50416666D01*
X142531904Y-50321428D01*
X142484285Y-50273809D01*
X142389047Y-50226190D01*
X142198571Y-50178571D01*
X142103333Y-50130952D01*
X142055714Y-50083333D01*
X142008095Y-49988095D01*
X142008095Y-49892857D01*
X142055714Y-49797619D01*
X142103333Y-49750000D01*
X142198571Y-49702380D01*
X142436666Y-49702380D01*
X142579523Y-49750000D01*
X143531904Y-50702380D02*
X142960476Y-50702380D01*
X143246190Y-50702380D02*
X143246190Y-49702380D01*
X143150952Y-49845238D01*
X143055714Y-49940476D01*
X142960476Y-49988095D01*
%TO.C,R10*%
X137107142Y-94202380D02*
X136773809Y-93726190D01*
X136535714Y-94202380D02*
X136535714Y-93202380D01*
X136916666Y-93202380D01*
X137011904Y-93250000D01*
X137059523Y-93297619D01*
X137107142Y-93392857D01*
X137107142Y-93535714D01*
X137059523Y-93630952D01*
X137011904Y-93678571D01*
X136916666Y-93726190D01*
X136535714Y-93726190D01*
X138059523Y-94202380D02*
X137488095Y-94202380D01*
X137773809Y-94202380D02*
X137773809Y-93202380D01*
X137678571Y-93345238D01*
X137583333Y-93440476D01*
X137488095Y-93488095D01*
X138678571Y-93202380D02*
X138773809Y-93202380D01*
X138869047Y-93250000D01*
X138916666Y-93297619D01*
X138964285Y-93392857D01*
X139011904Y-93583333D01*
X139011904Y-93821428D01*
X138964285Y-94011904D01*
X138916666Y-94107142D01*
X138869047Y-94154761D01*
X138773809Y-94202380D01*
X138678571Y-94202380D01*
X138583333Y-94154761D01*
X138535714Y-94107142D01*
X138488095Y-94011904D01*
X138440476Y-93821428D01*
X138440476Y-93583333D01*
X138488095Y-93392857D01*
X138535714Y-93297619D01*
X138583333Y-93250000D01*
X138678571Y-93202380D01*
X143083333Y-93535714D02*
X143083333Y-94202380D01*
X142845238Y-93154761D02*
X142607142Y-93869047D01*
X143226190Y-93869047D01*
X143511904Y-93202380D02*
X144178571Y-93202380D01*
X143750000Y-94202380D01*
X144750000Y-93202380D02*
X144845238Y-93202380D01*
X144940476Y-93250000D01*
X144988095Y-93297619D01*
X145035714Y-93392857D01*
X145083333Y-93583333D01*
X145083333Y-93821428D01*
X145035714Y-94011904D01*
X144988095Y-94107142D01*
X144940476Y-94154761D01*
X144845238Y-94202380D01*
X144750000Y-94202380D01*
X144654761Y-94154761D01*
X144607142Y-94107142D01*
X144559523Y-94011904D01*
X144511904Y-93821428D01*
X144511904Y-93583333D01*
X144559523Y-93392857D01*
X144607142Y-93297619D01*
X144654761Y-93250000D01*
X144750000Y-93202380D01*
X145511904Y-94202380D02*
X145511904Y-93202380D01*
X145607142Y-93821428D02*
X145892857Y-94202380D01*
X145892857Y-93535714D02*
X145511904Y-93916666D01*
%TO.C,R9*%
X103083333Y-76702380D02*
X102750000Y-76226190D01*
X102511904Y-76702380D02*
X102511904Y-75702380D01*
X102892857Y-75702380D01*
X102988095Y-75750000D01*
X103035714Y-75797619D01*
X103083333Y-75892857D01*
X103083333Y-76035714D01*
X103035714Y-76130952D01*
X102988095Y-76178571D01*
X102892857Y-76226190D01*
X102511904Y-76226190D01*
X103559523Y-76702380D02*
X103750000Y-76702380D01*
X103845238Y-76654761D01*
X103892857Y-76607142D01*
X103988095Y-76464285D01*
X104035714Y-76273809D01*
X104035714Y-75892857D01*
X103988095Y-75797619D01*
X103940476Y-75750000D01*
X103845238Y-75702380D01*
X103654761Y-75702380D01*
X103559523Y-75750000D01*
X103511904Y-75797619D01*
X103464285Y-75892857D01*
X103464285Y-76130952D01*
X103511904Y-76226190D01*
X103559523Y-76273809D01*
X103654761Y-76321428D01*
X103845238Y-76321428D01*
X103940476Y-76273809D01*
X103988095Y-76226190D01*
X104035714Y-76130952D01*
X114833333Y-72035714D02*
X114833333Y-72702380D01*
X114595238Y-71654761D02*
X114357142Y-72369047D01*
X114976190Y-72369047D01*
X115261904Y-71702380D02*
X115928571Y-71702380D01*
X115500000Y-72702380D01*
X116500000Y-71702380D02*
X116595238Y-71702380D01*
X116690476Y-71750000D01*
X116738095Y-71797619D01*
X116785714Y-71892857D01*
X116833333Y-72083333D01*
X116833333Y-72321428D01*
X116785714Y-72511904D01*
X116738095Y-72607142D01*
X116690476Y-72654761D01*
X116595238Y-72702380D01*
X116500000Y-72702380D01*
X116404761Y-72654761D01*
X116357142Y-72607142D01*
X116309523Y-72511904D01*
X116261904Y-72321428D01*
X116261904Y-72083333D01*
X116309523Y-71892857D01*
X116357142Y-71797619D01*
X116404761Y-71750000D01*
X116500000Y-71702380D01*
X117261904Y-72702380D02*
X117261904Y-71702380D01*
X117357142Y-72321428D02*
X117642857Y-72702380D01*
X117642857Y-72035714D02*
X117261904Y-72416666D01*
%TO.C,R8*%
X115583333Y-93952380D02*
X115250000Y-93476190D01*
X115011904Y-93952380D02*
X115011904Y-92952380D01*
X115392857Y-92952380D01*
X115488095Y-93000000D01*
X115535714Y-93047619D01*
X115583333Y-93142857D01*
X115583333Y-93285714D01*
X115535714Y-93380952D01*
X115488095Y-93428571D01*
X115392857Y-93476190D01*
X115011904Y-93476190D01*
X116154761Y-93380952D02*
X116059523Y-93333333D01*
X116011904Y-93285714D01*
X115964285Y-93190476D01*
X115964285Y-93142857D01*
X116011904Y-93047619D01*
X116059523Y-93000000D01*
X116154761Y-92952380D01*
X116345238Y-92952380D01*
X116440476Y-93000000D01*
X116488095Y-93047619D01*
X116535714Y-93142857D01*
X116535714Y-93190476D01*
X116488095Y-93285714D01*
X116440476Y-93333333D01*
X116345238Y-93380952D01*
X116154761Y-93380952D01*
X116059523Y-93428571D01*
X116011904Y-93476190D01*
X115964285Y-93571428D01*
X115964285Y-93761904D01*
X116011904Y-93857142D01*
X116059523Y-93904761D01*
X116154761Y-93952380D01*
X116345238Y-93952380D01*
X116440476Y-93904761D01*
X116488095Y-93857142D01*
X116535714Y-93761904D01*
X116535714Y-93571428D01*
X116488095Y-93476190D01*
X116440476Y-93428571D01*
X116345238Y-93380952D01*
X115428571Y-95452380D02*
X114857142Y-95452380D01*
X115142857Y-95452380D02*
X115142857Y-94452380D01*
X115047619Y-94595238D01*
X114952380Y-94690476D01*
X114857142Y-94738095D01*
X116047619Y-94452380D02*
X116142857Y-94452380D01*
X116238095Y-94500000D01*
X116285714Y-94547619D01*
X116333333Y-94642857D01*
X116380952Y-94833333D01*
X116380952Y-95071428D01*
X116333333Y-95261904D01*
X116285714Y-95357142D01*
X116238095Y-95404761D01*
X116142857Y-95452380D01*
X116047619Y-95452380D01*
X115952380Y-95404761D01*
X115904761Y-95357142D01*
X115857142Y-95261904D01*
X115809523Y-95071428D01*
X115809523Y-94833333D01*
X115857142Y-94642857D01*
X115904761Y-94547619D01*
X115952380Y-94500000D01*
X116047619Y-94452380D01*
X117000000Y-94452380D02*
X117095238Y-94452380D01*
X117190476Y-94500000D01*
X117238095Y-94547619D01*
X117285714Y-94642857D01*
X117333333Y-94833333D01*
X117333333Y-95071428D01*
X117285714Y-95261904D01*
X117238095Y-95357142D01*
X117190476Y-95404761D01*
X117095238Y-95452380D01*
X117000000Y-95452380D01*
X116904761Y-95404761D01*
X116857142Y-95357142D01*
X116809523Y-95261904D01*
X116761904Y-95071428D01*
X116761904Y-94833333D01*
X116809523Y-94642857D01*
X116857142Y-94547619D01*
X116904761Y-94500000D01*
X117000000Y-94452380D01*
X117761904Y-95452380D02*
X117761904Y-94452380D01*
X117857142Y-95071428D02*
X118142857Y-95452380D01*
X118142857Y-94785714D02*
X117761904Y-95166666D01*
%TO.C,R7*%
X142373333Y-61702380D02*
X142040000Y-61226190D01*
X141801904Y-61702380D02*
X141801904Y-60702380D01*
X142182857Y-60702380D01*
X142278095Y-60750000D01*
X142325714Y-60797619D01*
X142373333Y-60892857D01*
X142373333Y-61035714D01*
X142325714Y-61130952D01*
X142278095Y-61178571D01*
X142182857Y-61226190D01*
X141801904Y-61226190D01*
X142706666Y-60702380D02*
X143373333Y-60702380D01*
X142944761Y-61702380D01*
%TO.C,R6*%
X102583333Y-63452380D02*
X102250000Y-62976190D01*
X102011904Y-63452380D02*
X102011904Y-62452380D01*
X102392857Y-62452380D01*
X102488095Y-62500000D01*
X102535714Y-62547619D01*
X102583333Y-62642857D01*
X102583333Y-62785714D01*
X102535714Y-62880952D01*
X102488095Y-62928571D01*
X102392857Y-62976190D01*
X102011904Y-62976190D01*
X103440476Y-62452380D02*
X103250000Y-62452380D01*
X103154761Y-62500000D01*
X103107142Y-62547619D01*
X103011904Y-62690476D01*
X102964285Y-62880952D01*
X102964285Y-63261904D01*
X103011904Y-63357142D01*
X103059523Y-63404761D01*
X103154761Y-63452380D01*
X103345238Y-63452380D01*
X103440476Y-63404761D01*
X103488095Y-63357142D01*
X103535714Y-63261904D01*
X103535714Y-63023809D01*
X103488095Y-62928571D01*
X103440476Y-62880952D01*
X103345238Y-62833333D01*
X103154761Y-62833333D01*
X103059523Y-62880952D01*
X103011904Y-62928571D01*
X102964285Y-63023809D01*
X106825714Y-70000000D02*
X106730476Y-69952380D01*
X106587619Y-69952380D01*
X106444761Y-70000000D01*
X106349523Y-70095238D01*
X106301904Y-70190476D01*
X106254285Y-70380952D01*
X106254285Y-70523809D01*
X106301904Y-70714285D01*
X106349523Y-70809523D01*
X106444761Y-70904761D01*
X106587619Y-70952380D01*
X106682857Y-70952380D01*
X106825714Y-70904761D01*
X106873333Y-70857142D01*
X106873333Y-70523809D01*
X106682857Y-70523809D01*
X107254285Y-70666666D02*
X107730476Y-70666666D01*
X107159047Y-70952380D02*
X107492380Y-69952380D01*
X107825714Y-70952380D01*
X108159047Y-70952380D02*
X108159047Y-69952380D01*
X108635238Y-70952380D02*
X108635238Y-69952380D01*
X109206666Y-70952380D01*
X109206666Y-69952380D01*
X110444761Y-70952380D02*
X110444761Y-69952380D01*
X110825714Y-69952380D01*
X110920952Y-70000000D01*
X110968571Y-70047619D01*
X111016190Y-70142857D01*
X111016190Y-70285714D01*
X110968571Y-70380952D01*
X110920952Y-70428571D01*
X110825714Y-70476190D01*
X110444761Y-70476190D01*
X111635238Y-69952380D02*
X111825714Y-69952380D01*
X111920952Y-70000000D01*
X112016190Y-70095238D01*
X112063809Y-70285714D01*
X112063809Y-70619047D01*
X112016190Y-70809523D01*
X111920952Y-70904761D01*
X111825714Y-70952380D01*
X111635238Y-70952380D01*
X111540000Y-70904761D01*
X111444761Y-70809523D01*
X111397142Y-70619047D01*
X111397142Y-70285714D01*
X111444761Y-70095238D01*
X111540000Y-70000000D01*
X111635238Y-69952380D01*
X112349523Y-69952380D02*
X112920952Y-69952380D01*
X112635238Y-70952380D02*
X112635238Y-69952380D01*
%TO.C,R4*%
X119833333Y-78702380D02*
X119500000Y-78226190D01*
X119261904Y-78702380D02*
X119261904Y-77702380D01*
X119642857Y-77702380D01*
X119738095Y-77750000D01*
X119785714Y-77797619D01*
X119833333Y-77892857D01*
X119833333Y-78035714D01*
X119785714Y-78130952D01*
X119738095Y-78178571D01*
X119642857Y-78226190D01*
X119261904Y-78226190D01*
X120690476Y-78035714D02*
X120690476Y-78702380D01*
X120452380Y-77654761D02*
X120214285Y-78369047D01*
X120833333Y-78369047D01*
X132154761Y-78702380D02*
X131583333Y-78702380D01*
X131869047Y-78702380D02*
X131869047Y-77702380D01*
X131773809Y-77845238D01*
X131678571Y-77940476D01*
X131583333Y-77988095D01*
X132773809Y-77702380D02*
X132869047Y-77702380D01*
X132964285Y-77750000D01*
X133011904Y-77797619D01*
X133059523Y-77892857D01*
X133107142Y-78083333D01*
X133107142Y-78321428D01*
X133059523Y-78511904D01*
X133011904Y-78607142D01*
X132964285Y-78654761D01*
X132869047Y-78702380D01*
X132773809Y-78702380D01*
X132678571Y-78654761D01*
X132630952Y-78607142D01*
X132583333Y-78511904D01*
X132535714Y-78321428D01*
X132535714Y-78083333D01*
X132583333Y-77892857D01*
X132630952Y-77797619D01*
X132678571Y-77750000D01*
X132773809Y-77702380D01*
X133535714Y-78702380D02*
X133535714Y-77702380D01*
X133630952Y-78321428D02*
X133916666Y-78702380D01*
X133916666Y-78035714D02*
X133535714Y-78416666D01*
%TO.C,R3*%
X119833333Y-74702380D02*
X119500000Y-74226190D01*
X119261904Y-74702380D02*
X119261904Y-73702380D01*
X119642857Y-73702380D01*
X119738095Y-73750000D01*
X119785714Y-73797619D01*
X119833333Y-73892857D01*
X119833333Y-74035714D01*
X119785714Y-74130952D01*
X119738095Y-74178571D01*
X119642857Y-74226190D01*
X119261904Y-74226190D01*
X120166666Y-73702380D02*
X120785714Y-73702380D01*
X120452380Y-74083333D01*
X120595238Y-74083333D01*
X120690476Y-74130952D01*
X120738095Y-74178571D01*
X120785714Y-74273809D01*
X120785714Y-74511904D01*
X120738095Y-74607142D01*
X120690476Y-74654761D01*
X120595238Y-74702380D01*
X120309523Y-74702380D01*
X120214285Y-74654761D01*
X120166666Y-74607142D01*
X132154761Y-74702380D02*
X131583333Y-74702380D01*
X131869047Y-74702380D02*
X131869047Y-73702380D01*
X131773809Y-73845238D01*
X131678571Y-73940476D01*
X131583333Y-73988095D01*
X132773809Y-73702380D02*
X132869047Y-73702380D01*
X132964285Y-73750000D01*
X133011904Y-73797619D01*
X133059523Y-73892857D01*
X133107142Y-74083333D01*
X133107142Y-74321428D01*
X133059523Y-74511904D01*
X133011904Y-74607142D01*
X132964285Y-74654761D01*
X132869047Y-74702380D01*
X132773809Y-74702380D01*
X132678571Y-74654761D01*
X132630952Y-74607142D01*
X132583333Y-74511904D01*
X132535714Y-74321428D01*
X132535714Y-74083333D01*
X132583333Y-73892857D01*
X132630952Y-73797619D01*
X132678571Y-73750000D01*
X132773809Y-73702380D01*
X133535714Y-74702380D02*
X133535714Y-73702380D01*
X133630952Y-74321428D02*
X133916666Y-74702380D01*
X133916666Y-74035714D02*
X133535714Y-74416666D01*
%TO.C,R2*%
X103083333Y-72702380D02*
X102750000Y-72226190D01*
X102511904Y-72702380D02*
X102511904Y-71702380D01*
X102892857Y-71702380D01*
X102988095Y-71750000D01*
X103035714Y-71797619D01*
X103083333Y-71892857D01*
X103083333Y-72035714D01*
X103035714Y-72130952D01*
X102988095Y-72178571D01*
X102892857Y-72226190D01*
X102511904Y-72226190D01*
X103464285Y-71797619D02*
X103511904Y-71750000D01*
X103607142Y-71702380D01*
X103845238Y-71702380D01*
X103940476Y-71750000D01*
X103988095Y-71797619D01*
X104035714Y-71892857D01*
X104035714Y-71988095D01*
X103988095Y-72130952D01*
X103416666Y-72702380D01*
X104035714Y-72702380D01*
X114809523Y-76035714D02*
X114809523Y-76702380D01*
X114571428Y-75654761D02*
X114333333Y-76369047D01*
X114952380Y-76369047D01*
X115333333Y-76702380D02*
X115333333Y-75702380D01*
X115428571Y-76321428D02*
X115714285Y-76702380D01*
X115714285Y-76035714D02*
X115333333Y-76416666D01*
X116047619Y-75702380D02*
X116714285Y-75702380D01*
X116285714Y-76702380D01*
%TO.C,R1*%
X115583333Y-89452380D02*
X115250000Y-88976190D01*
X115011904Y-89452380D02*
X115011904Y-88452380D01*
X115392857Y-88452380D01*
X115488095Y-88500000D01*
X115535714Y-88547619D01*
X115583333Y-88642857D01*
X115583333Y-88785714D01*
X115535714Y-88880952D01*
X115488095Y-88928571D01*
X115392857Y-88976190D01*
X115011904Y-88976190D01*
X116535714Y-89452380D02*
X115964285Y-89452380D01*
X116250000Y-89452380D02*
X116250000Y-88452380D01*
X116154761Y-88595238D01*
X116059523Y-88690476D01*
X115964285Y-88738095D01*
X115380952Y-91202380D02*
X114809523Y-91202380D01*
X115095238Y-91202380D02*
X115095238Y-90202380D01*
X115000000Y-90345238D01*
X114904761Y-90440476D01*
X114809523Y-90488095D01*
X115809523Y-91202380D02*
X115809523Y-90202380D01*
X115904761Y-90821428D02*
X116190476Y-91202380D01*
X116190476Y-90535714D02*
X115809523Y-90916666D01*
%TO.C,JP1*%
X104142380Y-60583333D02*
X104856666Y-60583333D01*
X104999523Y-60630952D01*
X105094761Y-60726190D01*
X105142380Y-60869047D01*
X105142380Y-60964285D01*
X105142380Y-60107142D02*
X104142380Y-60107142D01*
X104142380Y-59726190D01*
X104190000Y-59630952D01*
X104237619Y-59583333D01*
X104332857Y-59535714D01*
X104475714Y-59535714D01*
X104570952Y-59583333D01*
X104618571Y-59630952D01*
X104666190Y-59726190D01*
X104666190Y-60107142D01*
X105142380Y-58583333D02*
X105142380Y-59154761D01*
X105142380Y-58869047D02*
X104142380Y-58869047D01*
X104285238Y-58964285D01*
X104380476Y-59059523D01*
X104428095Y-59154761D01*
%TO.C,J7*%
X118166666Y-119702380D02*
X118166666Y-120416666D01*
X118119047Y-120559523D01*
X118023809Y-120654761D01*
X117880952Y-120702380D01*
X117785714Y-120702380D01*
X118547619Y-119702380D02*
X119214285Y-119702380D01*
X118785714Y-120702380D01*
X118869047Y-118428571D02*
X119011904Y-118476190D01*
X119059523Y-118523809D01*
X119107142Y-118619047D01*
X119107142Y-118761904D01*
X119059523Y-118857142D01*
X119011904Y-118904761D01*
X118916666Y-118952380D01*
X118535714Y-118952380D01*
X118535714Y-117952380D01*
X118869047Y-117952380D01*
X118964285Y-118000000D01*
X119011904Y-118047619D01*
X119059523Y-118142857D01*
X119059523Y-118238095D01*
X119011904Y-118333333D01*
X118964285Y-118380952D01*
X118869047Y-118428571D01*
X118535714Y-118428571D01*
X119488095Y-118666666D02*
X119964285Y-118666666D01*
X119392857Y-118952380D02*
X119726190Y-117952380D01*
X120059523Y-118952380D01*
X120869047Y-118952380D02*
X120392857Y-118952380D01*
X120392857Y-117952380D01*
X121154761Y-118666666D02*
X121630952Y-118666666D01*
X121059523Y-118952380D02*
X121392857Y-117952380D01*
X121726190Y-118952380D01*
X122059523Y-118952380D02*
X122059523Y-117952380D01*
X122630952Y-118952380D01*
X122630952Y-117952380D01*
X123678571Y-118857142D02*
X123630952Y-118904761D01*
X123488095Y-118952380D01*
X123392857Y-118952380D01*
X123250000Y-118904761D01*
X123154761Y-118809523D01*
X123107142Y-118714285D01*
X123059523Y-118523809D01*
X123059523Y-118380952D01*
X123107142Y-118190476D01*
X123154761Y-118095238D01*
X123250000Y-118000000D01*
X123392857Y-117952380D01*
X123488095Y-117952380D01*
X123630952Y-118000000D01*
X123678571Y-118047619D01*
X124107142Y-118428571D02*
X124440476Y-118428571D01*
X124583333Y-118952380D02*
X124107142Y-118952380D01*
X124107142Y-117952380D01*
X124583333Y-117952380D01*
X125011904Y-118952380D02*
X125011904Y-117952380D01*
X125250000Y-117952380D01*
X125392857Y-118000000D01*
X125488095Y-118095238D01*
X125535714Y-118190476D01*
X125583333Y-118380952D01*
X125583333Y-118523809D01*
X125535714Y-118714285D01*
X125488095Y-118809523D01*
X125392857Y-118904761D01*
X125250000Y-118952380D01*
X125011904Y-118952380D01*
X126964285Y-117952380D02*
X127154761Y-117952380D01*
X127250000Y-118000000D01*
X127345238Y-118095238D01*
X127392857Y-118285714D01*
X127392857Y-118619047D01*
X127345238Y-118809523D01*
X127250000Y-118904761D01*
X127154761Y-118952380D01*
X126964285Y-118952380D01*
X126869047Y-118904761D01*
X126773809Y-118809523D01*
X126726190Y-118619047D01*
X126726190Y-118285714D01*
X126773809Y-118095238D01*
X126869047Y-118000000D01*
X126964285Y-117952380D01*
X127821428Y-117952380D02*
X127821428Y-118761904D01*
X127869047Y-118857142D01*
X127916666Y-118904761D01*
X128011904Y-118952380D01*
X128202380Y-118952380D01*
X128297619Y-118904761D01*
X128345238Y-118857142D01*
X128392857Y-118761904D01*
X128392857Y-117952380D01*
X128726190Y-117952380D02*
X129297619Y-117952380D01*
X129011904Y-118952380D02*
X129011904Y-117952380D01*
X129630952Y-118952380D02*
X129630952Y-117952380D01*
X130011904Y-117952380D01*
X130107142Y-118000000D01*
X130154761Y-118047619D01*
X130202380Y-118142857D01*
X130202380Y-118285714D01*
X130154761Y-118380952D01*
X130107142Y-118428571D01*
X130011904Y-118476190D01*
X129630952Y-118476190D01*
X130630952Y-117952380D02*
X130630952Y-118761904D01*
X130678571Y-118857142D01*
X130726190Y-118904761D01*
X130821428Y-118952380D01*
X131011904Y-118952380D01*
X131107142Y-118904761D01*
X131154761Y-118857142D01*
X131202380Y-118761904D01*
X131202380Y-117952380D01*
X131535714Y-117952380D02*
X132107142Y-117952380D01*
X131821428Y-118952380D02*
X131821428Y-117952380D01*
%TO.C,J6*%
X140436666Y-112952380D02*
X140436666Y-113666666D01*
X140389047Y-113809523D01*
X140293809Y-113904761D01*
X140150952Y-113952380D01*
X140055714Y-113952380D01*
X141341428Y-112952380D02*
X141150952Y-112952380D01*
X141055714Y-113000000D01*
X141008095Y-113047619D01*
X140912857Y-113190476D01*
X140865238Y-113380952D01*
X140865238Y-113761904D01*
X140912857Y-113857142D01*
X140960476Y-113904761D01*
X141055714Y-113952380D01*
X141246190Y-113952380D01*
X141341428Y-113904761D01*
X141389047Y-113857142D01*
X141436666Y-113761904D01*
X141436666Y-113523809D01*
X141389047Y-113428571D01*
X141341428Y-113380952D01*
X141246190Y-113333333D01*
X141055714Y-113333333D01*
X140960476Y-113380952D01*
X140912857Y-113428571D01*
X140865238Y-113523809D01*
X138746190Y-121952380D02*
X138936666Y-121952380D01*
X139031904Y-122000000D01*
X139127142Y-122095238D01*
X139174761Y-122285714D01*
X139174761Y-122619047D01*
X139127142Y-122809523D01*
X139031904Y-122904761D01*
X138936666Y-122952380D01*
X138746190Y-122952380D01*
X138650952Y-122904761D01*
X138555714Y-122809523D01*
X138508095Y-122619047D01*
X138508095Y-122285714D01*
X138555714Y-122095238D01*
X138650952Y-122000000D01*
X138746190Y-121952380D01*
X140031904Y-122285714D02*
X140031904Y-122952380D01*
X139603333Y-122285714D02*
X139603333Y-122809523D01*
X139650952Y-122904761D01*
X139746190Y-122952380D01*
X139889047Y-122952380D01*
X139984285Y-122904761D01*
X140031904Y-122857142D01*
X140365238Y-122285714D02*
X140746190Y-122285714D01*
X140508095Y-121952380D02*
X140508095Y-122809523D01*
X140555714Y-122904761D01*
X140650952Y-122952380D01*
X140746190Y-122952380D01*
X141079523Y-122285714D02*
X141079523Y-123285714D01*
X141079523Y-122333333D02*
X141174761Y-122285714D01*
X141365238Y-122285714D01*
X141460476Y-122333333D01*
X141508095Y-122380952D01*
X141555714Y-122476190D01*
X141555714Y-122761904D01*
X141508095Y-122857142D01*
X141460476Y-122904761D01*
X141365238Y-122952380D01*
X141174761Y-122952380D01*
X141079523Y-122904761D01*
X142412857Y-122285714D02*
X142412857Y-122952380D01*
X141984285Y-122285714D02*
X141984285Y-122809523D01*
X142031904Y-122904761D01*
X142127142Y-122952380D01*
X142270000Y-122952380D01*
X142365238Y-122904761D01*
X142412857Y-122857142D01*
X142746190Y-122285714D02*
X143127142Y-122285714D01*
X142889047Y-121952380D02*
X142889047Y-122809523D01*
X142936666Y-122904761D01*
X143031904Y-122952380D01*
X143127142Y-122952380D01*
%TO.C,J5*%
X136916666Y-44452380D02*
X136916666Y-45166666D01*
X136869047Y-45309523D01*
X136773809Y-45404761D01*
X136630952Y-45452380D01*
X136535714Y-45452380D01*
X137869047Y-44452380D02*
X137392857Y-44452380D01*
X137345238Y-44928571D01*
X137392857Y-44880952D01*
X137488095Y-44833333D01*
X137726190Y-44833333D01*
X137821428Y-44880952D01*
X137869047Y-44928571D01*
X137916666Y-45023809D01*
X137916666Y-45261904D01*
X137869047Y-45357142D01*
X137821428Y-45404761D01*
X137726190Y-45452380D01*
X137488095Y-45452380D01*
X137392857Y-45404761D01*
X137345238Y-45357142D01*
X127380952Y-52952380D02*
X127380952Y-51952380D01*
X127714285Y-52666666D01*
X128047619Y-51952380D01*
X128047619Y-52952380D01*
X128904761Y-52904761D02*
X128809523Y-52952380D01*
X128619047Y-52952380D01*
X128523809Y-52904761D01*
X128476190Y-52809523D01*
X128476190Y-52428571D01*
X128523809Y-52333333D01*
X128619047Y-52285714D01*
X128809523Y-52285714D01*
X128904761Y-52333333D01*
X128952380Y-52428571D01*
X128952380Y-52523809D01*
X128476190Y-52619047D01*
X129238095Y-52285714D02*
X129619047Y-52285714D01*
X129380952Y-51952380D02*
X129380952Y-52809523D01*
X129428571Y-52904761D01*
X129523809Y-52952380D01*
X129619047Y-52952380D01*
X130333333Y-52904761D02*
X130238095Y-52952380D01*
X130047619Y-52952380D01*
X129952380Y-52904761D01*
X129904761Y-52809523D01*
X129904761Y-52428571D01*
X129952380Y-52333333D01*
X130047619Y-52285714D01*
X130238095Y-52285714D01*
X130333333Y-52333333D01*
X130380952Y-52428571D01*
X130380952Y-52523809D01*
X129904761Y-52619047D01*
X130809523Y-52952380D02*
X130809523Y-52285714D01*
X130809523Y-52476190D02*
X130857142Y-52380952D01*
X130904761Y-52333333D01*
X131000000Y-52285714D01*
X131095238Y-52285714D01*
X132380952Y-51952380D02*
X132571428Y-51952380D01*
X132666666Y-52000000D01*
X132761904Y-52095238D01*
X132809523Y-52285714D01*
X132809523Y-52619047D01*
X132761904Y-52809523D01*
X132666666Y-52904761D01*
X132571428Y-52952380D01*
X132380952Y-52952380D01*
X132285714Y-52904761D01*
X132190476Y-52809523D01*
X132142857Y-52619047D01*
X132142857Y-52285714D01*
X132190476Y-52095238D01*
X132285714Y-52000000D01*
X132380952Y-51952380D01*
X133666666Y-52285714D02*
X133666666Y-52952380D01*
X133238095Y-52285714D02*
X133238095Y-52809523D01*
X133285714Y-52904761D01*
X133380952Y-52952380D01*
X133523809Y-52952380D01*
X133619047Y-52904761D01*
X133666666Y-52857142D01*
X134000000Y-52285714D02*
X134380952Y-52285714D01*
X134142857Y-51952380D02*
X134142857Y-52809523D01*
X134190476Y-52904761D01*
X134285714Y-52952380D01*
X134380952Y-52952380D01*
X134714285Y-52285714D02*
X134714285Y-53285714D01*
X134714285Y-52333333D02*
X134809523Y-52285714D01*
X135000000Y-52285714D01*
X135095238Y-52333333D01*
X135142857Y-52380952D01*
X135190476Y-52476190D01*
X135190476Y-52761904D01*
X135142857Y-52857142D01*
X135095238Y-52904761D01*
X135000000Y-52952380D01*
X134809523Y-52952380D01*
X134714285Y-52904761D01*
X136047619Y-52285714D02*
X136047619Y-52952380D01*
X135619047Y-52285714D02*
X135619047Y-52809523D01*
X135666666Y-52904761D01*
X135761904Y-52952380D01*
X135904761Y-52952380D01*
X136000000Y-52904761D01*
X136047619Y-52857142D01*
X136380952Y-52285714D02*
X136761904Y-52285714D01*
X136523809Y-51952380D02*
X136523809Y-52809523D01*
X136571428Y-52904761D01*
X136666666Y-52952380D01*
X136761904Y-52952380D01*
%TO.C,J4*%
X102916666Y-79452380D02*
X102916666Y-80166666D01*
X102869047Y-80309523D01*
X102773809Y-80404761D01*
X102630952Y-80452380D01*
X102535714Y-80452380D01*
X103821428Y-79785714D02*
X103821428Y-80452380D01*
X103583333Y-79404761D02*
X103345238Y-80119047D01*
X103964285Y-80119047D01*
X106154761Y-87428571D02*
X105821428Y-87428571D01*
X105821428Y-87952380D02*
X105821428Y-86952380D01*
X106297619Y-86952380D01*
X106583333Y-86952380D02*
X107250000Y-87952380D01*
X107250000Y-86952380D02*
X106583333Y-87952380D01*
X108392857Y-87952380D02*
X108392857Y-86952380D01*
X108869047Y-87285714D02*
X108869047Y-87952380D01*
X108869047Y-87380952D02*
X108916666Y-87333333D01*
X109011904Y-87285714D01*
X109154761Y-87285714D01*
X109250000Y-87333333D01*
X109297619Y-87428571D01*
X109297619Y-87952380D01*
X109773809Y-87285714D02*
X109773809Y-88285714D01*
X109773809Y-87333333D02*
X109869047Y-87285714D01*
X110059523Y-87285714D01*
X110154761Y-87333333D01*
X110202380Y-87380952D01*
X110250000Y-87476190D01*
X110250000Y-87761904D01*
X110202380Y-87857142D01*
X110154761Y-87904761D01*
X110059523Y-87952380D01*
X109869047Y-87952380D01*
X109773809Y-87904761D01*
X111107142Y-87285714D02*
X111107142Y-87952380D01*
X110678571Y-87285714D02*
X110678571Y-87809523D01*
X110726190Y-87904761D01*
X110821428Y-87952380D01*
X110964285Y-87952380D01*
X111059523Y-87904761D01*
X111107142Y-87857142D01*
X111440476Y-87285714D02*
X111821428Y-87285714D01*
X111583333Y-86952380D02*
X111583333Y-87809523D01*
X111630952Y-87904761D01*
X111726190Y-87952380D01*
X111821428Y-87952380D01*
%TO.C,J3*%
X109916666Y-139952380D02*
X109916666Y-140666666D01*
X109869047Y-140809523D01*
X109773809Y-140904761D01*
X109630952Y-140952380D01*
X109535714Y-140952380D01*
X110297619Y-139952380D02*
X110916666Y-139952380D01*
X110583333Y-140333333D01*
X110726190Y-140333333D01*
X110821428Y-140380952D01*
X110869047Y-140428571D01*
X110916666Y-140523809D01*
X110916666Y-140761904D01*
X110869047Y-140857142D01*
X110821428Y-140904761D01*
X110726190Y-140952380D01*
X110440476Y-140952380D01*
X110345238Y-140904761D01*
X110297619Y-140857142D01*
X121142857Y-150452380D02*
X121142857Y-149452380D01*
X121523809Y-149452380D01*
X121619047Y-149500000D01*
X121666666Y-149547619D01*
X121714285Y-149642857D01*
X121714285Y-149785714D01*
X121666666Y-149880952D01*
X121619047Y-149928571D01*
X121523809Y-149976190D01*
X121142857Y-149976190D01*
X122333333Y-149452380D02*
X122523809Y-149452380D01*
X122619047Y-149500000D01*
X122714285Y-149595238D01*
X122761904Y-149785714D01*
X122761904Y-150119047D01*
X122714285Y-150309523D01*
X122619047Y-150404761D01*
X122523809Y-150452380D01*
X122333333Y-150452380D01*
X122238095Y-150404761D01*
X122142857Y-150309523D01*
X122095238Y-150119047D01*
X122095238Y-149785714D01*
X122142857Y-149595238D01*
X122238095Y-149500000D01*
X122333333Y-149452380D01*
X123095238Y-149452380D02*
X123333333Y-150452380D01*
X123523809Y-149738095D01*
X123714285Y-150452380D01*
X123952380Y-149452380D01*
X124333333Y-149928571D02*
X124666666Y-149928571D01*
X124809523Y-150452380D02*
X124333333Y-150452380D01*
X124333333Y-149452380D01*
X124809523Y-149452380D01*
X125809523Y-150452380D02*
X125476190Y-149976190D01*
X125238095Y-150452380D02*
X125238095Y-149452380D01*
X125619047Y-149452380D01*
X125714285Y-149500000D01*
X125761904Y-149547619D01*
X125809523Y-149642857D01*
X125809523Y-149785714D01*
X125761904Y-149880952D01*
X125714285Y-149928571D01*
X125619047Y-149976190D01*
X125238095Y-149976190D01*
X127000000Y-150452380D02*
X127000000Y-149452380D01*
X127476190Y-150452380D02*
X127476190Y-149452380D01*
X128047619Y-150452380D01*
X128047619Y-149452380D01*
X128523809Y-150452380D02*
X128523809Y-149452380D01*
X128904761Y-149452380D01*
X129000000Y-149500000D01*
X129047619Y-149547619D01*
X129095238Y-149642857D01*
X129095238Y-149785714D01*
X129047619Y-149880952D01*
X129000000Y-149928571D01*
X128904761Y-149976190D01*
X128523809Y-149976190D01*
X129523809Y-149452380D02*
X129523809Y-150261904D01*
X129571428Y-150357142D01*
X129619047Y-150404761D01*
X129714285Y-150452380D01*
X129904761Y-150452380D01*
X130000000Y-150404761D01*
X130047619Y-150357142D01*
X130095238Y-150261904D01*
X130095238Y-149452380D01*
X130428571Y-149452380D02*
X131000000Y-149452380D01*
X130714285Y-150452380D02*
X130714285Y-149452380D01*
%TO.C,J2*%
X114666666Y-44452380D02*
X114666666Y-45166666D01*
X114619047Y-45309523D01*
X114523809Y-45404761D01*
X114380952Y-45452380D01*
X114285714Y-45452380D01*
X115095238Y-44547619D02*
X115142857Y-44500000D01*
X115238095Y-44452380D01*
X115476190Y-44452380D01*
X115571428Y-44500000D01*
X115619047Y-44547619D01*
X115666666Y-44642857D01*
X115666666Y-44738095D01*
X115619047Y-44880952D01*
X115047619Y-45452380D01*
X115666666Y-45452380D01*
X116682380Y-52952380D02*
X116682380Y-51952380D01*
X117015714Y-52666666D01*
X117349047Y-51952380D01*
X117349047Y-52952380D01*
X118206190Y-52904761D02*
X118110952Y-52952380D01*
X117920476Y-52952380D01*
X117825238Y-52904761D01*
X117777619Y-52809523D01*
X117777619Y-52428571D01*
X117825238Y-52333333D01*
X117920476Y-52285714D01*
X118110952Y-52285714D01*
X118206190Y-52333333D01*
X118253809Y-52428571D01*
X118253809Y-52523809D01*
X117777619Y-52619047D01*
X118539523Y-52285714D02*
X118920476Y-52285714D01*
X118682380Y-51952380D02*
X118682380Y-52809523D01*
X118730000Y-52904761D01*
X118825238Y-52952380D01*
X118920476Y-52952380D01*
X119634761Y-52904761D02*
X119539523Y-52952380D01*
X119349047Y-52952380D01*
X119253809Y-52904761D01*
X119206190Y-52809523D01*
X119206190Y-52428571D01*
X119253809Y-52333333D01*
X119349047Y-52285714D01*
X119539523Y-52285714D01*
X119634761Y-52333333D01*
X119682380Y-52428571D01*
X119682380Y-52523809D01*
X119206190Y-52619047D01*
X120110952Y-52952380D02*
X120110952Y-52285714D01*
X120110952Y-52476190D02*
X120158571Y-52380952D01*
X120206190Y-52333333D01*
X120301428Y-52285714D01*
X120396666Y-52285714D01*
X121491904Y-52952380D02*
X121491904Y-51952380D01*
X121968095Y-52285714D02*
X121968095Y-52952380D01*
X121968095Y-52380952D02*
X122015714Y-52333333D01*
X122110952Y-52285714D01*
X122253809Y-52285714D01*
X122349047Y-52333333D01*
X122396666Y-52428571D01*
X122396666Y-52952380D01*
X122872857Y-52285714D02*
X122872857Y-53285714D01*
X122872857Y-52333333D02*
X122968095Y-52285714D01*
X123158571Y-52285714D01*
X123253809Y-52333333D01*
X123301428Y-52380952D01*
X123349047Y-52476190D01*
X123349047Y-52761904D01*
X123301428Y-52857142D01*
X123253809Y-52904761D01*
X123158571Y-52952380D01*
X122968095Y-52952380D01*
X122872857Y-52904761D01*
X124206190Y-52285714D02*
X124206190Y-52952380D01*
X123777619Y-52285714D02*
X123777619Y-52809523D01*
X123825238Y-52904761D01*
X123920476Y-52952380D01*
X124063333Y-52952380D01*
X124158571Y-52904761D01*
X124206190Y-52857142D01*
X124539523Y-52285714D02*
X124920476Y-52285714D01*
X124682380Y-51952380D02*
X124682380Y-52809523D01*
X124730000Y-52904761D01*
X124825238Y-52952380D01*
X124920476Y-52952380D01*
%TO.C,J1*%
X108666666Y-112952380D02*
X108666666Y-113666666D01*
X108619047Y-113809523D01*
X108523809Y-113904761D01*
X108380952Y-113952380D01*
X108285714Y-113952380D01*
X109666666Y-113952380D02*
X109095238Y-113952380D01*
X109380952Y-113952380D02*
X109380952Y-112952380D01*
X109285714Y-113095238D01*
X109190476Y-113190476D01*
X109095238Y-113238095D01*
X107357142Y-122952380D02*
X107357142Y-121952380D01*
X107833333Y-122285714D02*
X107833333Y-122952380D01*
X107833333Y-122380952D02*
X107880952Y-122333333D01*
X107976190Y-122285714D01*
X108119047Y-122285714D01*
X108214285Y-122333333D01*
X108261904Y-122428571D01*
X108261904Y-122952380D01*
X108738095Y-122285714D02*
X108738095Y-123285714D01*
X108738095Y-122333333D02*
X108833333Y-122285714D01*
X109023809Y-122285714D01*
X109119047Y-122333333D01*
X109166666Y-122380952D01*
X109214285Y-122476190D01*
X109214285Y-122761904D01*
X109166666Y-122857142D01*
X109119047Y-122904761D01*
X109023809Y-122952380D01*
X108833333Y-122952380D01*
X108738095Y-122904761D01*
X110071428Y-122285714D02*
X110071428Y-122952380D01*
X109642857Y-122285714D02*
X109642857Y-122809523D01*
X109690476Y-122904761D01*
X109785714Y-122952380D01*
X109928571Y-122952380D01*
X110023809Y-122904761D01*
X110071428Y-122857142D01*
X110404761Y-122285714D02*
X110785714Y-122285714D01*
X110547619Y-121952380D02*
X110547619Y-122809523D01*
X110595238Y-122904761D01*
X110690476Y-122952380D01*
X110785714Y-122952380D01*
%TO.C,D4*%
X137511904Y-133702380D02*
X137511904Y-132702380D01*
X137750000Y-132702380D01*
X137892857Y-132750000D01*
X137988095Y-132845238D01*
X138035714Y-132940476D01*
X138083333Y-133130952D01*
X138083333Y-133273809D01*
X138035714Y-133464285D01*
X137988095Y-133559523D01*
X137892857Y-133654761D01*
X137750000Y-133702380D01*
X137511904Y-133702380D01*
X138940476Y-133035714D02*
X138940476Y-133702380D01*
X138702380Y-132654761D02*
X138464285Y-133369047D01*
X139083333Y-133369047D01*
X141857142Y-137452380D02*
X141285714Y-137452380D01*
X141571428Y-137452380D02*
X141571428Y-136452380D01*
X141476190Y-136595238D01*
X141380952Y-136690476D01*
X141285714Y-136738095D01*
X142285714Y-137452380D02*
X142285714Y-136452380D01*
X142857142Y-137452380D01*
X142857142Y-136452380D01*
X143761904Y-136785714D02*
X143761904Y-137452380D01*
X143523809Y-136404761D02*
X143285714Y-137119047D01*
X143904761Y-137119047D01*
X144476190Y-136452380D02*
X144571428Y-136452380D01*
X144666666Y-136500000D01*
X144714285Y-136547619D01*
X144761904Y-136642857D01*
X144809523Y-136833333D01*
X144809523Y-137071428D01*
X144761904Y-137261904D01*
X144714285Y-137357142D01*
X144666666Y-137404761D01*
X144571428Y-137452380D01*
X144476190Y-137452380D01*
X144380952Y-137404761D01*
X144333333Y-137357142D01*
X144285714Y-137261904D01*
X144238095Y-137071428D01*
X144238095Y-136833333D01*
X144285714Y-136642857D01*
X144333333Y-136547619D01*
X144380952Y-136500000D01*
X144476190Y-136452380D01*
X145428571Y-136452380D02*
X145523809Y-136452380D01*
X145619047Y-136500000D01*
X145666666Y-136547619D01*
X145714285Y-136642857D01*
X145761904Y-136833333D01*
X145761904Y-137071428D01*
X145714285Y-137261904D01*
X145666666Y-137357142D01*
X145619047Y-137404761D01*
X145523809Y-137452380D01*
X145428571Y-137452380D01*
X145333333Y-137404761D01*
X145285714Y-137357142D01*
X145238095Y-137261904D01*
X145190476Y-137071428D01*
X145190476Y-136833333D01*
X145238095Y-136642857D01*
X145285714Y-136547619D01*
X145333333Y-136500000D01*
X145428571Y-136452380D01*
X146714285Y-137452380D02*
X146142857Y-137452380D01*
X146428571Y-137452380D02*
X146428571Y-136452380D01*
X146333333Y-136595238D01*
X146238095Y-136690476D01*
X146142857Y-136738095D01*
%TO.C,D3*%
X112761904Y-133952380D02*
X112761904Y-132952380D01*
X113000000Y-132952380D01*
X113142857Y-133000000D01*
X113238095Y-133095238D01*
X113285714Y-133190476D01*
X113333333Y-133380952D01*
X113333333Y-133523809D01*
X113285714Y-133714285D01*
X113238095Y-133809523D01*
X113142857Y-133904761D01*
X113000000Y-133952380D01*
X112761904Y-133952380D01*
X113666666Y-132952380D02*
X114285714Y-132952380D01*
X113952380Y-133333333D01*
X114095238Y-133333333D01*
X114190476Y-133380952D01*
X114238095Y-133428571D01*
X114285714Y-133523809D01*
X114285714Y-133761904D01*
X114238095Y-133857142D01*
X114190476Y-133904761D01*
X114095238Y-133952380D01*
X113809523Y-133952380D01*
X113714285Y-133904761D01*
X113666666Y-133857142D01*
X106357142Y-137452380D02*
X105785714Y-137452380D01*
X106071428Y-137452380D02*
X106071428Y-136452380D01*
X105976190Y-136595238D01*
X105880952Y-136690476D01*
X105785714Y-136738095D01*
X106785714Y-137452380D02*
X106785714Y-136452380D01*
X107357142Y-137452380D01*
X107357142Y-136452380D01*
X108261904Y-136785714D02*
X108261904Y-137452380D01*
X108023809Y-136404761D02*
X107785714Y-137119047D01*
X108404761Y-137119047D01*
X108976190Y-136452380D02*
X109071428Y-136452380D01*
X109166666Y-136500000D01*
X109214285Y-136547619D01*
X109261904Y-136642857D01*
X109309523Y-136833333D01*
X109309523Y-137071428D01*
X109261904Y-137261904D01*
X109214285Y-137357142D01*
X109166666Y-137404761D01*
X109071428Y-137452380D01*
X108976190Y-137452380D01*
X108880952Y-137404761D01*
X108833333Y-137357142D01*
X108785714Y-137261904D01*
X108738095Y-137071428D01*
X108738095Y-136833333D01*
X108785714Y-136642857D01*
X108833333Y-136547619D01*
X108880952Y-136500000D01*
X108976190Y-136452380D01*
X109928571Y-136452380D02*
X110023809Y-136452380D01*
X110119047Y-136500000D01*
X110166666Y-136547619D01*
X110214285Y-136642857D01*
X110261904Y-136833333D01*
X110261904Y-137071428D01*
X110214285Y-137261904D01*
X110166666Y-137357142D01*
X110119047Y-137404761D01*
X110023809Y-137452380D01*
X109928571Y-137452380D01*
X109833333Y-137404761D01*
X109785714Y-137357142D01*
X109738095Y-137261904D01*
X109690476Y-137071428D01*
X109690476Y-136833333D01*
X109738095Y-136642857D01*
X109785714Y-136547619D01*
X109833333Y-136500000D01*
X109928571Y-136452380D01*
X111214285Y-137452380D02*
X110642857Y-137452380D01*
X110928571Y-137452380D02*
X110928571Y-136452380D01*
X110833333Y-136595238D01*
X110738095Y-136690476D01*
X110642857Y-136738095D01*
%TO.C,D2*%
X135761904Y-85952380D02*
X135761904Y-84952380D01*
X136000000Y-84952380D01*
X136142857Y-85000000D01*
X136238095Y-85095238D01*
X136285714Y-85190476D01*
X136333333Y-85380952D01*
X136333333Y-85523809D01*
X136285714Y-85714285D01*
X136238095Y-85809523D01*
X136142857Y-85904761D01*
X136000000Y-85952380D01*
X135761904Y-85952380D01*
X136714285Y-85047619D02*
X136761904Y-85000000D01*
X136857142Y-84952380D01*
X137095238Y-84952380D01*
X137190476Y-85000000D01*
X137238095Y-85047619D01*
X137285714Y-85142857D01*
X137285714Y-85238095D01*
X137238095Y-85380952D01*
X136666666Y-85952380D01*
X137285714Y-85952380D01*
%TO.C,D1*%
X135761904Y-78452380D02*
X135761904Y-77452380D01*
X136000000Y-77452380D01*
X136142857Y-77500000D01*
X136238095Y-77595238D01*
X136285714Y-77690476D01*
X136333333Y-77880952D01*
X136333333Y-78023809D01*
X136285714Y-78214285D01*
X136238095Y-78309523D01*
X136142857Y-78404761D01*
X136000000Y-78452380D01*
X135761904Y-78452380D01*
X137285714Y-78452380D02*
X136714285Y-78452380D01*
X137000000Y-78452380D02*
X137000000Y-77452380D01*
X136904761Y-77595238D01*
X136809523Y-77690476D01*
X136714285Y-77738095D01*
%TO.C,C10*%
X146857142Y-123607142D02*
X146809523Y-123654761D01*
X146666666Y-123702380D01*
X146571428Y-123702380D01*
X146428571Y-123654761D01*
X146333333Y-123559523D01*
X146285714Y-123464285D01*
X146238095Y-123273809D01*
X146238095Y-123130952D01*
X146285714Y-122940476D01*
X146333333Y-122845238D01*
X146428571Y-122750000D01*
X146571428Y-122702380D01*
X146666666Y-122702380D01*
X146809523Y-122750000D01*
X146857142Y-122797619D01*
X147809523Y-123702380D02*
X147238095Y-123702380D01*
X147523809Y-123702380D02*
X147523809Y-122702380D01*
X147428571Y-122845238D01*
X147333333Y-122940476D01*
X147238095Y-122988095D01*
X148428571Y-122702380D02*
X148523809Y-122702380D01*
X148619047Y-122750000D01*
X148666666Y-122797619D01*
X148714285Y-122892857D01*
X148761904Y-123083333D01*
X148761904Y-123321428D01*
X148714285Y-123511904D01*
X148666666Y-123607142D01*
X148619047Y-123654761D01*
X148523809Y-123702380D01*
X148428571Y-123702380D01*
X148333333Y-123654761D01*
X148285714Y-123607142D01*
X148238095Y-123511904D01*
X148190476Y-123321428D01*
X148190476Y-123083333D01*
X148238095Y-122892857D01*
X148285714Y-122797619D01*
X148333333Y-122750000D01*
X148428571Y-122702380D01*
X146178571Y-135952380D02*
X145607142Y-135952380D01*
X145892857Y-135952380D02*
X145892857Y-134952380D01*
X145797619Y-135095238D01*
X145702380Y-135190476D01*
X145607142Y-135238095D01*
X146797619Y-134952380D02*
X146892857Y-134952380D01*
X146988095Y-135000000D01*
X147035714Y-135047619D01*
X147083333Y-135142857D01*
X147130952Y-135333333D01*
X147130952Y-135571428D01*
X147083333Y-135761904D01*
X147035714Y-135857142D01*
X146988095Y-135904761D01*
X146892857Y-135952380D01*
X146797619Y-135952380D01*
X146702380Y-135904761D01*
X146654761Y-135857142D01*
X146607142Y-135761904D01*
X146559523Y-135571428D01*
X146559523Y-135333333D01*
X146607142Y-135142857D01*
X146654761Y-135047619D01*
X146702380Y-135000000D01*
X146797619Y-134952380D01*
X147988095Y-135285714D02*
X147988095Y-135952380D01*
X147559523Y-135285714D02*
X147559523Y-135809523D01*
X147607142Y-135904761D01*
X147702380Y-135952380D01*
X147845238Y-135952380D01*
X147940476Y-135904761D01*
X147988095Y-135857142D01*
X148797619Y-135428571D02*
X148464285Y-135428571D01*
X148464285Y-135952380D02*
X148464285Y-134952380D01*
X148940476Y-134952380D01*
%TO.C,C9*%
X102333333Y-126357142D02*
X102285714Y-126404761D01*
X102142857Y-126452380D01*
X102047619Y-126452380D01*
X101904761Y-126404761D01*
X101809523Y-126309523D01*
X101761904Y-126214285D01*
X101714285Y-126023809D01*
X101714285Y-125880952D01*
X101761904Y-125690476D01*
X101809523Y-125595238D01*
X101904761Y-125500000D01*
X102047619Y-125452380D01*
X102142857Y-125452380D01*
X102285714Y-125500000D01*
X102333333Y-125547619D01*
X102809523Y-126452380D02*
X103000000Y-126452380D01*
X103095238Y-126404761D01*
X103142857Y-126357142D01*
X103238095Y-126214285D01*
X103285714Y-126023809D01*
X103285714Y-125642857D01*
X103238095Y-125547619D01*
X103190476Y-125500000D01*
X103095238Y-125452380D01*
X102904761Y-125452380D01*
X102809523Y-125500000D01*
X102761904Y-125547619D01*
X102714285Y-125642857D01*
X102714285Y-125880952D01*
X102761904Y-125976190D01*
X102809523Y-126023809D01*
X102904761Y-126071428D01*
X103095238Y-126071428D01*
X103190476Y-126023809D01*
X103238095Y-125976190D01*
X103285714Y-125880952D01*
X101178571Y-135299703D02*
X100607142Y-135299703D01*
X100892857Y-135299703D02*
X100892857Y-134299703D01*
X100797619Y-134442561D01*
X100702380Y-134537799D01*
X100607142Y-134585418D01*
X101797619Y-134299703D02*
X101892857Y-134299703D01*
X101988095Y-134347323D01*
X102035714Y-134394942D01*
X102083333Y-134490180D01*
X102130952Y-134680656D01*
X102130952Y-134918751D01*
X102083333Y-135109227D01*
X102035714Y-135204465D01*
X101988095Y-135252084D01*
X101892857Y-135299703D01*
X101797619Y-135299703D01*
X101702380Y-135252084D01*
X101654761Y-135204465D01*
X101607142Y-135109227D01*
X101559523Y-134918751D01*
X101559523Y-134680656D01*
X101607142Y-134490180D01*
X101654761Y-134394942D01*
X101702380Y-134347323D01*
X101797619Y-134299703D01*
X102988095Y-134633037D02*
X102988095Y-135299703D01*
X102559523Y-134633037D02*
X102559523Y-135156846D01*
X102607142Y-135252084D01*
X102702380Y-135299703D01*
X102845238Y-135299703D01*
X102940476Y-135252084D01*
X102988095Y-135204465D01*
X103797619Y-134775894D02*
X103464285Y-134775894D01*
X103464285Y-135299703D02*
X103464285Y-134299703D01*
X103940476Y-134299703D01*
%TO.C,C8*%
X102583333Y-102357142D02*
X102535714Y-102404761D01*
X102392857Y-102452380D01*
X102297619Y-102452380D01*
X102154761Y-102404761D01*
X102059523Y-102309523D01*
X102011904Y-102214285D01*
X101964285Y-102023809D01*
X101964285Y-101880952D01*
X102011904Y-101690476D01*
X102059523Y-101595238D01*
X102154761Y-101500000D01*
X102297619Y-101452380D01*
X102392857Y-101452380D01*
X102535714Y-101500000D01*
X102583333Y-101547619D01*
X103154761Y-101880952D02*
X103059523Y-101833333D01*
X103011904Y-101785714D01*
X102964285Y-101690476D01*
X102964285Y-101642857D01*
X103011904Y-101547619D01*
X103059523Y-101500000D01*
X103154761Y-101452380D01*
X103345238Y-101452380D01*
X103440476Y-101500000D01*
X103488095Y-101547619D01*
X103535714Y-101642857D01*
X103535714Y-101690476D01*
X103488095Y-101785714D01*
X103440476Y-101833333D01*
X103345238Y-101880952D01*
X103154761Y-101880952D01*
X103059523Y-101928571D01*
X103011904Y-101976190D01*
X102964285Y-102071428D01*
X102964285Y-102261904D01*
X103011904Y-102357142D01*
X103059523Y-102404761D01*
X103154761Y-102452380D01*
X103345238Y-102452380D01*
X103440476Y-102404761D01*
X103488095Y-102357142D01*
X103535714Y-102261904D01*
X103535714Y-102071428D01*
X103488095Y-101976190D01*
X103440476Y-101928571D01*
X103345238Y-101880952D01*
X101428571Y-104952380D02*
X100857142Y-104952380D01*
X101142857Y-104952380D02*
X101142857Y-103952380D01*
X101047619Y-104095238D01*
X100952380Y-104190476D01*
X100857142Y-104238095D01*
X102047619Y-103952380D02*
X102142857Y-103952380D01*
X102238095Y-104000000D01*
X102285714Y-104047619D01*
X102333333Y-104142857D01*
X102380952Y-104333333D01*
X102380952Y-104571428D01*
X102333333Y-104761904D01*
X102285714Y-104857142D01*
X102238095Y-104904761D01*
X102142857Y-104952380D01*
X102047619Y-104952380D01*
X101952380Y-104904761D01*
X101904761Y-104857142D01*
X101857142Y-104761904D01*
X101809523Y-104571428D01*
X101809523Y-104333333D01*
X101857142Y-104142857D01*
X101904761Y-104047619D01*
X101952380Y-104000000D01*
X102047619Y-103952380D01*
X103238095Y-104285714D02*
X103238095Y-104952380D01*
X102809523Y-104285714D02*
X102809523Y-104809523D01*
X102857142Y-104904761D01*
X102952380Y-104952380D01*
X103095238Y-104952380D01*
X103190476Y-104904761D01*
X103238095Y-104857142D01*
X104047619Y-104428571D02*
X103714285Y-104428571D01*
X103714285Y-104952380D02*
X103714285Y-103952380D01*
X104190476Y-103952380D01*
%TO.C,C7*%
X119833333Y-112607142D02*
X119785714Y-112654761D01*
X119642857Y-112702380D01*
X119547619Y-112702380D01*
X119404761Y-112654761D01*
X119309523Y-112559523D01*
X119261904Y-112464285D01*
X119214285Y-112273809D01*
X119214285Y-112130952D01*
X119261904Y-111940476D01*
X119309523Y-111845238D01*
X119404761Y-111750000D01*
X119547619Y-111702380D01*
X119642857Y-111702380D01*
X119785714Y-111750000D01*
X119833333Y-111797619D01*
X120166666Y-111702380D02*
X120833333Y-111702380D01*
X120404761Y-112702380D01*
X118678571Y-114952380D02*
X118107142Y-114952380D01*
X118392857Y-114952380D02*
X118392857Y-113952380D01*
X118297619Y-114095238D01*
X118202380Y-114190476D01*
X118107142Y-114238095D01*
X119297619Y-113952380D02*
X119392857Y-113952380D01*
X119488095Y-114000000D01*
X119535714Y-114047619D01*
X119583333Y-114142857D01*
X119630952Y-114333333D01*
X119630952Y-114571428D01*
X119583333Y-114761904D01*
X119535714Y-114857142D01*
X119488095Y-114904761D01*
X119392857Y-114952380D01*
X119297619Y-114952380D01*
X119202380Y-114904761D01*
X119154761Y-114857142D01*
X119107142Y-114761904D01*
X119059523Y-114571428D01*
X119059523Y-114333333D01*
X119107142Y-114142857D01*
X119154761Y-114047619D01*
X119202380Y-114000000D01*
X119297619Y-113952380D01*
X120488095Y-114285714D02*
X120488095Y-114952380D01*
X120059523Y-114285714D02*
X120059523Y-114809523D01*
X120107142Y-114904761D01*
X120202380Y-114952380D01*
X120345238Y-114952380D01*
X120440476Y-114904761D01*
X120488095Y-114857142D01*
X121297619Y-114428571D02*
X120964285Y-114428571D01*
X120964285Y-114952380D02*
X120964285Y-113952380D01*
X121440476Y-113952380D01*
%TO.C,C6*%
X135333333Y-102857142D02*
X135285714Y-102904761D01*
X135142857Y-102952380D01*
X135047619Y-102952380D01*
X134904761Y-102904761D01*
X134809523Y-102809523D01*
X134761904Y-102714285D01*
X134714285Y-102523809D01*
X134714285Y-102380952D01*
X134761904Y-102190476D01*
X134809523Y-102095238D01*
X134904761Y-102000000D01*
X135047619Y-101952380D01*
X135142857Y-101952380D01*
X135285714Y-102000000D01*
X135333333Y-102047619D01*
X136190476Y-101952380D02*
X136000000Y-101952380D01*
X135904761Y-102000000D01*
X135857142Y-102047619D01*
X135761904Y-102190476D01*
X135714285Y-102380952D01*
X135714285Y-102761904D01*
X135761904Y-102857142D01*
X135809523Y-102904761D01*
X135904761Y-102952380D01*
X136095238Y-102952380D01*
X136190476Y-102904761D01*
X136238095Y-102857142D01*
X136285714Y-102761904D01*
X136285714Y-102523809D01*
X136238095Y-102428571D01*
X136190476Y-102380952D01*
X136095238Y-102333333D01*
X135904761Y-102333333D01*
X135809523Y-102380952D01*
X135761904Y-102428571D01*
X135714285Y-102523809D01*
X146952380Y-103571428D02*
X146952380Y-104142857D01*
X146952380Y-103857142D02*
X145952380Y-103857142D01*
X146095238Y-103952380D01*
X146190476Y-104047619D01*
X146238095Y-104142857D01*
X145952380Y-102952380D02*
X145952380Y-102857142D01*
X146000000Y-102761904D01*
X146047619Y-102714285D01*
X146142857Y-102666666D01*
X146333333Y-102619047D01*
X146571428Y-102619047D01*
X146761904Y-102666666D01*
X146857142Y-102714285D01*
X146904761Y-102761904D01*
X146952380Y-102857142D01*
X146952380Y-102952380D01*
X146904761Y-103047619D01*
X146857142Y-103095238D01*
X146761904Y-103142857D01*
X146571428Y-103190476D01*
X146333333Y-103190476D01*
X146142857Y-103142857D01*
X146047619Y-103095238D01*
X146000000Y-103047619D01*
X145952380Y-102952380D01*
X146285714Y-101761904D02*
X146952380Y-101761904D01*
X146285714Y-102190476D02*
X146809523Y-102190476D01*
X146904761Y-102142857D01*
X146952380Y-102047619D01*
X146952380Y-101904761D01*
X146904761Y-101809523D01*
X146857142Y-101761904D01*
X146428571Y-100952380D02*
X146428571Y-101285714D01*
X146952380Y-101285714D02*
X145952380Y-101285714D01*
X145952380Y-100809523D01*
%TO.C,C4*%
X113583333Y-97357142D02*
X113535714Y-97404761D01*
X113392857Y-97452380D01*
X113297619Y-97452380D01*
X113154761Y-97404761D01*
X113059523Y-97309523D01*
X113011904Y-97214285D01*
X112964285Y-97023809D01*
X112964285Y-96880952D01*
X113011904Y-96690476D01*
X113059523Y-96595238D01*
X113154761Y-96500000D01*
X113297619Y-96452380D01*
X113392857Y-96452380D01*
X113535714Y-96500000D01*
X113583333Y-96547619D01*
X114440476Y-96785714D02*
X114440476Y-97452380D01*
X114202380Y-96404761D02*
X113964285Y-97119047D01*
X114583333Y-97119047D01*
X113130952Y-98047619D02*
X113178571Y-98000000D01*
X113273809Y-97952380D01*
X113511904Y-97952380D01*
X113607142Y-98000000D01*
X113654761Y-98047619D01*
X113702380Y-98142857D01*
X113702380Y-98238095D01*
X113654761Y-98380952D01*
X113083333Y-98952380D01*
X113702380Y-98952380D01*
X114083333Y-98047619D02*
X114130952Y-98000000D01*
X114226190Y-97952380D01*
X114464285Y-97952380D01*
X114559523Y-98000000D01*
X114607142Y-98047619D01*
X114654761Y-98142857D01*
X114654761Y-98238095D01*
X114607142Y-98380952D01*
X114035714Y-98952380D01*
X114654761Y-98952380D01*
X115273809Y-97952380D02*
X115369047Y-97952380D01*
X115464285Y-98000000D01*
X115511904Y-98047619D01*
X115559523Y-98142857D01*
X115607142Y-98333333D01*
X115607142Y-98571428D01*
X115559523Y-98761904D01*
X115511904Y-98857142D01*
X115464285Y-98904761D01*
X115369047Y-98952380D01*
X115273809Y-98952380D01*
X115178571Y-98904761D01*
X115130952Y-98857142D01*
X115083333Y-98761904D01*
X115035714Y-98571428D01*
X115035714Y-98333333D01*
X115083333Y-98142857D01*
X115130952Y-98047619D01*
X115178571Y-98000000D01*
X115273809Y-97952380D01*
X116035714Y-98285714D02*
X116035714Y-98952380D01*
X116035714Y-98380952D02*
X116083333Y-98333333D01*
X116178571Y-98285714D01*
X116321428Y-98285714D01*
X116416666Y-98333333D01*
X116464285Y-98428571D01*
X116464285Y-98952380D01*
X117273809Y-98428571D02*
X116940476Y-98428571D01*
X116940476Y-98952380D02*
X116940476Y-97952380D01*
X117416666Y-97952380D01*
%TO.C,C3*%
X103583333Y-110607142D02*
X103535714Y-110654761D01*
X103392857Y-110702380D01*
X103297619Y-110702380D01*
X103154761Y-110654761D01*
X103059523Y-110559523D01*
X103011904Y-110464285D01*
X102964285Y-110273809D01*
X102964285Y-110130952D01*
X103011904Y-109940476D01*
X103059523Y-109845238D01*
X103154761Y-109750000D01*
X103297619Y-109702380D01*
X103392857Y-109702380D01*
X103535714Y-109750000D01*
X103583333Y-109797619D01*
X103916666Y-109702380D02*
X104535714Y-109702380D01*
X104202380Y-110083333D01*
X104345238Y-110083333D01*
X104440476Y-110130952D01*
X104488095Y-110178571D01*
X104535714Y-110273809D01*
X104535714Y-110511904D01*
X104488095Y-110607142D01*
X104440476Y-110654761D01*
X104345238Y-110702380D01*
X104059523Y-110702380D01*
X103964285Y-110654761D01*
X103916666Y-110607142D01*
X113702380Y-110702380D02*
X113130952Y-110702380D01*
X113416666Y-110702380D02*
X113416666Y-109702380D01*
X113321428Y-109845238D01*
X113226190Y-109940476D01*
X113130952Y-109988095D01*
X114321428Y-109702380D02*
X114416666Y-109702380D01*
X114511904Y-109750000D01*
X114559523Y-109797619D01*
X114607142Y-109892857D01*
X114654761Y-110083333D01*
X114654761Y-110321428D01*
X114607142Y-110511904D01*
X114559523Y-110607142D01*
X114511904Y-110654761D01*
X114416666Y-110702380D01*
X114321428Y-110702380D01*
X114226190Y-110654761D01*
X114178571Y-110607142D01*
X114130952Y-110511904D01*
X114083333Y-110321428D01*
X114083333Y-110083333D01*
X114130952Y-109892857D01*
X114178571Y-109797619D01*
X114226190Y-109750000D01*
X114321428Y-109702380D01*
X115273809Y-109702380D02*
X115369047Y-109702380D01*
X115464285Y-109750000D01*
X115511904Y-109797619D01*
X115559523Y-109892857D01*
X115607142Y-110083333D01*
X115607142Y-110321428D01*
X115559523Y-110511904D01*
X115511904Y-110607142D01*
X115464285Y-110654761D01*
X115369047Y-110702380D01*
X115273809Y-110702380D01*
X115178571Y-110654761D01*
X115130952Y-110607142D01*
X115083333Y-110511904D01*
X115035714Y-110321428D01*
X115035714Y-110083333D01*
X115083333Y-109892857D01*
X115130952Y-109797619D01*
X115178571Y-109750000D01*
X115273809Y-109702380D01*
X116035714Y-110035714D02*
X116035714Y-110702380D01*
X116035714Y-110130952D02*
X116083333Y-110083333D01*
X116178571Y-110035714D01*
X116321428Y-110035714D01*
X116416666Y-110083333D01*
X116464285Y-110178571D01*
X116464285Y-110702380D01*
X117273809Y-110178571D02*
X116940476Y-110178571D01*
X116940476Y-110702380D02*
X116940476Y-109702380D01*
X117416666Y-109702380D01*
%TO.C,C2*%
X121333333Y-104857142D02*
X121285714Y-104904761D01*
X121142857Y-104952380D01*
X121047619Y-104952380D01*
X120904761Y-104904761D01*
X120809523Y-104809523D01*
X120761904Y-104714285D01*
X120714285Y-104523809D01*
X120714285Y-104380952D01*
X120761904Y-104190476D01*
X120809523Y-104095238D01*
X120904761Y-104000000D01*
X121047619Y-103952380D01*
X121142857Y-103952380D01*
X121285714Y-104000000D01*
X121333333Y-104047619D01*
X121714285Y-104047619D02*
X121761904Y-104000000D01*
X121857142Y-103952380D01*
X122095238Y-103952380D01*
X122190476Y-104000000D01*
X122238095Y-104047619D01*
X122285714Y-104142857D01*
X122285714Y-104238095D01*
X122238095Y-104380952D01*
X121666666Y-104952380D01*
X122285714Y-104952380D01*
X130845238Y-104285714D02*
X130845238Y-104952380D01*
X130607142Y-103904761D02*
X130369047Y-104619047D01*
X130988095Y-104619047D01*
X131369047Y-104857142D02*
X131416666Y-104904761D01*
X131369047Y-104952380D01*
X131321428Y-104904761D01*
X131369047Y-104857142D01*
X131369047Y-104952380D01*
X131750000Y-103952380D02*
X132416666Y-103952380D01*
X131988095Y-104952380D01*
X132797619Y-104285714D02*
X132797619Y-105285714D01*
X132797619Y-104333333D02*
X132892857Y-104285714D01*
X133083333Y-104285714D01*
X133178571Y-104333333D01*
X133226190Y-104380952D01*
X133273809Y-104476190D01*
X133273809Y-104761904D01*
X133226190Y-104857142D01*
X133178571Y-104904761D01*
X133083333Y-104952380D01*
X132892857Y-104952380D01*
X132797619Y-104904761D01*
X134035714Y-104428571D02*
X133702380Y-104428571D01*
X133702380Y-104952380D02*
X133702380Y-103952380D01*
X134178571Y-103952380D01*
%TO.C,C1*%
X136333333Y-110107142D02*
X136285714Y-110154761D01*
X136142857Y-110202380D01*
X136047619Y-110202380D01*
X135904761Y-110154761D01*
X135809523Y-110059523D01*
X135761904Y-109964285D01*
X135714285Y-109773809D01*
X135714285Y-109630952D01*
X135761904Y-109440476D01*
X135809523Y-109345238D01*
X135904761Y-109250000D01*
X136047619Y-109202380D01*
X136142857Y-109202380D01*
X136285714Y-109250000D01*
X136333333Y-109297619D01*
X137285714Y-110202380D02*
X136714285Y-110202380D01*
X137000000Y-110202380D02*
X137000000Y-109202380D01*
X136904761Y-109345238D01*
X136809523Y-109440476D01*
X136714285Y-109488095D01*
X145785714Y-111654761D02*
X146452380Y-111654761D01*
X145404761Y-111892857D02*
X146119047Y-112130952D01*
X146119047Y-111511904D01*
X146357142Y-111130952D02*
X146404761Y-111083333D01*
X146452380Y-111130952D01*
X146404761Y-111178571D01*
X146357142Y-111130952D01*
X146452380Y-111130952D01*
X145452380Y-110750000D02*
X145452380Y-110083333D01*
X146452380Y-110511904D01*
X145785714Y-109702380D02*
X146785714Y-109702380D01*
X145833333Y-109702380D02*
X145785714Y-109607142D01*
X145785714Y-109416666D01*
X145833333Y-109321428D01*
X145880952Y-109273809D01*
X145976190Y-109226190D01*
X146261904Y-109226190D01*
X146357142Y-109273809D01*
X146404761Y-109321428D01*
X146452380Y-109416666D01*
X146452380Y-109607142D01*
X146404761Y-109702380D01*
X145928571Y-108464285D02*
X145928571Y-108797619D01*
X146452380Y-108797619D02*
X145452380Y-108797619D01*
X145452380Y-108321428D01*
%TO.C,U1*%
X125548095Y-82122380D02*
X125548095Y-82931904D01*
X125595714Y-83027142D01*
X125643333Y-83074761D01*
X125738571Y-83122380D01*
X125929047Y-83122380D01*
X126024285Y-83074761D01*
X126071904Y-83027142D01*
X126119523Y-82931904D01*
X126119523Y-82122380D01*
X127119523Y-83122380D02*
X126548095Y-83122380D01*
X126833809Y-83122380D02*
X126833809Y-82122380D01*
X126738571Y-82265238D01*
X126643333Y-82360476D01*
X126548095Y-82408095D01*
X125762380Y-95119047D02*
X125762380Y-94547619D01*
X126762380Y-94833333D02*
X125762380Y-94833333D01*
X126762380Y-93738095D02*
X126762380Y-94214285D01*
X125762380Y-94214285D01*
X125762380Y-93214285D02*
X125762380Y-93119047D01*
X125810000Y-93023809D01*
X125857619Y-92976190D01*
X125952857Y-92928571D01*
X126143333Y-92880952D01*
X126381428Y-92880952D01*
X126571904Y-92928571D01*
X126667142Y-92976190D01*
X126714761Y-93023809D01*
X126762380Y-93119047D01*
X126762380Y-93214285D01*
X126714761Y-93309523D01*
X126667142Y-93357142D01*
X126571904Y-93404761D01*
X126381428Y-93452380D01*
X126143333Y-93452380D01*
X125952857Y-93404761D01*
X125857619Y-93357142D01*
X125810000Y-93309523D01*
X125762380Y-93214285D01*
X125762380Y-92547619D02*
X125762380Y-91880952D01*
X126762380Y-92309523D01*
X126095714Y-91071428D02*
X126762380Y-91071428D01*
X125714761Y-91309523D02*
X126429047Y-91547619D01*
X126429047Y-90928571D01*
D12*
%TO.C,R11*%
X129580000Y-60370000D02*
X129580000Y-60040000D01*
X123040000Y-57630000D02*
X129580000Y-57630000D01*
X123040000Y-60370000D02*
X129580000Y-60370000D01*
X123040000Y-60040000D02*
X123040000Y-60370000D01*
X123040000Y-57960000D02*
X123040000Y-57630000D01*
X129580000Y-57630000D02*
X129580000Y-57960000D01*
%TO.C,R5*%
X122980000Y-53880000D02*
X122980000Y-54210000D01*
X129520000Y-56620000D02*
X122980000Y-56620000D01*
X129520000Y-53880000D02*
X122980000Y-53880000D01*
X129520000Y-54210000D02*
X129520000Y-53880000D01*
X129520000Y-56290000D02*
X129520000Y-56620000D01*
X122980000Y-56620000D02*
X122980000Y-56290000D01*
%TO.C,J8*%
X113050000Y-54410000D02*
X113050000Y-53430000D01*
X105150000Y-51200000D02*
X105150000Y-48790000D01*
X113050000Y-49090000D02*
X105450000Y-49090000D01*
X105450000Y-54410000D02*
X105710000Y-54410000D01*
X105710000Y-55910000D02*
X112790000Y-55910000D01*
X105450000Y-49090000D02*
X105450000Y-51620000D01*
X105580000Y-53430000D02*
X105450000Y-53430000D01*
X113050000Y-51620000D02*
X113050000Y-49090000D01*
X112790000Y-54410000D02*
X113050000Y-54410000D01*
X112790000Y-55910000D02*
X112790000Y-54410000D01*
X105580000Y-51620000D02*
X105580000Y-53430000D01*
X105150000Y-48790000D02*
X107560000Y-48790000D01*
X113050000Y-53430000D02*
X112920000Y-53430000D01*
X105450000Y-53430000D02*
X105450000Y-54410000D01*
X105710000Y-54410000D02*
X105710000Y-55910000D01*
X112920000Y-53430000D02*
X112920000Y-51620000D01*
X112920000Y-51620000D02*
X113050000Y-51620000D01*
X105450000Y-51620000D02*
X105580000Y-51620000D01*
%TO.C,C5*%
X130220000Y-66000000D02*
G75*
G03*
X130220000Y-66000000I-4120000J0D01*
G01*
X124099000Y-64960000D02*
X124099000Y-62438000D01*
X124779000Y-69863000D02*
X124779000Y-67040000D01*
X124299000Y-64960000D02*
X124299000Y-62334000D01*
X123579000Y-64960000D02*
X123579000Y-62780000D01*
X122179000Y-67229000D02*
X122179000Y-64771000D01*
X125940000Y-70077000D02*
X125940000Y-61923000D01*
X123219000Y-68907000D02*
X123219000Y-67040000D01*
X124979000Y-69925000D02*
X124979000Y-67040000D01*
X123499000Y-64960000D02*
X123499000Y-62844000D01*
X124659000Y-64960000D02*
X124659000Y-62179000D01*
X124259000Y-69647000D02*
X124259000Y-67040000D01*
X124299000Y-69666000D02*
X124299000Y-67040000D01*
X124339000Y-64960000D02*
X124339000Y-62314000D01*
X125580000Y-70048000D02*
X125580000Y-61952000D01*
X122939000Y-68604000D02*
X122939000Y-63396000D01*
X123179000Y-64960000D02*
X123179000Y-63133000D01*
X124219000Y-64960000D02*
X124219000Y-62373000D01*
X123219000Y-64960000D02*
X123219000Y-63093000D01*
X126100000Y-70080000D02*
X126100000Y-61920000D01*
X124979000Y-64960000D02*
X124979000Y-62075000D01*
X123619000Y-64960000D02*
X123619000Y-62750000D01*
X125460000Y-70030000D02*
X125460000Y-61970000D01*
X124619000Y-64960000D02*
X124619000Y-62195000D01*
X124099000Y-69562000D02*
X124099000Y-67040000D01*
X124419000Y-64960000D02*
X124419000Y-62278000D01*
X124779000Y-64960000D02*
X124779000Y-62137000D01*
X124819000Y-64960000D02*
X124819000Y-62123000D01*
X124179000Y-69606000D02*
X124179000Y-67040000D01*
X123859000Y-64960000D02*
X123859000Y-62582000D01*
X123659000Y-69280000D02*
X123659000Y-67040000D01*
X124739000Y-64960000D02*
X124739000Y-62150000D01*
X125059000Y-69947000D02*
X125059000Y-67040000D01*
X125980000Y-70079000D02*
X125980000Y-61921000D01*
X122739000Y-68345000D02*
X122739000Y-63655000D01*
X122859000Y-68505000D02*
X122859000Y-63495000D01*
X123939000Y-64960000D02*
X123939000Y-62531000D01*
X124699000Y-69835000D02*
X124699000Y-67040000D01*
X124419000Y-69722000D02*
X124419000Y-67040000D01*
X123659000Y-64960000D02*
X123659000Y-62720000D01*
X122379000Y-67731000D02*
X122379000Y-64269000D01*
X125620000Y-70052000D02*
X125620000Y-61948000D01*
X123459000Y-69124000D02*
X123459000Y-67040000D01*
X125219000Y-64960000D02*
X125219000Y-62015000D01*
X125700000Y-70061000D02*
X125700000Y-61939000D01*
X123339000Y-64960000D02*
X123339000Y-62981000D01*
X124499000Y-64960000D02*
X124499000Y-62243000D01*
X122259000Y-67453000D02*
X122259000Y-64547000D01*
X124859000Y-64960000D02*
X124859000Y-62111000D01*
X125019000Y-64960000D02*
X125019000Y-62064000D01*
X125900000Y-70076000D02*
X125900000Y-61924000D01*
X124379000Y-69704000D02*
X124379000Y-67040000D01*
X125099000Y-64960000D02*
X125099000Y-62043000D01*
X122499000Y-67964000D02*
X122499000Y-64036000D01*
X123459000Y-64960000D02*
X123459000Y-62876000D01*
X125179000Y-69976000D02*
X125179000Y-67040000D01*
X123259000Y-68945000D02*
X123259000Y-67040000D01*
X123019000Y-68697000D02*
X123019000Y-63303000D01*
X124059000Y-69540000D02*
X124059000Y-67040000D01*
X123299000Y-68983000D02*
X123299000Y-67040000D01*
X123859000Y-69418000D02*
X123859000Y-67040000D01*
X124579000Y-69790000D02*
X124579000Y-67040000D01*
X122139000Y-67098000D02*
X122139000Y-64902000D01*
X126020000Y-70080000D02*
X126020000Y-61920000D01*
X123419000Y-69090000D02*
X123419000Y-67040000D01*
X123539000Y-69189000D02*
X123539000Y-67040000D01*
X125540000Y-70042000D02*
X125540000Y-61958000D01*
X122099000Y-66948000D02*
X122099000Y-65052000D01*
X122659000Y-68228000D02*
X122659000Y-63772000D01*
X123699000Y-64960000D02*
X123699000Y-62691000D01*
X122699000Y-68287000D02*
X122699000Y-63713000D01*
X122459000Y-67890000D02*
X122459000Y-64110000D01*
X124899000Y-69902000D02*
X124899000Y-67040000D01*
X125740000Y-70065000D02*
X125740000Y-61935000D01*
X123059000Y-68741000D02*
X123059000Y-63259000D01*
X124179000Y-64960000D02*
X124179000Y-62394000D01*
X123179000Y-68867000D02*
X123179000Y-67040000D01*
X122299000Y-67552000D02*
X122299000Y-64448000D01*
X123099000Y-68784000D02*
X123099000Y-63216000D01*
X125780000Y-70068000D02*
X125780000Y-61932000D01*
X123739000Y-64960000D02*
X123739000Y-62662000D01*
X123939000Y-69469000D02*
X123939000Y-67040000D01*
X123819000Y-64960000D02*
X123819000Y-62608000D01*
X124579000Y-64960000D02*
X124579000Y-62210000D01*
X130509698Y-68315000D02*
X129709698Y-68315000D01*
X124019000Y-69517000D02*
X124019000Y-67040000D01*
X125099000Y-69957000D02*
X125099000Y-67040000D01*
X124739000Y-69850000D02*
X124739000Y-67040000D01*
X124139000Y-64960000D02*
X124139000Y-62416000D01*
X122779000Y-68400000D02*
X122779000Y-63600000D01*
X124539000Y-69774000D02*
X124539000Y-67040000D01*
X123779000Y-69365000D02*
X123779000Y-67040000D01*
X124499000Y-69757000D02*
X124499000Y-67040000D01*
X123899000Y-64960000D02*
X123899000Y-62556000D01*
X123419000Y-64960000D02*
X123419000Y-62910000D01*
X125860000Y-70074000D02*
X125860000Y-61926000D01*
X122819000Y-68454000D02*
X122819000Y-63546000D01*
X124859000Y-69889000D02*
X124859000Y-67040000D01*
X124139000Y-69584000D02*
X124139000Y-67040000D01*
X125179000Y-64960000D02*
X125179000Y-62024000D01*
X125139000Y-69967000D02*
X125139000Y-67040000D01*
X130109698Y-68715000D02*
X130109698Y-67915000D01*
X123739000Y-69338000D02*
X123739000Y-67040000D01*
X122579000Y-68102000D02*
X122579000Y-63898000D01*
X125660000Y-70057000D02*
X125660000Y-61943000D01*
X124219000Y-69627000D02*
X124219000Y-67040000D01*
X123819000Y-69392000D02*
X123819000Y-67040000D01*
X123499000Y-69156000D02*
X123499000Y-67040000D01*
X122019000Y-66533000D02*
X122019000Y-65467000D01*
X124259000Y-64960000D02*
X124259000Y-62353000D01*
X124459000Y-64960000D02*
X124459000Y-62260000D01*
X124339000Y-69686000D02*
X124339000Y-67040000D01*
X122539000Y-68034000D02*
X122539000Y-63966000D01*
X124619000Y-69805000D02*
X124619000Y-67040000D01*
X125339000Y-70010000D02*
X125339000Y-61990000D01*
X122899000Y-68556000D02*
X122899000Y-63444000D01*
X125139000Y-64960000D02*
X125139000Y-62033000D01*
X123259000Y-64960000D02*
X123259000Y-63055000D01*
X124059000Y-64960000D02*
X124059000Y-62460000D01*
X125500000Y-70037000D02*
X125500000Y-61963000D01*
X122339000Y-67645000D02*
X122339000Y-64355000D01*
X122059000Y-66768000D02*
X122059000Y-65232000D01*
X123619000Y-69250000D02*
X123619000Y-67040000D01*
X125820000Y-70071000D02*
X125820000Y-61929000D01*
X125299000Y-70002000D02*
X125299000Y-61998000D01*
X123979000Y-69493000D02*
X123979000Y-67040000D01*
X124539000Y-64960000D02*
X124539000Y-62226000D01*
X124699000Y-64960000D02*
X124699000Y-62165000D01*
X124459000Y-69740000D02*
X124459000Y-67040000D01*
X124899000Y-64960000D02*
X124899000Y-62098000D01*
X123899000Y-69444000D02*
X123899000Y-67040000D01*
X123579000Y-69220000D02*
X123579000Y-67040000D01*
X122619000Y-68166000D02*
X122619000Y-63834000D01*
X126060000Y-70080000D02*
X126060000Y-61920000D01*
X124939000Y-64960000D02*
X124939000Y-62086000D01*
X123139000Y-68826000D02*
X123139000Y-63174000D01*
X124659000Y-69821000D02*
X124659000Y-67040000D01*
X124379000Y-64960000D02*
X124379000Y-62296000D01*
X123979000Y-64960000D02*
X123979000Y-62507000D01*
X123299000Y-64960000D02*
X123299000Y-63017000D01*
X125019000Y-69936000D02*
X125019000Y-67040000D01*
X123379000Y-64960000D02*
X123379000Y-62945000D01*
X123539000Y-64960000D02*
X123539000Y-62811000D01*
X123699000Y-69309000D02*
X123699000Y-67040000D01*
X125219000Y-69985000D02*
X125219000Y-67040000D01*
X125259000Y-69994000D02*
X125259000Y-62006000D01*
X124019000Y-64960000D02*
X124019000Y-62483000D01*
X124819000Y-69877000D02*
X124819000Y-67040000D01*
X125379000Y-70017000D02*
X125379000Y-61983000D01*
X122979000Y-68651000D02*
X122979000Y-63349000D01*
X123339000Y-69019000D02*
X123339000Y-67040000D01*
X124939000Y-69914000D02*
X124939000Y-67040000D01*
X123779000Y-64960000D02*
X123779000Y-62635000D01*
X125420000Y-70024000D02*
X125420000Y-61976000D01*
X122419000Y-67813000D02*
X122419000Y-64187000D01*
X123379000Y-69055000D02*
X123379000Y-67040000D01*
X122219000Y-67346000D02*
X122219000Y-64654000D01*
X125059000Y-64960000D02*
X125059000Y-62053000D01*
%TO.C,S1*%
X146570000Y-56660000D02*
X146570000Y-55680000D01*
X138670000Y-53450000D02*
X138670000Y-51040000D01*
X146570000Y-51340000D02*
X138970000Y-51340000D01*
X138970000Y-56660000D02*
X139230000Y-56660000D01*
X139230000Y-58160000D02*
X146310000Y-58160000D01*
X138970000Y-51340000D02*
X138970000Y-53870000D01*
X139100000Y-55680000D02*
X138970000Y-55680000D01*
X146570000Y-53870000D02*
X146570000Y-51340000D01*
X146310000Y-56660000D02*
X146570000Y-56660000D01*
X146310000Y-58160000D02*
X146310000Y-56660000D01*
X139100000Y-53870000D02*
X139100000Y-55680000D01*
X138670000Y-51040000D02*
X141080000Y-51040000D01*
X146570000Y-55680000D02*
X146440000Y-55680000D01*
X138970000Y-55680000D02*
X138970000Y-56660000D01*
X139230000Y-56660000D02*
X139230000Y-58160000D01*
X146440000Y-55680000D02*
X146440000Y-53870000D01*
X146440000Y-53870000D02*
X146570000Y-53870000D01*
X138970000Y-53870000D02*
X139100000Y-53870000D01*
%TO.C,R10*%
X144520000Y-97620000D02*
X144520000Y-97290000D01*
X137980000Y-94880000D02*
X144520000Y-94880000D01*
X137980000Y-97620000D02*
X144520000Y-97620000D01*
X137980000Y-97290000D02*
X137980000Y-97620000D01*
X137980000Y-95210000D02*
X137980000Y-94880000D01*
X144520000Y-94880000D02*
X144520000Y-95210000D01*
%TO.C,R9*%
X105920000Y-75630000D02*
X105920000Y-75960000D01*
X112460000Y-78370000D02*
X105920000Y-78370000D01*
X112460000Y-75630000D02*
X105920000Y-75630000D01*
X112460000Y-75960000D02*
X112460000Y-75630000D01*
X112460000Y-78040000D02*
X112460000Y-78370000D01*
X105920000Y-78370000D02*
X105920000Y-78040000D01*
%TO.C,R8*%
X105730000Y-92880000D02*
X105730000Y-93210000D01*
X112270000Y-95620000D02*
X105730000Y-95620000D01*
X112270000Y-92880000D02*
X105730000Y-92880000D01*
X112270000Y-93210000D02*
X112270000Y-92880000D01*
X112270000Y-95290000D02*
X112270000Y-95620000D01*
X105730000Y-95620000D02*
X105730000Y-95290000D01*
%TO.C,R7*%
X138620000Y-69160000D02*
X146460000Y-69160000D01*
X138620000Y-67660000D02*
X138620000Y-69160000D01*
X137390000Y-62340000D02*
X137390000Y-64870000D01*
X147560000Y-66680000D02*
X147560000Y-64870000D01*
X137090000Y-64450000D02*
X137090000Y-62040000D01*
X147560000Y-64870000D02*
X147690000Y-64870000D01*
X137090000Y-62040000D02*
X139500000Y-62040000D01*
X137520000Y-64870000D02*
X137520000Y-66680000D01*
X147690000Y-64870000D02*
X147690000Y-62340000D01*
X137390000Y-64870000D02*
X137520000Y-64870000D01*
X147690000Y-66680000D02*
X147560000Y-66680000D01*
X137390000Y-67660000D02*
X138620000Y-67660000D01*
X147690000Y-62340000D02*
X137390000Y-62340000D01*
X137520000Y-66680000D02*
X137390000Y-66680000D01*
X137390000Y-66680000D02*
X137390000Y-67660000D01*
X147690000Y-67660000D02*
X147690000Y-66680000D01*
X146460000Y-69160000D02*
X146460000Y-67660000D01*
X146460000Y-67660000D02*
X147690000Y-67660000D01*
%TO.C,R6*%
X105620000Y-69410000D02*
X113460000Y-69410000D01*
X105620000Y-67910000D02*
X105620000Y-69410000D01*
X104390000Y-62590000D02*
X104390000Y-65120000D01*
X114560000Y-66930000D02*
X114560000Y-65120000D01*
X104090000Y-64700000D02*
X104090000Y-62290000D01*
X114560000Y-65120000D02*
X114690000Y-65120000D01*
X104090000Y-62290000D02*
X106500000Y-62290000D01*
X104520000Y-65120000D02*
X104520000Y-66930000D01*
X114690000Y-65120000D02*
X114690000Y-62590000D01*
X104390000Y-65120000D02*
X104520000Y-65120000D01*
X114690000Y-66930000D02*
X114560000Y-66930000D01*
X104390000Y-67910000D02*
X105620000Y-67910000D01*
X114690000Y-62590000D02*
X104390000Y-62590000D01*
X104520000Y-66930000D02*
X104390000Y-66930000D01*
X104390000Y-66930000D02*
X104390000Y-67910000D01*
X114690000Y-67910000D02*
X114690000Y-66930000D01*
X113460000Y-69410000D02*
X113460000Y-67910000D01*
X113460000Y-67910000D02*
X114690000Y-67910000D01*
%TO.C,R4*%
X129520000Y-80370000D02*
X129520000Y-80040000D01*
X122980000Y-77630000D02*
X129520000Y-77630000D01*
X122980000Y-80370000D02*
X129520000Y-80370000D01*
X122980000Y-80040000D02*
X122980000Y-80370000D01*
X122980000Y-77960000D02*
X122980000Y-77630000D01*
X129520000Y-77630000D02*
X129520000Y-77960000D01*
%TO.C,R3*%
X129520000Y-76370000D02*
X129520000Y-76040000D01*
X122980000Y-73630000D02*
X129520000Y-73630000D01*
X122980000Y-76370000D02*
X129520000Y-76370000D01*
X122980000Y-76040000D02*
X122980000Y-76370000D01*
X122980000Y-73960000D02*
X122980000Y-73630000D01*
X129520000Y-73630000D02*
X129520000Y-73960000D01*
%TO.C,R2*%
X112460000Y-74370000D02*
X112460000Y-74040000D01*
X105920000Y-71630000D02*
X112460000Y-71630000D01*
X105920000Y-74370000D02*
X112460000Y-74370000D01*
X105920000Y-74040000D02*
X105920000Y-74370000D01*
X105920000Y-71960000D02*
X105920000Y-71630000D01*
X112460000Y-71630000D02*
X112460000Y-71960000D01*
%TO.C,R1*%
X112270000Y-91370000D02*
X112270000Y-91040000D01*
X105730000Y-88630000D02*
X112270000Y-88630000D01*
X105730000Y-91370000D02*
X112270000Y-91370000D01*
X105730000Y-91040000D02*
X105730000Y-91370000D01*
X105730000Y-88960000D02*
X105730000Y-88630000D01*
X112270000Y-88630000D02*
X112270000Y-88960000D01*
%TO.C,JP1*%
X108730000Y-61080000D02*
X111330000Y-61080000D01*
X108730000Y-58420000D02*
X111330000Y-58420000D01*
X108730000Y-61080000D02*
X108730000Y-58420000D01*
X106130000Y-59750000D02*
X106130000Y-58420000D01*
X106130000Y-58420000D02*
X107460000Y-58420000D01*
X111330000Y-61080000D02*
X111330000Y-58420000D01*
%TO.C,J7*%
X121330000Y-126660000D02*
X129170000Y-126660000D01*
X121330000Y-125160000D02*
X121330000Y-126660000D01*
X120100000Y-119840000D02*
X120100000Y-122370000D01*
X130270000Y-124180000D02*
X130270000Y-122370000D01*
X119800000Y-121950000D02*
X119800000Y-119540000D01*
X130270000Y-122370000D02*
X130400000Y-122370000D01*
X119800000Y-119540000D02*
X122210000Y-119540000D01*
X120230000Y-122370000D02*
X120230000Y-124180000D01*
X130400000Y-122370000D02*
X130400000Y-119840000D01*
X120100000Y-122370000D02*
X120230000Y-122370000D01*
X130400000Y-124180000D02*
X130270000Y-124180000D01*
X120100000Y-125160000D02*
X121330000Y-125160000D01*
X130400000Y-119840000D02*
X120100000Y-119840000D01*
X120230000Y-124180000D02*
X120100000Y-124180000D01*
X120100000Y-124180000D02*
X120100000Y-125160000D01*
X130400000Y-125160000D02*
X130400000Y-124180000D01*
X129170000Y-126660000D02*
X129170000Y-125160000D01*
X129170000Y-125160000D02*
X130400000Y-125160000D01*
%TO.C,J6*%
X144570000Y-119910000D02*
X144570000Y-118930000D01*
X136670000Y-116700000D02*
X136670000Y-114290000D01*
X144570000Y-114590000D02*
X136970000Y-114590000D01*
X136970000Y-119910000D02*
X137230000Y-119910000D01*
X137230000Y-121410000D02*
X144310000Y-121410000D01*
X136970000Y-114590000D02*
X136970000Y-117120000D01*
X137100000Y-118930000D02*
X136970000Y-118930000D01*
X144570000Y-117120000D02*
X144570000Y-114590000D01*
X144310000Y-119910000D02*
X144570000Y-119910000D01*
X144310000Y-121410000D02*
X144310000Y-119910000D01*
X137100000Y-117120000D02*
X137100000Y-118930000D01*
X136670000Y-114290000D02*
X139080000Y-114290000D01*
X144570000Y-118930000D02*
X144440000Y-118930000D01*
X136970000Y-118930000D02*
X136970000Y-119910000D01*
X137230000Y-119910000D02*
X137230000Y-121410000D01*
X144440000Y-118930000D02*
X144440000Y-117120000D01*
X144440000Y-117120000D02*
X144570000Y-117120000D01*
X136970000Y-117120000D02*
X137100000Y-117120000D01*
%TO.C,J5*%
X135550000Y-49910000D02*
X135550000Y-48930000D01*
X127650000Y-46700000D02*
X127650000Y-44290000D01*
X135550000Y-44590000D02*
X127950000Y-44590000D01*
X127950000Y-49910000D02*
X128210000Y-49910000D01*
X128210000Y-51410000D02*
X135290000Y-51410000D01*
X127950000Y-44590000D02*
X127950000Y-47120000D01*
X128080000Y-48930000D02*
X127950000Y-48930000D01*
X135550000Y-47120000D02*
X135550000Y-44590000D01*
X135290000Y-49910000D02*
X135550000Y-49910000D01*
X135290000Y-51410000D02*
X135290000Y-49910000D01*
X128080000Y-47120000D02*
X128080000Y-48930000D01*
X127650000Y-44290000D02*
X130060000Y-44290000D01*
X135550000Y-48930000D02*
X135420000Y-48930000D01*
X127950000Y-48930000D02*
X127950000Y-49910000D01*
X128210000Y-49910000D02*
X128210000Y-51410000D01*
X135420000Y-48930000D02*
X135420000Y-47120000D01*
X135420000Y-47120000D02*
X135550000Y-47120000D01*
X127950000Y-47120000D02*
X128080000Y-47120000D01*
%TO.C,J4*%
X112550000Y-84910000D02*
X112550000Y-83930000D01*
X104650000Y-81700000D02*
X104650000Y-79290000D01*
X112550000Y-79590000D02*
X104950000Y-79590000D01*
X104950000Y-84910000D02*
X105210000Y-84910000D01*
X105210000Y-86410000D02*
X112290000Y-86410000D01*
X104950000Y-79590000D02*
X104950000Y-82120000D01*
X105080000Y-83930000D02*
X104950000Y-83930000D01*
X112550000Y-82120000D02*
X112550000Y-79590000D01*
X112290000Y-84910000D02*
X112550000Y-84910000D01*
X112290000Y-86410000D02*
X112290000Y-84910000D01*
X105080000Y-82120000D02*
X105080000Y-83930000D01*
X104650000Y-79290000D02*
X107060000Y-79290000D01*
X112550000Y-83930000D02*
X112420000Y-83930000D01*
X104950000Y-83930000D02*
X104950000Y-84910000D01*
X105210000Y-84910000D02*
X105210000Y-86410000D01*
X112420000Y-83930000D02*
X112420000Y-82120000D01*
X112420000Y-82120000D02*
X112550000Y-82120000D01*
X104950000Y-82120000D02*
X105080000Y-82120000D01*
%TO.C,J3*%
X113310000Y-140480000D02*
X124060000Y-140480000D01*
X135500000Y-137780000D02*
X134500000Y-137780000D01*
X112010000Y-139170000D02*
X140210000Y-139170000D01*
X124060000Y-140480000D02*
X124060000Y-139170000D01*
X124060000Y-140480000D02*
X124060000Y-140480000D01*
X138910000Y-140480000D02*
X138910000Y-146980000D01*
X134500000Y-137780000D02*
X135000000Y-138780000D01*
X140210000Y-148290000D02*
X112010000Y-148290000D01*
X112010000Y-148290000D02*
X112010000Y-139170000D01*
X138910000Y-146980000D02*
X113310000Y-146980000D01*
X128160000Y-139170000D02*
X128160000Y-140480000D01*
X113310000Y-146980000D02*
X113310000Y-140480000D01*
X140210000Y-139170000D02*
X140210000Y-148290000D01*
X128160000Y-140480000D02*
X138910000Y-140480000D01*
X135000000Y-138780000D02*
X135500000Y-137780000D01*
%TO.C,J2*%
X124530000Y-49910000D02*
X124530000Y-48930000D01*
X116630000Y-46700000D02*
X116630000Y-44290000D01*
X124530000Y-44590000D02*
X116930000Y-44590000D01*
X116930000Y-49910000D02*
X117190000Y-49910000D01*
X117190000Y-51410000D02*
X124270000Y-51410000D01*
X116930000Y-44590000D02*
X116930000Y-47120000D01*
X117060000Y-48930000D02*
X116930000Y-48930000D01*
X124530000Y-47120000D02*
X124530000Y-44590000D01*
X124270000Y-49910000D02*
X124530000Y-49910000D01*
X124270000Y-51410000D02*
X124270000Y-49910000D01*
X117060000Y-47120000D02*
X117060000Y-48930000D01*
X116630000Y-44290000D02*
X119040000Y-44290000D01*
X124530000Y-48930000D02*
X124400000Y-48930000D01*
X116930000Y-48930000D02*
X116930000Y-49910000D01*
X117190000Y-49910000D02*
X117190000Y-51410000D01*
X124400000Y-48930000D02*
X124400000Y-47120000D01*
X124400000Y-47120000D02*
X124530000Y-47120000D01*
X116930000Y-47120000D02*
X117060000Y-47120000D01*
%TO.C,J1*%
X112800000Y-119910000D02*
X112800000Y-118930000D01*
X104900000Y-116700000D02*
X104900000Y-114290000D01*
X112800000Y-114590000D02*
X105200000Y-114590000D01*
X105200000Y-119910000D02*
X105460000Y-119910000D01*
X105460000Y-121410000D02*
X112540000Y-121410000D01*
X105200000Y-114590000D02*
X105200000Y-117120000D01*
X105330000Y-118930000D02*
X105200000Y-118930000D01*
X112800000Y-117120000D02*
X112800000Y-114590000D01*
X112540000Y-119910000D02*
X112800000Y-119910000D01*
X112540000Y-121410000D02*
X112540000Y-119910000D01*
X105330000Y-117120000D02*
X105330000Y-118930000D01*
X104900000Y-114290000D02*
X107310000Y-114290000D01*
X112800000Y-118930000D02*
X112670000Y-118930000D01*
X105200000Y-118930000D02*
X105200000Y-119910000D01*
X105460000Y-119910000D02*
X105460000Y-121410000D01*
X112670000Y-118930000D02*
X112670000Y-117120000D01*
X112670000Y-117120000D02*
X112800000Y-117120000D01*
X105200000Y-117120000D02*
X105330000Y-117120000D01*
%TO.C,D4*%
X136070000Y-137470000D02*
X136070000Y-134530000D01*
X135950000Y-137470000D02*
X135950000Y-134530000D01*
X136970000Y-134530000D02*
X131530000Y-134530000D01*
X130510000Y-136000000D02*
X131530000Y-136000000D01*
X136970000Y-137470000D02*
X136970000Y-134530000D01*
X136190000Y-137470000D02*
X136190000Y-134530000D01*
X131530000Y-134530000D02*
X131530000Y-137470000D01*
X137990000Y-136000000D02*
X136970000Y-136000000D01*
X131530000Y-137470000D02*
X136970000Y-137470000D01*
%TO.C,D3*%
X116180000Y-134530000D02*
X116180000Y-137470000D01*
X116300000Y-134530000D02*
X116300000Y-137470000D01*
X115280000Y-137470000D02*
X120720000Y-137470000D01*
X121740000Y-136000000D02*
X120720000Y-136000000D01*
X115280000Y-134530000D02*
X115280000Y-137470000D01*
X116060000Y-134530000D02*
X116060000Y-137470000D01*
X120720000Y-137470000D02*
X120720000Y-134530000D01*
X114260000Y-136000000D02*
X115280000Y-136000000D01*
X120720000Y-134530000D02*
X115280000Y-134530000D01*
%TO.C,D2*%
X138435000Y-86455000D02*
X138435000Y-89545000D01*
X138435000Y-89544830D02*
G75*
G03*
X143985000Y-87999538I2560000J1544830D01*
G01*
X143985000Y-88000462D02*
G75*
G03*
X138435000Y-86455170I-2990000J462D01*
G01*
X143495000Y-88000000D02*
G75*
G03*
X143495000Y-88000000I-2500000J0D01*
G01*
%TO.C,D1*%
X143540000Y-82295000D02*
X143540000Y-79205000D01*
X143540000Y-79205170D02*
G75*
G03*
X137990000Y-80750462I-2560000J-1544830D01*
G01*
X137990000Y-80749538D02*
G75*
G03*
X143540000Y-82294830I2990000J-462D01*
G01*
X143480000Y-80750000D02*
G75*
G03*
X143480000Y-80750000I-2500000J0D01*
G01*
%TO.C,C10*%
X147106000Y-133673323D02*
X140894000Y-133673323D01*
X148020000Y-132753323D02*
X145241000Y-132753323D01*
X142759000Y-132433323D02*
X139753000Y-132433323D01*
X149045000Y-130232323D02*
X138955000Y-130232323D01*
X142759000Y-132273323D02*
X139653000Y-132273323D01*
X142759000Y-131873323D02*
X139436000Y-131873323D01*
X148997000Y-130553323D02*
X145241000Y-130553323D01*
X148584000Y-131833323D02*
X145241000Y-131833323D01*
X148395000Y-132193323D02*
X145241000Y-132193323D01*
X149035000Y-130312323D02*
X145241000Y-130312323D01*
X147347000Y-133473323D02*
X140653000Y-133473323D01*
X142759000Y-130633323D02*
X139018000Y-130633323D01*
X146579000Y-134033323D02*
X141421000Y-134033323D01*
X142759000Y-131953323D02*
X139475000Y-131953323D01*
X142759000Y-131833323D02*
X139416000Y-131833323D01*
X149024000Y-130393323D02*
X145241000Y-130393323D01*
X148754000Y-131433323D02*
X145241000Y-131433323D01*
X149078000Y-129792323D02*
X138922000Y-129792323D01*
X146365000Y-134153323D02*
X141635000Y-134153323D01*
X149065000Y-130032323D02*
X138935000Y-130032323D01*
X142759000Y-130393323D02*
X138976000Y-130393323D01*
X142759000Y-132673323D02*
X139920000Y-132673323D01*
X147301000Y-133513323D02*
X140699000Y-133513323D01*
X148194000Y-132513323D02*
X145241000Y-132513323D01*
X148166000Y-132553323D02*
X145241000Y-132553323D01*
X147156000Y-133633323D02*
X140844000Y-133633323D01*
X142759000Y-132113323D02*
X139560000Y-132113323D01*
X148738000Y-131473323D02*
X145241000Y-131473323D01*
X147375000Y-124652677D02*
X146375000Y-124652677D01*
X147520000Y-133313323D02*
X140480000Y-133313323D01*
X142759000Y-131553323D02*
X139293000Y-131553323D01*
X149054000Y-130152323D02*
X138946000Y-130152323D01*
X142759000Y-131633323D02*
X139326000Y-131633323D01*
X142759000Y-131273323D02*
X139189000Y-131273323D01*
X142759000Y-131473323D02*
X139262000Y-131473323D01*
X148110000Y-132633323D02*
X145241000Y-132633323D01*
X142759000Y-130953323D02*
X139093000Y-130953323D01*
X148504000Y-131993323D02*
X145241000Y-131993323D01*
X145378000Y-134553323D02*
X142622000Y-134553323D01*
X142759000Y-131913323D02*
X139455000Y-131913323D01*
X142759000Y-132713323D02*
X139950000Y-132713323D01*
X142759000Y-130513323D02*
X138996000Y-130513323D01*
X148080000Y-132673323D02*
X145241000Y-132673323D01*
X147254000Y-133553323D02*
X140746000Y-133553323D01*
X149018000Y-130433323D02*
X145241000Y-130433323D01*
X148874000Y-131073323D02*
X145241000Y-131073323D01*
X149075000Y-129872323D02*
X138925000Y-129872323D01*
X146645000Y-133993323D02*
X141355000Y-133993323D01*
X149070000Y-129952323D02*
X138930000Y-129952323D01*
X146830000Y-133873323D02*
X141170000Y-133873323D01*
X142759000Y-130593323D02*
X139010000Y-130593323D01*
X142759000Y-130873323D02*
X139072000Y-130873323D01*
X142759000Y-132513323D02*
X139806000Y-132513323D01*
X148938000Y-130833323D02*
X145241000Y-130833323D01*
X146037000Y-134313323D02*
X141963000Y-134313323D01*
X149062000Y-130072323D02*
X138938000Y-130072323D01*
X142759000Y-130753323D02*
X139044000Y-130753323D01*
X149030000Y-130353323D02*
X145241000Y-130353323D01*
X146510000Y-134073323D02*
X141490000Y-134073323D01*
X142759000Y-131113323D02*
X139138000Y-131113323D01*
X146289000Y-134193323D02*
X141711000Y-134193323D01*
X148462000Y-132073323D02*
X145241000Y-132073323D01*
X149058000Y-130112323D02*
X138942000Y-130112323D01*
X148862000Y-131113323D02*
X145241000Y-131113323D01*
X142759000Y-130433323D02*
X138982000Y-130433323D01*
X145630000Y-134473323D02*
X142370000Y-134473323D01*
X149068000Y-129992323D02*
X138932000Y-129992323D01*
X142759000Y-131513323D02*
X139277000Y-131513323D01*
X142759000Y-131033323D02*
X139115000Y-131033323D01*
X149011000Y-130473323D02*
X145241000Y-130473323D01*
X147925000Y-132873323D02*
X140075000Y-132873323D01*
X147601000Y-133233323D02*
X140399000Y-133233323D01*
X142759000Y-131993323D02*
X139496000Y-131993323D01*
X142759000Y-130553323D02*
X139003000Y-130553323D01*
X142759000Y-130713323D02*
X139035000Y-130713323D01*
X147989000Y-132793323D02*
X140011000Y-132793323D01*
X142759000Y-131073323D02*
X139126000Y-131073323D01*
X148639000Y-131713323D02*
X145241000Y-131713323D01*
X142759000Y-130353323D02*
X138970000Y-130353323D01*
X148221000Y-132473323D02*
X145241000Y-132473323D01*
X148545000Y-131913323D02*
X145241000Y-131913323D01*
X147789000Y-133033323D02*
X140211000Y-133033323D01*
X148837000Y-131193323D02*
X145241000Y-131193323D01*
X142759000Y-130793323D02*
X139053000Y-130793323D01*
X146770000Y-133913323D02*
X141230000Y-133913323D01*
X149080000Y-129672323D02*
X138920000Y-129672323D01*
X148603000Y-131793323D02*
X145241000Y-131793323D01*
X142759000Y-132553323D02*
X139834000Y-132553323D01*
X142759000Y-132313323D02*
X139677000Y-132313323D01*
X142759000Y-131193323D02*
X139163000Y-131193323D01*
X148657000Y-131673323D02*
X145241000Y-131673323D01*
X148347000Y-132273323D02*
X145241000Y-132273323D01*
X149079000Y-129752323D02*
X138921000Y-129752323D01*
X148323000Y-132313323D02*
X145241000Y-132313323D01*
X148797000Y-131313323D02*
X145241000Y-131313323D01*
X148811000Y-131273323D02*
X145241000Y-131273323D01*
X145510000Y-134513323D02*
X142490000Y-134513323D01*
X145062000Y-134633323D02*
X142938000Y-134633323D01*
X149077000Y-129832323D02*
X138923000Y-129832323D01*
X144599000Y-134713323D02*
X143401000Y-134713323D01*
X142759000Y-130833323D02*
X139062000Y-130833323D01*
X147716000Y-133113323D02*
X140284000Y-133113323D01*
X142759000Y-130993323D02*
X139103000Y-130993323D01*
X146709000Y-133953323D02*
X141291000Y-133953323D01*
X149004000Y-130513323D02*
X145241000Y-130513323D01*
X142759000Y-132153323D02*
X139583000Y-132153323D01*
X147640000Y-133193323D02*
X140360000Y-133193323D01*
X148621000Y-131753323D02*
X145241000Y-131753323D01*
X146209000Y-134233323D02*
X141791000Y-134233323D01*
X147478000Y-133353323D02*
X140522000Y-133353323D01*
X149040000Y-130272323D02*
X138960000Y-130272323D01*
X142759000Y-131393323D02*
X139232000Y-131393323D01*
X149073000Y-129912323D02*
X138927000Y-129912323D01*
X142759000Y-132193323D02*
X139605000Y-132193323D01*
X142759000Y-131433323D02*
X139246000Y-131433323D01*
X148907000Y-130953323D02*
X145241000Y-130953323D01*
X142759000Y-131233323D02*
X139176000Y-131233323D01*
X148897000Y-130993323D02*
X145241000Y-130993323D01*
X149080000Y-129712323D02*
X138920000Y-129712323D01*
X145230000Y-134593323D02*
X142770000Y-134593323D01*
X148298000Y-132353323D02*
X145241000Y-132353323D01*
X147858000Y-132953323D02*
X140142000Y-132953323D01*
X142759000Y-132073323D02*
X139538000Y-132073323D01*
X146889000Y-133833323D02*
X141111000Y-133833323D01*
X142759000Y-131153323D02*
X139150000Y-131153323D01*
X148974000Y-130673323D02*
X145241000Y-130673323D01*
X148723000Y-131513323D02*
X145241000Y-131513323D01*
X142759000Y-131713323D02*
X139361000Y-131713323D01*
X148525000Y-131953323D02*
X145241000Y-131953323D01*
X147054000Y-133713323D02*
X140946000Y-133713323D01*
X149080000Y-129632323D02*
X138920000Y-129632323D01*
X146875000Y-124152677D02*
X146875000Y-125152677D01*
X147561000Y-133273323D02*
X140439000Y-133273323D01*
X147206000Y-133593323D02*
X140794000Y-133593323D01*
X147392000Y-133433323D02*
X140608000Y-133433323D01*
X146125000Y-134273323D02*
X141875000Y-134273323D01*
X142759000Y-130913323D02*
X139082000Y-130913323D01*
X142759000Y-131753323D02*
X139379000Y-131753323D01*
X144862000Y-134673323D02*
X143138000Y-134673323D01*
X148371000Y-132233323D02*
X145241000Y-132233323D01*
X142759000Y-132353323D02*
X139702000Y-132353323D01*
X147000000Y-133753323D02*
X141000000Y-133753323D01*
X147436000Y-133393323D02*
X140564000Y-133393323D01*
X147892000Y-132913323D02*
X140108000Y-132913323D01*
X148956000Y-130753323D02*
X145241000Y-130753323D01*
X148707000Y-131553323D02*
X145241000Y-131553323D01*
X148273000Y-132393323D02*
X145241000Y-132393323D01*
X145944000Y-134353323D02*
X142056000Y-134353323D01*
X142759000Y-132033323D02*
X139517000Y-132033323D01*
X148247000Y-132433323D02*
X145241000Y-132433323D01*
X148928000Y-130873323D02*
X145241000Y-130873323D01*
X146439000Y-134113323D02*
X141561000Y-134113323D01*
X142759000Y-131313323D02*
X139203000Y-131313323D01*
X142759000Y-131673323D02*
X139343000Y-131673323D01*
X147679000Y-133153323D02*
X140321000Y-133153323D01*
X145846000Y-134393323D02*
X142154000Y-134393323D01*
X142759000Y-132753323D02*
X139980000Y-132753323D01*
X148768000Y-131393323D02*
X145241000Y-131393323D01*
X142759000Y-130312323D02*
X138965000Y-130312323D01*
X148674000Y-131633323D02*
X145241000Y-131633323D01*
X148783000Y-131353323D02*
X145241000Y-131353323D01*
X148982000Y-130633323D02*
X145241000Y-130633323D01*
X142759000Y-130673323D02*
X139026000Y-130673323D01*
X148440000Y-132113323D02*
X145241000Y-132113323D01*
X142759000Y-131593323D02*
X139310000Y-131593323D01*
X146945000Y-133793323D02*
X141055000Y-133793323D01*
X148885000Y-131033323D02*
X145241000Y-131033323D01*
X142759000Y-131793323D02*
X139397000Y-131793323D01*
X142759000Y-131353323D02*
X139217000Y-131353323D01*
X148850000Y-131153323D02*
X145241000Y-131153323D01*
X148417000Y-132153323D02*
X145241000Y-132153323D01*
X148824000Y-131233323D02*
X145241000Y-131233323D01*
X148483000Y-132033323D02*
X145241000Y-132033323D01*
X145742000Y-134433323D02*
X142258000Y-134433323D01*
X147957000Y-132833323D02*
X140043000Y-132833323D01*
X142759000Y-132473323D02*
X139779000Y-132473323D01*
X148965000Y-130713323D02*
X145241000Y-130713323D01*
X148990000Y-130593323D02*
X145241000Y-130593323D01*
X148918000Y-130913323D02*
X145241000Y-130913323D01*
X149050000Y-130192323D02*
X138950000Y-130192323D01*
X147753000Y-133073323D02*
X140247000Y-133073323D01*
X148690000Y-131593323D02*
X145241000Y-131593323D01*
X148138000Y-132593323D02*
X145241000Y-132593323D01*
X142759000Y-132593323D02*
X139862000Y-132593323D01*
X142759000Y-132393323D02*
X139727000Y-132393323D01*
X148947000Y-130793323D02*
X145241000Y-130793323D01*
X142759000Y-132233323D02*
X139629000Y-132233323D01*
X142759000Y-132633323D02*
X139890000Y-132633323D01*
X142759000Y-130473323D02*
X138989000Y-130473323D01*
X147824000Y-132993323D02*
X140176000Y-132993323D01*
X148050000Y-132713323D02*
X145241000Y-132713323D01*
X148564000Y-131873323D02*
X145241000Y-131873323D01*
X149120000Y-129632323D02*
G75*
G03*
X149120000Y-129632323I-5120000J0D01*
G01*
%TO.C,C9*%
X104894000Y-125826677D02*
X111106000Y-125826677D01*
X103980000Y-126746677D02*
X106759000Y-126746677D01*
X109241000Y-127066677D02*
X112247000Y-127066677D01*
X102955000Y-129267677D02*
X113045000Y-129267677D01*
X109241000Y-127226677D02*
X112347000Y-127226677D01*
X109241000Y-127626677D02*
X112564000Y-127626677D01*
X103003000Y-128946677D02*
X106759000Y-128946677D01*
X103416000Y-127666677D02*
X106759000Y-127666677D01*
X103605000Y-127306677D02*
X106759000Y-127306677D01*
X102965000Y-129187677D02*
X106759000Y-129187677D01*
X104653000Y-126026677D02*
X111347000Y-126026677D01*
X109241000Y-128866677D02*
X112982000Y-128866677D01*
X105421000Y-125466677D02*
X110579000Y-125466677D01*
X109241000Y-127546677D02*
X112525000Y-127546677D01*
X109241000Y-127666677D02*
X112584000Y-127666677D01*
X102976000Y-129106677D02*
X106759000Y-129106677D01*
X103246000Y-128066677D02*
X106759000Y-128066677D01*
X102922000Y-129707677D02*
X113078000Y-129707677D01*
X105635000Y-125346677D02*
X110365000Y-125346677D01*
X102935000Y-129467677D02*
X113065000Y-129467677D01*
X109241000Y-129106677D02*
X113024000Y-129106677D01*
X109241000Y-126826677D02*
X112080000Y-126826677D01*
X104699000Y-125986677D02*
X111301000Y-125986677D01*
X103806000Y-126986677D02*
X106759000Y-126986677D01*
X103834000Y-126946677D02*
X106759000Y-126946677D01*
X104844000Y-125866677D02*
X111156000Y-125866677D01*
X109241000Y-127386677D02*
X112440000Y-127386677D01*
X103262000Y-128026677D02*
X106759000Y-128026677D01*
X104625000Y-134847323D02*
X105625000Y-134847323D01*
X104480000Y-126186677D02*
X111520000Y-126186677D01*
X109241000Y-127946677D02*
X112707000Y-127946677D01*
X102946000Y-129347677D02*
X113054000Y-129347677D01*
X109241000Y-127866677D02*
X112674000Y-127866677D01*
X109241000Y-128226677D02*
X112811000Y-128226677D01*
X109241000Y-128026677D02*
X112738000Y-128026677D01*
X103890000Y-126866677D02*
X106759000Y-126866677D01*
X109241000Y-128546677D02*
X112907000Y-128546677D01*
X103496000Y-127506677D02*
X106759000Y-127506677D01*
X106622000Y-124946677D02*
X109378000Y-124946677D01*
X109241000Y-127586677D02*
X112545000Y-127586677D01*
X109241000Y-126786677D02*
X112050000Y-126786677D01*
X109241000Y-128986677D02*
X113004000Y-128986677D01*
X103920000Y-126826677D02*
X106759000Y-126826677D01*
X104746000Y-125946677D02*
X111254000Y-125946677D01*
X102982000Y-129066677D02*
X106759000Y-129066677D01*
X103126000Y-128426677D02*
X106759000Y-128426677D01*
X102925000Y-129627677D02*
X113075000Y-129627677D01*
X105355000Y-125506677D02*
X110645000Y-125506677D01*
X102930000Y-129547677D02*
X113070000Y-129547677D01*
X105170000Y-125626677D02*
X110830000Y-125626677D01*
X109241000Y-128906677D02*
X112990000Y-128906677D01*
X109241000Y-128626677D02*
X112928000Y-128626677D01*
X109241000Y-126986677D02*
X112194000Y-126986677D01*
X103062000Y-128666677D02*
X106759000Y-128666677D01*
X105963000Y-125186677D02*
X110037000Y-125186677D01*
X102938000Y-129427677D02*
X113062000Y-129427677D01*
X109241000Y-128746677D02*
X112956000Y-128746677D01*
X102970000Y-129146677D02*
X106759000Y-129146677D01*
X105490000Y-125426677D02*
X110510000Y-125426677D01*
X109241000Y-128386677D02*
X112862000Y-128386677D01*
X105711000Y-125306677D02*
X110289000Y-125306677D01*
X103538000Y-127426677D02*
X106759000Y-127426677D01*
X102942000Y-129387677D02*
X113058000Y-129387677D01*
X103138000Y-128386677D02*
X106759000Y-128386677D01*
X109241000Y-129066677D02*
X113018000Y-129066677D01*
X106370000Y-125026677D02*
X109630000Y-125026677D01*
X102932000Y-129507677D02*
X113068000Y-129507677D01*
X109241000Y-127986677D02*
X112723000Y-127986677D01*
X109241000Y-128466677D02*
X112885000Y-128466677D01*
X102989000Y-129026677D02*
X106759000Y-129026677D01*
X104075000Y-126626677D02*
X111925000Y-126626677D01*
X104399000Y-126266677D02*
X111601000Y-126266677D01*
X109241000Y-127506677D02*
X112504000Y-127506677D01*
X109241000Y-128946677D02*
X112997000Y-128946677D01*
X109241000Y-128786677D02*
X112965000Y-128786677D01*
X104011000Y-126706677D02*
X111989000Y-126706677D01*
X109241000Y-128426677D02*
X112874000Y-128426677D01*
X103361000Y-127786677D02*
X106759000Y-127786677D01*
X109241000Y-129146677D02*
X113030000Y-129146677D01*
X103779000Y-127026677D02*
X106759000Y-127026677D01*
X103455000Y-127586677D02*
X106759000Y-127586677D01*
X104211000Y-126466677D02*
X111789000Y-126466677D01*
X103163000Y-128306677D02*
X106759000Y-128306677D01*
X109241000Y-128706677D02*
X112947000Y-128706677D01*
X105230000Y-125586677D02*
X110770000Y-125586677D01*
X102920000Y-129827677D02*
X113080000Y-129827677D01*
X103397000Y-127706677D02*
X106759000Y-127706677D01*
X109241000Y-126946677D02*
X112166000Y-126946677D01*
X109241000Y-127186677D02*
X112323000Y-127186677D01*
X109241000Y-128306677D02*
X112837000Y-128306677D01*
X103343000Y-127826677D02*
X106759000Y-127826677D01*
X103653000Y-127226677D02*
X106759000Y-127226677D01*
X102921000Y-129747677D02*
X113079000Y-129747677D01*
X103677000Y-127186677D02*
X106759000Y-127186677D01*
X103203000Y-128186677D02*
X106759000Y-128186677D01*
X103189000Y-128226677D02*
X106759000Y-128226677D01*
X106490000Y-124986677D02*
X109510000Y-124986677D01*
X106938000Y-124866677D02*
X109062000Y-124866677D01*
X102923000Y-129667677D02*
X113077000Y-129667677D01*
X107401000Y-124786677D02*
X108599000Y-124786677D01*
X109241000Y-128666677D02*
X112938000Y-128666677D01*
X104284000Y-126386677D02*
X111716000Y-126386677D01*
X109241000Y-128506677D02*
X112897000Y-128506677D01*
X105291000Y-125546677D02*
X110709000Y-125546677D01*
X102996000Y-128986677D02*
X106759000Y-128986677D01*
X109241000Y-127346677D02*
X112417000Y-127346677D01*
X104360000Y-126306677D02*
X111640000Y-126306677D01*
X103379000Y-127746677D02*
X106759000Y-127746677D01*
X105791000Y-125266677D02*
X110209000Y-125266677D01*
X104522000Y-126146677D02*
X111478000Y-126146677D01*
X102960000Y-129227677D02*
X113040000Y-129227677D01*
X109241000Y-128106677D02*
X112768000Y-128106677D01*
X102927000Y-129587677D02*
X113073000Y-129587677D01*
X109241000Y-127306677D02*
X112395000Y-127306677D01*
X109241000Y-128066677D02*
X112754000Y-128066677D01*
X103093000Y-128546677D02*
X106759000Y-128546677D01*
X109241000Y-128266677D02*
X112824000Y-128266677D01*
X103103000Y-128506677D02*
X106759000Y-128506677D01*
X102920000Y-129787677D02*
X113080000Y-129787677D01*
X106770000Y-124906677D02*
X109230000Y-124906677D01*
X103702000Y-127146677D02*
X106759000Y-127146677D01*
X104142000Y-126546677D02*
X111858000Y-126546677D01*
X109241000Y-127426677D02*
X112462000Y-127426677D01*
X105111000Y-125666677D02*
X110889000Y-125666677D01*
X109241000Y-128346677D02*
X112850000Y-128346677D01*
X103026000Y-128826677D02*
X106759000Y-128826677D01*
X103277000Y-127986677D02*
X106759000Y-127986677D01*
X109241000Y-127786677D02*
X112639000Y-127786677D01*
X103475000Y-127546677D02*
X106759000Y-127546677D01*
X104946000Y-125786677D02*
X111054000Y-125786677D01*
X102920000Y-129867677D02*
X113080000Y-129867677D01*
X105125000Y-135347323D02*
X105125000Y-134347323D01*
X104439000Y-126226677D02*
X111561000Y-126226677D01*
X104794000Y-125906677D02*
X111206000Y-125906677D01*
X104608000Y-126066677D02*
X111392000Y-126066677D01*
X105875000Y-125226677D02*
X110125000Y-125226677D01*
X109241000Y-128586677D02*
X112918000Y-128586677D01*
X109241000Y-127746677D02*
X112621000Y-127746677D01*
X107138000Y-124826677D02*
X108862000Y-124826677D01*
X103629000Y-127266677D02*
X106759000Y-127266677D01*
X109241000Y-127146677D02*
X112298000Y-127146677D01*
X105000000Y-125746677D02*
X111000000Y-125746677D01*
X104564000Y-126106677D02*
X111436000Y-126106677D01*
X104108000Y-126586677D02*
X111892000Y-126586677D01*
X103044000Y-128746677D02*
X106759000Y-128746677D01*
X103293000Y-127946677D02*
X106759000Y-127946677D01*
X103727000Y-127106677D02*
X106759000Y-127106677D01*
X106056000Y-125146677D02*
X109944000Y-125146677D01*
X109241000Y-127466677D02*
X112483000Y-127466677D01*
X103753000Y-127066677D02*
X106759000Y-127066677D01*
X103072000Y-128626677D02*
X106759000Y-128626677D01*
X105561000Y-125386677D02*
X110439000Y-125386677D01*
X109241000Y-128186677D02*
X112797000Y-128186677D01*
X109241000Y-127826677D02*
X112657000Y-127826677D01*
X104321000Y-126346677D02*
X111679000Y-126346677D01*
X106154000Y-125106677D02*
X109846000Y-125106677D01*
X109241000Y-126746677D02*
X112020000Y-126746677D01*
X103232000Y-128106677D02*
X106759000Y-128106677D01*
X109241000Y-129187677D02*
X113035000Y-129187677D01*
X103326000Y-127866677D02*
X106759000Y-127866677D01*
X103217000Y-128146677D02*
X106759000Y-128146677D01*
X103018000Y-128866677D02*
X106759000Y-128866677D01*
X109241000Y-128826677D02*
X112974000Y-128826677D01*
X103560000Y-127386677D02*
X106759000Y-127386677D01*
X109241000Y-127906677D02*
X112690000Y-127906677D01*
X105055000Y-125706677D02*
X110945000Y-125706677D01*
X103115000Y-128466677D02*
X106759000Y-128466677D01*
X109241000Y-127706677D02*
X112603000Y-127706677D01*
X109241000Y-128146677D02*
X112783000Y-128146677D01*
X103150000Y-128346677D02*
X106759000Y-128346677D01*
X103583000Y-127346677D02*
X106759000Y-127346677D01*
X103176000Y-128266677D02*
X106759000Y-128266677D01*
X103517000Y-127466677D02*
X106759000Y-127466677D01*
X106258000Y-125066677D02*
X109742000Y-125066677D01*
X104043000Y-126666677D02*
X111957000Y-126666677D01*
X109241000Y-127026677D02*
X112221000Y-127026677D01*
X103035000Y-128786677D02*
X106759000Y-128786677D01*
X103010000Y-128906677D02*
X106759000Y-128906677D01*
X103082000Y-128586677D02*
X106759000Y-128586677D01*
X102950000Y-129307677D02*
X113050000Y-129307677D01*
X104247000Y-126426677D02*
X111753000Y-126426677D01*
X103310000Y-127906677D02*
X106759000Y-127906677D01*
X103862000Y-126906677D02*
X106759000Y-126906677D01*
X109241000Y-126906677D02*
X112138000Y-126906677D01*
X109241000Y-127106677D02*
X112273000Y-127106677D01*
X103053000Y-128706677D02*
X106759000Y-128706677D01*
X109241000Y-127266677D02*
X112371000Y-127266677D01*
X109241000Y-126866677D02*
X112110000Y-126866677D01*
X109241000Y-129026677D02*
X113011000Y-129026677D01*
X104176000Y-126506677D02*
X111824000Y-126506677D01*
X103950000Y-126786677D02*
X106759000Y-126786677D01*
X103436000Y-127626677D02*
X106759000Y-127626677D01*
X113120000Y-129867677D02*
G75*
G03*
X113120000Y-129867677I-5120000J0D01*
G01*
%TO.C,C8*%
X107809000Y-102960000D02*
X107809000Y-100053000D01*
X104969000Y-105346000D02*
X104969000Y-102654000D01*
X106129000Y-107055000D02*
X106129000Y-105040000D01*
X105169000Y-105813000D02*
X105169000Y-102187000D01*
X108170000Y-108024000D02*
X108170000Y-99976000D01*
X106529000Y-102960000D02*
X106529000Y-100635000D01*
X107689000Y-107914000D02*
X107689000Y-105040000D01*
X106089000Y-107019000D02*
X106089000Y-105040000D01*
X105729000Y-106651000D02*
X105729000Y-101349000D01*
X108129000Y-108017000D02*
X108129000Y-99983000D01*
X107569000Y-107877000D02*
X107569000Y-105040000D01*
X106769000Y-102960000D02*
X106769000Y-100483000D01*
X108009000Y-107994000D02*
X108009000Y-100006000D01*
X107969000Y-107985000D02*
X107969000Y-105040000D01*
X106449000Y-107309000D02*
X106449000Y-105040000D01*
X106289000Y-102960000D02*
X106289000Y-100811000D01*
X106129000Y-102960000D02*
X106129000Y-100945000D01*
X107769000Y-107936000D02*
X107769000Y-105040000D01*
X106049000Y-102960000D02*
X106049000Y-101017000D01*
X106729000Y-102960000D02*
X106729000Y-100507000D01*
X107129000Y-102960000D02*
X107129000Y-100296000D01*
X107409000Y-107821000D02*
X107409000Y-105040000D01*
X105889000Y-106826000D02*
X105889000Y-101174000D01*
X107689000Y-102960000D02*
X107689000Y-100086000D01*
X108810000Y-108080000D02*
X108810000Y-99920000D01*
X105369000Y-106166000D02*
X105369000Y-101834000D01*
X106329000Y-107220000D02*
X106329000Y-105040000D01*
X106649000Y-107444000D02*
X106649000Y-105040000D01*
X107649000Y-102960000D02*
X107649000Y-100098000D01*
X107209000Y-107740000D02*
X107209000Y-105040000D01*
X107449000Y-102960000D02*
X107449000Y-100165000D01*
X107289000Y-102960000D02*
X107289000Y-100226000D01*
X106729000Y-107493000D02*
X106729000Y-105040000D01*
X108049000Y-108002000D02*
X108049000Y-99998000D01*
X108570000Y-108071000D02*
X108570000Y-99929000D01*
X106369000Y-107250000D02*
X106369000Y-105040000D01*
X104809000Y-104768000D02*
X104809000Y-103232000D01*
X105089000Y-105645000D02*
X105089000Y-102355000D01*
X108250000Y-108037000D02*
X108250000Y-99963000D01*
X106809000Y-102960000D02*
X106809000Y-100460000D01*
X106009000Y-102960000D02*
X106009000Y-101055000D01*
X107889000Y-102960000D02*
X107889000Y-100033000D01*
X105649000Y-106556000D02*
X105649000Y-101444000D01*
X108089000Y-108010000D02*
X108089000Y-99990000D01*
X107369000Y-107805000D02*
X107369000Y-105040000D01*
X105289000Y-106034000D02*
X105289000Y-101966000D01*
X107089000Y-107686000D02*
X107089000Y-105040000D01*
X107209000Y-102960000D02*
X107209000Y-100260000D01*
X107009000Y-102960000D02*
X107009000Y-100353000D01*
X104769000Y-104533000D02*
X104769000Y-103467000D01*
X106249000Y-107156000D02*
X106249000Y-105040000D01*
X106569000Y-107392000D02*
X106569000Y-105040000D01*
X106969000Y-107627000D02*
X106969000Y-105040000D01*
X108410000Y-108057000D02*
X108410000Y-99943000D01*
X105329000Y-106102000D02*
X105329000Y-101898000D01*
X106489000Y-107338000D02*
X106489000Y-105040000D01*
X112859698Y-106715000D02*
X112859698Y-105915000D01*
X107889000Y-107967000D02*
X107889000Y-105040000D01*
X107929000Y-102960000D02*
X107929000Y-100024000D01*
X106889000Y-107584000D02*
X106889000Y-105040000D01*
X107609000Y-107889000D02*
X107609000Y-105040000D01*
X105569000Y-106454000D02*
X105569000Y-101546000D01*
X108610000Y-108074000D02*
X108610000Y-99926000D01*
X106169000Y-102960000D02*
X106169000Y-100910000D01*
X106649000Y-102960000D02*
X106649000Y-100556000D01*
X107249000Y-107757000D02*
X107249000Y-105040000D01*
X106529000Y-107365000D02*
X106529000Y-105040000D01*
X107289000Y-107774000D02*
X107289000Y-105040000D01*
X105529000Y-106400000D02*
X105529000Y-101600000D01*
X106889000Y-102960000D02*
X106889000Y-100416000D01*
X107489000Y-107850000D02*
X107489000Y-105040000D01*
X107849000Y-107957000D02*
X107849000Y-105040000D01*
X106769000Y-107517000D02*
X106769000Y-105040000D01*
X113259698Y-106315000D02*
X112459698Y-106315000D01*
X107329000Y-102960000D02*
X107329000Y-100210000D01*
X106569000Y-102960000D02*
X106569000Y-100608000D01*
X106689000Y-107469000D02*
X106689000Y-105040000D01*
X106489000Y-102960000D02*
X106489000Y-100662000D01*
X108530000Y-108068000D02*
X108530000Y-99932000D01*
X105849000Y-106784000D02*
X105849000Y-101216000D01*
X105049000Y-105552000D02*
X105049000Y-102448000D01*
X105929000Y-106867000D02*
X105929000Y-105040000D01*
X106929000Y-102960000D02*
X106929000Y-100394000D01*
X105809000Y-106741000D02*
X105809000Y-101259000D01*
X108490000Y-108065000D02*
X108490000Y-99935000D01*
X107649000Y-107902000D02*
X107649000Y-105040000D01*
X105209000Y-105890000D02*
X105209000Y-102110000D01*
X105449000Y-106287000D02*
X105449000Y-101713000D01*
X106449000Y-102960000D02*
X106449000Y-100691000D01*
X105409000Y-106228000D02*
X105409000Y-101772000D01*
X104849000Y-104948000D02*
X104849000Y-103052000D01*
X108290000Y-108042000D02*
X108290000Y-99958000D01*
X106289000Y-107189000D02*
X106289000Y-105040000D01*
X106169000Y-107090000D02*
X106169000Y-105040000D01*
X108770000Y-108080000D02*
X108770000Y-99920000D01*
X104889000Y-105098000D02*
X104889000Y-102902000D01*
X107329000Y-107790000D02*
X107329000Y-105040000D01*
X106609000Y-107418000D02*
X106609000Y-105040000D01*
X106049000Y-106983000D02*
X106049000Y-105040000D01*
X106809000Y-107540000D02*
X106809000Y-105040000D01*
X105769000Y-106697000D02*
X105769000Y-101303000D01*
X106009000Y-106945000D02*
X106009000Y-105040000D01*
X107929000Y-107976000D02*
X107929000Y-105040000D01*
X106209000Y-102960000D02*
X106209000Y-100876000D01*
X105249000Y-105964000D02*
X105249000Y-102036000D01*
X107849000Y-102960000D02*
X107849000Y-100043000D01*
X107129000Y-107704000D02*
X107129000Y-105040000D01*
X108650000Y-108076000D02*
X108650000Y-99924000D01*
X107769000Y-102960000D02*
X107769000Y-100064000D01*
X107609000Y-102960000D02*
X107609000Y-100111000D01*
X105009000Y-105453000D02*
X105009000Y-102547000D01*
X107249000Y-102960000D02*
X107249000Y-100243000D01*
X106089000Y-102960000D02*
X106089000Y-100981000D01*
X108450000Y-108061000D02*
X108450000Y-99939000D01*
X107969000Y-102960000D02*
X107969000Y-100015000D01*
X106209000Y-107124000D02*
X106209000Y-105040000D01*
X108370000Y-108052000D02*
X108370000Y-99948000D01*
X105129000Y-105731000D02*
X105129000Y-102269000D01*
X106409000Y-102960000D02*
X106409000Y-100720000D01*
X107169000Y-107722000D02*
X107169000Y-105040000D01*
X107449000Y-107835000D02*
X107449000Y-105040000D01*
X106689000Y-102960000D02*
X106689000Y-100531000D01*
X105609000Y-106505000D02*
X105609000Y-101495000D01*
X105489000Y-106345000D02*
X105489000Y-101655000D01*
X108730000Y-108079000D02*
X108730000Y-99921000D01*
X107809000Y-107947000D02*
X107809000Y-105040000D01*
X107489000Y-102960000D02*
X107489000Y-100150000D01*
X106409000Y-107280000D02*
X106409000Y-105040000D01*
X106609000Y-102960000D02*
X106609000Y-100582000D01*
X106929000Y-107606000D02*
X106929000Y-105040000D01*
X107569000Y-102960000D02*
X107569000Y-100123000D01*
X107529000Y-102960000D02*
X107529000Y-100137000D01*
X107169000Y-102960000D02*
X107169000Y-100278000D01*
X106849000Y-107562000D02*
X106849000Y-105040000D01*
X107369000Y-102960000D02*
X107369000Y-100195000D01*
X108210000Y-108030000D02*
X108210000Y-99970000D01*
X106369000Y-102960000D02*
X106369000Y-100750000D01*
X107729000Y-102960000D02*
X107729000Y-100075000D01*
X108850000Y-108080000D02*
X108850000Y-99920000D01*
X105969000Y-102960000D02*
X105969000Y-101093000D01*
X106969000Y-102960000D02*
X106969000Y-100373000D01*
X105929000Y-102960000D02*
X105929000Y-101133000D01*
X105689000Y-106604000D02*
X105689000Y-101396000D01*
X108330000Y-108048000D02*
X108330000Y-99952000D01*
X107089000Y-102960000D02*
X107089000Y-100314000D01*
X107049000Y-107666000D02*
X107049000Y-105040000D01*
X107009000Y-107647000D02*
X107009000Y-105040000D01*
X107409000Y-102960000D02*
X107409000Y-100179000D01*
X106249000Y-102960000D02*
X106249000Y-100844000D01*
X107729000Y-107925000D02*
X107729000Y-105040000D01*
X105969000Y-106907000D02*
X105969000Y-105040000D01*
X108690000Y-108077000D02*
X108690000Y-99923000D01*
X104929000Y-105229000D02*
X104929000Y-102771000D01*
X106329000Y-102960000D02*
X106329000Y-100780000D01*
X107049000Y-102960000D02*
X107049000Y-100334000D01*
X107529000Y-107863000D02*
X107529000Y-105040000D01*
X106849000Y-102960000D02*
X106849000Y-100438000D01*
X112970000Y-104000000D02*
G75*
G03*
X112970000Y-104000000I-4120000J0D01*
G01*
%TO.C,C7*%
X130220000Y-113000000D02*
G75*
G03*
X130220000Y-113000000I-4120000J0D01*
G01*
X124099000Y-111960000D02*
X124099000Y-109438000D01*
X124779000Y-116863000D02*
X124779000Y-114040000D01*
X124299000Y-111960000D02*
X124299000Y-109334000D01*
X123579000Y-111960000D02*
X123579000Y-109780000D01*
X122179000Y-114229000D02*
X122179000Y-111771000D01*
X125940000Y-117077000D02*
X125940000Y-108923000D01*
X123219000Y-115907000D02*
X123219000Y-114040000D01*
X124979000Y-116925000D02*
X124979000Y-114040000D01*
X123499000Y-111960000D02*
X123499000Y-109844000D01*
X124659000Y-111960000D02*
X124659000Y-109179000D01*
X124259000Y-116647000D02*
X124259000Y-114040000D01*
X124299000Y-116666000D02*
X124299000Y-114040000D01*
X124339000Y-111960000D02*
X124339000Y-109314000D01*
X125580000Y-117048000D02*
X125580000Y-108952000D01*
X122939000Y-115604000D02*
X122939000Y-110396000D01*
X123179000Y-111960000D02*
X123179000Y-110133000D01*
X124219000Y-111960000D02*
X124219000Y-109373000D01*
X123219000Y-111960000D02*
X123219000Y-110093000D01*
X126100000Y-117080000D02*
X126100000Y-108920000D01*
X124979000Y-111960000D02*
X124979000Y-109075000D01*
X123619000Y-111960000D02*
X123619000Y-109750000D01*
X125460000Y-117030000D02*
X125460000Y-108970000D01*
X124619000Y-111960000D02*
X124619000Y-109195000D01*
X124099000Y-116562000D02*
X124099000Y-114040000D01*
X124419000Y-111960000D02*
X124419000Y-109278000D01*
X124779000Y-111960000D02*
X124779000Y-109137000D01*
X124819000Y-111960000D02*
X124819000Y-109123000D01*
X124179000Y-116606000D02*
X124179000Y-114040000D01*
X123859000Y-111960000D02*
X123859000Y-109582000D01*
X123659000Y-116280000D02*
X123659000Y-114040000D01*
X124739000Y-111960000D02*
X124739000Y-109150000D01*
X125059000Y-116947000D02*
X125059000Y-114040000D01*
X125980000Y-117079000D02*
X125980000Y-108921000D01*
X122739000Y-115345000D02*
X122739000Y-110655000D01*
X122859000Y-115505000D02*
X122859000Y-110495000D01*
X123939000Y-111960000D02*
X123939000Y-109531000D01*
X124699000Y-116835000D02*
X124699000Y-114040000D01*
X124419000Y-116722000D02*
X124419000Y-114040000D01*
X123659000Y-111960000D02*
X123659000Y-109720000D01*
X122379000Y-114731000D02*
X122379000Y-111269000D01*
X125620000Y-117052000D02*
X125620000Y-108948000D01*
X123459000Y-116124000D02*
X123459000Y-114040000D01*
X125219000Y-111960000D02*
X125219000Y-109015000D01*
X125700000Y-117061000D02*
X125700000Y-108939000D01*
X123339000Y-111960000D02*
X123339000Y-109981000D01*
X124499000Y-111960000D02*
X124499000Y-109243000D01*
X122259000Y-114453000D02*
X122259000Y-111547000D01*
X124859000Y-111960000D02*
X124859000Y-109111000D01*
X125019000Y-111960000D02*
X125019000Y-109064000D01*
X125900000Y-117076000D02*
X125900000Y-108924000D01*
X124379000Y-116704000D02*
X124379000Y-114040000D01*
X125099000Y-111960000D02*
X125099000Y-109043000D01*
X122499000Y-114964000D02*
X122499000Y-111036000D01*
X123459000Y-111960000D02*
X123459000Y-109876000D01*
X125179000Y-116976000D02*
X125179000Y-114040000D01*
X123259000Y-115945000D02*
X123259000Y-114040000D01*
X123019000Y-115697000D02*
X123019000Y-110303000D01*
X124059000Y-116540000D02*
X124059000Y-114040000D01*
X123299000Y-115983000D02*
X123299000Y-114040000D01*
X123859000Y-116418000D02*
X123859000Y-114040000D01*
X124579000Y-116790000D02*
X124579000Y-114040000D01*
X122139000Y-114098000D02*
X122139000Y-111902000D01*
X126020000Y-117080000D02*
X126020000Y-108920000D01*
X123419000Y-116090000D02*
X123419000Y-114040000D01*
X123539000Y-116189000D02*
X123539000Y-114040000D01*
X125540000Y-117042000D02*
X125540000Y-108958000D01*
X122099000Y-113948000D02*
X122099000Y-112052000D01*
X122659000Y-115228000D02*
X122659000Y-110772000D01*
X123699000Y-111960000D02*
X123699000Y-109691000D01*
X122699000Y-115287000D02*
X122699000Y-110713000D01*
X122459000Y-114890000D02*
X122459000Y-111110000D01*
X124899000Y-116902000D02*
X124899000Y-114040000D01*
X125740000Y-117065000D02*
X125740000Y-108935000D01*
X123059000Y-115741000D02*
X123059000Y-110259000D01*
X124179000Y-111960000D02*
X124179000Y-109394000D01*
X123179000Y-115867000D02*
X123179000Y-114040000D01*
X122299000Y-114552000D02*
X122299000Y-111448000D01*
X123099000Y-115784000D02*
X123099000Y-110216000D01*
X125780000Y-117068000D02*
X125780000Y-108932000D01*
X123739000Y-111960000D02*
X123739000Y-109662000D01*
X123939000Y-116469000D02*
X123939000Y-114040000D01*
X123819000Y-111960000D02*
X123819000Y-109608000D01*
X124579000Y-111960000D02*
X124579000Y-109210000D01*
X130509698Y-115315000D02*
X129709698Y-115315000D01*
X124019000Y-116517000D02*
X124019000Y-114040000D01*
X125099000Y-116957000D02*
X125099000Y-114040000D01*
X124739000Y-116850000D02*
X124739000Y-114040000D01*
X124139000Y-111960000D02*
X124139000Y-109416000D01*
X122779000Y-115400000D02*
X122779000Y-110600000D01*
X124539000Y-116774000D02*
X124539000Y-114040000D01*
X123779000Y-116365000D02*
X123779000Y-114040000D01*
X124499000Y-116757000D02*
X124499000Y-114040000D01*
X123899000Y-111960000D02*
X123899000Y-109556000D01*
X123419000Y-111960000D02*
X123419000Y-109910000D01*
X125860000Y-117074000D02*
X125860000Y-108926000D01*
X122819000Y-115454000D02*
X122819000Y-110546000D01*
X124859000Y-116889000D02*
X124859000Y-114040000D01*
X124139000Y-116584000D02*
X124139000Y-114040000D01*
X125179000Y-111960000D02*
X125179000Y-109024000D01*
X125139000Y-116967000D02*
X125139000Y-114040000D01*
X130109698Y-115715000D02*
X130109698Y-114915000D01*
X123739000Y-116338000D02*
X123739000Y-114040000D01*
X122579000Y-115102000D02*
X122579000Y-110898000D01*
X125660000Y-117057000D02*
X125660000Y-108943000D01*
X124219000Y-116627000D02*
X124219000Y-114040000D01*
X123819000Y-116392000D02*
X123819000Y-114040000D01*
X123499000Y-116156000D02*
X123499000Y-114040000D01*
X122019000Y-113533000D02*
X122019000Y-112467000D01*
X124259000Y-111960000D02*
X124259000Y-109353000D01*
X124459000Y-111960000D02*
X124459000Y-109260000D01*
X124339000Y-116686000D02*
X124339000Y-114040000D01*
X122539000Y-115034000D02*
X122539000Y-110966000D01*
X124619000Y-116805000D02*
X124619000Y-114040000D01*
X125339000Y-117010000D02*
X125339000Y-108990000D01*
X122899000Y-115556000D02*
X122899000Y-110444000D01*
X125139000Y-111960000D02*
X125139000Y-109033000D01*
X123259000Y-111960000D02*
X123259000Y-110055000D01*
X124059000Y-111960000D02*
X124059000Y-109460000D01*
X125500000Y-117037000D02*
X125500000Y-108963000D01*
X122339000Y-114645000D02*
X122339000Y-111355000D01*
X122059000Y-113768000D02*
X122059000Y-112232000D01*
X123619000Y-116250000D02*
X123619000Y-114040000D01*
X125820000Y-117071000D02*
X125820000Y-108929000D01*
X125299000Y-117002000D02*
X125299000Y-108998000D01*
X123979000Y-116493000D02*
X123979000Y-114040000D01*
X124539000Y-111960000D02*
X124539000Y-109226000D01*
X124699000Y-111960000D02*
X124699000Y-109165000D01*
X124459000Y-116740000D02*
X124459000Y-114040000D01*
X124899000Y-111960000D02*
X124899000Y-109098000D01*
X123899000Y-116444000D02*
X123899000Y-114040000D01*
X123579000Y-116220000D02*
X123579000Y-114040000D01*
X122619000Y-115166000D02*
X122619000Y-110834000D01*
X126060000Y-117080000D02*
X126060000Y-108920000D01*
X124939000Y-111960000D02*
X124939000Y-109086000D01*
X123139000Y-115826000D02*
X123139000Y-110174000D01*
X124659000Y-116821000D02*
X124659000Y-114040000D01*
X124379000Y-111960000D02*
X124379000Y-109296000D01*
X123979000Y-111960000D02*
X123979000Y-109507000D01*
X123299000Y-111960000D02*
X123299000Y-110017000D01*
X125019000Y-116936000D02*
X125019000Y-114040000D01*
X123379000Y-111960000D02*
X123379000Y-109945000D01*
X123539000Y-111960000D02*
X123539000Y-109811000D01*
X123699000Y-116309000D02*
X123699000Y-114040000D01*
X125219000Y-116985000D02*
X125219000Y-114040000D01*
X125259000Y-116994000D02*
X125259000Y-109006000D01*
X124019000Y-111960000D02*
X124019000Y-109483000D01*
X124819000Y-116877000D02*
X124819000Y-114040000D01*
X125379000Y-117017000D02*
X125379000Y-108983000D01*
X122979000Y-115651000D02*
X122979000Y-110349000D01*
X123339000Y-116019000D02*
X123339000Y-114040000D01*
X124939000Y-116914000D02*
X124939000Y-114040000D01*
X123779000Y-111960000D02*
X123779000Y-109635000D01*
X125420000Y-117024000D02*
X125420000Y-108976000D01*
X122419000Y-114813000D02*
X122419000Y-111187000D01*
X123379000Y-116055000D02*
X123379000Y-114040000D01*
X122219000Y-114346000D02*
X122219000Y-111654000D01*
X125059000Y-111960000D02*
X125059000Y-109053000D01*
%TO.C,C6*%
X142138349Y-103790000D02*
X142138349Y-106697000D01*
X144978349Y-101404000D02*
X144978349Y-104096000D01*
X143818349Y-99695000D02*
X143818349Y-101710000D01*
X144778349Y-100937000D02*
X144778349Y-104563000D01*
X141777349Y-98726000D02*
X141777349Y-106774000D01*
X143418349Y-103790000D02*
X143418349Y-106115000D01*
X142258349Y-98836000D02*
X142258349Y-101710000D01*
X143858349Y-99731000D02*
X143858349Y-101710000D01*
X144218349Y-100099000D02*
X144218349Y-105401000D01*
X141818349Y-98733000D02*
X141818349Y-106767000D01*
X142378349Y-98873000D02*
X142378349Y-101710000D01*
X143178349Y-103790000D02*
X143178349Y-106267000D01*
X141938349Y-98756000D02*
X141938349Y-106744000D01*
X141978349Y-98765000D02*
X141978349Y-101710000D01*
X143498349Y-99441000D02*
X143498349Y-101710000D01*
X143658349Y-103790000D02*
X143658349Y-105939000D01*
X143818349Y-103790000D02*
X143818349Y-105805000D01*
X142178349Y-98814000D02*
X142178349Y-101710000D01*
X143898349Y-103790000D02*
X143898349Y-105733000D01*
X143218349Y-103790000D02*
X143218349Y-106243000D01*
X142818349Y-103790000D02*
X142818349Y-106454000D01*
X142538349Y-98929000D02*
X142538349Y-101710000D01*
X144058349Y-99924000D02*
X144058349Y-105576000D01*
X142258349Y-103790000D02*
X142258349Y-106664000D01*
X141137349Y-98670000D02*
X141137349Y-106830000D01*
X144578349Y-100584000D02*
X144578349Y-104916000D01*
X143618349Y-99530000D02*
X143618349Y-101710000D01*
X143298349Y-99306000D02*
X143298349Y-101710000D01*
X142298349Y-103790000D02*
X142298349Y-106652000D01*
X142738349Y-99010000D02*
X142738349Y-101710000D01*
X142498349Y-103790000D02*
X142498349Y-106585000D01*
X142658349Y-103790000D02*
X142658349Y-106524000D01*
X143218349Y-99257000D02*
X143218349Y-101710000D01*
X141898349Y-98748000D02*
X141898349Y-106752000D01*
X141377349Y-98679000D02*
X141377349Y-106821000D01*
X143578349Y-99500000D02*
X143578349Y-101710000D01*
X145138349Y-101982000D02*
X145138349Y-103518000D01*
X144858349Y-101105000D02*
X144858349Y-104395000D01*
X141697349Y-98713000D02*
X141697349Y-106787000D01*
X143138349Y-103790000D02*
X143138349Y-106290000D01*
X143938349Y-103790000D02*
X143938349Y-105695000D01*
X142058349Y-103790000D02*
X142058349Y-106717000D01*
X144298349Y-100194000D02*
X144298349Y-105306000D01*
X141858349Y-98740000D02*
X141858349Y-106760000D01*
X142578349Y-98945000D02*
X142578349Y-101710000D01*
X144658349Y-100716000D02*
X144658349Y-104784000D01*
X142858349Y-99064000D02*
X142858349Y-101710000D01*
X142738349Y-103790000D02*
X142738349Y-106490000D01*
X142938349Y-103790000D02*
X142938349Y-106397000D01*
X145178349Y-102217000D02*
X145178349Y-103283000D01*
X143698349Y-99594000D02*
X143698349Y-101710000D01*
X143378349Y-99358000D02*
X143378349Y-101710000D01*
X142978349Y-99123000D02*
X142978349Y-101710000D01*
X141537349Y-98693000D02*
X141537349Y-106807000D01*
X144618349Y-100648000D02*
X144618349Y-104852000D01*
X143458349Y-99412000D02*
X143458349Y-101710000D01*
X137087651Y-100035000D02*
X137087651Y-100835000D01*
X142058349Y-98783000D02*
X142058349Y-101710000D01*
X142018349Y-103790000D02*
X142018349Y-106726000D01*
X143058349Y-99166000D02*
X143058349Y-101710000D01*
X142338349Y-98861000D02*
X142338349Y-101710000D01*
X144378349Y-100296000D02*
X144378349Y-105204000D01*
X141337349Y-98676000D02*
X141337349Y-106824000D01*
X143778349Y-103790000D02*
X143778349Y-105840000D01*
X143298349Y-103790000D02*
X143298349Y-106194000D01*
X142698349Y-98993000D02*
X142698349Y-101710000D01*
X143418349Y-99385000D02*
X143418349Y-101710000D01*
X142658349Y-98976000D02*
X142658349Y-101710000D01*
X144418349Y-100350000D02*
X144418349Y-105150000D01*
X143058349Y-103790000D02*
X143058349Y-106334000D01*
X142458349Y-98900000D02*
X142458349Y-101710000D01*
X142098349Y-98793000D02*
X142098349Y-101710000D01*
X143178349Y-99233000D02*
X143178349Y-101710000D01*
X136687651Y-100435000D02*
X137487651Y-100435000D01*
X142618349Y-103790000D02*
X142618349Y-106540000D01*
X143378349Y-103790000D02*
X143378349Y-106142000D01*
X143258349Y-99281000D02*
X143258349Y-101710000D01*
X143458349Y-103790000D02*
X143458349Y-106088000D01*
X141417349Y-98682000D02*
X141417349Y-106818000D01*
X144098349Y-99966000D02*
X144098349Y-105534000D01*
X144898349Y-101198000D02*
X144898349Y-104302000D01*
X144018349Y-99883000D02*
X144018349Y-101710000D01*
X143018349Y-103790000D02*
X143018349Y-106356000D01*
X144138349Y-100009000D02*
X144138349Y-105491000D01*
X141457349Y-98685000D02*
X141457349Y-106815000D01*
X142298349Y-98848000D02*
X142298349Y-101710000D01*
X144738349Y-100860000D02*
X144738349Y-104640000D01*
X144498349Y-100463000D02*
X144498349Y-105037000D01*
X143498349Y-103790000D02*
X143498349Y-106059000D01*
X144538349Y-100522000D02*
X144538349Y-104978000D01*
X145098349Y-101802000D02*
X145098349Y-103698000D01*
X141657349Y-98708000D02*
X141657349Y-106792000D01*
X143658349Y-99561000D02*
X143658349Y-101710000D01*
X143778349Y-99660000D02*
X143778349Y-101710000D01*
X141177349Y-98670000D02*
X141177349Y-106830000D01*
X145058349Y-101652000D02*
X145058349Y-103848000D01*
X142618349Y-98960000D02*
X142618349Y-101710000D01*
X143338349Y-99332000D02*
X143338349Y-101710000D01*
X143898349Y-99767000D02*
X143898349Y-101710000D01*
X143138349Y-99210000D02*
X143138349Y-101710000D01*
X144178349Y-100053000D02*
X144178349Y-105447000D01*
X143938349Y-99805000D02*
X143938349Y-101710000D01*
X142018349Y-98774000D02*
X142018349Y-101710000D01*
X143738349Y-103790000D02*
X143738349Y-105874000D01*
X144698349Y-100786000D02*
X144698349Y-104714000D01*
X142098349Y-103790000D02*
X142098349Y-106707000D01*
X142818349Y-99046000D02*
X142818349Y-101710000D01*
X141297349Y-98674000D02*
X141297349Y-106826000D01*
X142178349Y-103790000D02*
X142178349Y-106686000D01*
X142338349Y-103790000D02*
X142338349Y-106639000D01*
X144938349Y-101297000D02*
X144938349Y-104203000D01*
X142698349Y-103790000D02*
X142698349Y-106507000D01*
X143858349Y-103790000D02*
X143858349Y-105769000D01*
X141497349Y-98689000D02*
X141497349Y-106811000D01*
X141978349Y-103790000D02*
X141978349Y-106735000D01*
X143738349Y-99626000D02*
X143738349Y-101710000D01*
X141577349Y-98698000D02*
X141577349Y-106802000D01*
X144818349Y-101019000D02*
X144818349Y-104481000D01*
X143538349Y-103790000D02*
X143538349Y-106030000D01*
X142778349Y-99028000D02*
X142778349Y-101710000D01*
X142498349Y-98915000D02*
X142498349Y-101710000D01*
X143258349Y-103790000D02*
X143258349Y-106219000D01*
X144338349Y-100245000D02*
X144338349Y-105255000D01*
X144458349Y-100405000D02*
X144458349Y-105095000D01*
X141217349Y-98671000D02*
X141217349Y-106829000D01*
X142138349Y-98803000D02*
X142138349Y-101710000D01*
X142458349Y-103790000D02*
X142458349Y-106600000D01*
X143538349Y-99470000D02*
X143538349Y-101710000D01*
X143338349Y-103790000D02*
X143338349Y-106168000D01*
X143018349Y-99144000D02*
X143018349Y-101710000D01*
X142378349Y-103790000D02*
X142378349Y-106627000D01*
X142418349Y-103790000D02*
X142418349Y-106613000D01*
X142778349Y-103790000D02*
X142778349Y-106472000D01*
X143098349Y-99188000D02*
X143098349Y-101710000D01*
X142578349Y-103790000D02*
X142578349Y-106555000D01*
X141737349Y-98720000D02*
X141737349Y-106780000D01*
X143578349Y-103790000D02*
X143578349Y-106000000D01*
X142218349Y-103790000D02*
X142218349Y-106675000D01*
X141097349Y-98670000D02*
X141097349Y-106830000D01*
X143978349Y-103790000D02*
X143978349Y-105657000D01*
X142978349Y-103790000D02*
X142978349Y-106377000D01*
X144018349Y-103790000D02*
X144018349Y-105617000D01*
X144258349Y-100146000D02*
X144258349Y-105354000D01*
X141617349Y-98702000D02*
X141617349Y-106798000D01*
X142858349Y-103790000D02*
X142858349Y-106436000D01*
X142898349Y-99084000D02*
X142898349Y-101710000D01*
X142938349Y-99103000D02*
X142938349Y-101710000D01*
X142538349Y-103790000D02*
X142538349Y-106571000D01*
X143698349Y-103790000D02*
X143698349Y-105906000D01*
X142218349Y-98825000D02*
X142218349Y-101710000D01*
X143978349Y-99843000D02*
X143978349Y-101710000D01*
X141257349Y-98673000D02*
X141257349Y-106827000D01*
X145018349Y-101521000D02*
X145018349Y-103979000D01*
X143618349Y-103790000D02*
X143618349Y-105970000D01*
X142898349Y-103790000D02*
X142898349Y-106416000D01*
X142418349Y-98887000D02*
X142418349Y-101710000D01*
X143098349Y-103790000D02*
X143098349Y-106312000D01*
X145217349Y-102750000D02*
G75*
G03*
X145217349Y-102750000I-4120000J0D01*
G01*
%TO.C,C4*%
X106130000Y-96695000D02*
X106130000Y-96380000D01*
X111370000Y-99120000D02*
X106130000Y-99120000D01*
X111370000Y-96380000D02*
X106130000Y-96380000D01*
X106130000Y-99120000D02*
X106130000Y-98805000D01*
X111370000Y-96695000D02*
X111370000Y-96380000D01*
X111370000Y-99120000D02*
X111370000Y-98805000D01*
%TO.C,C3*%
X111620000Y-112055000D02*
X111620000Y-112370000D01*
X106380000Y-109630000D02*
X111620000Y-109630000D01*
X106380000Y-112370000D02*
X111620000Y-112370000D01*
X111620000Y-109630000D02*
X111620000Y-109945000D01*
X106380000Y-112055000D02*
X106380000Y-112370000D01*
X106380000Y-109630000D02*
X106380000Y-109945000D01*
%TO.C,C2*%
X123880000Y-104195000D02*
X123880000Y-103880000D01*
X129120000Y-106620000D02*
X123880000Y-106620000D01*
X129120000Y-103880000D02*
X123880000Y-103880000D01*
X123880000Y-106620000D02*
X123880000Y-106305000D01*
X129120000Y-104195000D02*
X129120000Y-103880000D01*
X129120000Y-106620000D02*
X129120000Y-106305000D01*
%TO.C,C1*%
X138630000Y-109445000D02*
X138630000Y-109130000D01*
X143870000Y-111870000D02*
X138630000Y-111870000D01*
X143870000Y-109130000D02*
X138630000Y-109130000D01*
X138630000Y-111870000D02*
X138630000Y-111555000D01*
X143870000Y-109445000D02*
X143870000Y-109130000D01*
X143870000Y-111870000D02*
X143870000Y-111555000D01*
%TO.C,U1*%
X125310000Y-83670000D02*
X124060000Y-83670000D01*
X128560000Y-101570000D02*
X128560000Y-83670000D01*
X128560000Y-83670000D02*
X127310000Y-83670000D01*
X124060000Y-83670000D02*
X124060000Y-101570000D01*
X124060000Y-101570000D02*
X128560000Y-101570000D01*
X125310000Y-83670000D02*
G75*
G03*
X127310000Y-83670000I1000000J0D01*
G01*
%TD*%
M02*
