%TF.GenerationSoftware,KiCad,Pcbnew,(6.0.7)*%
%TF.CreationDate,2023-01-26T16:05:42-05:00*%
%TF.ProjectId,PREAMP,50524541-4d50-42e6-9b69-6361645f7063,rev?*%
%TF.SameCoordinates,Original*%
%TF.FileFunction,Soldermask,Top*%
%TF.FilePolarity,Negative*%
%FSLAX46Y46*%
G04 Gerber Fmt 4.6, Leading zero omitted, Abs format (unit mm)*
G04 Created by KiCad (PCBNEW (6.0.7)) date 2023-01-26 16:05:42*
%MOMM*%
%LPD*%
G01*
G04 APERTURE LIST*
G04 Aperture macros list*
%AMRoundRect*
0 Rectangle with rounded corners*
0 $1 Rounding radius*
0 $2 $3 $4 $5 $6 $7 $8 $9 X,Y pos of 4 corners*
0 Add a 4 corners polygon primitive as box body*
4,1,4,$2,$3,$4,$5,$6,$7,$8,$9,$2,$3,0*
0 Add four circle primitives for the rounded corners*
1,1,$1+$1,$2,$3*
1,1,$1+$1,$4,$5*
1,1,$1+$1,$6,$7*
1,1,$1+$1,$8,$9*
0 Add four rect primitives between the rounded corners*
20,1,$1+$1,$2,$3,$4,$5,0*
20,1,$1+$1,$4,$5,$6,$7,0*
20,1,$1+$1,$6,$7,$8,$9,0*
20,1,$1+$1,$8,$9,$2,$3,0*%
G04 Aperture macros list end*
%ADD10C,1.600000*%
%ADD11O,1.600000X1.600000*%
%ADD12RoundRect,0.250000X-0.620000X-0.620000X0.620000X-0.620000X0.620000X0.620000X-0.620000X0.620000X0*%
%ADD13C,1.740000*%
%ADD14R,1.600000X1.600000*%
%ADD15C,5.600000*%
%ADD16R,1.700000X1.700000*%
%ADD17O,1.700000X1.700000*%
%ADD18RoundRect,0.250000X-0.600000X0.600000X-0.600000X-0.600000X0.600000X-0.600000X0.600000X0.600000X0*%
%ADD19C,1.700000*%
%ADD20R,2.200000X2.200000*%
%ADD21O,2.200000X2.200000*%
%ADD22R,1.800000X1.800000*%
%ADD23C,1.800000*%
%ADD24R,2.000000X2.000000*%
%ADD25C,2.000000*%
%ADD26R,2.400000X1.600000*%
%ADD27O,2.400000X1.600000*%
G04 APERTURE END LIST*
D10*
%TO.C,R11*%
X122500000Y-59000000D03*
D11*
X130120000Y-59000000D03*
%TD*%
D10*
%TO.C,R5*%
X130060000Y-55250000D03*
D11*
X122440000Y-55250000D03*
%TD*%
D12*
%TO.C,J8*%
X107980000Y-51750000D03*
D13*
X110520000Y-51750000D03*
%TD*%
D10*
%TO.C,C5*%
X124200000Y-66000000D03*
D14*
X128000000Y-66000000D03*
%TD*%
D15*
%TO.C,H4*%
X144920000Y-148500000D03*
%TD*%
%TO.C,H3*%
X105080000Y-148500000D03*
%TD*%
%TO.C,H2*%
X144920000Y-43500000D03*
%TD*%
%TO.C,H1*%
X105080000Y-43500000D03*
%TD*%
D12*
%TO.C,S1*%
X141500000Y-54000000D03*
D13*
X144040000Y-54000000D03*
%TD*%
D10*
%TO.C,R10*%
X137440000Y-96250000D03*
D11*
X145060000Y-96250000D03*
%TD*%
D10*
%TO.C,R9*%
X113000000Y-77000000D03*
D11*
X105380000Y-77000000D03*
%TD*%
D10*
%TO.C,R8*%
X112810000Y-94250000D03*
D11*
X105190000Y-94250000D03*
%TD*%
D12*
%TO.C,R7*%
X140000000Y-65000000D03*
D13*
X142540000Y-65000000D03*
X145080000Y-65000000D03*
%TD*%
D12*
%TO.C,R6*%
X107000000Y-65250000D03*
D13*
X109540000Y-65250000D03*
X112080000Y-65250000D03*
%TD*%
D10*
%TO.C,R4*%
X122440000Y-79000000D03*
D11*
X130060000Y-79000000D03*
%TD*%
D10*
%TO.C,R3*%
X122440000Y-75000000D03*
D11*
X130060000Y-75000000D03*
%TD*%
D10*
%TO.C,R2*%
X105380000Y-73000000D03*
D11*
X113000000Y-73000000D03*
%TD*%
D10*
%TO.C,R1*%
X105190000Y-90000000D03*
D11*
X112810000Y-90000000D03*
%TD*%
D16*
%TO.C,JP1*%
X107460000Y-59750000D03*
D17*
X110000000Y-59750000D03*
%TD*%
D12*
%TO.C,J7*%
X122710000Y-122500000D03*
D13*
X125250000Y-122500000D03*
X127790000Y-122500000D03*
%TD*%
D12*
%TO.C,J6*%
X139500000Y-117250000D03*
D13*
X142040000Y-117250000D03*
%TD*%
D12*
%TO.C,J5*%
X130480000Y-47250000D03*
D13*
X133020000Y-47250000D03*
%TD*%
D12*
%TO.C,J4*%
X107480000Y-82250000D03*
D13*
X110020000Y-82250000D03*
%TD*%
D18*
%TO.C,J3*%
X135000000Y-142460000D03*
D19*
X135000000Y-145000000D03*
X132460000Y-142460000D03*
X132460000Y-145000000D03*
X129920000Y-142460000D03*
X129920000Y-145000000D03*
X127380000Y-142460000D03*
X127380000Y-145000000D03*
X124840000Y-142460000D03*
X124840000Y-145000000D03*
X122300000Y-142460000D03*
X122300000Y-145000000D03*
X119760000Y-142460000D03*
X119760000Y-145000000D03*
X117220000Y-142460000D03*
X117220000Y-145000000D03*
%TD*%
D12*
%TO.C,J2*%
X119460000Y-47250000D03*
D13*
X122000000Y-47250000D03*
%TD*%
D12*
%TO.C,J1*%
X107730000Y-117250000D03*
D13*
X110270000Y-117250000D03*
%TD*%
D20*
%TO.C,D4*%
X139330000Y-136000000D03*
D21*
X129170000Y-136000000D03*
%TD*%
D20*
%TO.C,D3*%
X112920000Y-136000000D03*
D21*
X123080000Y-136000000D03*
%TD*%
D22*
%TO.C,D2*%
X139725000Y-88000000D03*
D23*
X142265000Y-88000000D03*
%TD*%
D22*
%TO.C,D1*%
X142250000Y-80750000D03*
D23*
X139710000Y-80750000D03*
%TD*%
D24*
%TO.C,C10*%
X144000000Y-127732323D03*
D25*
X144000000Y-131532323D03*
%TD*%
D24*
%TO.C,C9*%
X108000000Y-131767677D03*
D25*
X108000000Y-127967677D03*
%TD*%
D14*
%TO.C,C8*%
X110750000Y-104000000D03*
D10*
X106950000Y-104000000D03*
%TD*%
%TO.C,C7*%
X124200000Y-113000000D03*
D14*
X128000000Y-113000000D03*
%TD*%
%TO.C,C6*%
X139197349Y-102750000D03*
D10*
X142997349Y-102750000D03*
%TD*%
%TO.C,C4*%
X111250000Y-97750000D03*
X106250000Y-97750000D03*
%TD*%
%TO.C,C3*%
X106500000Y-111000000D03*
X111500000Y-111000000D03*
%TD*%
%TO.C,C2*%
X129000000Y-105250000D03*
X124000000Y-105250000D03*
%TD*%
%TO.C,C1*%
X143750000Y-110500000D03*
X138750000Y-110500000D03*
%TD*%
D26*
%TO.C,U1*%
X122500000Y-85000000D03*
D27*
X122500000Y-87540000D03*
X122500000Y-90080000D03*
X122500000Y-92620000D03*
X122500000Y-95160000D03*
X122500000Y-97700000D03*
X122500000Y-100240000D03*
X130120000Y-100240000D03*
X130120000Y-97700000D03*
X130120000Y-95160000D03*
X130120000Y-92620000D03*
X130120000Y-90080000D03*
X130120000Y-87540000D03*
X130120000Y-85000000D03*
%TD*%
M02*
