M48
; DRILL file {KiCad (6.0.7)} date Thu Jan 26 16:05:39 2023
; FORMAT={-:-/ absolute / metric / decimal}
; #@! TF.CreationDate,2023-01-26T16:05:39-05:00
; #@! TF.GenerationSoftware,Kicad,Pcbnew,(6.0.7)
; #@! TF.FileFunction,Plated,1,2,PTH
FMAT,2
METRIC
; #@! TA.AperFunction,Plated,PTH,ViaDrill
T1C0.800
; #@! TA.AperFunction,Plated,PTH,ComponentDrill
T2C0.800
; #@! TA.AperFunction,Plated,PTH,ComponentDrill
T3C0.900
; #@! TA.AperFunction,Plated,PTH,ComponentDrill
T4C1.000
; #@! TA.AperFunction,Plated,PTH,ComponentDrill
T5C1.090
; #@! TA.AperFunction,Plated,PTH,ComponentDrill
T6C1.100
; #@! TA.AperFunction,Plated,PTH,ComponentDrill
T7C3.200
%
G90
G05
T1
X116.25Y-71.75
X116.5Y-59.75
X116.5Y-67.75
X132.5Y-71.75
X132.5Y-82.25
X132.5Y-114.75
X133.75Y-85.0
X133.75Y-113.0
X134.75Y-59.5
X134.75Y-70.75
X135.0Y-88.0
X135.0Y-94.5
X136.25Y-57.25
X136.25Y-92.5
T2
X105.19Y-90.0
X105.19Y-94.25
X105.38Y-73.0
X105.38Y-77.0
X106.25Y-97.75
X106.5Y-111.0
X106.95Y-104.0
X110.75Y-104.0
X111.25Y-97.75
X111.5Y-111.0
X112.81Y-90.0
X112.81Y-94.25
X113.0Y-73.0
X113.0Y-77.0
X122.44Y-55.25
X122.44Y-75.0
X122.44Y-79.0
X122.5Y-59.0
X122.5Y-85.0
X122.5Y-87.54
X122.5Y-90.08
X122.5Y-92.62
X122.5Y-95.16
X122.5Y-97.7
X122.5Y-100.24
X124.0Y-105.25
X124.2Y-66.0
X124.2Y-113.0
X128.0Y-66.0
X128.0Y-113.0
X129.0Y-105.25
X130.06Y-55.25
X130.06Y-75.0
X130.06Y-79.0
X130.12Y-59.0
X130.12Y-85.0
X130.12Y-87.54
X130.12Y-90.08
X130.12Y-92.62
X130.12Y-95.16
X130.12Y-97.7
X130.12Y-100.24
X137.44Y-96.25
X138.75Y-110.5
X139.197Y-102.75
X142.997Y-102.75
X143.75Y-110.5
X145.06Y-96.25
T3
X139.71Y-80.75
X139.725Y-88.0
X142.25Y-80.75
X142.265Y-88.0
T4
X107.46Y-59.75
X108.0Y-127.968
X108.0Y-131.768
X110.0Y-59.75
X117.22Y-142.46
X117.22Y-145.0
X119.76Y-142.46
X119.76Y-145.0
X122.3Y-142.46
X122.3Y-145.0
X124.84Y-142.46
X124.84Y-145.0
X127.38Y-142.46
X127.38Y-145.0
X129.92Y-142.46
X129.92Y-145.0
X132.46Y-142.46
X132.46Y-145.0
X135.0Y-142.46
X135.0Y-145.0
X144.0Y-127.732
X144.0Y-131.532
T5
X107.0Y-65.25
X107.48Y-82.25
X107.73Y-117.25
X107.98Y-51.75
X109.54Y-65.25
X110.02Y-82.25
X110.27Y-117.25
X110.52Y-51.75
X112.08Y-65.25
X119.46Y-47.25
X122.0Y-47.25
X122.71Y-122.5
X125.25Y-122.5
X127.79Y-122.5
X130.48Y-47.25
X133.02Y-47.25
X139.5Y-117.25
X140.0Y-65.0
X141.5Y-54.0
X142.04Y-117.25
X142.54Y-65.0
X144.04Y-54.0
X145.08Y-65.0
T6
X112.92Y-136.0
X123.08Y-136.0
X129.17Y-136.0
X139.33Y-136.0
T7
X105.08Y-43.5
X105.08Y-148.5
X144.92Y-43.5
X144.92Y-148.5
T0
M30
