%TF.GenerationSoftware,KiCad,Pcbnew,(6.0.7)*%
%TF.CreationDate,2023-02-23T21:55:11-05:00*%
%TF.ProjectId,PASS_TONE_CTRL,50415353-5f54-44f4-9e45-5f4354524c2e,rev?*%
%TF.SameCoordinates,Original*%
%TF.FileFunction,Copper,L2,Bot*%
%TF.FilePolarity,Positive*%
%FSLAX46Y46*%
G04 Gerber Fmt 4.6, Leading zero omitted, Abs format (unit mm)*
G04 Created by KiCad (PCBNEW (6.0.7)) date 2023-02-23 21:55:11*
%MOMM*%
%LPD*%
G01*
G04 APERTURE LIST*
G04 Aperture macros list*
%AMRoundRect*
0 Rectangle with rounded corners*
0 $1 Rounding radius*
0 $2 $3 $4 $5 $6 $7 $8 $9 X,Y pos of 4 corners*
0 Add a 4 corners polygon primitive as box body*
4,1,4,$2,$3,$4,$5,$6,$7,$8,$9,$2,$3,0*
0 Add four circle primitives for the rounded corners*
1,1,$1+$1,$2,$3*
1,1,$1+$1,$4,$5*
1,1,$1+$1,$6,$7*
1,1,$1+$1,$8,$9*
0 Add four rect primitives between the rounded corners*
20,1,$1+$1,$2,$3,$4,$5,0*
20,1,$1+$1,$4,$5,$6,$7,0*
20,1,$1+$1,$6,$7,$8,$9,0*
20,1,$1+$1,$8,$9,$2,$3,0*%
G04 Aperture macros list end*
%TA.AperFunction,ComponentPad*%
%ADD10C,5.600000*%
%TD*%
%TA.AperFunction,ComponentPad*%
%ADD11RoundRect,0.250000X-0.620000X-0.620000X0.620000X-0.620000X0.620000X0.620000X-0.620000X0.620000X0*%
%TD*%
%TA.AperFunction,ComponentPad*%
%ADD12C,1.740000*%
%TD*%
%TA.AperFunction,ComponentPad*%
%ADD13C,1.600000*%
%TD*%
%TA.AperFunction,ComponentPad*%
%ADD14O,1.600000X1.600000*%
%TD*%
%TA.AperFunction,ComponentPad*%
%ADD15C,2.000000*%
%TD*%
%TA.AperFunction,ComponentPad*%
%ADD16RoundRect,0.500000X0.500000X1.500000X-0.500000X1.500000X-0.500000X-1.500000X0.500000X-1.500000X0*%
%TD*%
%TA.AperFunction,Conductor*%
%ADD17C,1.000000*%
%TD*%
G04 APERTURE END LIST*
D10*
%TO.P,H2,1*%
%TO.N,N/C*%
X144920000Y-43500000D03*
%TD*%
D11*
%TO.P,R6,1,Pin_1*%
%TO.N,Earth*%
X137160000Y-75184000D03*
D12*
%TO.P,R6,2,Pin_2*%
X139700000Y-75184000D03*
%TO.P,R6,3,Pin_3*%
%TO.N,Net-(R6-Pad3)*%
X142240000Y-75184000D03*
%TD*%
D11*
%TO.P,J5,1,Pin_1*%
%TO.N,Net-(J5-Pad1)*%
X108204000Y-75184000D03*
D12*
%TO.P,J5,2,Pin_2*%
%TO.N,Net-(J5-Pad2)*%
X110744000Y-75184000D03*
%TO.P,J5,3,Pin_3*%
%TO.N,Net-(J5-Pad3)*%
X113284000Y-75184000D03*
%TD*%
D13*
%TO.P,C8,1*%
%TO.N,Net-(C8-Pad1)*%
X134620000Y-99060000D03*
%TO.P,C8,2*%
%TO.N,Net-(C8-Pad2)*%
X134620000Y-94060000D03*
%TD*%
%TO.P,C7,1*%
%TO.N,Net-(C8-Pad1)*%
X130556000Y-99060000D03*
%TO.P,C7,2*%
%TO.N,Net-(C7-Pad2)*%
X130556000Y-94060000D03*
%TD*%
%TO.P,C10,1*%
%TO.N,Net-(C8-Pad1)*%
X142748000Y-99060000D03*
%TO.P,C10,2*%
%TO.N,Net-(C10-Pad2)*%
X142748000Y-94060000D03*
%TD*%
D11*
%TO.P,J1,1,Pin_1*%
%TO.N,Net-(J1-Pad1)*%
X111506000Y-119504000D03*
D12*
%TO.P,J1,2,Pin_2*%
%TO.N,Earth*%
X114046000Y-119504000D03*
%TD*%
D13*
%TO.P,R1,1*%
%TO.N,Net-(J1-Pad1)*%
X109728000Y-112380000D03*
D14*
%TO.P,R1,2*%
%TO.N,Net-(C8-Pad1)*%
X117348000Y-112380000D03*
%TD*%
D13*
%TO.P,C1,1*%
%TO.N,Net-(C1-Pad1)*%
X106000000Y-94000000D03*
%TO.P,C1,2*%
%TO.N,Net-(C8-Pad1)*%
X106000000Y-99000000D03*
%TD*%
D15*
%TO.P,AUDIO TRANSFORMER,1*%
%TO.N,unconnected-(TR1-Pad1)*%
X129984000Y-56492000D03*
%TO.P,AUDIO TRANSFORMER,2*%
%TO.N,unconnected-(TR1-Pad2)*%
X125984000Y-56492000D03*
%TO.P,AUDIO TRANSFORMER,3*%
%TO.N,unconnected-(TR1-Pad3)*%
X121984000Y-56492000D03*
%TO.P,AUDIO TRANSFORMER,4*%
%TO.N,Net-(R6-Pad3)*%
X121984000Y-69492000D03*
%TO.P,AUDIO TRANSFORMER,5*%
%TO.N,Net-(J5-Pad3)*%
X125984000Y-69492000D03*
%TO.P,AUDIO TRANSFORMER,6*%
%TO.N,Net-(J5-Pad1)*%
X129984000Y-69492000D03*
D16*
%TO.P,AUDIO TRANSFORMER,7*%
%TO.N,N/C*%
X115984000Y-62992000D03*
X135984000Y-62992000D03*
%TD*%
D11*
%TO.P,J2,1,Pin_1*%
%TO.N,Net-(C1-Pad1)*%
X108203000Y-86250000D03*
D12*
%TO.P,J2,2,Pin_2*%
%TO.N,Net-(C2-Pad1)*%
X110743000Y-86250000D03*
%TO.P,J2,3,Pin_3*%
%TO.N,Net-(C3-Pad2)*%
X113283000Y-86250000D03*
%TO.P,J2,4,Pin_4*%
%TO.N,Net-(C4-Pad2)*%
X115823000Y-86250000D03*
%TD*%
D11*
%TO.P,J4,1,Pin_1*%
%TO.N,Net-(C9-Pad2)*%
X138960000Y-86500000D03*
D12*
%TO.P,J4,2,Pin_2*%
%TO.N,Net-(C10-Pad2)*%
X141500000Y-86500000D03*
%TO.P,J4,3,Pin_3*%
%TO.N,Net-(J5-Pad2)*%
X144040000Y-86500000D03*
%TD*%
D13*
%TO.P,C5,1*%
%TO.N,Net-(C8-Pad1)*%
X121412000Y-99060000D03*
%TO.P,C5,2*%
%TO.N,Net-(C5-Pad2)*%
X121412000Y-94060000D03*
%TD*%
%TO.P,C4,1*%
%TO.N,Net-(C8-Pad1)*%
X117348000Y-99060000D03*
%TO.P,C4,2*%
%TO.N,Net-(C4-Pad2)*%
X117348000Y-94060000D03*
%TD*%
%TO.P,C6,1*%
%TO.N,Net-(C8-Pad1)*%
X126492000Y-99060000D03*
%TO.P,C6,2*%
%TO.N,Net-(C6-Pad2)*%
X126492000Y-94060000D03*
%TD*%
%TO.P,C3,1*%
%TO.N,Net-(C8-Pad1)*%
X113538000Y-99020000D03*
%TO.P,C3,2*%
%TO.N,Net-(C3-Pad2)*%
X113538000Y-94020000D03*
%TD*%
D11*
%TO.P,J6,1,Pin_1*%
%TO.N,Net-(C8-Pad1)*%
X136398000Y-119250000D03*
D12*
%TO.P,J6,2,Pin_2*%
%TO.N,Earth*%
X138938000Y-119250000D03*
%TD*%
D13*
%TO.P,C9,1*%
%TO.N,Net-(C8-Pad1)*%
X138684000Y-99060000D03*
%TO.P,C9,2*%
%TO.N,Net-(C9-Pad2)*%
X138684000Y-94060000D03*
%TD*%
D10*
%TO.P,H4,1*%
%TO.N,N/C*%
X144920000Y-148500000D03*
%TD*%
%TO.P,H1,1*%
%TO.N,N/C*%
X105080000Y-43500000D03*
%TD*%
D13*
%TO.P,C2,1*%
%TO.N,Net-(C2-Pad1)*%
X109728000Y-94020000D03*
%TO.P,C2,2*%
%TO.N,Net-(C8-Pad1)*%
X109728000Y-99020000D03*
%TD*%
D11*
%TO.P,J3,1,Pin_1*%
%TO.N,Net-(C5-Pad2)*%
X123570000Y-86250000D03*
D12*
%TO.P,J3,2,Pin_2*%
%TO.N,Net-(C6-Pad2)*%
X126110000Y-86250000D03*
%TO.P,J3,3,Pin_3*%
%TO.N,Net-(C7-Pad2)*%
X128650000Y-86250000D03*
%TO.P,J3,4,Pin_4*%
%TO.N,Net-(C8-Pad2)*%
X131190000Y-86250000D03*
%TD*%
D10*
%TO.P,H3,1*%
%TO.N,N/C*%
X105080000Y-148500000D03*
%TD*%
D17*
%TO.N,Net-(J1-Pad1)*%
X111506000Y-119504000D02*
X111506000Y-114158000D01*
X111506000Y-114158000D02*
X109728000Y-112380000D01*
%TO.N,Net-(J5-Pad1)*%
X127508000Y-65024000D02*
X119380000Y-65024000D01*
X116840000Y-67564000D02*
X109728000Y-67564000D01*
X108204000Y-69088000D02*
X108204000Y-75184000D01*
X129984000Y-67500000D02*
X127508000Y-65024000D01*
X109728000Y-67564000D02*
X108204000Y-69088000D01*
X129984000Y-69492000D02*
X129984000Y-67500000D01*
X119380000Y-65024000D02*
X116840000Y-67564000D01*
%TO.N,Net-(J5-Pad3)*%
X124968000Y-67056000D02*
X119888000Y-67056000D01*
X116332000Y-75184000D02*
X113284000Y-75184000D01*
X125984000Y-69492000D02*
X125984000Y-68072000D01*
X118364000Y-73152000D02*
X116332000Y-75184000D01*
X119888000Y-67056000D02*
X118364000Y-68580000D01*
X118364000Y-68580000D02*
X118364000Y-73152000D01*
X125984000Y-68072000D02*
X124968000Y-67056000D01*
%TO.N,Net-(R6-Pad3)*%
X142240000Y-75184000D02*
X142240000Y-73152000D01*
X142240000Y-73152000D02*
X141732000Y-72644000D01*
X123444000Y-72644000D02*
X121984000Y-71184000D01*
X121984000Y-71184000D02*
X121984000Y-69492000D01*
X141732000Y-72644000D02*
X123444000Y-72644000D01*
%TO.N,Net-(J5-Pad2)*%
X144040000Y-86500000D02*
X144040000Y-83040000D01*
X143000000Y-82000000D02*
X113500000Y-82000000D01*
X110744000Y-79244000D02*
X110744000Y-75184000D01*
X113500000Y-82000000D02*
X110744000Y-79244000D01*
X144040000Y-83040000D02*
X143000000Y-82000000D01*
%TO.N,Net-(C1-Pad1)*%
X107250000Y-86250000D02*
X106000000Y-87500000D01*
X108203000Y-86250000D02*
X107250000Y-86250000D01*
X106000000Y-87500000D02*
X106000000Y-94000000D01*
%TO.N,Net-(C8-Pad1)*%
X130556000Y-99060000D02*
X126492000Y-99060000D01*
X121412000Y-99060000D02*
X117348000Y-99060000D01*
X136398000Y-119250000D02*
X134620000Y-117472000D01*
X109708000Y-99000000D02*
X109728000Y-99020000D01*
X126492000Y-99060000D02*
X121412000Y-99060000D01*
X142748000Y-99060000D02*
X138684000Y-99060000D01*
X113538000Y-99020000D02*
X117308000Y-99020000D01*
X134620000Y-117472000D02*
X134620000Y-99060000D01*
X117348000Y-112380000D02*
X117348000Y-99060000D01*
X106000000Y-99000000D02*
X109708000Y-99000000D01*
X134620000Y-99060000D02*
X138684000Y-99060000D01*
X134620000Y-99060000D02*
X130556000Y-99060000D01*
X109728000Y-99020000D02*
X113538000Y-99020000D01*
X117308000Y-99020000D02*
X117348000Y-99060000D01*
%TO.N,Net-(C2-Pad1)*%
X110743000Y-88257000D02*
X110743000Y-86250000D01*
X109728000Y-89272000D02*
X110743000Y-88257000D01*
X109728000Y-94020000D02*
X109728000Y-89272000D01*
%TO.N,Net-(C3-Pad2)*%
X113283000Y-86250000D02*
X113283000Y-93765000D01*
X113283000Y-93765000D02*
X113538000Y-94020000D01*
%TO.N,Net-(C4-Pad2)*%
X116250000Y-86250000D02*
X117348000Y-87348000D01*
X117348000Y-87348000D02*
X117348000Y-94060000D01*
X115823000Y-86250000D02*
X116250000Y-86250000D01*
%TO.N,Net-(C5-Pad2)*%
X121412000Y-87588000D02*
X122750000Y-86250000D01*
X122750000Y-86250000D02*
X123570000Y-86250000D01*
X121412000Y-94060000D02*
X121412000Y-87588000D01*
%TO.N,Net-(C6-Pad2)*%
X126110000Y-89110000D02*
X126110000Y-86250000D01*
X126492000Y-89492000D02*
X126110000Y-89110000D01*
X126492000Y-94060000D02*
X126492000Y-89492000D01*
%TO.N,Net-(C7-Pad2)*%
X130556000Y-91056000D02*
X130556000Y-94060000D01*
X128650000Y-86250000D02*
X128650000Y-89150000D01*
X128650000Y-89150000D02*
X130556000Y-91056000D01*
%TO.N,Net-(C8-Pad2)*%
X131190000Y-86250000D02*
X133250000Y-86250000D01*
X134620000Y-87620000D02*
X134620000Y-94060000D01*
X133250000Y-86250000D02*
X134620000Y-87620000D01*
%TO.N,Net-(C9-Pad2)*%
X138684000Y-94060000D02*
X138684000Y-86776000D01*
X138684000Y-86776000D02*
X138960000Y-86500000D01*
%TO.N,Net-(C10-Pad2)*%
X142748000Y-91748000D02*
X142748000Y-94060000D01*
X141500000Y-86500000D02*
X141500000Y-90500000D01*
X141500000Y-90500000D02*
X142748000Y-91748000D01*
%TD*%
%TA.AperFunction,Conductor*%
%TO.N,Earth*%
G36*
X143088127Y-40528502D02*
G01*
X143134620Y-40582158D01*
X143144724Y-40652432D01*
X143115230Y-40717012D01*
X143084715Y-40742614D01*
X143067193Y-40753101D01*
X143064467Y-40755163D01*
X143064465Y-40755164D01*
X142845493Y-40920772D01*
X142781367Y-40969270D01*
X142520559Y-41215043D01*
X142287819Y-41487546D01*
X142285900Y-41490358D01*
X142285897Y-41490363D01*
X142260919Y-41526980D01*
X142085871Y-41783591D01*
X141917077Y-42099714D01*
X141783411Y-42432218D01*
X141782491Y-42435492D01*
X141782489Y-42435497D01*
X141716661Y-42669689D01*
X141686437Y-42777213D01*
X141627290Y-43130663D01*
X141606661Y-43488434D01*
X141624792Y-43846340D01*
X141625329Y-43849695D01*
X141625330Y-43849701D01*
X141647901Y-43990618D01*
X141681470Y-44200195D01*
X141776033Y-44545859D01*
X141907374Y-44879288D01*
X142073957Y-45196582D01*
X142075858Y-45199411D01*
X142075864Y-45199421D01*
X142259569Y-45472800D01*
X142273834Y-45494029D01*
X142504665Y-45768150D01*
X142763751Y-46015738D01*
X143048061Y-46233897D01*
X143080056Y-46253350D01*
X143351355Y-46418303D01*
X143351360Y-46418306D01*
X143354270Y-46420075D01*
X143357358Y-46421521D01*
X143357357Y-46421521D01*
X143675710Y-46570649D01*
X143675720Y-46570653D01*
X143678794Y-46572093D01*
X143682012Y-46573195D01*
X143682015Y-46573196D01*
X144014615Y-46687071D01*
X144014623Y-46687073D01*
X144017838Y-46688174D01*
X144367435Y-46766959D01*
X144419728Y-46772917D01*
X144720114Y-46807142D01*
X144720122Y-46807142D01*
X144723497Y-46807527D01*
X144726901Y-46807545D01*
X144726904Y-46807545D01*
X144921227Y-46808562D01*
X145081857Y-46809403D01*
X145085243Y-46809053D01*
X145085245Y-46809053D01*
X145434932Y-46772917D01*
X145434941Y-46772916D01*
X145438324Y-46772566D01*
X145441657Y-46771852D01*
X145441660Y-46771851D01*
X145614186Y-46734864D01*
X145788727Y-46697446D01*
X146128968Y-46584922D01*
X146455066Y-46436311D01*
X146549052Y-46380506D01*
X146760262Y-46255099D01*
X146760267Y-46255096D01*
X146763207Y-46253350D01*
X147049786Y-46038180D01*
X147311451Y-45793319D01*
X147545140Y-45521630D01*
X147651750Y-45366512D01*
X147746190Y-45229101D01*
X147746195Y-45229094D01*
X147748120Y-45226292D01*
X147749732Y-45223298D01*
X147749737Y-45223290D01*
X147916395Y-44913772D01*
X147918017Y-44910760D01*
X148052842Y-44578724D01*
X148063142Y-44542568D01*
X148083527Y-44471006D01*
X148151020Y-44234070D01*
X148188885Y-44012552D01*
X148210829Y-43884175D01*
X148210829Y-43884173D01*
X148211401Y-43880828D01*
X148213511Y-43846340D01*
X148233168Y-43524928D01*
X148233278Y-43523131D01*
X148233359Y-43500000D01*
X148213979Y-43142159D01*
X148156066Y-42788505D01*
X148060297Y-42443173D01*
X148057243Y-42435497D01*
X147929052Y-42113369D01*
X147927793Y-42110205D01*
X147897768Y-42053498D01*
X147761702Y-41796513D01*
X147761698Y-41796506D01*
X147760103Y-41793494D01*
X147559190Y-41496746D01*
X147327403Y-41223432D01*
X147067454Y-40976750D01*
X146975276Y-40906529D01*
X146933209Y-40849337D01*
X146928740Y-40778481D01*
X146963288Y-40716457D01*
X147025884Y-40682958D01*
X147094079Y-40687665D01*
X147330311Y-40772191D01*
X147341735Y-40776922D01*
X147409500Y-40808972D01*
X147640292Y-40918128D01*
X147651188Y-40923953D01*
X147743181Y-40979091D01*
X147934467Y-41093744D01*
X147944748Y-41100614D01*
X148210017Y-41297350D01*
X148219556Y-41305177D01*
X148464282Y-41526985D01*
X148473015Y-41535718D01*
X148694823Y-41780444D01*
X148702650Y-41789983D01*
X148846901Y-41984483D01*
X148899386Y-42055252D01*
X148906256Y-42065533D01*
X149076045Y-42348807D01*
X149081872Y-42359708D01*
X149121348Y-42443173D01*
X149223078Y-42658265D01*
X149227810Y-42669689D01*
X149339072Y-42980645D01*
X149342661Y-42992477D01*
X149422909Y-43312841D01*
X149425321Y-43324969D01*
X149473779Y-43651650D01*
X149474990Y-43663949D01*
X149484117Y-43849701D01*
X149489390Y-43957034D01*
X149488042Y-43982598D01*
X149486309Y-43993724D01*
X149487474Y-44002630D01*
X149490436Y-44025283D01*
X149491500Y-44041621D01*
X149491500Y-147950633D01*
X149490000Y-147970018D01*
X149486309Y-147993724D01*
X149487473Y-148002627D01*
X149487473Y-148002628D01*
X149488839Y-148013076D01*
X149489751Y-148035594D01*
X149485081Y-148130663D01*
X149474991Y-148336045D01*
X149473779Y-148348350D01*
X149425321Y-148675031D01*
X149422909Y-148687159D01*
X149342661Y-149007523D01*
X149339072Y-149019355D01*
X149227810Y-149330311D01*
X149223078Y-149341735D01*
X149081874Y-149640288D01*
X149076045Y-149651193D01*
X148906256Y-149934467D01*
X148899386Y-149944748D01*
X148702650Y-150210017D01*
X148694823Y-150219556D01*
X148473020Y-150464277D01*
X148464282Y-150473015D01*
X148219556Y-150694823D01*
X148210017Y-150702650D01*
X148015517Y-150846901D01*
X147944748Y-150899386D01*
X147934467Y-150906256D01*
X147792101Y-150991588D01*
X147651188Y-151076047D01*
X147640292Y-151081872D01*
X147618155Y-151092342D01*
X147341735Y-151223078D01*
X147330311Y-151227810D01*
X147095748Y-151311738D01*
X147024871Y-151315854D01*
X146963020Y-151280998D01*
X146929832Y-151218236D01*
X146935844Y-151147494D01*
X146977644Y-151092346D01*
X147049786Y-151038180D01*
X147311451Y-150793319D01*
X147545140Y-150521630D01*
X147727429Y-150256398D01*
X147746190Y-150229101D01*
X147746195Y-150229094D01*
X147748120Y-150226292D01*
X147749732Y-150223298D01*
X147749737Y-150223290D01*
X147916395Y-149913772D01*
X147918017Y-149910760D01*
X148052842Y-149578724D01*
X148063142Y-149542568D01*
X148083527Y-149471006D01*
X148151020Y-149234070D01*
X148211401Y-148880828D01*
X148213511Y-148846340D01*
X148233168Y-148524928D01*
X148233278Y-148523131D01*
X148233359Y-148500000D01*
X148213979Y-148142159D01*
X148156066Y-147788505D01*
X148060297Y-147443173D01*
X148057243Y-147435497D01*
X147929052Y-147113369D01*
X147927793Y-147110205D01*
X147897768Y-147053498D01*
X147761702Y-146796513D01*
X147761698Y-146796506D01*
X147760103Y-146793494D01*
X147559190Y-146496746D01*
X147327403Y-146223432D01*
X147067454Y-145976750D01*
X146782384Y-145759585D01*
X146779472Y-145757828D01*
X146779467Y-145757825D01*
X146478443Y-145576236D01*
X146478437Y-145576233D01*
X146475528Y-145574478D01*
X146150475Y-145423593D01*
X145980751Y-145366145D01*
X145814255Y-145309789D01*
X145814250Y-145309788D01*
X145811028Y-145308697D01*
X145612681Y-145264724D01*
X145464493Y-145231871D01*
X145464487Y-145231870D01*
X145461158Y-145231132D01*
X145457769Y-145230758D01*
X145457764Y-145230757D01*
X145108338Y-145192180D01*
X145108333Y-145192180D01*
X145104957Y-145191807D01*
X145101558Y-145191801D01*
X145101557Y-145191801D01*
X144932080Y-145191505D01*
X144746592Y-145191182D01*
X144633413Y-145203277D01*
X144393639Y-145228901D01*
X144393631Y-145228902D01*
X144390256Y-145229263D01*
X144040117Y-145305606D01*
X143700271Y-145419317D01*
X143697178Y-145420739D01*
X143697177Y-145420740D01*
X143690974Y-145423593D01*
X143374694Y-145569066D01*
X143067193Y-145753101D01*
X143064467Y-145755163D01*
X143064465Y-145755164D01*
X143058620Y-145759585D01*
X142781367Y-145969270D01*
X142520559Y-146215043D01*
X142287819Y-146487546D01*
X142285900Y-146490358D01*
X142285897Y-146490363D01*
X142192624Y-146627097D01*
X142085871Y-146783591D01*
X141917077Y-147099714D01*
X141783411Y-147432218D01*
X141782491Y-147435492D01*
X141782489Y-147435497D01*
X141780332Y-147443173D01*
X141686437Y-147777213D01*
X141685875Y-147780570D01*
X141685875Y-147780571D01*
X141643199Y-148035597D01*
X141627290Y-148130663D01*
X141606661Y-148488434D01*
X141624792Y-148846340D01*
X141625329Y-148849695D01*
X141625330Y-148849701D01*
X141630316Y-148880828D01*
X141681470Y-149200195D01*
X141776033Y-149545859D01*
X141907374Y-149879288D01*
X142073957Y-150196582D01*
X142075858Y-150199411D01*
X142075864Y-150199421D01*
X142253841Y-150464277D01*
X142273834Y-150494029D01*
X142504665Y-150768150D01*
X142763751Y-151015738D01*
X143048061Y-151233897D01*
X143050979Y-151235671D01*
X143087437Y-151257838D01*
X143135252Y-151310319D01*
X143147103Y-151380320D01*
X143119228Y-151445615D01*
X143060477Y-151485474D01*
X143021978Y-151491500D01*
X106981120Y-151491500D01*
X106912999Y-151471498D01*
X106866506Y-151417842D01*
X106856402Y-151347568D01*
X106885896Y-151282988D01*
X106916789Y-151257161D01*
X106923207Y-151253350D01*
X106957225Y-151227809D01*
X107021095Y-151179854D01*
X107209786Y-151038180D01*
X107471451Y-150793319D01*
X107705140Y-150521630D01*
X107887429Y-150256398D01*
X107906190Y-150229101D01*
X107906195Y-150229094D01*
X107908120Y-150226292D01*
X107909732Y-150223298D01*
X107909737Y-150223290D01*
X108076395Y-149913772D01*
X108078017Y-149910760D01*
X108212842Y-149578724D01*
X108223142Y-149542568D01*
X108243527Y-149471006D01*
X108311020Y-149234070D01*
X108371401Y-148880828D01*
X108373511Y-148846340D01*
X108393168Y-148524928D01*
X108393278Y-148523131D01*
X108393359Y-148500000D01*
X108373979Y-148142159D01*
X108316066Y-147788505D01*
X108220297Y-147443173D01*
X108217243Y-147435497D01*
X108089052Y-147113369D01*
X108087793Y-147110205D01*
X108057768Y-147053498D01*
X107921702Y-146796513D01*
X107921698Y-146796506D01*
X107920103Y-146793494D01*
X107719190Y-146496746D01*
X107487403Y-146223432D01*
X107227454Y-145976750D01*
X106942384Y-145759585D01*
X106939472Y-145757828D01*
X106939467Y-145757825D01*
X106638443Y-145576236D01*
X106638437Y-145576233D01*
X106635528Y-145574478D01*
X106310475Y-145423593D01*
X106140751Y-145366145D01*
X105974255Y-145309789D01*
X105974250Y-145309788D01*
X105971028Y-145308697D01*
X105772681Y-145264724D01*
X105624493Y-145231871D01*
X105624487Y-145231870D01*
X105621158Y-145231132D01*
X105617769Y-145230758D01*
X105617764Y-145230757D01*
X105268338Y-145192180D01*
X105268333Y-145192180D01*
X105264957Y-145191807D01*
X105261558Y-145191801D01*
X105261557Y-145191801D01*
X105092080Y-145191505D01*
X104906592Y-145191182D01*
X104793413Y-145203277D01*
X104553639Y-145228901D01*
X104553631Y-145228902D01*
X104550256Y-145229263D01*
X104200117Y-145305606D01*
X103860271Y-145419317D01*
X103857178Y-145420739D01*
X103857177Y-145420740D01*
X103850974Y-145423593D01*
X103534694Y-145569066D01*
X103227193Y-145753101D01*
X103224467Y-145755163D01*
X103224465Y-145755164D01*
X103218620Y-145759585D01*
X102941367Y-145969270D01*
X102680559Y-146215043D01*
X102447819Y-146487546D01*
X102445900Y-146490358D01*
X102445897Y-146490363D01*
X102352624Y-146627097D01*
X102245871Y-146783591D01*
X102077077Y-147099714D01*
X101943411Y-147432218D01*
X101942491Y-147435492D01*
X101942489Y-147435497D01*
X101940332Y-147443173D01*
X101846437Y-147777213D01*
X101845875Y-147780570D01*
X101845875Y-147780571D01*
X101803199Y-148035597D01*
X101787290Y-148130663D01*
X101766661Y-148488434D01*
X101784792Y-148846340D01*
X101785329Y-148849695D01*
X101785330Y-148849701D01*
X101790316Y-148880828D01*
X101841470Y-149200195D01*
X101936033Y-149545859D01*
X102067374Y-149879288D01*
X102233957Y-150196582D01*
X102235858Y-150199411D01*
X102235864Y-150199421D01*
X102413841Y-150464277D01*
X102433834Y-150494029D01*
X102664665Y-150768150D01*
X102923751Y-151015738D01*
X103025694Y-151093962D01*
X103067559Y-151151297D01*
X103071781Y-151222168D01*
X103037017Y-151284071D01*
X102974304Y-151317352D01*
X102906540Y-151312556D01*
X102669689Y-151227809D01*
X102658265Y-151223078D01*
X102381845Y-151092342D01*
X102359708Y-151081872D01*
X102348812Y-151076047D01*
X102207899Y-150991588D01*
X102065533Y-150906256D01*
X102055252Y-150899386D01*
X101984483Y-150846901D01*
X101789983Y-150702650D01*
X101780444Y-150694823D01*
X101535718Y-150473015D01*
X101526980Y-150464277D01*
X101305177Y-150219556D01*
X101297350Y-150210017D01*
X101100614Y-149944748D01*
X101093744Y-149934467D01*
X100923955Y-149651193D01*
X100918126Y-149640288D01*
X100776922Y-149341735D01*
X100772190Y-149330311D01*
X100660928Y-149019355D01*
X100657339Y-149007523D01*
X100577091Y-148687159D01*
X100574679Y-148675031D01*
X100526221Y-148348351D01*
X100525009Y-148336045D01*
X100510795Y-148046695D01*
X100512387Y-148019619D01*
X100513576Y-148012552D01*
X100513729Y-148000000D01*
X100509773Y-147972376D01*
X100508500Y-147954514D01*
X100508500Y-112380000D01*
X108414502Y-112380000D01*
X108434457Y-112608087D01*
X108493716Y-112829243D01*
X108496039Y-112834224D01*
X108496039Y-112834225D01*
X108588151Y-113031762D01*
X108588154Y-113031767D01*
X108590477Y-113036749D01*
X108721802Y-113224300D01*
X108883700Y-113386198D01*
X108888208Y-113389355D01*
X108888211Y-113389357D01*
X108912998Y-113406713D01*
X109071251Y-113517523D01*
X109076233Y-113519846D01*
X109076238Y-113519849D01*
X109263878Y-113607346D01*
X109278757Y-113614284D01*
X109284065Y-113615706D01*
X109284067Y-113615707D01*
X109352141Y-113633947D01*
X109499913Y-113673543D01*
X109558771Y-113678692D01*
X109624888Y-113704555D01*
X109636884Y-113715118D01*
X110460595Y-114538829D01*
X110494621Y-114601141D01*
X110497500Y-114627924D01*
X110497500Y-118162194D01*
X110477498Y-118230315D01*
X110437805Y-118269337D01*
X110417877Y-118281669D01*
X110417872Y-118281673D01*
X110411652Y-118285522D01*
X110286695Y-118410697D01*
X110282855Y-118416927D01*
X110282854Y-118416928D01*
X110247777Y-118473834D01*
X110193885Y-118561262D01*
X110138203Y-118729139D01*
X110127500Y-118833600D01*
X110127500Y-120174400D01*
X110127837Y-120177646D01*
X110127837Y-120177650D01*
X110137378Y-120269599D01*
X110138474Y-120280166D01*
X110140655Y-120286702D01*
X110140655Y-120286704D01*
X110174238Y-120387364D01*
X110194450Y-120447946D01*
X110287522Y-120598348D01*
X110412697Y-120723305D01*
X110418927Y-120727145D01*
X110418928Y-120727146D01*
X110556090Y-120811694D01*
X110563262Y-120816115D01*
X110605049Y-120829975D01*
X110724611Y-120869632D01*
X110724613Y-120869632D01*
X110731139Y-120871797D01*
X110737975Y-120872497D01*
X110737978Y-120872498D01*
X110771828Y-120875966D01*
X110835600Y-120882500D01*
X112176400Y-120882500D01*
X112179646Y-120882163D01*
X112179650Y-120882163D01*
X112275308Y-120872238D01*
X112275312Y-120872237D01*
X112282166Y-120871526D01*
X112288702Y-120869345D01*
X112288704Y-120869345D01*
X112420806Y-120825272D01*
X112449946Y-120815550D01*
X112600348Y-120722478D01*
X112679214Y-120643474D01*
X113271355Y-120643474D01*
X113276636Y-120650529D01*
X113444087Y-120748380D01*
X113453370Y-120752827D01*
X113655402Y-120829975D01*
X113665300Y-120832851D01*
X113877219Y-120875966D01*
X113887447Y-120877185D01*
X114103560Y-120885111D01*
X114113846Y-120884644D01*
X114328353Y-120857164D01*
X114338439Y-120855021D01*
X114545581Y-120792875D01*
X114555158Y-120789122D01*
X114749378Y-120693975D01*
X114758216Y-120688706D01*
X114809587Y-120652064D01*
X114817988Y-120641364D01*
X114811002Y-120628213D01*
X114058811Y-119876021D01*
X114044868Y-119868408D01*
X114043034Y-119868539D01*
X114036420Y-119872790D01*
X113278112Y-120631099D01*
X113271355Y-120643474D01*
X112679214Y-120643474D01*
X112725305Y-120597303D01*
X112749362Y-120558275D01*
X112814275Y-120452968D01*
X112814276Y-120452966D01*
X112818115Y-120446738D01*
X112850787Y-120348235D01*
X112891218Y-120289875D01*
X112915687Y-120275102D01*
X113673979Y-119516811D01*
X113680356Y-119505132D01*
X114410408Y-119505132D01*
X114410539Y-119506966D01*
X114414790Y-119513580D01*
X115170810Y-120269599D01*
X115182816Y-120276155D01*
X115194555Y-120267186D01*
X115228206Y-120220356D01*
X115233516Y-120211519D01*
X115329329Y-120017655D01*
X115333128Y-120008060D01*
X115395991Y-119801156D01*
X115398170Y-119791075D01*
X115426635Y-119574868D01*
X115427154Y-119568193D01*
X115428641Y-119507364D01*
X115428447Y-119500646D01*
X115410580Y-119283316D01*
X115408897Y-119273154D01*
X115356213Y-119063407D01*
X115352895Y-119053660D01*
X115266659Y-118855330D01*
X115261792Y-118846255D01*
X115193528Y-118740734D01*
X115182843Y-118731531D01*
X115173276Y-118735935D01*
X114418021Y-119491189D01*
X114410408Y-119505132D01*
X113680356Y-119505132D01*
X113681592Y-119502868D01*
X113681461Y-119501034D01*
X113677210Y-119494420D01*
X112921453Y-118738664D01*
X112910734Y-118732811D01*
X112860532Y-118682609D01*
X112851595Y-118662099D01*
X112819868Y-118567002D01*
X112817550Y-118560054D01*
X112724478Y-118409652D01*
X112680891Y-118366141D01*
X113272936Y-118366141D01*
X113279679Y-118378468D01*
X114033189Y-119131979D01*
X114047132Y-119139592D01*
X114048966Y-119139461D01*
X114055580Y-119135210D01*
X114813633Y-118377156D01*
X114820650Y-118364305D01*
X114813295Y-118354210D01*
X114806664Y-118349804D01*
X114617334Y-118245288D01*
X114607937Y-118241065D01*
X114404086Y-118168877D01*
X114394115Y-118166243D01*
X114181216Y-118128321D01*
X114170962Y-118127351D01*
X113954716Y-118124708D01*
X113944431Y-118125428D01*
X113730666Y-118158138D01*
X113720647Y-118160525D01*
X113515086Y-118227713D01*
X113505584Y-118231708D01*
X113313768Y-118331560D01*
X113305048Y-118337052D01*
X113281390Y-118354815D01*
X113272936Y-118366141D01*
X112680891Y-118366141D01*
X112599303Y-118284695D01*
X112574383Y-118269334D01*
X112526891Y-118216562D01*
X112514500Y-118162075D01*
X112514500Y-114219850D01*
X112515237Y-114206242D01*
X112518659Y-114174739D01*
X112519325Y-114168612D01*
X112514947Y-114118570D01*
X112514621Y-114113788D01*
X112514500Y-114111310D01*
X112514500Y-114108231D01*
X112514201Y-114105177D01*
X112514200Y-114105166D01*
X112510313Y-114065529D01*
X112510191Y-114064215D01*
X112502623Y-113977718D01*
X112502087Y-113971587D01*
X112500600Y-113966468D01*
X112500080Y-113961167D01*
X112473209Y-113872166D01*
X112472874Y-113871033D01*
X112448630Y-113787586D01*
X112448628Y-113787582D01*
X112446909Y-113781664D01*
X112444456Y-113776932D01*
X112442916Y-113771831D01*
X112399269Y-113689740D01*
X112398657Y-113688574D01*
X112358729Y-113611547D01*
X112355892Y-113606074D01*
X112352569Y-113601911D01*
X112350066Y-113597204D01*
X112291261Y-113525102D01*
X112290433Y-113524075D01*
X112261469Y-113487792D01*
X112261464Y-113487787D01*
X112259262Y-113485028D01*
X112256761Y-113482527D01*
X112256119Y-113481809D01*
X112252406Y-113477461D01*
X112244642Y-113467941D01*
X112225065Y-113443938D01*
X112220323Y-113440015D01*
X112220321Y-113440013D01*
X112189727Y-113414703D01*
X112180947Y-113406713D01*
X111063118Y-112288884D01*
X111029092Y-112226572D01*
X111026692Y-112210770D01*
X111022022Y-112157392D01*
X111021543Y-112151913D01*
X110962284Y-111930757D01*
X110959961Y-111925775D01*
X110867849Y-111728238D01*
X110867846Y-111728233D01*
X110865523Y-111723251D01*
X110734198Y-111535700D01*
X110572300Y-111373802D01*
X110567792Y-111370645D01*
X110567789Y-111370643D01*
X110489611Y-111315902D01*
X110384749Y-111242477D01*
X110379767Y-111240154D01*
X110379762Y-111240151D01*
X110182225Y-111148039D01*
X110182224Y-111148039D01*
X110177243Y-111145716D01*
X110171935Y-111144294D01*
X110171933Y-111144293D01*
X109961402Y-111087881D01*
X109961400Y-111087881D01*
X109956087Y-111086457D01*
X109728000Y-111066502D01*
X109499913Y-111086457D01*
X109494600Y-111087881D01*
X109494598Y-111087881D01*
X109284067Y-111144293D01*
X109284065Y-111144294D01*
X109278757Y-111145716D01*
X109273776Y-111148039D01*
X109273775Y-111148039D01*
X109076238Y-111240151D01*
X109076233Y-111240154D01*
X109071251Y-111242477D01*
X108966389Y-111315902D01*
X108888211Y-111370643D01*
X108888208Y-111370645D01*
X108883700Y-111373802D01*
X108721802Y-111535700D01*
X108590477Y-111723251D01*
X108588154Y-111728233D01*
X108588151Y-111728238D01*
X108496039Y-111925775D01*
X108493716Y-111930757D01*
X108434457Y-112151913D01*
X108414502Y-112380000D01*
X100508500Y-112380000D01*
X100508500Y-99000000D01*
X104686502Y-99000000D01*
X104706457Y-99228087D01*
X104765716Y-99449243D01*
X104768039Y-99454224D01*
X104768039Y-99454225D01*
X104860151Y-99651762D01*
X104860154Y-99651767D01*
X104862477Y-99656749D01*
X104993802Y-99844300D01*
X105155700Y-100006198D01*
X105160208Y-100009355D01*
X105160211Y-100009357D01*
X105235823Y-100062301D01*
X105343251Y-100137523D01*
X105348233Y-100139846D01*
X105348238Y-100139849D01*
X105465439Y-100194500D01*
X105550757Y-100234284D01*
X105556065Y-100235706D01*
X105556067Y-100235707D01*
X105766598Y-100292119D01*
X105766600Y-100292119D01*
X105771913Y-100293543D01*
X106000000Y-100313498D01*
X106228087Y-100293543D01*
X106233400Y-100292119D01*
X106233402Y-100292119D01*
X106443933Y-100235707D01*
X106443935Y-100235706D01*
X106449243Y-100234284D01*
X106534561Y-100194500D01*
X106651762Y-100139849D01*
X106651767Y-100139846D01*
X106656749Y-100137523D01*
X106808469Y-100031287D01*
X106880740Y-100008500D01*
X108818697Y-100008500D01*
X108890968Y-100031287D01*
X109071251Y-100157523D01*
X109076233Y-100159846D01*
X109076238Y-100159849D01*
X109238918Y-100235707D01*
X109278757Y-100254284D01*
X109284065Y-100255706D01*
X109284067Y-100255707D01*
X109494598Y-100312119D01*
X109494600Y-100312119D01*
X109499913Y-100313543D01*
X109728000Y-100333498D01*
X109956087Y-100313543D01*
X109961400Y-100312119D01*
X109961402Y-100312119D01*
X110171933Y-100255707D01*
X110171935Y-100255706D01*
X110177243Y-100254284D01*
X110217082Y-100235707D01*
X110379762Y-100159849D01*
X110379767Y-100159846D01*
X110384749Y-100157523D01*
X110536469Y-100051287D01*
X110608740Y-100028500D01*
X112657260Y-100028500D01*
X112729531Y-100051287D01*
X112881251Y-100157523D01*
X112886233Y-100159846D01*
X112886238Y-100159849D01*
X113048918Y-100235707D01*
X113088757Y-100254284D01*
X113094065Y-100255706D01*
X113094067Y-100255707D01*
X113304598Y-100312119D01*
X113304600Y-100312119D01*
X113309913Y-100313543D01*
X113538000Y-100333498D01*
X113766087Y-100313543D01*
X113771400Y-100312119D01*
X113771402Y-100312119D01*
X113981933Y-100255707D01*
X113981935Y-100255706D01*
X113987243Y-100254284D01*
X114027082Y-100235707D01*
X114189762Y-100159849D01*
X114189767Y-100159846D01*
X114194749Y-100157523D01*
X114346469Y-100051287D01*
X114418740Y-100028500D01*
X116213500Y-100028500D01*
X116281621Y-100048502D01*
X116328114Y-100102158D01*
X116339500Y-100154500D01*
X116339500Y-111499260D01*
X116316713Y-111571531D01*
X116210477Y-111723251D01*
X116208154Y-111728233D01*
X116208151Y-111728238D01*
X116116039Y-111925775D01*
X116113716Y-111930757D01*
X116054457Y-112151913D01*
X116034502Y-112380000D01*
X116054457Y-112608087D01*
X116113716Y-112829243D01*
X116116039Y-112834224D01*
X116116039Y-112834225D01*
X116208151Y-113031762D01*
X116208154Y-113031767D01*
X116210477Y-113036749D01*
X116341802Y-113224300D01*
X116503700Y-113386198D01*
X116508208Y-113389355D01*
X116508211Y-113389357D01*
X116532998Y-113406713D01*
X116691251Y-113517523D01*
X116696233Y-113519846D01*
X116696238Y-113519849D01*
X116883878Y-113607346D01*
X116898757Y-113614284D01*
X116904065Y-113615706D01*
X116904067Y-113615707D01*
X117114598Y-113672119D01*
X117114600Y-113672119D01*
X117119913Y-113673543D01*
X117348000Y-113693498D01*
X117576087Y-113673543D01*
X117581400Y-113672119D01*
X117581402Y-113672119D01*
X117791933Y-113615707D01*
X117791935Y-113615706D01*
X117797243Y-113614284D01*
X117812122Y-113607346D01*
X117999762Y-113519849D01*
X117999767Y-113519846D01*
X118004749Y-113517523D01*
X118163002Y-113406713D01*
X118187789Y-113389357D01*
X118187792Y-113389355D01*
X118192300Y-113386198D01*
X118354198Y-113224300D01*
X118485523Y-113036749D01*
X118487846Y-113031767D01*
X118487849Y-113031762D01*
X118579961Y-112834225D01*
X118579961Y-112834224D01*
X118582284Y-112829243D01*
X118641543Y-112608087D01*
X118661498Y-112380000D01*
X118641543Y-112151913D01*
X118582284Y-111930757D01*
X118579961Y-111925775D01*
X118487849Y-111728238D01*
X118487846Y-111728233D01*
X118485523Y-111723251D01*
X118379287Y-111571531D01*
X118356500Y-111499260D01*
X118356500Y-100194500D01*
X118376502Y-100126379D01*
X118430158Y-100079886D01*
X118482500Y-100068500D01*
X120531260Y-100068500D01*
X120603531Y-100091287D01*
X120755251Y-100197523D01*
X120760233Y-100199846D01*
X120760238Y-100199849D01*
X120957775Y-100291961D01*
X120962757Y-100294284D01*
X120968065Y-100295706D01*
X120968067Y-100295707D01*
X121178598Y-100352119D01*
X121178600Y-100352119D01*
X121183913Y-100353543D01*
X121412000Y-100373498D01*
X121640087Y-100353543D01*
X121645400Y-100352119D01*
X121645402Y-100352119D01*
X121855933Y-100295707D01*
X121855935Y-100295706D01*
X121861243Y-100294284D01*
X121866225Y-100291961D01*
X122063762Y-100199849D01*
X122063767Y-100199846D01*
X122068749Y-100197523D01*
X122220469Y-100091287D01*
X122292740Y-100068500D01*
X125611260Y-100068500D01*
X125683531Y-100091287D01*
X125835251Y-100197523D01*
X125840233Y-100199846D01*
X125840238Y-100199849D01*
X126037775Y-100291961D01*
X126042757Y-100294284D01*
X126048065Y-100295706D01*
X126048067Y-100295707D01*
X126258598Y-100352119D01*
X126258600Y-100352119D01*
X126263913Y-100353543D01*
X126492000Y-100373498D01*
X126720087Y-100353543D01*
X126725400Y-100352119D01*
X126725402Y-100352119D01*
X126935933Y-100295707D01*
X126935935Y-100295706D01*
X126941243Y-100294284D01*
X126946225Y-100291961D01*
X127143762Y-100199849D01*
X127143767Y-100199846D01*
X127148749Y-100197523D01*
X127300469Y-100091287D01*
X127372740Y-100068500D01*
X129675260Y-100068500D01*
X129747531Y-100091287D01*
X129899251Y-100197523D01*
X129904233Y-100199846D01*
X129904238Y-100199849D01*
X130101775Y-100291961D01*
X130106757Y-100294284D01*
X130112065Y-100295706D01*
X130112067Y-100295707D01*
X130322598Y-100352119D01*
X130322600Y-100352119D01*
X130327913Y-100353543D01*
X130556000Y-100373498D01*
X130784087Y-100353543D01*
X130789400Y-100352119D01*
X130789402Y-100352119D01*
X130999933Y-100295707D01*
X130999935Y-100295706D01*
X131005243Y-100294284D01*
X131010225Y-100291961D01*
X131207762Y-100199849D01*
X131207767Y-100199846D01*
X131212749Y-100197523D01*
X131364469Y-100091287D01*
X131436740Y-100068500D01*
X133485500Y-100068500D01*
X133553621Y-100088502D01*
X133600114Y-100142158D01*
X133611500Y-100194500D01*
X133611500Y-117410157D01*
X133610763Y-117423764D01*
X133606676Y-117461388D01*
X133607213Y-117467523D01*
X133611050Y-117511388D01*
X133611379Y-117516214D01*
X133611500Y-117518686D01*
X133611500Y-117521769D01*
X133611801Y-117524837D01*
X133615690Y-117564506D01*
X133615812Y-117565819D01*
X133623913Y-117658413D01*
X133625400Y-117663532D01*
X133625920Y-117668833D01*
X133652791Y-117757834D01*
X133653126Y-117758967D01*
X133675099Y-117834595D01*
X133679091Y-117848336D01*
X133681544Y-117853068D01*
X133683084Y-117858169D01*
X133685978Y-117863612D01*
X133726731Y-117940260D01*
X133727343Y-117941426D01*
X133751001Y-117987065D01*
X133770108Y-118023926D01*
X133773431Y-118028089D01*
X133775934Y-118032796D01*
X133834755Y-118104918D01*
X133835446Y-118105774D01*
X133866738Y-118144973D01*
X133869242Y-118147477D01*
X133869884Y-118148195D01*
X133873585Y-118152528D01*
X133900935Y-118186062D01*
X133905682Y-118189989D01*
X133905684Y-118189991D01*
X133936262Y-118215287D01*
X133945042Y-118223277D01*
X134982595Y-119260829D01*
X135016620Y-119323141D01*
X135019500Y-119349924D01*
X135019500Y-119920400D01*
X135019837Y-119923646D01*
X135019837Y-119923650D01*
X135029591Y-120017655D01*
X135030474Y-120026166D01*
X135086450Y-120193946D01*
X135179522Y-120344348D01*
X135304697Y-120469305D01*
X135310927Y-120473145D01*
X135310928Y-120473146D01*
X135448090Y-120557694D01*
X135455262Y-120562115D01*
X135497049Y-120575975D01*
X135616611Y-120615632D01*
X135616613Y-120615632D01*
X135623139Y-120617797D01*
X135629975Y-120618497D01*
X135629978Y-120618498D01*
X135663828Y-120621966D01*
X135727600Y-120628500D01*
X137068400Y-120628500D01*
X137071646Y-120628163D01*
X137071650Y-120628163D01*
X137167308Y-120618238D01*
X137167312Y-120618237D01*
X137174166Y-120617526D01*
X137180702Y-120615345D01*
X137180704Y-120615345D01*
X137312806Y-120571272D01*
X137341946Y-120561550D01*
X137492348Y-120468478D01*
X137571214Y-120389474D01*
X138163355Y-120389474D01*
X138168636Y-120396529D01*
X138336087Y-120494380D01*
X138345370Y-120498827D01*
X138547402Y-120575975D01*
X138557300Y-120578851D01*
X138769219Y-120621966D01*
X138779447Y-120623185D01*
X138995560Y-120631111D01*
X139005846Y-120630644D01*
X139220353Y-120603164D01*
X139230439Y-120601021D01*
X139437581Y-120538875D01*
X139447158Y-120535122D01*
X139641378Y-120439975D01*
X139650216Y-120434706D01*
X139701587Y-120398064D01*
X139709988Y-120387364D01*
X139703002Y-120374213D01*
X138950811Y-119622021D01*
X138936868Y-119614408D01*
X138935034Y-119614539D01*
X138928420Y-119618790D01*
X138170112Y-120377099D01*
X138163355Y-120389474D01*
X137571214Y-120389474D01*
X137617305Y-120343303D01*
X137652193Y-120286704D01*
X137706275Y-120198968D01*
X137706276Y-120198966D01*
X137710115Y-120192738D01*
X137742787Y-120094235D01*
X137783218Y-120035875D01*
X137807687Y-120021102D01*
X138565979Y-119262811D01*
X138572356Y-119251132D01*
X139302408Y-119251132D01*
X139302539Y-119252966D01*
X139306790Y-119259580D01*
X140062810Y-120015599D01*
X140074816Y-120022155D01*
X140086555Y-120013186D01*
X140120206Y-119966356D01*
X140125516Y-119957519D01*
X140221329Y-119763655D01*
X140225128Y-119754060D01*
X140287991Y-119547156D01*
X140290170Y-119537075D01*
X140318635Y-119320868D01*
X140319154Y-119314193D01*
X140320641Y-119253364D01*
X140320447Y-119246646D01*
X140302580Y-119029316D01*
X140300897Y-119019154D01*
X140248213Y-118809407D01*
X140244895Y-118799660D01*
X140158659Y-118601330D01*
X140153792Y-118592255D01*
X140085528Y-118486734D01*
X140074843Y-118477531D01*
X140065276Y-118481935D01*
X139310021Y-119237189D01*
X139302408Y-119251132D01*
X138572356Y-119251132D01*
X138573592Y-119248868D01*
X138573461Y-119247034D01*
X138569210Y-119240420D01*
X137813453Y-118484664D01*
X137802734Y-118478811D01*
X137752532Y-118428609D01*
X137743595Y-118408099D01*
X137711868Y-118313002D01*
X137709550Y-118306054D01*
X137616478Y-118155652D01*
X137572891Y-118112141D01*
X138164936Y-118112141D01*
X138171679Y-118124468D01*
X138925189Y-118877979D01*
X138939132Y-118885592D01*
X138940966Y-118885461D01*
X138947580Y-118881210D01*
X139705633Y-118123156D01*
X139712650Y-118110305D01*
X139705295Y-118100210D01*
X139698664Y-118095804D01*
X139509334Y-117991288D01*
X139499937Y-117987065D01*
X139296086Y-117914877D01*
X139286115Y-117912243D01*
X139073216Y-117874321D01*
X139062962Y-117873351D01*
X138846716Y-117870708D01*
X138836431Y-117871428D01*
X138622666Y-117904138D01*
X138612647Y-117906525D01*
X138407086Y-117973713D01*
X138397584Y-117977708D01*
X138205768Y-118077560D01*
X138197048Y-118083052D01*
X138173390Y-118100815D01*
X138164936Y-118112141D01*
X137572891Y-118112141D01*
X137491303Y-118030695D01*
X137471443Y-118018453D01*
X137346968Y-117941725D01*
X137346966Y-117941724D01*
X137340738Y-117937885D01*
X137246190Y-117906525D01*
X137179389Y-117884368D01*
X137179387Y-117884368D01*
X137172861Y-117882203D01*
X137166025Y-117881503D01*
X137166022Y-117881502D01*
X137122969Y-117877091D01*
X137068400Y-117871500D01*
X136497924Y-117871500D01*
X136429803Y-117851498D01*
X136408829Y-117834595D01*
X135665405Y-117091171D01*
X135631379Y-117028859D01*
X135628500Y-117002076D01*
X135628500Y-100194500D01*
X135648502Y-100126379D01*
X135702158Y-100079886D01*
X135754500Y-100068500D01*
X137803260Y-100068500D01*
X137875531Y-100091287D01*
X138027251Y-100197523D01*
X138032233Y-100199846D01*
X138032238Y-100199849D01*
X138229775Y-100291961D01*
X138234757Y-100294284D01*
X138240065Y-100295706D01*
X138240067Y-100295707D01*
X138450598Y-100352119D01*
X138450600Y-100352119D01*
X138455913Y-100353543D01*
X138684000Y-100373498D01*
X138912087Y-100353543D01*
X138917400Y-100352119D01*
X138917402Y-100352119D01*
X139127933Y-100295707D01*
X139127935Y-100295706D01*
X139133243Y-100294284D01*
X139138225Y-100291961D01*
X139335762Y-100199849D01*
X139335767Y-100199846D01*
X139340749Y-100197523D01*
X139492469Y-100091287D01*
X139564740Y-100068500D01*
X141867260Y-100068500D01*
X141939531Y-100091287D01*
X142091251Y-100197523D01*
X142096233Y-100199846D01*
X142096238Y-100199849D01*
X142293775Y-100291961D01*
X142298757Y-100294284D01*
X142304065Y-100295706D01*
X142304067Y-100295707D01*
X142514598Y-100352119D01*
X142514600Y-100352119D01*
X142519913Y-100353543D01*
X142748000Y-100373498D01*
X142976087Y-100353543D01*
X142981400Y-100352119D01*
X142981402Y-100352119D01*
X143191933Y-100295707D01*
X143191935Y-100295706D01*
X143197243Y-100294284D01*
X143202225Y-100291961D01*
X143399762Y-100199849D01*
X143399767Y-100199846D01*
X143404749Y-100197523D01*
X143540944Y-100102158D01*
X143587789Y-100069357D01*
X143587792Y-100069355D01*
X143592300Y-100066198D01*
X143754198Y-99904300D01*
X143885523Y-99716749D01*
X143887846Y-99711767D01*
X143887849Y-99711762D01*
X143979961Y-99514225D01*
X143979961Y-99514224D01*
X143982284Y-99509243D01*
X144041543Y-99288087D01*
X144061498Y-99060000D01*
X144041543Y-98831913D01*
X143982284Y-98610757D01*
X143951983Y-98545775D01*
X143887849Y-98408238D01*
X143887846Y-98408233D01*
X143885523Y-98403251D01*
X143754198Y-98215700D01*
X143592300Y-98053802D01*
X143587792Y-98050645D01*
X143587789Y-98050643D01*
X143502100Y-97990643D01*
X143404749Y-97922477D01*
X143399767Y-97920154D01*
X143399762Y-97920151D01*
X143202225Y-97828039D01*
X143202224Y-97828039D01*
X143197243Y-97825716D01*
X143191935Y-97824294D01*
X143191933Y-97824293D01*
X142981402Y-97767881D01*
X142981400Y-97767881D01*
X142976087Y-97766457D01*
X142748000Y-97746502D01*
X142519913Y-97766457D01*
X142514600Y-97767881D01*
X142514598Y-97767881D01*
X142304067Y-97824293D01*
X142304065Y-97824294D01*
X142298757Y-97825716D01*
X142293776Y-97828039D01*
X142293775Y-97828039D01*
X142096238Y-97920151D01*
X142096233Y-97920154D01*
X142091251Y-97922477D01*
X141964114Y-98011500D01*
X141939531Y-98028713D01*
X141867260Y-98051500D01*
X139564740Y-98051500D01*
X139492469Y-98028713D01*
X139467886Y-98011500D01*
X139340749Y-97922477D01*
X139335767Y-97920154D01*
X139335762Y-97920151D01*
X139138225Y-97828039D01*
X139138224Y-97828039D01*
X139133243Y-97825716D01*
X139127935Y-97824294D01*
X139127933Y-97824293D01*
X138917402Y-97767881D01*
X138917400Y-97767881D01*
X138912087Y-97766457D01*
X138684000Y-97746502D01*
X138455913Y-97766457D01*
X138450600Y-97767881D01*
X138450598Y-97767881D01*
X138240067Y-97824293D01*
X138240065Y-97824294D01*
X138234757Y-97825716D01*
X138229776Y-97828039D01*
X138229775Y-97828039D01*
X138032238Y-97920151D01*
X138032233Y-97920154D01*
X138027251Y-97922477D01*
X137900114Y-98011500D01*
X137875531Y-98028713D01*
X137803260Y-98051500D01*
X135500740Y-98051500D01*
X135428469Y-98028713D01*
X135403886Y-98011500D01*
X135276749Y-97922477D01*
X135271767Y-97920154D01*
X135271762Y-97920151D01*
X135074225Y-97828039D01*
X135074224Y-97828039D01*
X135069243Y-97825716D01*
X135063935Y-97824294D01*
X135063933Y-97824293D01*
X134853402Y-97767881D01*
X134853400Y-97767881D01*
X134848087Y-97766457D01*
X134620000Y-97746502D01*
X134391913Y-97766457D01*
X134386600Y-97767881D01*
X134386598Y-97767881D01*
X134176067Y-97824293D01*
X134176065Y-97824294D01*
X134170757Y-97825716D01*
X134165776Y-97828039D01*
X134165775Y-97828039D01*
X133968238Y-97920151D01*
X133968233Y-97920154D01*
X133963251Y-97922477D01*
X133836114Y-98011500D01*
X133811531Y-98028713D01*
X133739260Y-98051500D01*
X131436740Y-98051500D01*
X131364469Y-98028713D01*
X131339886Y-98011500D01*
X131212749Y-97922477D01*
X131207767Y-97920154D01*
X131207762Y-97920151D01*
X131010225Y-97828039D01*
X131010224Y-97828039D01*
X131005243Y-97825716D01*
X130999935Y-97824294D01*
X130999933Y-97824293D01*
X130789402Y-97767881D01*
X130789400Y-97767881D01*
X130784087Y-97766457D01*
X130556000Y-97746502D01*
X130327913Y-97766457D01*
X130322600Y-97767881D01*
X130322598Y-97767881D01*
X130112067Y-97824293D01*
X130112065Y-97824294D01*
X130106757Y-97825716D01*
X130101776Y-97828039D01*
X130101775Y-97828039D01*
X129904238Y-97920151D01*
X129904233Y-97920154D01*
X129899251Y-97922477D01*
X129772114Y-98011500D01*
X129747531Y-98028713D01*
X129675260Y-98051500D01*
X127372740Y-98051500D01*
X127300469Y-98028713D01*
X127275886Y-98011500D01*
X127148749Y-97922477D01*
X127143767Y-97920154D01*
X127143762Y-97920151D01*
X126946225Y-97828039D01*
X126946224Y-97828039D01*
X126941243Y-97825716D01*
X126935935Y-97824294D01*
X126935933Y-97824293D01*
X126725402Y-97767881D01*
X126725400Y-97767881D01*
X126720087Y-97766457D01*
X126492000Y-97746502D01*
X126263913Y-97766457D01*
X126258600Y-97767881D01*
X126258598Y-97767881D01*
X126048067Y-97824293D01*
X126048065Y-97824294D01*
X126042757Y-97825716D01*
X126037776Y-97828039D01*
X126037775Y-97828039D01*
X125840238Y-97920151D01*
X125840233Y-97920154D01*
X125835251Y-97922477D01*
X125708114Y-98011500D01*
X125683531Y-98028713D01*
X125611260Y-98051500D01*
X122292740Y-98051500D01*
X122220469Y-98028713D01*
X122195886Y-98011500D01*
X122068749Y-97922477D01*
X122063767Y-97920154D01*
X122063762Y-97920151D01*
X121866225Y-97828039D01*
X121866224Y-97828039D01*
X121861243Y-97825716D01*
X121855935Y-97824294D01*
X121855933Y-97824293D01*
X121645402Y-97767881D01*
X121645400Y-97767881D01*
X121640087Y-97766457D01*
X121412000Y-97746502D01*
X121183913Y-97766457D01*
X121178600Y-97767881D01*
X121178598Y-97767881D01*
X120968067Y-97824293D01*
X120968065Y-97824294D01*
X120962757Y-97825716D01*
X120957776Y-97828039D01*
X120957775Y-97828039D01*
X120760238Y-97920151D01*
X120760233Y-97920154D01*
X120755251Y-97922477D01*
X120628114Y-98011500D01*
X120603531Y-98028713D01*
X120531260Y-98051500D01*
X118228740Y-98051500D01*
X118156469Y-98028713D01*
X118131886Y-98011500D01*
X118004749Y-97922477D01*
X117999767Y-97920154D01*
X117999762Y-97920151D01*
X117802225Y-97828039D01*
X117802224Y-97828039D01*
X117797243Y-97825716D01*
X117791935Y-97824294D01*
X117791933Y-97824293D01*
X117581402Y-97767881D01*
X117581400Y-97767881D01*
X117576087Y-97766457D01*
X117348000Y-97746502D01*
X117119913Y-97766457D01*
X117114600Y-97767881D01*
X117114598Y-97767881D01*
X116904067Y-97824293D01*
X116904065Y-97824294D01*
X116898757Y-97825716D01*
X116893776Y-97828039D01*
X116893775Y-97828039D01*
X116696238Y-97920151D01*
X116696233Y-97920154D01*
X116691251Y-97922477D01*
X116686744Y-97925633D01*
X116686742Y-97925634D01*
X116596656Y-97988713D01*
X116524385Y-98011500D01*
X114418740Y-98011500D01*
X114346469Y-97988713D01*
X114256383Y-97925634D01*
X114194749Y-97882477D01*
X114189767Y-97880154D01*
X114189762Y-97880151D01*
X113992225Y-97788039D01*
X113992224Y-97788039D01*
X113987243Y-97785716D01*
X113981935Y-97784294D01*
X113981933Y-97784293D01*
X113771402Y-97727881D01*
X113771400Y-97727881D01*
X113766087Y-97726457D01*
X113538000Y-97706502D01*
X113309913Y-97726457D01*
X113304600Y-97727881D01*
X113304598Y-97727881D01*
X113094067Y-97784293D01*
X113094065Y-97784294D01*
X113088757Y-97785716D01*
X113083776Y-97788039D01*
X113083775Y-97788039D01*
X112886238Y-97880151D01*
X112886233Y-97880154D01*
X112881251Y-97882477D01*
X112819617Y-97925634D01*
X112729531Y-97988713D01*
X112657260Y-98011500D01*
X110608740Y-98011500D01*
X110536469Y-97988713D01*
X110446383Y-97925634D01*
X110384749Y-97882477D01*
X110379767Y-97880154D01*
X110379762Y-97880151D01*
X110182225Y-97788039D01*
X110182224Y-97788039D01*
X110177243Y-97785716D01*
X110171935Y-97784294D01*
X110171933Y-97784293D01*
X109961402Y-97727881D01*
X109961400Y-97727881D01*
X109956087Y-97726457D01*
X109728000Y-97706502D01*
X109499913Y-97726457D01*
X109494600Y-97727881D01*
X109494598Y-97727881D01*
X109284067Y-97784293D01*
X109284065Y-97784294D01*
X109278757Y-97785716D01*
X109273776Y-97788039D01*
X109273775Y-97788039D01*
X109076238Y-97880151D01*
X109076233Y-97880154D01*
X109071251Y-97882477D01*
X109066744Y-97885633D01*
X109066742Y-97885634D01*
X108948093Y-97968713D01*
X108875822Y-97991500D01*
X106880740Y-97991500D01*
X106808469Y-97968713D01*
X106742437Y-97922477D01*
X106656749Y-97862477D01*
X106651767Y-97860154D01*
X106651762Y-97860151D01*
X106454225Y-97768039D01*
X106454224Y-97768039D01*
X106449243Y-97765716D01*
X106443935Y-97764294D01*
X106443933Y-97764293D01*
X106233402Y-97707881D01*
X106233400Y-97707881D01*
X106228087Y-97706457D01*
X106000000Y-97686502D01*
X105771913Y-97706457D01*
X105766600Y-97707881D01*
X105766598Y-97707881D01*
X105556067Y-97764293D01*
X105556065Y-97764294D01*
X105550757Y-97765716D01*
X105545776Y-97768039D01*
X105545775Y-97768039D01*
X105348238Y-97860151D01*
X105348233Y-97860154D01*
X105343251Y-97862477D01*
X105260884Y-97920151D01*
X105160211Y-97990643D01*
X105160208Y-97990645D01*
X105155700Y-97993802D01*
X104993802Y-98155700D01*
X104862477Y-98343251D01*
X104860154Y-98348233D01*
X104860151Y-98348238D01*
X104832173Y-98408238D01*
X104765716Y-98550757D01*
X104706457Y-98771913D01*
X104686502Y-99000000D01*
X100508500Y-99000000D01*
X100508500Y-94000000D01*
X104686502Y-94000000D01*
X104706457Y-94228087D01*
X104707881Y-94233400D01*
X104707881Y-94233402D01*
X104710348Y-94242607D01*
X104765716Y-94449243D01*
X104768039Y-94454224D01*
X104768039Y-94454225D01*
X104860151Y-94651762D01*
X104860154Y-94651767D01*
X104862477Y-94656749D01*
X104993802Y-94844300D01*
X105155700Y-95006198D01*
X105160208Y-95009355D01*
X105160211Y-95009357D01*
X105178697Y-95022301D01*
X105343251Y-95137523D01*
X105348233Y-95139846D01*
X105348238Y-95139849D01*
X105471922Y-95197523D01*
X105550757Y-95234284D01*
X105556065Y-95235706D01*
X105556067Y-95235707D01*
X105766598Y-95292119D01*
X105766600Y-95292119D01*
X105771913Y-95293543D01*
X106000000Y-95313498D01*
X106228087Y-95293543D01*
X106233400Y-95292119D01*
X106233402Y-95292119D01*
X106443933Y-95235707D01*
X106443935Y-95235706D01*
X106449243Y-95234284D01*
X106528078Y-95197523D01*
X106651762Y-95139849D01*
X106651767Y-95139846D01*
X106656749Y-95137523D01*
X106821303Y-95022301D01*
X106839789Y-95009357D01*
X106839792Y-95009355D01*
X106844300Y-95006198D01*
X107006198Y-94844300D01*
X107137523Y-94656749D01*
X107139846Y-94651767D01*
X107139849Y-94651762D01*
X107231961Y-94454225D01*
X107231961Y-94454224D01*
X107234284Y-94449243D01*
X107289653Y-94242607D01*
X107292119Y-94233402D01*
X107292119Y-94233400D01*
X107293543Y-94228087D01*
X107313498Y-94000000D01*
X107293543Y-93771913D01*
X107292119Y-93766598D01*
X107235707Y-93556067D01*
X107235706Y-93556065D01*
X107234284Y-93550757D01*
X107167827Y-93408238D01*
X107139849Y-93348238D01*
X107139846Y-93348233D01*
X107137523Y-93343251D01*
X107031287Y-93191531D01*
X107008500Y-93119260D01*
X107008500Y-87969925D01*
X107028502Y-87901804D01*
X107045405Y-87880830D01*
X107283279Y-87642956D01*
X107345591Y-87608930D01*
X107412038Y-87612457D01*
X107421610Y-87615632D01*
X107421615Y-87615633D01*
X107428139Y-87617797D01*
X107434975Y-87618497D01*
X107434978Y-87618498D01*
X107478031Y-87622909D01*
X107532600Y-87628500D01*
X108873400Y-87628500D01*
X108876646Y-87628163D01*
X108876650Y-87628163D01*
X108972308Y-87618238D01*
X108972312Y-87618237D01*
X108979166Y-87617526D01*
X108985702Y-87615345D01*
X108985704Y-87615345D01*
X109139998Y-87563868D01*
X109146946Y-87561550D01*
X109297348Y-87468478D01*
X109422305Y-87343303D01*
X109428294Y-87333588D01*
X109472832Y-87261333D01*
X109501240Y-87215247D01*
X109554012Y-87167754D01*
X109624084Y-87156330D01*
X109689208Y-87184604D01*
X109728707Y-87243598D01*
X109734500Y-87281363D01*
X109734500Y-87787076D01*
X109714498Y-87855197D01*
X109697595Y-87876171D01*
X109058621Y-88515145D01*
X109048478Y-88524247D01*
X109018975Y-88547968D01*
X109015008Y-88552696D01*
X108986709Y-88586421D01*
X108983528Y-88590069D01*
X108981885Y-88591881D01*
X108979691Y-88594075D01*
X108952358Y-88627349D01*
X108951696Y-88628147D01*
X108891846Y-88699474D01*
X108889278Y-88704144D01*
X108885897Y-88708261D01*
X108854860Y-88766145D01*
X108842023Y-88790086D01*
X108841394Y-88791245D01*
X108799538Y-88867381D01*
X108799535Y-88867389D01*
X108796567Y-88872787D01*
X108794955Y-88877869D01*
X108792438Y-88882563D01*
X108765238Y-88971531D01*
X108764918Y-88972559D01*
X108736765Y-89061306D01*
X108736171Y-89066602D01*
X108734613Y-89071698D01*
X108725667Y-89159769D01*
X108725218Y-89164187D01*
X108725089Y-89165393D01*
X108721822Y-89194528D01*
X108720780Y-89203819D01*
X108719500Y-89215227D01*
X108719500Y-89218754D01*
X108719445Y-89219739D01*
X108718998Y-89225419D01*
X108714626Y-89268462D01*
X108718232Y-89306609D01*
X108718941Y-89314109D01*
X108719500Y-89325967D01*
X108719500Y-93139260D01*
X108696713Y-93211531D01*
X108590477Y-93363251D01*
X108588154Y-93368233D01*
X108588151Y-93368238D01*
X108569499Y-93408238D01*
X108493716Y-93570757D01*
X108492294Y-93576065D01*
X108492293Y-93576067D01*
X108435881Y-93786598D01*
X108434457Y-93791913D01*
X108414502Y-94020000D01*
X108434457Y-94248087D01*
X108493716Y-94469243D01*
X108496039Y-94474224D01*
X108496039Y-94474225D01*
X108588151Y-94671762D01*
X108588154Y-94671767D01*
X108590477Y-94676749D01*
X108621642Y-94721257D01*
X108710527Y-94848197D01*
X108721802Y-94864300D01*
X108883700Y-95026198D01*
X108888208Y-95029355D01*
X108888211Y-95029357D01*
X108935260Y-95062301D01*
X109071251Y-95157523D01*
X109076233Y-95159846D01*
X109076238Y-95159849D01*
X109238918Y-95235707D01*
X109278757Y-95254284D01*
X109284065Y-95255706D01*
X109284067Y-95255707D01*
X109494598Y-95312119D01*
X109494600Y-95312119D01*
X109499913Y-95313543D01*
X109728000Y-95333498D01*
X109956087Y-95313543D01*
X109961400Y-95312119D01*
X109961402Y-95312119D01*
X110171933Y-95255707D01*
X110171935Y-95255706D01*
X110177243Y-95254284D01*
X110217082Y-95235707D01*
X110379762Y-95159849D01*
X110379767Y-95159846D01*
X110384749Y-95157523D01*
X110520740Y-95062301D01*
X110567789Y-95029357D01*
X110567792Y-95029355D01*
X110572300Y-95026198D01*
X110734198Y-94864300D01*
X110745474Y-94848197D01*
X110834358Y-94721257D01*
X110865523Y-94676749D01*
X110867846Y-94671767D01*
X110867849Y-94671762D01*
X110959961Y-94474225D01*
X110959961Y-94474224D01*
X110962284Y-94469243D01*
X111021543Y-94248087D01*
X111041498Y-94020000D01*
X111021543Y-93791913D01*
X111020119Y-93786598D01*
X110963707Y-93576067D01*
X110963706Y-93576065D01*
X110962284Y-93570757D01*
X110886501Y-93408238D01*
X110867849Y-93368238D01*
X110867846Y-93368233D01*
X110865523Y-93363251D01*
X110759287Y-93211531D01*
X110736500Y-93139260D01*
X110736500Y-89741926D01*
X110756502Y-89673805D01*
X110773404Y-89652831D01*
X111412383Y-89013851D01*
X111422527Y-89004749D01*
X111447218Y-88984897D01*
X111452025Y-88981032D01*
X111484292Y-88942578D01*
X111487472Y-88938931D01*
X111489115Y-88937119D01*
X111491309Y-88934925D01*
X111518642Y-88901651D01*
X111519348Y-88900800D01*
X111538590Y-88877869D01*
X111579154Y-88829526D01*
X111581722Y-88824856D01*
X111585103Y-88820739D01*
X111629015Y-88738842D01*
X111629624Y-88737720D01*
X111632623Y-88732266D01*
X111645716Y-88708449D01*
X111671466Y-88661611D01*
X111671468Y-88661606D01*
X111674433Y-88656213D01*
X111676044Y-88651135D01*
X111678563Y-88646437D01*
X111705753Y-88557502D01*
X111706136Y-88556272D01*
X111707271Y-88552696D01*
X111734235Y-88467694D01*
X111734828Y-88462403D01*
X111736388Y-88457302D01*
X111745795Y-88364689D01*
X111745915Y-88363569D01*
X111751500Y-88313773D01*
X111751500Y-88310244D01*
X111751555Y-88309261D01*
X111752004Y-88303556D01*
X111755752Y-88266664D01*
X111755752Y-88266661D01*
X111756374Y-88260537D01*
X111752059Y-88214888D01*
X111751500Y-88203031D01*
X111751500Y-87243536D01*
X111771502Y-87175415D01*
X111788559Y-87154287D01*
X111792715Y-87150145D01*
X111796378Y-87146495D01*
X111911945Y-86985666D01*
X111967940Y-86942018D01*
X112038643Y-86935572D01*
X112101608Y-86968375D01*
X112121700Y-86993357D01*
X112164089Y-87062529D01*
X112164095Y-87062537D01*
X112166793Y-87066940D01*
X112243738Y-87155768D01*
X112273220Y-87220351D01*
X112274500Y-87238263D01*
X112274500Y-93663203D01*
X112270207Y-93695812D01*
X112244457Y-93791913D01*
X112224502Y-94020000D01*
X112244457Y-94248087D01*
X112303716Y-94469243D01*
X112306039Y-94474224D01*
X112306039Y-94474225D01*
X112398151Y-94671762D01*
X112398154Y-94671767D01*
X112400477Y-94676749D01*
X112431642Y-94721257D01*
X112520527Y-94848197D01*
X112531802Y-94864300D01*
X112693700Y-95026198D01*
X112698208Y-95029355D01*
X112698211Y-95029357D01*
X112745260Y-95062301D01*
X112881251Y-95157523D01*
X112886233Y-95159846D01*
X112886238Y-95159849D01*
X113048918Y-95235707D01*
X113088757Y-95254284D01*
X113094065Y-95255706D01*
X113094067Y-95255707D01*
X113304598Y-95312119D01*
X113304600Y-95312119D01*
X113309913Y-95313543D01*
X113538000Y-95333498D01*
X113766087Y-95313543D01*
X113771400Y-95312119D01*
X113771402Y-95312119D01*
X113981933Y-95255707D01*
X113981935Y-95255706D01*
X113987243Y-95254284D01*
X114027082Y-95235707D01*
X114189762Y-95159849D01*
X114189767Y-95159846D01*
X114194749Y-95157523D01*
X114330740Y-95062301D01*
X114377789Y-95029357D01*
X114377792Y-95029355D01*
X114382300Y-95026198D01*
X114544198Y-94864300D01*
X114555474Y-94848197D01*
X114644358Y-94721257D01*
X114675523Y-94676749D01*
X114677846Y-94671767D01*
X114677849Y-94671762D01*
X114769961Y-94474225D01*
X114769961Y-94474224D01*
X114772284Y-94469243D01*
X114831543Y-94248087D01*
X114851498Y-94020000D01*
X114831543Y-93791913D01*
X114830119Y-93786598D01*
X114773707Y-93576067D01*
X114773706Y-93576065D01*
X114772284Y-93570757D01*
X114696501Y-93408238D01*
X114677849Y-93368238D01*
X114677846Y-93368233D01*
X114675523Y-93363251D01*
X114544198Y-93175700D01*
X114382300Y-93013802D01*
X114345229Y-92987844D01*
X114300901Y-92932389D01*
X114291500Y-92884632D01*
X114291500Y-87243536D01*
X114311502Y-87175415D01*
X114328559Y-87154287D01*
X114332715Y-87150145D01*
X114336378Y-87146495D01*
X114451945Y-86985666D01*
X114507940Y-86942018D01*
X114578643Y-86935572D01*
X114641608Y-86968375D01*
X114661700Y-86993357D01*
X114704090Y-87062530D01*
X114704093Y-87062535D01*
X114706793Y-87066940D01*
X114731210Y-87095128D01*
X114851824Y-87234369D01*
X114851828Y-87234373D01*
X114855209Y-87238276D01*
X114859184Y-87241576D01*
X114859187Y-87241579D01*
X114914355Y-87287380D01*
X115029615Y-87383071D01*
X115096541Y-87422179D01*
X115220867Y-87494829D01*
X115220870Y-87494831D01*
X115225329Y-87497436D01*
X115230154Y-87499278D01*
X115230155Y-87499279D01*
X115300694Y-87526215D01*
X115437093Y-87578301D01*
X115442161Y-87579332D01*
X115442164Y-87579333D01*
X115497509Y-87590593D01*
X115659221Y-87623494D01*
X115664394Y-87623684D01*
X115664397Y-87623684D01*
X115880583Y-87631611D01*
X115880587Y-87631611D01*
X115885747Y-87631800D01*
X115890867Y-87631144D01*
X115890869Y-87631144D01*
X116107887Y-87603343D01*
X116177997Y-87614527D01*
X116212992Y-87639227D01*
X116302595Y-87728830D01*
X116336621Y-87791142D01*
X116339500Y-87817925D01*
X116339500Y-93179260D01*
X116316713Y-93251531D01*
X116210477Y-93403251D01*
X116208154Y-93408233D01*
X116208151Y-93408238D01*
X116144017Y-93545775D01*
X116113716Y-93610757D01*
X116112294Y-93616065D01*
X116112293Y-93616067D01*
X116071958Y-93766598D01*
X116054457Y-93831913D01*
X116034502Y-94060000D01*
X116054457Y-94288087D01*
X116113716Y-94509243D01*
X116116039Y-94514224D01*
X116116039Y-94514225D01*
X116208151Y-94711762D01*
X116208154Y-94711767D01*
X116210477Y-94716749D01*
X116213634Y-94721257D01*
X116313794Y-94864300D01*
X116341802Y-94904300D01*
X116503700Y-95066198D01*
X116508208Y-95069355D01*
X116508211Y-95069357D01*
X116586389Y-95124098D01*
X116691251Y-95197523D01*
X116696233Y-95199846D01*
X116696238Y-95199849D01*
X116893775Y-95291961D01*
X116898757Y-95294284D01*
X116904065Y-95295706D01*
X116904067Y-95295707D01*
X117114598Y-95352119D01*
X117114600Y-95352119D01*
X117119913Y-95353543D01*
X117348000Y-95373498D01*
X117576087Y-95353543D01*
X117581400Y-95352119D01*
X117581402Y-95352119D01*
X117791933Y-95295707D01*
X117791935Y-95295706D01*
X117797243Y-95294284D01*
X117802225Y-95291961D01*
X117999762Y-95199849D01*
X117999767Y-95199846D01*
X118004749Y-95197523D01*
X118109611Y-95124098D01*
X118187789Y-95069357D01*
X118187792Y-95069355D01*
X118192300Y-95066198D01*
X118354198Y-94904300D01*
X118382207Y-94864300D01*
X118482366Y-94721257D01*
X118485523Y-94716749D01*
X118487846Y-94711767D01*
X118487849Y-94711762D01*
X118579961Y-94514225D01*
X118579961Y-94514224D01*
X118582284Y-94509243D01*
X118641543Y-94288087D01*
X118661498Y-94060000D01*
X120098502Y-94060000D01*
X120118457Y-94288087D01*
X120177716Y-94509243D01*
X120180039Y-94514224D01*
X120180039Y-94514225D01*
X120272151Y-94711762D01*
X120272154Y-94711767D01*
X120274477Y-94716749D01*
X120277634Y-94721257D01*
X120377794Y-94864300D01*
X120405802Y-94904300D01*
X120567700Y-95066198D01*
X120572208Y-95069355D01*
X120572211Y-95069357D01*
X120650389Y-95124098D01*
X120755251Y-95197523D01*
X120760233Y-95199846D01*
X120760238Y-95199849D01*
X120957775Y-95291961D01*
X120962757Y-95294284D01*
X120968065Y-95295706D01*
X120968067Y-95295707D01*
X121178598Y-95352119D01*
X121178600Y-95352119D01*
X121183913Y-95353543D01*
X121412000Y-95373498D01*
X121640087Y-95353543D01*
X121645400Y-95352119D01*
X121645402Y-95352119D01*
X121855933Y-95295707D01*
X121855935Y-95295706D01*
X121861243Y-95294284D01*
X121866225Y-95291961D01*
X122063762Y-95199849D01*
X122063767Y-95199846D01*
X122068749Y-95197523D01*
X122173611Y-95124098D01*
X122251789Y-95069357D01*
X122251792Y-95069355D01*
X122256300Y-95066198D01*
X122418198Y-94904300D01*
X122446207Y-94864300D01*
X122546366Y-94721257D01*
X122549523Y-94716749D01*
X122551846Y-94711767D01*
X122551849Y-94711762D01*
X122643961Y-94514225D01*
X122643961Y-94514224D01*
X122646284Y-94509243D01*
X122705543Y-94288087D01*
X122725498Y-94060000D01*
X122705543Y-93831913D01*
X122688042Y-93766598D01*
X122647707Y-93616067D01*
X122647706Y-93616065D01*
X122646284Y-93610757D01*
X122615983Y-93545775D01*
X122551849Y-93408238D01*
X122551846Y-93408233D01*
X122549523Y-93403251D01*
X122443287Y-93251531D01*
X122420500Y-93179260D01*
X122420500Y-88057925D01*
X122440502Y-87989804D01*
X122457405Y-87968830D01*
X122764848Y-87661387D01*
X122827160Y-87627361D01*
X122866785Y-87625138D01*
X122884280Y-87626930D01*
X122899600Y-87628500D01*
X124240400Y-87628500D01*
X124243646Y-87628163D01*
X124243650Y-87628163D01*
X124339308Y-87618238D01*
X124339312Y-87618237D01*
X124346166Y-87617526D01*
X124352702Y-87615345D01*
X124352704Y-87615345D01*
X124506998Y-87563868D01*
X124513946Y-87561550D01*
X124664348Y-87468478D01*
X124789305Y-87343303D01*
X124795294Y-87333588D01*
X124839832Y-87261333D01*
X124868240Y-87215247D01*
X124921012Y-87167754D01*
X124991084Y-87156330D01*
X125056208Y-87184604D01*
X125095707Y-87243598D01*
X125101500Y-87281363D01*
X125101500Y-89048157D01*
X125100763Y-89061764D01*
X125099686Y-89071682D01*
X125096676Y-89099388D01*
X125097213Y-89105523D01*
X125101050Y-89149388D01*
X125101379Y-89154214D01*
X125101500Y-89156686D01*
X125101500Y-89159769D01*
X125101801Y-89162837D01*
X125105690Y-89202506D01*
X125105812Y-89203819D01*
X125109254Y-89243163D01*
X125113913Y-89296413D01*
X125115400Y-89301532D01*
X125115920Y-89306833D01*
X125142791Y-89395834D01*
X125143126Y-89396967D01*
X125169091Y-89486336D01*
X125171544Y-89491068D01*
X125173084Y-89496169D01*
X125175978Y-89501612D01*
X125216731Y-89578260D01*
X125217343Y-89579426D01*
X125257271Y-89656453D01*
X125260108Y-89661926D01*
X125263431Y-89666089D01*
X125265934Y-89670796D01*
X125324755Y-89742918D01*
X125325446Y-89743774D01*
X125356738Y-89782973D01*
X125359242Y-89785477D01*
X125359884Y-89786195D01*
X125363585Y-89790528D01*
X125390935Y-89824062D01*
X125395683Y-89827990D01*
X125395684Y-89827991D01*
X125426263Y-89853288D01*
X125435042Y-89861277D01*
X125446595Y-89872830D01*
X125480621Y-89935142D01*
X125483500Y-89961925D01*
X125483500Y-93179260D01*
X125460713Y-93251531D01*
X125354477Y-93403251D01*
X125352154Y-93408233D01*
X125352151Y-93408238D01*
X125288017Y-93545775D01*
X125257716Y-93610757D01*
X125256294Y-93616065D01*
X125256293Y-93616067D01*
X125215958Y-93766598D01*
X125198457Y-93831913D01*
X125178502Y-94060000D01*
X125198457Y-94288087D01*
X125257716Y-94509243D01*
X125260039Y-94514224D01*
X125260039Y-94514225D01*
X125352151Y-94711762D01*
X125352154Y-94711767D01*
X125354477Y-94716749D01*
X125357634Y-94721257D01*
X125457794Y-94864300D01*
X125485802Y-94904300D01*
X125647700Y-95066198D01*
X125652208Y-95069355D01*
X125652211Y-95069357D01*
X125730389Y-95124098D01*
X125835251Y-95197523D01*
X125840233Y-95199846D01*
X125840238Y-95199849D01*
X126037775Y-95291961D01*
X126042757Y-95294284D01*
X126048065Y-95295706D01*
X126048067Y-95295707D01*
X126258598Y-95352119D01*
X126258600Y-95352119D01*
X126263913Y-95353543D01*
X126492000Y-95373498D01*
X126720087Y-95353543D01*
X126725400Y-95352119D01*
X126725402Y-95352119D01*
X126935933Y-95295707D01*
X126935935Y-95295706D01*
X126941243Y-95294284D01*
X126946225Y-95291961D01*
X127143762Y-95199849D01*
X127143767Y-95199846D01*
X127148749Y-95197523D01*
X127253611Y-95124098D01*
X127331789Y-95069357D01*
X127331792Y-95069355D01*
X127336300Y-95066198D01*
X127498198Y-94904300D01*
X127526207Y-94864300D01*
X127626366Y-94721257D01*
X127629523Y-94716749D01*
X127631846Y-94711767D01*
X127631849Y-94711762D01*
X127723961Y-94514225D01*
X127723961Y-94514224D01*
X127726284Y-94509243D01*
X127785543Y-94288087D01*
X127805498Y-94060000D01*
X127785543Y-93831913D01*
X127768042Y-93766598D01*
X127727707Y-93616067D01*
X127727706Y-93616065D01*
X127726284Y-93610757D01*
X127695983Y-93545775D01*
X127631849Y-93408238D01*
X127631846Y-93408233D01*
X127629523Y-93403251D01*
X127523287Y-93251531D01*
X127500500Y-93179260D01*
X127500500Y-89641716D01*
X127520502Y-89573595D01*
X127574158Y-89527102D01*
X127644432Y-89516998D01*
X127709012Y-89546492D01*
X127737753Y-89582565D01*
X127756732Y-89618261D01*
X127757343Y-89619426D01*
X127785531Y-89673805D01*
X127800108Y-89701926D01*
X127803431Y-89706089D01*
X127805934Y-89710796D01*
X127864755Y-89782918D01*
X127865446Y-89783774D01*
X127896738Y-89822973D01*
X127899242Y-89825477D01*
X127899884Y-89826195D01*
X127903585Y-89830528D01*
X127930935Y-89864062D01*
X127935682Y-89867989D01*
X127935684Y-89867991D01*
X127966262Y-89893287D01*
X127975042Y-89901277D01*
X128758965Y-90685199D01*
X129510595Y-91436829D01*
X129544620Y-91499141D01*
X129547500Y-91525924D01*
X129547500Y-93179260D01*
X129524713Y-93251531D01*
X129418477Y-93403251D01*
X129416154Y-93408233D01*
X129416151Y-93408238D01*
X129352017Y-93545775D01*
X129321716Y-93610757D01*
X129320294Y-93616065D01*
X129320293Y-93616067D01*
X129279958Y-93766598D01*
X129262457Y-93831913D01*
X129242502Y-94060000D01*
X129262457Y-94288087D01*
X129321716Y-94509243D01*
X129324039Y-94514224D01*
X129324039Y-94514225D01*
X129416151Y-94711762D01*
X129416154Y-94711767D01*
X129418477Y-94716749D01*
X129421634Y-94721257D01*
X129521794Y-94864300D01*
X129549802Y-94904300D01*
X129711700Y-95066198D01*
X129716208Y-95069355D01*
X129716211Y-95069357D01*
X129794389Y-95124098D01*
X129899251Y-95197523D01*
X129904233Y-95199846D01*
X129904238Y-95199849D01*
X130101775Y-95291961D01*
X130106757Y-95294284D01*
X130112065Y-95295706D01*
X130112067Y-95295707D01*
X130322598Y-95352119D01*
X130322600Y-95352119D01*
X130327913Y-95353543D01*
X130556000Y-95373498D01*
X130784087Y-95353543D01*
X130789400Y-95352119D01*
X130789402Y-95352119D01*
X130999933Y-95295707D01*
X130999935Y-95295706D01*
X131005243Y-95294284D01*
X131010225Y-95291961D01*
X131207762Y-95199849D01*
X131207767Y-95199846D01*
X131212749Y-95197523D01*
X131317611Y-95124098D01*
X131395789Y-95069357D01*
X131395792Y-95069355D01*
X131400300Y-95066198D01*
X131562198Y-94904300D01*
X131590207Y-94864300D01*
X131690366Y-94721257D01*
X131693523Y-94716749D01*
X131695846Y-94711767D01*
X131695849Y-94711762D01*
X131787961Y-94514225D01*
X131787961Y-94514224D01*
X131790284Y-94509243D01*
X131849543Y-94288087D01*
X131869498Y-94060000D01*
X131849543Y-93831913D01*
X131832042Y-93766598D01*
X131791707Y-93616067D01*
X131791706Y-93616065D01*
X131790284Y-93610757D01*
X131759983Y-93545775D01*
X131695849Y-93408238D01*
X131695846Y-93408233D01*
X131693523Y-93403251D01*
X131587287Y-93251531D01*
X131564500Y-93179260D01*
X131564500Y-91117843D01*
X131565237Y-91104236D01*
X131568659Y-91072738D01*
X131568659Y-91072733D01*
X131569324Y-91066612D01*
X131566883Y-91038707D01*
X131564950Y-91016612D01*
X131564621Y-91011786D01*
X131564500Y-91009314D01*
X131564500Y-91006231D01*
X131563326Y-90994262D01*
X131560310Y-90963494D01*
X131560188Y-90962181D01*
X131553609Y-90886987D01*
X131552087Y-90869587D01*
X131550600Y-90864468D01*
X131550080Y-90859167D01*
X131523209Y-90770166D01*
X131522874Y-90769033D01*
X131498630Y-90685586D01*
X131498628Y-90685582D01*
X131496909Y-90679664D01*
X131494456Y-90674932D01*
X131492916Y-90669831D01*
X131449269Y-90587740D01*
X131448657Y-90586574D01*
X131408729Y-90509547D01*
X131405892Y-90504074D01*
X131402569Y-90499911D01*
X131400066Y-90495204D01*
X131341245Y-90423082D01*
X131340554Y-90422226D01*
X131309262Y-90383027D01*
X131306758Y-90380523D01*
X131306116Y-90379805D01*
X131302415Y-90375472D01*
X131275065Y-90341938D01*
X131239737Y-90312712D01*
X131230958Y-90304723D01*
X130472727Y-89546492D01*
X129695405Y-88769171D01*
X129661380Y-88706859D01*
X129658500Y-88680076D01*
X129658500Y-87243536D01*
X129678502Y-87175415D01*
X129695559Y-87154287D01*
X129699715Y-87150145D01*
X129703378Y-87146495D01*
X129818945Y-86985666D01*
X129874940Y-86942018D01*
X129945643Y-86935572D01*
X130008608Y-86968375D01*
X130028700Y-86993357D01*
X130071090Y-87062530D01*
X130071093Y-87062535D01*
X130073793Y-87066940D01*
X130098210Y-87095128D01*
X130218824Y-87234369D01*
X130218828Y-87234373D01*
X130222209Y-87238276D01*
X130226184Y-87241576D01*
X130226187Y-87241579D01*
X130281355Y-87287380D01*
X130396615Y-87383071D01*
X130463541Y-87422179D01*
X130587867Y-87494829D01*
X130587870Y-87494831D01*
X130592329Y-87497436D01*
X130597154Y-87499278D01*
X130597155Y-87499279D01*
X130667694Y-87526215D01*
X130804093Y-87578301D01*
X130809161Y-87579332D01*
X130809164Y-87579333D01*
X130864509Y-87590593D01*
X131026221Y-87623494D01*
X131031394Y-87623684D01*
X131031397Y-87623684D01*
X131247583Y-87631611D01*
X131247587Y-87631611D01*
X131252747Y-87631800D01*
X131257867Y-87631144D01*
X131257869Y-87631144D01*
X131352408Y-87619033D01*
X131477588Y-87602997D01*
X131482537Y-87601512D01*
X131482543Y-87601511D01*
X131689756Y-87539344D01*
X131689755Y-87539344D01*
X131694706Y-87537859D01*
X131898270Y-87438134D01*
X131902475Y-87435134D01*
X131902481Y-87435131D01*
X132078609Y-87309500D01*
X132078611Y-87309498D01*
X132082813Y-87306501D01*
X132093949Y-87295404D01*
X132094103Y-87295251D01*
X132156474Y-87261333D01*
X132183044Y-87258500D01*
X132780074Y-87258500D01*
X132848195Y-87278502D01*
X132869169Y-87295404D01*
X133574595Y-88000829D01*
X133608620Y-88063142D01*
X133611500Y-88089925D01*
X133611500Y-93179260D01*
X133588713Y-93251531D01*
X133482477Y-93403251D01*
X133480154Y-93408233D01*
X133480151Y-93408238D01*
X133416017Y-93545775D01*
X133385716Y-93610757D01*
X133384294Y-93616065D01*
X133384293Y-93616067D01*
X133343958Y-93766598D01*
X133326457Y-93831913D01*
X133306502Y-94060000D01*
X133326457Y-94288087D01*
X133385716Y-94509243D01*
X133388039Y-94514224D01*
X133388039Y-94514225D01*
X133480151Y-94711762D01*
X133480154Y-94711767D01*
X133482477Y-94716749D01*
X133485634Y-94721257D01*
X133585794Y-94864300D01*
X133613802Y-94904300D01*
X133775700Y-95066198D01*
X133780208Y-95069355D01*
X133780211Y-95069357D01*
X133858389Y-95124098D01*
X133963251Y-95197523D01*
X133968233Y-95199846D01*
X133968238Y-95199849D01*
X134165775Y-95291961D01*
X134170757Y-95294284D01*
X134176065Y-95295706D01*
X134176067Y-95295707D01*
X134386598Y-95352119D01*
X134386600Y-95352119D01*
X134391913Y-95353543D01*
X134620000Y-95373498D01*
X134848087Y-95353543D01*
X134853400Y-95352119D01*
X134853402Y-95352119D01*
X135063933Y-95295707D01*
X135063935Y-95295706D01*
X135069243Y-95294284D01*
X135074225Y-95291961D01*
X135271762Y-95199849D01*
X135271767Y-95199846D01*
X135276749Y-95197523D01*
X135381611Y-95124098D01*
X135459789Y-95069357D01*
X135459792Y-95069355D01*
X135464300Y-95066198D01*
X135626198Y-94904300D01*
X135654207Y-94864300D01*
X135754366Y-94721257D01*
X135757523Y-94716749D01*
X135759846Y-94711767D01*
X135759849Y-94711762D01*
X135851961Y-94514225D01*
X135851961Y-94514224D01*
X135854284Y-94509243D01*
X135913543Y-94288087D01*
X135933498Y-94060000D01*
X135913543Y-93831913D01*
X135896042Y-93766598D01*
X135855707Y-93616067D01*
X135855706Y-93616065D01*
X135854284Y-93610757D01*
X135823983Y-93545775D01*
X135759849Y-93408238D01*
X135759846Y-93408233D01*
X135757523Y-93403251D01*
X135651287Y-93251531D01*
X135628500Y-93179260D01*
X135628500Y-87681850D01*
X135629237Y-87668242D01*
X135632659Y-87636739D01*
X135633325Y-87630612D01*
X135628947Y-87580570D01*
X135628621Y-87575788D01*
X135628500Y-87573310D01*
X135628500Y-87570231D01*
X135628201Y-87567177D01*
X135628200Y-87567166D01*
X135624313Y-87527529D01*
X135624191Y-87526215D01*
X135620872Y-87488276D01*
X135616087Y-87433587D01*
X135614600Y-87428468D01*
X135614080Y-87423167D01*
X135587209Y-87334166D01*
X135586874Y-87333033D01*
X135562630Y-87249586D01*
X135562628Y-87249582D01*
X135560909Y-87243664D01*
X135558456Y-87238932D01*
X135556916Y-87233831D01*
X135543062Y-87207774D01*
X135513265Y-87151735D01*
X135512651Y-87150565D01*
X135472728Y-87073545D01*
X135472727Y-87073544D01*
X135469892Y-87068074D01*
X135466569Y-87063911D01*
X135464066Y-87059204D01*
X135436057Y-87024861D01*
X135405261Y-86987102D01*
X135404433Y-86986075D01*
X135375469Y-86949792D01*
X135375464Y-86949787D01*
X135373262Y-86947028D01*
X135370761Y-86944527D01*
X135370119Y-86943809D01*
X135366406Y-86939461D01*
X135356629Y-86927474D01*
X135339065Y-86905938D01*
X135334323Y-86902015D01*
X135334321Y-86902013D01*
X135303727Y-86876703D01*
X135294947Y-86868713D01*
X134006855Y-85580621D01*
X133997753Y-85570478D01*
X133977897Y-85545782D01*
X133974032Y-85540975D01*
X133935578Y-85508708D01*
X133931931Y-85505528D01*
X133930119Y-85503885D01*
X133927925Y-85501691D01*
X133894651Y-85474358D01*
X133893853Y-85473696D01*
X133822526Y-85413846D01*
X133817856Y-85411278D01*
X133813739Y-85407897D01*
X133753826Y-85375772D01*
X133731914Y-85364023D01*
X133730755Y-85363394D01*
X133654619Y-85321538D01*
X133654611Y-85321535D01*
X133649213Y-85318567D01*
X133644131Y-85316955D01*
X133639437Y-85314438D01*
X133550469Y-85287238D01*
X133549441Y-85286918D01*
X133460694Y-85258765D01*
X133455398Y-85258171D01*
X133450302Y-85256613D01*
X133357743Y-85247210D01*
X133356607Y-85247089D01*
X133322992Y-85243319D01*
X133310270Y-85241892D01*
X133310266Y-85241892D01*
X133306773Y-85241500D01*
X133303246Y-85241500D01*
X133302261Y-85241445D01*
X133296581Y-85240998D01*
X133267175Y-85238011D01*
X133259663Y-85237248D01*
X133259661Y-85237248D01*
X133253538Y-85236626D01*
X133211259Y-85240623D01*
X133207891Y-85240941D01*
X133196033Y-85241500D01*
X132181069Y-85241500D01*
X132112948Y-85221498D01*
X132102977Y-85214382D01*
X131959519Y-85101085D01*
X131959515Y-85101083D01*
X131955464Y-85097883D01*
X131757015Y-84988334D01*
X131752146Y-84986610D01*
X131752142Y-84986608D01*
X131548214Y-84914393D01*
X131548210Y-84914392D01*
X131543339Y-84912667D01*
X131538246Y-84911760D01*
X131538243Y-84911759D01*
X131465832Y-84898861D01*
X131320173Y-84872915D01*
X131231227Y-84871828D01*
X131098681Y-84870208D01*
X131098679Y-84870208D01*
X131093511Y-84870145D01*
X130869441Y-84904433D01*
X130653979Y-84974857D01*
X130649391Y-84977245D01*
X130649387Y-84977247D01*
X130457502Y-85077136D01*
X130452913Y-85079525D01*
X130448780Y-85082628D01*
X130448777Y-85082630D01*
X130275776Y-85212523D01*
X130271641Y-85215628D01*
X130247555Y-85240833D01*
X130136511Y-85357034D01*
X130115033Y-85379509D01*
X130112119Y-85383781D01*
X130112118Y-85383782D01*
X130023645Y-85513479D01*
X129968734Y-85558482D01*
X129898209Y-85566653D01*
X129834462Y-85535399D01*
X129813767Y-85510918D01*
X129751211Y-85414221D01*
X129748722Y-85410373D01*
X129748720Y-85410370D01*
X129745914Y-85406033D01*
X129593356Y-85238374D01*
X129589305Y-85235175D01*
X129589301Y-85235171D01*
X129419519Y-85101085D01*
X129419515Y-85101083D01*
X129415464Y-85097883D01*
X129217015Y-84988334D01*
X129212146Y-84986610D01*
X129212142Y-84986608D01*
X129008214Y-84914393D01*
X129008210Y-84914392D01*
X129003339Y-84912667D01*
X128998246Y-84911760D01*
X128998243Y-84911759D01*
X128925832Y-84898861D01*
X128780173Y-84872915D01*
X128691227Y-84871828D01*
X128558681Y-84870208D01*
X128558679Y-84870208D01*
X128553511Y-84870145D01*
X128329441Y-84904433D01*
X128113979Y-84974857D01*
X128109391Y-84977245D01*
X128109387Y-84977247D01*
X127917502Y-85077136D01*
X127912913Y-85079525D01*
X127908780Y-85082628D01*
X127908777Y-85082630D01*
X127735776Y-85212523D01*
X127731641Y-85215628D01*
X127707555Y-85240833D01*
X127596511Y-85357034D01*
X127575033Y-85379509D01*
X127572119Y-85383781D01*
X127572118Y-85383782D01*
X127483645Y-85513479D01*
X127428734Y-85558482D01*
X127358209Y-85566653D01*
X127294462Y-85535399D01*
X127273767Y-85510918D01*
X127211211Y-85414221D01*
X127208722Y-85410373D01*
X127208720Y-85410370D01*
X127205914Y-85406033D01*
X127053356Y-85238374D01*
X127049305Y-85235175D01*
X127049301Y-85235171D01*
X126879519Y-85101085D01*
X126879515Y-85101083D01*
X126875464Y-85097883D01*
X126677015Y-84988334D01*
X126672146Y-84986610D01*
X126672142Y-84986608D01*
X126468214Y-84914393D01*
X126468210Y-84914392D01*
X126463339Y-84912667D01*
X126458246Y-84911760D01*
X126458243Y-84911759D01*
X126385832Y-84898861D01*
X126240173Y-84872915D01*
X126151227Y-84871828D01*
X126018681Y-84870208D01*
X126018679Y-84870208D01*
X126013511Y-84870145D01*
X125789441Y-84904433D01*
X125573979Y-84974857D01*
X125569391Y-84977245D01*
X125569387Y-84977247D01*
X125377502Y-85077136D01*
X125372913Y-85079525D01*
X125368780Y-85082628D01*
X125368777Y-85082630D01*
X125195776Y-85212523D01*
X125191641Y-85215628D01*
X125188069Y-85219366D01*
X125081634Y-85330743D01*
X125020109Y-85366173D01*
X124949197Y-85362716D01*
X124891411Y-85321470D01*
X124881821Y-85305887D01*
X124881550Y-85306054D01*
X124792332Y-85161880D01*
X124788478Y-85155652D01*
X124663303Y-85030695D01*
X124576595Y-84977247D01*
X124518968Y-84941725D01*
X124518966Y-84941724D01*
X124512738Y-84937885D01*
X124352254Y-84884655D01*
X124351389Y-84884368D01*
X124351387Y-84884368D01*
X124344861Y-84882203D01*
X124338025Y-84881503D01*
X124338022Y-84881502D01*
X124294969Y-84877091D01*
X124240400Y-84871500D01*
X122899600Y-84871500D01*
X122896354Y-84871837D01*
X122896350Y-84871837D01*
X122800692Y-84881762D01*
X122800688Y-84881763D01*
X122793834Y-84882474D01*
X122787298Y-84884655D01*
X122787296Y-84884655D01*
X122730359Y-84903651D01*
X122626054Y-84938450D01*
X122475652Y-85031522D01*
X122350695Y-85156697D01*
X122346855Y-85162927D01*
X122346854Y-85162928D01*
X122288177Y-85258120D01*
X122257885Y-85307262D01*
X122255580Y-85314210D01*
X122255580Y-85314211D01*
X122248691Y-85334981D01*
X122208261Y-85393341D01*
X122201355Y-85398407D01*
X122198074Y-85400108D01*
X122193911Y-85403431D01*
X122189204Y-85405934D01*
X122184429Y-85409828D01*
X122184428Y-85409829D01*
X122117102Y-85464739D01*
X122116075Y-85465567D01*
X122079792Y-85494531D01*
X122079787Y-85494536D01*
X122077028Y-85496738D01*
X122074527Y-85499239D01*
X122073809Y-85499881D01*
X122069461Y-85503594D01*
X122035938Y-85530935D01*
X122032015Y-85535677D01*
X122032013Y-85535679D01*
X122006703Y-85566273D01*
X121998713Y-85575053D01*
X120742621Y-86831145D01*
X120732478Y-86840247D01*
X120702975Y-86863968D01*
X120689693Y-86879797D01*
X120670709Y-86902421D01*
X120667528Y-86906069D01*
X120665885Y-86907881D01*
X120663691Y-86910075D01*
X120636387Y-86943315D01*
X120635696Y-86944147D01*
X120575846Y-87015474D01*
X120573278Y-87020144D01*
X120569897Y-87024261D01*
X120544921Y-87070841D01*
X120526023Y-87106086D01*
X120525394Y-87107245D01*
X120483538Y-87183381D01*
X120483535Y-87183389D01*
X120480567Y-87188787D01*
X120478955Y-87193869D01*
X120476438Y-87198563D01*
X120449238Y-87287531D01*
X120448918Y-87288559D01*
X120420765Y-87377306D01*
X120420171Y-87382602D01*
X120418613Y-87387698D01*
X120410736Y-87465247D01*
X120409218Y-87480187D01*
X120409089Y-87481393D01*
X120403500Y-87531227D01*
X120403500Y-87534754D01*
X120403445Y-87535739D01*
X120402998Y-87541419D01*
X120398626Y-87584462D01*
X120401894Y-87619033D01*
X120402941Y-87630109D01*
X120403500Y-87641967D01*
X120403500Y-93179260D01*
X120380713Y-93251531D01*
X120274477Y-93403251D01*
X120272154Y-93408233D01*
X120272151Y-93408238D01*
X120208017Y-93545775D01*
X120177716Y-93610757D01*
X120176294Y-93616065D01*
X120176293Y-93616067D01*
X120135958Y-93766598D01*
X120118457Y-93831913D01*
X120098502Y-94060000D01*
X118661498Y-94060000D01*
X118641543Y-93831913D01*
X118624042Y-93766598D01*
X118583707Y-93616067D01*
X118583706Y-93616065D01*
X118582284Y-93610757D01*
X118551983Y-93545775D01*
X118487849Y-93408238D01*
X118487846Y-93408233D01*
X118485523Y-93403251D01*
X118379287Y-93251531D01*
X118356500Y-93179260D01*
X118356500Y-87409840D01*
X118357237Y-87396232D01*
X118360659Y-87364736D01*
X118360659Y-87364732D01*
X118361324Y-87358611D01*
X118358020Y-87320843D01*
X118356950Y-87308609D01*
X118356621Y-87303784D01*
X118356500Y-87301313D01*
X118356500Y-87298231D01*
X118352309Y-87255489D01*
X118352187Y-87254174D01*
X118348533Y-87212413D01*
X118344087Y-87161587D01*
X118342600Y-87156468D01*
X118342080Y-87151167D01*
X118315199Y-87062133D01*
X118314864Y-87061000D01*
X118290627Y-86977578D01*
X118290625Y-86977574D01*
X118288908Y-86971663D01*
X118286457Y-86966934D01*
X118284916Y-86961831D01*
X118241230Y-86879669D01*
X118240683Y-86878627D01*
X118200728Y-86801545D01*
X118200727Y-86801544D01*
X118197892Y-86796074D01*
X118194569Y-86791911D01*
X118192066Y-86787204D01*
X118163556Y-86752247D01*
X118133263Y-86715105D01*
X118132500Y-86714160D01*
X118101261Y-86675027D01*
X118098771Y-86672537D01*
X118098120Y-86671809D01*
X118094408Y-86667463D01*
X118070955Y-86638708D01*
X118067065Y-86633938D01*
X118062323Y-86630015D01*
X118062321Y-86630013D01*
X118031727Y-86604703D01*
X118022947Y-86596713D01*
X117073920Y-85647686D01*
X117047465Y-85608832D01*
X117044102Y-85601097D01*
X117044099Y-85601091D01*
X117042040Y-85596356D01*
X117031940Y-85580743D01*
X116921722Y-85410373D01*
X116921720Y-85410370D01*
X116918914Y-85406033D01*
X116766356Y-85238374D01*
X116762305Y-85235175D01*
X116762301Y-85235171D01*
X116592519Y-85101085D01*
X116592515Y-85101083D01*
X116588464Y-85097883D01*
X116390015Y-84988334D01*
X116385146Y-84986610D01*
X116385142Y-84986608D01*
X116181214Y-84914393D01*
X116181210Y-84914392D01*
X116176339Y-84912667D01*
X116171246Y-84911760D01*
X116171243Y-84911759D01*
X116098832Y-84898861D01*
X115953173Y-84872915D01*
X115864227Y-84871828D01*
X115731681Y-84870208D01*
X115731679Y-84870208D01*
X115726511Y-84870145D01*
X115502441Y-84904433D01*
X115286979Y-84974857D01*
X115282391Y-84977245D01*
X115282387Y-84977247D01*
X115090502Y-85077136D01*
X115085913Y-85079525D01*
X115081780Y-85082628D01*
X115081777Y-85082630D01*
X114908776Y-85212523D01*
X114904641Y-85215628D01*
X114880555Y-85240833D01*
X114769511Y-85357034D01*
X114748033Y-85379509D01*
X114745119Y-85383781D01*
X114745118Y-85383782D01*
X114656645Y-85513479D01*
X114601734Y-85558482D01*
X114531209Y-85566653D01*
X114467462Y-85535399D01*
X114446767Y-85510918D01*
X114384211Y-85414221D01*
X114381722Y-85410373D01*
X114381720Y-85410370D01*
X114378914Y-85406033D01*
X114226356Y-85238374D01*
X114222305Y-85235175D01*
X114222301Y-85235171D01*
X114052519Y-85101085D01*
X114052515Y-85101083D01*
X114048464Y-85097883D01*
X113850015Y-84988334D01*
X113845146Y-84986610D01*
X113845142Y-84986608D01*
X113641214Y-84914393D01*
X113641210Y-84914392D01*
X113636339Y-84912667D01*
X113631246Y-84911760D01*
X113631243Y-84911759D01*
X113558832Y-84898861D01*
X113413173Y-84872915D01*
X113324227Y-84871828D01*
X113191681Y-84870208D01*
X113191679Y-84870208D01*
X113186511Y-84870145D01*
X112962441Y-84904433D01*
X112746979Y-84974857D01*
X112742391Y-84977245D01*
X112742387Y-84977247D01*
X112550502Y-85077136D01*
X112545913Y-85079525D01*
X112541780Y-85082628D01*
X112541777Y-85082630D01*
X112368776Y-85212523D01*
X112364641Y-85215628D01*
X112340555Y-85240833D01*
X112229511Y-85357034D01*
X112208033Y-85379509D01*
X112205119Y-85383781D01*
X112205118Y-85383782D01*
X112116645Y-85513479D01*
X112061734Y-85558482D01*
X111991209Y-85566653D01*
X111927462Y-85535399D01*
X111906767Y-85510918D01*
X111844211Y-85414221D01*
X111841722Y-85410373D01*
X111841720Y-85410370D01*
X111838914Y-85406033D01*
X111686356Y-85238374D01*
X111682305Y-85235175D01*
X111682301Y-85235171D01*
X111512519Y-85101085D01*
X111512515Y-85101083D01*
X111508464Y-85097883D01*
X111310015Y-84988334D01*
X111305146Y-84986610D01*
X111305142Y-84986608D01*
X111101214Y-84914393D01*
X111101210Y-84914392D01*
X111096339Y-84912667D01*
X111091246Y-84911760D01*
X111091243Y-84911759D01*
X111018832Y-84898861D01*
X110873173Y-84872915D01*
X110784227Y-84871828D01*
X110651681Y-84870208D01*
X110651679Y-84870208D01*
X110646511Y-84870145D01*
X110422441Y-84904433D01*
X110206979Y-84974857D01*
X110202391Y-84977245D01*
X110202387Y-84977247D01*
X110010502Y-85077136D01*
X110005913Y-85079525D01*
X110001780Y-85082628D01*
X110001777Y-85082630D01*
X109828776Y-85212523D01*
X109824641Y-85215628D01*
X109821069Y-85219366D01*
X109714634Y-85330743D01*
X109653109Y-85366173D01*
X109582197Y-85362716D01*
X109524411Y-85321470D01*
X109514821Y-85305887D01*
X109514550Y-85306054D01*
X109425332Y-85161880D01*
X109421478Y-85155652D01*
X109296303Y-85030695D01*
X109209595Y-84977247D01*
X109151968Y-84941725D01*
X109151966Y-84941724D01*
X109145738Y-84937885D01*
X108985254Y-84884655D01*
X108984389Y-84884368D01*
X108984387Y-84884368D01*
X108977861Y-84882203D01*
X108971025Y-84881503D01*
X108971022Y-84881502D01*
X108927969Y-84877091D01*
X108873400Y-84871500D01*
X107532600Y-84871500D01*
X107529354Y-84871837D01*
X107529350Y-84871837D01*
X107433692Y-84881762D01*
X107433688Y-84881763D01*
X107426834Y-84882474D01*
X107420298Y-84884655D01*
X107420296Y-84884655D01*
X107363359Y-84903651D01*
X107259054Y-84938450D01*
X107108652Y-85031522D01*
X106983695Y-85156697D01*
X106979856Y-85162925D01*
X106979852Y-85162930D01*
X106916200Y-85266192D01*
X106862967Y-85311460D01*
X106863831Y-85313084D01*
X106781740Y-85356731D01*
X106780574Y-85357343D01*
X106711129Y-85393341D01*
X106698074Y-85400108D01*
X106693911Y-85403431D01*
X106689204Y-85405934D01*
X106684427Y-85409830D01*
X106680629Y-85412928D01*
X106617082Y-85464755D01*
X106616226Y-85465446D01*
X106577027Y-85496738D01*
X106574523Y-85499242D01*
X106573805Y-85499884D01*
X106569472Y-85503585D01*
X106535938Y-85530935D01*
X106532011Y-85535682D01*
X106532009Y-85535684D01*
X106506713Y-85566262D01*
X106498723Y-85575042D01*
X105330621Y-86743145D01*
X105320478Y-86752247D01*
X105290975Y-86775968D01*
X105269513Y-86801545D01*
X105258709Y-86814421D01*
X105255528Y-86818069D01*
X105253885Y-86819881D01*
X105251691Y-86822075D01*
X105224358Y-86855349D01*
X105223696Y-86856147D01*
X105163846Y-86927474D01*
X105161278Y-86932144D01*
X105157897Y-86936261D01*
X105135743Y-86977578D01*
X105114023Y-87018086D01*
X105113394Y-87019245D01*
X105071538Y-87095381D01*
X105071535Y-87095389D01*
X105068567Y-87100787D01*
X105066955Y-87105869D01*
X105064438Y-87110563D01*
X105037238Y-87199531D01*
X105036918Y-87200559D01*
X105008765Y-87289306D01*
X105008171Y-87294602D01*
X105006613Y-87299698D01*
X104997676Y-87387682D01*
X104997218Y-87392187D01*
X104997089Y-87393393D01*
X104995245Y-87409840D01*
X104991894Y-87439718D01*
X104991500Y-87443227D01*
X104991500Y-87446754D01*
X104991445Y-87447739D01*
X104990998Y-87453419D01*
X104990616Y-87457186D01*
X104987458Y-87488276D01*
X104986626Y-87496462D01*
X104987206Y-87502593D01*
X104990941Y-87542109D01*
X104991500Y-87553967D01*
X104991500Y-93119260D01*
X104968713Y-93191531D01*
X104862477Y-93343251D01*
X104860154Y-93348233D01*
X104860151Y-93348238D01*
X104832173Y-93408238D01*
X104765716Y-93550757D01*
X104764294Y-93556065D01*
X104764293Y-93556067D01*
X104707881Y-93766598D01*
X104706457Y-93771913D01*
X104686502Y-94000000D01*
X100508500Y-94000000D01*
X100508500Y-75854400D01*
X106825500Y-75854400D01*
X106825837Y-75857646D01*
X106825837Y-75857650D01*
X106835752Y-75953206D01*
X106836474Y-75960166D01*
X106838655Y-75966702D01*
X106838655Y-75966704D01*
X106875219Y-76076298D01*
X106892450Y-76127946D01*
X106985522Y-76278348D01*
X107110697Y-76403305D01*
X107116927Y-76407145D01*
X107116928Y-76407146D01*
X107254288Y-76491816D01*
X107261262Y-76496115D01*
X107303049Y-76509975D01*
X107422611Y-76549632D01*
X107422613Y-76549632D01*
X107429139Y-76551797D01*
X107435975Y-76552497D01*
X107435978Y-76552498D01*
X107479031Y-76556909D01*
X107533600Y-76562500D01*
X108874400Y-76562500D01*
X108877646Y-76562163D01*
X108877650Y-76562163D01*
X108973308Y-76552238D01*
X108973312Y-76552237D01*
X108980166Y-76551526D01*
X108986702Y-76549345D01*
X108986704Y-76549345D01*
X109118806Y-76505272D01*
X109147946Y-76495550D01*
X109298348Y-76402478D01*
X109423305Y-76277303D01*
X109448240Y-76236852D01*
X109475504Y-76192621D01*
X109502240Y-76149247D01*
X109555012Y-76101754D01*
X109625084Y-76090330D01*
X109690208Y-76118604D01*
X109729707Y-76177598D01*
X109735500Y-76215363D01*
X109735500Y-79182157D01*
X109734763Y-79195764D01*
X109730676Y-79233388D01*
X109731213Y-79239523D01*
X109735050Y-79283388D01*
X109735379Y-79288214D01*
X109735500Y-79290686D01*
X109735500Y-79293769D01*
X109735801Y-79296837D01*
X109739690Y-79336506D01*
X109739812Y-79337819D01*
X109747913Y-79430413D01*
X109749400Y-79435532D01*
X109749920Y-79440833D01*
X109776791Y-79529834D01*
X109777126Y-79530967D01*
X109803091Y-79620336D01*
X109805544Y-79625068D01*
X109807084Y-79630169D01*
X109809978Y-79635612D01*
X109850731Y-79712260D01*
X109851343Y-79713426D01*
X109894108Y-79795926D01*
X109897431Y-79800089D01*
X109899934Y-79804796D01*
X109958755Y-79876918D01*
X109959446Y-79877774D01*
X109990738Y-79916973D01*
X109993242Y-79919477D01*
X109993884Y-79920195D01*
X109997585Y-79924528D01*
X110024935Y-79958062D01*
X110029682Y-79961989D01*
X110029684Y-79961991D01*
X110060262Y-79987287D01*
X110069042Y-79995277D01*
X112743145Y-82669379D01*
X112752247Y-82679522D01*
X112775968Y-82709025D01*
X112780696Y-82712992D01*
X112814421Y-82741291D01*
X112818070Y-82744473D01*
X112819883Y-82746117D01*
X112822075Y-82748309D01*
X112855276Y-82775580D01*
X112856164Y-82776318D01*
X112891437Y-82805915D01*
X112922753Y-82832193D01*
X112922756Y-82832195D01*
X112927474Y-82836154D01*
X112932147Y-82838723D01*
X112936262Y-82842103D01*
X112941691Y-82845014D01*
X112941694Y-82845016D01*
X113018180Y-82886028D01*
X113019338Y-82886657D01*
X113095388Y-82928465D01*
X113100787Y-82931433D01*
X113105865Y-82933044D01*
X113110563Y-82935563D01*
X113199498Y-82962753D01*
X113200702Y-82963128D01*
X113289306Y-82991235D01*
X113294597Y-82991828D01*
X113299698Y-82993388D01*
X113392311Y-83002795D01*
X113393431Y-83002915D01*
X113443227Y-83008500D01*
X113446756Y-83008500D01*
X113447739Y-83008555D01*
X113453426Y-83009003D01*
X113473683Y-83011060D01*
X113490336Y-83012752D01*
X113490339Y-83012752D01*
X113496463Y-83013374D01*
X113542112Y-83009059D01*
X113553969Y-83008500D01*
X142530074Y-83008500D01*
X142598195Y-83028502D01*
X142619169Y-83045404D01*
X142994595Y-83420829D01*
X143028620Y-83483142D01*
X143031500Y-83509925D01*
X143031500Y-85509431D01*
X143011498Y-85577552D01*
X142996594Y-85596482D01*
X142965033Y-85629509D01*
X142962119Y-85633781D01*
X142962118Y-85633782D01*
X142873645Y-85763479D01*
X142818734Y-85808482D01*
X142748209Y-85816653D01*
X142684462Y-85785399D01*
X142663767Y-85760918D01*
X142623895Y-85699285D01*
X142598722Y-85660373D01*
X142598720Y-85660370D01*
X142595914Y-85656033D01*
X142443356Y-85488374D01*
X142439305Y-85485175D01*
X142439301Y-85485171D01*
X142269519Y-85351085D01*
X142269515Y-85351083D01*
X142265464Y-85347883D01*
X142067015Y-85238334D01*
X142062146Y-85236610D01*
X142062142Y-85236608D01*
X141858214Y-85164393D01*
X141858210Y-85164392D01*
X141853339Y-85162667D01*
X141848246Y-85161760D01*
X141848243Y-85161759D01*
X141775832Y-85148861D01*
X141630173Y-85122915D01*
X141541227Y-85121828D01*
X141408681Y-85120208D01*
X141408679Y-85120208D01*
X141403511Y-85120145D01*
X141179441Y-85154433D01*
X140963979Y-85224857D01*
X140959391Y-85227245D01*
X140959387Y-85227247D01*
X140778256Y-85321538D01*
X140762913Y-85329525D01*
X140758780Y-85332628D01*
X140758777Y-85332630D01*
X140649108Y-85414972D01*
X140581641Y-85465628D01*
X140565025Y-85483015D01*
X140471634Y-85580743D01*
X140410109Y-85616173D01*
X140339197Y-85612716D01*
X140281411Y-85571470D01*
X140271821Y-85555887D01*
X140271550Y-85556054D01*
X140182332Y-85411880D01*
X140178478Y-85405652D01*
X140053303Y-85280695D01*
X140019060Y-85259587D01*
X139908968Y-85191725D01*
X139908966Y-85191724D01*
X139902738Y-85187885D01*
X139742254Y-85134655D01*
X139741389Y-85134368D01*
X139741387Y-85134368D01*
X139734861Y-85132203D01*
X139728025Y-85131503D01*
X139728022Y-85131502D01*
X139684969Y-85127091D01*
X139630400Y-85121500D01*
X138289600Y-85121500D01*
X138286354Y-85121837D01*
X138286350Y-85121837D01*
X138190692Y-85131762D01*
X138190688Y-85131763D01*
X138183834Y-85132474D01*
X138177298Y-85134655D01*
X138177296Y-85134655D01*
X138088161Y-85164393D01*
X138016054Y-85188450D01*
X137865652Y-85281522D01*
X137740695Y-85406697D01*
X137736855Y-85412927D01*
X137736854Y-85412928D01*
X137661362Y-85535399D01*
X137647885Y-85557262D01*
X137592203Y-85725139D01*
X137581500Y-85829600D01*
X137581500Y-87170400D01*
X137581837Y-87173646D01*
X137581837Y-87173650D01*
X137590329Y-87255489D01*
X137592474Y-87276166D01*
X137594655Y-87282702D01*
X137594655Y-87282704D01*
X137631731Y-87393834D01*
X137648450Y-87443946D01*
X137656645Y-87457188D01*
X137675500Y-87523490D01*
X137675500Y-93179260D01*
X137652713Y-93251531D01*
X137546477Y-93403251D01*
X137544154Y-93408233D01*
X137544151Y-93408238D01*
X137480017Y-93545775D01*
X137449716Y-93610757D01*
X137448294Y-93616065D01*
X137448293Y-93616067D01*
X137407958Y-93766598D01*
X137390457Y-93831913D01*
X137370502Y-94060000D01*
X137390457Y-94288087D01*
X137449716Y-94509243D01*
X137452039Y-94514224D01*
X137452039Y-94514225D01*
X137544151Y-94711762D01*
X137544154Y-94711767D01*
X137546477Y-94716749D01*
X137549634Y-94721257D01*
X137649794Y-94864300D01*
X137677802Y-94904300D01*
X137839700Y-95066198D01*
X137844208Y-95069355D01*
X137844211Y-95069357D01*
X137922389Y-95124098D01*
X138027251Y-95197523D01*
X138032233Y-95199846D01*
X138032238Y-95199849D01*
X138229775Y-95291961D01*
X138234757Y-95294284D01*
X138240065Y-95295706D01*
X138240067Y-95295707D01*
X138450598Y-95352119D01*
X138450600Y-95352119D01*
X138455913Y-95353543D01*
X138684000Y-95373498D01*
X138912087Y-95353543D01*
X138917400Y-95352119D01*
X138917402Y-95352119D01*
X139127933Y-95295707D01*
X139127935Y-95295706D01*
X139133243Y-95294284D01*
X139138225Y-95291961D01*
X139335762Y-95199849D01*
X139335767Y-95199846D01*
X139340749Y-95197523D01*
X139445611Y-95124098D01*
X139523789Y-95069357D01*
X139523792Y-95069355D01*
X139528300Y-95066198D01*
X139690198Y-94904300D01*
X139718207Y-94864300D01*
X139818366Y-94721257D01*
X139821523Y-94716749D01*
X139823846Y-94711767D01*
X139823849Y-94711762D01*
X139915961Y-94514225D01*
X139915961Y-94514224D01*
X139918284Y-94509243D01*
X139977543Y-94288087D01*
X139997498Y-94060000D01*
X139977543Y-93831913D01*
X139960042Y-93766598D01*
X139919707Y-93616067D01*
X139919706Y-93616065D01*
X139918284Y-93610757D01*
X139887983Y-93545775D01*
X139823849Y-93408238D01*
X139823846Y-93408233D01*
X139821523Y-93403251D01*
X139715287Y-93251531D01*
X139692500Y-93179260D01*
X139692500Y-87972885D01*
X139712502Y-87904764D01*
X139766158Y-87858271D01*
X139778624Y-87853361D01*
X139896998Y-87813868D01*
X139903946Y-87811550D01*
X140054348Y-87718478D01*
X140179305Y-87593303D01*
X140188553Y-87578301D01*
X140237262Y-87499279D01*
X140258240Y-87465247D01*
X140311012Y-87417754D01*
X140381084Y-87406330D01*
X140446208Y-87434604D01*
X140485707Y-87493598D01*
X140491500Y-87531363D01*
X140491500Y-90438157D01*
X140490763Y-90451764D01*
X140486676Y-90489388D01*
X140487213Y-90495523D01*
X140491050Y-90539388D01*
X140491379Y-90544214D01*
X140491500Y-90546686D01*
X140491500Y-90549769D01*
X140491801Y-90552837D01*
X140495690Y-90592506D01*
X140495812Y-90593819D01*
X140503913Y-90686413D01*
X140505400Y-90691532D01*
X140505920Y-90696833D01*
X140532791Y-90785834D01*
X140533126Y-90786967D01*
X140555643Y-90864468D01*
X140559091Y-90876336D01*
X140561544Y-90881068D01*
X140563084Y-90886169D01*
X140565978Y-90891612D01*
X140606731Y-90968260D01*
X140607343Y-90969426D01*
X140629138Y-91011472D01*
X140650108Y-91051926D01*
X140653431Y-91056089D01*
X140655934Y-91060796D01*
X140714755Y-91132918D01*
X140715446Y-91133774D01*
X140746738Y-91172973D01*
X140749242Y-91175477D01*
X140749884Y-91176195D01*
X140753585Y-91180528D01*
X140780935Y-91214062D01*
X140785682Y-91217989D01*
X140785684Y-91217991D01*
X140816262Y-91243287D01*
X140825042Y-91251277D01*
X141702595Y-92128830D01*
X141736621Y-92191142D01*
X141739500Y-92217925D01*
X141739500Y-93179260D01*
X141716713Y-93251531D01*
X141610477Y-93403251D01*
X141608154Y-93408233D01*
X141608151Y-93408238D01*
X141544017Y-93545775D01*
X141513716Y-93610757D01*
X141512294Y-93616065D01*
X141512293Y-93616067D01*
X141471958Y-93766598D01*
X141454457Y-93831913D01*
X141434502Y-94060000D01*
X141454457Y-94288087D01*
X141513716Y-94509243D01*
X141516039Y-94514224D01*
X141516039Y-94514225D01*
X141608151Y-94711762D01*
X141608154Y-94711767D01*
X141610477Y-94716749D01*
X141613634Y-94721257D01*
X141713794Y-94864300D01*
X141741802Y-94904300D01*
X141903700Y-95066198D01*
X141908208Y-95069355D01*
X141908211Y-95069357D01*
X141986389Y-95124098D01*
X142091251Y-95197523D01*
X142096233Y-95199846D01*
X142096238Y-95199849D01*
X142293775Y-95291961D01*
X142298757Y-95294284D01*
X142304065Y-95295706D01*
X142304067Y-95295707D01*
X142514598Y-95352119D01*
X142514600Y-95352119D01*
X142519913Y-95353543D01*
X142748000Y-95373498D01*
X142976087Y-95353543D01*
X142981400Y-95352119D01*
X142981402Y-95352119D01*
X143191933Y-95295707D01*
X143191935Y-95295706D01*
X143197243Y-95294284D01*
X143202225Y-95291961D01*
X143399762Y-95199849D01*
X143399767Y-95199846D01*
X143404749Y-95197523D01*
X143509611Y-95124098D01*
X143587789Y-95069357D01*
X143587792Y-95069355D01*
X143592300Y-95066198D01*
X143754198Y-94904300D01*
X143782207Y-94864300D01*
X143882366Y-94721257D01*
X143885523Y-94716749D01*
X143887846Y-94711767D01*
X143887849Y-94711762D01*
X143979961Y-94514225D01*
X143979961Y-94514224D01*
X143982284Y-94509243D01*
X144041543Y-94288087D01*
X144061498Y-94060000D01*
X144041543Y-93831913D01*
X144024042Y-93766598D01*
X143983707Y-93616067D01*
X143983706Y-93616065D01*
X143982284Y-93610757D01*
X143951983Y-93545775D01*
X143887849Y-93408238D01*
X143887846Y-93408233D01*
X143885523Y-93403251D01*
X143779287Y-93251531D01*
X143756500Y-93179260D01*
X143756500Y-91809850D01*
X143757237Y-91796242D01*
X143760660Y-91764737D01*
X143760660Y-91764733D01*
X143761325Y-91758612D01*
X143756949Y-91708589D01*
X143756619Y-91703752D01*
X143756500Y-91701314D01*
X143756500Y-91698231D01*
X143752318Y-91655580D01*
X143752196Y-91654265D01*
X143744625Y-91567723D01*
X143744625Y-91567721D01*
X143744088Y-91561587D01*
X143742599Y-91556463D01*
X143742080Y-91551167D01*
X143715211Y-91462172D01*
X143714870Y-91461022D01*
X143688909Y-91371664D01*
X143686456Y-91366932D01*
X143684916Y-91361831D01*
X143682028Y-91356400D01*
X143682025Y-91356392D01*
X143641237Y-91279680D01*
X143640625Y-91278514D01*
X143600729Y-91201548D01*
X143597892Y-91196075D01*
X143594570Y-91191914D01*
X143592066Y-91187204D01*
X143580460Y-91172973D01*
X143533314Y-91115168D01*
X143532483Y-91114139D01*
X143503457Y-91077778D01*
X143501262Y-91075028D01*
X143498771Y-91072537D01*
X143498121Y-91071810D01*
X143494406Y-91067461D01*
X143477272Y-91046453D01*
X143467065Y-91033938D01*
X143462323Y-91030015D01*
X143462321Y-91030013D01*
X143431727Y-91004703D01*
X143422947Y-90996713D01*
X142545405Y-90119171D01*
X142511379Y-90056859D01*
X142508500Y-90030076D01*
X142508500Y-87493536D01*
X142528502Y-87425415D01*
X142545559Y-87404287D01*
X142549715Y-87400145D01*
X142549717Y-87400143D01*
X142553378Y-87396495D01*
X142668945Y-87235666D01*
X142724940Y-87192018D01*
X142795643Y-87185572D01*
X142858608Y-87218375D01*
X142878700Y-87243357D01*
X142921090Y-87312530D01*
X142921093Y-87312535D01*
X142923793Y-87316940D01*
X142927174Y-87320843D01*
X143068824Y-87484369D01*
X143068828Y-87484373D01*
X143072209Y-87488276D01*
X143076184Y-87491576D01*
X143076187Y-87491579D01*
X143078619Y-87493598D01*
X143246615Y-87633071D01*
X143318413Y-87675026D01*
X143437867Y-87744829D01*
X143437870Y-87744831D01*
X143442329Y-87747436D01*
X143654093Y-87828301D01*
X143659161Y-87829332D01*
X143659164Y-87829333D01*
X143768172Y-87851511D01*
X143876221Y-87873494D01*
X143881394Y-87873684D01*
X143881397Y-87873684D01*
X144097583Y-87881611D01*
X144097587Y-87881611D01*
X144102747Y-87881800D01*
X144107867Y-87881144D01*
X144107869Y-87881144D01*
X144214172Y-87867526D01*
X144327588Y-87852997D01*
X144332537Y-87851512D01*
X144332543Y-87851511D01*
X144539756Y-87789344D01*
X144539755Y-87789344D01*
X144544706Y-87787859D01*
X144748270Y-87688134D01*
X144752475Y-87685134D01*
X144752481Y-87685131D01*
X144928609Y-87559500D01*
X144928611Y-87559498D01*
X144932813Y-87556501D01*
X145093378Y-87396495D01*
X145098816Y-87388928D01*
X145222636Y-87216613D01*
X145225654Y-87212413D01*
X145232096Y-87199380D01*
X145294287Y-87073545D01*
X145326089Y-87009199D01*
X145391985Y-86792310D01*
X145421573Y-86567570D01*
X145423224Y-86500000D01*
X145417077Y-86425233D01*
X145405074Y-86279235D01*
X145405073Y-86279229D01*
X145404650Y-86274084D01*
X145349428Y-86054234D01*
X145259040Y-85846356D01*
X145256234Y-85842018D01*
X145138725Y-85660377D01*
X145138720Y-85660371D01*
X145135914Y-85656033D01*
X145128319Y-85647686D01*
X145081306Y-85596019D01*
X145050254Y-85532173D01*
X145048500Y-85511220D01*
X145048500Y-83101842D01*
X145049237Y-83088235D01*
X145052659Y-83056737D01*
X145052659Y-83056732D01*
X145053324Y-83050611D01*
X145051390Y-83028502D01*
X145048950Y-83000609D01*
X145048621Y-82995784D01*
X145048500Y-82993313D01*
X145048500Y-82990231D01*
X145044309Y-82947489D01*
X145044187Y-82946174D01*
X145036623Y-82859719D01*
X145036087Y-82853587D01*
X145034600Y-82848468D01*
X145034080Y-82843167D01*
X145007209Y-82754166D01*
X145006874Y-82753033D01*
X144982630Y-82669586D01*
X144982628Y-82669582D01*
X144980909Y-82663664D01*
X144978456Y-82658932D01*
X144976916Y-82653831D01*
X144933269Y-82571740D01*
X144932657Y-82570574D01*
X144892729Y-82493547D01*
X144889892Y-82488074D01*
X144886569Y-82483911D01*
X144884066Y-82479204D01*
X144825245Y-82407082D01*
X144824554Y-82406226D01*
X144793262Y-82367027D01*
X144790758Y-82364523D01*
X144790116Y-82363805D01*
X144786415Y-82359472D01*
X144759065Y-82325938D01*
X144723733Y-82296709D01*
X144714963Y-82288728D01*
X143756851Y-81330617D01*
X143747749Y-81320473D01*
X143727897Y-81295782D01*
X143724032Y-81290975D01*
X143685578Y-81258708D01*
X143681931Y-81255528D01*
X143680119Y-81253885D01*
X143677925Y-81251691D01*
X143644651Y-81224358D01*
X143643853Y-81223696D01*
X143572526Y-81163846D01*
X143567856Y-81161278D01*
X143563739Y-81157897D01*
X143481914Y-81114023D01*
X143480755Y-81113394D01*
X143404619Y-81071538D01*
X143404611Y-81071535D01*
X143399213Y-81068567D01*
X143394131Y-81066955D01*
X143389437Y-81064438D01*
X143300469Y-81037238D01*
X143299441Y-81036918D01*
X143210694Y-81008765D01*
X143205398Y-81008171D01*
X143200302Y-81006613D01*
X143107743Y-80997210D01*
X143106607Y-80997089D01*
X143072992Y-80993319D01*
X143060270Y-80991892D01*
X143060266Y-80991892D01*
X143056773Y-80991500D01*
X143053246Y-80991500D01*
X143052261Y-80991445D01*
X143046581Y-80990998D01*
X143017175Y-80988011D01*
X143009663Y-80987248D01*
X143009661Y-80987248D01*
X143003538Y-80986626D01*
X142961259Y-80990623D01*
X142957891Y-80990941D01*
X142946033Y-80991500D01*
X113969924Y-80991500D01*
X113901803Y-80971498D01*
X113880829Y-80954595D01*
X111789405Y-78863171D01*
X111755379Y-78800859D01*
X111752500Y-78774076D01*
X111752500Y-76177536D01*
X111772502Y-76109415D01*
X111789559Y-76088287D01*
X111793715Y-76084145D01*
X111793717Y-76084143D01*
X111797378Y-76080495D01*
X111912945Y-75919666D01*
X111968940Y-75876018D01*
X112039643Y-75869572D01*
X112102608Y-75902375D01*
X112122700Y-75927357D01*
X112165090Y-75996530D01*
X112165093Y-75996535D01*
X112167793Y-76000940D01*
X112171174Y-76004843D01*
X112312824Y-76168369D01*
X112312828Y-76168373D01*
X112316209Y-76172276D01*
X112320184Y-76175576D01*
X112320187Y-76175579D01*
X112346379Y-76197324D01*
X112490615Y-76317071D01*
X112495082Y-76319681D01*
X112681867Y-76428829D01*
X112681870Y-76428831D01*
X112686329Y-76431436D01*
X112898093Y-76512301D01*
X112903161Y-76513332D01*
X112903164Y-76513333D01*
X113009764Y-76535021D01*
X113120221Y-76557494D01*
X113125394Y-76557684D01*
X113125397Y-76557684D01*
X113341583Y-76565611D01*
X113341587Y-76565611D01*
X113346747Y-76565800D01*
X113351867Y-76565144D01*
X113351869Y-76565144D01*
X113423513Y-76555966D01*
X113571588Y-76536997D01*
X113576537Y-76535512D01*
X113576543Y-76535511D01*
X113783756Y-76473344D01*
X113783755Y-76473344D01*
X113788706Y-76471859D01*
X113992270Y-76372134D01*
X113996475Y-76369134D01*
X113996481Y-76369131D01*
X114172609Y-76243500D01*
X114172611Y-76243498D01*
X114176813Y-76240501D01*
X114180475Y-76236852D01*
X114188103Y-76229251D01*
X114250474Y-76195333D01*
X114277044Y-76192500D01*
X116270157Y-76192500D01*
X116283764Y-76193237D01*
X116315262Y-76196659D01*
X116315267Y-76196659D01*
X116321388Y-76197324D01*
X116347638Y-76195027D01*
X116371388Y-76192950D01*
X116376214Y-76192621D01*
X116378686Y-76192500D01*
X116381769Y-76192500D01*
X116393738Y-76191326D01*
X116424506Y-76188310D01*
X116425819Y-76188188D01*
X116470084Y-76184315D01*
X116518413Y-76180087D01*
X116523532Y-76178600D01*
X116528833Y-76178080D01*
X116617834Y-76151209D01*
X116618967Y-76150874D01*
X116702414Y-76126630D01*
X116702418Y-76126628D01*
X116708336Y-76124909D01*
X116713068Y-76122456D01*
X116718169Y-76120916D01*
X116739800Y-76109415D01*
X116800260Y-76077269D01*
X116801426Y-76076657D01*
X116878453Y-76036729D01*
X116883926Y-76033892D01*
X116888089Y-76030569D01*
X116892796Y-76028066D01*
X116964918Y-75969245D01*
X116965774Y-75968554D01*
X117004973Y-75937262D01*
X117007477Y-75934758D01*
X117008195Y-75934116D01*
X117012528Y-75930415D01*
X117046062Y-75903065D01*
X117075288Y-75867737D01*
X117083277Y-75858958D01*
X117091140Y-75851095D01*
X135782001Y-75851095D01*
X135782338Y-75857614D01*
X135792257Y-75953206D01*
X135795149Y-75966600D01*
X135846588Y-76120784D01*
X135852761Y-76133962D01*
X135938063Y-76271807D01*
X135947099Y-76283208D01*
X136061829Y-76397739D01*
X136073240Y-76406751D01*
X136211243Y-76491816D01*
X136224424Y-76497963D01*
X136378710Y-76549138D01*
X136392086Y-76552005D01*
X136486438Y-76561672D01*
X136492854Y-76562000D01*
X136887885Y-76562000D01*
X136903124Y-76557525D01*
X136904329Y-76556135D01*
X136906000Y-76548452D01*
X136906000Y-75456115D01*
X136901525Y-75440876D01*
X136900135Y-75439671D01*
X136892452Y-75438000D01*
X135800116Y-75438000D01*
X135784877Y-75442475D01*
X135783672Y-75443865D01*
X135782001Y-75451548D01*
X135782001Y-75851095D01*
X117091140Y-75851095D01*
X119033379Y-73908855D01*
X119043522Y-73899753D01*
X119068218Y-73879897D01*
X119073025Y-73876032D01*
X119105292Y-73837578D01*
X119108472Y-73833931D01*
X119110115Y-73832119D01*
X119112309Y-73829925D01*
X119139642Y-73796651D01*
X119140348Y-73795800D01*
X119145567Y-73789581D01*
X119200154Y-73724526D01*
X119202722Y-73719856D01*
X119206103Y-73715739D01*
X119240221Y-73652108D01*
X119249977Y-73633914D01*
X119250606Y-73632755D01*
X119292462Y-73556619D01*
X119292465Y-73556611D01*
X119295433Y-73551213D01*
X119297045Y-73546131D01*
X119299562Y-73541437D01*
X119326762Y-73452469D01*
X119327108Y-73451358D01*
X119336946Y-73420348D01*
X119355235Y-73362694D01*
X119355829Y-73357398D01*
X119357387Y-73352302D01*
X119366790Y-73259743D01*
X119366911Y-73258607D01*
X119372500Y-73208773D01*
X119372500Y-73205246D01*
X119372555Y-73204261D01*
X119373002Y-73198581D01*
X119377374Y-73155538D01*
X119373059Y-73109891D01*
X119372500Y-73098033D01*
X119372500Y-69049925D01*
X119392502Y-68981804D01*
X119409405Y-68960830D01*
X120268830Y-68101405D01*
X120331142Y-68067379D01*
X120357925Y-68064500D01*
X120991108Y-68064500D01*
X121059229Y-68084502D01*
X121105722Y-68138158D01*
X121115826Y-68208432D01*
X121086332Y-68273012D01*
X121072938Y-68286311D01*
X120917792Y-68418818D01*
X120917788Y-68418822D01*
X120914031Y-68422031D01*
X120759824Y-68602584D01*
X120757245Y-68606792D01*
X120757241Y-68606798D01*
X120700953Y-68698652D01*
X120635760Y-68805037D01*
X120633867Y-68809607D01*
X120633865Y-68809611D01*
X120562541Y-68981804D01*
X120544895Y-69024406D01*
X120489465Y-69255289D01*
X120470835Y-69492000D01*
X120489465Y-69728711D01*
X120544895Y-69959594D01*
X120635760Y-70178963D01*
X120638346Y-70183183D01*
X120757241Y-70377202D01*
X120757245Y-70377208D01*
X120759824Y-70381416D01*
X120914031Y-70561969D01*
X120917787Y-70565177D01*
X120917788Y-70565178D01*
X120931332Y-70576746D01*
X120970140Y-70636197D01*
X120975500Y-70672556D01*
X120975500Y-71122157D01*
X120974763Y-71135764D01*
X120970676Y-71173388D01*
X120971213Y-71179523D01*
X120975050Y-71223388D01*
X120975379Y-71228214D01*
X120975500Y-71230686D01*
X120975500Y-71233769D01*
X120975801Y-71236837D01*
X120979690Y-71276506D01*
X120979812Y-71277819D01*
X120987913Y-71370413D01*
X120989400Y-71375532D01*
X120989920Y-71380833D01*
X121016791Y-71469834D01*
X121017126Y-71470967D01*
X121043091Y-71560336D01*
X121045544Y-71565068D01*
X121047084Y-71570169D01*
X121049978Y-71575612D01*
X121090731Y-71652260D01*
X121091343Y-71653426D01*
X121120147Y-71708993D01*
X121134108Y-71735926D01*
X121137431Y-71740089D01*
X121139934Y-71744796D01*
X121198755Y-71816918D01*
X121199446Y-71817774D01*
X121230738Y-71856973D01*
X121233242Y-71859477D01*
X121233884Y-71860195D01*
X121237585Y-71864528D01*
X121264935Y-71898062D01*
X121269682Y-71901989D01*
X121269684Y-71901991D01*
X121300262Y-71927287D01*
X121309042Y-71935277D01*
X122687145Y-73313379D01*
X122696247Y-73323522D01*
X122719968Y-73353025D01*
X122758421Y-73385291D01*
X122762069Y-73388472D01*
X122763881Y-73390115D01*
X122766075Y-73392309D01*
X122799349Y-73419642D01*
X122800147Y-73420304D01*
X122871474Y-73480154D01*
X122876144Y-73482722D01*
X122880261Y-73486103D01*
X122962120Y-73529995D01*
X122963280Y-73530624D01*
X123039389Y-73572466D01*
X123039394Y-73572468D01*
X123044787Y-73575433D01*
X123049865Y-73577044D01*
X123054563Y-73579563D01*
X123143498Y-73606753D01*
X123144702Y-73607128D01*
X123233306Y-73635235D01*
X123238597Y-73635828D01*
X123243698Y-73637388D01*
X123249830Y-73638011D01*
X123249836Y-73638012D01*
X123310338Y-73644157D01*
X123336263Y-73646790D01*
X123337450Y-73646916D01*
X123366838Y-73650213D01*
X123383730Y-73652108D01*
X123383735Y-73652108D01*
X123387227Y-73652500D01*
X123390752Y-73652500D01*
X123391737Y-73652555D01*
X123397432Y-73653003D01*
X123409342Y-73654213D01*
X123434334Y-73656752D01*
X123434339Y-73656752D01*
X123440462Y-73657374D01*
X123486108Y-73653059D01*
X123497967Y-73652500D01*
X136129381Y-73652500D01*
X136197502Y-73672502D01*
X136243995Y-73726158D01*
X136254099Y-73796432D01*
X136224605Y-73861012D01*
X136195684Y-73885644D01*
X136072193Y-73962063D01*
X136060792Y-73971099D01*
X135946261Y-74085829D01*
X135937249Y-74097240D01*
X135852184Y-74235243D01*
X135846037Y-74248424D01*
X135794862Y-74402710D01*
X135791995Y-74416086D01*
X135782328Y-74510438D01*
X135782000Y-74516855D01*
X135782000Y-74911885D01*
X135786475Y-74927124D01*
X135787865Y-74928329D01*
X135795548Y-74930000D01*
X137288000Y-74930000D01*
X137356121Y-74950002D01*
X137402614Y-75003658D01*
X137414000Y-75056000D01*
X137414000Y-76543884D01*
X137418475Y-76559123D01*
X137419865Y-76560328D01*
X137427548Y-76561999D01*
X137827095Y-76561999D01*
X137833614Y-76561662D01*
X137929206Y-76551743D01*
X137942600Y-76548851D01*
X138096784Y-76497412D01*
X138109962Y-76491239D01*
X138247807Y-76405937D01*
X138259208Y-76396901D01*
X138332508Y-76323474D01*
X138925355Y-76323474D01*
X138930636Y-76330529D01*
X139098087Y-76428380D01*
X139107370Y-76432827D01*
X139309402Y-76509975D01*
X139319300Y-76512851D01*
X139531219Y-76555966D01*
X139541447Y-76557185D01*
X139757560Y-76565111D01*
X139767846Y-76564644D01*
X139982353Y-76537164D01*
X139992439Y-76535021D01*
X140199581Y-76472875D01*
X140209158Y-76469122D01*
X140403378Y-76373975D01*
X140412216Y-76368706D01*
X140463587Y-76332064D01*
X140471988Y-76321364D01*
X140465002Y-76308213D01*
X139712811Y-75556021D01*
X139698868Y-75548408D01*
X139697034Y-75548539D01*
X139690420Y-75552790D01*
X138932112Y-76311099D01*
X138925355Y-76323474D01*
X138332508Y-76323474D01*
X138373739Y-76282171D01*
X138382751Y-76270760D01*
X138467816Y-76132757D01*
X138473963Y-76119576D01*
X138504172Y-76028499D01*
X138544603Y-75970140D01*
X138569955Y-75954834D01*
X139327979Y-75196811D01*
X139335592Y-75182868D01*
X139335461Y-75181034D01*
X139331210Y-75174420D01*
X138575452Y-74418663D01*
X138564087Y-74412457D01*
X138513885Y-74362255D01*
X138504949Y-74341745D01*
X138473413Y-74247218D01*
X138467239Y-74234038D01*
X138381937Y-74096193D01*
X138372901Y-74084792D01*
X138258171Y-73970261D01*
X138246760Y-73961249D01*
X138124293Y-73885760D01*
X138076800Y-73832988D01*
X138065376Y-73762917D01*
X138093650Y-73697793D01*
X138152644Y-73658293D01*
X138190409Y-73652500D01*
X139158846Y-73652500D01*
X139226967Y-73672502D01*
X139273460Y-73726158D01*
X139283564Y-73796432D01*
X139254070Y-73861012D01*
X139197992Y-73898265D01*
X139169086Y-73907713D01*
X139159584Y-73911708D01*
X138967768Y-74011560D01*
X138959048Y-74017052D01*
X138935390Y-74034815D01*
X138926936Y-74046141D01*
X138933679Y-74058468D01*
X139687189Y-74811979D01*
X139701132Y-74819592D01*
X139702966Y-74819461D01*
X139709580Y-74815210D01*
X140467633Y-74057156D01*
X140474650Y-74044305D01*
X140467295Y-74034210D01*
X140460664Y-74029804D01*
X140271334Y-73925288D01*
X140261937Y-73921065D01*
X140194750Y-73897273D01*
X140137214Y-73855679D01*
X140111298Y-73789581D01*
X140125232Y-73719965D01*
X140174591Y-73668934D01*
X140236810Y-73652500D01*
X141105500Y-73652500D01*
X141173621Y-73672502D01*
X141220114Y-73726158D01*
X141231500Y-73778500D01*
X141231500Y-74193431D01*
X141211498Y-74261552D01*
X141196594Y-74280482D01*
X141165033Y-74313509D01*
X141073338Y-74447929D01*
X141018431Y-74492929D01*
X140947906Y-74501100D01*
X140884159Y-74469846D01*
X140863461Y-74445362D01*
X140847528Y-74420734D01*
X140836843Y-74411531D01*
X140827276Y-74415935D01*
X140072021Y-75171189D01*
X140064408Y-75185132D01*
X140064539Y-75186966D01*
X140068790Y-75193580D01*
X140824810Y-75949599D01*
X140836816Y-75956155D01*
X140848554Y-75947187D01*
X140868663Y-75919203D01*
X140924658Y-75875556D01*
X140995361Y-75869110D01*
X141058326Y-75901913D01*
X141078418Y-75926895D01*
X141121096Y-75996539D01*
X141123793Y-76000940D01*
X141127174Y-76004843D01*
X141268824Y-76168369D01*
X141268828Y-76168373D01*
X141272209Y-76172276D01*
X141276184Y-76175576D01*
X141276187Y-76175579D01*
X141302379Y-76197324D01*
X141446615Y-76317071D01*
X141451082Y-76319681D01*
X141637867Y-76428829D01*
X141637870Y-76428831D01*
X141642329Y-76431436D01*
X141854093Y-76512301D01*
X141859161Y-76513332D01*
X141859164Y-76513333D01*
X141965764Y-76535021D01*
X142076221Y-76557494D01*
X142081394Y-76557684D01*
X142081397Y-76557684D01*
X142297583Y-76565611D01*
X142297587Y-76565611D01*
X142302747Y-76565800D01*
X142307867Y-76565144D01*
X142307869Y-76565144D01*
X142379513Y-76555966D01*
X142527588Y-76536997D01*
X142532537Y-76535512D01*
X142532543Y-76535511D01*
X142739756Y-76473344D01*
X142739755Y-76473344D01*
X142744706Y-76471859D01*
X142948270Y-76372134D01*
X142952475Y-76369134D01*
X142952481Y-76369131D01*
X143128609Y-76243500D01*
X143128611Y-76243498D01*
X143132813Y-76240501D01*
X143293378Y-76080495D01*
X143327247Y-76033362D01*
X143422636Y-75900613D01*
X143425654Y-75896413D01*
X143444166Y-75858958D01*
X143523795Y-75697840D01*
X143526089Y-75693199D01*
X143591985Y-75476310D01*
X143621573Y-75251570D01*
X143623224Y-75184000D01*
X143608397Y-75003658D01*
X143605074Y-74963235D01*
X143605073Y-74963229D01*
X143604650Y-74958084D01*
X143549428Y-74738234D01*
X143547369Y-74733498D01*
X143461100Y-74535093D01*
X143461098Y-74535090D01*
X143459040Y-74530356D01*
X143450306Y-74516855D01*
X143338725Y-74344377D01*
X143338720Y-74344371D01*
X143335914Y-74340033D01*
X143332432Y-74336206D01*
X143281306Y-74280019D01*
X143250254Y-74216173D01*
X143248500Y-74195220D01*
X143248500Y-73213840D01*
X143249237Y-73200232D01*
X143252659Y-73168736D01*
X143252659Y-73168732D01*
X143253324Y-73162611D01*
X143248950Y-73112609D01*
X143248621Y-73107784D01*
X143248500Y-73105313D01*
X143248500Y-73102231D01*
X143244309Y-73059489D01*
X143244187Y-73058174D01*
X143236623Y-72971719D01*
X143236087Y-72965587D01*
X143234600Y-72960468D01*
X143234080Y-72955167D01*
X143207199Y-72866133D01*
X143206864Y-72865000D01*
X143182627Y-72781578D01*
X143182625Y-72781574D01*
X143180908Y-72775663D01*
X143178457Y-72770934D01*
X143176916Y-72765831D01*
X143133230Y-72683669D01*
X143132683Y-72682627D01*
X143092728Y-72605545D01*
X143092727Y-72605544D01*
X143089892Y-72600074D01*
X143086569Y-72595911D01*
X143084066Y-72591204D01*
X143025263Y-72519105D01*
X143024500Y-72518160D01*
X142993261Y-72479027D01*
X142990770Y-72476536D01*
X142990120Y-72475809D01*
X142986408Y-72471463D01*
X142962955Y-72442708D01*
X142959065Y-72437938D01*
X142954323Y-72434015D01*
X142954321Y-72434013D01*
X142923727Y-72408703D01*
X142914947Y-72400713D01*
X142488855Y-71974621D01*
X142479753Y-71964478D01*
X142459897Y-71939782D01*
X142456032Y-71934975D01*
X142417578Y-71902708D01*
X142413931Y-71899528D01*
X142412119Y-71897885D01*
X142409925Y-71895691D01*
X142376651Y-71868358D01*
X142375853Y-71867696D01*
X142304526Y-71807846D01*
X142299856Y-71805278D01*
X142295739Y-71801897D01*
X142213914Y-71758023D01*
X142212755Y-71757394D01*
X142136619Y-71715538D01*
X142136611Y-71715535D01*
X142131213Y-71712567D01*
X142126131Y-71710955D01*
X142121437Y-71708438D01*
X142032469Y-71681238D01*
X142031441Y-71680918D01*
X141942694Y-71652765D01*
X141937398Y-71652171D01*
X141932302Y-71650613D01*
X141839743Y-71641210D01*
X141838607Y-71641089D01*
X141804992Y-71637319D01*
X141792270Y-71635892D01*
X141792266Y-71635892D01*
X141788773Y-71635500D01*
X141785246Y-71635500D01*
X141784261Y-71635445D01*
X141778581Y-71634998D01*
X141749175Y-71632011D01*
X141741663Y-71631248D01*
X141741661Y-71631248D01*
X141735538Y-71630626D01*
X141693259Y-71634623D01*
X141689891Y-71634941D01*
X141678033Y-71635500D01*
X123913924Y-71635500D01*
X123845803Y-71615498D01*
X123824829Y-71598595D01*
X123029405Y-70803171D01*
X122995379Y-70740859D01*
X122992500Y-70714076D01*
X122992500Y-70672556D01*
X123012502Y-70604435D01*
X123036668Y-70576746D01*
X123050212Y-70565178D01*
X123050213Y-70565177D01*
X123053969Y-70561969D01*
X123208176Y-70381416D01*
X123210755Y-70377208D01*
X123210759Y-70377202D01*
X123329654Y-70183183D01*
X123332240Y-70178963D01*
X123423105Y-69959594D01*
X123478535Y-69728711D01*
X123497165Y-69492000D01*
X123478535Y-69255289D01*
X123423105Y-69024406D01*
X123405459Y-68981804D01*
X123334135Y-68809611D01*
X123334133Y-68809607D01*
X123332240Y-68805037D01*
X123267047Y-68698652D01*
X123210759Y-68606798D01*
X123210755Y-68606792D01*
X123208176Y-68602584D01*
X123053969Y-68422031D01*
X123050212Y-68418822D01*
X123050208Y-68418818D01*
X122895062Y-68286311D01*
X122856252Y-68226861D01*
X122855745Y-68155866D01*
X122893702Y-68095867D01*
X122958070Y-68065914D01*
X122976892Y-68064500D01*
X124498075Y-68064500D01*
X124566196Y-68084502D01*
X124587170Y-68101405D01*
X124828800Y-68343035D01*
X124862826Y-68405347D01*
X124857761Y-68476162D01*
X124835517Y-68513959D01*
X124759824Y-68602584D01*
X124757245Y-68606792D01*
X124757241Y-68606798D01*
X124700953Y-68698652D01*
X124635760Y-68805037D01*
X124633867Y-68809607D01*
X124633865Y-68809611D01*
X124562541Y-68981804D01*
X124544895Y-69024406D01*
X124489465Y-69255289D01*
X124470835Y-69492000D01*
X124489465Y-69728711D01*
X124544895Y-69959594D01*
X124635760Y-70178963D01*
X124638346Y-70183183D01*
X124757241Y-70377202D01*
X124757245Y-70377208D01*
X124759824Y-70381416D01*
X124914031Y-70561969D01*
X125094584Y-70716176D01*
X125098792Y-70718755D01*
X125098798Y-70718759D01*
X125236546Y-70803171D01*
X125297037Y-70840240D01*
X125301607Y-70842133D01*
X125301611Y-70842135D01*
X125511833Y-70929211D01*
X125516406Y-70931105D01*
X125596609Y-70950360D01*
X125742476Y-70985380D01*
X125742482Y-70985381D01*
X125747289Y-70986535D01*
X125984000Y-71005165D01*
X126220711Y-70986535D01*
X126225518Y-70985381D01*
X126225524Y-70985380D01*
X126371391Y-70950360D01*
X126451594Y-70931105D01*
X126456167Y-70929211D01*
X126666389Y-70842135D01*
X126666393Y-70842133D01*
X126670963Y-70840240D01*
X126731454Y-70803171D01*
X126869202Y-70718759D01*
X126869208Y-70718755D01*
X126873416Y-70716176D01*
X127053969Y-70561969D01*
X127208176Y-70381416D01*
X127210755Y-70377208D01*
X127210759Y-70377202D01*
X127329654Y-70183183D01*
X127332240Y-70178963D01*
X127423105Y-69959594D01*
X127478535Y-69728711D01*
X127497165Y-69492000D01*
X127478535Y-69255289D01*
X127423105Y-69024406D01*
X127405459Y-68981804D01*
X127334135Y-68809611D01*
X127334133Y-68809607D01*
X127332240Y-68805037D01*
X127267047Y-68698652D01*
X127210759Y-68606798D01*
X127210755Y-68606792D01*
X127208176Y-68602584D01*
X127053969Y-68422031D01*
X127042761Y-68412458D01*
X127036668Y-68407254D01*
X126997860Y-68347803D01*
X126992500Y-68311444D01*
X126992500Y-68133843D01*
X126993237Y-68120236D01*
X126996659Y-68088738D01*
X126996659Y-68088733D01*
X126997324Y-68082612D01*
X126992950Y-68032612D01*
X126992621Y-68027786D01*
X126992500Y-68025309D01*
X126992500Y-68022231D01*
X126988300Y-67979393D01*
X126988188Y-67978188D01*
X126980623Y-67891719D01*
X126980087Y-67885587D01*
X126978600Y-67880468D01*
X126978080Y-67875167D01*
X126951209Y-67786166D01*
X126950874Y-67785033D01*
X126926630Y-67701586D01*
X126926628Y-67701582D01*
X126924909Y-67695664D01*
X126922456Y-67690932D01*
X126920916Y-67685831D01*
X126877269Y-67603740D01*
X126876657Y-67602574D01*
X126836729Y-67525547D01*
X126833892Y-67520074D01*
X126830569Y-67515911D01*
X126828066Y-67511204D01*
X126769245Y-67439082D01*
X126768554Y-67438226D01*
X126737262Y-67399027D01*
X126734758Y-67396523D01*
X126734116Y-67395805D01*
X126730415Y-67391472D01*
X126703065Y-67357938D01*
X126667733Y-67328709D01*
X126658963Y-67320728D01*
X125724851Y-66386617D01*
X125715749Y-66376473D01*
X125695897Y-66351782D01*
X125692032Y-66346975D01*
X125653578Y-66314708D01*
X125649931Y-66311528D01*
X125648119Y-66309885D01*
X125645925Y-66307691D01*
X125612651Y-66280358D01*
X125611853Y-66279696D01*
X125582446Y-66255021D01*
X125543120Y-66195912D01*
X125541994Y-66124925D01*
X125579425Y-66064597D01*
X125643530Y-66034083D01*
X125663438Y-66032500D01*
X127038075Y-66032500D01*
X127106196Y-66052502D01*
X127127170Y-66069405D01*
X128938595Y-67880829D01*
X128972620Y-67943141D01*
X128975500Y-67969924D01*
X128975500Y-68311444D01*
X128955498Y-68379565D01*
X128931332Y-68407254D01*
X128925239Y-68412458D01*
X128914031Y-68422031D01*
X128759824Y-68602584D01*
X128757245Y-68606792D01*
X128757241Y-68606798D01*
X128700953Y-68698652D01*
X128635760Y-68805037D01*
X128633867Y-68809607D01*
X128633865Y-68809611D01*
X128562541Y-68981804D01*
X128544895Y-69024406D01*
X128489465Y-69255289D01*
X128470835Y-69492000D01*
X128489465Y-69728711D01*
X128544895Y-69959594D01*
X128635760Y-70178963D01*
X128638346Y-70183183D01*
X128757241Y-70377202D01*
X128757245Y-70377208D01*
X128759824Y-70381416D01*
X128914031Y-70561969D01*
X129094584Y-70716176D01*
X129098792Y-70718755D01*
X129098798Y-70718759D01*
X129236546Y-70803171D01*
X129297037Y-70840240D01*
X129301607Y-70842133D01*
X129301611Y-70842135D01*
X129511833Y-70929211D01*
X129516406Y-70931105D01*
X129596609Y-70950360D01*
X129742476Y-70985380D01*
X129742482Y-70985381D01*
X129747289Y-70986535D01*
X129984000Y-71005165D01*
X130220711Y-70986535D01*
X130225518Y-70985381D01*
X130225524Y-70985380D01*
X130371391Y-70950360D01*
X130451594Y-70931105D01*
X130456167Y-70929211D01*
X130666389Y-70842135D01*
X130666393Y-70842133D01*
X130670963Y-70840240D01*
X130731454Y-70803171D01*
X130869202Y-70718759D01*
X130869208Y-70718755D01*
X130873416Y-70716176D01*
X131053969Y-70561969D01*
X131208176Y-70381416D01*
X131210755Y-70377208D01*
X131210759Y-70377202D01*
X131329654Y-70183183D01*
X131332240Y-70178963D01*
X131423105Y-69959594D01*
X131478535Y-69728711D01*
X131497165Y-69492000D01*
X131478535Y-69255289D01*
X131423105Y-69024406D01*
X131405459Y-68981804D01*
X131334135Y-68809611D01*
X131334133Y-68809607D01*
X131332240Y-68805037D01*
X131267047Y-68698652D01*
X131210759Y-68606798D01*
X131210755Y-68606792D01*
X131208176Y-68602584D01*
X131053969Y-68422031D01*
X131042761Y-68412458D01*
X131036668Y-68407254D01*
X130997860Y-68347803D01*
X130992500Y-68311444D01*
X130992500Y-67561843D01*
X130993237Y-67548236D01*
X130996659Y-67516738D01*
X130996659Y-67516733D01*
X130997324Y-67510612D01*
X130992950Y-67460612D01*
X130992621Y-67455786D01*
X130992500Y-67453314D01*
X130992500Y-67450231D01*
X130991312Y-67438116D01*
X130988310Y-67407494D01*
X130988188Y-67406181D01*
X130983624Y-67354014D01*
X130980087Y-67313587D01*
X130978600Y-67308468D01*
X130978080Y-67303167D01*
X130951209Y-67214166D01*
X130950874Y-67213033D01*
X130926630Y-67129586D01*
X130926628Y-67129582D01*
X130924909Y-67123664D01*
X130922456Y-67118932D01*
X130920916Y-67113831D01*
X130877269Y-67031740D01*
X130876657Y-67030574D01*
X130836729Y-66953547D01*
X130833892Y-66948074D01*
X130830569Y-66943911D01*
X130828066Y-66939204D01*
X130769261Y-66867102D01*
X130768433Y-66866075D01*
X130739469Y-66829792D01*
X130739464Y-66829787D01*
X130737262Y-66827028D01*
X130734761Y-66824527D01*
X130734119Y-66823809D01*
X130730406Y-66819461D01*
X130721506Y-66808549D01*
X130703065Y-66785938D01*
X130698323Y-66782015D01*
X130698321Y-66782013D01*
X130667727Y-66756703D01*
X130658947Y-66748713D01*
X128498562Y-64588328D01*
X134475500Y-64588328D01*
X134475808Y-64594408D01*
X134514900Y-64788284D01*
X134590905Y-64970873D01*
X134594332Y-64975992D01*
X134594334Y-64975996D01*
X134697496Y-65130099D01*
X134697500Y-65130104D01*
X134700927Y-65135223D01*
X134840777Y-65275073D01*
X134845896Y-65278500D01*
X134845901Y-65278504D01*
X135000004Y-65381666D01*
X135000008Y-65381668D01*
X135005127Y-65385095D01*
X135187716Y-65461100D01*
X135193752Y-65462317D01*
X135193755Y-65462318D01*
X135377004Y-65499267D01*
X135381592Y-65500192D01*
X135387672Y-65500500D01*
X136580328Y-65500500D01*
X136586408Y-65500192D01*
X136590996Y-65499267D01*
X136774245Y-65462318D01*
X136774248Y-65462317D01*
X136780284Y-65461100D01*
X136962873Y-65385095D01*
X136967992Y-65381668D01*
X136967996Y-65381666D01*
X137122099Y-65278504D01*
X137122104Y-65278500D01*
X137127223Y-65275073D01*
X137267073Y-65135223D01*
X137270500Y-65130104D01*
X137270504Y-65130099D01*
X137373666Y-64975996D01*
X137373668Y-64975992D01*
X137377095Y-64970873D01*
X137453100Y-64788284D01*
X137492192Y-64594408D01*
X137492500Y-64588328D01*
X137492500Y-61395672D01*
X137492192Y-61389592D01*
X137453100Y-61195716D01*
X137377095Y-61013127D01*
X137373668Y-61008008D01*
X137373666Y-61008004D01*
X137270504Y-60853901D01*
X137270500Y-60853896D01*
X137267073Y-60848777D01*
X137127223Y-60708927D01*
X137122104Y-60705500D01*
X137122099Y-60705496D01*
X136967996Y-60602334D01*
X136967992Y-60602332D01*
X136962873Y-60598905D01*
X136780284Y-60522900D01*
X136774248Y-60521683D01*
X136774245Y-60521682D01*
X136590996Y-60484733D01*
X136590995Y-60484733D01*
X136586408Y-60483808D01*
X136580328Y-60483500D01*
X135387672Y-60483500D01*
X135381592Y-60483808D01*
X135377005Y-60484733D01*
X135377004Y-60484733D01*
X135193755Y-60521682D01*
X135193752Y-60521683D01*
X135187716Y-60522900D01*
X135005127Y-60598905D01*
X135000008Y-60602332D01*
X135000004Y-60602334D01*
X134845901Y-60705496D01*
X134845896Y-60705500D01*
X134840777Y-60708927D01*
X134700927Y-60848777D01*
X134697500Y-60853896D01*
X134697496Y-60853901D01*
X134594334Y-61008004D01*
X134594332Y-61008008D01*
X134590905Y-61013127D01*
X134514900Y-61195716D01*
X134475808Y-61389592D01*
X134475500Y-61395672D01*
X134475500Y-64588328D01*
X128498562Y-64588328D01*
X128264855Y-64354621D01*
X128255753Y-64344478D01*
X128235897Y-64319782D01*
X128232032Y-64314975D01*
X128193578Y-64282708D01*
X128189931Y-64279528D01*
X128188119Y-64277885D01*
X128185925Y-64275691D01*
X128152651Y-64248358D01*
X128151853Y-64247696D01*
X128080526Y-64187846D01*
X128075856Y-64185278D01*
X128071739Y-64181897D01*
X127989914Y-64138023D01*
X127988755Y-64137394D01*
X127912619Y-64095538D01*
X127912611Y-64095535D01*
X127907213Y-64092567D01*
X127902131Y-64090955D01*
X127897437Y-64088438D01*
X127808469Y-64061238D01*
X127807441Y-64060918D01*
X127718694Y-64032765D01*
X127713398Y-64032171D01*
X127708302Y-64030613D01*
X127615743Y-64021210D01*
X127614607Y-64021089D01*
X127580992Y-64017319D01*
X127568270Y-64015892D01*
X127568266Y-64015892D01*
X127564773Y-64015500D01*
X127561246Y-64015500D01*
X127560261Y-64015445D01*
X127554581Y-64014998D01*
X127525175Y-64012011D01*
X127517663Y-64011248D01*
X127517661Y-64011248D01*
X127511538Y-64010626D01*
X127469259Y-64014623D01*
X127465891Y-64014941D01*
X127454033Y-64015500D01*
X119441840Y-64015500D01*
X119428232Y-64014763D01*
X119396736Y-64011341D01*
X119396732Y-64011341D01*
X119390611Y-64010676D01*
X119372611Y-64012251D01*
X119340609Y-64015050D01*
X119335784Y-64015379D01*
X119333313Y-64015500D01*
X119330231Y-64015500D01*
X119307763Y-64017703D01*
X119287489Y-64019691D01*
X119286174Y-64019813D01*
X119253913Y-64022636D01*
X119193587Y-64027913D01*
X119188468Y-64029400D01*
X119183167Y-64029920D01*
X119094133Y-64056801D01*
X119093000Y-64057136D01*
X119009578Y-64081373D01*
X119009574Y-64081375D01*
X119003663Y-64083092D01*
X118998934Y-64085543D01*
X118993831Y-64087084D01*
X118911669Y-64130770D01*
X118910627Y-64131317D01*
X118897690Y-64138023D01*
X118828074Y-64174108D01*
X118823911Y-64177431D01*
X118819204Y-64179934D01*
X118814430Y-64183828D01*
X118814428Y-64183829D01*
X118747105Y-64238737D01*
X118746160Y-64239500D01*
X118707027Y-64270739D01*
X118704536Y-64273230D01*
X118703809Y-64273880D01*
X118699463Y-64277592D01*
X118680588Y-64292987D01*
X118665938Y-64304935D01*
X118662015Y-64309677D01*
X118662013Y-64309679D01*
X118636703Y-64340273D01*
X118628713Y-64349053D01*
X116459171Y-66518595D01*
X116396859Y-66552621D01*
X116370076Y-66555500D01*
X109789840Y-66555500D01*
X109776232Y-66554763D01*
X109744736Y-66551341D01*
X109744732Y-66551341D01*
X109738611Y-66550676D01*
X109720611Y-66552251D01*
X109688609Y-66555050D01*
X109683784Y-66555379D01*
X109681313Y-66555500D01*
X109678231Y-66555500D01*
X109655763Y-66557703D01*
X109635489Y-66559691D01*
X109634174Y-66559813D01*
X109601913Y-66562636D01*
X109541587Y-66567913D01*
X109536468Y-66569400D01*
X109531167Y-66569920D01*
X109442133Y-66596801D01*
X109441000Y-66597136D01*
X109357578Y-66621373D01*
X109357574Y-66621375D01*
X109351663Y-66623092D01*
X109346934Y-66625543D01*
X109341831Y-66627084D01*
X109259669Y-66670770D01*
X109258627Y-66671317D01*
X109176074Y-66714108D01*
X109171911Y-66717431D01*
X109167204Y-66719934D01*
X109162430Y-66723828D01*
X109162428Y-66723829D01*
X109095105Y-66778737D01*
X109094160Y-66779500D01*
X109055027Y-66810739D01*
X109052536Y-66813230D01*
X109051809Y-66813880D01*
X109047463Y-66817592D01*
X109039841Y-66823809D01*
X109013938Y-66844935D01*
X109010015Y-66849677D01*
X109010013Y-66849679D01*
X108984703Y-66880273D01*
X108976713Y-66889053D01*
X107534621Y-68331145D01*
X107524478Y-68340247D01*
X107494975Y-68363968D01*
X107491008Y-68368696D01*
X107462709Y-68402421D01*
X107459528Y-68406069D01*
X107457885Y-68407881D01*
X107455691Y-68410075D01*
X107428358Y-68443349D01*
X107427696Y-68444147D01*
X107367846Y-68515474D01*
X107365278Y-68520144D01*
X107361897Y-68524261D01*
X107335637Y-68573237D01*
X107318023Y-68606086D01*
X107317394Y-68607245D01*
X107275538Y-68683381D01*
X107275535Y-68683389D01*
X107272567Y-68688787D01*
X107270955Y-68693869D01*
X107268438Y-68698563D01*
X107241238Y-68787531D01*
X107240918Y-68788559D01*
X107212765Y-68877306D01*
X107212171Y-68882602D01*
X107210613Y-68887698D01*
X107209990Y-68893834D01*
X107201218Y-68980187D01*
X107201089Y-68981393D01*
X107195500Y-69031227D01*
X107195500Y-69034754D01*
X107195445Y-69035739D01*
X107194998Y-69041419D01*
X107190626Y-69084462D01*
X107191206Y-69090593D01*
X107194941Y-69130109D01*
X107195500Y-69141967D01*
X107195500Y-73842194D01*
X107175498Y-73910315D01*
X107135805Y-73949337D01*
X107115877Y-73961669D01*
X107115872Y-73961673D01*
X107109652Y-73965522D01*
X106984695Y-74090697D01*
X106980855Y-74096927D01*
X106980854Y-74096928D01*
X106921369Y-74193431D01*
X106891885Y-74241262D01*
X106836203Y-74409139D01*
X106825500Y-74513600D01*
X106825500Y-75854400D01*
X100508500Y-75854400D01*
X100508500Y-64588328D01*
X114475500Y-64588328D01*
X114475808Y-64594408D01*
X114514900Y-64788284D01*
X114590905Y-64970873D01*
X114594332Y-64975992D01*
X114594334Y-64975996D01*
X114697496Y-65130099D01*
X114697500Y-65130104D01*
X114700927Y-65135223D01*
X114840777Y-65275073D01*
X114845896Y-65278500D01*
X114845901Y-65278504D01*
X115000004Y-65381666D01*
X115000008Y-65381668D01*
X115005127Y-65385095D01*
X115187716Y-65461100D01*
X115193752Y-65462317D01*
X115193755Y-65462318D01*
X115377004Y-65499267D01*
X115381592Y-65500192D01*
X115387672Y-65500500D01*
X116580328Y-65500500D01*
X116586408Y-65500192D01*
X116590996Y-65499267D01*
X116774245Y-65462318D01*
X116774248Y-65462317D01*
X116780284Y-65461100D01*
X116962873Y-65385095D01*
X116967992Y-65381668D01*
X116967996Y-65381666D01*
X117122099Y-65278504D01*
X117122104Y-65278500D01*
X117127223Y-65275073D01*
X117267073Y-65135223D01*
X117270500Y-65130104D01*
X117270504Y-65130099D01*
X117373666Y-64975996D01*
X117373668Y-64975992D01*
X117377095Y-64970873D01*
X117453100Y-64788284D01*
X117492192Y-64594408D01*
X117492500Y-64588328D01*
X117492500Y-61395672D01*
X117492192Y-61389592D01*
X117453100Y-61195716D01*
X117377095Y-61013127D01*
X117373668Y-61008008D01*
X117373666Y-61008004D01*
X117270504Y-60853901D01*
X117270500Y-60853896D01*
X117267073Y-60848777D01*
X117127223Y-60708927D01*
X117122104Y-60705500D01*
X117122099Y-60705496D01*
X116967996Y-60602334D01*
X116967992Y-60602332D01*
X116962873Y-60598905D01*
X116780284Y-60522900D01*
X116774248Y-60521683D01*
X116774245Y-60521682D01*
X116590996Y-60484733D01*
X116590995Y-60484733D01*
X116586408Y-60483808D01*
X116580328Y-60483500D01*
X115387672Y-60483500D01*
X115381592Y-60483808D01*
X115377005Y-60484733D01*
X115377004Y-60484733D01*
X115193755Y-60521682D01*
X115193752Y-60521683D01*
X115187716Y-60522900D01*
X115005127Y-60598905D01*
X115000008Y-60602332D01*
X115000004Y-60602334D01*
X114845901Y-60705496D01*
X114845896Y-60705500D01*
X114840777Y-60708927D01*
X114700927Y-60848777D01*
X114697500Y-60853896D01*
X114697496Y-60853901D01*
X114594334Y-61008004D01*
X114594332Y-61008008D01*
X114590905Y-61013127D01*
X114514900Y-61195716D01*
X114475808Y-61389592D01*
X114475500Y-61395672D01*
X114475500Y-64588328D01*
X100508500Y-64588328D01*
X100508500Y-56492000D01*
X120470835Y-56492000D01*
X120489465Y-56728711D01*
X120544895Y-56959594D01*
X120635760Y-57178963D01*
X120638346Y-57183183D01*
X120757241Y-57377202D01*
X120757245Y-57377208D01*
X120759824Y-57381416D01*
X120914031Y-57561969D01*
X121094584Y-57716176D01*
X121098792Y-57718755D01*
X121098798Y-57718759D01*
X121292817Y-57837654D01*
X121297037Y-57840240D01*
X121301607Y-57842133D01*
X121301611Y-57842135D01*
X121511833Y-57929211D01*
X121516406Y-57931105D01*
X121596609Y-57950360D01*
X121742476Y-57985380D01*
X121742482Y-57985381D01*
X121747289Y-57986535D01*
X121984000Y-58005165D01*
X122220711Y-57986535D01*
X122225518Y-57985381D01*
X122225524Y-57985380D01*
X122371391Y-57950360D01*
X122451594Y-57931105D01*
X122456167Y-57929211D01*
X122666389Y-57842135D01*
X122666393Y-57842133D01*
X122670963Y-57840240D01*
X122675183Y-57837654D01*
X122869202Y-57718759D01*
X122869208Y-57718755D01*
X122873416Y-57716176D01*
X123053969Y-57561969D01*
X123208176Y-57381416D01*
X123210755Y-57377208D01*
X123210759Y-57377202D01*
X123329654Y-57183183D01*
X123332240Y-57178963D01*
X123423105Y-56959594D01*
X123478535Y-56728711D01*
X123497165Y-56492000D01*
X124470835Y-56492000D01*
X124489465Y-56728711D01*
X124544895Y-56959594D01*
X124635760Y-57178963D01*
X124638346Y-57183183D01*
X124757241Y-57377202D01*
X124757245Y-57377208D01*
X124759824Y-57381416D01*
X124914031Y-57561969D01*
X125094584Y-57716176D01*
X125098792Y-57718755D01*
X125098798Y-57718759D01*
X125292817Y-57837654D01*
X125297037Y-57840240D01*
X125301607Y-57842133D01*
X125301611Y-57842135D01*
X125511833Y-57929211D01*
X125516406Y-57931105D01*
X125596609Y-57950360D01*
X125742476Y-57985380D01*
X125742482Y-57985381D01*
X125747289Y-57986535D01*
X125984000Y-58005165D01*
X126220711Y-57986535D01*
X126225518Y-57985381D01*
X126225524Y-57985380D01*
X126371391Y-57950360D01*
X126451594Y-57931105D01*
X126456167Y-57929211D01*
X126666389Y-57842135D01*
X126666393Y-57842133D01*
X126670963Y-57840240D01*
X126675183Y-57837654D01*
X126869202Y-57718759D01*
X126869208Y-57718755D01*
X126873416Y-57716176D01*
X127053969Y-57561969D01*
X127208176Y-57381416D01*
X127210755Y-57377208D01*
X127210759Y-57377202D01*
X127329654Y-57183183D01*
X127332240Y-57178963D01*
X127423105Y-56959594D01*
X127478535Y-56728711D01*
X127497165Y-56492000D01*
X128470835Y-56492000D01*
X128489465Y-56728711D01*
X128544895Y-56959594D01*
X128635760Y-57178963D01*
X128638346Y-57183183D01*
X128757241Y-57377202D01*
X128757245Y-57377208D01*
X128759824Y-57381416D01*
X128914031Y-57561969D01*
X129094584Y-57716176D01*
X129098792Y-57718755D01*
X129098798Y-57718759D01*
X129292817Y-57837654D01*
X129297037Y-57840240D01*
X129301607Y-57842133D01*
X129301611Y-57842135D01*
X129511833Y-57929211D01*
X129516406Y-57931105D01*
X129596609Y-57950360D01*
X129742476Y-57985380D01*
X129742482Y-57985381D01*
X129747289Y-57986535D01*
X129984000Y-58005165D01*
X130220711Y-57986535D01*
X130225518Y-57985381D01*
X130225524Y-57985380D01*
X130371391Y-57950360D01*
X130451594Y-57931105D01*
X130456167Y-57929211D01*
X130666389Y-57842135D01*
X130666393Y-57842133D01*
X130670963Y-57840240D01*
X130675183Y-57837654D01*
X130869202Y-57718759D01*
X130869208Y-57718755D01*
X130873416Y-57716176D01*
X131053969Y-57561969D01*
X131208176Y-57381416D01*
X131210755Y-57377208D01*
X131210759Y-57377202D01*
X131329654Y-57183183D01*
X131332240Y-57178963D01*
X131423105Y-56959594D01*
X131478535Y-56728711D01*
X131497165Y-56492000D01*
X131478535Y-56255289D01*
X131423105Y-56024406D01*
X131332240Y-55805037D01*
X131329654Y-55800817D01*
X131210759Y-55606798D01*
X131210755Y-55606792D01*
X131208176Y-55602584D01*
X131053969Y-55422031D01*
X130873416Y-55267824D01*
X130869208Y-55265245D01*
X130869202Y-55265241D01*
X130675183Y-55146346D01*
X130670963Y-55143760D01*
X130666393Y-55141867D01*
X130666389Y-55141865D01*
X130456167Y-55054789D01*
X130456165Y-55054788D01*
X130451594Y-55052895D01*
X130371391Y-55033640D01*
X130225524Y-54998620D01*
X130225518Y-54998619D01*
X130220711Y-54997465D01*
X129984000Y-54978835D01*
X129747289Y-54997465D01*
X129742482Y-54998619D01*
X129742476Y-54998620D01*
X129596609Y-55033640D01*
X129516406Y-55052895D01*
X129511835Y-55054788D01*
X129511833Y-55054789D01*
X129301611Y-55141865D01*
X129301607Y-55141867D01*
X129297037Y-55143760D01*
X129292817Y-55146346D01*
X129098798Y-55265241D01*
X129098792Y-55265245D01*
X129094584Y-55267824D01*
X128914031Y-55422031D01*
X128759824Y-55602584D01*
X128757245Y-55606792D01*
X128757241Y-55606798D01*
X128638346Y-55800817D01*
X128635760Y-55805037D01*
X128544895Y-56024406D01*
X128489465Y-56255289D01*
X128470835Y-56492000D01*
X127497165Y-56492000D01*
X127478535Y-56255289D01*
X127423105Y-56024406D01*
X127332240Y-55805037D01*
X127329654Y-55800817D01*
X127210759Y-55606798D01*
X127210755Y-55606792D01*
X127208176Y-55602584D01*
X127053969Y-55422031D01*
X126873416Y-55267824D01*
X126869208Y-55265245D01*
X126869202Y-55265241D01*
X126675183Y-55146346D01*
X126670963Y-55143760D01*
X126666393Y-55141867D01*
X126666389Y-55141865D01*
X126456167Y-55054789D01*
X126456165Y-55054788D01*
X126451594Y-55052895D01*
X126371391Y-55033640D01*
X126225524Y-54998620D01*
X126225518Y-54998619D01*
X126220711Y-54997465D01*
X125984000Y-54978835D01*
X125747289Y-54997465D01*
X125742482Y-54998619D01*
X125742476Y-54998620D01*
X125596609Y-55033640D01*
X125516406Y-55052895D01*
X125511835Y-55054788D01*
X125511833Y-55054789D01*
X125301611Y-55141865D01*
X125301607Y-55141867D01*
X125297037Y-55143760D01*
X125292817Y-55146346D01*
X125098798Y-55265241D01*
X125098792Y-55265245D01*
X125094584Y-55267824D01*
X124914031Y-55422031D01*
X124759824Y-55602584D01*
X124757245Y-55606792D01*
X124757241Y-55606798D01*
X124638346Y-55800817D01*
X124635760Y-55805037D01*
X124544895Y-56024406D01*
X124489465Y-56255289D01*
X124470835Y-56492000D01*
X123497165Y-56492000D01*
X123478535Y-56255289D01*
X123423105Y-56024406D01*
X123332240Y-55805037D01*
X123329654Y-55800817D01*
X123210759Y-55606798D01*
X123210755Y-55606792D01*
X123208176Y-55602584D01*
X123053969Y-55422031D01*
X122873416Y-55267824D01*
X122869208Y-55265245D01*
X122869202Y-55265241D01*
X122675183Y-55146346D01*
X122670963Y-55143760D01*
X122666393Y-55141867D01*
X122666389Y-55141865D01*
X122456167Y-55054789D01*
X122456165Y-55054788D01*
X122451594Y-55052895D01*
X122371391Y-55033640D01*
X122225524Y-54998620D01*
X122225518Y-54998619D01*
X122220711Y-54997465D01*
X121984000Y-54978835D01*
X121747289Y-54997465D01*
X121742482Y-54998619D01*
X121742476Y-54998620D01*
X121596609Y-55033640D01*
X121516406Y-55052895D01*
X121511835Y-55054788D01*
X121511833Y-55054789D01*
X121301611Y-55141865D01*
X121301607Y-55141867D01*
X121297037Y-55143760D01*
X121292817Y-55146346D01*
X121098798Y-55265241D01*
X121098792Y-55265245D01*
X121094584Y-55267824D01*
X120914031Y-55422031D01*
X120759824Y-55602584D01*
X120757245Y-55606792D01*
X120757241Y-55606798D01*
X120638346Y-55800817D01*
X120635760Y-55805037D01*
X120544895Y-56024406D01*
X120489465Y-56255289D01*
X120470835Y-56492000D01*
X100508500Y-56492000D01*
X100508500Y-44053250D01*
X100510246Y-44032345D01*
X100512770Y-44017344D01*
X100512770Y-44017341D01*
X100513576Y-44012552D01*
X100513729Y-44000000D01*
X100513040Y-43995185D01*
X100513039Y-43995177D01*
X100511550Y-43984781D01*
X100510429Y-43960735D01*
X100514191Y-43884175D01*
X100525010Y-43663949D01*
X100526221Y-43651650D01*
X100574679Y-43324969D01*
X100577091Y-43312841D01*
X100657339Y-42992477D01*
X100660928Y-42980645D01*
X100772190Y-42669689D01*
X100776922Y-42658265D01*
X100878652Y-42443173D01*
X100918128Y-42359708D01*
X100923955Y-42348807D01*
X101093744Y-42065533D01*
X101100614Y-42055252D01*
X101153099Y-41984483D01*
X101297350Y-41789983D01*
X101305177Y-41780444D01*
X101526985Y-41535718D01*
X101535718Y-41526985D01*
X101780444Y-41305177D01*
X101789983Y-41297350D01*
X102055252Y-41100614D01*
X102065533Y-41093744D01*
X102256819Y-40979091D01*
X102348812Y-40923953D01*
X102359708Y-40918128D01*
X102590500Y-40808972D01*
X102658265Y-40776922D01*
X102669689Y-40772191D01*
X102905165Y-40687936D01*
X102976042Y-40683819D01*
X103037893Y-40718675D01*
X103071081Y-40781437D01*
X103065069Y-40852179D01*
X103023619Y-40907063D01*
X102941367Y-40969270D01*
X102680559Y-41215043D01*
X102447819Y-41487546D01*
X102445900Y-41490358D01*
X102445897Y-41490363D01*
X102420919Y-41526980D01*
X102245871Y-41783591D01*
X102077077Y-42099714D01*
X101943411Y-42432218D01*
X101942491Y-42435492D01*
X101942489Y-42435497D01*
X101876661Y-42669689D01*
X101846437Y-42777213D01*
X101787290Y-43130663D01*
X101766661Y-43488434D01*
X101784792Y-43846340D01*
X101785329Y-43849695D01*
X101785330Y-43849701D01*
X101807901Y-43990618D01*
X101841470Y-44200195D01*
X101936033Y-44545859D01*
X102067374Y-44879288D01*
X102233957Y-45196582D01*
X102235858Y-45199411D01*
X102235864Y-45199421D01*
X102419569Y-45472800D01*
X102433834Y-45494029D01*
X102664665Y-45768150D01*
X102923751Y-46015738D01*
X103208061Y-46233897D01*
X103240056Y-46253350D01*
X103511355Y-46418303D01*
X103511360Y-46418306D01*
X103514270Y-46420075D01*
X103517358Y-46421521D01*
X103517357Y-46421521D01*
X103835710Y-46570649D01*
X103835720Y-46570653D01*
X103838794Y-46572093D01*
X103842012Y-46573195D01*
X103842015Y-46573196D01*
X104174615Y-46687071D01*
X104174623Y-46687073D01*
X104177838Y-46688174D01*
X104527435Y-46766959D01*
X104579728Y-46772917D01*
X104880114Y-46807142D01*
X104880122Y-46807142D01*
X104883497Y-46807527D01*
X104886901Y-46807545D01*
X104886904Y-46807545D01*
X105081227Y-46808562D01*
X105241857Y-46809403D01*
X105245243Y-46809053D01*
X105245245Y-46809053D01*
X105594932Y-46772917D01*
X105594941Y-46772916D01*
X105598324Y-46772566D01*
X105601657Y-46771852D01*
X105601660Y-46771851D01*
X105774186Y-46734864D01*
X105948727Y-46697446D01*
X106288968Y-46584922D01*
X106615066Y-46436311D01*
X106709052Y-46380506D01*
X106920262Y-46255099D01*
X106920267Y-46255096D01*
X106923207Y-46253350D01*
X107209786Y-46038180D01*
X107471451Y-45793319D01*
X107705140Y-45521630D01*
X107811750Y-45366512D01*
X107906190Y-45229101D01*
X107906195Y-45229094D01*
X107908120Y-45226292D01*
X107909732Y-45223298D01*
X107909737Y-45223290D01*
X108076395Y-44913772D01*
X108078017Y-44910760D01*
X108212842Y-44578724D01*
X108223142Y-44542568D01*
X108243527Y-44471006D01*
X108311020Y-44234070D01*
X108348885Y-44012552D01*
X108370829Y-43884175D01*
X108370829Y-43884173D01*
X108371401Y-43880828D01*
X108373511Y-43846340D01*
X108393168Y-43524928D01*
X108393278Y-43523131D01*
X108393359Y-43500000D01*
X108373979Y-43142159D01*
X108316066Y-42788505D01*
X108220297Y-42443173D01*
X108217243Y-42435497D01*
X108089052Y-42113369D01*
X108087793Y-42110205D01*
X108057768Y-42053498D01*
X107921702Y-41796513D01*
X107921698Y-41796506D01*
X107920103Y-41793494D01*
X107719190Y-41496746D01*
X107487403Y-41223432D01*
X107227454Y-40976750D01*
X106965142Y-40776922D01*
X106945091Y-40761647D01*
X106945089Y-40761646D01*
X106942384Y-40759585D01*
X106939466Y-40757825D01*
X106939459Y-40757820D01*
X106913880Y-40742390D01*
X106865881Y-40690077D01*
X106853785Y-40620118D01*
X106881432Y-40554726D01*
X106940044Y-40514661D01*
X106978962Y-40508500D01*
X143020006Y-40508500D01*
X143088127Y-40528502D01*
G37*
%TD.AperFunction*%
%TD*%
M02*
