%TF.GenerationSoftware,KiCad,Pcbnew,(6.0.7)*%
%TF.CreationDate,2023-02-26T22:32:21-05:00*%
%TF.ProjectId,ULTRA_FUZZ,554c5452-415f-4465-955a-5a2e6b696361,rev?*%
%TF.SameCoordinates,Original*%
%TF.FileFunction,Legend,Top*%
%TF.FilePolarity,Positive*%
%FSLAX46Y46*%
G04 Gerber Fmt 4.6, Leading zero omitted, Abs format (unit mm)*
G04 Created by KiCad (PCBNEW (6.0.7)) date 2023-02-26 22:32:21*
%MOMM*%
%LPD*%
G01*
G04 APERTURE LIST*
%ADD10C,0.300000*%
%ADD11C,0.150000*%
%ADD12C,0.120000*%
G04 APERTURE END LIST*
D10*
X124376428Y-106747142D02*
X125043095Y-106747142D01*
X125328809Y-107794761D02*
X124376428Y-107794761D01*
X124376428Y-105794761D01*
X125328809Y-105794761D01*
X125995476Y-105794761D02*
X127328809Y-105794761D01*
X125995476Y-107794761D01*
X127328809Y-107794761D01*
X128090714Y-106747142D02*
X128757380Y-106747142D01*
X129043095Y-107794761D02*
X128090714Y-107794761D01*
X128090714Y-105794761D01*
X129043095Y-105794761D01*
X131043095Y-107794761D02*
X130376428Y-106842380D01*
X129900238Y-107794761D02*
X129900238Y-105794761D01*
X130662142Y-105794761D01*
X130852619Y-105890000D01*
X130947857Y-105985238D01*
X131043095Y-106175714D01*
X131043095Y-106461428D01*
X130947857Y-106651904D01*
X130852619Y-106747142D01*
X130662142Y-106842380D01*
X129900238Y-106842380D01*
X134376428Y-107794761D02*
X133424047Y-107794761D01*
X133424047Y-105794761D01*
X135424047Y-105794761D02*
X135805000Y-105794761D01*
X135995476Y-105890000D01*
X136185952Y-106080476D01*
X136281190Y-106461428D01*
X136281190Y-107128095D01*
X136185952Y-107509047D01*
X135995476Y-107699523D01*
X135805000Y-107794761D01*
X135424047Y-107794761D01*
X135233571Y-107699523D01*
X135043095Y-107509047D01*
X134947857Y-107128095D01*
X134947857Y-106461428D01*
X135043095Y-106080476D01*
X135233571Y-105890000D01*
X135424047Y-105794761D01*
X137138333Y-107794761D02*
X137138333Y-105794761D01*
X138281190Y-107794761D01*
X138281190Y-105794761D01*
X140281190Y-105890000D02*
X140090714Y-105794761D01*
X139805000Y-105794761D01*
X139519285Y-105890000D01*
X139328809Y-106080476D01*
X139233571Y-106270952D01*
X139138333Y-106651904D01*
X139138333Y-106937619D01*
X139233571Y-107318571D01*
X139328809Y-107509047D01*
X139519285Y-107699523D01*
X139805000Y-107794761D01*
X139995476Y-107794761D01*
X140281190Y-107699523D01*
X140376428Y-107604285D01*
X140376428Y-106937619D01*
X139995476Y-106937619D01*
X141233571Y-107794761D02*
X141233571Y-105794761D01*
X142185952Y-107794761D02*
X142185952Y-105794761D01*
X143328809Y-107794761D01*
X143328809Y-105794761D01*
X144281190Y-105794761D02*
X144281190Y-107413809D01*
X144376428Y-107604285D01*
X144471666Y-107699523D01*
X144662142Y-107794761D01*
X145043095Y-107794761D01*
X145233571Y-107699523D01*
X145328809Y-107604285D01*
X145424047Y-107413809D01*
X145424047Y-105794761D01*
X146281190Y-107699523D02*
X146566904Y-107794761D01*
X147043095Y-107794761D01*
X147233571Y-107699523D01*
X147328809Y-107604285D01*
X147424047Y-107413809D01*
X147424047Y-107223333D01*
X147328809Y-107032857D01*
X147233571Y-106937619D01*
X147043095Y-106842380D01*
X146662142Y-106747142D01*
X146471666Y-106651904D01*
X146376428Y-106556666D01*
X146281190Y-106366190D01*
X146281190Y-106175714D01*
X146376428Y-105985238D01*
X146471666Y-105890000D01*
X146662142Y-105794761D01*
X147138333Y-105794761D01*
X147424047Y-105890000D01*
X134281190Y-109967142D02*
X133614523Y-109967142D01*
X133614523Y-111014761D02*
X133614523Y-109014761D01*
X134566904Y-109014761D01*
X135328809Y-109967142D02*
X135995476Y-109967142D01*
X136281190Y-111014761D02*
X135328809Y-111014761D01*
X135328809Y-109014761D01*
X136281190Y-109014761D01*
X137805000Y-109967142D02*
X138090714Y-110062380D01*
X138185952Y-110157619D01*
X138281190Y-110348095D01*
X138281190Y-110633809D01*
X138185952Y-110824285D01*
X138090714Y-110919523D01*
X137900238Y-111014761D01*
X137138333Y-111014761D01*
X137138333Y-109014761D01*
X137805000Y-109014761D01*
X137995476Y-109110000D01*
X138090714Y-109205238D01*
X138185952Y-109395714D01*
X138185952Y-109586190D01*
X138090714Y-109776666D01*
X137995476Y-109871904D01*
X137805000Y-109967142D01*
X137138333Y-109967142D01*
X140566904Y-109205238D02*
X140662142Y-109110000D01*
X140852619Y-109014761D01*
X141328809Y-109014761D01*
X141519285Y-109110000D01*
X141614523Y-109205238D01*
X141709761Y-109395714D01*
X141709761Y-109586190D01*
X141614523Y-109871904D01*
X140471666Y-111014761D01*
X141709761Y-111014761D01*
X142947857Y-109014761D02*
X143138333Y-109014761D01*
X143328809Y-109110000D01*
X143424047Y-109205238D01*
X143519285Y-109395714D01*
X143614523Y-109776666D01*
X143614523Y-110252857D01*
X143519285Y-110633809D01*
X143424047Y-110824285D01*
X143328809Y-110919523D01*
X143138333Y-111014761D01*
X142947857Y-111014761D01*
X142757380Y-110919523D01*
X142662142Y-110824285D01*
X142566904Y-110633809D01*
X142471666Y-110252857D01*
X142471666Y-109776666D01*
X142566904Y-109395714D01*
X142662142Y-109205238D01*
X142757380Y-109110000D01*
X142947857Y-109014761D01*
X144376428Y-109205238D02*
X144471666Y-109110000D01*
X144662142Y-109014761D01*
X145138333Y-109014761D01*
X145328809Y-109110000D01*
X145424047Y-109205238D01*
X145519285Y-109395714D01*
X145519285Y-109586190D01*
X145424047Y-109871904D01*
X144281190Y-111014761D01*
X145519285Y-111014761D01*
X146185952Y-109014761D02*
X147424047Y-109014761D01*
X146757380Y-109776666D01*
X147043095Y-109776666D01*
X147233571Y-109871904D01*
X147328809Y-109967142D01*
X147424047Y-110157619D01*
X147424047Y-110633809D01*
X147328809Y-110824285D01*
X147233571Y-110919523D01*
X147043095Y-111014761D01*
X146471666Y-111014761D01*
X146281190Y-110919523D01*
X146185952Y-110824285D01*
X116928571Y-43294761D02*
X116928571Y-44913809D01*
X117023809Y-45104285D01*
X117119047Y-45199523D01*
X117309523Y-45294761D01*
X117690476Y-45294761D01*
X117880952Y-45199523D01*
X117976190Y-45104285D01*
X118071428Y-44913809D01*
X118071428Y-43294761D01*
X119976190Y-45294761D02*
X119023809Y-45294761D01*
X119023809Y-43294761D01*
X120357142Y-43294761D02*
X121500000Y-43294761D01*
X120928571Y-45294761D02*
X120928571Y-43294761D01*
X123309523Y-45294761D02*
X122642857Y-44342380D01*
X122166666Y-45294761D02*
X122166666Y-43294761D01*
X122928571Y-43294761D01*
X123119047Y-43390000D01*
X123214285Y-43485238D01*
X123309523Y-43675714D01*
X123309523Y-43961428D01*
X123214285Y-44151904D01*
X123119047Y-44247142D01*
X122928571Y-44342380D01*
X122166666Y-44342380D01*
X124071428Y-44723333D02*
X125023809Y-44723333D01*
X123880952Y-45294761D02*
X124547619Y-43294761D01*
X125214285Y-45294761D01*
X128071428Y-44247142D02*
X127404761Y-44247142D01*
X127404761Y-45294761D02*
X127404761Y-43294761D01*
X128357142Y-43294761D01*
X129119047Y-43294761D02*
X129119047Y-44913809D01*
X129214285Y-45104285D01*
X129309523Y-45199523D01*
X129500000Y-45294761D01*
X129880952Y-45294761D01*
X130071428Y-45199523D01*
X130166666Y-45104285D01*
X130261904Y-44913809D01*
X130261904Y-43294761D01*
X131023809Y-43294761D02*
X132357142Y-43294761D01*
X131023809Y-45294761D01*
X132357142Y-45294761D01*
X132928571Y-43294761D02*
X134261904Y-43294761D01*
X132928571Y-45294761D01*
X134261904Y-45294761D01*
D11*
%TO.C,SW1B1*%
X129473808Y-72654761D02*
X129616665Y-72702380D01*
X129854760Y-72702380D01*
X129949998Y-72654761D01*
X129997617Y-72607142D01*
X130045236Y-72511904D01*
X130045236Y-72416666D01*
X129997617Y-72321428D01*
X129949998Y-72273809D01*
X129854760Y-72226190D01*
X129664284Y-72178571D01*
X129569046Y-72130952D01*
X129521427Y-72083333D01*
X129473808Y-71988095D01*
X129473808Y-71892857D01*
X129521427Y-71797619D01*
X129569046Y-71750000D01*
X129664284Y-71702380D01*
X129902379Y-71702380D01*
X130045236Y-71750000D01*
X130378570Y-71702380D02*
X130616665Y-72702380D01*
X130807141Y-71988095D01*
X130997617Y-72702380D01*
X131235712Y-71702380D01*
X132140474Y-72702380D02*
X131569046Y-72702380D01*
X131854760Y-72702380D02*
X131854760Y-71702380D01*
X131759522Y-71845238D01*
X131664284Y-71940476D01*
X131569046Y-71988095D01*
X132902379Y-72178571D02*
X133045236Y-72226190D01*
X133092855Y-72273809D01*
X133140474Y-72369047D01*
X133140474Y-72511904D01*
X133092855Y-72607142D01*
X133045236Y-72654761D01*
X132949998Y-72702380D01*
X132569046Y-72702380D01*
X132569046Y-71702380D01*
X132902379Y-71702380D01*
X132997617Y-71750000D01*
X133045236Y-71797619D01*
X133092855Y-71892857D01*
X133092855Y-71988095D01*
X133045236Y-72083333D01*
X132997617Y-72130952D01*
X132902379Y-72178571D01*
X132569046Y-72178571D01*
X134092855Y-72702380D02*
X133521427Y-72702380D01*
X133807141Y-72702380D02*
X133807141Y-71702380D01*
X133711903Y-71845238D01*
X133616665Y-71940476D01*
X133521427Y-71988095D01*
X128664284Y-81178571D02*
X128807141Y-81226190D01*
X128854760Y-81273809D01*
X128902379Y-81369047D01*
X128902379Y-81511904D01*
X128854760Y-81607142D01*
X128807141Y-81654761D01*
X128711903Y-81702380D01*
X128330951Y-81702380D01*
X128330951Y-80702380D01*
X128664284Y-80702380D01*
X128759522Y-80750000D01*
X128807141Y-80797619D01*
X128854760Y-80892857D01*
X128854760Y-80988095D01*
X128807141Y-81083333D01*
X128759522Y-81130952D01*
X128664284Y-81178571D01*
X128330951Y-81178571D01*
X129521427Y-81226190D02*
X129521427Y-81702380D01*
X129188093Y-80702380D02*
X129521427Y-81226190D01*
X129854760Y-80702380D01*
X130188093Y-81702380D02*
X130188093Y-80702380D01*
X130569046Y-80702380D01*
X130664284Y-80750000D01*
X130711903Y-80797619D01*
X130759522Y-80892857D01*
X130759522Y-81035714D01*
X130711903Y-81130952D01*
X130664284Y-81178571D01*
X130569046Y-81226190D01*
X130188093Y-81226190D01*
X131140474Y-81416666D02*
X131616665Y-81416666D01*
X131045236Y-81702380D02*
X131378570Y-80702380D01*
X131711903Y-81702380D01*
X131997617Y-81654761D02*
X132140474Y-81702380D01*
X132378570Y-81702380D01*
X132473808Y-81654761D01*
X132521427Y-81607142D01*
X132569046Y-81511904D01*
X132569046Y-81416666D01*
X132521427Y-81321428D01*
X132473808Y-81273809D01*
X132378570Y-81226190D01*
X132188093Y-81178571D01*
X132092855Y-81130952D01*
X132045236Y-81083333D01*
X131997617Y-80988095D01*
X131997617Y-80892857D01*
X132045236Y-80797619D01*
X132092855Y-80750000D01*
X132188093Y-80702380D01*
X132426189Y-80702380D01*
X132569046Y-80750000D01*
X132949998Y-81654761D02*
X133092855Y-81702380D01*
X133330951Y-81702380D01*
X133426189Y-81654761D01*
X133473808Y-81607142D01*
X133521427Y-81511904D01*
X133521427Y-81416666D01*
X133473808Y-81321428D01*
X133426189Y-81273809D01*
X133330951Y-81226190D01*
X133140474Y-81178571D01*
X133045236Y-81130952D01*
X132997617Y-81083333D01*
X132949998Y-80988095D01*
X132949998Y-80892857D01*
X132997617Y-80797619D01*
X133045236Y-80750000D01*
X133140474Y-80702380D01*
X133378570Y-80702380D01*
X133521427Y-80750000D01*
X133711903Y-81797619D02*
X134473808Y-81797619D01*
X135045236Y-81178571D02*
X135188093Y-81226190D01*
X135235712Y-81273809D01*
X135283332Y-81369047D01*
X135283332Y-81511904D01*
X135235712Y-81607142D01*
X135188093Y-81654761D01*
X135092855Y-81702380D01*
X134711903Y-81702380D01*
X134711903Y-80702380D01*
X135045236Y-80702380D01*
X135140474Y-80750000D01*
X135188093Y-80797619D01*
X135235712Y-80892857D01*
X135235712Y-80988095D01*
X135188093Y-81083333D01*
X135140474Y-81130952D01*
X135045236Y-81178571D01*
X134711903Y-81178571D01*
%TO.C,SW1A1*%
X116478570Y-72654761D02*
X116621427Y-72702380D01*
X116859523Y-72702380D01*
X116954761Y-72654761D01*
X117002380Y-72607142D01*
X117049999Y-72511904D01*
X117049999Y-72416666D01*
X117002380Y-72321428D01*
X116954761Y-72273809D01*
X116859523Y-72226190D01*
X116669046Y-72178571D01*
X116573808Y-72130952D01*
X116526189Y-72083333D01*
X116478570Y-71988095D01*
X116478570Y-71892857D01*
X116526189Y-71797619D01*
X116573808Y-71750000D01*
X116669046Y-71702380D01*
X116907142Y-71702380D01*
X117049999Y-71750000D01*
X117383332Y-71702380D02*
X117621427Y-72702380D01*
X117811904Y-71988095D01*
X118002380Y-72702380D01*
X118240475Y-71702380D01*
X119145237Y-72702380D02*
X118573808Y-72702380D01*
X118859523Y-72702380D02*
X118859523Y-71702380D01*
X118764285Y-71845238D01*
X118669046Y-71940476D01*
X118573808Y-71988095D01*
X119526189Y-72416666D02*
X120002380Y-72416666D01*
X119430951Y-72702380D02*
X119764285Y-71702380D01*
X120097618Y-72702380D01*
X120954761Y-72702380D02*
X120383332Y-72702380D01*
X120669046Y-72702380D02*
X120669046Y-71702380D01*
X120573808Y-71845238D01*
X120478570Y-71940476D01*
X120383332Y-71988095D01*
X115669046Y-81178571D02*
X115811904Y-81226190D01*
X115859523Y-81273809D01*
X115907142Y-81369047D01*
X115907142Y-81511904D01*
X115859523Y-81607142D01*
X115811904Y-81654761D01*
X115716666Y-81702380D01*
X115335713Y-81702380D01*
X115335713Y-80702380D01*
X115669046Y-80702380D01*
X115764285Y-80750000D01*
X115811904Y-80797619D01*
X115859523Y-80892857D01*
X115859523Y-80988095D01*
X115811904Y-81083333D01*
X115764285Y-81130952D01*
X115669046Y-81178571D01*
X115335713Y-81178571D01*
X116526189Y-81226190D02*
X116526189Y-81702380D01*
X116192856Y-80702380D02*
X116526189Y-81226190D01*
X116859523Y-80702380D01*
X117192856Y-81702380D02*
X117192856Y-80702380D01*
X117573808Y-80702380D01*
X117669046Y-80750000D01*
X117716666Y-80797619D01*
X117764285Y-80892857D01*
X117764285Y-81035714D01*
X117716666Y-81130952D01*
X117669046Y-81178571D01*
X117573808Y-81226190D01*
X117192856Y-81226190D01*
X118145237Y-81416666D02*
X118621427Y-81416666D01*
X118049999Y-81702380D02*
X118383332Y-80702380D01*
X118716666Y-81702380D01*
X119002380Y-81654761D02*
X119145237Y-81702380D01*
X119383332Y-81702380D01*
X119478570Y-81654761D01*
X119526189Y-81607142D01*
X119573808Y-81511904D01*
X119573808Y-81416666D01*
X119526189Y-81321428D01*
X119478570Y-81273809D01*
X119383332Y-81226190D01*
X119192856Y-81178571D01*
X119097618Y-81130952D01*
X119049999Y-81083333D01*
X119002380Y-80988095D01*
X119002380Y-80892857D01*
X119049999Y-80797619D01*
X119097618Y-80750000D01*
X119192856Y-80702380D01*
X119430951Y-80702380D01*
X119573808Y-80750000D01*
X119954761Y-81654761D02*
X120097618Y-81702380D01*
X120335713Y-81702380D01*
X120430951Y-81654761D01*
X120478570Y-81607142D01*
X120526189Y-81511904D01*
X120526189Y-81416666D01*
X120478570Y-81321428D01*
X120430951Y-81273809D01*
X120335713Y-81226190D01*
X120145237Y-81178571D01*
X120049999Y-81130952D01*
X120002380Y-81083333D01*
X119954761Y-80988095D01*
X119954761Y-80892857D01*
X120002380Y-80797619D01*
X120049999Y-80750000D01*
X120145237Y-80702380D01*
X120383332Y-80702380D01*
X120526189Y-80750000D01*
X120716666Y-81797619D02*
X121478570Y-81797619D01*
X121669046Y-81416666D02*
X122145237Y-81416666D01*
X121573808Y-81702380D02*
X121907142Y-80702380D01*
X122240475Y-81702380D01*
%TO.C,R11*%
X117857142Y-51952380D02*
X117523809Y-51476190D01*
X117285714Y-51952380D02*
X117285714Y-50952380D01*
X117666666Y-50952380D01*
X117761904Y-51000000D01*
X117809523Y-51047619D01*
X117857142Y-51142857D01*
X117857142Y-51285714D01*
X117809523Y-51380952D01*
X117761904Y-51428571D01*
X117666666Y-51476190D01*
X117285714Y-51476190D01*
X118809523Y-51952380D02*
X118238095Y-51952380D01*
X118523809Y-51952380D02*
X118523809Y-50952380D01*
X118428571Y-51095238D01*
X118333333Y-51190476D01*
X118238095Y-51238095D01*
X119761904Y-51952380D02*
X119190476Y-51952380D01*
X119476190Y-51952380D02*
X119476190Y-50952380D01*
X119380952Y-51095238D01*
X119285714Y-51190476D01*
X119190476Y-51238095D01*
X130833333Y-51047619D02*
X130880952Y-51000000D01*
X130976190Y-50952380D01*
X131214285Y-50952380D01*
X131309523Y-51000000D01*
X131357142Y-51047619D01*
X131404761Y-51142857D01*
X131404761Y-51238095D01*
X131357142Y-51380952D01*
X130785714Y-51952380D01*
X131404761Y-51952380D01*
X131833333Y-51952380D02*
X131833333Y-50952380D01*
X131928571Y-51571428D02*
X132214285Y-51952380D01*
X132214285Y-51285714D02*
X131833333Y-51666666D01*
X132595238Y-51047619D02*
X132642857Y-51000000D01*
X132738095Y-50952380D01*
X132976190Y-50952380D01*
X133071428Y-51000000D01*
X133119047Y-51047619D01*
X133166666Y-51142857D01*
X133166666Y-51238095D01*
X133119047Y-51380952D01*
X132547619Y-51952380D01*
X133166666Y-51952380D01*
%TO.C,R10*%
X117857142Y-68452380D02*
X117523809Y-67976190D01*
X117285714Y-68452380D02*
X117285714Y-67452380D01*
X117666666Y-67452380D01*
X117761904Y-67500000D01*
X117809523Y-67547619D01*
X117857142Y-67642857D01*
X117857142Y-67785714D01*
X117809523Y-67880952D01*
X117761904Y-67928571D01*
X117666666Y-67976190D01*
X117285714Y-67976190D01*
X118809523Y-68452380D02*
X118238095Y-68452380D01*
X118523809Y-68452380D02*
X118523809Y-67452380D01*
X118428571Y-67595238D01*
X118333333Y-67690476D01*
X118238095Y-67738095D01*
X119428571Y-67452380D02*
X119523809Y-67452380D01*
X119619047Y-67500000D01*
X119666666Y-67547619D01*
X119714285Y-67642857D01*
X119761904Y-67833333D01*
X119761904Y-68071428D01*
X119714285Y-68261904D01*
X119666666Y-68357142D01*
X119619047Y-68404761D01*
X119523809Y-68452380D01*
X119428571Y-68452380D01*
X119333333Y-68404761D01*
X119285714Y-68357142D01*
X119238095Y-68261904D01*
X119190476Y-68071428D01*
X119190476Y-67833333D01*
X119238095Y-67642857D01*
X119285714Y-67547619D01*
X119333333Y-67500000D01*
X119428571Y-67452380D01*
X131166666Y-67547619D02*
X131214285Y-67500000D01*
X131309523Y-67452380D01*
X131547619Y-67452380D01*
X131642857Y-67500000D01*
X131690476Y-67547619D01*
X131738095Y-67642857D01*
X131738095Y-67738095D01*
X131690476Y-67880952D01*
X131119047Y-68452380D01*
X131738095Y-68452380D01*
X132119047Y-67547619D02*
X132166666Y-67500000D01*
X132261904Y-67452380D01*
X132500000Y-67452380D01*
X132595238Y-67500000D01*
X132642857Y-67547619D01*
X132690476Y-67642857D01*
X132690476Y-67738095D01*
X132642857Y-67880952D01*
X132071428Y-68452380D01*
X132690476Y-68452380D01*
X133119047Y-68452380D02*
X133119047Y-67452380D01*
X133452380Y-68166666D01*
X133785714Y-67452380D01*
X133785714Y-68452380D01*
%TO.C,Q1*%
X119904761Y-63547619D02*
X119809523Y-63500000D01*
X119714285Y-63404761D01*
X119571428Y-63261904D01*
X119476190Y-63214285D01*
X119380952Y-63214285D01*
X119428571Y-63452380D02*
X119333333Y-63404761D01*
X119238095Y-63309523D01*
X119190476Y-63119047D01*
X119190476Y-62785714D01*
X119238095Y-62595238D01*
X119333333Y-62500000D01*
X119428571Y-62452380D01*
X119619047Y-62452380D01*
X119714285Y-62500000D01*
X119809523Y-62595238D01*
X119857142Y-62785714D01*
X119857142Y-63119047D01*
X119809523Y-63309523D01*
X119714285Y-63404761D01*
X119619047Y-63452380D01*
X119428571Y-63452380D01*
X120809523Y-63452380D02*
X120238095Y-63452380D01*
X120523809Y-63452380D02*
X120523809Y-62452380D01*
X120428571Y-62595238D01*
X120333333Y-62690476D01*
X120238095Y-62738095D01*
X129285714Y-63047619D02*
X129333333Y-63000000D01*
X129428571Y-62952380D01*
X129666666Y-62952380D01*
X129761904Y-63000000D01*
X129809523Y-63047619D01*
X129857142Y-63142857D01*
X129857142Y-63238095D01*
X129809523Y-63380952D01*
X129238095Y-63952380D01*
X129857142Y-63952380D01*
X130285714Y-63952380D02*
X130285714Y-62952380D01*
X130857142Y-63952380D01*
X130857142Y-62952380D01*
X131809523Y-62952380D02*
X131333333Y-62952380D01*
X131285714Y-63428571D01*
X131333333Y-63380952D01*
X131428571Y-63333333D01*
X131666666Y-63333333D01*
X131761904Y-63380952D01*
X131809523Y-63428571D01*
X131857142Y-63523809D01*
X131857142Y-63761904D01*
X131809523Y-63857142D01*
X131761904Y-63904761D01*
X131666666Y-63952380D01*
X131428571Y-63952380D01*
X131333333Y-63904761D01*
X131285714Y-63857142D01*
X132714285Y-63285714D02*
X132714285Y-63952380D01*
X132476190Y-62904761D02*
X132238095Y-63619047D01*
X132857142Y-63619047D01*
X133714285Y-62952380D02*
X133238095Y-62952380D01*
X133190476Y-63428571D01*
X133238095Y-63380952D01*
X133333333Y-63333333D01*
X133571428Y-63333333D01*
X133666666Y-63380952D01*
X133714285Y-63428571D01*
X133761904Y-63523809D01*
X133761904Y-63761904D01*
X133714285Y-63857142D01*
X133666666Y-63904761D01*
X133571428Y-63952380D01*
X133333333Y-63952380D01*
X133238095Y-63904761D01*
X133190476Y-63857142D01*
X134095238Y-62952380D02*
X134761904Y-62952380D01*
X134333333Y-63952380D01*
%TO.C,J4*%
X142396666Y-52202380D02*
X142396666Y-52916666D01*
X142349047Y-53059523D01*
X142253809Y-53154761D01*
X142110952Y-53202380D01*
X142015714Y-53202380D01*
X143301428Y-52535714D02*
X143301428Y-53202380D01*
X143063333Y-52154761D02*
X142825238Y-52869047D01*
X143444285Y-52869047D01*
X138753809Y-61678571D02*
X138896666Y-61726190D01*
X138944285Y-61773809D01*
X138991904Y-61869047D01*
X138991904Y-62011904D01*
X138944285Y-62107142D01*
X138896666Y-62154761D01*
X138801428Y-62202380D01*
X138420476Y-62202380D01*
X138420476Y-61202380D01*
X138753809Y-61202380D01*
X138849047Y-61250000D01*
X138896666Y-61297619D01*
X138944285Y-61392857D01*
X138944285Y-61488095D01*
X138896666Y-61583333D01*
X138849047Y-61630952D01*
X138753809Y-61678571D01*
X138420476Y-61678571D01*
X139610952Y-61726190D02*
X139610952Y-62202380D01*
X139277619Y-61202380D02*
X139610952Y-61726190D01*
X139944285Y-61202380D01*
X140277619Y-62202380D02*
X140277619Y-61202380D01*
X140658571Y-61202380D01*
X140753809Y-61250000D01*
X140801428Y-61297619D01*
X140849047Y-61392857D01*
X140849047Y-61535714D01*
X140801428Y-61630952D01*
X140753809Y-61678571D01*
X140658571Y-61726190D01*
X140277619Y-61726190D01*
X141230000Y-61916666D02*
X141706190Y-61916666D01*
X141134761Y-62202380D02*
X141468095Y-61202380D01*
X141801428Y-62202380D01*
X142087142Y-62154761D02*
X142230000Y-62202380D01*
X142468095Y-62202380D01*
X142563333Y-62154761D01*
X142610952Y-62107142D01*
X142658571Y-62011904D01*
X142658571Y-61916666D01*
X142610952Y-61821428D01*
X142563333Y-61773809D01*
X142468095Y-61726190D01*
X142277619Y-61678571D01*
X142182380Y-61630952D01*
X142134761Y-61583333D01*
X142087142Y-61488095D01*
X142087142Y-61392857D01*
X142134761Y-61297619D01*
X142182380Y-61250000D01*
X142277619Y-61202380D01*
X142515714Y-61202380D01*
X142658571Y-61250000D01*
X143039523Y-62154761D02*
X143182380Y-62202380D01*
X143420476Y-62202380D01*
X143515714Y-62154761D01*
X143563333Y-62107142D01*
X143610952Y-62011904D01*
X143610952Y-61916666D01*
X143563333Y-61821428D01*
X143515714Y-61773809D01*
X143420476Y-61726190D01*
X143230000Y-61678571D01*
X143134761Y-61630952D01*
X143087142Y-61583333D01*
X143039523Y-61488095D01*
X143039523Y-61392857D01*
X143087142Y-61297619D01*
X143134761Y-61250000D01*
X143230000Y-61202380D01*
X143468095Y-61202380D01*
X143610952Y-61250000D01*
X145277619Y-62202380D02*
X144801428Y-62202380D01*
X144801428Y-61202380D01*
X145610952Y-61678571D02*
X145944285Y-61678571D01*
X146087142Y-62202380D02*
X145610952Y-62202380D01*
X145610952Y-61202380D01*
X146087142Y-61202380D01*
X146515714Y-62202380D02*
X146515714Y-61202380D01*
X146753809Y-61202380D01*
X146896666Y-61250000D01*
X146991904Y-61345238D01*
X147039523Y-61440476D01*
X147087142Y-61630952D01*
X147087142Y-61773809D01*
X147039523Y-61964285D01*
X146991904Y-62059523D01*
X146896666Y-62154761D01*
X146753809Y-62202380D01*
X146515714Y-62202380D01*
%TO.C,D2*%
X117761904Y-55452380D02*
X117761904Y-54452380D01*
X118000000Y-54452380D01*
X118142857Y-54500000D01*
X118238095Y-54595238D01*
X118285714Y-54690476D01*
X118333333Y-54880952D01*
X118333333Y-55023809D01*
X118285714Y-55214285D01*
X118238095Y-55309523D01*
X118142857Y-55404761D01*
X118000000Y-55452380D01*
X117761904Y-55452380D01*
X118714285Y-54547619D02*
X118761904Y-54500000D01*
X118857142Y-54452380D01*
X119095238Y-54452380D01*
X119190476Y-54500000D01*
X119238095Y-54547619D01*
X119285714Y-54642857D01*
X119285714Y-54738095D01*
X119238095Y-54880952D01*
X118666666Y-55452380D01*
X119285714Y-55452380D01*
X131333333Y-55452380D02*
X130761904Y-55452380D01*
X131047619Y-55452380D02*
X131047619Y-54452380D01*
X130952380Y-54595238D01*
X130857142Y-54690476D01*
X130761904Y-54738095D01*
X131761904Y-55452380D02*
X131761904Y-54452380D01*
X132333333Y-55452380D01*
X132333333Y-54452380D01*
X132857142Y-55452380D02*
X133047619Y-55452380D01*
X133142857Y-55404761D01*
X133190476Y-55357142D01*
X133285714Y-55214285D01*
X133333333Y-55023809D01*
X133333333Y-54642857D01*
X133285714Y-54547619D01*
X133238095Y-54500000D01*
X133142857Y-54452380D01*
X132952380Y-54452380D01*
X132857142Y-54500000D01*
X132809523Y-54547619D01*
X132761904Y-54642857D01*
X132761904Y-54880952D01*
X132809523Y-54976190D01*
X132857142Y-55023809D01*
X132952380Y-55071428D01*
X133142857Y-55071428D01*
X133238095Y-55023809D01*
X133285714Y-54976190D01*
X133333333Y-54880952D01*
X134285714Y-55452380D02*
X133714285Y-55452380D01*
X134000000Y-55452380D02*
X134000000Y-54452380D01*
X133904761Y-54595238D01*
X133809523Y-54690476D01*
X133714285Y-54738095D01*
X135142857Y-54785714D02*
X135142857Y-55452380D01*
X134904761Y-54404761D02*
X134666666Y-55119047D01*
X135285714Y-55119047D01*
X120928095Y-53652380D02*
X120928095Y-52652380D01*
X121499523Y-53652380D02*
X121070952Y-53080952D01*
X121499523Y-52652380D02*
X120928095Y-53223809D01*
%TO.C,D1*%
X117761904Y-58952380D02*
X117761904Y-57952380D01*
X118000000Y-57952380D01*
X118142857Y-58000000D01*
X118238095Y-58095238D01*
X118285714Y-58190476D01*
X118333333Y-58380952D01*
X118333333Y-58523809D01*
X118285714Y-58714285D01*
X118238095Y-58809523D01*
X118142857Y-58904761D01*
X118000000Y-58952380D01*
X117761904Y-58952380D01*
X119285714Y-58952380D02*
X118714285Y-58952380D01*
X119000000Y-58952380D02*
X119000000Y-57952380D01*
X118904761Y-58095238D01*
X118809523Y-58190476D01*
X118714285Y-58238095D01*
X131333333Y-58952380D02*
X130761904Y-58952380D01*
X131047619Y-58952380D02*
X131047619Y-57952380D01*
X130952380Y-58095238D01*
X130857142Y-58190476D01*
X130761904Y-58238095D01*
X131761904Y-58952380D02*
X131761904Y-57952380D01*
X132333333Y-58952380D01*
X132333333Y-57952380D01*
X132857142Y-58952380D02*
X133047619Y-58952380D01*
X133142857Y-58904761D01*
X133190476Y-58857142D01*
X133285714Y-58714285D01*
X133333333Y-58523809D01*
X133333333Y-58142857D01*
X133285714Y-58047619D01*
X133238095Y-58000000D01*
X133142857Y-57952380D01*
X132952380Y-57952380D01*
X132857142Y-58000000D01*
X132809523Y-58047619D01*
X132761904Y-58142857D01*
X132761904Y-58380952D01*
X132809523Y-58476190D01*
X132857142Y-58523809D01*
X132952380Y-58571428D01*
X133142857Y-58571428D01*
X133238095Y-58523809D01*
X133285714Y-58476190D01*
X133333333Y-58380952D01*
X134285714Y-58952380D02*
X133714285Y-58952380D01*
X134000000Y-58952380D02*
X134000000Y-57952380D01*
X133904761Y-58095238D01*
X133809523Y-58190476D01*
X133714285Y-58238095D01*
X135142857Y-58285714D02*
X135142857Y-58952380D01*
X134904761Y-57904761D02*
X134666666Y-58619047D01*
X135285714Y-58619047D01*
X128548095Y-60752380D02*
X128548095Y-59752380D01*
X129119523Y-60752380D02*
X128690952Y-60180952D01*
X129119523Y-59752380D02*
X128548095Y-60323809D01*
%TO.C,U1*%
X124238095Y-110952380D02*
X124238095Y-111761904D01*
X124285714Y-111857142D01*
X124333333Y-111904761D01*
X124428571Y-111952380D01*
X124619047Y-111952380D01*
X124714285Y-111904761D01*
X124761904Y-111857142D01*
X124809523Y-111761904D01*
X124809523Y-110952380D01*
X125809523Y-111952380D02*
X125238095Y-111952380D01*
X125523809Y-111952380D02*
X125523809Y-110952380D01*
X125428571Y-111095238D01*
X125333333Y-111190476D01*
X125238095Y-111238095D01*
X124442380Y-119619047D02*
X124442380Y-119047619D01*
X125442380Y-119333333D02*
X124442380Y-119333333D01*
X125442380Y-118238095D02*
X125442380Y-118714285D01*
X124442380Y-118714285D01*
X124442380Y-117714285D02*
X124442380Y-117619047D01*
X124490000Y-117523809D01*
X124537619Y-117476190D01*
X124632857Y-117428571D01*
X124823333Y-117380952D01*
X125061428Y-117380952D01*
X125251904Y-117428571D01*
X125347142Y-117476190D01*
X125394761Y-117523809D01*
X125442380Y-117619047D01*
X125442380Y-117714285D01*
X125394761Y-117809523D01*
X125347142Y-117857142D01*
X125251904Y-117904761D01*
X125061428Y-117952380D01*
X124823333Y-117952380D01*
X124632857Y-117904761D01*
X124537619Y-117857142D01*
X124490000Y-117809523D01*
X124442380Y-117714285D01*
X124442380Y-117047619D02*
X124442380Y-116380952D01*
X125442380Y-116809523D01*
X124537619Y-116047619D02*
X124490000Y-116000000D01*
X124442380Y-115904761D01*
X124442380Y-115666666D01*
X124490000Y-115571428D01*
X124537619Y-115523809D01*
X124632857Y-115476190D01*
X124728095Y-115476190D01*
X124870952Y-115523809D01*
X125442380Y-116095238D01*
X125442380Y-115476190D01*
%TO.C,R9*%
X104833333Y-67452380D02*
X104500000Y-66976190D01*
X104261904Y-67452380D02*
X104261904Y-66452380D01*
X104642857Y-66452380D01*
X104738095Y-66500000D01*
X104785714Y-66547619D01*
X104833333Y-66642857D01*
X104833333Y-66785714D01*
X104785714Y-66880952D01*
X104738095Y-66928571D01*
X104642857Y-66976190D01*
X104261904Y-66976190D01*
X105309523Y-67452380D02*
X105500000Y-67452380D01*
X105595238Y-67404761D01*
X105642857Y-67357142D01*
X105738095Y-67214285D01*
X105785714Y-67023809D01*
X105785714Y-66642857D01*
X105738095Y-66547619D01*
X105690476Y-66500000D01*
X105595238Y-66452380D01*
X105404761Y-66452380D01*
X105309523Y-66500000D01*
X105261904Y-66547619D01*
X105214285Y-66642857D01*
X105214285Y-66880952D01*
X105261904Y-66976190D01*
X105309523Y-67023809D01*
X105404761Y-67071428D01*
X105595238Y-67071428D01*
X105690476Y-67023809D01*
X105738095Y-66976190D01*
X105785714Y-66880952D01*
X112380952Y-67452380D02*
X111809523Y-67452380D01*
X112095238Y-67452380D02*
X112095238Y-66452380D01*
X112000000Y-66595238D01*
X111904761Y-66690476D01*
X111809523Y-66738095D01*
X112809523Y-67452380D02*
X112809523Y-66452380D01*
X112904761Y-67071428D02*
X113190476Y-67452380D01*
X113190476Y-66785714D02*
X112809523Y-67166666D01*
%TO.C,R8*%
X117833333Y-131452380D02*
X117500000Y-130976190D01*
X117261904Y-131452380D02*
X117261904Y-130452380D01*
X117642857Y-130452380D01*
X117738095Y-130500000D01*
X117785714Y-130547619D01*
X117833333Y-130642857D01*
X117833333Y-130785714D01*
X117785714Y-130880952D01*
X117738095Y-130928571D01*
X117642857Y-130976190D01*
X117261904Y-130976190D01*
X118404761Y-130880952D02*
X118309523Y-130833333D01*
X118261904Y-130785714D01*
X118214285Y-130690476D01*
X118214285Y-130642857D01*
X118261904Y-130547619D01*
X118309523Y-130500000D01*
X118404761Y-130452380D01*
X118595238Y-130452380D01*
X118690476Y-130500000D01*
X118738095Y-130547619D01*
X118785714Y-130642857D01*
X118785714Y-130690476D01*
X118738095Y-130785714D01*
X118690476Y-130833333D01*
X118595238Y-130880952D01*
X118404761Y-130880952D01*
X118309523Y-130928571D01*
X118261904Y-130976190D01*
X118214285Y-131071428D01*
X118214285Y-131261904D01*
X118261904Y-131357142D01*
X118309523Y-131404761D01*
X118404761Y-131452380D01*
X118595238Y-131452380D01*
X118690476Y-131404761D01*
X118738095Y-131357142D01*
X118785714Y-131261904D01*
X118785714Y-131071428D01*
X118738095Y-130976190D01*
X118690476Y-130928571D01*
X118595238Y-130880952D01*
X130214285Y-131452380D02*
X129642857Y-131452380D01*
X129928571Y-131452380D02*
X129928571Y-130452380D01*
X129833333Y-130595238D01*
X129738095Y-130690476D01*
X129642857Y-130738095D01*
X130642857Y-131452380D02*
X130642857Y-130452380D01*
X130976190Y-131166666D01*
X131309523Y-130452380D01*
X131309523Y-131452380D01*
%TO.C,R7*%
X133452380Y-121166666D02*
X132976190Y-121500000D01*
X133452380Y-121738095D02*
X132452380Y-121738095D01*
X132452380Y-121357142D01*
X132500000Y-121261904D01*
X132547619Y-121214285D01*
X132642857Y-121166666D01*
X132785714Y-121166666D01*
X132880952Y-121214285D01*
X132928571Y-121261904D01*
X132976190Y-121357142D01*
X132976190Y-121738095D01*
X132452380Y-120833333D02*
X132452380Y-120166666D01*
X133452380Y-120595238D01*
X133452380Y-115571428D02*
X133452380Y-116142857D01*
X133452380Y-115857142D02*
X132452380Y-115857142D01*
X132595238Y-115952380D01*
X132690476Y-116047619D01*
X132738095Y-116142857D01*
X132452380Y-114952380D02*
X132452380Y-114857142D01*
X132500000Y-114761904D01*
X132547619Y-114714285D01*
X132642857Y-114666666D01*
X132833333Y-114619047D01*
X133071428Y-114619047D01*
X133261904Y-114666666D01*
X133357142Y-114714285D01*
X133404761Y-114761904D01*
X133452380Y-114857142D01*
X133452380Y-114952380D01*
X133404761Y-115047619D01*
X133357142Y-115095238D01*
X133261904Y-115142857D01*
X133071428Y-115190476D01*
X132833333Y-115190476D01*
X132642857Y-115142857D01*
X132547619Y-115095238D01*
X132500000Y-115047619D01*
X132452380Y-114952380D01*
X132452380Y-114000000D02*
X132452380Y-113904761D01*
X132500000Y-113809523D01*
X132547619Y-113761904D01*
X132642857Y-113714285D01*
X132833333Y-113666666D01*
X133071428Y-113666666D01*
X133261904Y-113714285D01*
X133357142Y-113761904D01*
X133404761Y-113809523D01*
X133452380Y-113904761D01*
X133452380Y-114000000D01*
X133404761Y-114095238D01*
X133357142Y-114142857D01*
X133261904Y-114190476D01*
X133071428Y-114238095D01*
X132833333Y-114238095D01*
X132642857Y-114190476D01*
X132547619Y-114142857D01*
X132500000Y-114095238D01*
X132452380Y-114000000D01*
X133452380Y-113238095D02*
X132452380Y-113238095D01*
X133071428Y-113142857D02*
X133452380Y-112857142D01*
X132785714Y-112857142D02*
X133166666Y-113238095D01*
%TO.C,R6*%
X109333333Y-105952380D02*
X109000000Y-105476190D01*
X108761904Y-105952380D02*
X108761904Y-104952380D01*
X109142857Y-104952380D01*
X109238095Y-105000000D01*
X109285714Y-105047619D01*
X109333333Y-105142857D01*
X109333333Y-105285714D01*
X109285714Y-105380952D01*
X109238095Y-105428571D01*
X109142857Y-105476190D01*
X108761904Y-105476190D01*
X110190476Y-104952380D02*
X110000000Y-104952380D01*
X109904761Y-105000000D01*
X109857142Y-105047619D01*
X109761904Y-105190476D01*
X109714285Y-105380952D01*
X109714285Y-105761904D01*
X109761904Y-105857142D01*
X109809523Y-105904761D01*
X109904761Y-105952380D01*
X110095238Y-105952380D01*
X110190476Y-105904761D01*
X110238095Y-105857142D01*
X110285714Y-105761904D01*
X110285714Y-105523809D01*
X110238095Y-105428571D01*
X110190476Y-105380952D01*
X110095238Y-105333333D01*
X109904761Y-105333333D01*
X109809523Y-105380952D01*
X109761904Y-105428571D01*
X109714285Y-105523809D01*
X115428571Y-106082380D02*
X114857142Y-106082380D01*
X115142857Y-106082380D02*
X115142857Y-105082380D01*
X115047619Y-105225238D01*
X114952380Y-105320476D01*
X114857142Y-105368095D01*
X116047619Y-105082380D02*
X116142857Y-105082380D01*
X116238095Y-105130000D01*
X116285714Y-105177619D01*
X116333333Y-105272857D01*
X116380952Y-105463333D01*
X116380952Y-105701428D01*
X116333333Y-105891904D01*
X116285714Y-105987142D01*
X116238095Y-106034761D01*
X116142857Y-106082380D01*
X116047619Y-106082380D01*
X115952380Y-106034761D01*
X115904761Y-105987142D01*
X115857142Y-105891904D01*
X115809523Y-105701428D01*
X115809523Y-105463333D01*
X115857142Y-105272857D01*
X115904761Y-105177619D01*
X115952380Y-105130000D01*
X116047619Y-105082380D01*
X117000000Y-105082380D02*
X117095238Y-105082380D01*
X117190476Y-105130000D01*
X117238095Y-105177619D01*
X117285714Y-105272857D01*
X117333333Y-105463333D01*
X117333333Y-105701428D01*
X117285714Y-105891904D01*
X117238095Y-105987142D01*
X117190476Y-106034761D01*
X117095238Y-106082380D01*
X117000000Y-106082380D01*
X116904761Y-106034761D01*
X116857142Y-105987142D01*
X116809523Y-105891904D01*
X116761904Y-105701428D01*
X116761904Y-105463333D01*
X116809523Y-105272857D01*
X116857142Y-105177619D01*
X116904761Y-105130000D01*
X117000000Y-105082380D01*
X117761904Y-106082380D02*
X117761904Y-105082380D01*
X117857142Y-105701428D02*
X118142857Y-106082380D01*
X118142857Y-105415714D02*
X117761904Y-105796666D01*
%TO.C,R5*%
X137333333Y-86452380D02*
X137000000Y-85976190D01*
X136761904Y-86452380D02*
X136761904Y-85452380D01*
X137142857Y-85452380D01*
X137238095Y-85500000D01*
X137285714Y-85547619D01*
X137333333Y-85642857D01*
X137333333Y-85785714D01*
X137285714Y-85880952D01*
X137238095Y-85928571D01*
X137142857Y-85976190D01*
X136761904Y-85976190D01*
X138238095Y-85452380D02*
X137761904Y-85452380D01*
X137714285Y-85928571D01*
X137761904Y-85880952D01*
X137857142Y-85833333D01*
X138095238Y-85833333D01*
X138190476Y-85880952D01*
X138238095Y-85928571D01*
X138285714Y-86023809D01*
X138285714Y-86261904D01*
X138238095Y-86357142D01*
X138190476Y-86404761D01*
X138095238Y-86452380D01*
X137857142Y-86452380D01*
X137761904Y-86404761D01*
X137714285Y-86357142D01*
X145904761Y-86452380D02*
X145333333Y-86452380D01*
X145619047Y-86452380D02*
X145619047Y-85452380D01*
X145523809Y-85595238D01*
X145428571Y-85690476D01*
X145333333Y-85738095D01*
X146523809Y-85452380D02*
X146619047Y-85452380D01*
X146714285Y-85500000D01*
X146761904Y-85547619D01*
X146809523Y-85642857D01*
X146857142Y-85833333D01*
X146857142Y-86071428D01*
X146809523Y-86261904D01*
X146761904Y-86357142D01*
X146714285Y-86404761D01*
X146619047Y-86452380D01*
X146523809Y-86452380D01*
X146428571Y-86404761D01*
X146380952Y-86357142D01*
X146333333Y-86261904D01*
X146285714Y-86071428D01*
X146285714Y-85833333D01*
X146333333Y-85642857D01*
X146380952Y-85547619D01*
X146428571Y-85500000D01*
X146523809Y-85452380D01*
X147285714Y-86452380D02*
X147285714Y-85452380D01*
X147380952Y-86071428D02*
X147666666Y-86452380D01*
X147666666Y-85785714D02*
X147285714Y-86166666D01*
%TO.C,R4*%
X103833333Y-85952380D02*
X103500000Y-85476190D01*
X103261904Y-85952380D02*
X103261904Y-84952380D01*
X103642857Y-84952380D01*
X103738095Y-85000000D01*
X103785714Y-85047619D01*
X103833333Y-85142857D01*
X103833333Y-85285714D01*
X103785714Y-85380952D01*
X103738095Y-85428571D01*
X103642857Y-85476190D01*
X103261904Y-85476190D01*
X104690476Y-85285714D02*
X104690476Y-85952380D01*
X104452380Y-84904761D02*
X104214285Y-85619047D01*
X104833333Y-85619047D01*
X111904761Y-85952380D02*
X111333333Y-85952380D01*
X111619047Y-85952380D02*
X111619047Y-84952380D01*
X111523809Y-85095238D01*
X111428571Y-85190476D01*
X111333333Y-85238095D01*
X112523809Y-84952380D02*
X112619047Y-84952380D01*
X112714285Y-85000000D01*
X112761904Y-85047619D01*
X112809523Y-85142857D01*
X112857142Y-85333333D01*
X112857142Y-85571428D01*
X112809523Y-85761904D01*
X112761904Y-85857142D01*
X112714285Y-85904761D01*
X112619047Y-85952380D01*
X112523809Y-85952380D01*
X112428571Y-85904761D01*
X112380952Y-85857142D01*
X112333333Y-85761904D01*
X112285714Y-85571428D01*
X112285714Y-85333333D01*
X112333333Y-85142857D01*
X112380952Y-85047619D01*
X112428571Y-85000000D01*
X112523809Y-84952380D01*
X113285714Y-85952380D02*
X113285714Y-84952380D01*
X113380952Y-85571428D02*
X113666666Y-85952380D01*
X113666666Y-85285714D02*
X113285714Y-85666666D01*
%TO.C,R3*%
X110452380Y-103666666D02*
X109976190Y-104000000D01*
X110452380Y-104238095D02*
X109452380Y-104238095D01*
X109452380Y-103857142D01*
X109500000Y-103761904D01*
X109547619Y-103714285D01*
X109642857Y-103666666D01*
X109785714Y-103666666D01*
X109880952Y-103714285D01*
X109928571Y-103761904D01*
X109976190Y-103857142D01*
X109976190Y-104238095D01*
X109452380Y-103333333D02*
X109452380Y-102714285D01*
X109833333Y-103047619D01*
X109833333Y-102904761D01*
X109880952Y-102809523D01*
X109928571Y-102761904D01*
X110023809Y-102714285D01*
X110261904Y-102714285D01*
X110357142Y-102761904D01*
X110404761Y-102809523D01*
X110452380Y-102904761D01*
X110452380Y-103190476D01*
X110404761Y-103285714D01*
X110357142Y-103333333D01*
X110452380Y-97095238D02*
X110452380Y-97666666D01*
X110452380Y-97380952D02*
X109452380Y-97380952D01*
X109595238Y-97476190D01*
X109690476Y-97571428D01*
X109738095Y-97666666D01*
X109452380Y-96476190D02*
X109452380Y-96380952D01*
X109500000Y-96285714D01*
X109547619Y-96238095D01*
X109642857Y-96190476D01*
X109833333Y-96142857D01*
X110071428Y-96142857D01*
X110261904Y-96190476D01*
X110357142Y-96238095D01*
X110404761Y-96285714D01*
X110452380Y-96380952D01*
X110452380Y-96476190D01*
X110404761Y-96571428D01*
X110357142Y-96619047D01*
X110261904Y-96666666D01*
X110071428Y-96714285D01*
X109833333Y-96714285D01*
X109642857Y-96666666D01*
X109547619Y-96619047D01*
X109500000Y-96571428D01*
X109452380Y-96476190D01*
X110452380Y-95714285D02*
X109452380Y-95714285D01*
X110071428Y-95619047D02*
X110452380Y-95333333D01*
X109785714Y-95333333D02*
X110166666Y-95714285D01*
%TO.C,R2*%
X102452380Y-104166666D02*
X101976190Y-104500000D01*
X102452380Y-104738095D02*
X101452380Y-104738095D01*
X101452380Y-104357142D01*
X101500000Y-104261904D01*
X101547619Y-104214285D01*
X101642857Y-104166666D01*
X101785714Y-104166666D01*
X101880952Y-104214285D01*
X101928571Y-104261904D01*
X101976190Y-104357142D01*
X101976190Y-104738095D01*
X101547619Y-103785714D02*
X101500000Y-103738095D01*
X101452380Y-103642857D01*
X101452380Y-103404761D01*
X101500000Y-103309523D01*
X101547619Y-103261904D01*
X101642857Y-103214285D01*
X101738095Y-103214285D01*
X101880952Y-103261904D01*
X102452380Y-103833333D01*
X102452380Y-103214285D01*
X102582380Y-97095238D02*
X102582380Y-97666666D01*
X102582380Y-97380952D02*
X101582380Y-97380952D01*
X101725238Y-97476190D01*
X101820476Y-97571428D01*
X101868095Y-97666666D01*
X101582380Y-96476190D02*
X101582380Y-96380952D01*
X101630000Y-96285714D01*
X101677619Y-96238095D01*
X101772857Y-96190476D01*
X101963333Y-96142857D01*
X102201428Y-96142857D01*
X102391904Y-96190476D01*
X102487142Y-96238095D01*
X102534761Y-96285714D01*
X102582380Y-96380952D01*
X102582380Y-96476190D01*
X102534761Y-96571428D01*
X102487142Y-96619047D01*
X102391904Y-96666666D01*
X102201428Y-96714285D01*
X101963333Y-96714285D01*
X101772857Y-96666666D01*
X101677619Y-96619047D01*
X101630000Y-96571428D01*
X101582380Y-96476190D01*
X102582380Y-95714285D02*
X101582380Y-95714285D01*
X102201428Y-95619047D02*
X102582380Y-95333333D01*
X101915714Y-95333333D02*
X102296666Y-95714285D01*
%TO.C,R1*%
X113952380Y-121166666D02*
X113476190Y-121500000D01*
X113952380Y-121738095D02*
X112952380Y-121738095D01*
X112952380Y-121357142D01*
X113000000Y-121261904D01*
X113047619Y-121214285D01*
X113142857Y-121166666D01*
X113285714Y-121166666D01*
X113380952Y-121214285D01*
X113428571Y-121261904D01*
X113476190Y-121357142D01*
X113476190Y-121738095D01*
X113952380Y-120214285D02*
X113952380Y-120785714D01*
X113952380Y-120500000D02*
X112952380Y-120500000D01*
X113095238Y-120595238D01*
X113190476Y-120690476D01*
X113238095Y-120785714D01*
X113952380Y-114595238D02*
X113952380Y-115166666D01*
X113952380Y-114880952D02*
X112952380Y-114880952D01*
X113095238Y-114976190D01*
X113190476Y-115071428D01*
X113238095Y-115166666D01*
X112952380Y-113976190D02*
X112952380Y-113880952D01*
X113000000Y-113785714D01*
X113047619Y-113738095D01*
X113142857Y-113690476D01*
X113333333Y-113642857D01*
X113571428Y-113642857D01*
X113761904Y-113690476D01*
X113857142Y-113738095D01*
X113904761Y-113785714D01*
X113952380Y-113880952D01*
X113952380Y-113976190D01*
X113904761Y-114071428D01*
X113857142Y-114119047D01*
X113761904Y-114166666D01*
X113571428Y-114214285D01*
X113333333Y-114214285D01*
X113142857Y-114166666D01*
X113047619Y-114119047D01*
X113000000Y-114071428D01*
X112952380Y-113976190D01*
X113952380Y-113214285D02*
X112952380Y-113214285D01*
X113571428Y-113119047D02*
X113952380Y-112833333D01*
X113285714Y-112833333D02*
X113666666Y-113214285D01*
%TO.C,J8*%
X108436666Y-52202380D02*
X108436666Y-52916666D01*
X108389047Y-53059523D01*
X108293809Y-53154761D01*
X108150952Y-53202380D01*
X108055714Y-53202380D01*
X109055714Y-52630952D02*
X108960476Y-52583333D01*
X108912857Y-52535714D01*
X108865238Y-52440476D01*
X108865238Y-52392857D01*
X108912857Y-52297619D01*
X108960476Y-52250000D01*
X109055714Y-52202380D01*
X109246190Y-52202380D01*
X109341428Y-52250000D01*
X109389047Y-52297619D01*
X109436666Y-52392857D01*
X109436666Y-52440476D01*
X109389047Y-52535714D01*
X109341428Y-52583333D01*
X109246190Y-52630952D01*
X109055714Y-52630952D01*
X108960476Y-52678571D01*
X108912857Y-52726190D01*
X108865238Y-52821428D01*
X108865238Y-53011904D01*
X108912857Y-53107142D01*
X108960476Y-53154761D01*
X109055714Y-53202380D01*
X109246190Y-53202380D01*
X109341428Y-53154761D01*
X109389047Y-53107142D01*
X109436666Y-53011904D01*
X109436666Y-52821428D01*
X109389047Y-52726190D01*
X109341428Y-52678571D01*
X109246190Y-52630952D01*
X104722380Y-62202380D02*
X104722380Y-61202380D01*
X105103333Y-61202380D01*
X105198571Y-61250000D01*
X105246190Y-61297619D01*
X105293809Y-61392857D01*
X105293809Y-61535714D01*
X105246190Y-61630952D01*
X105198571Y-61678571D01*
X105103333Y-61726190D01*
X104722380Y-61726190D01*
X105912857Y-61202380D02*
X106103333Y-61202380D01*
X106198571Y-61250000D01*
X106293809Y-61345238D01*
X106341428Y-61535714D01*
X106341428Y-61869047D01*
X106293809Y-62059523D01*
X106198571Y-62154761D01*
X106103333Y-62202380D01*
X105912857Y-62202380D01*
X105817619Y-62154761D01*
X105722380Y-62059523D01*
X105674761Y-61869047D01*
X105674761Y-61535714D01*
X105722380Y-61345238D01*
X105817619Y-61250000D01*
X105912857Y-61202380D01*
X106674761Y-61202380D02*
X106912857Y-62202380D01*
X107103333Y-61488095D01*
X107293809Y-62202380D01*
X107531904Y-61202380D01*
X107912857Y-61678571D02*
X108246190Y-61678571D01*
X108389047Y-62202380D02*
X107912857Y-62202380D01*
X107912857Y-61202380D01*
X108389047Y-61202380D01*
X109389047Y-62202380D02*
X109055714Y-61726190D01*
X108817619Y-62202380D02*
X108817619Y-61202380D01*
X109198571Y-61202380D01*
X109293809Y-61250000D01*
X109341428Y-61297619D01*
X109389047Y-61392857D01*
X109389047Y-61535714D01*
X109341428Y-61630952D01*
X109293809Y-61678571D01*
X109198571Y-61726190D01*
X108817619Y-61726190D01*
X111055714Y-62202380D02*
X110579523Y-62202380D01*
X110579523Y-61202380D01*
X111389047Y-61678571D02*
X111722380Y-61678571D01*
X111865238Y-62202380D02*
X111389047Y-62202380D01*
X111389047Y-61202380D01*
X111865238Y-61202380D01*
X112293809Y-62202380D02*
X112293809Y-61202380D01*
X112531904Y-61202380D01*
X112674761Y-61250000D01*
X112770000Y-61345238D01*
X112817619Y-61440476D01*
X112865238Y-61630952D01*
X112865238Y-61773809D01*
X112817619Y-61964285D01*
X112770000Y-62059523D01*
X112674761Y-62154761D01*
X112531904Y-62202380D01*
X112293809Y-62202380D01*
%TO.C,J2*%
X143166666Y-71702380D02*
X143166666Y-72416666D01*
X143119047Y-72559523D01*
X143023809Y-72654761D01*
X142880952Y-72702380D01*
X142785714Y-72702380D01*
X143595238Y-71797619D02*
X143642857Y-71750000D01*
X143738095Y-71702380D01*
X143976190Y-71702380D01*
X144071428Y-71750000D01*
X144119047Y-71797619D01*
X144166666Y-71892857D01*
X144166666Y-71988095D01*
X144119047Y-72130952D01*
X143547619Y-72702380D01*
X144166666Y-72702380D01*
X141095238Y-80702380D02*
X141285714Y-80702380D01*
X141380952Y-80750000D01*
X141476190Y-80845238D01*
X141523809Y-81035714D01*
X141523809Y-81369047D01*
X141476190Y-81559523D01*
X141380952Y-81654761D01*
X141285714Y-81702380D01*
X141095238Y-81702380D01*
X141000000Y-81654761D01*
X140904761Y-81559523D01*
X140857142Y-81369047D01*
X140857142Y-81035714D01*
X140904761Y-80845238D01*
X141000000Y-80750000D01*
X141095238Y-80702380D01*
X141952380Y-80702380D02*
X141952380Y-81511904D01*
X142000000Y-81607142D01*
X142047619Y-81654761D01*
X142142857Y-81702380D01*
X142333333Y-81702380D01*
X142428571Y-81654761D01*
X142476190Y-81607142D01*
X142523809Y-81511904D01*
X142523809Y-80702380D01*
X142857142Y-80702380D02*
X143428571Y-80702380D01*
X143142857Y-81702380D02*
X143142857Y-80702380D01*
X143761904Y-81702380D02*
X143761904Y-80702380D01*
X144142857Y-80702380D01*
X144238095Y-80750000D01*
X144285714Y-80797619D01*
X144333333Y-80892857D01*
X144333333Y-81035714D01*
X144285714Y-81130952D01*
X144238095Y-81178571D01*
X144142857Y-81226190D01*
X143761904Y-81226190D01*
X144761904Y-80702380D02*
X144761904Y-81511904D01*
X144809523Y-81607142D01*
X144857142Y-81654761D01*
X144952380Y-81702380D01*
X145142857Y-81702380D01*
X145238095Y-81654761D01*
X145285714Y-81607142D01*
X145333333Y-81511904D01*
X145333333Y-80702380D01*
X145666666Y-80702380D02*
X146238095Y-80702380D01*
X145952380Y-81702380D02*
X145952380Y-80702380D01*
%TO.C,J1*%
X106666666Y-71702380D02*
X106666666Y-72416666D01*
X106619047Y-72559523D01*
X106523809Y-72654761D01*
X106380952Y-72702380D01*
X106285714Y-72702380D01*
X107666666Y-72702380D02*
X107095238Y-72702380D01*
X107380952Y-72702380D02*
X107380952Y-71702380D01*
X107285714Y-71845238D01*
X107190476Y-71940476D01*
X107095238Y-71988095D01*
X105071428Y-81702380D02*
X105071428Y-80702380D01*
X105547619Y-81702380D02*
X105547619Y-80702380D01*
X106119047Y-81702380D01*
X106119047Y-80702380D01*
X106595238Y-81702380D02*
X106595238Y-80702380D01*
X106976190Y-80702380D01*
X107071428Y-80750000D01*
X107119047Y-80797619D01*
X107166666Y-80892857D01*
X107166666Y-81035714D01*
X107119047Y-81130952D01*
X107071428Y-81178571D01*
X106976190Y-81226190D01*
X106595238Y-81226190D01*
X107595238Y-80702380D02*
X107595238Y-81511904D01*
X107642857Y-81607142D01*
X107690476Y-81654761D01*
X107785714Y-81702380D01*
X107976190Y-81702380D01*
X108071428Y-81654761D01*
X108119047Y-81607142D01*
X108166666Y-81511904D01*
X108166666Y-80702380D01*
X108500000Y-80702380D02*
X109071428Y-80702380D01*
X108785714Y-81702380D02*
X108785714Y-80702380D01*
%TO.C,C6*%
X124933333Y-93857142D02*
X124885714Y-93904761D01*
X124742857Y-93952380D01*
X124647619Y-93952380D01*
X124504761Y-93904761D01*
X124409523Y-93809523D01*
X124361904Y-93714285D01*
X124314285Y-93523809D01*
X124314285Y-93380952D01*
X124361904Y-93190476D01*
X124409523Y-93095238D01*
X124504761Y-93000000D01*
X124647619Y-92952380D01*
X124742857Y-92952380D01*
X124885714Y-93000000D01*
X124933333Y-93047619D01*
X125790476Y-92952380D02*
X125600000Y-92952380D01*
X125504761Y-93000000D01*
X125457142Y-93047619D01*
X125361904Y-93190476D01*
X125314285Y-93380952D01*
X125314285Y-93761904D01*
X125361904Y-93857142D01*
X125409523Y-93904761D01*
X125504761Y-93952380D01*
X125695238Y-93952380D01*
X125790476Y-93904761D01*
X125838095Y-93857142D01*
X125885714Y-93761904D01*
X125885714Y-93523809D01*
X125838095Y-93428571D01*
X125790476Y-93380952D01*
X125695238Y-93333333D01*
X125504761Y-93333333D01*
X125409523Y-93380952D01*
X125361904Y-93428571D01*
X125314285Y-93523809D01*
X124028571Y-95702380D02*
X123457142Y-95702380D01*
X123742857Y-95702380D02*
X123742857Y-94702380D01*
X123647619Y-94845238D01*
X123552380Y-94940476D01*
X123457142Y-94988095D01*
X124647619Y-94702380D02*
X124742857Y-94702380D01*
X124838095Y-94750000D01*
X124885714Y-94797619D01*
X124933333Y-94892857D01*
X124980952Y-95083333D01*
X124980952Y-95321428D01*
X124933333Y-95511904D01*
X124885714Y-95607142D01*
X124838095Y-95654761D01*
X124742857Y-95702380D01*
X124647619Y-95702380D01*
X124552380Y-95654761D01*
X124504761Y-95607142D01*
X124457142Y-95511904D01*
X124409523Y-95321428D01*
X124409523Y-95083333D01*
X124457142Y-94892857D01*
X124504761Y-94797619D01*
X124552380Y-94750000D01*
X124647619Y-94702380D01*
X125838095Y-95035714D02*
X125838095Y-95702380D01*
X125409523Y-95035714D02*
X125409523Y-95559523D01*
X125457142Y-95654761D01*
X125552380Y-95702380D01*
X125695238Y-95702380D01*
X125790476Y-95654761D01*
X125838095Y-95607142D01*
X126647619Y-95178571D02*
X126314285Y-95178571D01*
X126314285Y-95702380D02*
X126314285Y-94702380D01*
X126790476Y-94702380D01*
%TO.C,C3*%
X143357142Y-120166666D02*
X143404761Y-120214285D01*
X143452380Y-120357142D01*
X143452380Y-120452380D01*
X143404761Y-120595238D01*
X143309523Y-120690476D01*
X143214285Y-120738095D01*
X143023809Y-120785714D01*
X142880952Y-120785714D01*
X142690476Y-120738095D01*
X142595238Y-120690476D01*
X142500000Y-120595238D01*
X142452380Y-120452380D01*
X142452380Y-120357142D01*
X142500000Y-120214285D01*
X142547619Y-120166666D01*
X142452380Y-119833333D02*
X142452380Y-119214285D01*
X142833333Y-119547619D01*
X142833333Y-119404761D01*
X142880952Y-119309523D01*
X142928571Y-119261904D01*
X143023809Y-119214285D01*
X143261904Y-119214285D01*
X143357142Y-119261904D01*
X143404761Y-119309523D01*
X143452380Y-119404761D01*
X143452380Y-119690476D01*
X143404761Y-119785714D01*
X143357142Y-119833333D01*
X142547619Y-117619047D02*
X142500000Y-117571428D01*
X142452380Y-117476190D01*
X142452380Y-117238095D01*
X142500000Y-117142857D01*
X142547619Y-117095238D01*
X142642857Y-117047619D01*
X142738095Y-117047619D01*
X142880952Y-117095238D01*
X143452380Y-117666666D01*
X143452380Y-117047619D01*
X142547619Y-116666666D02*
X142500000Y-116619047D01*
X142452380Y-116523809D01*
X142452380Y-116285714D01*
X142500000Y-116190476D01*
X142547619Y-116142857D01*
X142642857Y-116095238D01*
X142738095Y-116095238D01*
X142880952Y-116142857D01*
X143452380Y-116714285D01*
X143452380Y-116095238D01*
X142452380Y-115476190D02*
X142452380Y-115380952D01*
X142500000Y-115285714D01*
X142547619Y-115238095D01*
X142642857Y-115190476D01*
X142833333Y-115142857D01*
X143071428Y-115142857D01*
X143261904Y-115190476D01*
X143357142Y-115238095D01*
X143404761Y-115285714D01*
X143452380Y-115380952D01*
X143452380Y-115476190D01*
X143404761Y-115571428D01*
X143357142Y-115619047D01*
X143261904Y-115666666D01*
X143071428Y-115714285D01*
X142833333Y-115714285D01*
X142642857Y-115666666D01*
X142547619Y-115619047D01*
X142500000Y-115571428D01*
X142452380Y-115476190D01*
X142785714Y-114714285D02*
X143452380Y-114714285D01*
X142880952Y-114714285D02*
X142833333Y-114666666D01*
X142785714Y-114571428D01*
X142785714Y-114428571D01*
X142833333Y-114333333D01*
X142928571Y-114285714D01*
X143452380Y-114285714D01*
X142928571Y-113476190D02*
X142928571Y-113809523D01*
X143452380Y-113809523D02*
X142452380Y-113809523D01*
X142452380Y-113333333D01*
%TO.C,C2*%
X108857142Y-120166666D02*
X108904761Y-120214285D01*
X108952380Y-120357142D01*
X108952380Y-120452380D01*
X108904761Y-120595238D01*
X108809523Y-120690476D01*
X108714285Y-120738095D01*
X108523809Y-120785714D01*
X108380952Y-120785714D01*
X108190476Y-120738095D01*
X108095238Y-120690476D01*
X108000000Y-120595238D01*
X107952380Y-120452380D01*
X107952380Y-120357142D01*
X108000000Y-120214285D01*
X108047619Y-120166666D01*
X108047619Y-119785714D02*
X108000000Y-119738095D01*
X107952380Y-119642857D01*
X107952380Y-119404761D01*
X108000000Y-119309523D01*
X108047619Y-119261904D01*
X108142857Y-119214285D01*
X108238095Y-119214285D01*
X108380952Y-119261904D01*
X108952380Y-119833333D01*
X108952380Y-119214285D01*
X108952380Y-117547619D02*
X108952380Y-118119047D01*
X108952380Y-117833333D02*
X107952380Y-117833333D01*
X108095238Y-117928571D01*
X108190476Y-118023809D01*
X108238095Y-118119047D01*
X107952380Y-116928571D02*
X107952380Y-116833333D01*
X108000000Y-116738095D01*
X108047619Y-116690476D01*
X108142857Y-116642857D01*
X108333333Y-116595238D01*
X108571428Y-116595238D01*
X108761904Y-116642857D01*
X108857142Y-116690476D01*
X108904761Y-116738095D01*
X108952380Y-116833333D01*
X108952380Y-116928571D01*
X108904761Y-117023809D01*
X108857142Y-117071428D01*
X108761904Y-117119047D01*
X108571428Y-117166666D01*
X108333333Y-117166666D01*
X108142857Y-117119047D01*
X108047619Y-117071428D01*
X108000000Y-117023809D01*
X107952380Y-116928571D01*
X107952380Y-115976190D02*
X107952380Y-115880952D01*
X108000000Y-115785714D01*
X108047619Y-115738095D01*
X108142857Y-115690476D01*
X108333333Y-115642857D01*
X108571428Y-115642857D01*
X108761904Y-115690476D01*
X108857142Y-115738095D01*
X108904761Y-115785714D01*
X108952380Y-115880952D01*
X108952380Y-115976190D01*
X108904761Y-116071428D01*
X108857142Y-116119047D01*
X108761904Y-116166666D01*
X108571428Y-116214285D01*
X108333333Y-116214285D01*
X108142857Y-116166666D01*
X108047619Y-116119047D01*
X108000000Y-116071428D01*
X107952380Y-115976190D01*
X108285714Y-115214285D02*
X108952380Y-115214285D01*
X108380952Y-115214285D02*
X108333333Y-115166666D01*
X108285714Y-115071428D01*
X108285714Y-114928571D01*
X108333333Y-114833333D01*
X108428571Y-114785714D01*
X108952380Y-114785714D01*
X108428571Y-113976190D02*
X108428571Y-114309523D01*
X108952380Y-114309523D02*
X107952380Y-114309523D01*
X107952380Y-113833333D01*
%TO.C,C1*%
X119333333Y-127357142D02*
X119285714Y-127404761D01*
X119142857Y-127452380D01*
X119047619Y-127452380D01*
X118904761Y-127404761D01*
X118809523Y-127309523D01*
X118761904Y-127214285D01*
X118714285Y-127023809D01*
X118714285Y-126880952D01*
X118761904Y-126690476D01*
X118809523Y-126595238D01*
X118904761Y-126500000D01*
X119047619Y-126452380D01*
X119142857Y-126452380D01*
X119285714Y-126500000D01*
X119333333Y-126547619D01*
X120285714Y-127452380D02*
X119714285Y-127452380D01*
X120000000Y-127452380D02*
X120000000Y-126452380D01*
X119904761Y-126595238D01*
X119809523Y-126690476D01*
X119714285Y-126738095D01*
X129333333Y-126785714D02*
X129333333Y-127452380D01*
X129095238Y-126404761D02*
X128857142Y-127119047D01*
X129476190Y-127119047D01*
X129761904Y-126452380D02*
X130428571Y-126452380D01*
X130000000Y-127452380D01*
X130809523Y-126785714D02*
X130809523Y-127785714D01*
X130809523Y-126833333D02*
X130904761Y-126785714D01*
X131095238Y-126785714D01*
X131190476Y-126833333D01*
X131238095Y-126880952D01*
X131285714Y-126976190D01*
X131285714Y-127261904D01*
X131238095Y-127357142D01*
X131190476Y-127404761D01*
X131095238Y-127452380D01*
X130904761Y-127452380D01*
X130809523Y-127404761D01*
X132047619Y-126928571D02*
X131714285Y-126928571D01*
X131714285Y-127452380D02*
X131714285Y-126452380D01*
X132190476Y-126452380D01*
%TO.C,C10*%
X146857142Y-123607142D02*
X146809523Y-123654761D01*
X146666666Y-123702380D01*
X146571428Y-123702380D01*
X146428571Y-123654761D01*
X146333333Y-123559523D01*
X146285714Y-123464285D01*
X146238095Y-123273809D01*
X146238095Y-123130952D01*
X146285714Y-122940476D01*
X146333333Y-122845238D01*
X146428571Y-122750000D01*
X146571428Y-122702380D01*
X146666666Y-122702380D01*
X146809523Y-122750000D01*
X146857142Y-122797619D01*
X147809523Y-123702380D02*
X147238095Y-123702380D01*
X147523809Y-123702380D02*
X147523809Y-122702380D01*
X147428571Y-122845238D01*
X147333333Y-122940476D01*
X147238095Y-122988095D01*
X148428571Y-122702380D02*
X148523809Y-122702380D01*
X148619047Y-122750000D01*
X148666666Y-122797619D01*
X148714285Y-122892857D01*
X148761904Y-123083333D01*
X148761904Y-123321428D01*
X148714285Y-123511904D01*
X148666666Y-123607142D01*
X148619047Y-123654761D01*
X148523809Y-123702380D01*
X148428571Y-123702380D01*
X148333333Y-123654761D01*
X148285714Y-123607142D01*
X148238095Y-123511904D01*
X148190476Y-123321428D01*
X148190476Y-123083333D01*
X148238095Y-122892857D01*
X148285714Y-122797619D01*
X148333333Y-122750000D01*
X148428571Y-122702380D01*
X146178571Y-135952380D02*
X145607142Y-135952380D01*
X145892857Y-135952380D02*
X145892857Y-134952380D01*
X145797619Y-135095238D01*
X145702380Y-135190476D01*
X145607142Y-135238095D01*
X146797619Y-134952380D02*
X146892857Y-134952380D01*
X146988095Y-135000000D01*
X147035714Y-135047619D01*
X147083333Y-135142857D01*
X147130952Y-135333333D01*
X147130952Y-135571428D01*
X147083333Y-135761904D01*
X147035714Y-135857142D01*
X146988095Y-135904761D01*
X146892857Y-135952380D01*
X146797619Y-135952380D01*
X146702380Y-135904761D01*
X146654761Y-135857142D01*
X146607142Y-135761904D01*
X146559523Y-135571428D01*
X146559523Y-135333333D01*
X146607142Y-135142857D01*
X146654761Y-135047619D01*
X146702380Y-135000000D01*
X146797619Y-134952380D01*
X147988095Y-135285714D02*
X147988095Y-135952380D01*
X147559523Y-135285714D02*
X147559523Y-135809523D01*
X147607142Y-135904761D01*
X147702380Y-135952380D01*
X147845238Y-135952380D01*
X147940476Y-135904761D01*
X147988095Y-135857142D01*
X148797619Y-135428571D02*
X148464285Y-135428571D01*
X148464285Y-135952380D02*
X148464285Y-134952380D01*
X148940476Y-134952380D01*
%TO.C,C9*%
X102333333Y-126357142D02*
X102285714Y-126404761D01*
X102142857Y-126452380D01*
X102047619Y-126452380D01*
X101904761Y-126404761D01*
X101809523Y-126309523D01*
X101761904Y-126214285D01*
X101714285Y-126023809D01*
X101714285Y-125880952D01*
X101761904Y-125690476D01*
X101809523Y-125595238D01*
X101904761Y-125500000D01*
X102047619Y-125452380D01*
X102142857Y-125452380D01*
X102285714Y-125500000D01*
X102333333Y-125547619D01*
X102809523Y-126452380D02*
X103000000Y-126452380D01*
X103095238Y-126404761D01*
X103142857Y-126357142D01*
X103238095Y-126214285D01*
X103285714Y-126023809D01*
X103285714Y-125642857D01*
X103238095Y-125547619D01*
X103190476Y-125500000D01*
X103095238Y-125452380D01*
X102904761Y-125452380D01*
X102809523Y-125500000D01*
X102761904Y-125547619D01*
X102714285Y-125642857D01*
X102714285Y-125880952D01*
X102761904Y-125976190D01*
X102809523Y-126023809D01*
X102904761Y-126071428D01*
X103095238Y-126071428D01*
X103190476Y-126023809D01*
X103238095Y-125976190D01*
X103285714Y-125880952D01*
X101178571Y-135299703D02*
X100607142Y-135299703D01*
X100892857Y-135299703D02*
X100892857Y-134299703D01*
X100797619Y-134442561D01*
X100702380Y-134537799D01*
X100607142Y-134585418D01*
X101797619Y-134299703D02*
X101892857Y-134299703D01*
X101988095Y-134347323D01*
X102035714Y-134394942D01*
X102083333Y-134490180D01*
X102130952Y-134680656D01*
X102130952Y-134918751D01*
X102083333Y-135109227D01*
X102035714Y-135204465D01*
X101988095Y-135252084D01*
X101892857Y-135299703D01*
X101797619Y-135299703D01*
X101702380Y-135252084D01*
X101654761Y-135204465D01*
X101607142Y-135109227D01*
X101559523Y-134918751D01*
X101559523Y-134680656D01*
X101607142Y-134490180D01*
X101654761Y-134394942D01*
X101702380Y-134347323D01*
X101797619Y-134299703D01*
X102988095Y-134633037D02*
X102988095Y-135299703D01*
X102559523Y-134633037D02*
X102559523Y-135156846D01*
X102607142Y-135252084D01*
X102702380Y-135299703D01*
X102845238Y-135299703D01*
X102940476Y-135252084D01*
X102988095Y-135204465D01*
X103797619Y-134775894D02*
X103464285Y-134775894D01*
X103464285Y-135299703D02*
X103464285Y-134299703D01*
X103940476Y-134299703D01*
%TO.C,D4*%
X137761904Y-133952380D02*
X137761904Y-132952380D01*
X138000000Y-132952380D01*
X138142857Y-133000000D01*
X138238095Y-133095238D01*
X138285714Y-133190476D01*
X138333333Y-133380952D01*
X138333333Y-133523809D01*
X138285714Y-133714285D01*
X138238095Y-133809523D01*
X138142857Y-133904761D01*
X138000000Y-133952380D01*
X137761904Y-133952380D01*
X139190476Y-133285714D02*
X139190476Y-133952380D01*
X138952380Y-132904761D02*
X138714285Y-133619047D01*
X139333333Y-133619047D01*
X128357142Y-133952380D02*
X127785714Y-133952380D01*
X128071428Y-133952380D02*
X128071428Y-132952380D01*
X127976190Y-133095238D01*
X127880952Y-133190476D01*
X127785714Y-133238095D01*
X128785714Y-133952380D02*
X128785714Y-132952380D01*
X129357142Y-133952380D01*
X129357142Y-132952380D01*
X130261904Y-133285714D02*
X130261904Y-133952380D01*
X130023809Y-132904761D02*
X129785714Y-133619047D01*
X130404761Y-133619047D01*
X130976190Y-132952380D02*
X131071428Y-132952380D01*
X131166666Y-133000000D01*
X131214285Y-133047619D01*
X131261904Y-133142857D01*
X131309523Y-133333333D01*
X131309523Y-133571428D01*
X131261904Y-133761904D01*
X131214285Y-133857142D01*
X131166666Y-133904761D01*
X131071428Y-133952380D01*
X130976190Y-133952380D01*
X130880952Y-133904761D01*
X130833333Y-133857142D01*
X130785714Y-133761904D01*
X130738095Y-133571428D01*
X130738095Y-133333333D01*
X130785714Y-133142857D01*
X130833333Y-133047619D01*
X130880952Y-133000000D01*
X130976190Y-132952380D01*
X131928571Y-132952380D02*
X132023809Y-132952380D01*
X132119047Y-133000000D01*
X132166666Y-133047619D01*
X132214285Y-133142857D01*
X132261904Y-133333333D01*
X132261904Y-133571428D01*
X132214285Y-133761904D01*
X132166666Y-133857142D01*
X132119047Y-133904761D01*
X132023809Y-133952380D01*
X131928571Y-133952380D01*
X131833333Y-133904761D01*
X131785714Y-133857142D01*
X131738095Y-133761904D01*
X131690476Y-133571428D01*
X131690476Y-133333333D01*
X131738095Y-133142857D01*
X131785714Y-133047619D01*
X131833333Y-133000000D01*
X131928571Y-132952380D01*
X133214285Y-133952380D02*
X132642857Y-133952380D01*
X132928571Y-133952380D02*
X132928571Y-132952380D01*
X132833333Y-133095238D01*
X132738095Y-133190476D01*
X132642857Y-133238095D01*
%TO.C,D3*%
X112761904Y-133952380D02*
X112761904Y-132952380D01*
X113000000Y-132952380D01*
X113142857Y-133000000D01*
X113238095Y-133095238D01*
X113285714Y-133190476D01*
X113333333Y-133380952D01*
X113333333Y-133523809D01*
X113285714Y-133714285D01*
X113238095Y-133809523D01*
X113142857Y-133904761D01*
X113000000Y-133952380D01*
X112761904Y-133952380D01*
X113666666Y-132952380D02*
X114285714Y-132952380D01*
X113952380Y-133333333D01*
X114095238Y-133333333D01*
X114190476Y-133380952D01*
X114238095Y-133428571D01*
X114285714Y-133523809D01*
X114285714Y-133761904D01*
X114238095Y-133857142D01*
X114190476Y-133904761D01*
X114095238Y-133952380D01*
X113809523Y-133952380D01*
X113714285Y-133904761D01*
X113666666Y-133857142D01*
X119357142Y-133952380D02*
X118785714Y-133952380D01*
X119071428Y-133952380D02*
X119071428Y-132952380D01*
X118976190Y-133095238D01*
X118880952Y-133190476D01*
X118785714Y-133238095D01*
X119785714Y-133952380D02*
X119785714Y-132952380D01*
X120357142Y-133952380D01*
X120357142Y-132952380D01*
X121261904Y-133285714D02*
X121261904Y-133952380D01*
X121023809Y-132904761D02*
X120785714Y-133619047D01*
X121404761Y-133619047D01*
X121976190Y-132952380D02*
X122071428Y-132952380D01*
X122166666Y-133000000D01*
X122214285Y-133047619D01*
X122261904Y-133142857D01*
X122309523Y-133333333D01*
X122309523Y-133571428D01*
X122261904Y-133761904D01*
X122214285Y-133857142D01*
X122166666Y-133904761D01*
X122071428Y-133952380D01*
X121976190Y-133952380D01*
X121880952Y-133904761D01*
X121833333Y-133857142D01*
X121785714Y-133761904D01*
X121738095Y-133571428D01*
X121738095Y-133333333D01*
X121785714Y-133142857D01*
X121833333Y-133047619D01*
X121880952Y-133000000D01*
X121976190Y-132952380D01*
X122928571Y-132952380D02*
X123023809Y-132952380D01*
X123119047Y-133000000D01*
X123166666Y-133047619D01*
X123214285Y-133142857D01*
X123261904Y-133333333D01*
X123261904Y-133571428D01*
X123214285Y-133761904D01*
X123166666Y-133857142D01*
X123119047Y-133904761D01*
X123023809Y-133952380D01*
X122928571Y-133952380D01*
X122833333Y-133904761D01*
X122785714Y-133857142D01*
X122738095Y-133761904D01*
X122690476Y-133571428D01*
X122690476Y-133333333D01*
X122738095Y-133142857D01*
X122785714Y-133047619D01*
X122833333Y-133000000D01*
X122928571Y-132952380D01*
X124214285Y-133952380D02*
X123642857Y-133952380D01*
X123928571Y-133952380D02*
X123928571Y-132952380D01*
X123833333Y-133095238D01*
X123738095Y-133190476D01*
X123642857Y-133238095D01*
%TO.C,J3*%
X109666666Y-139952380D02*
X109666666Y-140666666D01*
X109619047Y-140809523D01*
X109523809Y-140904761D01*
X109380952Y-140952380D01*
X109285714Y-140952380D01*
X110047619Y-139952380D02*
X110666666Y-139952380D01*
X110333333Y-140333333D01*
X110476190Y-140333333D01*
X110571428Y-140380952D01*
X110619047Y-140428571D01*
X110666666Y-140523809D01*
X110666666Y-140761904D01*
X110619047Y-140857142D01*
X110571428Y-140904761D01*
X110476190Y-140952380D01*
X110190476Y-140952380D01*
X110095238Y-140904761D01*
X110047619Y-140857142D01*
D12*
%TO.C,SW1B1*%
X127863332Y-80160000D02*
X135703332Y-80160000D01*
X127863332Y-78660000D02*
X127863332Y-80160000D01*
X126633332Y-73340000D02*
X126633332Y-75870000D01*
X136803332Y-77680000D02*
X136803332Y-75870000D01*
X126333332Y-75450000D02*
X126333332Y-73040000D01*
X136803332Y-75870000D02*
X136933332Y-75870000D01*
X126333332Y-73040000D02*
X128743332Y-73040000D01*
X126763332Y-75870000D02*
X126763332Y-77680000D01*
X136933332Y-75870000D02*
X136933332Y-73340000D01*
X126633332Y-75870000D02*
X126763332Y-75870000D01*
X136933332Y-77680000D02*
X136803332Y-77680000D01*
X126633332Y-78660000D02*
X127863332Y-78660000D01*
X136933332Y-73340000D02*
X126633332Y-73340000D01*
X126763332Y-77680000D02*
X126633332Y-77680000D01*
X126633332Y-77680000D02*
X126633332Y-78660000D01*
X136933332Y-78660000D02*
X136933332Y-77680000D01*
X135703332Y-80160000D02*
X135703332Y-78660000D01*
X135703332Y-78660000D02*
X136933332Y-78660000D01*
%TO.C,SW1A1*%
X114796666Y-80160000D02*
X122636666Y-80160000D01*
X114796666Y-78660000D02*
X114796666Y-80160000D01*
X113566666Y-73340000D02*
X113566666Y-75870000D01*
X123736666Y-77680000D02*
X123736666Y-75870000D01*
X113266666Y-75450000D02*
X113266666Y-73040000D01*
X123736666Y-75870000D02*
X123866666Y-75870000D01*
X113266666Y-73040000D02*
X115676666Y-73040000D01*
X113696666Y-75870000D02*
X113696666Y-77680000D01*
X123866666Y-75870000D02*
X123866666Y-73340000D01*
X113566666Y-75870000D02*
X113696666Y-75870000D01*
X123866666Y-77680000D02*
X123736666Y-77680000D01*
X113566666Y-78660000D02*
X114796666Y-78660000D01*
X123866666Y-73340000D02*
X113566666Y-73340000D01*
X113696666Y-77680000D02*
X113566666Y-77680000D01*
X113566666Y-77680000D02*
X113566666Y-78660000D01*
X123866666Y-78660000D02*
X123866666Y-77680000D01*
X122636666Y-80160000D02*
X122636666Y-78660000D01*
X122636666Y-78660000D02*
X123866666Y-78660000D01*
%TO.C,R11*%
X121920000Y-50130000D02*
X121920000Y-50460000D01*
X128460000Y-52870000D02*
X121920000Y-52870000D01*
X128460000Y-50130000D02*
X121920000Y-50130000D01*
X128460000Y-50460000D02*
X128460000Y-50130000D01*
X128460000Y-52540000D02*
X128460000Y-52870000D01*
X121920000Y-52870000D02*
X121920000Y-52540000D01*
%TO.C,R10*%
X122230000Y-66630000D02*
X122230000Y-66960000D01*
X128770000Y-69370000D02*
X122230000Y-69370000D01*
X128770000Y-66630000D02*
X122230000Y-66630000D01*
X128770000Y-66960000D02*
X128770000Y-66630000D01*
X128770000Y-69040000D02*
X128770000Y-69370000D01*
X122230000Y-69370000D02*
X122230000Y-69040000D01*
%TO.C,Q1*%
X123050000Y-65150000D02*
X126900000Y-65150000D01*
X122667369Y-64572045D02*
G75*
G03*
X123050000Y-65150000I2322631J1122045D01*
G01*
X127346400Y-62351193D02*
G75*
G03*
X124990000Y-60850000I-2356400J-1098807D01*
G01*
X126900000Y-65150000D02*
G75*
G03*
X127292383Y-64562264I-1910000J1700000D01*
G01*
X124990000Y-60850000D02*
G75*
G03*
X122633600Y-62351193I0J-2600000D01*
G01*
%TO.C,J4*%
X146530000Y-59160000D02*
X146530000Y-58180000D01*
X138630000Y-55950000D02*
X138630000Y-53540000D01*
X146530000Y-53840000D02*
X138930000Y-53840000D01*
X138930000Y-59160000D02*
X139190000Y-59160000D01*
X139190000Y-60660000D02*
X146270000Y-60660000D01*
X138930000Y-53840000D02*
X138930000Y-56370000D01*
X139060000Y-58180000D02*
X138930000Y-58180000D01*
X146530000Y-56370000D02*
X146530000Y-53840000D01*
X146270000Y-59160000D02*
X146530000Y-59160000D01*
X146270000Y-60660000D02*
X146270000Y-59160000D01*
X139060000Y-56370000D02*
X139060000Y-58180000D01*
X138630000Y-53540000D02*
X141040000Y-53540000D01*
X146530000Y-58180000D02*
X146400000Y-58180000D01*
X138930000Y-58180000D02*
X138930000Y-59160000D01*
X139190000Y-59160000D02*
X139190000Y-60660000D01*
X146400000Y-58180000D02*
X146400000Y-56370000D01*
X146400000Y-56370000D02*
X146530000Y-56370000D01*
X138930000Y-56370000D02*
X139060000Y-56370000D01*
%TO.C,D2*%
X127120000Y-53880000D02*
X122880000Y-53880000D01*
X123600000Y-53880000D02*
X123600000Y-56120000D01*
X123480000Y-53880000D02*
X123480000Y-56120000D01*
X127120000Y-56120000D02*
X127120000Y-53880000D01*
X123720000Y-53880000D02*
X123720000Y-56120000D01*
X122230000Y-55000000D02*
X122880000Y-55000000D01*
X122880000Y-53880000D02*
X122880000Y-56120000D01*
X122880000Y-56120000D02*
X127120000Y-56120000D01*
X127770000Y-55000000D02*
X127120000Y-55000000D01*
%TO.C,D1*%
X122880000Y-59620000D02*
X127120000Y-59620000D01*
X126400000Y-59620000D02*
X126400000Y-57380000D01*
X126520000Y-59620000D02*
X126520000Y-57380000D01*
X122880000Y-57380000D02*
X122880000Y-59620000D01*
X126280000Y-59620000D02*
X126280000Y-57380000D01*
X127770000Y-58500000D02*
X127120000Y-58500000D01*
X127120000Y-59620000D02*
X127120000Y-57380000D01*
X127120000Y-57380000D02*
X122880000Y-57380000D01*
X122230000Y-58500000D02*
X122880000Y-58500000D01*
%TO.C,U1*%
X127240000Y-112350000D02*
X122740000Y-112350000D01*
X127240000Y-122630000D02*
X127240000Y-112350000D01*
X122740000Y-122630000D02*
X123990000Y-122630000D01*
X125990000Y-122630000D02*
X127240000Y-122630000D01*
X119740000Y-112290000D02*
X119740000Y-122690000D01*
X122740000Y-112350000D02*
X122740000Y-122630000D01*
X119740000Y-122690000D02*
X130240000Y-122690000D01*
X130240000Y-112290000D02*
X119740000Y-112290000D01*
X130240000Y-122690000D02*
X130240000Y-112290000D01*
X125990000Y-122630000D02*
G75*
G03*
X123990000Y-122630000I-1000000J0D01*
G01*
%TO.C,R9*%
X111960000Y-65870000D02*
X111960000Y-65540000D01*
X105420000Y-63130000D02*
X111960000Y-63130000D01*
X105420000Y-65870000D02*
X111960000Y-65870000D01*
X105420000Y-65540000D02*
X105420000Y-65870000D01*
X105420000Y-63460000D02*
X105420000Y-63130000D01*
X111960000Y-63130000D02*
X111960000Y-63460000D01*
%TO.C,R8*%
X127770000Y-132370000D02*
X127770000Y-132040000D01*
X121230000Y-129630000D02*
X127770000Y-129630000D01*
X121230000Y-132370000D02*
X127770000Y-132370000D01*
X121230000Y-132040000D02*
X121230000Y-132370000D01*
X121230000Y-129960000D02*
X121230000Y-129630000D01*
X127770000Y-129630000D02*
X127770000Y-129960000D01*
%TO.C,R7*%
X134130000Y-120770000D02*
X134460000Y-120770000D01*
X136870000Y-114230000D02*
X136870000Y-120770000D01*
X134130000Y-114230000D02*
X134130000Y-120770000D01*
X134460000Y-114230000D02*
X134130000Y-114230000D01*
X136540000Y-114230000D02*
X136870000Y-114230000D01*
X136870000Y-120770000D02*
X136540000Y-120770000D01*
%TO.C,R6*%
X110230000Y-106630000D02*
X110230000Y-106960000D01*
X116770000Y-109370000D02*
X110230000Y-109370000D01*
X116770000Y-106630000D02*
X110230000Y-106630000D01*
X116770000Y-106960000D02*
X116770000Y-106630000D01*
X116770000Y-109040000D02*
X116770000Y-109370000D01*
X110230000Y-109370000D02*
X110230000Y-109040000D01*
%TO.C,R5*%
X138080000Y-94160000D02*
X145920000Y-94160000D01*
X138080000Y-92660000D02*
X138080000Y-94160000D01*
X136850000Y-87340000D02*
X136850000Y-89870000D01*
X147020000Y-91680000D02*
X147020000Y-89870000D01*
X136550000Y-89450000D02*
X136550000Y-87040000D01*
X147020000Y-89870000D02*
X147150000Y-89870000D01*
X136550000Y-87040000D02*
X138960000Y-87040000D01*
X136980000Y-89870000D02*
X136980000Y-91680000D01*
X147150000Y-89870000D02*
X147150000Y-87340000D01*
X136850000Y-89870000D02*
X136980000Y-89870000D01*
X147150000Y-91680000D02*
X147020000Y-91680000D01*
X136850000Y-92660000D02*
X138080000Y-92660000D01*
X147150000Y-87340000D02*
X136850000Y-87340000D01*
X136980000Y-91680000D02*
X136850000Y-91680000D01*
X136850000Y-91680000D02*
X136850000Y-92660000D01*
X147150000Y-92660000D02*
X147150000Y-91680000D01*
X145920000Y-94160000D02*
X145920000Y-92660000D01*
X145920000Y-92660000D02*
X147150000Y-92660000D01*
%TO.C,R4*%
X104580000Y-93660000D02*
X112420000Y-93660000D01*
X104580000Y-92160000D02*
X104580000Y-93660000D01*
X103350000Y-86840000D02*
X103350000Y-89370000D01*
X113520000Y-91180000D02*
X113520000Y-89370000D01*
X103050000Y-88950000D02*
X103050000Y-86540000D01*
X113520000Y-89370000D02*
X113650000Y-89370000D01*
X103050000Y-86540000D02*
X105460000Y-86540000D01*
X103480000Y-89370000D02*
X103480000Y-91180000D01*
X113650000Y-89370000D02*
X113650000Y-86840000D01*
X103350000Y-89370000D02*
X103480000Y-89370000D01*
X113650000Y-91180000D02*
X113520000Y-91180000D01*
X103350000Y-92160000D02*
X104580000Y-92160000D01*
X113650000Y-86840000D02*
X103350000Y-86840000D01*
X103480000Y-91180000D02*
X103350000Y-91180000D01*
X103350000Y-91180000D02*
X103350000Y-92160000D01*
X113650000Y-92160000D02*
X113650000Y-91180000D01*
X112420000Y-93660000D02*
X112420000Y-92160000D01*
X112420000Y-92160000D02*
X113650000Y-92160000D01*
%TO.C,R3*%
X113870000Y-96920000D02*
X113540000Y-96920000D01*
X111130000Y-103460000D02*
X111130000Y-96920000D01*
X113870000Y-103460000D02*
X113870000Y-96920000D01*
X113540000Y-103460000D02*
X113870000Y-103460000D01*
X111460000Y-103460000D02*
X111130000Y-103460000D01*
X111130000Y-96920000D02*
X111460000Y-96920000D01*
%TO.C,R2*%
X103130000Y-103270000D02*
X103460000Y-103270000D01*
X105870000Y-96730000D02*
X105870000Y-103270000D01*
X103130000Y-96730000D02*
X103130000Y-103270000D01*
X103460000Y-96730000D02*
X103130000Y-96730000D01*
X105540000Y-96730000D02*
X105870000Y-96730000D01*
X105870000Y-103270000D02*
X105540000Y-103270000D01*
%TO.C,R1*%
X117370000Y-114230000D02*
X117040000Y-114230000D01*
X114630000Y-120770000D02*
X114630000Y-114230000D01*
X117370000Y-120770000D02*
X117370000Y-114230000D01*
X117040000Y-120770000D02*
X117370000Y-120770000D01*
X114960000Y-120770000D02*
X114630000Y-120770000D01*
X114630000Y-114230000D02*
X114960000Y-114230000D01*
%TO.C,J8*%
X112570000Y-59160000D02*
X112570000Y-58180000D01*
X104670000Y-55950000D02*
X104670000Y-53540000D01*
X112570000Y-53840000D02*
X104970000Y-53840000D01*
X104970000Y-59160000D02*
X105230000Y-59160000D01*
X105230000Y-60660000D02*
X112310000Y-60660000D01*
X104970000Y-53840000D02*
X104970000Y-56370000D01*
X105100000Y-58180000D02*
X104970000Y-58180000D01*
X112570000Y-56370000D02*
X112570000Y-53840000D01*
X112310000Y-59160000D02*
X112570000Y-59160000D01*
X112310000Y-60660000D02*
X112310000Y-59160000D01*
X105100000Y-56370000D02*
X105100000Y-58180000D01*
X104670000Y-53540000D02*
X107080000Y-53540000D01*
X112570000Y-58180000D02*
X112440000Y-58180000D01*
X104970000Y-58180000D02*
X104970000Y-59160000D01*
X105230000Y-59160000D02*
X105230000Y-60660000D01*
X112440000Y-58180000D02*
X112440000Y-56370000D01*
X112440000Y-56370000D02*
X112570000Y-56370000D01*
X104970000Y-56370000D02*
X105100000Y-56370000D01*
%TO.C,J2*%
X147300000Y-78660000D02*
X147300000Y-77680000D01*
X139400000Y-75450000D02*
X139400000Y-73040000D01*
X147300000Y-73340000D02*
X139700000Y-73340000D01*
X139700000Y-78660000D02*
X139960000Y-78660000D01*
X139960000Y-80160000D02*
X147040000Y-80160000D01*
X139700000Y-73340000D02*
X139700000Y-75870000D01*
X139830000Y-77680000D02*
X139700000Y-77680000D01*
X147300000Y-75870000D02*
X147300000Y-73340000D01*
X147040000Y-78660000D02*
X147300000Y-78660000D01*
X147040000Y-80160000D02*
X147040000Y-78660000D01*
X139830000Y-75870000D02*
X139830000Y-77680000D01*
X139400000Y-73040000D02*
X141810000Y-73040000D01*
X147300000Y-77680000D02*
X147170000Y-77680000D01*
X139700000Y-77680000D02*
X139700000Y-78660000D01*
X139960000Y-78660000D02*
X139960000Y-80160000D01*
X147170000Y-77680000D02*
X147170000Y-75870000D01*
X147170000Y-75870000D02*
X147300000Y-75870000D01*
X139700000Y-75870000D02*
X139830000Y-75870000D01*
%TO.C,J1*%
X110800000Y-78660000D02*
X110800000Y-77680000D01*
X102900000Y-75450000D02*
X102900000Y-73040000D01*
X110800000Y-73340000D02*
X103200000Y-73340000D01*
X103200000Y-78660000D02*
X103460000Y-78660000D01*
X103460000Y-80160000D02*
X110540000Y-80160000D01*
X103200000Y-73340000D02*
X103200000Y-75870000D01*
X103330000Y-77680000D02*
X103200000Y-77680000D01*
X110800000Y-75870000D02*
X110800000Y-73340000D01*
X110540000Y-78660000D02*
X110800000Y-78660000D01*
X110540000Y-80160000D02*
X110540000Y-78660000D01*
X103330000Y-75870000D02*
X103330000Y-77680000D01*
X102900000Y-73040000D02*
X105310000Y-73040000D01*
X110800000Y-77680000D02*
X110670000Y-77680000D01*
X103200000Y-77680000D02*
X103200000Y-78660000D01*
X103460000Y-78660000D02*
X103460000Y-80160000D01*
X110670000Y-77680000D02*
X110670000Y-75870000D01*
X110670000Y-75870000D02*
X110800000Y-75870000D01*
X103200000Y-75870000D02*
X103330000Y-75870000D01*
%TO.C,C6*%
X129220000Y-100500000D02*
G75*
G03*
X129220000Y-100500000I-4120000J0D01*
G01*
X123099000Y-99460000D02*
X123099000Y-96938000D01*
X123779000Y-104363000D02*
X123779000Y-101540000D01*
X123299000Y-99460000D02*
X123299000Y-96834000D01*
X122579000Y-99460000D02*
X122579000Y-97280000D01*
X121179000Y-101729000D02*
X121179000Y-99271000D01*
X124940000Y-104577000D02*
X124940000Y-96423000D01*
X122219000Y-103407000D02*
X122219000Y-101540000D01*
X123979000Y-104425000D02*
X123979000Y-101540000D01*
X122499000Y-99460000D02*
X122499000Y-97344000D01*
X123659000Y-99460000D02*
X123659000Y-96679000D01*
X123259000Y-104147000D02*
X123259000Y-101540000D01*
X123299000Y-104166000D02*
X123299000Y-101540000D01*
X123339000Y-99460000D02*
X123339000Y-96814000D01*
X124580000Y-104548000D02*
X124580000Y-96452000D01*
X121939000Y-103104000D02*
X121939000Y-97896000D01*
X122179000Y-99460000D02*
X122179000Y-97633000D01*
X123219000Y-99460000D02*
X123219000Y-96873000D01*
X122219000Y-99460000D02*
X122219000Y-97593000D01*
X125100000Y-104580000D02*
X125100000Y-96420000D01*
X123979000Y-99460000D02*
X123979000Y-96575000D01*
X122619000Y-99460000D02*
X122619000Y-97250000D01*
X124460000Y-104530000D02*
X124460000Y-96470000D01*
X123619000Y-99460000D02*
X123619000Y-96695000D01*
X123099000Y-104062000D02*
X123099000Y-101540000D01*
X123419000Y-99460000D02*
X123419000Y-96778000D01*
X123779000Y-99460000D02*
X123779000Y-96637000D01*
X123819000Y-99460000D02*
X123819000Y-96623000D01*
X123179000Y-104106000D02*
X123179000Y-101540000D01*
X122859000Y-99460000D02*
X122859000Y-97082000D01*
X122659000Y-103780000D02*
X122659000Y-101540000D01*
X123739000Y-99460000D02*
X123739000Y-96650000D01*
X124059000Y-104447000D02*
X124059000Y-101540000D01*
X124980000Y-104579000D02*
X124980000Y-96421000D01*
X121739000Y-102845000D02*
X121739000Y-98155000D01*
X121859000Y-103005000D02*
X121859000Y-97995000D01*
X122939000Y-99460000D02*
X122939000Y-97031000D01*
X123699000Y-104335000D02*
X123699000Y-101540000D01*
X123419000Y-104222000D02*
X123419000Y-101540000D01*
X122659000Y-99460000D02*
X122659000Y-97220000D01*
X121379000Y-102231000D02*
X121379000Y-98769000D01*
X124620000Y-104552000D02*
X124620000Y-96448000D01*
X122459000Y-103624000D02*
X122459000Y-101540000D01*
X124219000Y-99460000D02*
X124219000Y-96515000D01*
X124700000Y-104561000D02*
X124700000Y-96439000D01*
X122339000Y-99460000D02*
X122339000Y-97481000D01*
X123499000Y-99460000D02*
X123499000Y-96743000D01*
X121259000Y-101953000D02*
X121259000Y-99047000D01*
X123859000Y-99460000D02*
X123859000Y-96611000D01*
X124019000Y-99460000D02*
X124019000Y-96564000D01*
X124900000Y-104576000D02*
X124900000Y-96424000D01*
X123379000Y-104204000D02*
X123379000Y-101540000D01*
X124099000Y-99460000D02*
X124099000Y-96543000D01*
X121499000Y-102464000D02*
X121499000Y-98536000D01*
X122459000Y-99460000D02*
X122459000Y-97376000D01*
X124179000Y-104476000D02*
X124179000Y-101540000D01*
X122259000Y-103445000D02*
X122259000Y-101540000D01*
X122019000Y-103197000D02*
X122019000Y-97803000D01*
X123059000Y-104040000D02*
X123059000Y-101540000D01*
X122299000Y-103483000D02*
X122299000Y-101540000D01*
X122859000Y-103918000D02*
X122859000Y-101540000D01*
X123579000Y-104290000D02*
X123579000Y-101540000D01*
X121139000Y-101598000D02*
X121139000Y-99402000D01*
X125020000Y-104580000D02*
X125020000Y-96420000D01*
X122419000Y-103590000D02*
X122419000Y-101540000D01*
X122539000Y-103689000D02*
X122539000Y-101540000D01*
X124540000Y-104542000D02*
X124540000Y-96458000D01*
X121099000Y-101448000D02*
X121099000Y-99552000D01*
X121659000Y-102728000D02*
X121659000Y-98272000D01*
X122699000Y-99460000D02*
X122699000Y-97191000D01*
X121699000Y-102787000D02*
X121699000Y-98213000D01*
X121459000Y-102390000D02*
X121459000Y-98610000D01*
X123899000Y-104402000D02*
X123899000Y-101540000D01*
X124740000Y-104565000D02*
X124740000Y-96435000D01*
X122059000Y-103241000D02*
X122059000Y-97759000D01*
X123179000Y-99460000D02*
X123179000Y-96894000D01*
X122179000Y-103367000D02*
X122179000Y-101540000D01*
X121299000Y-102052000D02*
X121299000Y-98948000D01*
X122099000Y-103284000D02*
X122099000Y-97716000D01*
X124780000Y-104568000D02*
X124780000Y-96432000D01*
X122739000Y-99460000D02*
X122739000Y-97162000D01*
X122939000Y-103969000D02*
X122939000Y-101540000D01*
X122819000Y-99460000D02*
X122819000Y-97108000D01*
X123579000Y-99460000D02*
X123579000Y-96710000D01*
X129509698Y-102815000D02*
X128709698Y-102815000D01*
X123019000Y-104017000D02*
X123019000Y-101540000D01*
X124099000Y-104457000D02*
X124099000Y-101540000D01*
X123739000Y-104350000D02*
X123739000Y-101540000D01*
X123139000Y-99460000D02*
X123139000Y-96916000D01*
X121779000Y-102900000D02*
X121779000Y-98100000D01*
X123539000Y-104274000D02*
X123539000Y-101540000D01*
X122779000Y-103865000D02*
X122779000Y-101540000D01*
X123499000Y-104257000D02*
X123499000Y-101540000D01*
X122899000Y-99460000D02*
X122899000Y-97056000D01*
X122419000Y-99460000D02*
X122419000Y-97410000D01*
X124860000Y-104574000D02*
X124860000Y-96426000D01*
X121819000Y-102954000D02*
X121819000Y-98046000D01*
X123859000Y-104389000D02*
X123859000Y-101540000D01*
X123139000Y-104084000D02*
X123139000Y-101540000D01*
X124179000Y-99460000D02*
X124179000Y-96524000D01*
X124139000Y-104467000D02*
X124139000Y-101540000D01*
X129109698Y-103215000D02*
X129109698Y-102415000D01*
X122739000Y-103838000D02*
X122739000Y-101540000D01*
X121579000Y-102602000D02*
X121579000Y-98398000D01*
X124660000Y-104557000D02*
X124660000Y-96443000D01*
X123219000Y-104127000D02*
X123219000Y-101540000D01*
X122819000Y-103892000D02*
X122819000Y-101540000D01*
X122499000Y-103656000D02*
X122499000Y-101540000D01*
X121019000Y-101033000D02*
X121019000Y-99967000D01*
X123259000Y-99460000D02*
X123259000Y-96853000D01*
X123459000Y-99460000D02*
X123459000Y-96760000D01*
X123339000Y-104186000D02*
X123339000Y-101540000D01*
X121539000Y-102534000D02*
X121539000Y-98466000D01*
X123619000Y-104305000D02*
X123619000Y-101540000D01*
X124339000Y-104510000D02*
X124339000Y-96490000D01*
X121899000Y-103056000D02*
X121899000Y-97944000D01*
X124139000Y-99460000D02*
X124139000Y-96533000D01*
X122259000Y-99460000D02*
X122259000Y-97555000D01*
X123059000Y-99460000D02*
X123059000Y-96960000D01*
X124500000Y-104537000D02*
X124500000Y-96463000D01*
X121339000Y-102145000D02*
X121339000Y-98855000D01*
X121059000Y-101268000D02*
X121059000Y-99732000D01*
X122619000Y-103750000D02*
X122619000Y-101540000D01*
X124820000Y-104571000D02*
X124820000Y-96429000D01*
X124299000Y-104502000D02*
X124299000Y-96498000D01*
X122979000Y-103993000D02*
X122979000Y-101540000D01*
X123539000Y-99460000D02*
X123539000Y-96726000D01*
X123699000Y-99460000D02*
X123699000Y-96665000D01*
X123459000Y-104240000D02*
X123459000Y-101540000D01*
X123899000Y-99460000D02*
X123899000Y-96598000D01*
X122899000Y-103944000D02*
X122899000Y-101540000D01*
X122579000Y-103720000D02*
X122579000Y-101540000D01*
X121619000Y-102666000D02*
X121619000Y-98334000D01*
X125060000Y-104580000D02*
X125060000Y-96420000D01*
X123939000Y-99460000D02*
X123939000Y-96586000D01*
X122139000Y-103326000D02*
X122139000Y-97674000D01*
X123659000Y-104321000D02*
X123659000Y-101540000D01*
X123379000Y-99460000D02*
X123379000Y-96796000D01*
X122979000Y-99460000D02*
X122979000Y-97007000D01*
X122299000Y-99460000D02*
X122299000Y-97517000D01*
X124019000Y-104436000D02*
X124019000Y-101540000D01*
X122379000Y-99460000D02*
X122379000Y-97445000D01*
X122539000Y-99460000D02*
X122539000Y-97311000D01*
X122699000Y-103809000D02*
X122699000Y-101540000D01*
X124219000Y-104485000D02*
X124219000Y-101540000D01*
X124259000Y-104494000D02*
X124259000Y-96506000D01*
X123019000Y-99460000D02*
X123019000Y-96983000D01*
X123819000Y-104377000D02*
X123819000Y-101540000D01*
X124379000Y-104517000D02*
X124379000Y-96483000D01*
X121979000Y-103151000D02*
X121979000Y-97849000D01*
X122339000Y-103519000D02*
X122339000Y-101540000D01*
X123939000Y-104414000D02*
X123939000Y-101540000D01*
X122779000Y-99460000D02*
X122779000Y-97135000D01*
X124420000Y-104524000D02*
X124420000Y-96476000D01*
X121419000Y-102313000D02*
X121419000Y-98687000D01*
X122379000Y-103555000D02*
X122379000Y-101540000D01*
X121219000Y-101846000D02*
X121219000Y-99154000D01*
X124059000Y-99460000D02*
X124059000Y-96553000D01*
%TO.C,C3*%
X144445000Y-120120000D02*
X144130000Y-120120000D01*
X146870000Y-114880000D02*
X146870000Y-120120000D01*
X144130000Y-114880000D02*
X144130000Y-120120000D01*
X146870000Y-120120000D02*
X146555000Y-120120000D01*
X144445000Y-114880000D02*
X144130000Y-114880000D01*
X146870000Y-114880000D02*
X146555000Y-114880000D01*
%TO.C,C2*%
X112055000Y-114880000D02*
X112370000Y-114880000D01*
X109630000Y-120120000D02*
X109630000Y-114880000D01*
X112370000Y-120120000D02*
X112370000Y-114880000D01*
X109630000Y-114880000D02*
X109945000Y-114880000D01*
X112055000Y-120120000D02*
X112370000Y-120120000D01*
X109630000Y-120120000D02*
X109945000Y-120120000D01*
%TO.C,C1*%
X121880000Y-125945000D02*
X121880000Y-125630000D01*
X127120000Y-128370000D02*
X121880000Y-128370000D01*
X127120000Y-125630000D02*
X121880000Y-125630000D01*
X121880000Y-128370000D02*
X121880000Y-128055000D01*
X127120000Y-125945000D02*
X127120000Y-125630000D01*
X127120000Y-128370000D02*
X127120000Y-128055000D01*
%TO.C,C10*%
X148982000Y-130633323D02*
X145241000Y-130633323D01*
X142759000Y-130312323D02*
X138965000Y-130312323D01*
X145378000Y-134553323D02*
X142622000Y-134553323D01*
X146439000Y-134113323D02*
X141561000Y-134113323D01*
X148273000Y-132393323D02*
X145241000Y-132393323D01*
X142759000Y-131193323D02*
X139163000Y-131193323D01*
X146709000Y-133953323D02*
X141291000Y-133953323D01*
X148657000Y-131673323D02*
X145241000Y-131673323D01*
X142759000Y-130553323D02*
X139003000Y-130553323D01*
X142759000Y-131433323D02*
X139246000Y-131433323D01*
X142759000Y-132073323D02*
X139538000Y-132073323D01*
X148768000Y-131393323D02*
X145241000Y-131393323D01*
X149024000Y-130393323D02*
X145241000Y-130393323D01*
X142759000Y-131953323D02*
X139475000Y-131953323D01*
X145944000Y-134353323D02*
X142056000Y-134353323D01*
X148621000Y-131753323D02*
X145241000Y-131753323D01*
X142759000Y-131993323D02*
X139496000Y-131993323D01*
X148194000Y-132513323D02*
X145241000Y-132513323D01*
X142759000Y-131033323D02*
X139115000Y-131033323D01*
X148138000Y-132593323D02*
X145241000Y-132593323D01*
X146830000Y-133873323D02*
X141170000Y-133873323D01*
X147392000Y-133433323D02*
X140608000Y-133433323D01*
X148707000Y-131553323D02*
X145241000Y-131553323D01*
X142759000Y-131393323D02*
X139232000Y-131393323D01*
X142759000Y-131713323D02*
X139361000Y-131713323D01*
X148395000Y-132193323D02*
X145241000Y-132193323D01*
X142759000Y-130393323D02*
X138976000Y-130393323D01*
X142759000Y-130953323D02*
X139093000Y-130953323D01*
X149018000Y-130433323D02*
X145241000Y-130433323D01*
X142759000Y-131473323D02*
X139262000Y-131473323D01*
X148956000Y-130753323D02*
X145241000Y-130753323D01*
X142759000Y-130593323D02*
X139010000Y-130593323D01*
X142759000Y-131513323D02*
X139277000Y-131513323D01*
X146579000Y-134033323D02*
X141421000Y-134033323D01*
X147824000Y-132993323D02*
X140176000Y-132993323D01*
X147716000Y-133113323D02*
X140284000Y-133113323D01*
X148797000Y-131313323D02*
X145241000Y-131313323D01*
X145846000Y-134393323D02*
X142154000Y-134393323D01*
X148584000Y-131833323D02*
X145241000Y-131833323D01*
X147436000Y-133393323D02*
X140564000Y-133393323D01*
X148974000Y-130673323D02*
X145241000Y-130673323D01*
X149080000Y-129672323D02*
X138920000Y-129672323D01*
X148525000Y-131953323D02*
X145241000Y-131953323D01*
X142759000Y-131673323D02*
X139343000Y-131673323D01*
X149079000Y-129752323D02*
X138921000Y-129752323D01*
X148603000Y-131793323D02*
X145241000Y-131793323D01*
X149040000Y-130272323D02*
X138960000Y-130272323D01*
X142759000Y-131913323D02*
X139455000Y-131913323D01*
X145742000Y-134433323D02*
X142258000Y-134433323D01*
X148897000Y-130993323D02*
X145241000Y-130993323D01*
X146645000Y-133993323D02*
X141355000Y-133993323D01*
X149065000Y-130032323D02*
X138935000Y-130032323D01*
X148885000Y-131033323D02*
X145241000Y-131033323D01*
X142759000Y-131353323D02*
X139217000Y-131353323D01*
X149050000Y-130192323D02*
X138950000Y-130192323D01*
X148050000Y-132713323D02*
X145241000Y-132713323D01*
X147254000Y-133553323D02*
X140746000Y-133553323D01*
X147478000Y-133353323D02*
X140522000Y-133353323D01*
X142759000Y-132393323D02*
X139727000Y-132393323D01*
X142759000Y-130833323D02*
X139062000Y-130833323D01*
X147679000Y-133153323D02*
X140321000Y-133153323D01*
X147347000Y-133473323D02*
X140653000Y-133473323D01*
X142759000Y-132753323D02*
X139980000Y-132753323D01*
X145510000Y-134513323D02*
X142490000Y-134513323D01*
X148110000Y-132633323D02*
X145241000Y-132633323D01*
X142759000Y-131553323D02*
X139293000Y-131553323D01*
X148347000Y-132273323D02*
X145241000Y-132273323D01*
X147156000Y-133633323D02*
X140844000Y-133633323D01*
X147106000Y-133673323D02*
X140894000Y-133673323D01*
X148504000Y-131993323D02*
X145241000Y-131993323D01*
X142759000Y-132113323D02*
X139560000Y-132113323D01*
X142759000Y-131313323D02*
X139203000Y-131313323D01*
X142759000Y-132033323D02*
X139517000Y-132033323D01*
X142759000Y-132633323D02*
X139890000Y-132633323D01*
X147375000Y-124652677D02*
X146375000Y-124652677D01*
X149080000Y-129712323D02*
X138920000Y-129712323D01*
X144862000Y-134673323D02*
X143138000Y-134673323D01*
X142759000Y-130993323D02*
X139103000Y-130993323D01*
X142759000Y-132593323D02*
X139862000Y-132593323D01*
X144599000Y-134713323D02*
X143401000Y-134713323D01*
X148639000Y-131713323D02*
X145241000Y-131713323D01*
X142759000Y-132233323D02*
X139629000Y-132233323D01*
X146510000Y-134073323D02*
X141490000Y-134073323D01*
X142759000Y-131273323D02*
X139189000Y-131273323D01*
X149058000Y-130112323D02*
X138942000Y-130112323D01*
X148938000Y-130833323D02*
X145241000Y-130833323D01*
X147561000Y-133273323D02*
X140439000Y-133273323D01*
X148850000Y-131153323D02*
X145241000Y-131153323D01*
X148837000Y-131193323D02*
X145241000Y-131193323D01*
X149045000Y-130232323D02*
X138955000Y-130232323D01*
X146770000Y-133913323D02*
X141230000Y-133913323D01*
X146037000Y-134313323D02*
X141963000Y-134313323D01*
X145230000Y-134593323D02*
X142770000Y-134593323D01*
X142759000Y-130873323D02*
X139072000Y-130873323D01*
X142759000Y-131833323D02*
X139416000Y-131833323D01*
X142759000Y-130713323D02*
X139035000Y-130713323D01*
X146125000Y-134273323D02*
X141875000Y-134273323D01*
X147753000Y-133073323D02*
X140247000Y-133073323D01*
X142759000Y-132433323D02*
X139753000Y-132433323D01*
X142759000Y-131873323D02*
X139436000Y-131873323D01*
X142759000Y-132273323D02*
X139653000Y-132273323D01*
X148440000Y-132113323D02*
X145241000Y-132113323D01*
X148323000Y-132313323D02*
X145241000Y-132313323D01*
X148298000Y-132353323D02*
X145241000Y-132353323D01*
X146289000Y-134193323D02*
X141711000Y-134193323D01*
X142759000Y-131153323D02*
X139150000Y-131153323D01*
X148928000Y-130873323D02*
X145241000Y-130873323D01*
X147206000Y-133593323D02*
X140794000Y-133593323D01*
X142759000Y-130753323D02*
X139044000Y-130753323D01*
X142759000Y-130353323D02*
X138970000Y-130353323D01*
X148221000Y-132473323D02*
X145241000Y-132473323D01*
X148674000Y-131633323D02*
X145241000Y-131633323D01*
X147789000Y-133033323D02*
X140211000Y-133033323D01*
X147640000Y-133193323D02*
X140360000Y-133193323D01*
X142759000Y-131753323D02*
X139379000Y-131753323D01*
X148417000Y-132153323D02*
X145241000Y-132153323D01*
X147601000Y-133233323D02*
X140399000Y-133233323D01*
X142759000Y-130673323D02*
X139026000Y-130673323D01*
X148166000Y-132553323D02*
X145241000Y-132553323D01*
X149030000Y-130353323D02*
X145241000Y-130353323D01*
X149070000Y-129952323D02*
X138930000Y-129952323D01*
X149080000Y-129632323D02*
X138920000Y-129632323D01*
X148918000Y-130913323D02*
X145241000Y-130913323D01*
X142759000Y-132313323D02*
X139677000Y-132313323D01*
X142759000Y-132713323D02*
X139950000Y-132713323D01*
X147858000Y-132953323D02*
X140142000Y-132953323D01*
X148862000Y-131113323D02*
X145241000Y-131113323D01*
X148080000Y-132673323D02*
X145241000Y-132673323D01*
X142759000Y-132153323D02*
X139583000Y-132153323D01*
X149078000Y-129792323D02*
X138922000Y-129792323D01*
X142759000Y-132673323D02*
X139920000Y-132673323D01*
X142759000Y-130913323D02*
X139082000Y-130913323D01*
X148371000Y-132233323D02*
X145241000Y-132233323D01*
X148947000Y-130793323D02*
X145241000Y-130793323D01*
X149077000Y-129832323D02*
X138923000Y-129832323D01*
X146365000Y-134153323D02*
X141635000Y-134153323D01*
X147054000Y-133713323D02*
X140946000Y-133713323D01*
X148690000Y-131593323D02*
X145241000Y-131593323D01*
X142759000Y-132353323D02*
X139702000Y-132353323D01*
X149035000Y-130312323D02*
X145241000Y-130312323D01*
X142759000Y-132513323D02*
X139806000Y-132513323D01*
X148462000Y-132073323D02*
X145241000Y-132073323D01*
X149068000Y-129992323D02*
X138932000Y-129992323D01*
X142759000Y-131793323D02*
X139397000Y-131793323D01*
X142759000Y-132553323D02*
X139834000Y-132553323D01*
X142759000Y-131633323D02*
X139326000Y-131633323D01*
X147957000Y-132833323D02*
X140043000Y-132833323D01*
X147989000Y-132793323D02*
X140011000Y-132793323D01*
X142759000Y-130793323D02*
X139053000Y-130793323D01*
X148824000Y-131233323D02*
X145241000Y-131233323D01*
X142759000Y-132473323D02*
X139779000Y-132473323D01*
X148247000Y-132433323D02*
X145241000Y-132433323D01*
X148965000Y-130713323D02*
X145241000Y-130713323D01*
X148874000Y-131073323D02*
X145241000Y-131073323D01*
X148907000Y-130953323D02*
X145241000Y-130953323D01*
X146875000Y-124152677D02*
X146875000Y-125152677D01*
X148811000Y-131273323D02*
X145241000Y-131273323D01*
X148754000Y-131433323D02*
X145241000Y-131433323D01*
X148483000Y-132033323D02*
X145241000Y-132033323D01*
X148723000Y-131513323D02*
X145241000Y-131513323D01*
X148990000Y-130593323D02*
X145241000Y-130593323D01*
X142759000Y-131593323D02*
X139310000Y-131593323D01*
X146945000Y-133793323D02*
X141055000Y-133793323D01*
X148783000Y-131353323D02*
X145241000Y-131353323D01*
X142759000Y-130633323D02*
X139018000Y-130633323D01*
X147925000Y-132873323D02*
X140075000Y-132873323D01*
X146889000Y-133833323D02*
X141111000Y-133833323D01*
X149075000Y-129872323D02*
X138925000Y-129872323D01*
X149054000Y-130152323D02*
X138946000Y-130152323D01*
X149062000Y-130072323D02*
X138938000Y-130072323D01*
X142759000Y-130433323D02*
X138982000Y-130433323D01*
X148564000Y-131873323D02*
X145241000Y-131873323D01*
X147520000Y-133313323D02*
X140480000Y-133313323D01*
X147892000Y-132913323D02*
X140108000Y-132913323D01*
X145630000Y-134473323D02*
X142370000Y-134473323D01*
X147000000Y-133753323D02*
X141000000Y-133753323D01*
X148997000Y-130553323D02*
X145241000Y-130553323D01*
X142759000Y-131233323D02*
X139176000Y-131233323D01*
X142759000Y-132193323D02*
X139605000Y-132193323D01*
X146209000Y-134233323D02*
X141791000Y-134233323D01*
X148738000Y-131473323D02*
X145241000Y-131473323D01*
X149011000Y-130473323D02*
X145241000Y-130473323D01*
X148020000Y-132753323D02*
X145241000Y-132753323D01*
X149004000Y-130513323D02*
X145241000Y-130513323D01*
X147301000Y-133513323D02*
X140699000Y-133513323D01*
X148545000Y-131913323D02*
X145241000Y-131913323D01*
X145062000Y-134633323D02*
X142938000Y-134633323D01*
X142759000Y-131073323D02*
X139126000Y-131073323D01*
X142759000Y-131113323D02*
X139138000Y-131113323D01*
X142759000Y-130473323D02*
X138989000Y-130473323D01*
X142759000Y-130513323D02*
X138996000Y-130513323D01*
X149073000Y-129912323D02*
X138927000Y-129912323D01*
X149120000Y-129632323D02*
G75*
G03*
X149120000Y-129632323I-5120000J0D01*
G01*
%TO.C,C9*%
X109241000Y-127226677D02*
X112347000Y-127226677D01*
X109241000Y-127106677D02*
X112273000Y-127106677D01*
X106056000Y-125146677D02*
X109944000Y-125146677D01*
X109241000Y-128026677D02*
X112738000Y-128026677D01*
X102955000Y-129267677D02*
X113045000Y-129267677D01*
X102989000Y-129026677D02*
X106759000Y-129026677D01*
X103062000Y-128666677D02*
X106759000Y-128666677D01*
X105111000Y-125666677D02*
X110889000Y-125666677D01*
X109241000Y-129146677D02*
X113030000Y-129146677D01*
X103950000Y-126786677D02*
X106759000Y-126786677D01*
X109241000Y-127946677D02*
X112707000Y-127946677D01*
X109241000Y-127346677D02*
X112417000Y-127346677D01*
X103629000Y-127266677D02*
X106759000Y-127266677D01*
X109241000Y-128866677D02*
X112982000Y-128866677D01*
X103677000Y-127186677D02*
X106759000Y-127186677D01*
X103727000Y-127106677D02*
X106759000Y-127106677D01*
X109241000Y-128506677D02*
X112897000Y-128506677D01*
X104247000Y-126426677D02*
X111753000Y-126426677D01*
X109241000Y-128106677D02*
X112768000Y-128106677D01*
X104176000Y-126506677D02*
X111824000Y-126506677D01*
X104946000Y-125786677D02*
X111054000Y-125786677D01*
X103093000Y-128546677D02*
X106759000Y-128546677D01*
X104011000Y-126706677D02*
X111989000Y-126706677D01*
X109241000Y-128786677D02*
X112965000Y-128786677D01*
X109241000Y-129066677D02*
X113018000Y-129066677D01*
X105170000Y-125626677D02*
X110830000Y-125626677D01*
X103397000Y-127706677D02*
X106759000Y-127706677D01*
X104522000Y-126146677D02*
X111478000Y-126146677D01*
X103416000Y-127666677D02*
X106759000Y-127666677D01*
X103379000Y-127746677D02*
X106759000Y-127746677D01*
X102965000Y-129187677D02*
X106759000Y-129187677D01*
X105561000Y-125386677D02*
X110439000Y-125386677D01*
X103138000Y-128386677D02*
X106759000Y-128386677D01*
X103605000Y-127306677D02*
X106759000Y-127306677D01*
X103277000Y-127986677D02*
X106759000Y-127986677D01*
X104211000Y-126466677D02*
X111789000Y-126466677D01*
X109241000Y-127906677D02*
X112690000Y-127906677D01*
X102920000Y-129787677D02*
X113080000Y-129787677D01*
X104399000Y-126266677D02*
X111601000Y-126266677D01*
X103920000Y-126826677D02*
X106759000Y-126826677D01*
X109241000Y-127506677D02*
X112504000Y-127506677D01*
X104043000Y-126666677D02*
X111957000Y-126666677D01*
X103834000Y-126946677D02*
X106759000Y-126946677D01*
X103150000Y-128346677D02*
X106759000Y-128346677D01*
X102982000Y-129066677D02*
X106759000Y-129066677D01*
X102935000Y-129467677D02*
X113065000Y-129467677D01*
X109241000Y-128706677D02*
X112947000Y-128706677D01*
X102976000Y-129106677D02*
X106759000Y-129106677D01*
X102920000Y-129867677D02*
X113080000Y-129867677D01*
X103753000Y-127066677D02*
X106759000Y-127066677D01*
X102920000Y-129827677D02*
X113080000Y-129827677D01*
X109241000Y-127026677D02*
X112221000Y-127026677D01*
X109241000Y-127786677D02*
X112639000Y-127786677D01*
X102938000Y-129427677D02*
X113062000Y-129427677D01*
X103203000Y-128186677D02*
X106759000Y-128186677D01*
X103163000Y-128306677D02*
X106759000Y-128306677D01*
X104699000Y-125986677D02*
X111301000Y-125986677D01*
X103653000Y-127226677D02*
X106759000Y-127226677D01*
X109241000Y-128306677D02*
X112837000Y-128306677D01*
X109241000Y-128146677D02*
X112783000Y-128146677D01*
X109241000Y-126946677D02*
X112166000Y-126946677D01*
X104844000Y-125866677D02*
X111156000Y-125866677D01*
X109241000Y-128826677D02*
X112974000Y-128826677D01*
X104608000Y-126066677D02*
X111392000Y-126066677D01*
X103560000Y-127386677D02*
X106759000Y-127386677D01*
X109241000Y-127386677D02*
X112440000Y-127386677D01*
X104142000Y-126546677D02*
X111858000Y-126546677D01*
X109241000Y-128346677D02*
X112850000Y-128346677D01*
X102923000Y-129667677D02*
X113077000Y-129667677D01*
X103003000Y-128946677D02*
X106759000Y-128946677D01*
X103890000Y-126866677D02*
X106759000Y-126866677D01*
X103115000Y-128466677D02*
X106759000Y-128466677D01*
X105963000Y-125186677D02*
X110037000Y-125186677D01*
X103232000Y-128106677D02*
X106759000Y-128106677D01*
X109241000Y-128226677D02*
X112811000Y-128226677D01*
X106622000Y-124946677D02*
X109378000Y-124946677D01*
X103026000Y-128826677D02*
X106759000Y-128826677D01*
X109241000Y-127586677D02*
X112545000Y-127586677D01*
X109241000Y-127866677D02*
X112674000Y-127866677D01*
X103072000Y-128626677D02*
X106759000Y-128626677D01*
X102925000Y-129627677D02*
X113075000Y-129627677D01*
X105711000Y-125306677D02*
X110289000Y-125306677D01*
X109241000Y-127746677D02*
X112621000Y-127746677D01*
X103035000Y-128786677D02*
X106759000Y-128786677D01*
X103189000Y-128226677D02*
X106759000Y-128226677D01*
X104075000Y-126626677D02*
X111925000Y-126626677D01*
X104480000Y-126186677D02*
X111520000Y-126186677D01*
X103018000Y-128866677D02*
X106759000Y-128866677D01*
X103455000Y-127586677D02*
X106759000Y-127586677D01*
X109241000Y-128666677D02*
X112938000Y-128666677D01*
X102950000Y-129307677D02*
X113050000Y-129307677D01*
X109241000Y-127306677D02*
X112395000Y-127306677D01*
X109241000Y-127146677D02*
X112298000Y-127146677D01*
X103583000Y-127346677D02*
X106759000Y-127346677D01*
X109241000Y-127986677D02*
X112723000Y-127986677D01*
X109241000Y-128986677D02*
X113004000Y-128986677D01*
X103517000Y-127466677D02*
X106759000Y-127466677D01*
X104564000Y-126106677D02*
X111436000Y-126106677D01*
X109241000Y-128426677D02*
X112874000Y-128426677D01*
X106370000Y-125026677D02*
X109630000Y-125026677D01*
X109241000Y-128546677D02*
X112907000Y-128546677D01*
X109241000Y-127546677D02*
X112525000Y-127546677D01*
X102946000Y-129347677D02*
X113054000Y-129347677D01*
X109241000Y-127186677D02*
X112323000Y-127186677D01*
X103053000Y-128706677D02*
X106759000Y-128706677D01*
X109241000Y-127426677D02*
X112462000Y-127426677D01*
X105635000Y-125346677D02*
X110365000Y-125346677D01*
X105291000Y-125546677D02*
X110709000Y-125546677D01*
X103217000Y-128146677D02*
X106759000Y-128146677D01*
X109241000Y-128066677D02*
X112754000Y-128066677D01*
X103010000Y-128906677D02*
X106759000Y-128906677D01*
X105230000Y-125586677D02*
X110770000Y-125586677D01*
X103103000Y-128506677D02*
X106759000Y-128506677D01*
X104284000Y-126386677D02*
X111716000Y-126386677D01*
X103496000Y-127506677D02*
X106759000Y-127506677D01*
X103538000Y-127426677D02*
X106759000Y-127426677D01*
X109241000Y-128266677D02*
X112824000Y-128266677D01*
X102942000Y-129387677D02*
X113058000Y-129387677D01*
X109241000Y-128586677D02*
X112918000Y-128586677D01*
X102927000Y-129587677D02*
X113073000Y-129587677D01*
X109241000Y-128386677D02*
X112862000Y-128386677D01*
X106154000Y-125106677D02*
X109846000Y-125106677D01*
X103436000Y-127626677D02*
X106759000Y-127626677D01*
X104439000Y-126226677D02*
X111561000Y-126226677D01*
X103980000Y-126746677D02*
X106759000Y-126746677D01*
X103361000Y-127786677D02*
X106759000Y-127786677D01*
X109241000Y-129106677D02*
X113024000Y-129106677D01*
X105791000Y-125266677D02*
X110209000Y-125266677D01*
X109241000Y-127666677D02*
X112584000Y-127666677D01*
X106258000Y-125066677D02*
X109742000Y-125066677D01*
X109241000Y-127826677D02*
X112657000Y-127826677D01*
X104108000Y-126586677D02*
X111892000Y-126586677D01*
X103702000Y-127146677D02*
X106759000Y-127146677D01*
X104653000Y-126026677D02*
X111347000Y-126026677D01*
X107401000Y-124786677D02*
X108599000Y-124786677D01*
X104746000Y-125946677D02*
X111254000Y-125946677D01*
X109241000Y-126746677D02*
X112020000Y-126746677D01*
X103262000Y-128026677D02*
X106759000Y-128026677D01*
X109241000Y-128626677D02*
X112928000Y-128626677D01*
X102930000Y-129547677D02*
X113070000Y-129547677D01*
X109241000Y-126906677D02*
X112138000Y-126906677D01*
X109241000Y-127466677D02*
X112483000Y-127466677D01*
X109241000Y-127706677D02*
X112603000Y-127706677D01*
X103343000Y-127826677D02*
X106759000Y-127826677D01*
X105355000Y-125506677D02*
X110645000Y-125506677D01*
X106938000Y-124866677D02*
X109062000Y-124866677D01*
X109241000Y-128186677D02*
X112797000Y-128186677D01*
X103475000Y-127546677D02*
X106759000Y-127546677D01*
X109241000Y-129187677D02*
X113035000Y-129187677D01*
X103779000Y-127026677D02*
X106759000Y-127026677D01*
X102921000Y-129747677D02*
X113079000Y-129747677D01*
X103862000Y-126906677D02*
X106759000Y-126906677D01*
X103806000Y-126986677D02*
X106759000Y-126986677D01*
X106770000Y-124906677D02*
X109230000Y-124906677D01*
X103293000Y-127946677D02*
X106759000Y-127946677D01*
X109241000Y-126826677D02*
X112080000Y-126826677D01*
X109241000Y-128946677D02*
X112997000Y-128946677D01*
X109241000Y-127626677D02*
X112564000Y-127626677D01*
X102932000Y-129507677D02*
X113068000Y-129507677D01*
X103126000Y-128426677D02*
X106759000Y-128426677D01*
X107138000Y-124826677D02*
X108862000Y-124826677D01*
X103246000Y-128066677D02*
X106759000Y-128066677D01*
X109241000Y-128746677D02*
X112956000Y-128746677D01*
X102922000Y-129707677D02*
X113078000Y-129707677D01*
X104894000Y-125826677D02*
X111106000Y-125826677D01*
X109241000Y-128466677D02*
X112885000Y-128466677D01*
X102970000Y-129146677D02*
X106759000Y-129146677D01*
X104625000Y-134847323D02*
X105625000Y-134847323D01*
X102960000Y-129227677D02*
X113040000Y-129227677D01*
X105000000Y-125746677D02*
X111000000Y-125746677D01*
X109241000Y-127266677D02*
X112371000Y-127266677D01*
X106490000Y-124986677D02*
X109510000Y-124986677D01*
X109241000Y-126866677D02*
X112110000Y-126866677D01*
X109241000Y-128906677D02*
X112990000Y-128906677D01*
X109241000Y-129026677D02*
X113011000Y-129026677D01*
X105125000Y-135347323D02*
X105125000Y-134347323D01*
X104321000Y-126346677D02*
X111679000Y-126346677D01*
X109241000Y-126986677D02*
X112194000Y-126986677D01*
X103176000Y-128266677D02*
X106759000Y-128266677D01*
X105875000Y-125226677D02*
X110125000Y-125226677D01*
X105421000Y-125466677D02*
X110579000Y-125466677D01*
X105490000Y-125426677D02*
X110510000Y-125426677D01*
X109241000Y-127066677D02*
X112247000Y-127066677D01*
X104794000Y-125906677D02*
X111206000Y-125906677D01*
X103326000Y-127866677D02*
X106759000Y-127866677D01*
X105055000Y-125706677D02*
X110945000Y-125706677D01*
X109241000Y-126786677D02*
X112050000Y-126786677D01*
X104360000Y-126306677D02*
X111640000Y-126306677D01*
X103310000Y-127906677D02*
X106759000Y-127906677D01*
X103082000Y-128586677D02*
X106759000Y-128586677D01*
X103044000Y-128746677D02*
X106759000Y-128746677D01*
X102996000Y-128986677D02*
X106759000Y-128986677D01*
X113120000Y-129867677D02*
G75*
G03*
X113120000Y-129867677I-5120000J0D01*
G01*
%TO.C,D4*%
X132180000Y-134530000D02*
X132180000Y-137470000D01*
X136720000Y-137470000D02*
X136720000Y-134530000D01*
X130260000Y-136000000D02*
X131280000Y-136000000D01*
X132060000Y-134530000D02*
X132060000Y-137470000D01*
X137740000Y-136000000D02*
X136720000Y-136000000D01*
X131280000Y-137470000D02*
X136720000Y-137470000D01*
X131280000Y-134530000D02*
X131280000Y-137470000D01*
X132300000Y-134530000D02*
X132300000Y-137470000D01*
X136720000Y-134530000D02*
X131280000Y-134530000D01*
%TO.C,D3*%
X115280000Y-137470000D02*
X120720000Y-137470000D01*
X120720000Y-137470000D02*
X120720000Y-134530000D01*
X116180000Y-134530000D02*
X116180000Y-137470000D01*
X120720000Y-134530000D02*
X115280000Y-134530000D01*
X114260000Y-136000000D02*
X115280000Y-136000000D01*
X121740000Y-136000000D02*
X120720000Y-136000000D01*
X115280000Y-134530000D02*
X115280000Y-137470000D01*
X116060000Y-134530000D02*
X116060000Y-137470000D01*
X116300000Y-134530000D02*
X116300000Y-137470000D01*
%TO.C,J3*%
X138910000Y-146980000D02*
X113310000Y-146980000D01*
X124060000Y-140480000D02*
X124060000Y-140480000D01*
X124060000Y-140480000D02*
X124060000Y-139170000D01*
X138910000Y-140480000D02*
X138910000Y-146980000D01*
X128160000Y-140480000D02*
X138910000Y-140480000D01*
X135000000Y-138780000D02*
X135500000Y-137780000D01*
X128160000Y-139170000D02*
X128160000Y-140480000D01*
X135500000Y-137780000D02*
X134500000Y-137780000D01*
X112010000Y-139170000D02*
X140210000Y-139170000D01*
X140210000Y-148290000D02*
X112010000Y-148290000D01*
X113310000Y-140480000D02*
X124060000Y-140480000D01*
X112010000Y-148290000D02*
X112010000Y-139170000D01*
X134500000Y-137780000D02*
X135000000Y-138780000D01*
X113310000Y-146980000D02*
X113310000Y-140480000D01*
X140210000Y-139170000D02*
X140210000Y-148290000D01*
%TD*%
M02*
