M48
; DRILL file {KiCad (6.0.7)} date Sun Feb 26 22:32:18 2023
; FORMAT={-:-/ absolute / metric / decimal}
; #@! TF.CreationDate,2023-02-26T22:32:18-05:00
; #@! TF.GenerationSoftware,Kicad,Pcbnew,(6.0.7)
; #@! TF.FileFunction,Plated,1,2,PTH
FMAT,2
METRIC
; #@! TA.AperFunction,Plated,PTH,ViaDrill
T1C0.800
; #@! TA.AperFunction,Plated,PTH,ComponentDrill
T2C0.800
; #@! TA.AperFunction,Plated,PTH,ComponentDrill
T3C1.000
; #@! TA.AperFunction,Plated,PTH,ComponentDrill
T4C1.090
; #@! TA.AperFunction,Plated,PTH,ComponentDrill
T5C1.100
; #@! TA.AperFunction,Plated,PTH,ComponentDrill
T6C3.200
%
G90
G05
T1
X116.0Y-124.5
X116.0Y-131.5
X117.0Y-95.0
X117.0Y-104.0
X129.5Y-84.0
X135.0Y-90.5
X135.0Y-103.0
X139.1Y-121.5
X144.0Y-84.0
X144.0Y-121.5
T2
X104.5Y-96.19
X104.5Y-103.81
X104.88Y-64.5
X109.69Y-108.0
X111.0Y-115.0
X111.0Y-120.0
X112.5Y-64.5
X112.5Y-96.38
X112.5Y-104.0
X116.0Y-113.69
X116.0Y-121.31
X117.31Y-108.0
X120.69Y-131.0
X121.18Y-113.68
X121.18Y-116.22
X121.18Y-118.76
X121.18Y-121.3
X121.19Y-55.0
X121.19Y-58.5
X121.38Y-51.5
X121.69Y-68.0
X122.0Y-127.0
X122.45Y-63.45
X123.2Y-100.5
X124.99Y-63.45
X127.0Y-100.5
X127.0Y-127.0
X127.53Y-63.45
X128.31Y-131.0
X128.8Y-113.68
X128.8Y-116.22
X128.8Y-118.76
X128.8Y-121.3
X128.81Y-55.0
X128.81Y-58.5
X129.0Y-51.5
X129.31Y-68.0
X135.5Y-113.69
X135.5Y-121.31
X145.5Y-115.0
X145.5Y-120.0
T3
X108.0Y-127.968
X108.0Y-131.768
X117.22Y-142.46
X117.22Y-145.0
X119.76Y-142.46
X119.76Y-145.0
X122.3Y-142.46
X122.3Y-145.0
X124.84Y-142.46
X124.84Y-145.0
X127.38Y-142.46
X127.38Y-145.0
X129.92Y-142.46
X129.92Y-145.0
X132.46Y-142.46
X132.46Y-145.0
X135.0Y-142.46
X135.0Y-145.0
X144.0Y-127.732
X144.0Y-131.532
T4
X105.73Y-76.0
X105.96Y-89.5
X107.5Y-56.5
X108.27Y-76.0
X108.5Y-89.5
X110.04Y-56.5
X111.04Y-89.5
X116.177Y-76.0
X118.717Y-76.0
X121.257Y-76.0
X129.243Y-76.0
X131.783Y-76.0
X134.323Y-76.0
X139.46Y-90.0
X141.46Y-56.5
X142.0Y-90.0
X142.23Y-76.0
X144.0Y-56.5
X144.54Y-90.0
X144.77Y-76.0
T5
X112.92Y-136.0
X123.08Y-136.0
X128.92Y-136.0
X139.08Y-136.0
T6
X105.08Y-43.5
X105.08Y-148.5
X144.92Y-43.5
X144.92Y-148.5
T0
M30
