M48
; DRILL file {KiCad (6.0.7)} date Wed Feb 15 23:00:29 2023
; FORMAT={-:-/ absolute / metric / decimal}
; #@! TF.CreationDate,2023-02-15T23:00:29-05:00
; #@! TF.GenerationSoftware,Kicad,Pcbnew,(6.0.7)
; #@! TF.FileFunction,Plated,1,2,PTH
FMAT,2
METRIC
; #@! TA.AperFunction,Plated,PTH,ViaDrill
T1C0.800
; #@! TA.AperFunction,Plated,PTH,ComponentDrill
T2C0.800
; #@! TA.AperFunction,Plated,PTH,ComponentDrill
T3C0.900
; #@! TA.AperFunction,Plated,PTH,ComponentDrill
T4C1.000
; #@! TA.AperFunction,Plated,PTH,ComponentDrill
T5C1.090
; #@! TA.AperFunction,Plated,PTH,ComponentDrill
T6C1.100
; #@! TA.AperFunction,Plated,PTH,ComponentDrill
T7C1.300
; #@! TA.AperFunction,Plated,PTH,ComponentDrill
T8C3.200
%
G90
G05
T1
X114.75Y-59.25
X114.75Y-68.25
X115.75Y-77.25
X132.5Y-82.25
X132.5Y-114.75
X133.75Y-83.75
X133.75Y-113.0
X134.0Y-77.25
X135.0Y-88.0
X135.0Y-94.5
X136.25Y-54.0
X136.25Y-92.5
X137.399Y-60.25
X137.399Y-76.5
X137.75Y-47.5
X137.75Y-52.25
T2
X104.44Y-73.0
X104.44Y-77.0
X105.19Y-90.0
X105.19Y-94.25
X106.25Y-97.75
X106.5Y-111.0
X106.95Y-104.0
X110.75Y-104.0
X111.25Y-97.75
X111.5Y-111.0
X112.06Y-73.0
X112.06Y-77.0
X112.81Y-90.0
X112.81Y-94.25
X116.63Y-55.75
X120.0Y-60.753
X120.0Y-64.553
X120.0Y-70.0
X120.0Y-73.8
X122.425Y-87.875
X122.425Y-90.415
X122.425Y-92.955
X122.425Y-95.495
X122.425Y-98.035
X122.425Y-100.575
X122.425Y-103.115
X122.44Y-80.25
X122.44Y-83.75
X123.75Y-107.25
X124.2Y-113.0
X124.25Y-55.75
X126.19Y-59.75
X128.0Y-55.75
X128.0Y-113.0
X128.75Y-107.25
X130.045Y-87.875
X130.045Y-90.415
X130.045Y-92.955
X130.045Y-95.495
X130.045Y-98.035
X130.045Y-100.575
X130.045Y-103.115
X130.06Y-80.25
X130.06Y-83.75
X133.0Y-55.75
X133.81Y-59.75
X137.44Y-96.25
X138.75Y-110.5
X139.197Y-102.75
X139.94Y-72.75
X139.94Y-75.75
X142.997Y-102.75
X143.75Y-110.5
X145.06Y-96.25
X147.56Y-72.75
X147.56Y-75.75
T3
X139.71Y-80.75
X139.725Y-88.0
X142.25Y-80.75
X142.265Y-88.0
T4
X107.46Y-59.75
X108.0Y-127.968
X108.0Y-131.768
X110.0Y-59.75
X117.22Y-142.46
X117.22Y-145.0
X119.76Y-142.46
X119.76Y-145.0
X122.3Y-142.46
X122.3Y-145.0
X124.84Y-142.46
X124.84Y-145.0
X127.38Y-142.46
X127.38Y-145.0
X129.92Y-142.46
X129.92Y-145.0
X132.46Y-142.46
X132.46Y-145.0
X135.0Y-142.46
X135.0Y-145.0
X144.0Y-127.732
X144.0Y-131.532
T5
X105.96Y-65.25
X106.73Y-82.25
X107.73Y-117.25
X107.98Y-51.75
X108.5Y-65.25
X109.27Y-82.25
X110.27Y-117.25
X110.52Y-51.75
X111.04Y-65.25
X119.46Y-47.25
X122.0Y-47.25
X122.71Y-122.5
X125.25Y-122.5
X127.79Y-122.5
X130.48Y-47.25
X133.02Y-47.25
X139.5Y-117.25
X140.96Y-65.0
X141.5Y-54.0
X142.04Y-117.25
X143.5Y-65.0
X144.04Y-54.0
X146.04Y-65.0
T6
X112.92Y-136.0
X123.08Y-136.0
X129.17Y-136.0
X139.33Y-136.0
T7
X127.6Y-64.25
X130.1Y-74.25
X132.6Y-64.25
T8
X105.08Y-43.5
X105.08Y-148.5
X144.92Y-43.5
X144.92Y-148.5
T0
M30
