M48
; DRILL file {KiCad (6.0.7)} date Thu Feb 23 21:55:08 2023
; FORMAT={-:-/ absolute / metric / decimal}
; #@! TF.CreationDate,2023-02-23T21:55:08-05:00
; #@! TF.GenerationSoftware,Kicad,Pcbnew,(6.0.7)
; #@! TF.FileFunction,Plated,1,2,PTH
FMAT,2
METRIC
; #@! TA.AperFunction,Plated,PTH,ComponentDrill
T1C0.800
; #@! TA.AperFunction,Plated,PTH,ComponentDrill
T2C1.090
; #@! TA.AperFunction,Plated,PTH,ComponentDrill
T3C3.200
%
G90
G05
T1
X106.0Y-94.0
X106.0Y-99.0
X109.728Y-94.02
X109.728Y-99.02
X109.728Y-112.38
X113.538Y-94.02
X113.538Y-99.02
X117.348Y-94.06
X117.348Y-99.06
X117.348Y-112.38
X121.412Y-94.06
X121.412Y-99.06
X121.984Y-56.492
X121.984Y-69.492
X125.984Y-56.492
X125.984Y-69.492
X126.492Y-94.06
X126.492Y-99.06
X129.984Y-56.492
X129.984Y-69.492
X130.556Y-94.06
X130.556Y-99.06
X134.62Y-94.06
X134.62Y-99.06
X138.684Y-94.06
X138.684Y-99.06
X142.748Y-94.06
X142.748Y-99.06
T2
X108.203Y-86.25
X108.204Y-75.184
X110.743Y-86.25
X110.744Y-75.184
X111.506Y-119.504
X113.283Y-86.25
X113.284Y-75.184
X114.046Y-119.504
X115.823Y-86.25
X123.57Y-86.25
X126.11Y-86.25
X128.65Y-86.25
X131.19Y-86.25
X136.398Y-119.25
X137.16Y-75.184
X138.938Y-119.25
X138.96Y-86.5
X139.7Y-75.184
X141.5Y-86.5
X142.24Y-75.184
X144.04Y-86.5
T3
X105.08Y-43.5
X105.08Y-148.5
X144.92Y-43.5
X144.92Y-148.5
T1
G00X115.984Y-63.717
M15
G01X115.984Y-62.267
M16
G05
G00X135.984Y-63.717
M15
G01X135.984Y-62.267
M16
G05
T0
M30
