%TF.GenerationSoftware,KiCad,Pcbnew,(6.0.7)*%
%TF.CreationDate,2023-02-23T21:55:11-05:00*%
%TF.ProjectId,PASS_TONE_CTRL,50415353-5f54-44f4-9e45-5f4354524c2e,rev?*%
%TF.SameCoordinates,Original*%
%TF.FileFunction,Soldermask,Top*%
%TF.FilePolarity,Negative*%
%FSLAX46Y46*%
G04 Gerber Fmt 4.6, Leading zero omitted, Abs format (unit mm)*
G04 Created by KiCad (PCBNEW (6.0.7)) date 2023-02-23 21:55:11*
%MOMM*%
%LPD*%
G01*
G04 APERTURE LIST*
G04 Aperture macros list*
%AMRoundRect*
0 Rectangle with rounded corners*
0 $1 Rounding radius*
0 $2 $3 $4 $5 $6 $7 $8 $9 X,Y pos of 4 corners*
0 Add a 4 corners polygon primitive as box body*
4,1,4,$2,$3,$4,$5,$6,$7,$8,$9,$2,$3,0*
0 Add four circle primitives for the rounded corners*
1,1,$1+$1,$2,$3*
1,1,$1+$1,$4,$5*
1,1,$1+$1,$6,$7*
1,1,$1+$1,$8,$9*
0 Add four rect primitives between the rounded corners*
20,1,$1+$1,$2,$3,$4,$5,0*
20,1,$1+$1,$4,$5,$6,$7,0*
20,1,$1+$1,$6,$7,$8,$9,0*
20,1,$1+$1,$8,$9,$2,$3,0*%
G04 Aperture macros list end*
%ADD10C,5.600000*%
%ADD11RoundRect,0.250000X-0.620000X-0.620000X0.620000X-0.620000X0.620000X0.620000X-0.620000X0.620000X0*%
%ADD12C,1.740000*%
%ADD13C,1.600000*%
%ADD14O,1.600000X1.600000*%
%ADD15C,2.000000*%
%ADD16RoundRect,0.500000X0.500000X1.500000X-0.500000X1.500000X-0.500000X-1.500000X0.500000X-1.500000X0*%
G04 APERTURE END LIST*
D10*
%TO.C,H2*%
X144920000Y-43500000D03*
%TD*%
D11*
%TO.C,R6*%
X137160000Y-75184000D03*
D12*
X139700000Y-75184000D03*
X142240000Y-75184000D03*
%TD*%
D11*
%TO.C,J5*%
X108204000Y-75184000D03*
D12*
X110744000Y-75184000D03*
X113284000Y-75184000D03*
%TD*%
D13*
%TO.C,C8*%
X134620000Y-99060000D03*
X134620000Y-94060000D03*
%TD*%
%TO.C,C7*%
X130556000Y-99060000D03*
X130556000Y-94060000D03*
%TD*%
%TO.C,C10*%
X142748000Y-99060000D03*
X142748000Y-94060000D03*
%TD*%
D11*
%TO.C,J1*%
X111506000Y-119504000D03*
D12*
X114046000Y-119504000D03*
%TD*%
D13*
%TO.C,R1*%
X109728000Y-112380000D03*
D14*
X117348000Y-112380000D03*
%TD*%
D13*
%TO.C,C1*%
X106000000Y-94000000D03*
X106000000Y-99000000D03*
%TD*%
D15*
%TO.C,AUDIO TRANSFORMER*%
X129984000Y-56492000D03*
X125984000Y-56492000D03*
X121984000Y-56492000D03*
X121984000Y-69492000D03*
X125984000Y-69492000D03*
X129984000Y-69492000D03*
D16*
X115984000Y-62992000D03*
X135984000Y-62992000D03*
%TD*%
D11*
%TO.C,J2*%
X108203000Y-86250000D03*
D12*
X110743000Y-86250000D03*
X113283000Y-86250000D03*
X115823000Y-86250000D03*
%TD*%
D11*
%TO.C,J4*%
X138960000Y-86500000D03*
D12*
X141500000Y-86500000D03*
X144040000Y-86500000D03*
%TD*%
D13*
%TO.C,C5*%
X121412000Y-99060000D03*
X121412000Y-94060000D03*
%TD*%
%TO.C,C4*%
X117348000Y-99060000D03*
X117348000Y-94060000D03*
%TD*%
%TO.C,C6*%
X126492000Y-99060000D03*
X126492000Y-94060000D03*
%TD*%
%TO.C,C3*%
X113538000Y-99020000D03*
X113538000Y-94020000D03*
%TD*%
D11*
%TO.C,J6*%
X136398000Y-119250000D03*
D12*
X138938000Y-119250000D03*
%TD*%
D13*
%TO.C,C9*%
X138684000Y-99060000D03*
X138684000Y-94060000D03*
%TD*%
D10*
%TO.C,H4*%
X144920000Y-148500000D03*
%TD*%
%TO.C,H1*%
X105080000Y-43500000D03*
%TD*%
D13*
%TO.C,C2*%
X109728000Y-94020000D03*
X109728000Y-99020000D03*
%TD*%
D11*
%TO.C,J3*%
X123570000Y-86250000D03*
D12*
X126110000Y-86250000D03*
X128650000Y-86250000D03*
X131190000Y-86250000D03*
%TD*%
D10*
%TO.C,H3*%
X105080000Y-148500000D03*
%TD*%
M02*
