%TF.GenerationSoftware,KiCad,Pcbnew,(6.0.7)*%
%TF.CreationDate,2023-02-23T21:55:11-05:00*%
%TF.ProjectId,PASS_TONE_CTRL,50415353-5f54-44f4-9e45-5f4354524c2e,rev?*%
%TF.SameCoordinates,Original*%
%TF.FileFunction,Legend,Top*%
%TF.FilePolarity,Positive*%
%FSLAX46Y46*%
G04 Gerber Fmt 4.6, Leading zero omitted, Abs format (unit mm)*
G04 Created by KiCad (PCBNEW (6.0.7)) date 2023-02-23 21:55:11*
%MOMM*%
%LPD*%
G01*
G04 APERTURE LIST*
%ADD10C,0.300000*%
%ADD11C,0.150000*%
%ADD12C,0.120000*%
G04 APERTURE END LIST*
D10*
X122071428Y-46747142D02*
X122738095Y-46747142D01*
X123023809Y-47794761D02*
X122071428Y-47794761D01*
X122071428Y-45794761D01*
X123023809Y-45794761D01*
X123880952Y-47794761D02*
X123880952Y-45794761D01*
X124642857Y-45794761D01*
X124833333Y-45890000D01*
X124928571Y-45985238D01*
X125023809Y-46175714D01*
X125023809Y-46461428D01*
X124928571Y-46651904D01*
X124833333Y-46747142D01*
X124642857Y-46842380D01*
X123880952Y-46842380D01*
X126547619Y-46747142D02*
X125880952Y-46747142D01*
X125880952Y-47794761D02*
X125880952Y-45794761D01*
X126833333Y-45794761D01*
X127595238Y-47794761D02*
X127595238Y-45794761D01*
X128261904Y-47223333D01*
X128928571Y-45794761D01*
X128928571Y-47794761D01*
X107976190Y-51014761D02*
X107976190Y-49014761D01*
X108738095Y-49014761D01*
X108928571Y-49110000D01*
X109023809Y-49205238D01*
X109119047Y-49395714D01*
X109119047Y-49681428D01*
X109023809Y-49871904D01*
X108928571Y-49967142D01*
X108738095Y-50062380D01*
X107976190Y-50062380D01*
X109880952Y-50443333D02*
X110833333Y-50443333D01*
X109690476Y-51014761D02*
X110357142Y-49014761D01*
X111023809Y-51014761D01*
X111595238Y-50919523D02*
X111880952Y-51014761D01*
X112357142Y-51014761D01*
X112547619Y-50919523D01*
X112642857Y-50824285D01*
X112738095Y-50633809D01*
X112738095Y-50443333D01*
X112642857Y-50252857D01*
X112547619Y-50157619D01*
X112357142Y-50062380D01*
X111976190Y-49967142D01*
X111785714Y-49871904D01*
X111690476Y-49776666D01*
X111595238Y-49586190D01*
X111595238Y-49395714D01*
X111690476Y-49205238D01*
X111785714Y-49110000D01*
X111976190Y-49014761D01*
X112452380Y-49014761D01*
X112738095Y-49110000D01*
X113500000Y-50919523D02*
X113785714Y-51014761D01*
X114261904Y-51014761D01*
X114452380Y-50919523D01*
X114547619Y-50824285D01*
X114642857Y-50633809D01*
X114642857Y-50443333D01*
X114547619Y-50252857D01*
X114452380Y-50157619D01*
X114261904Y-50062380D01*
X113880952Y-49967142D01*
X113690476Y-49871904D01*
X113595238Y-49776666D01*
X113500000Y-49586190D01*
X113500000Y-49395714D01*
X113595238Y-49205238D01*
X113690476Y-49110000D01*
X113880952Y-49014761D01*
X114357142Y-49014761D01*
X114642857Y-49110000D01*
X115500000Y-51014761D02*
X115500000Y-49014761D01*
X116166666Y-49014761D02*
X116833333Y-51014761D01*
X117500000Y-49014761D01*
X118166666Y-49967142D02*
X118833333Y-49967142D01*
X119119047Y-51014761D02*
X118166666Y-51014761D01*
X118166666Y-49014761D01*
X119119047Y-49014761D01*
X121214285Y-49014761D02*
X122357142Y-49014761D01*
X121785714Y-51014761D02*
X121785714Y-49014761D01*
X123404761Y-49014761D02*
X123785714Y-49014761D01*
X123976190Y-49110000D01*
X124166666Y-49300476D01*
X124261904Y-49681428D01*
X124261904Y-50348095D01*
X124166666Y-50729047D01*
X123976190Y-50919523D01*
X123785714Y-51014761D01*
X123404761Y-51014761D01*
X123214285Y-50919523D01*
X123023809Y-50729047D01*
X122928571Y-50348095D01*
X122928571Y-49681428D01*
X123023809Y-49300476D01*
X123214285Y-49110000D01*
X123404761Y-49014761D01*
X125119047Y-51014761D02*
X125119047Y-49014761D01*
X126261904Y-51014761D01*
X126261904Y-49014761D01*
X127214285Y-49967142D02*
X127880952Y-49967142D01*
X128166666Y-51014761D02*
X127214285Y-51014761D01*
X127214285Y-49014761D01*
X128166666Y-49014761D01*
X131690476Y-50824285D02*
X131595238Y-50919523D01*
X131309523Y-51014761D01*
X131119047Y-51014761D01*
X130833333Y-50919523D01*
X130642857Y-50729047D01*
X130547619Y-50538571D01*
X130452380Y-50157619D01*
X130452380Y-49871904D01*
X130547619Y-49490952D01*
X130642857Y-49300476D01*
X130833333Y-49110000D01*
X131119047Y-49014761D01*
X131309523Y-49014761D01*
X131595238Y-49110000D01*
X131690476Y-49205238D01*
X132928571Y-49014761D02*
X133309523Y-49014761D01*
X133500000Y-49110000D01*
X133690476Y-49300476D01*
X133785714Y-49681428D01*
X133785714Y-50348095D01*
X133690476Y-50729047D01*
X133500000Y-50919523D01*
X133309523Y-51014761D01*
X132928571Y-51014761D01*
X132738095Y-50919523D01*
X132547619Y-50729047D01*
X132452380Y-50348095D01*
X132452380Y-49681428D01*
X132547619Y-49300476D01*
X132738095Y-49110000D01*
X132928571Y-49014761D01*
X134642857Y-51014761D02*
X134642857Y-49014761D01*
X135785714Y-51014761D01*
X135785714Y-49014761D01*
X136452380Y-49014761D02*
X137595238Y-49014761D01*
X137023809Y-51014761D02*
X137023809Y-49014761D01*
X139404761Y-51014761D02*
X138738095Y-50062380D01*
X138261904Y-51014761D02*
X138261904Y-49014761D01*
X139023809Y-49014761D01*
X139214285Y-49110000D01*
X139309523Y-49205238D01*
X139404761Y-49395714D01*
X139404761Y-49681428D01*
X139309523Y-49871904D01*
X139214285Y-49967142D01*
X139023809Y-50062380D01*
X138261904Y-50062380D01*
X140642857Y-49014761D02*
X141023809Y-49014761D01*
X141214285Y-49110000D01*
X141404761Y-49300476D01*
X141500000Y-49681428D01*
X141500000Y-50348095D01*
X141404761Y-50729047D01*
X141214285Y-50919523D01*
X141023809Y-51014761D01*
X140642857Y-51014761D01*
X140452380Y-50919523D01*
X140261904Y-50729047D01*
X140166666Y-50348095D01*
X140166666Y-49681428D01*
X140261904Y-49300476D01*
X140452380Y-49110000D01*
X140642857Y-49014761D01*
X143309523Y-51014761D02*
X142357142Y-51014761D01*
X142357142Y-49014761D01*
X116154761Y-132247142D02*
X116821428Y-132247142D01*
X117107142Y-133294761D02*
X116154761Y-133294761D01*
X116154761Y-131294761D01*
X117107142Y-131294761D01*
X117773809Y-131961428D02*
X118821428Y-131961428D01*
X117773809Y-133294761D01*
X118821428Y-133294761D01*
X120345238Y-133199523D02*
X120154761Y-133294761D01*
X119773809Y-133294761D01*
X119583333Y-133199523D01*
X119488095Y-133009047D01*
X119488095Y-132247142D01*
X119583333Y-132056666D01*
X119773809Y-131961428D01*
X120154761Y-131961428D01*
X120345238Y-132056666D01*
X120440476Y-132247142D01*
X120440476Y-132437619D01*
X119488095Y-132628095D01*
X121297619Y-133294761D02*
X121297619Y-131961428D01*
X121297619Y-132342380D02*
X121392857Y-132151904D01*
X121488095Y-132056666D01*
X121678571Y-131961428D01*
X121869047Y-131961428D01*
X125011904Y-133294761D02*
X124059523Y-133294761D01*
X124059523Y-131294761D01*
X125964285Y-133294761D02*
X125773809Y-133199523D01*
X125678571Y-133104285D01*
X125583333Y-132913809D01*
X125583333Y-132342380D01*
X125678571Y-132151904D01*
X125773809Y-132056666D01*
X125964285Y-131961428D01*
X126250000Y-131961428D01*
X126440476Y-132056666D01*
X126535714Y-132151904D01*
X126630952Y-132342380D01*
X126630952Y-132913809D01*
X126535714Y-133104285D01*
X126440476Y-133199523D01*
X126250000Y-133294761D01*
X125964285Y-133294761D01*
X127488095Y-131961428D02*
X127488095Y-133294761D01*
X127488095Y-132151904D02*
X127583333Y-132056666D01*
X127773809Y-131961428D01*
X128059523Y-131961428D01*
X128250000Y-132056666D01*
X128345238Y-132247142D01*
X128345238Y-133294761D01*
X130154761Y-131961428D02*
X130154761Y-133580476D01*
X130059523Y-133770952D01*
X129964285Y-133866190D01*
X129773809Y-133961428D01*
X129488095Y-133961428D01*
X129297619Y-133866190D01*
X130154761Y-133199523D02*
X129964285Y-133294761D01*
X129583333Y-133294761D01*
X129392857Y-133199523D01*
X129297619Y-133104285D01*
X129202380Y-132913809D01*
X129202380Y-132342380D01*
X129297619Y-132151904D01*
X129392857Y-132056666D01*
X129583333Y-131961428D01*
X129964285Y-131961428D01*
X130154761Y-132056666D01*
X131107142Y-133294761D02*
X131107142Y-131961428D01*
X131107142Y-131294761D02*
X131011904Y-131390000D01*
X131107142Y-131485238D01*
X131202380Y-131390000D01*
X131107142Y-131294761D01*
X131107142Y-131485238D01*
X132059523Y-131961428D02*
X132059523Y-133294761D01*
X132059523Y-132151904D02*
X132154761Y-132056666D01*
X132345238Y-131961428D01*
X132630952Y-131961428D01*
X132821428Y-132056666D01*
X132916666Y-132247142D01*
X132916666Y-133294761D01*
X134726190Y-131961428D02*
X134726190Y-133294761D01*
X133869047Y-131961428D02*
X133869047Y-133009047D01*
X133964285Y-133199523D01*
X134154761Y-133294761D01*
X134440476Y-133294761D01*
X134630952Y-133199523D01*
X134726190Y-133104285D01*
X135583333Y-133199523D02*
X135773809Y-133294761D01*
X136154761Y-133294761D01*
X136345238Y-133199523D01*
X136440476Y-133009047D01*
X136440476Y-132913809D01*
X136345238Y-132723333D01*
X136154761Y-132628095D01*
X135869047Y-132628095D01*
X135678571Y-132532857D01*
X135583333Y-132342380D01*
X135583333Y-132247142D01*
X135678571Y-132056666D01*
X135869047Y-131961428D01*
X136154761Y-131961428D01*
X136345238Y-132056666D01*
X120202380Y-135467142D02*
X119535714Y-135467142D01*
X119535714Y-136514761D02*
X119535714Y-134514761D01*
X120488095Y-134514761D01*
X122011904Y-136419523D02*
X121821428Y-136514761D01*
X121440476Y-136514761D01*
X121250000Y-136419523D01*
X121154761Y-136229047D01*
X121154761Y-135467142D01*
X121250000Y-135276666D01*
X121440476Y-135181428D01*
X121821428Y-135181428D01*
X122011904Y-135276666D01*
X122107142Y-135467142D01*
X122107142Y-135657619D01*
X121154761Y-135848095D01*
X122964285Y-136514761D02*
X122964285Y-134514761D01*
X122964285Y-135276666D02*
X123154761Y-135181428D01*
X123535714Y-135181428D01*
X123726190Y-135276666D01*
X123821428Y-135371904D01*
X123916666Y-135562380D01*
X123916666Y-136133809D01*
X123821428Y-136324285D01*
X123726190Y-136419523D01*
X123535714Y-136514761D01*
X123154761Y-136514761D01*
X122964285Y-136419523D01*
X126202380Y-134705238D02*
X126297619Y-134610000D01*
X126488095Y-134514761D01*
X126964285Y-134514761D01*
X127154761Y-134610000D01*
X127250000Y-134705238D01*
X127345238Y-134895714D01*
X127345238Y-135086190D01*
X127250000Y-135371904D01*
X126107142Y-136514761D01*
X127345238Y-136514761D01*
X128583333Y-134514761D02*
X128773809Y-134514761D01*
X128964285Y-134610000D01*
X129059523Y-134705238D01*
X129154761Y-134895714D01*
X129250000Y-135276666D01*
X129250000Y-135752857D01*
X129154761Y-136133809D01*
X129059523Y-136324285D01*
X128964285Y-136419523D01*
X128773809Y-136514761D01*
X128583333Y-136514761D01*
X128392857Y-136419523D01*
X128297619Y-136324285D01*
X128202380Y-136133809D01*
X128107142Y-135752857D01*
X128107142Y-135276666D01*
X128202380Y-134895714D01*
X128297619Y-134705238D01*
X128392857Y-134610000D01*
X128583333Y-134514761D01*
X130011904Y-134705238D02*
X130107142Y-134610000D01*
X130297619Y-134514761D01*
X130773809Y-134514761D01*
X130964285Y-134610000D01*
X131059523Y-134705238D01*
X131154761Y-134895714D01*
X131154761Y-135086190D01*
X131059523Y-135371904D01*
X129916666Y-136514761D01*
X131154761Y-136514761D01*
X131821428Y-134514761D02*
X133059523Y-134514761D01*
X132392857Y-135276666D01*
X132678571Y-135276666D01*
X132869047Y-135371904D01*
X132964285Y-135467142D01*
X133059523Y-135657619D01*
X133059523Y-136133809D01*
X132964285Y-136324285D01*
X132869047Y-136419523D01*
X132678571Y-136514761D01*
X132107142Y-136514761D01*
X131916666Y-136419523D01*
X131821428Y-136324285D01*
D11*
%TO.C,R6*%
X134833333Y-71886380D02*
X134500000Y-71410190D01*
X134261904Y-71886380D02*
X134261904Y-70886380D01*
X134642857Y-70886380D01*
X134738095Y-70934000D01*
X134785714Y-70981619D01*
X134833333Y-71076857D01*
X134833333Y-71219714D01*
X134785714Y-71314952D01*
X134738095Y-71362571D01*
X134642857Y-71410190D01*
X134261904Y-71410190D01*
X135690476Y-70886380D02*
X135500000Y-70886380D01*
X135404761Y-70934000D01*
X135357142Y-70981619D01*
X135261904Y-71124476D01*
X135214285Y-71314952D01*
X135214285Y-71695904D01*
X135261904Y-71791142D01*
X135309523Y-71838761D01*
X135404761Y-71886380D01*
X135595238Y-71886380D01*
X135690476Y-71838761D01*
X135738095Y-71791142D01*
X135785714Y-71695904D01*
X135785714Y-71457809D01*
X135738095Y-71362571D01*
X135690476Y-71314952D01*
X135595238Y-71267333D01*
X135404761Y-71267333D01*
X135309523Y-71314952D01*
X135261904Y-71362571D01*
X135214285Y-71457809D01*
X137142857Y-71952380D02*
X137142857Y-70952380D01*
X137380952Y-70952380D01*
X137523809Y-71000000D01*
X137619047Y-71095238D01*
X137666666Y-71190476D01*
X137714285Y-71380952D01*
X137714285Y-71523809D01*
X137666666Y-71714285D01*
X137619047Y-71809523D01*
X137523809Y-71904761D01*
X137380952Y-71952380D01*
X137142857Y-71952380D01*
X138142857Y-71428571D02*
X138476190Y-71428571D01*
X138619047Y-71952380D02*
X138142857Y-71952380D01*
X138142857Y-70952380D01*
X138619047Y-70952380D01*
X139047619Y-71952380D02*
X139047619Y-70952380D01*
X139428571Y-70952380D01*
X139523809Y-71000000D01*
X139571428Y-71047619D01*
X139619047Y-71142857D01*
X139619047Y-71285714D01*
X139571428Y-71380952D01*
X139523809Y-71428571D01*
X139428571Y-71476190D01*
X139047619Y-71476190D01*
X139904761Y-70952380D02*
X140476190Y-70952380D01*
X140190476Y-71952380D02*
X140190476Y-70952380D01*
X140809523Y-71952380D02*
X140809523Y-70952380D01*
X140809523Y-71428571D02*
X141380952Y-71428571D01*
X141380952Y-71952380D02*
X141380952Y-70952380D01*
X143095238Y-70952380D02*
X142619047Y-70952380D01*
X142571428Y-71428571D01*
X142619047Y-71380952D01*
X142714285Y-71333333D01*
X142952380Y-71333333D01*
X143047619Y-71380952D01*
X143095238Y-71428571D01*
X143142857Y-71523809D01*
X143142857Y-71761904D01*
X143095238Y-71857142D01*
X143047619Y-71904761D01*
X142952380Y-71952380D01*
X142714285Y-71952380D01*
X142619047Y-71904761D01*
X142571428Y-71857142D01*
X143761904Y-70952380D02*
X143857142Y-70952380D01*
X143952380Y-71000000D01*
X144000000Y-71047619D01*
X144047619Y-71142857D01*
X144095238Y-71333333D01*
X144095238Y-71571428D01*
X144047619Y-71761904D01*
X144000000Y-71857142D01*
X143952380Y-71904761D01*
X143857142Y-71952380D01*
X143761904Y-71952380D01*
X143666666Y-71904761D01*
X143619047Y-71857142D01*
X143571428Y-71761904D01*
X143523809Y-71571428D01*
X143523809Y-71333333D01*
X143571428Y-71142857D01*
X143619047Y-71047619D01*
X143666666Y-71000000D01*
X143761904Y-70952380D01*
X144523809Y-71952380D02*
X144523809Y-70952380D01*
X144619047Y-71571428D02*
X144904761Y-71952380D01*
X144904761Y-71285714D02*
X144523809Y-71666666D01*
%TO.C,J5*%
X105666666Y-70886380D02*
X105666666Y-71600666D01*
X105619047Y-71743523D01*
X105523809Y-71838761D01*
X105380952Y-71886380D01*
X105285714Y-71886380D01*
X106619047Y-70886380D02*
X106142857Y-70886380D01*
X106095238Y-71362571D01*
X106142857Y-71314952D01*
X106238095Y-71267333D01*
X106476190Y-71267333D01*
X106571428Y-71314952D01*
X106619047Y-71362571D01*
X106666666Y-71457809D01*
X106666666Y-71695904D01*
X106619047Y-71791142D01*
X106571428Y-71838761D01*
X106476190Y-71886380D01*
X106238095Y-71886380D01*
X106142857Y-71838761D01*
X106095238Y-71791142D01*
X110714285Y-71857142D02*
X110666666Y-71904761D01*
X110523809Y-71952380D01*
X110428571Y-71952380D01*
X110285714Y-71904761D01*
X110190476Y-71809523D01*
X110142857Y-71714285D01*
X110095238Y-71523809D01*
X110095238Y-71380952D01*
X110142857Y-71190476D01*
X110190476Y-71095238D01*
X110285714Y-71000000D01*
X110428571Y-70952380D01*
X110523809Y-70952380D01*
X110666666Y-71000000D01*
X110714285Y-71047619D01*
X111333333Y-70952380D02*
X111523809Y-70952380D01*
X111619047Y-71000000D01*
X111714285Y-71095238D01*
X111761904Y-71285714D01*
X111761904Y-71619047D01*
X111714285Y-71809523D01*
X111619047Y-71904761D01*
X111523809Y-71952380D01*
X111333333Y-71952380D01*
X111238095Y-71904761D01*
X111142857Y-71809523D01*
X111095238Y-71619047D01*
X111095238Y-71285714D01*
X111142857Y-71095238D01*
X111238095Y-71000000D01*
X111333333Y-70952380D01*
X112190476Y-71952380D02*
X112190476Y-70952380D01*
X113142857Y-71952380D02*
X112666666Y-71952380D01*
X112666666Y-70952380D01*
X113238095Y-72047619D02*
X114000000Y-72047619D01*
X114190476Y-71904761D02*
X114333333Y-71952380D01*
X114571428Y-71952380D01*
X114666666Y-71904761D01*
X114714285Y-71857142D01*
X114761904Y-71761904D01*
X114761904Y-71666666D01*
X114714285Y-71571428D01*
X114666666Y-71523809D01*
X114571428Y-71476190D01*
X114380952Y-71428571D01*
X114285714Y-71380952D01*
X114238095Y-71333333D01*
X114190476Y-71238095D01*
X114190476Y-71142857D01*
X114238095Y-71047619D01*
X114285714Y-71000000D01*
X114380952Y-70952380D01*
X114619047Y-70952380D01*
X114761904Y-71000000D01*
X115095238Y-70952380D02*
X115333333Y-71952380D01*
X115523809Y-71238095D01*
X115714285Y-71952380D01*
X115952380Y-70952380D01*
%TO.C,C8*%
X134857142Y-101666666D02*
X134904761Y-101714285D01*
X134952380Y-101857142D01*
X134952380Y-101952380D01*
X134904761Y-102095238D01*
X134809523Y-102190476D01*
X134714285Y-102238095D01*
X134523809Y-102285714D01*
X134380952Y-102285714D01*
X134190476Y-102238095D01*
X134095238Y-102190476D01*
X134000000Y-102095238D01*
X133952380Y-101952380D01*
X133952380Y-101857142D01*
X134000000Y-101714285D01*
X134047619Y-101666666D01*
X134380952Y-101095238D02*
X134333333Y-101190476D01*
X134285714Y-101238095D01*
X134190476Y-101285714D01*
X134142857Y-101285714D01*
X134047619Y-101238095D01*
X134000000Y-101190476D01*
X133952380Y-101095238D01*
X133952380Y-100904761D01*
X134000000Y-100809523D01*
X134047619Y-100761904D01*
X134142857Y-100714285D01*
X134190476Y-100714285D01*
X134285714Y-100761904D01*
X134333333Y-100809523D01*
X134380952Y-100904761D01*
X134380952Y-101095238D01*
X134428571Y-101190476D01*
X134476190Y-101238095D01*
X134571428Y-101285714D01*
X134761904Y-101285714D01*
X134857142Y-101238095D01*
X134904761Y-101190476D01*
X134952380Y-101095238D01*
X134952380Y-100904761D01*
X134904761Y-100809523D01*
X134857142Y-100761904D01*
X134761904Y-100714285D01*
X134571428Y-100714285D01*
X134476190Y-100761904D01*
X134428571Y-100809523D01*
X134380952Y-100904761D01*
X134285714Y-107142857D02*
X134952380Y-107142857D01*
X133904761Y-107380952D02*
X134619047Y-107619047D01*
X134619047Y-107000000D01*
X133952380Y-106714285D02*
X133952380Y-106047619D01*
X134952380Y-106476190D01*
X133952380Y-105476190D02*
X133952380Y-105380952D01*
X134000000Y-105285714D01*
X134047619Y-105238095D01*
X134142857Y-105190476D01*
X134333333Y-105142857D01*
X134571428Y-105142857D01*
X134761904Y-105190476D01*
X134857142Y-105238095D01*
X134904761Y-105285714D01*
X134952380Y-105380952D01*
X134952380Y-105476190D01*
X134904761Y-105571428D01*
X134857142Y-105619047D01*
X134761904Y-105666666D01*
X134571428Y-105714285D01*
X134333333Y-105714285D01*
X134142857Y-105666666D01*
X134047619Y-105619047D01*
X134000000Y-105571428D01*
X133952380Y-105476190D01*
X134285714Y-104714285D02*
X134952380Y-104714285D01*
X134380952Y-104714285D02*
X134333333Y-104666666D01*
X134285714Y-104571428D01*
X134285714Y-104428571D01*
X134333333Y-104333333D01*
X134428571Y-104285714D01*
X134952380Y-104285714D01*
X134428571Y-103476190D02*
X134428571Y-103809523D01*
X134952380Y-103809523D02*
X133952380Y-103809523D01*
X133952380Y-103333333D01*
%TO.C,C7*%
X130857142Y-101666666D02*
X130904761Y-101714285D01*
X130952380Y-101857142D01*
X130952380Y-101952380D01*
X130904761Y-102095238D01*
X130809523Y-102190476D01*
X130714285Y-102238095D01*
X130523809Y-102285714D01*
X130380952Y-102285714D01*
X130190476Y-102238095D01*
X130095238Y-102190476D01*
X130000000Y-102095238D01*
X129952380Y-101952380D01*
X129952380Y-101857142D01*
X130000000Y-101714285D01*
X130047619Y-101666666D01*
X129952380Y-101333333D02*
X129952380Y-100666666D01*
X130952380Y-101095238D01*
X130047619Y-107619047D02*
X130000000Y-107571428D01*
X129952380Y-107476190D01*
X129952380Y-107238095D01*
X130000000Y-107142857D01*
X130047619Y-107095238D01*
X130142857Y-107047619D01*
X130238095Y-107047619D01*
X130380952Y-107095238D01*
X130952380Y-107666666D01*
X130952380Y-107047619D01*
X130047619Y-106666666D02*
X130000000Y-106619047D01*
X129952380Y-106523809D01*
X129952380Y-106285714D01*
X130000000Y-106190476D01*
X130047619Y-106142857D01*
X130142857Y-106095238D01*
X130238095Y-106095238D01*
X130380952Y-106142857D01*
X130952380Y-106714285D01*
X130952380Y-106095238D01*
X129952380Y-105476190D02*
X129952380Y-105380952D01*
X130000000Y-105285714D01*
X130047619Y-105238095D01*
X130142857Y-105190476D01*
X130333333Y-105142857D01*
X130571428Y-105142857D01*
X130761904Y-105190476D01*
X130857142Y-105238095D01*
X130904761Y-105285714D01*
X130952380Y-105380952D01*
X130952380Y-105476190D01*
X130904761Y-105571428D01*
X130857142Y-105619047D01*
X130761904Y-105666666D01*
X130571428Y-105714285D01*
X130333333Y-105714285D01*
X130142857Y-105666666D01*
X130047619Y-105619047D01*
X130000000Y-105571428D01*
X129952380Y-105476190D01*
X130285714Y-104714285D02*
X130952380Y-104714285D01*
X130380952Y-104714285D02*
X130333333Y-104666666D01*
X130285714Y-104571428D01*
X130285714Y-104428571D01*
X130333333Y-104333333D01*
X130428571Y-104285714D01*
X130952380Y-104285714D01*
X130428571Y-103476190D02*
X130428571Y-103809523D01*
X130952380Y-103809523D02*
X129952380Y-103809523D01*
X129952380Y-103333333D01*
%TO.C,C10*%
X142857142Y-102142857D02*
X142904761Y-102190476D01*
X142952380Y-102333333D01*
X142952380Y-102428571D01*
X142904761Y-102571428D01*
X142809523Y-102666666D01*
X142714285Y-102714285D01*
X142523809Y-102761904D01*
X142380952Y-102761904D01*
X142190476Y-102714285D01*
X142095238Y-102666666D01*
X142000000Y-102571428D01*
X141952380Y-102428571D01*
X141952380Y-102333333D01*
X142000000Y-102190476D01*
X142047619Y-102142857D01*
X142952380Y-101190476D02*
X142952380Y-101761904D01*
X142952380Y-101476190D02*
X141952380Y-101476190D01*
X142095238Y-101571428D01*
X142190476Y-101666666D01*
X142238095Y-101761904D01*
X141952380Y-100571428D02*
X141952380Y-100476190D01*
X142000000Y-100380952D01*
X142047619Y-100333333D01*
X142142857Y-100285714D01*
X142333333Y-100238095D01*
X142571428Y-100238095D01*
X142761904Y-100285714D01*
X142857142Y-100333333D01*
X142904761Y-100380952D01*
X142952380Y-100476190D01*
X142952380Y-100571428D01*
X142904761Y-100666666D01*
X142857142Y-100714285D01*
X142761904Y-100761904D01*
X142571428Y-100809523D01*
X142333333Y-100809523D01*
X142142857Y-100761904D01*
X142047619Y-100714285D01*
X142000000Y-100666666D01*
X141952380Y-100571428D01*
X142952380Y-107095238D02*
X142952380Y-107666666D01*
X142952380Y-107380952D02*
X141952380Y-107380952D01*
X142095238Y-107476190D01*
X142190476Y-107571428D01*
X142238095Y-107666666D01*
X142285714Y-106238095D02*
X142952380Y-106238095D01*
X142285714Y-106666666D02*
X142809523Y-106666666D01*
X142904761Y-106619047D01*
X142952380Y-106523809D01*
X142952380Y-106380952D01*
X142904761Y-106285714D01*
X142857142Y-106238095D01*
X142428571Y-105428571D02*
X142428571Y-105761904D01*
X142952380Y-105761904D02*
X141952380Y-105761904D01*
X141952380Y-105285714D01*
%TO.C,J1*%
X112442666Y-115206380D02*
X112442666Y-115920666D01*
X112395047Y-116063523D01*
X112299809Y-116158761D01*
X112156952Y-116206380D01*
X112061714Y-116206380D01*
X113442666Y-116206380D02*
X112871238Y-116206380D01*
X113156952Y-116206380D02*
X113156952Y-115206380D01*
X113061714Y-115349238D01*
X112966476Y-115444476D01*
X112871238Y-115492095D01*
X111133142Y-125206380D02*
X111133142Y-124206380D01*
X111609333Y-124539714D02*
X111609333Y-125206380D01*
X111609333Y-124634952D02*
X111656952Y-124587333D01*
X111752190Y-124539714D01*
X111895047Y-124539714D01*
X111990285Y-124587333D01*
X112037904Y-124682571D01*
X112037904Y-125206380D01*
X112514095Y-124539714D02*
X112514095Y-125539714D01*
X112514095Y-124587333D02*
X112609333Y-124539714D01*
X112799809Y-124539714D01*
X112895047Y-124587333D01*
X112942666Y-124634952D01*
X112990285Y-124730190D01*
X112990285Y-125015904D01*
X112942666Y-125111142D01*
X112895047Y-125158761D01*
X112799809Y-125206380D01*
X112609333Y-125206380D01*
X112514095Y-125158761D01*
X113847428Y-124539714D02*
X113847428Y-125206380D01*
X113418857Y-124539714D02*
X113418857Y-125063523D01*
X113466476Y-125158761D01*
X113561714Y-125206380D01*
X113704571Y-125206380D01*
X113799809Y-125158761D01*
X113847428Y-125111142D01*
X114180761Y-124539714D02*
X114561714Y-124539714D01*
X114323619Y-124206380D02*
X114323619Y-125063523D01*
X114371238Y-125158761D01*
X114466476Y-125206380D01*
X114561714Y-125206380D01*
%TO.C,R1*%
X109833333Y-110676380D02*
X109500000Y-110200190D01*
X109261904Y-110676380D02*
X109261904Y-109676380D01*
X109642857Y-109676380D01*
X109738095Y-109724000D01*
X109785714Y-109771619D01*
X109833333Y-109866857D01*
X109833333Y-110009714D01*
X109785714Y-110104952D01*
X109738095Y-110152571D01*
X109642857Y-110200190D01*
X109261904Y-110200190D01*
X110785714Y-110676380D02*
X110214285Y-110676380D01*
X110500000Y-110676380D02*
X110500000Y-109676380D01*
X110404761Y-109819238D01*
X110309523Y-109914476D01*
X110214285Y-109962095D01*
X116309523Y-110009714D02*
X116309523Y-110676380D01*
X116071428Y-109628761D02*
X115833333Y-110343047D01*
X116452380Y-110343047D01*
X116738095Y-109676380D02*
X117404761Y-109676380D01*
X116976190Y-110676380D01*
X117785714Y-110676380D02*
X117785714Y-109676380D01*
X117880952Y-110295428D02*
X118166666Y-110676380D01*
X118166666Y-110009714D02*
X117785714Y-110390666D01*
%TO.C,C1*%
X106357142Y-101666666D02*
X106404761Y-101714285D01*
X106452380Y-101857142D01*
X106452380Y-101952380D01*
X106404761Y-102095238D01*
X106309523Y-102190476D01*
X106214285Y-102238095D01*
X106023809Y-102285714D01*
X105880952Y-102285714D01*
X105690476Y-102238095D01*
X105595238Y-102190476D01*
X105500000Y-102095238D01*
X105452380Y-101952380D01*
X105452380Y-101857142D01*
X105500000Y-101714285D01*
X105547619Y-101666666D01*
X106452380Y-100714285D02*
X106452380Y-101285714D01*
X106452380Y-101000000D02*
X105452380Y-101000000D01*
X105595238Y-101095238D01*
X105690476Y-101190476D01*
X105738095Y-101285714D01*
X105785714Y-106904761D02*
X106452380Y-106904761D01*
X105404761Y-107142857D02*
X106119047Y-107380952D01*
X106119047Y-106761904D01*
X106357142Y-106380952D02*
X106404761Y-106333333D01*
X106452380Y-106380952D01*
X106404761Y-106428571D01*
X106357142Y-106380952D01*
X106452380Y-106380952D01*
X105452380Y-106000000D02*
X105452380Y-105333333D01*
X106452380Y-105761904D01*
X105785714Y-104952380D02*
X106452380Y-104952380D01*
X105880952Y-104952380D02*
X105833333Y-104904761D01*
X105785714Y-104809523D01*
X105785714Y-104666666D01*
X105833333Y-104571428D01*
X105928571Y-104523809D01*
X106452380Y-104523809D01*
X105928571Y-103714285D02*
X105928571Y-104047619D01*
X106452380Y-104047619D02*
X105452380Y-104047619D01*
X105452380Y-103571428D01*
%TO.C,AUDIO TRANSFORMER*%
X118293523Y-63166666D02*
X118769714Y-63166666D01*
X118198285Y-63452380D02*
X118531619Y-62452380D01*
X118864952Y-63452380D01*
X119198285Y-62452380D02*
X119198285Y-63261904D01*
X119245904Y-63357142D01*
X119293523Y-63404761D01*
X119388761Y-63452380D01*
X119579238Y-63452380D01*
X119674476Y-63404761D01*
X119722095Y-63357142D01*
X119769714Y-63261904D01*
X119769714Y-62452380D01*
X120245904Y-63452380D02*
X120245904Y-62452380D01*
X120484000Y-62452380D01*
X120626857Y-62500000D01*
X120722095Y-62595238D01*
X120769714Y-62690476D01*
X120817333Y-62880952D01*
X120817333Y-63023809D01*
X120769714Y-63214285D01*
X120722095Y-63309523D01*
X120626857Y-63404761D01*
X120484000Y-63452380D01*
X120245904Y-63452380D01*
X121245904Y-63452380D02*
X121245904Y-62452380D01*
X121912571Y-62452380D02*
X122103047Y-62452380D01*
X122198285Y-62500000D01*
X122293523Y-62595238D01*
X122341142Y-62785714D01*
X122341142Y-63119047D01*
X122293523Y-63309523D01*
X122198285Y-63404761D01*
X122103047Y-63452380D01*
X121912571Y-63452380D01*
X121817333Y-63404761D01*
X121722095Y-63309523D01*
X121674476Y-63119047D01*
X121674476Y-62785714D01*
X121722095Y-62595238D01*
X121817333Y-62500000D01*
X121912571Y-62452380D01*
X123388761Y-62452380D02*
X123960190Y-62452380D01*
X123674476Y-63452380D02*
X123674476Y-62452380D01*
X124864952Y-63452380D02*
X124531619Y-62976190D01*
X124293523Y-63452380D02*
X124293523Y-62452380D01*
X124674476Y-62452380D01*
X124769714Y-62500000D01*
X124817333Y-62547619D01*
X124864952Y-62642857D01*
X124864952Y-62785714D01*
X124817333Y-62880952D01*
X124769714Y-62928571D01*
X124674476Y-62976190D01*
X124293523Y-62976190D01*
X125245904Y-63166666D02*
X125722095Y-63166666D01*
X125150666Y-63452380D02*
X125484000Y-62452380D01*
X125817333Y-63452380D01*
X126150666Y-63452380D02*
X126150666Y-62452380D01*
X126722095Y-63452380D01*
X126722095Y-62452380D01*
X127150666Y-63404761D02*
X127293523Y-63452380D01*
X127531619Y-63452380D01*
X127626857Y-63404761D01*
X127674476Y-63357142D01*
X127722095Y-63261904D01*
X127722095Y-63166666D01*
X127674476Y-63071428D01*
X127626857Y-63023809D01*
X127531619Y-62976190D01*
X127341142Y-62928571D01*
X127245904Y-62880952D01*
X127198285Y-62833333D01*
X127150666Y-62738095D01*
X127150666Y-62642857D01*
X127198285Y-62547619D01*
X127245904Y-62500000D01*
X127341142Y-62452380D01*
X127579238Y-62452380D01*
X127722095Y-62500000D01*
X128483999Y-62928571D02*
X128150666Y-62928571D01*
X128150666Y-63452380D02*
X128150666Y-62452380D01*
X128626857Y-62452380D01*
X129198285Y-62452380D02*
X129388761Y-62452380D01*
X129483999Y-62500000D01*
X129579238Y-62595238D01*
X129626857Y-62785714D01*
X129626857Y-63119047D01*
X129579238Y-63309523D01*
X129483999Y-63404761D01*
X129388761Y-63452380D01*
X129198285Y-63452380D01*
X129103047Y-63404761D01*
X129007809Y-63309523D01*
X128960190Y-63119047D01*
X128960190Y-62785714D01*
X129007809Y-62595238D01*
X129103047Y-62500000D01*
X129198285Y-62452380D01*
X130626857Y-63452380D02*
X130293523Y-62976190D01*
X130055428Y-63452380D02*
X130055428Y-62452380D01*
X130436380Y-62452380D01*
X130531619Y-62500000D01*
X130579238Y-62547619D01*
X130626857Y-62642857D01*
X130626857Y-62785714D01*
X130579238Y-62880952D01*
X130531619Y-62928571D01*
X130436380Y-62976190D01*
X130055428Y-62976190D01*
X131055428Y-63452380D02*
X131055428Y-62452380D01*
X131388761Y-63166666D01*
X131722095Y-62452380D01*
X131722095Y-63452380D01*
X132198285Y-62928571D02*
X132531619Y-62928571D01*
X132674476Y-63452380D02*
X132198285Y-63452380D01*
X132198285Y-62452380D01*
X132674476Y-62452380D01*
X133674476Y-63452380D02*
X133341142Y-62976190D01*
X133103047Y-63452380D02*
X133103047Y-62452380D01*
X133483999Y-62452380D01*
X133579238Y-62500000D01*
X133626857Y-62547619D01*
X133674476Y-62642857D01*
X133674476Y-62785714D01*
X133626857Y-62880952D01*
X133579238Y-62928571D01*
X133483999Y-62976190D01*
X133103047Y-62976190D01*
%TO.C,J2*%
X111666666Y-81725380D02*
X111666666Y-82439666D01*
X111619047Y-82582523D01*
X111523809Y-82677761D01*
X111380952Y-82725380D01*
X111285714Y-82725380D01*
X112095238Y-81820619D02*
X112142857Y-81773000D01*
X112238095Y-81725380D01*
X112476190Y-81725380D01*
X112571428Y-81773000D01*
X112619047Y-81820619D01*
X112666666Y-81915857D01*
X112666666Y-82011095D01*
X112619047Y-82153952D01*
X112047619Y-82725380D01*
X112666666Y-82725380D01*
X109870142Y-91428571D02*
X109536809Y-91428571D01*
X109536809Y-91952380D02*
X109536809Y-90952380D01*
X110013000Y-90952380D01*
X110965380Y-91952380D02*
X110632047Y-91476190D01*
X110393952Y-91952380D02*
X110393952Y-90952380D01*
X110774904Y-90952380D01*
X110870142Y-91000000D01*
X110917761Y-91047619D01*
X110965380Y-91142857D01*
X110965380Y-91285714D01*
X110917761Y-91380952D01*
X110870142Y-91428571D01*
X110774904Y-91476190D01*
X110393952Y-91476190D01*
X111393952Y-91428571D02*
X111727285Y-91428571D01*
X111870142Y-91952380D02*
X111393952Y-91952380D01*
X111393952Y-90952380D01*
X111870142Y-90952380D01*
X112965380Y-92047619D02*
X112870142Y-92000000D01*
X112774904Y-91904761D01*
X112632047Y-91761904D01*
X112536809Y-91714285D01*
X112441571Y-91714285D01*
X112489190Y-91952380D02*
X112393952Y-91904761D01*
X112298714Y-91809523D01*
X112251095Y-91619047D01*
X112251095Y-91285714D01*
X112298714Y-91095238D01*
X112393952Y-91000000D01*
X112489190Y-90952380D01*
X112679666Y-90952380D01*
X112774904Y-91000000D01*
X112870142Y-91095238D01*
X112917761Y-91285714D01*
X112917761Y-91619047D01*
X112870142Y-91809523D01*
X112774904Y-91904761D01*
X112679666Y-91952380D01*
X112489190Y-91952380D01*
X113108238Y-92047619D02*
X113870142Y-92047619D01*
X114060619Y-91666666D02*
X114536809Y-91666666D01*
X113965380Y-91952380D02*
X114298714Y-90952380D01*
X114632047Y-91952380D01*
%TO.C,J4*%
X141166666Y-82202380D02*
X141166666Y-82916666D01*
X141119047Y-83059523D01*
X141023809Y-83154761D01*
X140880952Y-83202380D01*
X140785714Y-83202380D01*
X142071428Y-82535714D02*
X142071428Y-83202380D01*
X141833333Y-82154761D02*
X141595238Y-82869047D01*
X142214285Y-82869047D01*
%TO.C,C5*%
X121857142Y-101666666D02*
X121904761Y-101714285D01*
X121952380Y-101857142D01*
X121952380Y-101952380D01*
X121904761Y-102095238D01*
X121809523Y-102190476D01*
X121714285Y-102238095D01*
X121523809Y-102285714D01*
X121380952Y-102285714D01*
X121190476Y-102238095D01*
X121095238Y-102190476D01*
X121000000Y-102095238D01*
X120952380Y-101952380D01*
X120952380Y-101857142D01*
X121000000Y-101714285D01*
X121047619Y-101666666D01*
X120952380Y-100761904D02*
X120952380Y-101238095D01*
X121428571Y-101285714D01*
X121380952Y-101238095D01*
X121333333Y-101142857D01*
X121333333Y-100904761D01*
X121380952Y-100809523D01*
X121428571Y-100761904D01*
X121523809Y-100714285D01*
X121761904Y-100714285D01*
X121857142Y-100761904D01*
X121904761Y-100809523D01*
X121952380Y-100904761D01*
X121952380Y-101142857D01*
X121904761Y-101238095D01*
X121857142Y-101285714D01*
X120952380Y-107166666D02*
X120952380Y-107357142D01*
X121000000Y-107452380D01*
X121047619Y-107500000D01*
X121190476Y-107595238D01*
X121380952Y-107642857D01*
X121761904Y-107642857D01*
X121857142Y-107595238D01*
X121904761Y-107547619D01*
X121952380Y-107452380D01*
X121952380Y-107261904D01*
X121904761Y-107166666D01*
X121857142Y-107119047D01*
X121761904Y-107071428D01*
X121523809Y-107071428D01*
X121428571Y-107119047D01*
X121380952Y-107166666D01*
X121333333Y-107261904D01*
X121333333Y-107452380D01*
X121380952Y-107547619D01*
X121428571Y-107595238D01*
X121523809Y-107642857D01*
X121380952Y-106500000D02*
X121333333Y-106595238D01*
X121285714Y-106642857D01*
X121190476Y-106690476D01*
X121142857Y-106690476D01*
X121047619Y-106642857D01*
X121000000Y-106595238D01*
X120952380Y-106500000D01*
X120952380Y-106309523D01*
X121000000Y-106214285D01*
X121047619Y-106166666D01*
X121142857Y-106119047D01*
X121190476Y-106119047D01*
X121285714Y-106166666D01*
X121333333Y-106214285D01*
X121380952Y-106309523D01*
X121380952Y-106500000D01*
X121428571Y-106595238D01*
X121476190Y-106642857D01*
X121571428Y-106690476D01*
X121761904Y-106690476D01*
X121857142Y-106642857D01*
X121904761Y-106595238D01*
X121952380Y-106500000D01*
X121952380Y-106309523D01*
X121904761Y-106214285D01*
X121857142Y-106166666D01*
X121761904Y-106119047D01*
X121571428Y-106119047D01*
X121476190Y-106166666D01*
X121428571Y-106214285D01*
X121380952Y-106309523D01*
X121285714Y-105690476D02*
X121952380Y-105690476D01*
X121380952Y-105690476D02*
X121333333Y-105642857D01*
X121285714Y-105547619D01*
X121285714Y-105404761D01*
X121333333Y-105309523D01*
X121428571Y-105261904D01*
X121952380Y-105261904D01*
X121428571Y-104452380D02*
X121428571Y-104785714D01*
X121952380Y-104785714D02*
X120952380Y-104785714D01*
X120952380Y-104309523D01*
%TO.C,C4*%
X117857142Y-101666666D02*
X117904761Y-101714285D01*
X117952380Y-101857142D01*
X117952380Y-101952380D01*
X117904761Y-102095238D01*
X117809523Y-102190476D01*
X117714285Y-102238095D01*
X117523809Y-102285714D01*
X117380952Y-102285714D01*
X117190476Y-102238095D01*
X117095238Y-102190476D01*
X117000000Y-102095238D01*
X116952380Y-101952380D01*
X116952380Y-101857142D01*
X117000000Y-101714285D01*
X117047619Y-101666666D01*
X117285714Y-100809523D02*
X117952380Y-100809523D01*
X116904761Y-101047619D02*
X117619047Y-101285714D01*
X117619047Y-100666666D01*
X117285714Y-107166666D02*
X117952380Y-107166666D01*
X116904761Y-107404761D02*
X117619047Y-107642857D01*
X117619047Y-107023809D01*
X116952380Y-106738095D02*
X116952380Y-106071428D01*
X117952380Y-106500000D01*
X117285714Y-105690476D02*
X117952380Y-105690476D01*
X117380952Y-105690476D02*
X117333333Y-105642857D01*
X117285714Y-105547619D01*
X117285714Y-105404761D01*
X117333333Y-105309523D01*
X117428571Y-105261904D01*
X117952380Y-105261904D01*
X117428571Y-104452380D02*
X117428571Y-104785714D01*
X117952380Y-104785714D02*
X116952380Y-104785714D01*
X116952380Y-104309523D01*
%TO.C,C6*%
X126857142Y-101666666D02*
X126904761Y-101714285D01*
X126952380Y-101857142D01*
X126952380Y-101952380D01*
X126904761Y-102095238D01*
X126809523Y-102190476D01*
X126714285Y-102238095D01*
X126523809Y-102285714D01*
X126380952Y-102285714D01*
X126190476Y-102238095D01*
X126095238Y-102190476D01*
X126000000Y-102095238D01*
X125952380Y-101952380D01*
X125952380Y-101857142D01*
X126000000Y-101714285D01*
X126047619Y-101666666D01*
X125952380Y-100809523D02*
X125952380Y-101000000D01*
X126000000Y-101095238D01*
X126047619Y-101142857D01*
X126190476Y-101238095D01*
X126380952Y-101285714D01*
X126761904Y-101285714D01*
X126857142Y-101238095D01*
X126904761Y-101190476D01*
X126952380Y-101095238D01*
X126952380Y-100904761D01*
X126904761Y-100809523D01*
X126857142Y-100761904D01*
X126761904Y-100714285D01*
X126523809Y-100714285D01*
X126428571Y-100761904D01*
X126380952Y-100809523D01*
X126333333Y-100904761D01*
X126333333Y-101095238D01*
X126380952Y-101190476D01*
X126428571Y-101238095D01*
X126523809Y-101285714D01*
X126952380Y-107047619D02*
X126952380Y-107619047D01*
X126952380Y-107333333D02*
X125952380Y-107333333D01*
X126095238Y-107428571D01*
X126190476Y-107523809D01*
X126238095Y-107619047D01*
X125952380Y-106428571D02*
X125952380Y-106333333D01*
X126000000Y-106238095D01*
X126047619Y-106190476D01*
X126142857Y-106142857D01*
X126333333Y-106095238D01*
X126571428Y-106095238D01*
X126761904Y-106142857D01*
X126857142Y-106190476D01*
X126904761Y-106238095D01*
X126952380Y-106333333D01*
X126952380Y-106428571D01*
X126904761Y-106523809D01*
X126857142Y-106571428D01*
X126761904Y-106619047D01*
X126571428Y-106666666D01*
X126333333Y-106666666D01*
X126142857Y-106619047D01*
X126047619Y-106571428D01*
X126000000Y-106523809D01*
X125952380Y-106428571D01*
X125952380Y-105476190D02*
X125952380Y-105380952D01*
X126000000Y-105285714D01*
X126047619Y-105238095D01*
X126142857Y-105190476D01*
X126333333Y-105142857D01*
X126571428Y-105142857D01*
X126761904Y-105190476D01*
X126857142Y-105238095D01*
X126904761Y-105285714D01*
X126952380Y-105380952D01*
X126952380Y-105476190D01*
X126904761Y-105571428D01*
X126857142Y-105619047D01*
X126761904Y-105666666D01*
X126571428Y-105714285D01*
X126333333Y-105714285D01*
X126142857Y-105666666D01*
X126047619Y-105619047D01*
X126000000Y-105571428D01*
X125952380Y-105476190D01*
X126285714Y-104714285D02*
X126952380Y-104714285D01*
X126380952Y-104714285D02*
X126333333Y-104666666D01*
X126285714Y-104571428D01*
X126285714Y-104428571D01*
X126333333Y-104333333D01*
X126428571Y-104285714D01*
X126952380Y-104285714D01*
X126428571Y-103476190D02*
X126428571Y-103809523D01*
X126952380Y-103809523D02*
X125952380Y-103809523D01*
X125952380Y-103333333D01*
%TO.C,C3*%
X113857142Y-101666666D02*
X113904761Y-101714285D01*
X113952380Y-101857142D01*
X113952380Y-101952380D01*
X113904761Y-102095238D01*
X113809523Y-102190476D01*
X113714285Y-102238095D01*
X113523809Y-102285714D01*
X113380952Y-102285714D01*
X113190476Y-102238095D01*
X113095238Y-102190476D01*
X113000000Y-102095238D01*
X112952380Y-101952380D01*
X112952380Y-101857142D01*
X113000000Y-101714285D01*
X113047619Y-101666666D01*
X112952380Y-101333333D02*
X112952380Y-100714285D01*
X113333333Y-101047619D01*
X113333333Y-100904761D01*
X113380952Y-100809523D01*
X113428571Y-100761904D01*
X113523809Y-100714285D01*
X113761904Y-100714285D01*
X113857142Y-100761904D01*
X113904761Y-100809523D01*
X113952380Y-100904761D01*
X113952380Y-101190476D01*
X113904761Y-101285714D01*
X113857142Y-101333333D01*
X113047619Y-107142857D02*
X113000000Y-107095238D01*
X112952380Y-107000000D01*
X112952380Y-106761904D01*
X113000000Y-106666666D01*
X113047619Y-106619047D01*
X113142857Y-106571428D01*
X113238095Y-106571428D01*
X113380952Y-106619047D01*
X113952380Y-107190476D01*
X113952380Y-106571428D01*
X113047619Y-106190476D02*
X113000000Y-106142857D01*
X112952380Y-106047619D01*
X112952380Y-105809523D01*
X113000000Y-105714285D01*
X113047619Y-105666666D01*
X113142857Y-105619047D01*
X113238095Y-105619047D01*
X113380952Y-105666666D01*
X113952380Y-106238095D01*
X113952380Y-105619047D01*
X113285714Y-105190476D02*
X113952380Y-105190476D01*
X113380952Y-105190476D02*
X113333333Y-105142857D01*
X113285714Y-105047619D01*
X113285714Y-104904761D01*
X113333333Y-104809523D01*
X113428571Y-104761904D01*
X113952380Y-104761904D01*
X113428571Y-103952380D02*
X113428571Y-104285714D01*
X113952380Y-104285714D02*
X112952380Y-104285714D01*
X112952380Y-103809523D01*
%TO.C,J6*%
X137334666Y-114952380D02*
X137334666Y-115666666D01*
X137287047Y-115809523D01*
X137191809Y-115904761D01*
X137048952Y-115952380D01*
X136953714Y-115952380D01*
X138239428Y-114952380D02*
X138048952Y-114952380D01*
X137953714Y-115000000D01*
X137906095Y-115047619D01*
X137810857Y-115190476D01*
X137763238Y-115380952D01*
X137763238Y-115761904D01*
X137810857Y-115857142D01*
X137858476Y-115904761D01*
X137953714Y-115952380D01*
X138144190Y-115952380D01*
X138239428Y-115904761D01*
X138287047Y-115857142D01*
X138334666Y-115761904D01*
X138334666Y-115523809D01*
X138287047Y-115428571D01*
X138239428Y-115380952D01*
X138144190Y-115333333D01*
X137953714Y-115333333D01*
X137858476Y-115380952D01*
X137810857Y-115428571D01*
X137763238Y-115523809D01*
X135644190Y-123952380D02*
X135834666Y-123952380D01*
X135929904Y-124000000D01*
X136025142Y-124095238D01*
X136072761Y-124285714D01*
X136072761Y-124619047D01*
X136025142Y-124809523D01*
X135929904Y-124904761D01*
X135834666Y-124952380D01*
X135644190Y-124952380D01*
X135548952Y-124904761D01*
X135453714Y-124809523D01*
X135406095Y-124619047D01*
X135406095Y-124285714D01*
X135453714Y-124095238D01*
X135548952Y-124000000D01*
X135644190Y-123952380D01*
X136929904Y-124285714D02*
X136929904Y-124952380D01*
X136501333Y-124285714D02*
X136501333Y-124809523D01*
X136548952Y-124904761D01*
X136644190Y-124952380D01*
X136787047Y-124952380D01*
X136882285Y-124904761D01*
X136929904Y-124857142D01*
X137263238Y-124285714D02*
X137644190Y-124285714D01*
X137406095Y-123952380D02*
X137406095Y-124809523D01*
X137453714Y-124904761D01*
X137548952Y-124952380D01*
X137644190Y-124952380D01*
X137977523Y-124285714D02*
X137977523Y-125285714D01*
X137977523Y-124333333D02*
X138072761Y-124285714D01*
X138263238Y-124285714D01*
X138358476Y-124333333D01*
X138406095Y-124380952D01*
X138453714Y-124476190D01*
X138453714Y-124761904D01*
X138406095Y-124857142D01*
X138358476Y-124904761D01*
X138263238Y-124952380D01*
X138072761Y-124952380D01*
X137977523Y-124904761D01*
X139310857Y-124285714D02*
X139310857Y-124952380D01*
X138882285Y-124285714D02*
X138882285Y-124809523D01*
X138929904Y-124904761D01*
X139025142Y-124952380D01*
X139168000Y-124952380D01*
X139263238Y-124904761D01*
X139310857Y-124857142D01*
X139644190Y-124285714D02*
X140025142Y-124285714D01*
X139787047Y-123952380D02*
X139787047Y-124809523D01*
X139834666Y-124904761D01*
X139929904Y-124952380D01*
X140025142Y-124952380D01*
%TO.C,C9*%
X138857142Y-101666666D02*
X138904761Y-101714285D01*
X138952380Y-101857142D01*
X138952380Y-101952380D01*
X138904761Y-102095238D01*
X138809523Y-102190476D01*
X138714285Y-102238095D01*
X138523809Y-102285714D01*
X138380952Y-102285714D01*
X138190476Y-102238095D01*
X138095238Y-102190476D01*
X138000000Y-102095238D01*
X137952380Y-101952380D01*
X137952380Y-101857142D01*
X138000000Y-101714285D01*
X138047619Y-101666666D01*
X138952380Y-101190476D02*
X138952380Y-101000000D01*
X138904761Y-100904761D01*
X138857142Y-100857142D01*
X138714285Y-100761904D01*
X138523809Y-100714285D01*
X138142857Y-100714285D01*
X138047619Y-100761904D01*
X138000000Y-100809523D01*
X137952380Y-100904761D01*
X137952380Y-101095238D01*
X138000000Y-101190476D01*
X138047619Y-101238095D01*
X138142857Y-101285714D01*
X138380952Y-101285714D01*
X138476190Y-101238095D01*
X138523809Y-101190476D01*
X138571428Y-101095238D01*
X138571428Y-100904761D01*
X138523809Y-100809523D01*
X138476190Y-100761904D01*
X138380952Y-100714285D01*
X137952380Y-107142857D02*
X137952380Y-107333333D01*
X138000000Y-107428571D01*
X138047619Y-107476190D01*
X138190476Y-107571428D01*
X138380952Y-107619047D01*
X138761904Y-107619047D01*
X138857142Y-107571428D01*
X138904761Y-107523809D01*
X138952380Y-107428571D01*
X138952380Y-107238095D01*
X138904761Y-107142857D01*
X138857142Y-107095238D01*
X138761904Y-107047619D01*
X138523809Y-107047619D01*
X138428571Y-107095238D01*
X138380952Y-107142857D01*
X138333333Y-107238095D01*
X138333333Y-107428571D01*
X138380952Y-107523809D01*
X138428571Y-107571428D01*
X138523809Y-107619047D01*
X138380952Y-106476190D02*
X138333333Y-106571428D01*
X138285714Y-106619047D01*
X138190476Y-106666666D01*
X138142857Y-106666666D01*
X138047619Y-106619047D01*
X138000000Y-106571428D01*
X137952380Y-106476190D01*
X137952380Y-106285714D01*
X138000000Y-106190476D01*
X138047619Y-106142857D01*
X138142857Y-106095238D01*
X138190476Y-106095238D01*
X138285714Y-106142857D01*
X138333333Y-106190476D01*
X138380952Y-106285714D01*
X138380952Y-106476190D01*
X138428571Y-106571428D01*
X138476190Y-106619047D01*
X138571428Y-106666666D01*
X138761904Y-106666666D01*
X138857142Y-106619047D01*
X138904761Y-106571428D01*
X138952380Y-106476190D01*
X138952380Y-106285714D01*
X138904761Y-106190476D01*
X138857142Y-106142857D01*
X138761904Y-106095238D01*
X138571428Y-106095238D01*
X138476190Y-106142857D01*
X138428571Y-106190476D01*
X138380952Y-106285714D01*
X137952380Y-105476190D02*
X137952380Y-105380952D01*
X138000000Y-105285714D01*
X138047619Y-105238095D01*
X138142857Y-105190476D01*
X138333333Y-105142857D01*
X138571428Y-105142857D01*
X138761904Y-105190476D01*
X138857142Y-105238095D01*
X138904761Y-105285714D01*
X138952380Y-105380952D01*
X138952380Y-105476190D01*
X138904761Y-105571428D01*
X138857142Y-105619047D01*
X138761904Y-105666666D01*
X138571428Y-105714285D01*
X138333333Y-105714285D01*
X138142857Y-105666666D01*
X138047619Y-105619047D01*
X138000000Y-105571428D01*
X137952380Y-105476190D01*
X138285714Y-104714285D02*
X138952380Y-104714285D01*
X138380952Y-104714285D02*
X138333333Y-104666666D01*
X138285714Y-104571428D01*
X138285714Y-104428571D01*
X138333333Y-104333333D01*
X138428571Y-104285714D01*
X138952380Y-104285714D01*
X138428571Y-103476190D02*
X138428571Y-103809523D01*
X138952380Y-103809523D02*
X137952380Y-103809523D01*
X137952380Y-103333333D01*
%TO.C,C2*%
X110357142Y-101666666D02*
X110404761Y-101714285D01*
X110452380Y-101857142D01*
X110452380Y-101952380D01*
X110404761Y-102095238D01*
X110309523Y-102190476D01*
X110214285Y-102238095D01*
X110023809Y-102285714D01*
X109880952Y-102285714D01*
X109690476Y-102238095D01*
X109595238Y-102190476D01*
X109500000Y-102095238D01*
X109452380Y-101952380D01*
X109452380Y-101857142D01*
X109500000Y-101714285D01*
X109547619Y-101666666D01*
X109547619Y-101285714D02*
X109500000Y-101238095D01*
X109452380Y-101142857D01*
X109452380Y-100904761D01*
X109500000Y-100809523D01*
X109547619Y-100761904D01*
X109642857Y-100714285D01*
X109738095Y-100714285D01*
X109880952Y-100761904D01*
X110452380Y-101333333D01*
X110452380Y-100714285D01*
X110452380Y-106571428D02*
X110452380Y-107142857D01*
X110452380Y-106857142D02*
X109452380Y-106857142D01*
X109595238Y-106952380D01*
X109690476Y-107047619D01*
X109738095Y-107142857D01*
X109452380Y-105952380D02*
X109452380Y-105857142D01*
X109500000Y-105761904D01*
X109547619Y-105714285D01*
X109642857Y-105666666D01*
X109833333Y-105619047D01*
X110071428Y-105619047D01*
X110261904Y-105666666D01*
X110357142Y-105714285D01*
X110404761Y-105761904D01*
X110452380Y-105857142D01*
X110452380Y-105952380D01*
X110404761Y-106047619D01*
X110357142Y-106095238D01*
X110261904Y-106142857D01*
X110071428Y-106190476D01*
X109833333Y-106190476D01*
X109642857Y-106142857D01*
X109547619Y-106095238D01*
X109500000Y-106047619D01*
X109452380Y-105952380D01*
X109785714Y-105190476D02*
X110452380Y-105190476D01*
X109880952Y-105190476D02*
X109833333Y-105142857D01*
X109785714Y-105047619D01*
X109785714Y-104904761D01*
X109833333Y-104809523D01*
X109928571Y-104761904D01*
X110452380Y-104761904D01*
X109928571Y-103952380D02*
X109928571Y-104285714D01*
X110452380Y-104285714D02*
X109452380Y-104285714D01*
X109452380Y-103809523D01*
%TO.C,J3*%
X127046666Y-81610380D02*
X127046666Y-82324666D01*
X126999047Y-82467523D01*
X126903809Y-82562761D01*
X126760952Y-82610380D01*
X126665714Y-82610380D01*
X127427619Y-81610380D02*
X128046666Y-81610380D01*
X127713333Y-81991333D01*
X127856190Y-81991333D01*
X127951428Y-82038952D01*
X127999047Y-82086571D01*
X128046666Y-82181809D01*
X128046666Y-82419904D01*
X127999047Y-82515142D01*
X127951428Y-82562761D01*
X127856190Y-82610380D01*
X127570476Y-82610380D01*
X127475238Y-82562761D01*
X127427619Y-82515142D01*
X125165714Y-91428571D02*
X124832380Y-91428571D01*
X124832380Y-91952380D02*
X124832380Y-90952380D01*
X125308571Y-90952380D01*
X126260952Y-91952380D02*
X125927619Y-91476190D01*
X125689523Y-91952380D02*
X125689523Y-90952380D01*
X126070476Y-90952380D01*
X126165714Y-91000000D01*
X126213333Y-91047619D01*
X126260952Y-91142857D01*
X126260952Y-91285714D01*
X126213333Y-91380952D01*
X126165714Y-91428571D01*
X126070476Y-91476190D01*
X125689523Y-91476190D01*
X126689523Y-91428571D02*
X127022857Y-91428571D01*
X127165714Y-91952380D02*
X126689523Y-91952380D01*
X126689523Y-90952380D01*
X127165714Y-90952380D01*
X128260952Y-92047619D02*
X128165714Y-92000000D01*
X128070476Y-91904761D01*
X127927619Y-91761904D01*
X127832380Y-91714285D01*
X127737142Y-91714285D01*
X127784761Y-91952380D02*
X127689523Y-91904761D01*
X127594285Y-91809523D01*
X127546666Y-91619047D01*
X127546666Y-91285714D01*
X127594285Y-91095238D01*
X127689523Y-91000000D01*
X127784761Y-90952380D01*
X127975238Y-90952380D01*
X128070476Y-91000000D01*
X128165714Y-91095238D01*
X128213333Y-91285714D01*
X128213333Y-91619047D01*
X128165714Y-91809523D01*
X128070476Y-91904761D01*
X127975238Y-91952380D01*
X127784761Y-91952380D01*
X128403809Y-92047619D02*
X129165714Y-92047619D01*
X129737142Y-91428571D02*
X129880000Y-91476190D01*
X129927619Y-91523809D01*
X129975238Y-91619047D01*
X129975238Y-91761904D01*
X129927619Y-91857142D01*
X129880000Y-91904761D01*
X129784761Y-91952380D01*
X129403809Y-91952380D01*
X129403809Y-90952380D01*
X129737142Y-90952380D01*
X129832380Y-91000000D01*
X129880000Y-91047619D01*
X129927619Y-91142857D01*
X129927619Y-91238095D01*
X129880000Y-91333333D01*
X129832380Y-91380952D01*
X129737142Y-91428571D01*
X129403809Y-91428571D01*
D12*
%TO.C,R6*%
X144850000Y-72524000D02*
X134550000Y-72524000D01*
X134550000Y-75054000D02*
X134680000Y-75054000D01*
X135780000Y-77844000D02*
X135780000Y-79344000D01*
X134680000Y-76864000D02*
X134550000Y-76864000D01*
X144720000Y-76864000D02*
X144720000Y-75054000D01*
X143620000Y-77844000D02*
X144850000Y-77844000D01*
X134250000Y-72224000D02*
X136660000Y-72224000D01*
X143620000Y-79344000D02*
X143620000Y-77844000D01*
X134680000Y-75054000D02*
X134680000Y-76864000D01*
X144720000Y-75054000D02*
X144850000Y-75054000D01*
X134550000Y-76864000D02*
X134550000Y-77844000D01*
X144850000Y-75054000D02*
X144850000Y-72524000D01*
X144850000Y-77844000D02*
X144850000Y-76864000D01*
X135780000Y-79344000D02*
X143620000Y-79344000D01*
X134550000Y-72524000D02*
X134550000Y-75054000D01*
X144850000Y-76864000D02*
X144720000Y-76864000D01*
X134250000Y-74634000D02*
X134250000Y-72224000D01*
X134550000Y-77844000D02*
X135780000Y-77844000D01*
%TO.C,J5*%
X115764000Y-76864000D02*
X115764000Y-75054000D01*
X115894000Y-77844000D02*
X115894000Y-76864000D01*
X105294000Y-72224000D02*
X107704000Y-72224000D01*
X105294000Y-74634000D02*
X105294000Y-72224000D01*
X105724000Y-76864000D02*
X105594000Y-76864000D01*
X115894000Y-75054000D02*
X115894000Y-72524000D01*
X115894000Y-72524000D02*
X105594000Y-72524000D01*
X105594000Y-76864000D02*
X105594000Y-77844000D01*
X114664000Y-79344000D02*
X114664000Y-77844000D01*
X106824000Y-79344000D02*
X114664000Y-79344000D01*
X114664000Y-77844000D02*
X115894000Y-77844000D01*
X106824000Y-77844000D02*
X106824000Y-79344000D01*
X105594000Y-72524000D02*
X105594000Y-75054000D01*
X115764000Y-75054000D02*
X115894000Y-75054000D01*
X115894000Y-76864000D02*
X115764000Y-76864000D01*
X105724000Y-75054000D02*
X105724000Y-76864000D01*
X105594000Y-77844000D02*
X106824000Y-77844000D01*
X105594000Y-75054000D02*
X105724000Y-75054000D01*
%TO.C,C8*%
X135675000Y-99180000D02*
X135990000Y-99180000D01*
X133250000Y-93940000D02*
X133565000Y-93940000D01*
X135990000Y-99180000D02*
X135990000Y-93940000D01*
X133250000Y-99180000D02*
X133250000Y-93940000D01*
X133250000Y-99180000D02*
X133565000Y-99180000D01*
X135675000Y-93940000D02*
X135990000Y-93940000D01*
%TO.C,C7*%
X129186000Y-99180000D02*
X129186000Y-93940000D01*
X131926000Y-99180000D02*
X131926000Y-93940000D01*
X129186000Y-99180000D02*
X129501000Y-99180000D01*
X131611000Y-93940000D02*
X131926000Y-93940000D01*
X131611000Y-99180000D02*
X131926000Y-99180000D01*
X129186000Y-93940000D02*
X129501000Y-93940000D01*
%TO.C,C10*%
X143803000Y-93940000D02*
X144118000Y-93940000D01*
X143803000Y-99180000D02*
X144118000Y-99180000D01*
X141378000Y-99180000D02*
X141693000Y-99180000D01*
X141378000Y-99180000D02*
X141378000Y-93940000D01*
X144118000Y-99180000D02*
X144118000Y-93940000D01*
X141378000Y-93940000D02*
X141693000Y-93940000D01*
%TO.C,J1*%
X108976000Y-121184000D02*
X108976000Y-122164000D01*
X109106000Y-119374000D02*
X109106000Y-121184000D01*
X109236000Y-122164000D02*
X109236000Y-123664000D01*
X116316000Y-122164000D02*
X116576000Y-122164000D01*
X108976000Y-116844000D02*
X108976000Y-119374000D01*
X116576000Y-121184000D02*
X116446000Y-121184000D01*
X108676000Y-118954000D02*
X108676000Y-116544000D01*
X109236000Y-123664000D02*
X116316000Y-123664000D01*
X116576000Y-116844000D02*
X108976000Y-116844000D01*
X108976000Y-122164000D02*
X109236000Y-122164000D01*
X116446000Y-119374000D02*
X116576000Y-119374000D01*
X116576000Y-119374000D02*
X116576000Y-116844000D01*
X116316000Y-123664000D02*
X116316000Y-122164000D01*
X116446000Y-121184000D02*
X116446000Y-119374000D01*
X108976000Y-119374000D02*
X109106000Y-119374000D01*
X116576000Y-122164000D02*
X116576000Y-121184000D01*
X109106000Y-121184000D02*
X108976000Y-121184000D01*
X108676000Y-116544000D02*
X111086000Y-116544000D01*
%TO.C,R1*%
X110268000Y-113420000D02*
X110268000Y-113750000D01*
X110268000Y-113750000D02*
X116808000Y-113750000D01*
X116808000Y-111010000D02*
X116808000Y-111340000D01*
X110268000Y-111340000D02*
X110268000Y-111010000D01*
X116808000Y-113750000D02*
X116808000Y-113420000D01*
X110268000Y-111010000D02*
X116808000Y-111010000D01*
%TO.C,C1*%
X107370000Y-93880000D02*
X107370000Y-99120000D01*
X104945000Y-93880000D02*
X104630000Y-93880000D01*
X104630000Y-93880000D02*
X104630000Y-99120000D01*
X107370000Y-99120000D02*
X107055000Y-99120000D01*
X104945000Y-99120000D02*
X104630000Y-99120000D01*
X107370000Y-93880000D02*
X107055000Y-93880000D01*
%TO.C,AUDIO TRANSFORMER*%
X119484000Y-70992000D02*
X119484000Y-66492000D01*
X132484000Y-59492000D02*
X132484000Y-54992000D01*
X115984000Y-66492000D02*
X115984000Y-65492000D01*
X135984000Y-66492000D02*
X135984000Y-65492000D01*
X132484000Y-66492000D02*
X132484000Y-70992000D01*
X119484000Y-54992000D02*
X119484000Y-59492000D01*
X135984000Y-60492000D02*
X135984000Y-59492000D01*
X132484000Y-70992000D02*
X119484000Y-70992000D01*
X135984000Y-59492000D02*
X115984000Y-59492000D01*
X135984000Y-66492000D02*
X115984000Y-66492000D01*
X115984000Y-59492000D02*
X115984000Y-60492000D01*
X132484000Y-54992000D02*
X119484000Y-54992000D01*
%TO.C,J2*%
X115933000Y-88910000D02*
X118433000Y-88910000D01*
X105293000Y-85700000D02*
X105293000Y-83290000D01*
X118433000Y-83590000D02*
X105593000Y-83590000D01*
X105593000Y-83590000D02*
X105593000Y-86120000D01*
X105723000Y-86120000D02*
X105723000Y-87930000D01*
X108093000Y-88910000D02*
X108093000Y-90410000D01*
X115933000Y-90410000D02*
X115933000Y-88910000D01*
X105593000Y-87930000D02*
X105593000Y-88910000D01*
X105723000Y-87930000D02*
X105593000Y-87930000D01*
X118303000Y-86120000D02*
X118433000Y-86120000D01*
X105593000Y-88910000D02*
X108093000Y-88910000D01*
X118433000Y-88910000D02*
X118433000Y-87930000D01*
X105593000Y-86120000D02*
X105723000Y-86120000D01*
X108093000Y-90410000D02*
X115933000Y-90410000D01*
X105293000Y-83290000D02*
X107703000Y-83290000D01*
X118433000Y-86120000D02*
X118433000Y-83590000D01*
X118433000Y-87930000D02*
X118303000Y-87930000D01*
X118303000Y-87930000D02*
X118303000Y-86120000D01*
%TO.C,J4*%
X146520000Y-88180000D02*
X146520000Y-86370000D01*
X136050000Y-85950000D02*
X136050000Y-83540000D01*
X146650000Y-83840000D02*
X136350000Y-83840000D01*
X137580000Y-89160000D02*
X137580000Y-90660000D01*
X146650000Y-89160000D02*
X146650000Y-88180000D01*
X136480000Y-86370000D02*
X136480000Y-88180000D01*
X137580000Y-90660000D02*
X145420000Y-90660000D01*
X146520000Y-86370000D02*
X146650000Y-86370000D01*
X145420000Y-89160000D02*
X146650000Y-89160000D01*
X136480000Y-88180000D02*
X136350000Y-88180000D01*
X136350000Y-83840000D02*
X136350000Y-86370000D01*
X136350000Y-86370000D02*
X136480000Y-86370000D01*
X146650000Y-88180000D02*
X146520000Y-88180000D01*
X136350000Y-88180000D02*
X136350000Y-89160000D01*
X136050000Y-83540000D02*
X138460000Y-83540000D01*
X146650000Y-86370000D02*
X146650000Y-83840000D01*
X145420000Y-90660000D02*
X145420000Y-89160000D01*
X136350000Y-89160000D02*
X137580000Y-89160000D01*
%TO.C,C5*%
X122782000Y-99180000D02*
X122782000Y-93940000D01*
X120042000Y-99180000D02*
X120042000Y-93940000D01*
X120042000Y-99180000D02*
X120357000Y-99180000D01*
X122467000Y-99180000D02*
X122782000Y-99180000D01*
X122467000Y-93940000D02*
X122782000Y-93940000D01*
X120042000Y-93940000D02*
X120357000Y-93940000D01*
%TO.C,C4*%
X115978000Y-93940000D02*
X116293000Y-93940000D01*
X115978000Y-99180000D02*
X115978000Y-93940000D01*
X118403000Y-93940000D02*
X118718000Y-93940000D01*
X118718000Y-99180000D02*
X118718000Y-93940000D01*
X115978000Y-99180000D02*
X116293000Y-99180000D01*
X118403000Y-99180000D02*
X118718000Y-99180000D01*
%TO.C,C6*%
X127547000Y-93940000D02*
X127862000Y-93940000D01*
X127547000Y-99180000D02*
X127862000Y-99180000D01*
X127862000Y-99180000D02*
X127862000Y-93940000D01*
X125122000Y-99180000D02*
X125122000Y-93940000D01*
X125122000Y-99180000D02*
X125437000Y-99180000D01*
X125122000Y-93940000D02*
X125437000Y-93940000D01*
%TO.C,C3*%
X112168000Y-99140000D02*
X112483000Y-99140000D01*
X112168000Y-93900000D02*
X112483000Y-93900000D01*
X114593000Y-93900000D02*
X114908000Y-93900000D01*
X114593000Y-99140000D02*
X114908000Y-99140000D01*
X112168000Y-99140000D02*
X112168000Y-93900000D01*
X114908000Y-99140000D02*
X114908000Y-93900000D01*
%TO.C,J6*%
X133868000Y-120930000D02*
X133868000Y-121910000D01*
X133568000Y-116290000D02*
X135978000Y-116290000D01*
X141468000Y-120930000D02*
X141338000Y-120930000D01*
X141208000Y-123410000D02*
X141208000Y-121910000D01*
X141338000Y-119120000D02*
X141468000Y-119120000D01*
X133568000Y-118700000D02*
X133568000Y-116290000D01*
X141468000Y-119120000D02*
X141468000Y-116590000D01*
X141208000Y-121910000D02*
X141468000Y-121910000D01*
X141338000Y-120930000D02*
X141338000Y-119120000D01*
X141468000Y-121910000D02*
X141468000Y-120930000D01*
X133868000Y-116590000D02*
X133868000Y-119120000D01*
X133868000Y-119120000D02*
X133998000Y-119120000D01*
X141468000Y-116590000D02*
X133868000Y-116590000D01*
X133868000Y-121910000D02*
X134128000Y-121910000D01*
X134128000Y-121910000D02*
X134128000Y-123410000D01*
X134128000Y-123410000D02*
X141208000Y-123410000D01*
X133998000Y-119120000D02*
X133998000Y-120930000D01*
X133998000Y-120930000D02*
X133868000Y-120930000D01*
%TO.C,C9*%
X139739000Y-99180000D02*
X140054000Y-99180000D01*
X139739000Y-93940000D02*
X140054000Y-93940000D01*
X140054000Y-99180000D02*
X140054000Y-93940000D01*
X137314000Y-99180000D02*
X137314000Y-93940000D01*
X137314000Y-93940000D02*
X137629000Y-93940000D01*
X137314000Y-99180000D02*
X137629000Y-99180000D01*
%TO.C,C2*%
X108673000Y-93900000D02*
X108358000Y-93900000D01*
X108673000Y-99140000D02*
X108358000Y-99140000D01*
X108358000Y-93900000D02*
X108358000Y-99140000D01*
X111098000Y-99140000D02*
X110783000Y-99140000D01*
X111098000Y-93900000D02*
X111098000Y-99140000D01*
X111098000Y-93900000D02*
X110783000Y-93900000D01*
%TO.C,J3*%
X133800000Y-88910000D02*
X133800000Y-87930000D01*
X120660000Y-85700000D02*
X120660000Y-83290000D01*
X131300000Y-88910000D02*
X133800000Y-88910000D01*
X120960000Y-83590000D02*
X120960000Y-86120000D01*
X120960000Y-87930000D02*
X120960000Y-88910000D01*
X133800000Y-87930000D02*
X133670000Y-87930000D01*
X121090000Y-87930000D02*
X120960000Y-87930000D01*
X123460000Y-90410000D02*
X131300000Y-90410000D01*
X120960000Y-86120000D02*
X121090000Y-86120000D01*
X133800000Y-86120000D02*
X133800000Y-83590000D01*
X123460000Y-88910000D02*
X123460000Y-90410000D01*
X131300000Y-90410000D02*
X131300000Y-88910000D01*
X133800000Y-83590000D02*
X120960000Y-83590000D01*
X121090000Y-86120000D02*
X121090000Y-87930000D01*
X133670000Y-87930000D02*
X133670000Y-86120000D01*
X133670000Y-86120000D02*
X133800000Y-86120000D01*
X120660000Y-83290000D02*
X123070000Y-83290000D01*
X120960000Y-88910000D02*
X123460000Y-88910000D01*
%TD*%
M02*
