%TF.GenerationSoftware,KiCad,Pcbnew,(6.0.7)*%
%TF.CreationDate,2023-02-21T16:01:16-05:00*%
%TF.ProjectId,HEADPHONE_AMP,48454144-5048-44f4-9e45-5f414d502e6b,rev?*%
%TF.SameCoordinates,Original*%
%TF.FileFunction,Copper,L1,Top*%
%TF.FilePolarity,Positive*%
%FSLAX46Y46*%
G04 Gerber Fmt 4.6, Leading zero omitted, Abs format (unit mm)*
G04 Created by KiCad (PCBNEW (6.0.7)) date 2023-02-21 16:01:16*
%MOMM*%
%LPD*%
G01*
G04 APERTURE LIST*
G04 Aperture macros list*
%AMRoundRect*
0 Rectangle with rounded corners*
0 $1 Rounding radius*
0 $2 $3 $4 $5 $6 $7 $8 $9 X,Y pos of 4 corners*
0 Add a 4 corners polygon primitive as box body*
4,1,4,$2,$3,$4,$5,$6,$7,$8,$9,$2,$3,0*
0 Add four circle primitives for the rounded corners*
1,1,$1+$1,$2,$3*
1,1,$1+$1,$4,$5*
1,1,$1+$1,$6,$7*
1,1,$1+$1,$8,$9*
0 Add four rect primitives between the rounded corners*
20,1,$1+$1,$2,$3,$4,$5,0*
20,1,$1+$1,$4,$5,$6,$7,0*
20,1,$1+$1,$6,$7,$8,$9,0*
20,1,$1+$1,$8,$9,$2,$3,0*%
G04 Aperture macros list end*
%TA.AperFunction,ComponentPad*%
%ADD10C,5.600000*%
%TD*%
%TA.AperFunction,ComponentPad*%
%ADD11RoundRect,0.250000X-0.620000X-0.620000X0.620000X-0.620000X0.620000X0.620000X-0.620000X0.620000X0*%
%TD*%
%TA.AperFunction,ComponentPad*%
%ADD12C,1.740000*%
%TD*%
%TA.AperFunction,ComponentPad*%
%ADD13C,1.600000*%
%TD*%
%TA.AperFunction,ComponentPad*%
%ADD14O,1.600000X1.600000*%
%TD*%
%TA.AperFunction,ComponentPad*%
%ADD15R,2.000000X2.000000*%
%TD*%
%TA.AperFunction,ComponentPad*%
%ADD16C,2.000000*%
%TD*%
%TA.AperFunction,ComponentPad*%
%ADD17R,2.200000X2.200000*%
%TD*%
%TA.AperFunction,ComponentPad*%
%ADD18O,2.200000X2.200000*%
%TD*%
%TA.AperFunction,ComponentPad*%
%ADD19R,1.600000X1.600000*%
%TD*%
%TA.AperFunction,ComponentPad*%
%ADD20R,2.400000X2.400000*%
%TD*%
%TA.AperFunction,ComponentPad*%
%ADD21C,2.400000*%
%TD*%
%TA.AperFunction,ComponentPad*%
%ADD22RoundRect,0.250000X-0.600000X0.600000X-0.600000X-0.600000X0.600000X-0.600000X0.600000X0.600000X0*%
%TD*%
%TA.AperFunction,ComponentPad*%
%ADD23C,1.700000*%
%TD*%
%TA.AperFunction,ViaPad*%
%ADD24C,1.000000*%
%TD*%
%TA.AperFunction,Conductor*%
%ADD25C,1.000000*%
%TD*%
G04 APERTURE END LIST*
D10*
%TO.P,H2,1*%
%TO.N,N/C*%
X144920000Y-43500000D03*
%TD*%
D11*
%TO.P,J2,1,Pin_1*%
%TO.N,Net-(J2-Pad1)*%
X107500000Y-112690000D03*
D12*
%TO.P,J2,2,Pin_2*%
%TO.N,Earth*%
X110040000Y-112690000D03*
%TD*%
D13*
%TO.P,R1,1*%
%TO.N,Net-(R1-Pad1)*%
X122940000Y-94500000D03*
D14*
%TO.P,R1,2*%
%TO.N,Net-(R1-Pad2)*%
X130560000Y-94500000D03*
%TD*%
D13*
%TO.P,C1,1*%
%TO.N,Earth*%
X116000000Y-97250000D03*
%TO.P,C1,2*%
%TO.N,Net-(R5-Pad2)*%
X116000000Y-92250000D03*
%TD*%
%TO.P,C4,1*%
%TO.N,+VDC*%
X129250000Y-121750000D03*
%TO.P,C4,2*%
%TO.N,Earth*%
X124250000Y-121750000D03*
%TD*%
D15*
%TO.P,C10,1*%
%TO.N,Net-(J3-Pad4)*%
X146000000Y-125750000D03*
D16*
%TO.P,C10,2*%
%TO.N,Earth*%
X142200000Y-125750000D03*
%TD*%
D11*
%TO.P,J6,1,Pin_1*%
%TO.N,Net-(R3-Pad2)*%
X142000000Y-98000000D03*
D12*
%TO.P,J6,2,Pin_2*%
%TO.N,Earth*%
X144540000Y-98000000D03*
%TD*%
D13*
%TO.P,R6,1*%
%TO.N,Net-(J2-Pad1)*%
X104560000Y-105940000D03*
D14*
%TO.P,R6,2*%
%TO.N,Net-(R5-Pad2)*%
X112180000Y-105940000D03*
%TD*%
D13*
%TO.P,C2,1*%
%TO.N,Net-(C2-Pad1)*%
X129250000Y-118000000D03*
%TO.P,C2,2*%
%TO.N,Earth*%
X124250000Y-118000000D03*
%TD*%
D17*
%TO.P,D1,1,K*%
%TO.N,+VDC*%
X112920000Y-132250000D03*
D18*
%TO.P,D1,2,A*%
%TO.N,Net-(D3-Pad1)*%
X123080000Y-132250000D03*
%TD*%
D13*
%TO.P,R4,1*%
%TO.N,Earth*%
X116000000Y-113560000D03*
D14*
%TO.P,R4,2*%
%TO.N,Net-(R5-Pad2)*%
X116000000Y-105940000D03*
%TD*%
D19*
%TO.P,U1,1,BYPASS*%
%TO.N,Net-(C5-Pad1)*%
X130550000Y-114375000D03*
D14*
%TO.P,U1,2,+*%
%TO.N,Net-(C2-Pad1)*%
X130550000Y-111835000D03*
%TO.P,U1,3,GND*%
%TO.N,Earth*%
X130550000Y-109295000D03*
%TO.P,U1,4,GND*%
X130550000Y-106755000D03*
%TO.P,U1,5,GND*%
X130550000Y-104215000D03*
%TO.P,U1,6,-*%
%TO.N,Net-(R5-Pad2)*%
X130550000Y-101675000D03*
%TO.P,U1,7,GND*%
%TO.N,Earth*%
X130550000Y-99135000D03*
%TO.P,U1,8*%
%TO.N,Net-(R1-Pad1)*%
X122930000Y-99135000D03*
%TO.P,U1,9,NC*%
%TO.N,unconnected-(U1-Pad9)*%
X122930000Y-101675000D03*
%TO.P,U1,10,GND*%
%TO.N,Earth*%
X122930000Y-104215000D03*
%TO.P,U1,11,GND*%
X122930000Y-106755000D03*
%TO.P,U1,12,GND*%
X122930000Y-109295000D03*
%TO.P,U1,13,NC*%
%TO.N,unconnected-(U1-Pad13)*%
X122930000Y-111835000D03*
%TO.P,U1,14,VS*%
%TO.N,+VDC*%
X122930000Y-114375000D03*
%TD*%
D11*
%TO.P,J4,1,Pin_1*%
%TO.N,Net-(R3-Pad2)*%
X142000000Y-112000000D03*
D12*
%TO.P,J4,2,Pin_2*%
%TO.N,Earth*%
X144540000Y-112000000D03*
%TD*%
D15*
%TO.P,C9,1*%
%TO.N,+VDC*%
X109517677Y-125250000D03*
D16*
%TO.P,C9,2*%
%TO.N,Net-(J3-Pad4)*%
X105717677Y-125250000D03*
%TD*%
D11*
%TO.P,R3,1,Pin_1*%
%TO.N,Net-(R2-Pad2)*%
X124460000Y-81750000D03*
D12*
%TO.P,R3,2,Pin_2*%
%TO.N,Net-(R3-Pad2)*%
X127000000Y-81750000D03*
%TO.P,R3,3,Pin_3*%
%TO.N,Earth*%
X129540000Y-81750000D03*
%TD*%
D17*
%TO.P,D4,1,K*%
%TO.N,-12V*%
X129170000Y-136000000D03*
D18*
%TO.P,D4,2,A*%
%TO.N,Net-(D4-Pad2)*%
X139330000Y-136000000D03*
%TD*%
D13*
%TO.P,R7,1*%
%TO.N,Earth*%
X123250000Y-67250000D03*
D14*
%TO.P,R7,2*%
%TO.N,Net-(J8-Pad2)*%
X130870000Y-67250000D03*
%TD*%
D17*
%TO.P,D3,1,K*%
%TO.N,Net-(D3-Pad1)*%
X112920000Y-136000000D03*
D18*
%TO.P,D3,2,A*%
%TO.N,+12V*%
X123080000Y-136000000D03*
%TD*%
D19*
%TO.P,C5,1*%
%TO.N,Net-(C5-Pad1)*%
X132947349Y-121000000D03*
D13*
%TO.P,C5,2*%
%TO.N,Earth*%
X136747349Y-121000000D03*
%TD*%
D11*
%TO.P,J8,1,Pin_1*%
%TO.N,+VDC*%
X125460000Y-59250000D03*
D12*
%TO.P,J8,2,Pin_2*%
%TO.N,Net-(J8-Pad2)*%
X128000000Y-59250000D03*
%TD*%
D20*
%TO.P,C6,1*%
%TO.N,Net-(R1-Pad1)*%
X109000000Y-80552651D03*
D21*
%TO.P,C6,2*%
%TO.N,Net-(R2-Pad1)*%
X109000000Y-75552651D03*
%TD*%
D13*
%TO.P,C3,1*%
%TO.N,Earth*%
X124250000Y-89750000D03*
%TO.P,C3,2*%
%TO.N,Net-(R1-Pad2)*%
X129250000Y-89750000D03*
%TD*%
D22*
%TO.P,J3,1,Pin_1*%
%TO.N,-12V*%
X135000000Y-142460000D03*
D23*
%TO.P,J3,2,Pin_2*%
X135000000Y-145000000D03*
%TO.P,J3,3,Pin_3*%
%TO.N,Net-(J3-Pad4)*%
X132460000Y-142460000D03*
%TO.P,J3,4,Pin_4*%
X132460000Y-145000000D03*
%TO.P,J3,5,Pin_5*%
X129920000Y-142460000D03*
%TO.P,J3,6,Pin_6*%
X129920000Y-145000000D03*
%TO.P,J3,7,Pin_7*%
X127380000Y-142460000D03*
%TO.P,J3,8,Pin_8*%
X127380000Y-145000000D03*
%TO.P,J3,9,Pin_9*%
%TO.N,+12V*%
X124840000Y-142460000D03*
%TO.P,J3,10,Pin_10*%
X124840000Y-145000000D03*
%TO.P,J3,11,Pin_11*%
%TO.N,+5V*%
X122300000Y-142460000D03*
%TO.P,J3,12,Pin_12*%
X122300000Y-145000000D03*
%TO.P,J3,13,Pin_13*%
%TO.N,CV*%
X119760000Y-142460000D03*
%TO.P,J3,14,Pin_14*%
X119760000Y-145000000D03*
%TO.P,J3,15,Pin_15*%
%TO.N,GATE*%
X117220000Y-142460000D03*
%TO.P,J3,16,Pin_16*%
X117220000Y-145000000D03*
%TD*%
D11*
%TO.P,J1,1,Pin_1*%
%TO.N,Net-(J1-Pad1)*%
X107370000Y-98690000D03*
D12*
%TO.P,J1,2,Pin_2*%
%TO.N,Earth*%
X109910000Y-98690000D03*
%TD*%
D13*
%TO.P,R2,1*%
%TO.N,Net-(R2-Pad1)*%
X130810000Y-75250000D03*
D14*
%TO.P,R2,2*%
%TO.N,Net-(R2-Pad2)*%
X123190000Y-75250000D03*
%TD*%
D10*
%TO.P,H4,1*%
%TO.N,N/C*%
X144920000Y-148500000D03*
%TD*%
%TO.P,H1,1*%
%TO.N,N/C*%
X105080000Y-43500000D03*
%TD*%
D13*
%TO.P,R5,1*%
%TO.N,Net-(J1-Pad1)*%
X104810000Y-92690000D03*
D14*
%TO.P,R5,2*%
%TO.N,Net-(R5-Pad2)*%
X112430000Y-92690000D03*
%TD*%
D17*
%TO.P,D2,1,K*%
%TO.N,Net-(D4-Pad2)*%
X129170000Y-132250000D03*
D18*
%TO.P,D2,2,A*%
%TO.N,Earth*%
X139330000Y-132250000D03*
%TD*%
D10*
%TO.P,H3,1*%
%TO.N,N/C*%
X105080000Y-148500000D03*
%TD*%
D24*
%TO.N,Net-(R5-Pad2)*%
X135250000Y-87500000D03*
X115000000Y-87500000D03*
%TD*%
D25*
%TO.N,Net-(R5-Pad2)*%
X135250000Y-87500000D02*
X115000000Y-87500000D01*
%TD*%
%TA.AperFunction,Conductor*%
%TO.N,Earth*%
G36*
X143088127Y-40528502D02*
G01*
X143134620Y-40582158D01*
X143144724Y-40652432D01*
X143115230Y-40717012D01*
X143084715Y-40742614D01*
X143067193Y-40753101D01*
X143064467Y-40755163D01*
X143064465Y-40755164D01*
X142845493Y-40920772D01*
X142781367Y-40969270D01*
X142520559Y-41215043D01*
X142287819Y-41487546D01*
X142285900Y-41490358D01*
X142285897Y-41490363D01*
X142260919Y-41526980D01*
X142085871Y-41783591D01*
X141917077Y-42099714D01*
X141783411Y-42432218D01*
X141782491Y-42435492D01*
X141782489Y-42435497D01*
X141716661Y-42669689D01*
X141686437Y-42777213D01*
X141627290Y-43130663D01*
X141606661Y-43488434D01*
X141624792Y-43846340D01*
X141625329Y-43849695D01*
X141625330Y-43849701D01*
X141647901Y-43990618D01*
X141681470Y-44200195D01*
X141776033Y-44545859D01*
X141907374Y-44879288D01*
X142073957Y-45196582D01*
X142075858Y-45199411D01*
X142075864Y-45199421D01*
X142259569Y-45472800D01*
X142273834Y-45494029D01*
X142504665Y-45768150D01*
X142763751Y-46015738D01*
X143048061Y-46233897D01*
X143080056Y-46253350D01*
X143351355Y-46418303D01*
X143351360Y-46418306D01*
X143354270Y-46420075D01*
X143357358Y-46421521D01*
X143357357Y-46421521D01*
X143675710Y-46570649D01*
X143675720Y-46570653D01*
X143678794Y-46572093D01*
X143682012Y-46573195D01*
X143682015Y-46573196D01*
X144014615Y-46687071D01*
X144014623Y-46687073D01*
X144017838Y-46688174D01*
X144367435Y-46766959D01*
X144419728Y-46772917D01*
X144720114Y-46807142D01*
X144720122Y-46807142D01*
X144723497Y-46807527D01*
X144726901Y-46807545D01*
X144726904Y-46807545D01*
X144921227Y-46808562D01*
X145081857Y-46809403D01*
X145085243Y-46809053D01*
X145085245Y-46809053D01*
X145434932Y-46772917D01*
X145434941Y-46772916D01*
X145438324Y-46772566D01*
X145441657Y-46771852D01*
X145441660Y-46771851D01*
X145614186Y-46734864D01*
X145788727Y-46697446D01*
X146128968Y-46584922D01*
X146455066Y-46436311D01*
X146549052Y-46380506D01*
X146760262Y-46255099D01*
X146760267Y-46255096D01*
X146763207Y-46253350D01*
X147049786Y-46038180D01*
X147311451Y-45793319D01*
X147545140Y-45521630D01*
X147651750Y-45366512D01*
X147746190Y-45229101D01*
X147746195Y-45229094D01*
X147748120Y-45226292D01*
X147749732Y-45223298D01*
X147749737Y-45223290D01*
X147916395Y-44913772D01*
X147918017Y-44910760D01*
X148052842Y-44578724D01*
X148063142Y-44542568D01*
X148083527Y-44471006D01*
X148151020Y-44234070D01*
X148188885Y-44012552D01*
X148210829Y-43884175D01*
X148210829Y-43884173D01*
X148211401Y-43880828D01*
X148213511Y-43846340D01*
X148233168Y-43524928D01*
X148233278Y-43523131D01*
X148233359Y-43500000D01*
X148213979Y-43142159D01*
X148156066Y-42788505D01*
X148060297Y-42443173D01*
X148057243Y-42435497D01*
X147929052Y-42113369D01*
X147927793Y-42110205D01*
X147897768Y-42053498D01*
X147761702Y-41796513D01*
X147761698Y-41796506D01*
X147760103Y-41793494D01*
X147559190Y-41496746D01*
X147327403Y-41223432D01*
X147067454Y-40976750D01*
X146975276Y-40906529D01*
X146933209Y-40849337D01*
X146928740Y-40778481D01*
X146963288Y-40716457D01*
X147025884Y-40682958D01*
X147094079Y-40687665D01*
X147330311Y-40772191D01*
X147341735Y-40776922D01*
X147409500Y-40808972D01*
X147640292Y-40918128D01*
X147651188Y-40923953D01*
X147743181Y-40979091D01*
X147934467Y-41093744D01*
X147944748Y-41100614D01*
X148210017Y-41297350D01*
X148219556Y-41305177D01*
X148464282Y-41526985D01*
X148473015Y-41535718D01*
X148694823Y-41780444D01*
X148702650Y-41789983D01*
X148846901Y-41984483D01*
X148899386Y-42055252D01*
X148906256Y-42065533D01*
X149076045Y-42348807D01*
X149081872Y-42359708D01*
X149121348Y-42443173D01*
X149223078Y-42658265D01*
X149227810Y-42669689D01*
X149339072Y-42980645D01*
X149342661Y-42992477D01*
X149422909Y-43312841D01*
X149425321Y-43324969D01*
X149473779Y-43651650D01*
X149474990Y-43663949D01*
X149484117Y-43849701D01*
X149489390Y-43957034D01*
X149488042Y-43982598D01*
X149486309Y-43993724D01*
X149487474Y-44002630D01*
X149490436Y-44025283D01*
X149491500Y-44041621D01*
X149491500Y-147950633D01*
X149490000Y-147970018D01*
X149486309Y-147993724D01*
X149487473Y-148002627D01*
X149487473Y-148002628D01*
X149488839Y-148013076D01*
X149489751Y-148035594D01*
X149485081Y-148130663D01*
X149474991Y-148336045D01*
X149473779Y-148348350D01*
X149425321Y-148675031D01*
X149422909Y-148687159D01*
X149342661Y-149007523D01*
X149339072Y-149019355D01*
X149227810Y-149330311D01*
X149223078Y-149341735D01*
X149081874Y-149640288D01*
X149076045Y-149651193D01*
X148906256Y-149934467D01*
X148899386Y-149944748D01*
X148702650Y-150210017D01*
X148694823Y-150219556D01*
X148473020Y-150464277D01*
X148464282Y-150473015D01*
X148219556Y-150694823D01*
X148210017Y-150702650D01*
X148015517Y-150846901D01*
X147944748Y-150899386D01*
X147934467Y-150906256D01*
X147792101Y-150991588D01*
X147651188Y-151076047D01*
X147640292Y-151081872D01*
X147618155Y-151092342D01*
X147341735Y-151223078D01*
X147330311Y-151227810D01*
X147095748Y-151311738D01*
X147024871Y-151315854D01*
X146963020Y-151280998D01*
X146929832Y-151218236D01*
X146935844Y-151147494D01*
X146977644Y-151092346D01*
X147049786Y-151038180D01*
X147311451Y-150793319D01*
X147545140Y-150521630D01*
X147727429Y-150256398D01*
X147746190Y-150229101D01*
X147746195Y-150229094D01*
X147748120Y-150226292D01*
X147749732Y-150223298D01*
X147749737Y-150223290D01*
X147916395Y-149913772D01*
X147918017Y-149910760D01*
X148052842Y-149578724D01*
X148063142Y-149542568D01*
X148083527Y-149471006D01*
X148151020Y-149234070D01*
X148211401Y-148880828D01*
X148213511Y-148846340D01*
X148233168Y-148524928D01*
X148233278Y-148523131D01*
X148233359Y-148500000D01*
X148213979Y-148142159D01*
X148156066Y-147788505D01*
X148060297Y-147443173D01*
X148057243Y-147435497D01*
X147929052Y-147113369D01*
X147927793Y-147110205D01*
X147897768Y-147053498D01*
X147761702Y-146796513D01*
X147761698Y-146796506D01*
X147760103Y-146793494D01*
X147559190Y-146496746D01*
X147327403Y-146223432D01*
X147067454Y-145976750D01*
X146836341Y-145800689D01*
X146785091Y-145761647D01*
X146785089Y-145761646D01*
X146782384Y-145759585D01*
X146779472Y-145757828D01*
X146779467Y-145757825D01*
X146478443Y-145576236D01*
X146478437Y-145576233D01*
X146475528Y-145574478D01*
X146150475Y-145423593D01*
X145980751Y-145366145D01*
X145814255Y-145309789D01*
X145814250Y-145309788D01*
X145811028Y-145308697D01*
X145612681Y-145264724D01*
X145464493Y-145231871D01*
X145464487Y-145231870D01*
X145461158Y-145231132D01*
X145457769Y-145230758D01*
X145457764Y-145230757D01*
X145108338Y-145192180D01*
X145108333Y-145192180D01*
X145104957Y-145191807D01*
X145101558Y-145191801D01*
X145101557Y-145191801D01*
X144932080Y-145191505D01*
X144746592Y-145191182D01*
X144633413Y-145203277D01*
X144393639Y-145228901D01*
X144393631Y-145228902D01*
X144390256Y-145229263D01*
X144040117Y-145305606D01*
X143700271Y-145419317D01*
X143697178Y-145420739D01*
X143697177Y-145420740D01*
X143690974Y-145423593D01*
X143374694Y-145569066D01*
X143371760Y-145570822D01*
X143371758Y-145570823D01*
X143291227Y-145619020D01*
X143067193Y-145753101D01*
X143064467Y-145755163D01*
X143064465Y-145755164D01*
X142894790Y-145883489D01*
X142781367Y-145969270D01*
X142520559Y-146215043D01*
X142287819Y-146487546D01*
X142285900Y-146490358D01*
X142285897Y-146490363D01*
X142192624Y-146627097D01*
X142085871Y-146783591D01*
X141917077Y-147099714D01*
X141783411Y-147432218D01*
X141782491Y-147435492D01*
X141782489Y-147435497D01*
X141780332Y-147443173D01*
X141686437Y-147777213D01*
X141685875Y-147780570D01*
X141685875Y-147780571D01*
X141643199Y-148035597D01*
X141627290Y-148130663D01*
X141606661Y-148488434D01*
X141624792Y-148846340D01*
X141625329Y-148849695D01*
X141625330Y-148849701D01*
X141630316Y-148880828D01*
X141681470Y-149200195D01*
X141776033Y-149545859D01*
X141907374Y-149879288D01*
X142073957Y-150196582D01*
X142075858Y-150199411D01*
X142075864Y-150199421D01*
X142253841Y-150464277D01*
X142273834Y-150494029D01*
X142504665Y-150768150D01*
X142763751Y-151015738D01*
X143048061Y-151233897D01*
X143050979Y-151235671D01*
X143087437Y-151257838D01*
X143135252Y-151310319D01*
X143147103Y-151380320D01*
X143119228Y-151445615D01*
X143060477Y-151485474D01*
X143021978Y-151491500D01*
X106981120Y-151491500D01*
X106912999Y-151471498D01*
X106866506Y-151417842D01*
X106856402Y-151347568D01*
X106885896Y-151282988D01*
X106916789Y-151257161D01*
X106923207Y-151253350D01*
X106957225Y-151227809D01*
X107021095Y-151179854D01*
X107209786Y-151038180D01*
X107471451Y-150793319D01*
X107705140Y-150521630D01*
X107887429Y-150256398D01*
X107906190Y-150229101D01*
X107906195Y-150229094D01*
X107908120Y-150226292D01*
X107909732Y-150223298D01*
X107909737Y-150223290D01*
X108076395Y-149913772D01*
X108078017Y-149910760D01*
X108212842Y-149578724D01*
X108223142Y-149542568D01*
X108243527Y-149471006D01*
X108311020Y-149234070D01*
X108371401Y-148880828D01*
X108373511Y-148846340D01*
X108393168Y-148524928D01*
X108393278Y-148523131D01*
X108393359Y-148500000D01*
X108373979Y-148142159D01*
X108316066Y-147788505D01*
X108220297Y-147443173D01*
X108217243Y-147435497D01*
X108089052Y-147113369D01*
X108087793Y-147110205D01*
X108057768Y-147053498D01*
X107921702Y-146796513D01*
X107921698Y-146796506D01*
X107920103Y-146793494D01*
X107719190Y-146496746D01*
X107487403Y-146223432D01*
X107227454Y-145976750D01*
X106996341Y-145800689D01*
X106945091Y-145761647D01*
X106945089Y-145761646D01*
X106942384Y-145759585D01*
X106939472Y-145757828D01*
X106939467Y-145757825D01*
X106638443Y-145576236D01*
X106638437Y-145576233D01*
X106635528Y-145574478D01*
X106310475Y-145423593D01*
X106140751Y-145366145D01*
X105974255Y-145309789D01*
X105974250Y-145309788D01*
X105971028Y-145308697D01*
X105772681Y-145264724D01*
X105624493Y-145231871D01*
X105624487Y-145231870D01*
X105621158Y-145231132D01*
X105617769Y-145230758D01*
X105617764Y-145230757D01*
X105268338Y-145192180D01*
X105268333Y-145192180D01*
X105264957Y-145191807D01*
X105261558Y-145191801D01*
X105261557Y-145191801D01*
X105092080Y-145191505D01*
X104906592Y-145191182D01*
X104793413Y-145203277D01*
X104553639Y-145228901D01*
X104553631Y-145228902D01*
X104550256Y-145229263D01*
X104200117Y-145305606D01*
X103860271Y-145419317D01*
X103857178Y-145420739D01*
X103857177Y-145420740D01*
X103850974Y-145423593D01*
X103534694Y-145569066D01*
X103531760Y-145570822D01*
X103531758Y-145570823D01*
X103451227Y-145619020D01*
X103227193Y-145753101D01*
X103224467Y-145755163D01*
X103224465Y-145755164D01*
X103054790Y-145883489D01*
X102941367Y-145969270D01*
X102680559Y-146215043D01*
X102447819Y-146487546D01*
X102445900Y-146490358D01*
X102445897Y-146490363D01*
X102352624Y-146627097D01*
X102245871Y-146783591D01*
X102077077Y-147099714D01*
X101943411Y-147432218D01*
X101942491Y-147435492D01*
X101942489Y-147435497D01*
X101940332Y-147443173D01*
X101846437Y-147777213D01*
X101845875Y-147780570D01*
X101845875Y-147780571D01*
X101803199Y-148035597D01*
X101787290Y-148130663D01*
X101766661Y-148488434D01*
X101784792Y-148846340D01*
X101785329Y-148849695D01*
X101785330Y-148849701D01*
X101790316Y-148880828D01*
X101841470Y-149200195D01*
X101936033Y-149545859D01*
X102067374Y-149879288D01*
X102233957Y-150196582D01*
X102235858Y-150199411D01*
X102235864Y-150199421D01*
X102413841Y-150464277D01*
X102433834Y-150494029D01*
X102664665Y-150768150D01*
X102923751Y-151015738D01*
X103025694Y-151093962D01*
X103067559Y-151151297D01*
X103071781Y-151222168D01*
X103037017Y-151284071D01*
X102974304Y-151317352D01*
X102906540Y-151312556D01*
X102669689Y-151227809D01*
X102658265Y-151223078D01*
X102381845Y-151092342D01*
X102359708Y-151081872D01*
X102348812Y-151076047D01*
X102207899Y-150991588D01*
X102065533Y-150906256D01*
X102055252Y-150899386D01*
X101984483Y-150846901D01*
X101789983Y-150702650D01*
X101780444Y-150694823D01*
X101535718Y-150473015D01*
X101526980Y-150464277D01*
X101305177Y-150219556D01*
X101297350Y-150210017D01*
X101100614Y-149944748D01*
X101093744Y-149934467D01*
X100923955Y-149651193D01*
X100918126Y-149640288D01*
X100776922Y-149341735D01*
X100772190Y-149330311D01*
X100660928Y-149019355D01*
X100657339Y-149007523D01*
X100577091Y-148687159D01*
X100574679Y-148675031D01*
X100526221Y-148348351D01*
X100525009Y-148336045D01*
X100510795Y-148046695D01*
X100512387Y-148019619D01*
X100513576Y-148012552D01*
X100513729Y-148000000D01*
X100509773Y-147972376D01*
X100508500Y-147954514D01*
X100508500Y-144966695D01*
X115857251Y-144966695D01*
X115857548Y-144971848D01*
X115857548Y-144971851D01*
X115863011Y-145066590D01*
X115870110Y-145189715D01*
X115871247Y-145194761D01*
X115871248Y-145194767D01*
X115879186Y-145229988D01*
X115919222Y-145407639D01*
X116003266Y-145614616D01*
X116054019Y-145697438D01*
X116117291Y-145800688D01*
X116119987Y-145805088D01*
X116266250Y-145973938D01*
X116438126Y-146116632D01*
X116631000Y-146229338D01*
X116839692Y-146309030D01*
X116844760Y-146310061D01*
X116844763Y-146310062D01*
X116952017Y-146331883D01*
X117058597Y-146353567D01*
X117063772Y-146353757D01*
X117063774Y-146353757D01*
X117276673Y-146361564D01*
X117276677Y-146361564D01*
X117281837Y-146361753D01*
X117286957Y-146361097D01*
X117286959Y-146361097D01*
X117498288Y-146334025D01*
X117498289Y-146334025D01*
X117503416Y-146333368D01*
X117508366Y-146331883D01*
X117712429Y-146270661D01*
X117712434Y-146270659D01*
X117717384Y-146269174D01*
X117917994Y-146170896D01*
X118099860Y-146041173D01*
X118169661Y-145971616D01*
X118254435Y-145887137D01*
X118258096Y-145883489D01*
X118317594Y-145800689D01*
X118388453Y-145702077D01*
X118389776Y-145703028D01*
X118436645Y-145659857D01*
X118506580Y-145647625D01*
X118572026Y-145675144D01*
X118599875Y-145706994D01*
X118659987Y-145805088D01*
X118806250Y-145973938D01*
X118978126Y-146116632D01*
X119171000Y-146229338D01*
X119379692Y-146309030D01*
X119384760Y-146310061D01*
X119384763Y-146310062D01*
X119492017Y-146331883D01*
X119598597Y-146353567D01*
X119603772Y-146353757D01*
X119603774Y-146353757D01*
X119816673Y-146361564D01*
X119816677Y-146361564D01*
X119821837Y-146361753D01*
X119826957Y-146361097D01*
X119826959Y-146361097D01*
X120038288Y-146334025D01*
X120038289Y-146334025D01*
X120043416Y-146333368D01*
X120048366Y-146331883D01*
X120252429Y-146270661D01*
X120252434Y-146270659D01*
X120257384Y-146269174D01*
X120457994Y-146170896D01*
X120639860Y-146041173D01*
X120709661Y-145971616D01*
X120794435Y-145887137D01*
X120798096Y-145883489D01*
X120857594Y-145800689D01*
X120928453Y-145702077D01*
X120929776Y-145703028D01*
X120976645Y-145659857D01*
X121046580Y-145647625D01*
X121112026Y-145675144D01*
X121139875Y-145706994D01*
X121199987Y-145805088D01*
X121346250Y-145973938D01*
X121518126Y-146116632D01*
X121711000Y-146229338D01*
X121919692Y-146309030D01*
X121924760Y-146310061D01*
X121924763Y-146310062D01*
X122032017Y-146331883D01*
X122138597Y-146353567D01*
X122143772Y-146353757D01*
X122143774Y-146353757D01*
X122356673Y-146361564D01*
X122356677Y-146361564D01*
X122361837Y-146361753D01*
X122366957Y-146361097D01*
X122366959Y-146361097D01*
X122578288Y-146334025D01*
X122578289Y-146334025D01*
X122583416Y-146333368D01*
X122588366Y-146331883D01*
X122792429Y-146270661D01*
X122792434Y-146270659D01*
X122797384Y-146269174D01*
X122997994Y-146170896D01*
X123179860Y-146041173D01*
X123249661Y-145971616D01*
X123334435Y-145887137D01*
X123338096Y-145883489D01*
X123397594Y-145800689D01*
X123468453Y-145702077D01*
X123469776Y-145703028D01*
X123516645Y-145659857D01*
X123586580Y-145647625D01*
X123652026Y-145675144D01*
X123679875Y-145706994D01*
X123739987Y-145805088D01*
X123886250Y-145973938D01*
X124058126Y-146116632D01*
X124251000Y-146229338D01*
X124459692Y-146309030D01*
X124464760Y-146310061D01*
X124464763Y-146310062D01*
X124572017Y-146331883D01*
X124678597Y-146353567D01*
X124683772Y-146353757D01*
X124683774Y-146353757D01*
X124896673Y-146361564D01*
X124896677Y-146361564D01*
X124901837Y-146361753D01*
X124906957Y-146361097D01*
X124906959Y-146361097D01*
X125118288Y-146334025D01*
X125118289Y-146334025D01*
X125123416Y-146333368D01*
X125128366Y-146331883D01*
X125332429Y-146270661D01*
X125332434Y-146270659D01*
X125337384Y-146269174D01*
X125537994Y-146170896D01*
X125719860Y-146041173D01*
X125789661Y-145971616D01*
X125874435Y-145887137D01*
X125878096Y-145883489D01*
X125937594Y-145800689D01*
X126008453Y-145702077D01*
X126009776Y-145703028D01*
X126056645Y-145659857D01*
X126126580Y-145647625D01*
X126192026Y-145675144D01*
X126219875Y-145706994D01*
X126279987Y-145805088D01*
X126426250Y-145973938D01*
X126598126Y-146116632D01*
X126791000Y-146229338D01*
X126999692Y-146309030D01*
X127004760Y-146310061D01*
X127004763Y-146310062D01*
X127112017Y-146331883D01*
X127218597Y-146353567D01*
X127223772Y-146353757D01*
X127223774Y-146353757D01*
X127436673Y-146361564D01*
X127436677Y-146361564D01*
X127441837Y-146361753D01*
X127446957Y-146361097D01*
X127446959Y-146361097D01*
X127658288Y-146334025D01*
X127658289Y-146334025D01*
X127663416Y-146333368D01*
X127668366Y-146331883D01*
X127872429Y-146270661D01*
X127872434Y-146270659D01*
X127877384Y-146269174D01*
X128077994Y-146170896D01*
X128259860Y-146041173D01*
X128329661Y-145971616D01*
X128414435Y-145887137D01*
X128418096Y-145883489D01*
X128477594Y-145800689D01*
X128548453Y-145702077D01*
X128549776Y-145703028D01*
X128596645Y-145659857D01*
X128666580Y-145647625D01*
X128732026Y-145675144D01*
X128759875Y-145706994D01*
X128819987Y-145805088D01*
X128966250Y-145973938D01*
X129138126Y-146116632D01*
X129331000Y-146229338D01*
X129539692Y-146309030D01*
X129544760Y-146310061D01*
X129544763Y-146310062D01*
X129652017Y-146331883D01*
X129758597Y-146353567D01*
X129763772Y-146353757D01*
X129763774Y-146353757D01*
X129976673Y-146361564D01*
X129976677Y-146361564D01*
X129981837Y-146361753D01*
X129986957Y-146361097D01*
X129986959Y-146361097D01*
X130198288Y-146334025D01*
X130198289Y-146334025D01*
X130203416Y-146333368D01*
X130208366Y-146331883D01*
X130412429Y-146270661D01*
X130412434Y-146270659D01*
X130417384Y-146269174D01*
X130617994Y-146170896D01*
X130799860Y-146041173D01*
X130869661Y-145971616D01*
X130954435Y-145887137D01*
X130958096Y-145883489D01*
X131017594Y-145800689D01*
X131088453Y-145702077D01*
X131089776Y-145703028D01*
X131136645Y-145659857D01*
X131206580Y-145647625D01*
X131272026Y-145675144D01*
X131299875Y-145706994D01*
X131359987Y-145805088D01*
X131506250Y-145973938D01*
X131678126Y-146116632D01*
X131871000Y-146229338D01*
X132079692Y-146309030D01*
X132084760Y-146310061D01*
X132084763Y-146310062D01*
X132192017Y-146331883D01*
X132298597Y-146353567D01*
X132303772Y-146353757D01*
X132303774Y-146353757D01*
X132516673Y-146361564D01*
X132516677Y-146361564D01*
X132521837Y-146361753D01*
X132526957Y-146361097D01*
X132526959Y-146361097D01*
X132738288Y-146334025D01*
X132738289Y-146334025D01*
X132743416Y-146333368D01*
X132748366Y-146331883D01*
X132952429Y-146270661D01*
X132952434Y-146270659D01*
X132957384Y-146269174D01*
X133157994Y-146170896D01*
X133339860Y-146041173D01*
X133409661Y-145971616D01*
X133494435Y-145887137D01*
X133498096Y-145883489D01*
X133557594Y-145800689D01*
X133628453Y-145702077D01*
X133629776Y-145703028D01*
X133676645Y-145659857D01*
X133746580Y-145647625D01*
X133812026Y-145675144D01*
X133839875Y-145706994D01*
X133899987Y-145805088D01*
X134046250Y-145973938D01*
X134218126Y-146116632D01*
X134411000Y-146229338D01*
X134619692Y-146309030D01*
X134624760Y-146310061D01*
X134624763Y-146310062D01*
X134732017Y-146331883D01*
X134838597Y-146353567D01*
X134843772Y-146353757D01*
X134843774Y-146353757D01*
X135056673Y-146361564D01*
X135056677Y-146361564D01*
X135061837Y-146361753D01*
X135066957Y-146361097D01*
X135066959Y-146361097D01*
X135278288Y-146334025D01*
X135278289Y-146334025D01*
X135283416Y-146333368D01*
X135288366Y-146331883D01*
X135492429Y-146270661D01*
X135492434Y-146270659D01*
X135497384Y-146269174D01*
X135697994Y-146170896D01*
X135879860Y-146041173D01*
X135949661Y-145971616D01*
X136034435Y-145887137D01*
X136038096Y-145883489D01*
X136097594Y-145800689D01*
X136165435Y-145706277D01*
X136168453Y-145702077D01*
X136189320Y-145659857D01*
X136265136Y-145506453D01*
X136265137Y-145506451D01*
X136267430Y-145501811D01*
X136326327Y-145307959D01*
X136330865Y-145293023D01*
X136330865Y-145293021D01*
X136332370Y-145288069D01*
X136361529Y-145066590D01*
X136363156Y-145000000D01*
X136344852Y-144777361D01*
X136290431Y-144560702D01*
X136201354Y-144355840D01*
X136080014Y-144168277D01*
X135929670Y-144003051D01*
X135887006Y-143969357D01*
X135845944Y-143911441D01*
X135842712Y-143840518D01*
X135878337Y-143779107D01*
X135911647Y-143756376D01*
X135917007Y-143753865D01*
X135923946Y-143751550D01*
X136074348Y-143658478D01*
X136199305Y-143533303D01*
X136221357Y-143497529D01*
X136288275Y-143388968D01*
X136288276Y-143388966D01*
X136292115Y-143382738D01*
X136347797Y-143214861D01*
X136358500Y-143110400D01*
X136358500Y-141809600D01*
X136358163Y-141806350D01*
X136348238Y-141710692D01*
X136348237Y-141710688D01*
X136347526Y-141703834D01*
X136313598Y-141602138D01*
X136293868Y-141543002D01*
X136291550Y-141536054D01*
X136198478Y-141385652D01*
X136073303Y-141260695D01*
X135999030Y-141214912D01*
X135928968Y-141171725D01*
X135928966Y-141171724D01*
X135922738Y-141167885D01*
X135762254Y-141114655D01*
X135761389Y-141114368D01*
X135761387Y-141114368D01*
X135754861Y-141112203D01*
X135748025Y-141111503D01*
X135748022Y-141111502D01*
X135704969Y-141107091D01*
X135650400Y-141101500D01*
X134349600Y-141101500D01*
X134346354Y-141101837D01*
X134346350Y-141101837D01*
X134250692Y-141111762D01*
X134250688Y-141111763D01*
X134243834Y-141112474D01*
X134237298Y-141114655D01*
X134237296Y-141114655D01*
X134174631Y-141135562D01*
X134076054Y-141168450D01*
X133925652Y-141261522D01*
X133920479Y-141266704D01*
X133862686Y-141324598D01*
X133800695Y-141386697D01*
X133796855Y-141392927D01*
X133796854Y-141392928D01*
X133751275Y-141466870D01*
X133707885Y-141537262D01*
X133705579Y-141544213D01*
X133703561Y-141548542D01*
X133656644Y-141601828D01*
X133588367Y-141621290D01*
X133520407Y-141600749D01*
X133496172Y-141580094D01*
X133393152Y-141466876D01*
X133393142Y-141466867D01*
X133389670Y-141463051D01*
X133385619Y-141459852D01*
X133385615Y-141459848D01*
X133218414Y-141327800D01*
X133218410Y-141327798D01*
X133214359Y-141324598D01*
X133018789Y-141216638D01*
X133013920Y-141214914D01*
X133013916Y-141214912D01*
X132813087Y-141143795D01*
X132813083Y-141143794D01*
X132808212Y-141142069D01*
X132803119Y-141141162D01*
X132803116Y-141141161D01*
X132593373Y-141103800D01*
X132593367Y-141103799D01*
X132588284Y-141102894D01*
X132514452Y-141101992D01*
X132370081Y-141100228D01*
X132370079Y-141100228D01*
X132364911Y-141100165D01*
X132144091Y-141133955D01*
X131931756Y-141203357D01*
X131901443Y-141219137D01*
X131811678Y-141265866D01*
X131733607Y-141306507D01*
X131729474Y-141309610D01*
X131729471Y-141309612D01*
X131559100Y-141437530D01*
X131554965Y-141440635D01*
X131400629Y-141602138D01*
X131293201Y-141759621D01*
X131238293Y-141804621D01*
X131167768Y-141812792D01*
X131104021Y-141781538D01*
X131083324Y-141757054D01*
X131002822Y-141632617D01*
X131002820Y-141632614D01*
X131000014Y-141628277D01*
X130849670Y-141463051D01*
X130845619Y-141459852D01*
X130845615Y-141459848D01*
X130678414Y-141327800D01*
X130678410Y-141327798D01*
X130674359Y-141324598D01*
X130478789Y-141216638D01*
X130473920Y-141214914D01*
X130473916Y-141214912D01*
X130273087Y-141143795D01*
X130273083Y-141143794D01*
X130268212Y-141142069D01*
X130263119Y-141141162D01*
X130263116Y-141141161D01*
X130053373Y-141103800D01*
X130053367Y-141103799D01*
X130048284Y-141102894D01*
X129974452Y-141101992D01*
X129830081Y-141100228D01*
X129830079Y-141100228D01*
X129824911Y-141100165D01*
X129604091Y-141133955D01*
X129391756Y-141203357D01*
X129361443Y-141219137D01*
X129271678Y-141265866D01*
X129193607Y-141306507D01*
X129189474Y-141309610D01*
X129189471Y-141309612D01*
X129019100Y-141437530D01*
X129014965Y-141440635D01*
X128860629Y-141602138D01*
X128753201Y-141759621D01*
X128698293Y-141804621D01*
X128627768Y-141812792D01*
X128564021Y-141781538D01*
X128543324Y-141757054D01*
X128462822Y-141632617D01*
X128462820Y-141632614D01*
X128460014Y-141628277D01*
X128309670Y-141463051D01*
X128305619Y-141459852D01*
X128305615Y-141459848D01*
X128138414Y-141327800D01*
X128138410Y-141327798D01*
X128134359Y-141324598D01*
X127938789Y-141216638D01*
X127933920Y-141214914D01*
X127933916Y-141214912D01*
X127733087Y-141143795D01*
X127733083Y-141143794D01*
X127728212Y-141142069D01*
X127723119Y-141141162D01*
X127723116Y-141141161D01*
X127513373Y-141103800D01*
X127513367Y-141103799D01*
X127508284Y-141102894D01*
X127434452Y-141101992D01*
X127290081Y-141100228D01*
X127290079Y-141100228D01*
X127284911Y-141100165D01*
X127064091Y-141133955D01*
X126851756Y-141203357D01*
X126821443Y-141219137D01*
X126731678Y-141265866D01*
X126653607Y-141306507D01*
X126649474Y-141309610D01*
X126649471Y-141309612D01*
X126479100Y-141437530D01*
X126474965Y-141440635D01*
X126320629Y-141602138D01*
X126213201Y-141759621D01*
X126158293Y-141804621D01*
X126087768Y-141812792D01*
X126024021Y-141781538D01*
X126003324Y-141757054D01*
X125922822Y-141632617D01*
X125922820Y-141632614D01*
X125920014Y-141628277D01*
X125769670Y-141463051D01*
X125765619Y-141459852D01*
X125765615Y-141459848D01*
X125598414Y-141327800D01*
X125598410Y-141327798D01*
X125594359Y-141324598D01*
X125398789Y-141216638D01*
X125393920Y-141214914D01*
X125393916Y-141214912D01*
X125193087Y-141143795D01*
X125193083Y-141143794D01*
X125188212Y-141142069D01*
X125183119Y-141141162D01*
X125183116Y-141141161D01*
X124973373Y-141103800D01*
X124973367Y-141103799D01*
X124968284Y-141102894D01*
X124894452Y-141101992D01*
X124750081Y-141100228D01*
X124750079Y-141100228D01*
X124744911Y-141100165D01*
X124524091Y-141133955D01*
X124311756Y-141203357D01*
X124281443Y-141219137D01*
X124191678Y-141265866D01*
X124113607Y-141306507D01*
X124109474Y-141309610D01*
X124109471Y-141309612D01*
X123939100Y-141437530D01*
X123934965Y-141440635D01*
X123780629Y-141602138D01*
X123673201Y-141759621D01*
X123618293Y-141804621D01*
X123547768Y-141812792D01*
X123484021Y-141781538D01*
X123463324Y-141757054D01*
X123382822Y-141632617D01*
X123382820Y-141632614D01*
X123380014Y-141628277D01*
X123229670Y-141463051D01*
X123225619Y-141459852D01*
X123225615Y-141459848D01*
X123058414Y-141327800D01*
X123058410Y-141327798D01*
X123054359Y-141324598D01*
X122858789Y-141216638D01*
X122853920Y-141214914D01*
X122853916Y-141214912D01*
X122653087Y-141143795D01*
X122653083Y-141143794D01*
X122648212Y-141142069D01*
X122643119Y-141141162D01*
X122643116Y-141141161D01*
X122433373Y-141103800D01*
X122433367Y-141103799D01*
X122428284Y-141102894D01*
X122354452Y-141101992D01*
X122210081Y-141100228D01*
X122210079Y-141100228D01*
X122204911Y-141100165D01*
X121984091Y-141133955D01*
X121771756Y-141203357D01*
X121741443Y-141219137D01*
X121651678Y-141265866D01*
X121573607Y-141306507D01*
X121569474Y-141309610D01*
X121569471Y-141309612D01*
X121399100Y-141437530D01*
X121394965Y-141440635D01*
X121240629Y-141602138D01*
X121133201Y-141759621D01*
X121078293Y-141804621D01*
X121007768Y-141812792D01*
X120944021Y-141781538D01*
X120923324Y-141757054D01*
X120842822Y-141632617D01*
X120842820Y-141632614D01*
X120840014Y-141628277D01*
X120689670Y-141463051D01*
X120685619Y-141459852D01*
X120685615Y-141459848D01*
X120518414Y-141327800D01*
X120518410Y-141327798D01*
X120514359Y-141324598D01*
X120318789Y-141216638D01*
X120313920Y-141214914D01*
X120313916Y-141214912D01*
X120113087Y-141143795D01*
X120113083Y-141143794D01*
X120108212Y-141142069D01*
X120103119Y-141141162D01*
X120103116Y-141141161D01*
X119893373Y-141103800D01*
X119893367Y-141103799D01*
X119888284Y-141102894D01*
X119814452Y-141101992D01*
X119670081Y-141100228D01*
X119670079Y-141100228D01*
X119664911Y-141100165D01*
X119444091Y-141133955D01*
X119231756Y-141203357D01*
X119201443Y-141219137D01*
X119111678Y-141265866D01*
X119033607Y-141306507D01*
X119029474Y-141309610D01*
X119029471Y-141309612D01*
X118859100Y-141437530D01*
X118854965Y-141440635D01*
X118700629Y-141602138D01*
X118593201Y-141759621D01*
X118538293Y-141804621D01*
X118467768Y-141812792D01*
X118404021Y-141781538D01*
X118383324Y-141757054D01*
X118302822Y-141632617D01*
X118302820Y-141632614D01*
X118300014Y-141628277D01*
X118149670Y-141463051D01*
X118145619Y-141459852D01*
X118145615Y-141459848D01*
X117978414Y-141327800D01*
X117978410Y-141327798D01*
X117974359Y-141324598D01*
X117778789Y-141216638D01*
X117773920Y-141214914D01*
X117773916Y-141214912D01*
X117573087Y-141143795D01*
X117573083Y-141143794D01*
X117568212Y-141142069D01*
X117563119Y-141141162D01*
X117563116Y-141141161D01*
X117353373Y-141103800D01*
X117353367Y-141103799D01*
X117348284Y-141102894D01*
X117274452Y-141101992D01*
X117130081Y-141100228D01*
X117130079Y-141100228D01*
X117124911Y-141100165D01*
X116904091Y-141133955D01*
X116691756Y-141203357D01*
X116661443Y-141219137D01*
X116571678Y-141265866D01*
X116493607Y-141306507D01*
X116489474Y-141309610D01*
X116489471Y-141309612D01*
X116319100Y-141437530D01*
X116314965Y-141440635D01*
X116160629Y-141602138D01*
X116034743Y-141786680D01*
X115940688Y-141989305D01*
X115880989Y-142204570D01*
X115857251Y-142426695D01*
X115870110Y-142649715D01*
X115871247Y-142654761D01*
X115871248Y-142654767D01*
X115895304Y-142761508D01*
X115919222Y-142867639D01*
X116003266Y-143074616D01*
X116054942Y-143158944D01*
X116117291Y-143260688D01*
X116119987Y-143265088D01*
X116266250Y-143433938D01*
X116438126Y-143576632D01*
X116508595Y-143617811D01*
X116511445Y-143619476D01*
X116560169Y-143671114D01*
X116573240Y-143740897D01*
X116546509Y-143806669D01*
X116506055Y-143840027D01*
X116493607Y-143846507D01*
X116489474Y-143849610D01*
X116489471Y-143849612D01*
X116319100Y-143977530D01*
X116314965Y-143980635D01*
X116160629Y-144142138D01*
X116034743Y-144326680D01*
X115940688Y-144529305D01*
X115880989Y-144744570D01*
X115857251Y-144966695D01*
X100508500Y-144966695D01*
X100508500Y-137148134D01*
X111311500Y-137148134D01*
X111318255Y-137210316D01*
X111369385Y-137346705D01*
X111456739Y-137463261D01*
X111573295Y-137550615D01*
X111709684Y-137601745D01*
X111771866Y-137608500D01*
X114068134Y-137608500D01*
X114130316Y-137601745D01*
X114266705Y-137550615D01*
X114383261Y-137463261D01*
X114470615Y-137346705D01*
X114521745Y-137210316D01*
X114528500Y-137148134D01*
X114528500Y-136000000D01*
X121466526Y-136000000D01*
X121486391Y-136252403D01*
X121545495Y-136498591D01*
X121642384Y-136732502D01*
X121774672Y-136948376D01*
X121939102Y-137140898D01*
X122131624Y-137305328D01*
X122347498Y-137437616D01*
X122352068Y-137439509D01*
X122352072Y-137439511D01*
X122422401Y-137468642D01*
X122581409Y-137534505D01*
X122648513Y-137550615D01*
X122822784Y-137592454D01*
X122822790Y-137592455D01*
X122827597Y-137593609D01*
X123080000Y-137613474D01*
X123332403Y-137593609D01*
X123337210Y-137592455D01*
X123337216Y-137592454D01*
X123511487Y-137550615D01*
X123578591Y-137534505D01*
X123737599Y-137468642D01*
X123807928Y-137439511D01*
X123807932Y-137439509D01*
X123812502Y-137437616D01*
X124028376Y-137305328D01*
X124212426Y-137148134D01*
X127561500Y-137148134D01*
X127568255Y-137210316D01*
X127619385Y-137346705D01*
X127706739Y-137463261D01*
X127823295Y-137550615D01*
X127959684Y-137601745D01*
X128021866Y-137608500D01*
X130318134Y-137608500D01*
X130380316Y-137601745D01*
X130516705Y-137550615D01*
X130633261Y-137463261D01*
X130720615Y-137346705D01*
X130771745Y-137210316D01*
X130778500Y-137148134D01*
X130778500Y-136000000D01*
X137716526Y-136000000D01*
X137736391Y-136252403D01*
X137795495Y-136498591D01*
X137892384Y-136732502D01*
X138024672Y-136948376D01*
X138189102Y-137140898D01*
X138381624Y-137305328D01*
X138597498Y-137437616D01*
X138602068Y-137439509D01*
X138602072Y-137439511D01*
X138672401Y-137468642D01*
X138831409Y-137534505D01*
X138898513Y-137550615D01*
X139072784Y-137592454D01*
X139072790Y-137592455D01*
X139077597Y-137593609D01*
X139330000Y-137613474D01*
X139582403Y-137593609D01*
X139587210Y-137592455D01*
X139587216Y-137592454D01*
X139761487Y-137550615D01*
X139828591Y-137534505D01*
X139987599Y-137468642D01*
X140057928Y-137439511D01*
X140057932Y-137439509D01*
X140062502Y-137437616D01*
X140278376Y-137305328D01*
X140470898Y-137140898D01*
X140635328Y-136948376D01*
X140767616Y-136732502D01*
X140864505Y-136498591D01*
X140923609Y-136252403D01*
X140943474Y-136000000D01*
X140923609Y-135747597D01*
X140864505Y-135501409D01*
X140767616Y-135267498D01*
X140635328Y-135051624D01*
X140470898Y-134859102D01*
X140278376Y-134694672D01*
X140062502Y-134562384D01*
X140057932Y-134560491D01*
X140057928Y-134560489D01*
X139833164Y-134467389D01*
X139833162Y-134467388D01*
X139828591Y-134465495D01*
X139743968Y-134445179D01*
X139587216Y-134407546D01*
X139587210Y-134407545D01*
X139582403Y-134406391D01*
X139330000Y-134386526D01*
X139077597Y-134406391D01*
X139072790Y-134407545D01*
X139072784Y-134407546D01*
X138916032Y-134445179D01*
X138831409Y-134465495D01*
X138826838Y-134467388D01*
X138826836Y-134467389D01*
X138602072Y-134560489D01*
X138602068Y-134560491D01*
X138597498Y-134562384D01*
X138381624Y-134694672D01*
X138189102Y-134859102D01*
X138024672Y-135051624D01*
X137892384Y-135267498D01*
X137795495Y-135501409D01*
X137736391Y-135747597D01*
X137716526Y-136000000D01*
X130778500Y-136000000D01*
X130778500Y-134851866D01*
X130771745Y-134789684D01*
X130720615Y-134653295D01*
X130633261Y-134536739D01*
X130516705Y-134449385D01*
X130380316Y-134398255D01*
X130318134Y-134391500D01*
X128021866Y-134391500D01*
X127959684Y-134398255D01*
X127823295Y-134449385D01*
X127706739Y-134536739D01*
X127619385Y-134653295D01*
X127568255Y-134789684D01*
X127561500Y-134851866D01*
X127561500Y-137148134D01*
X124212426Y-137148134D01*
X124220898Y-137140898D01*
X124385328Y-136948376D01*
X124517616Y-136732502D01*
X124614505Y-136498591D01*
X124673609Y-136252403D01*
X124693474Y-136000000D01*
X124673609Y-135747597D01*
X124614505Y-135501409D01*
X124517616Y-135267498D01*
X124385328Y-135051624D01*
X124220898Y-134859102D01*
X124028376Y-134694672D01*
X123812502Y-134562384D01*
X123807932Y-134560491D01*
X123807928Y-134560489D01*
X123583164Y-134467389D01*
X123583162Y-134467388D01*
X123578591Y-134465495D01*
X123493968Y-134445179D01*
X123337216Y-134407546D01*
X123337210Y-134407545D01*
X123332403Y-134406391D01*
X123080000Y-134386526D01*
X122827597Y-134406391D01*
X122822790Y-134407545D01*
X122822784Y-134407546D01*
X122666032Y-134445179D01*
X122581409Y-134465495D01*
X122576838Y-134467388D01*
X122576836Y-134467389D01*
X122352072Y-134560489D01*
X122352068Y-134560491D01*
X122347498Y-134562384D01*
X122131624Y-134694672D01*
X121939102Y-134859102D01*
X121774672Y-135051624D01*
X121642384Y-135267498D01*
X121545495Y-135501409D01*
X121486391Y-135747597D01*
X121466526Y-136000000D01*
X114528500Y-136000000D01*
X114528500Y-134851866D01*
X114521745Y-134789684D01*
X114470615Y-134653295D01*
X114383261Y-134536739D01*
X114266705Y-134449385D01*
X114130316Y-134398255D01*
X114068134Y-134391500D01*
X111771866Y-134391500D01*
X111709684Y-134398255D01*
X111573295Y-134449385D01*
X111456739Y-134536739D01*
X111369385Y-134653295D01*
X111318255Y-134789684D01*
X111311500Y-134851866D01*
X111311500Y-137148134D01*
X100508500Y-137148134D01*
X100508500Y-133398134D01*
X111311500Y-133398134D01*
X111318255Y-133460316D01*
X111369385Y-133596705D01*
X111456739Y-133713261D01*
X111573295Y-133800615D01*
X111709684Y-133851745D01*
X111771866Y-133858500D01*
X114068134Y-133858500D01*
X114130316Y-133851745D01*
X114266705Y-133800615D01*
X114383261Y-133713261D01*
X114470615Y-133596705D01*
X114521745Y-133460316D01*
X114528500Y-133398134D01*
X114528500Y-132250000D01*
X121466526Y-132250000D01*
X121486391Y-132502403D01*
X121487545Y-132507210D01*
X121487546Y-132507216D01*
X121490027Y-132517548D01*
X121545495Y-132748591D01*
X121642384Y-132982502D01*
X121774672Y-133198376D01*
X121939102Y-133390898D01*
X122131624Y-133555328D01*
X122347498Y-133687616D01*
X122352068Y-133689509D01*
X122352072Y-133689511D01*
X122576836Y-133782611D01*
X122581409Y-133784505D01*
X122648513Y-133800615D01*
X122822784Y-133842454D01*
X122822790Y-133842455D01*
X122827597Y-133843609D01*
X123080000Y-133863474D01*
X123332403Y-133843609D01*
X123337210Y-133842455D01*
X123337216Y-133842454D01*
X123511487Y-133800615D01*
X123578591Y-133784505D01*
X123583164Y-133782611D01*
X123807928Y-133689511D01*
X123807932Y-133689509D01*
X123812502Y-133687616D01*
X124028376Y-133555328D01*
X124212426Y-133398134D01*
X127561500Y-133398134D01*
X127568255Y-133460316D01*
X127619385Y-133596705D01*
X127706739Y-133713261D01*
X127823295Y-133800615D01*
X127959684Y-133851745D01*
X128021866Y-133858500D01*
X130318134Y-133858500D01*
X130380316Y-133851745D01*
X130516705Y-133800615D01*
X130633261Y-133713261D01*
X130720615Y-133596705D01*
X130771745Y-133460316D01*
X130778500Y-133398134D01*
X130778500Y-132517431D01*
X137740512Y-132517431D01*
X137794817Y-132743624D01*
X137797866Y-132753009D01*
X137890936Y-132977700D01*
X137895417Y-132986494D01*
X138022496Y-133193867D01*
X138028289Y-133201840D01*
X138186249Y-133386787D01*
X138193213Y-133393751D01*
X138378160Y-133551711D01*
X138386133Y-133557504D01*
X138593506Y-133684583D01*
X138602300Y-133689064D01*
X138826991Y-133782134D01*
X138836376Y-133785183D01*
X139058385Y-133838483D01*
X139072470Y-133837778D01*
X139076000Y-133828899D01*
X139076000Y-133824597D01*
X139584000Y-133824597D01*
X139587973Y-133838128D01*
X139597431Y-133839488D01*
X139823624Y-133785183D01*
X139833009Y-133782134D01*
X140057700Y-133689064D01*
X140066494Y-133684583D01*
X140273867Y-133557504D01*
X140281840Y-133551711D01*
X140466787Y-133393751D01*
X140473751Y-133386787D01*
X140631711Y-133201840D01*
X140637504Y-133193867D01*
X140764583Y-132986494D01*
X140769064Y-132977700D01*
X140862134Y-132753009D01*
X140865183Y-132743624D01*
X140918483Y-132521615D01*
X140917778Y-132507530D01*
X140908899Y-132504000D01*
X139602115Y-132504000D01*
X139586876Y-132508475D01*
X139585671Y-132509865D01*
X139584000Y-132517548D01*
X139584000Y-133824597D01*
X139076000Y-133824597D01*
X139076000Y-132522115D01*
X139071525Y-132506876D01*
X139070135Y-132505671D01*
X139062452Y-132504000D01*
X137755403Y-132504000D01*
X137741872Y-132507973D01*
X137740512Y-132517431D01*
X130778500Y-132517431D01*
X130778500Y-131978385D01*
X137741517Y-131978385D01*
X137742222Y-131992470D01*
X137751101Y-131996000D01*
X139057885Y-131996000D01*
X139073124Y-131991525D01*
X139074329Y-131990135D01*
X139076000Y-131982452D01*
X139076000Y-131977885D01*
X139584000Y-131977885D01*
X139588475Y-131993124D01*
X139589865Y-131994329D01*
X139597548Y-131996000D01*
X140904597Y-131996000D01*
X140918128Y-131992027D01*
X140919488Y-131982569D01*
X140865183Y-131756376D01*
X140862134Y-131746991D01*
X140769064Y-131522300D01*
X140764583Y-131513506D01*
X140637504Y-131306133D01*
X140631711Y-131298160D01*
X140473751Y-131113213D01*
X140466787Y-131106249D01*
X140281840Y-130948289D01*
X140273867Y-130942496D01*
X140066494Y-130815417D01*
X140057700Y-130810936D01*
X139833009Y-130717866D01*
X139823624Y-130714817D01*
X139601615Y-130661517D01*
X139587530Y-130662222D01*
X139584000Y-130671101D01*
X139584000Y-131977885D01*
X139076000Y-131977885D01*
X139076000Y-130675403D01*
X139072027Y-130661872D01*
X139062569Y-130660512D01*
X138836376Y-130714817D01*
X138826991Y-130717866D01*
X138602300Y-130810936D01*
X138593506Y-130815417D01*
X138386133Y-130942496D01*
X138378160Y-130948289D01*
X138193213Y-131106249D01*
X138186249Y-131113213D01*
X138028289Y-131298160D01*
X138022496Y-131306133D01*
X137895417Y-131513506D01*
X137890936Y-131522300D01*
X137797866Y-131746991D01*
X137794817Y-131756376D01*
X137741517Y-131978385D01*
X130778500Y-131978385D01*
X130778500Y-131101866D01*
X130771745Y-131039684D01*
X130720615Y-130903295D01*
X130633261Y-130786739D01*
X130516705Y-130699385D01*
X130380316Y-130648255D01*
X130318134Y-130641500D01*
X128021866Y-130641500D01*
X127959684Y-130648255D01*
X127823295Y-130699385D01*
X127706739Y-130786739D01*
X127619385Y-130903295D01*
X127568255Y-131039684D01*
X127561500Y-131101866D01*
X127561500Y-133398134D01*
X124212426Y-133398134D01*
X124220898Y-133390898D01*
X124385328Y-133198376D01*
X124517616Y-132982502D01*
X124614505Y-132748591D01*
X124669973Y-132517548D01*
X124672454Y-132507216D01*
X124672455Y-132507210D01*
X124673609Y-132502403D01*
X124693474Y-132250000D01*
X124673609Y-131997597D01*
X124672379Y-131992470D01*
X124615660Y-131756221D01*
X124614505Y-131751409D01*
X124517616Y-131517498D01*
X124385328Y-131301624D01*
X124220898Y-131109102D01*
X124028376Y-130944672D01*
X123812502Y-130812384D01*
X123807932Y-130810491D01*
X123807928Y-130810489D01*
X123583164Y-130717389D01*
X123583162Y-130717388D01*
X123578591Y-130715495D01*
X123493968Y-130695179D01*
X123337216Y-130657546D01*
X123337210Y-130657545D01*
X123332403Y-130656391D01*
X123080000Y-130636526D01*
X122827597Y-130656391D01*
X122822790Y-130657545D01*
X122822784Y-130657546D01*
X122666032Y-130695179D01*
X122581409Y-130715495D01*
X122576838Y-130717388D01*
X122576836Y-130717389D01*
X122352072Y-130810489D01*
X122352068Y-130810491D01*
X122347498Y-130812384D01*
X122131624Y-130944672D01*
X121939102Y-131109102D01*
X121774672Y-131301624D01*
X121642384Y-131517498D01*
X121545495Y-131751409D01*
X121544340Y-131756221D01*
X121487622Y-131992470D01*
X121486391Y-131997597D01*
X121466526Y-132250000D01*
X114528500Y-132250000D01*
X114528500Y-131101866D01*
X114521745Y-131039684D01*
X114470615Y-130903295D01*
X114383261Y-130786739D01*
X114266705Y-130699385D01*
X114130316Y-130648255D01*
X114068134Y-130641500D01*
X111771866Y-130641500D01*
X111709684Y-130648255D01*
X111573295Y-130699385D01*
X111456739Y-130786739D01*
X111369385Y-130903295D01*
X111318255Y-131039684D01*
X111311500Y-131101866D01*
X111311500Y-133398134D01*
X100508500Y-133398134D01*
X100508500Y-126982670D01*
X141332160Y-126982670D01*
X141337887Y-126990320D01*
X141509042Y-127095205D01*
X141517837Y-127099687D01*
X141727988Y-127186734D01*
X141737373Y-127189783D01*
X141958554Y-127242885D01*
X141968301Y-127244428D01*
X142195070Y-127262275D01*
X142204930Y-127262275D01*
X142431699Y-127244428D01*
X142441446Y-127242885D01*
X142662627Y-127189783D01*
X142672012Y-127186734D01*
X142882163Y-127099687D01*
X142890958Y-127095205D01*
X143058445Y-126992568D01*
X143067907Y-126982110D01*
X143064124Y-126973334D01*
X142888924Y-126798134D01*
X144491500Y-126798134D01*
X144498255Y-126860316D01*
X144549385Y-126996705D01*
X144636739Y-127113261D01*
X144753295Y-127200615D01*
X144889684Y-127251745D01*
X144951866Y-127258500D01*
X147048134Y-127258500D01*
X147110316Y-127251745D01*
X147246705Y-127200615D01*
X147363261Y-127113261D01*
X147450615Y-126996705D01*
X147501745Y-126860316D01*
X147508500Y-126798134D01*
X147508500Y-124701866D01*
X147501745Y-124639684D01*
X147450615Y-124503295D01*
X147363261Y-124386739D01*
X147246705Y-124299385D01*
X147110316Y-124248255D01*
X147048134Y-124241500D01*
X144951866Y-124241500D01*
X144889684Y-124248255D01*
X144753295Y-124299385D01*
X144636739Y-124386739D01*
X144549385Y-124503295D01*
X144498255Y-124639684D01*
X144491500Y-124701866D01*
X144491500Y-126798134D01*
X142888924Y-126798134D01*
X142212812Y-126122022D01*
X142198868Y-126114408D01*
X142197035Y-126114539D01*
X142190420Y-126118790D01*
X141338920Y-126970290D01*
X141332160Y-126982670D01*
X100508500Y-126982670D01*
X100508500Y-125250000D01*
X104204512Y-125250000D01*
X104223142Y-125486711D01*
X104278572Y-125717594D01*
X104369437Y-125936963D01*
X104372023Y-125941183D01*
X104490918Y-126135202D01*
X104490922Y-126135208D01*
X104493501Y-126139416D01*
X104647708Y-126319969D01*
X104828261Y-126474176D01*
X104832469Y-126476755D01*
X104832475Y-126476759D01*
X105026494Y-126595654D01*
X105030714Y-126598240D01*
X105035284Y-126600133D01*
X105035288Y-126600135D01*
X105245510Y-126687211D01*
X105250083Y-126689105D01*
X105298026Y-126700615D01*
X105476153Y-126743380D01*
X105476159Y-126743381D01*
X105480966Y-126744535D01*
X105717677Y-126763165D01*
X105954388Y-126744535D01*
X105959195Y-126743381D01*
X105959201Y-126743380D01*
X106137328Y-126700615D01*
X106185271Y-126689105D01*
X106189844Y-126687211D01*
X106400066Y-126600135D01*
X106400070Y-126600133D01*
X106404640Y-126598240D01*
X106408860Y-126595654D01*
X106602879Y-126476759D01*
X106602885Y-126476755D01*
X106607093Y-126474176D01*
X106787646Y-126319969D01*
X106806295Y-126298134D01*
X108009177Y-126298134D01*
X108015932Y-126360316D01*
X108067062Y-126496705D01*
X108154416Y-126613261D01*
X108270972Y-126700615D01*
X108407361Y-126751745D01*
X108469543Y-126758500D01*
X110565811Y-126758500D01*
X110627993Y-126751745D01*
X110764382Y-126700615D01*
X110880938Y-126613261D01*
X110968292Y-126496705D01*
X111019422Y-126360316D01*
X111026177Y-126298134D01*
X111026177Y-125754930D01*
X140687725Y-125754930D01*
X140705572Y-125981699D01*
X140707115Y-125991446D01*
X140760217Y-126212627D01*
X140763266Y-126222012D01*
X140850313Y-126432163D01*
X140854795Y-126440958D01*
X140957432Y-126608445D01*
X140967890Y-126617907D01*
X140976666Y-126614124D01*
X141827978Y-125762812D01*
X141834356Y-125751132D01*
X142564408Y-125751132D01*
X142564539Y-125752965D01*
X142568790Y-125759580D01*
X143420290Y-126611080D01*
X143432670Y-126617840D01*
X143440320Y-126612113D01*
X143545205Y-126440958D01*
X143549687Y-126432163D01*
X143636734Y-126222012D01*
X143639783Y-126212627D01*
X143692885Y-125991446D01*
X143694428Y-125981699D01*
X143712275Y-125754930D01*
X143712275Y-125745070D01*
X143694428Y-125518301D01*
X143692885Y-125508554D01*
X143639783Y-125287373D01*
X143636734Y-125277988D01*
X143549687Y-125067837D01*
X143545205Y-125059042D01*
X143442568Y-124891555D01*
X143432110Y-124882093D01*
X143423334Y-124885876D01*
X142572022Y-125737188D01*
X142564408Y-125751132D01*
X141834356Y-125751132D01*
X141835592Y-125748868D01*
X141835461Y-125747035D01*
X141831210Y-125740420D01*
X140979710Y-124888920D01*
X140967330Y-124882160D01*
X140959680Y-124887887D01*
X140854795Y-125059042D01*
X140850313Y-125067837D01*
X140763266Y-125277988D01*
X140760217Y-125287373D01*
X140707115Y-125508554D01*
X140705572Y-125518301D01*
X140687725Y-125745070D01*
X140687725Y-125754930D01*
X111026177Y-125754930D01*
X111026177Y-124517890D01*
X141332093Y-124517890D01*
X141335876Y-124526666D01*
X142187188Y-125377978D01*
X142201132Y-125385592D01*
X142202965Y-125385461D01*
X142209580Y-125381210D01*
X143061080Y-124529710D01*
X143067840Y-124517330D01*
X143062113Y-124509680D01*
X142890958Y-124404795D01*
X142882163Y-124400313D01*
X142672012Y-124313266D01*
X142662627Y-124310217D01*
X142441446Y-124257115D01*
X142431699Y-124255572D01*
X142204930Y-124237725D01*
X142195070Y-124237725D01*
X141968301Y-124255572D01*
X141958554Y-124257115D01*
X141737373Y-124310217D01*
X141727988Y-124313266D01*
X141517837Y-124400313D01*
X141509042Y-124404795D01*
X141341555Y-124507432D01*
X141332093Y-124517890D01*
X111026177Y-124517890D01*
X111026177Y-124201866D01*
X111019422Y-124139684D01*
X110968292Y-124003295D01*
X110880938Y-123886739D01*
X110764382Y-123799385D01*
X110627993Y-123748255D01*
X110565811Y-123741500D01*
X108469543Y-123741500D01*
X108407361Y-123748255D01*
X108270972Y-123799385D01*
X108154416Y-123886739D01*
X108067062Y-124003295D01*
X108015932Y-124139684D01*
X108009177Y-124201866D01*
X108009177Y-126298134D01*
X106806295Y-126298134D01*
X106941853Y-126139416D01*
X106944432Y-126135208D01*
X106944436Y-126135202D01*
X107063331Y-125941183D01*
X107065917Y-125936963D01*
X107156782Y-125717594D01*
X107212212Y-125486711D01*
X107230842Y-125250000D01*
X107212212Y-125013289D01*
X107156782Y-124782406D01*
X107124837Y-124705283D01*
X107067812Y-124567611D01*
X107067810Y-124567607D01*
X107065917Y-124563037D01*
X107037908Y-124517330D01*
X106944436Y-124364798D01*
X106944432Y-124364792D01*
X106941853Y-124360584D01*
X106787646Y-124180031D01*
X106607093Y-124025824D01*
X106602885Y-124023245D01*
X106602879Y-124023241D01*
X106408860Y-123904346D01*
X106404640Y-123901760D01*
X106400070Y-123899867D01*
X106400066Y-123899865D01*
X106189844Y-123812789D01*
X106189842Y-123812788D01*
X106185271Y-123810895D01*
X106105068Y-123791640D01*
X105959201Y-123756620D01*
X105959195Y-123756619D01*
X105954388Y-123755465D01*
X105717677Y-123736835D01*
X105480966Y-123755465D01*
X105476159Y-123756619D01*
X105476153Y-123756620D01*
X105330286Y-123791640D01*
X105250083Y-123810895D01*
X105245512Y-123812788D01*
X105245510Y-123812789D01*
X105035288Y-123899865D01*
X105035284Y-123899867D01*
X105030714Y-123901760D01*
X105026494Y-123904346D01*
X104832475Y-124023241D01*
X104832469Y-124023245D01*
X104828261Y-124025824D01*
X104647708Y-124180031D01*
X104493501Y-124360584D01*
X104490922Y-124364792D01*
X104490918Y-124364798D01*
X104397446Y-124517330D01*
X104369437Y-124563037D01*
X104367544Y-124567607D01*
X104367542Y-124567611D01*
X104310517Y-124705283D01*
X104278572Y-124782406D01*
X104223142Y-125013289D01*
X104204512Y-125250000D01*
X100508500Y-125250000D01*
X100508500Y-122836062D01*
X123528493Y-122836062D01*
X123537789Y-122848077D01*
X123588994Y-122883931D01*
X123598489Y-122889414D01*
X123795947Y-122981490D01*
X123806239Y-122985236D01*
X124016688Y-123041625D01*
X124027481Y-123043528D01*
X124244525Y-123062517D01*
X124255475Y-123062517D01*
X124472519Y-123043528D01*
X124483312Y-123041625D01*
X124693761Y-122985236D01*
X124704053Y-122981490D01*
X124901511Y-122889414D01*
X124911006Y-122883931D01*
X124963048Y-122847491D01*
X124971424Y-122837012D01*
X124964356Y-122823566D01*
X124262812Y-122122022D01*
X124248868Y-122114408D01*
X124247035Y-122114539D01*
X124240420Y-122118790D01*
X123534923Y-122824287D01*
X123528493Y-122836062D01*
X100508500Y-122836062D01*
X100508500Y-121755475D01*
X122937483Y-121755475D01*
X122956472Y-121972519D01*
X122958375Y-121983312D01*
X123014764Y-122193761D01*
X123018510Y-122204053D01*
X123110586Y-122401511D01*
X123116069Y-122411006D01*
X123152509Y-122463048D01*
X123162988Y-122471424D01*
X123176434Y-122464356D01*
X123877978Y-121762812D01*
X123884356Y-121751132D01*
X124614408Y-121751132D01*
X124614539Y-121752965D01*
X124618790Y-121759580D01*
X125324287Y-122465077D01*
X125336062Y-122471507D01*
X125348077Y-122462211D01*
X125383931Y-122411006D01*
X125389414Y-122401511D01*
X125481490Y-122204053D01*
X125485236Y-122193761D01*
X125541625Y-121983312D01*
X125543528Y-121972519D01*
X125562517Y-121755475D01*
X125562517Y-121750000D01*
X127936502Y-121750000D01*
X127956457Y-121978087D01*
X127957881Y-121983400D01*
X127957881Y-121983402D01*
X128006075Y-122163261D01*
X128015716Y-122199243D01*
X128018039Y-122204224D01*
X128018039Y-122204225D01*
X128110151Y-122401762D01*
X128110154Y-122401767D01*
X128112477Y-122406749D01*
X128243802Y-122594300D01*
X128405700Y-122756198D01*
X128410208Y-122759355D01*
X128410211Y-122759357D01*
X128488389Y-122814098D01*
X128593251Y-122887523D01*
X128598233Y-122889846D01*
X128598238Y-122889849D01*
X128794765Y-122981490D01*
X128800757Y-122984284D01*
X128806065Y-122985706D01*
X128806067Y-122985707D01*
X129016598Y-123042119D01*
X129016600Y-123042119D01*
X129021913Y-123043543D01*
X129250000Y-123063498D01*
X129478087Y-123043543D01*
X129483400Y-123042119D01*
X129483402Y-123042119D01*
X129693933Y-122985707D01*
X129693935Y-122985706D01*
X129699243Y-122984284D01*
X129705235Y-122981490D01*
X129901762Y-122889849D01*
X129901767Y-122889846D01*
X129906749Y-122887523D01*
X130011611Y-122814098D01*
X130089789Y-122759357D01*
X130089792Y-122759355D01*
X130094300Y-122756198D01*
X130256198Y-122594300D01*
X130387523Y-122406749D01*
X130389846Y-122401767D01*
X130389849Y-122401762D01*
X130481961Y-122204225D01*
X130481961Y-122204224D01*
X130484284Y-122199243D01*
X130493926Y-122163261D01*
X130542119Y-121983402D01*
X130542119Y-121983400D01*
X130543543Y-121978087D01*
X130554912Y-121848134D01*
X131638849Y-121848134D01*
X131645604Y-121910316D01*
X131696734Y-122046705D01*
X131784088Y-122163261D01*
X131900644Y-122250615D01*
X132037033Y-122301745D01*
X132099215Y-122308500D01*
X133795483Y-122308500D01*
X133857665Y-122301745D01*
X133994054Y-122250615D01*
X134110610Y-122163261D01*
X134168468Y-122086062D01*
X136025842Y-122086062D01*
X136035138Y-122098077D01*
X136086343Y-122133931D01*
X136095838Y-122139414D01*
X136293296Y-122231490D01*
X136303588Y-122235236D01*
X136514037Y-122291625D01*
X136524830Y-122293528D01*
X136741874Y-122312517D01*
X136752824Y-122312517D01*
X136969868Y-122293528D01*
X136980661Y-122291625D01*
X137191110Y-122235236D01*
X137201402Y-122231490D01*
X137398860Y-122139414D01*
X137408355Y-122133931D01*
X137460397Y-122097491D01*
X137468773Y-122087012D01*
X137461705Y-122073566D01*
X136760161Y-121372022D01*
X136746217Y-121364408D01*
X136744384Y-121364539D01*
X136737769Y-121368790D01*
X136032272Y-122074287D01*
X136025842Y-122086062D01*
X134168468Y-122086062D01*
X134197964Y-122046705D01*
X134249094Y-121910316D01*
X134255849Y-121848134D01*
X134255849Y-121005475D01*
X135434832Y-121005475D01*
X135453821Y-121222519D01*
X135455724Y-121233312D01*
X135512113Y-121443761D01*
X135515859Y-121454053D01*
X135607935Y-121651511D01*
X135613418Y-121661006D01*
X135649858Y-121713048D01*
X135660337Y-121721424D01*
X135673783Y-121714356D01*
X136375327Y-121012812D01*
X136381705Y-121001132D01*
X137111757Y-121001132D01*
X137111888Y-121002965D01*
X137116139Y-121009580D01*
X137821636Y-121715077D01*
X137833411Y-121721507D01*
X137845426Y-121712211D01*
X137881280Y-121661006D01*
X137886763Y-121651511D01*
X137978839Y-121454053D01*
X137982585Y-121443761D01*
X138038974Y-121233312D01*
X138040877Y-121222519D01*
X138059866Y-121005475D01*
X138059866Y-120994525D01*
X138040877Y-120777481D01*
X138038974Y-120766688D01*
X137982585Y-120556239D01*
X137978839Y-120545947D01*
X137886763Y-120348489D01*
X137881280Y-120338994D01*
X137844840Y-120286952D01*
X137834361Y-120278576D01*
X137820915Y-120285644D01*
X137119371Y-120987188D01*
X137111757Y-121001132D01*
X136381705Y-121001132D01*
X136382941Y-120998868D01*
X136382810Y-120997035D01*
X136378559Y-120990420D01*
X135673062Y-120284923D01*
X135661287Y-120278493D01*
X135649272Y-120287789D01*
X135613418Y-120338994D01*
X135607935Y-120348489D01*
X135515859Y-120545947D01*
X135512113Y-120556239D01*
X135455724Y-120766688D01*
X135453821Y-120777481D01*
X135434832Y-120994525D01*
X135434832Y-121005475D01*
X134255849Y-121005475D01*
X134255849Y-120151866D01*
X134249094Y-120089684D01*
X134197964Y-119953295D01*
X134167756Y-119912988D01*
X136025925Y-119912988D01*
X136032993Y-119926434D01*
X136734537Y-120627978D01*
X136748481Y-120635592D01*
X136750314Y-120635461D01*
X136756929Y-120631210D01*
X137462426Y-119925713D01*
X137468856Y-119913938D01*
X137459560Y-119901923D01*
X137408355Y-119866069D01*
X137398860Y-119860586D01*
X137201402Y-119768510D01*
X137191110Y-119764764D01*
X136980661Y-119708375D01*
X136969868Y-119706472D01*
X136752824Y-119687483D01*
X136741874Y-119687483D01*
X136524830Y-119706472D01*
X136514037Y-119708375D01*
X136303588Y-119764764D01*
X136293296Y-119768510D01*
X136095838Y-119860586D01*
X136086343Y-119866069D01*
X136034301Y-119902509D01*
X136025925Y-119912988D01*
X134167756Y-119912988D01*
X134110610Y-119836739D01*
X133994054Y-119749385D01*
X133857665Y-119698255D01*
X133795483Y-119691500D01*
X132099215Y-119691500D01*
X132037033Y-119698255D01*
X131900644Y-119749385D01*
X131784088Y-119836739D01*
X131696734Y-119953295D01*
X131645604Y-120089684D01*
X131638849Y-120151866D01*
X131638849Y-121848134D01*
X130554912Y-121848134D01*
X130563498Y-121750000D01*
X130543543Y-121521913D01*
X130506981Y-121385461D01*
X130485707Y-121306067D01*
X130485706Y-121306065D01*
X130484284Y-121300757D01*
X130452834Y-121233312D01*
X130389849Y-121098238D01*
X130389846Y-121098233D01*
X130387523Y-121093251D01*
X130256198Y-120905700D01*
X130094300Y-120743802D01*
X130089792Y-120740645D01*
X130089789Y-120740643D01*
X129963920Y-120652509D01*
X129906749Y-120612477D01*
X129901767Y-120610154D01*
X129901762Y-120610151D01*
X129704225Y-120518039D01*
X129704224Y-120518039D01*
X129699243Y-120515716D01*
X129693935Y-120514294D01*
X129693933Y-120514293D01*
X129483402Y-120457881D01*
X129483400Y-120457881D01*
X129478087Y-120456457D01*
X129250000Y-120436502D01*
X129021913Y-120456457D01*
X129016600Y-120457881D01*
X129016598Y-120457881D01*
X128806067Y-120514293D01*
X128806065Y-120514294D01*
X128800757Y-120515716D01*
X128795776Y-120518039D01*
X128795775Y-120518039D01*
X128598238Y-120610151D01*
X128598233Y-120610154D01*
X128593251Y-120612477D01*
X128536080Y-120652509D01*
X128410211Y-120740643D01*
X128410208Y-120740645D01*
X128405700Y-120743802D01*
X128243802Y-120905700D01*
X128112477Y-121093251D01*
X128110154Y-121098233D01*
X128110151Y-121098238D01*
X128047166Y-121233312D01*
X128015716Y-121300757D01*
X128014294Y-121306065D01*
X128014293Y-121306067D01*
X127993019Y-121385461D01*
X127956457Y-121521913D01*
X127936502Y-121750000D01*
X125562517Y-121750000D01*
X125562517Y-121744525D01*
X125543528Y-121527481D01*
X125541625Y-121516688D01*
X125485236Y-121306239D01*
X125481490Y-121295947D01*
X125389414Y-121098489D01*
X125383931Y-121088994D01*
X125347491Y-121036952D01*
X125337012Y-121028576D01*
X125323566Y-121035644D01*
X124622022Y-121737188D01*
X124614408Y-121751132D01*
X123884356Y-121751132D01*
X123885592Y-121748868D01*
X123885461Y-121747035D01*
X123881210Y-121740420D01*
X123175713Y-121034923D01*
X123163938Y-121028493D01*
X123151923Y-121037789D01*
X123116069Y-121088994D01*
X123110586Y-121098489D01*
X123018510Y-121295947D01*
X123014764Y-121306239D01*
X122958375Y-121516688D01*
X122956472Y-121527481D01*
X122937483Y-121744525D01*
X122937483Y-121755475D01*
X100508500Y-121755475D01*
X100508500Y-120662988D01*
X123528576Y-120662988D01*
X123535644Y-120676434D01*
X124237188Y-121377978D01*
X124251132Y-121385592D01*
X124252965Y-121385461D01*
X124259580Y-121381210D01*
X124965077Y-120675713D01*
X124971507Y-120663938D01*
X124962211Y-120651923D01*
X124911006Y-120616069D01*
X124901511Y-120610586D01*
X124704053Y-120518510D01*
X124693761Y-120514764D01*
X124483312Y-120458375D01*
X124472519Y-120456472D01*
X124255475Y-120437483D01*
X124244525Y-120437483D01*
X124027481Y-120456472D01*
X124016688Y-120458375D01*
X123806239Y-120514764D01*
X123795947Y-120518510D01*
X123598489Y-120610586D01*
X123588994Y-120616069D01*
X123536952Y-120652509D01*
X123528576Y-120662988D01*
X100508500Y-120662988D01*
X100508500Y-119086062D01*
X123528493Y-119086062D01*
X123537789Y-119098077D01*
X123588994Y-119133931D01*
X123598489Y-119139414D01*
X123795947Y-119231490D01*
X123806239Y-119235236D01*
X124016688Y-119291625D01*
X124027481Y-119293528D01*
X124244525Y-119312517D01*
X124255475Y-119312517D01*
X124472519Y-119293528D01*
X124483312Y-119291625D01*
X124693761Y-119235236D01*
X124704053Y-119231490D01*
X124901511Y-119139414D01*
X124911006Y-119133931D01*
X124963048Y-119097491D01*
X124971424Y-119087012D01*
X124964356Y-119073566D01*
X124262812Y-118372022D01*
X124248868Y-118364408D01*
X124247035Y-118364539D01*
X124240420Y-118368790D01*
X123534923Y-119074287D01*
X123528493Y-119086062D01*
X100508500Y-119086062D01*
X100508500Y-118005475D01*
X122937483Y-118005475D01*
X122956472Y-118222519D01*
X122958375Y-118233312D01*
X123014764Y-118443761D01*
X123018510Y-118454053D01*
X123110586Y-118651511D01*
X123116069Y-118661006D01*
X123152509Y-118713048D01*
X123162988Y-118721424D01*
X123176434Y-118714356D01*
X123877978Y-118012812D01*
X123884356Y-118001132D01*
X124614408Y-118001132D01*
X124614539Y-118002965D01*
X124618790Y-118009580D01*
X125324287Y-118715077D01*
X125336062Y-118721507D01*
X125348077Y-118712211D01*
X125383931Y-118661006D01*
X125389414Y-118651511D01*
X125481490Y-118454053D01*
X125485236Y-118443761D01*
X125541625Y-118233312D01*
X125543528Y-118222519D01*
X125562517Y-118005475D01*
X125562517Y-118000000D01*
X127936502Y-118000000D01*
X127956457Y-118228087D01*
X127957881Y-118233400D01*
X127957881Y-118233402D01*
X127995025Y-118372022D01*
X128015716Y-118449243D01*
X128018039Y-118454224D01*
X128018039Y-118454225D01*
X128110151Y-118651762D01*
X128110154Y-118651767D01*
X128112477Y-118656749D01*
X128243802Y-118844300D01*
X128405700Y-119006198D01*
X128410208Y-119009355D01*
X128410211Y-119009357D01*
X128488389Y-119064098D01*
X128593251Y-119137523D01*
X128598233Y-119139846D01*
X128598238Y-119139849D01*
X128794765Y-119231490D01*
X128800757Y-119234284D01*
X128806065Y-119235706D01*
X128806067Y-119235707D01*
X129016598Y-119292119D01*
X129016600Y-119292119D01*
X129021913Y-119293543D01*
X129250000Y-119313498D01*
X129478087Y-119293543D01*
X129483400Y-119292119D01*
X129483402Y-119292119D01*
X129693933Y-119235707D01*
X129693935Y-119235706D01*
X129699243Y-119234284D01*
X129705235Y-119231490D01*
X129901762Y-119139849D01*
X129901767Y-119139846D01*
X129906749Y-119137523D01*
X130011611Y-119064098D01*
X130089789Y-119009357D01*
X130089792Y-119009355D01*
X130094300Y-119006198D01*
X130256198Y-118844300D01*
X130387523Y-118656749D01*
X130389846Y-118651767D01*
X130389849Y-118651762D01*
X130481961Y-118454225D01*
X130481961Y-118454224D01*
X130484284Y-118449243D01*
X130504976Y-118372022D01*
X130542119Y-118233402D01*
X130542119Y-118233400D01*
X130543543Y-118228087D01*
X130563498Y-118000000D01*
X130543543Y-117771913D01*
X130506981Y-117635461D01*
X130485707Y-117556067D01*
X130485706Y-117556065D01*
X130484284Y-117550757D01*
X130389966Y-117348489D01*
X130389849Y-117348238D01*
X130389846Y-117348233D01*
X130387523Y-117343251D01*
X130256198Y-117155700D01*
X130094300Y-116993802D01*
X130089792Y-116990645D01*
X130089789Y-116990643D01*
X129963920Y-116902509D01*
X129906749Y-116862477D01*
X129901767Y-116860154D01*
X129901762Y-116860151D01*
X129704225Y-116768039D01*
X129704224Y-116768039D01*
X129699243Y-116765716D01*
X129693935Y-116764294D01*
X129693933Y-116764293D01*
X129483402Y-116707881D01*
X129483400Y-116707881D01*
X129478087Y-116706457D01*
X129250000Y-116686502D01*
X129021913Y-116706457D01*
X129016600Y-116707881D01*
X129016598Y-116707881D01*
X128806067Y-116764293D01*
X128806065Y-116764294D01*
X128800757Y-116765716D01*
X128795776Y-116768039D01*
X128795775Y-116768039D01*
X128598238Y-116860151D01*
X128598233Y-116860154D01*
X128593251Y-116862477D01*
X128536080Y-116902509D01*
X128410211Y-116990643D01*
X128410208Y-116990645D01*
X128405700Y-116993802D01*
X128243802Y-117155700D01*
X128112477Y-117343251D01*
X128110154Y-117348233D01*
X128110151Y-117348238D01*
X128110034Y-117348489D01*
X128015716Y-117550757D01*
X128014294Y-117556065D01*
X128014293Y-117556067D01*
X127993019Y-117635461D01*
X127956457Y-117771913D01*
X127936502Y-118000000D01*
X125562517Y-118000000D01*
X125562517Y-117994525D01*
X125543528Y-117777481D01*
X125541625Y-117766688D01*
X125485236Y-117556239D01*
X125481490Y-117545947D01*
X125389414Y-117348489D01*
X125383931Y-117338994D01*
X125347491Y-117286952D01*
X125337012Y-117278576D01*
X125323566Y-117285644D01*
X124622022Y-117987188D01*
X124614408Y-118001132D01*
X123884356Y-118001132D01*
X123885592Y-117998868D01*
X123885461Y-117997035D01*
X123881210Y-117990420D01*
X123175713Y-117284923D01*
X123163938Y-117278493D01*
X123151923Y-117287789D01*
X123116069Y-117338994D01*
X123110586Y-117348489D01*
X123018510Y-117545947D01*
X123014764Y-117556239D01*
X122958375Y-117766688D01*
X122956472Y-117777481D01*
X122937483Y-117994525D01*
X122937483Y-118005475D01*
X100508500Y-118005475D01*
X100508500Y-116912988D01*
X123528576Y-116912988D01*
X123535644Y-116926434D01*
X124237188Y-117627978D01*
X124251132Y-117635592D01*
X124252965Y-117635461D01*
X124259580Y-117631210D01*
X124965077Y-116925713D01*
X124971507Y-116913938D01*
X124962211Y-116901923D01*
X124911006Y-116866069D01*
X124901511Y-116860586D01*
X124704053Y-116768510D01*
X124693761Y-116764764D01*
X124483312Y-116708375D01*
X124472519Y-116706472D01*
X124255475Y-116687483D01*
X124244525Y-116687483D01*
X124027481Y-116706472D01*
X124016688Y-116708375D01*
X123806239Y-116764764D01*
X123795947Y-116768510D01*
X123598489Y-116860586D01*
X123588994Y-116866069D01*
X123536952Y-116902509D01*
X123528576Y-116912988D01*
X100508500Y-116912988D01*
X100508500Y-114646062D01*
X115278493Y-114646062D01*
X115287789Y-114658077D01*
X115338994Y-114693931D01*
X115348489Y-114699414D01*
X115545947Y-114791490D01*
X115556239Y-114795236D01*
X115766688Y-114851625D01*
X115777481Y-114853528D01*
X115994525Y-114872517D01*
X116005475Y-114872517D01*
X116222519Y-114853528D01*
X116233312Y-114851625D01*
X116443761Y-114795236D01*
X116454053Y-114791490D01*
X116651511Y-114699414D01*
X116661006Y-114693931D01*
X116713048Y-114657491D01*
X116721424Y-114647012D01*
X116714356Y-114633566D01*
X116455790Y-114375000D01*
X121616502Y-114375000D01*
X121636457Y-114603087D01*
X121637881Y-114608400D01*
X121637881Y-114608402D01*
X121687944Y-114795236D01*
X121695716Y-114824243D01*
X121698039Y-114829224D01*
X121698039Y-114829225D01*
X121790151Y-115026762D01*
X121790154Y-115026767D01*
X121792477Y-115031749D01*
X121923802Y-115219300D01*
X122085700Y-115381198D01*
X122090208Y-115384355D01*
X122090211Y-115384357D01*
X122131542Y-115413297D01*
X122273251Y-115512523D01*
X122278233Y-115514846D01*
X122278238Y-115514849D01*
X122475775Y-115606961D01*
X122480757Y-115609284D01*
X122486065Y-115610706D01*
X122486067Y-115610707D01*
X122696598Y-115667119D01*
X122696600Y-115667119D01*
X122701913Y-115668543D01*
X122930000Y-115688498D01*
X123158087Y-115668543D01*
X123163400Y-115667119D01*
X123163402Y-115667119D01*
X123373933Y-115610707D01*
X123373935Y-115610706D01*
X123379243Y-115609284D01*
X123384225Y-115606961D01*
X123581762Y-115514849D01*
X123581767Y-115514846D01*
X123586749Y-115512523D01*
X123728458Y-115413297D01*
X123769789Y-115384357D01*
X123769792Y-115384355D01*
X123774300Y-115381198D01*
X123936198Y-115219300D01*
X124067523Y-115031749D01*
X124069846Y-115026767D01*
X124069849Y-115026762D01*
X124161961Y-114829225D01*
X124161961Y-114829224D01*
X124164284Y-114824243D01*
X124172057Y-114795236D01*
X124222119Y-114608402D01*
X124222119Y-114608400D01*
X124223543Y-114603087D01*
X124243498Y-114375000D01*
X124223543Y-114146913D01*
X124201108Y-114063185D01*
X124165707Y-113931067D01*
X124165706Y-113931065D01*
X124164284Y-113925757D01*
X124161961Y-113920775D01*
X124069849Y-113723238D01*
X124069846Y-113723233D01*
X124067523Y-113718251D01*
X123954638Y-113557035D01*
X123939357Y-113535211D01*
X123939355Y-113535208D01*
X123936198Y-113530700D01*
X123774300Y-113368802D01*
X123769792Y-113365645D01*
X123769789Y-113365643D01*
X123596607Y-113244380D01*
X123586749Y-113237477D01*
X123581767Y-113235154D01*
X123581762Y-113235151D01*
X123547543Y-113219195D01*
X123494258Y-113172278D01*
X123474797Y-113104001D01*
X123495339Y-113036041D01*
X123547543Y-112990805D01*
X123581762Y-112974849D01*
X123581767Y-112974846D01*
X123586749Y-112972523D01*
X123755289Y-112854510D01*
X123769789Y-112844357D01*
X123769792Y-112844355D01*
X123774300Y-112841198D01*
X123936198Y-112679300D01*
X123940155Y-112673650D01*
X124052184Y-112513655D01*
X124067523Y-112491749D01*
X124069846Y-112486767D01*
X124069849Y-112486762D01*
X124161961Y-112289225D01*
X124161961Y-112289224D01*
X124164284Y-112284243D01*
X124173619Y-112249407D01*
X124222119Y-112068402D01*
X124222119Y-112068400D01*
X124223543Y-112063087D01*
X124243498Y-111835000D01*
X129236502Y-111835000D01*
X129256457Y-112063087D01*
X129257881Y-112068400D01*
X129257881Y-112068402D01*
X129306382Y-112249407D01*
X129315716Y-112284243D01*
X129318039Y-112289224D01*
X129318039Y-112289225D01*
X129410151Y-112486762D01*
X129410154Y-112486767D01*
X129412477Y-112491749D01*
X129427816Y-112513655D01*
X129539846Y-112673650D01*
X129543802Y-112679300D01*
X129705700Y-112841198D01*
X129710211Y-112844357D01*
X129714424Y-112847892D01*
X129713473Y-112849026D01*
X129753471Y-112899071D01*
X129760776Y-112969690D01*
X129728742Y-113033049D01*
X129667538Y-113069030D01*
X129650483Y-113072082D01*
X129639684Y-113073255D01*
X129503295Y-113124385D01*
X129386739Y-113211739D01*
X129299385Y-113328295D01*
X129248255Y-113464684D01*
X129241500Y-113526866D01*
X129241500Y-115223134D01*
X129248255Y-115285316D01*
X129299385Y-115421705D01*
X129386739Y-115538261D01*
X129503295Y-115625615D01*
X129639684Y-115676745D01*
X129701866Y-115683500D01*
X131398134Y-115683500D01*
X131460316Y-115676745D01*
X131596705Y-115625615D01*
X131713261Y-115538261D01*
X131800615Y-115421705D01*
X131851745Y-115285316D01*
X131858500Y-115223134D01*
X131858500Y-113526866D01*
X131851745Y-113464684D01*
X131800615Y-113328295D01*
X131713261Y-113211739D01*
X131596705Y-113124385D01*
X131460316Y-113073255D01*
X131449526Y-113072083D01*
X131447394Y-113071197D01*
X131444778Y-113070575D01*
X131444879Y-113070152D01*
X131383965Y-113044845D01*
X131343537Y-112986483D01*
X131341078Y-112915529D01*
X131377371Y-112854510D01*
X131386031Y-112847511D01*
X131389793Y-112844354D01*
X131394300Y-112841198D01*
X131556198Y-112679300D01*
X131560155Y-112673650D01*
X131562431Y-112670400D01*
X140621500Y-112670400D01*
X140621837Y-112673646D01*
X140621837Y-112673650D01*
X140631378Y-112765599D01*
X140632474Y-112776166D01*
X140688450Y-112943946D01*
X140781522Y-113094348D01*
X140906697Y-113219305D01*
X140912927Y-113223145D01*
X140912928Y-113223146D01*
X141050090Y-113307694D01*
X141057262Y-113312115D01*
X141107720Y-113328851D01*
X141218611Y-113365632D01*
X141218613Y-113365632D01*
X141225139Y-113367797D01*
X141231975Y-113368497D01*
X141231978Y-113368498D01*
X141265828Y-113371966D01*
X141329600Y-113378500D01*
X142670400Y-113378500D01*
X142673646Y-113378163D01*
X142673650Y-113378163D01*
X142769308Y-113368238D01*
X142769312Y-113368237D01*
X142776166Y-113367526D01*
X142782702Y-113365345D01*
X142782704Y-113365345D01*
X142915294Y-113321109D01*
X142943946Y-113311550D01*
X143094348Y-113218478D01*
X143173214Y-113139474D01*
X143765355Y-113139474D01*
X143770636Y-113146529D01*
X143938087Y-113244380D01*
X143947370Y-113248827D01*
X144149402Y-113325975D01*
X144159300Y-113328851D01*
X144371219Y-113371966D01*
X144381447Y-113373185D01*
X144597560Y-113381111D01*
X144607846Y-113380644D01*
X144822353Y-113353164D01*
X144832439Y-113351021D01*
X145039581Y-113288875D01*
X145049158Y-113285122D01*
X145243378Y-113189975D01*
X145252216Y-113184706D01*
X145303587Y-113148064D01*
X145311988Y-113137364D01*
X145305002Y-113124213D01*
X144552811Y-112372021D01*
X144538868Y-112364408D01*
X144537034Y-112364539D01*
X144530420Y-112368790D01*
X143772112Y-113127099D01*
X143765355Y-113139474D01*
X143173214Y-113139474D01*
X143219305Y-113093303D01*
X143232385Y-113072084D01*
X143308275Y-112948968D01*
X143308276Y-112948966D01*
X143312115Y-112942738D01*
X143343886Y-112846952D01*
X143344787Y-112844235D01*
X143385218Y-112785875D01*
X143409687Y-112771102D01*
X144167979Y-112012811D01*
X144174356Y-112001132D01*
X144904408Y-112001132D01*
X144904539Y-112002966D01*
X144908790Y-112009580D01*
X145664810Y-112765599D01*
X145676816Y-112772155D01*
X145688555Y-112763186D01*
X145722206Y-112716356D01*
X145727516Y-112707519D01*
X145823329Y-112513655D01*
X145827128Y-112504060D01*
X145889991Y-112297156D01*
X145892170Y-112287075D01*
X145920635Y-112070868D01*
X145921154Y-112064193D01*
X145922641Y-112003364D01*
X145922447Y-111996646D01*
X145904580Y-111779316D01*
X145902897Y-111769154D01*
X145850213Y-111559407D01*
X145846895Y-111549660D01*
X145760659Y-111351330D01*
X145755792Y-111342255D01*
X145687528Y-111236734D01*
X145676843Y-111227531D01*
X145667276Y-111231935D01*
X144912021Y-111987189D01*
X144904408Y-112001132D01*
X144174356Y-112001132D01*
X144175592Y-111998868D01*
X144175461Y-111997034D01*
X144171210Y-111990420D01*
X143415453Y-111234664D01*
X143404734Y-111228811D01*
X143354532Y-111178609D01*
X143345595Y-111158099D01*
X143313868Y-111063002D01*
X143311550Y-111056054D01*
X143218478Y-110905652D01*
X143174891Y-110862141D01*
X143766936Y-110862141D01*
X143773679Y-110874468D01*
X144527189Y-111627979D01*
X144541132Y-111635592D01*
X144542966Y-111635461D01*
X144549580Y-111631210D01*
X145307633Y-110873156D01*
X145314650Y-110860305D01*
X145307295Y-110850210D01*
X145300664Y-110845804D01*
X145111334Y-110741288D01*
X145101937Y-110737065D01*
X144898086Y-110664877D01*
X144888115Y-110662243D01*
X144675216Y-110624321D01*
X144664962Y-110623351D01*
X144448716Y-110620708D01*
X144438431Y-110621428D01*
X144224666Y-110654138D01*
X144214647Y-110656525D01*
X144009086Y-110723713D01*
X143999584Y-110727708D01*
X143807768Y-110827560D01*
X143799048Y-110833052D01*
X143775390Y-110850815D01*
X143766936Y-110862141D01*
X143174891Y-110862141D01*
X143093303Y-110780695D01*
X143087072Y-110776854D01*
X142948968Y-110691725D01*
X142948966Y-110691724D01*
X142942738Y-110687885D01*
X142848190Y-110656525D01*
X142781389Y-110634368D01*
X142781387Y-110634368D01*
X142774861Y-110632203D01*
X142768025Y-110631503D01*
X142768022Y-110631502D01*
X142724969Y-110627091D01*
X142670400Y-110621500D01*
X141329600Y-110621500D01*
X141326354Y-110621837D01*
X141326350Y-110621837D01*
X141230692Y-110631762D01*
X141230688Y-110631763D01*
X141223834Y-110632474D01*
X141217298Y-110634655D01*
X141217296Y-110634655D01*
X141085194Y-110678728D01*
X141056054Y-110688450D01*
X140905652Y-110781522D01*
X140780695Y-110906697D01*
X140776855Y-110912927D01*
X140776854Y-110912928D01*
X140728915Y-110990700D01*
X140687885Y-111057262D01*
X140632203Y-111225139D01*
X140621500Y-111329600D01*
X140621500Y-112670400D01*
X131562431Y-112670400D01*
X131672184Y-112513655D01*
X131687523Y-112491749D01*
X131689846Y-112486767D01*
X131689849Y-112486762D01*
X131781961Y-112289225D01*
X131781961Y-112289224D01*
X131784284Y-112284243D01*
X131793619Y-112249407D01*
X131842119Y-112068402D01*
X131842119Y-112068400D01*
X131843543Y-112063087D01*
X131863498Y-111835000D01*
X131843543Y-111606913D01*
X131839418Y-111591517D01*
X131785707Y-111391067D01*
X131785706Y-111391065D01*
X131784284Y-111385757D01*
X131758098Y-111329600D01*
X131689849Y-111183238D01*
X131689846Y-111183233D01*
X131687523Y-111178251D01*
X131602805Y-111057262D01*
X131559357Y-110995211D01*
X131559355Y-110995208D01*
X131556198Y-110990700D01*
X131394300Y-110828802D01*
X131389792Y-110825645D01*
X131389789Y-110825643D01*
X131249923Y-110727708D01*
X131206749Y-110697477D01*
X131201767Y-110695154D01*
X131201762Y-110695151D01*
X131166951Y-110678919D01*
X131113666Y-110632002D01*
X131094205Y-110563725D01*
X131114747Y-110495765D01*
X131166951Y-110450529D01*
X131201511Y-110434414D01*
X131211007Y-110428931D01*
X131389467Y-110303972D01*
X131397875Y-110296916D01*
X131551916Y-110142875D01*
X131558972Y-110134467D01*
X131683931Y-109956007D01*
X131689414Y-109946511D01*
X131781490Y-109749053D01*
X131785236Y-109738761D01*
X131831394Y-109566497D01*
X131831058Y-109552401D01*
X131823116Y-109549000D01*
X129282033Y-109549000D01*
X129268502Y-109552973D01*
X129267273Y-109561522D01*
X129314764Y-109738761D01*
X129318510Y-109749053D01*
X129410586Y-109946511D01*
X129416069Y-109956007D01*
X129541028Y-110134467D01*
X129548084Y-110142875D01*
X129702125Y-110296916D01*
X129710533Y-110303972D01*
X129888993Y-110428931D01*
X129898489Y-110434414D01*
X129933049Y-110450529D01*
X129986334Y-110497446D01*
X130005795Y-110565723D01*
X129985253Y-110633683D01*
X129933049Y-110678919D01*
X129898238Y-110695151D01*
X129898233Y-110695154D01*
X129893251Y-110697477D01*
X129850077Y-110727708D01*
X129710211Y-110825643D01*
X129710208Y-110825645D01*
X129705700Y-110828802D01*
X129543802Y-110990700D01*
X129540645Y-110995208D01*
X129540643Y-110995211D01*
X129497195Y-111057262D01*
X129412477Y-111178251D01*
X129410154Y-111183233D01*
X129410151Y-111183238D01*
X129341902Y-111329600D01*
X129315716Y-111385757D01*
X129314294Y-111391065D01*
X129314293Y-111391067D01*
X129260582Y-111591517D01*
X129256457Y-111606913D01*
X129236502Y-111835000D01*
X124243498Y-111835000D01*
X124223543Y-111606913D01*
X124219418Y-111591517D01*
X124165707Y-111391067D01*
X124165706Y-111391065D01*
X124164284Y-111385757D01*
X124138098Y-111329600D01*
X124069849Y-111183238D01*
X124069846Y-111183233D01*
X124067523Y-111178251D01*
X123982805Y-111057262D01*
X123939357Y-110995211D01*
X123939355Y-110995208D01*
X123936198Y-110990700D01*
X123774300Y-110828802D01*
X123769792Y-110825645D01*
X123769789Y-110825643D01*
X123629923Y-110727708D01*
X123586749Y-110697477D01*
X123581767Y-110695154D01*
X123581762Y-110695151D01*
X123546951Y-110678919D01*
X123493666Y-110632002D01*
X123474205Y-110563725D01*
X123494747Y-110495765D01*
X123546951Y-110450529D01*
X123581511Y-110434414D01*
X123591007Y-110428931D01*
X123769467Y-110303972D01*
X123777875Y-110296916D01*
X123931916Y-110142875D01*
X123938972Y-110134467D01*
X124063931Y-109956007D01*
X124069414Y-109946511D01*
X124161490Y-109749053D01*
X124165236Y-109738761D01*
X124211394Y-109566497D01*
X124211058Y-109552401D01*
X124203116Y-109549000D01*
X121662033Y-109549000D01*
X121648502Y-109552973D01*
X121647273Y-109561522D01*
X121694764Y-109738761D01*
X121698510Y-109749053D01*
X121790586Y-109946511D01*
X121796069Y-109956007D01*
X121921028Y-110134467D01*
X121928084Y-110142875D01*
X122082125Y-110296916D01*
X122090533Y-110303972D01*
X122268993Y-110428931D01*
X122278489Y-110434414D01*
X122313049Y-110450529D01*
X122366334Y-110497446D01*
X122385795Y-110565723D01*
X122365253Y-110633683D01*
X122313049Y-110678919D01*
X122278238Y-110695151D01*
X122278233Y-110695154D01*
X122273251Y-110697477D01*
X122230077Y-110727708D01*
X122090211Y-110825643D01*
X122090208Y-110825645D01*
X122085700Y-110828802D01*
X121923802Y-110990700D01*
X121920645Y-110995208D01*
X121920643Y-110995211D01*
X121877195Y-111057262D01*
X121792477Y-111178251D01*
X121790154Y-111183233D01*
X121790151Y-111183238D01*
X121721902Y-111329600D01*
X121695716Y-111385757D01*
X121694294Y-111391065D01*
X121694293Y-111391067D01*
X121640582Y-111591517D01*
X121636457Y-111606913D01*
X121616502Y-111835000D01*
X121636457Y-112063087D01*
X121637881Y-112068400D01*
X121637881Y-112068402D01*
X121686382Y-112249407D01*
X121695716Y-112284243D01*
X121698039Y-112289224D01*
X121698039Y-112289225D01*
X121790151Y-112486762D01*
X121790154Y-112486767D01*
X121792477Y-112491749D01*
X121807816Y-112513655D01*
X121919846Y-112673650D01*
X121923802Y-112679300D01*
X122085700Y-112841198D01*
X122090208Y-112844355D01*
X122090211Y-112844357D01*
X122104711Y-112854510D01*
X122273251Y-112972523D01*
X122278233Y-112974846D01*
X122278238Y-112974849D01*
X122312457Y-112990805D01*
X122365742Y-113037722D01*
X122385203Y-113105999D01*
X122364661Y-113173959D01*
X122312457Y-113219195D01*
X122278238Y-113235151D01*
X122278233Y-113235154D01*
X122273251Y-113237477D01*
X122263393Y-113244380D01*
X122090211Y-113365643D01*
X122090208Y-113365645D01*
X122085700Y-113368802D01*
X121923802Y-113530700D01*
X121920645Y-113535208D01*
X121920643Y-113535211D01*
X121905362Y-113557035D01*
X121792477Y-113718251D01*
X121790154Y-113723233D01*
X121790151Y-113723238D01*
X121698039Y-113920775D01*
X121695716Y-113925757D01*
X121694294Y-113931065D01*
X121694293Y-113931067D01*
X121658892Y-114063185D01*
X121636457Y-114146913D01*
X121616502Y-114375000D01*
X116455790Y-114375000D01*
X116012812Y-113932022D01*
X115998868Y-113924408D01*
X115997035Y-113924539D01*
X115990420Y-113928790D01*
X115284923Y-114634287D01*
X115278493Y-114646062D01*
X100508500Y-114646062D01*
X100508500Y-113360400D01*
X106121500Y-113360400D01*
X106121837Y-113363646D01*
X106121837Y-113363650D01*
X106131553Y-113457285D01*
X106132474Y-113466166D01*
X106188450Y-113633946D01*
X106281522Y-113784348D01*
X106406697Y-113909305D01*
X106412927Y-113913145D01*
X106412928Y-113913146D01*
X106550090Y-113997694D01*
X106557262Y-114002115D01*
X106599049Y-114015975D01*
X106718611Y-114055632D01*
X106718613Y-114055632D01*
X106725139Y-114057797D01*
X106731975Y-114058497D01*
X106731978Y-114058498D01*
X106765828Y-114061966D01*
X106829600Y-114068500D01*
X108170400Y-114068500D01*
X108173646Y-114068163D01*
X108173650Y-114068163D01*
X108269308Y-114058238D01*
X108269312Y-114058237D01*
X108276166Y-114057526D01*
X108282702Y-114055345D01*
X108282704Y-114055345D01*
X108414806Y-114011272D01*
X108443946Y-114001550D01*
X108594348Y-113908478D01*
X108673214Y-113829474D01*
X109265355Y-113829474D01*
X109270636Y-113836529D01*
X109438087Y-113934380D01*
X109447370Y-113938827D01*
X109649402Y-114015975D01*
X109659300Y-114018851D01*
X109871219Y-114061966D01*
X109881447Y-114063185D01*
X110097560Y-114071111D01*
X110107846Y-114070644D01*
X110322353Y-114043164D01*
X110332439Y-114041021D01*
X110539581Y-113978875D01*
X110549158Y-113975122D01*
X110743378Y-113879975D01*
X110752216Y-113874706D01*
X110803587Y-113838064D01*
X110811988Y-113827364D01*
X110805002Y-113814213D01*
X110556264Y-113565475D01*
X114687483Y-113565475D01*
X114706472Y-113782519D01*
X114708375Y-113793312D01*
X114764764Y-114003761D01*
X114768510Y-114014053D01*
X114860586Y-114211511D01*
X114866069Y-114221006D01*
X114902509Y-114273048D01*
X114912988Y-114281424D01*
X114926434Y-114274356D01*
X115627978Y-113572812D01*
X115634356Y-113561132D01*
X116364408Y-113561132D01*
X116364539Y-113562965D01*
X116368790Y-113569580D01*
X117074287Y-114275077D01*
X117086062Y-114281507D01*
X117098077Y-114272211D01*
X117133931Y-114221006D01*
X117139414Y-114211511D01*
X117231490Y-114014053D01*
X117235236Y-114003761D01*
X117291625Y-113793312D01*
X117293528Y-113782519D01*
X117312517Y-113565475D01*
X117312517Y-113554525D01*
X117293528Y-113337481D01*
X117291625Y-113326688D01*
X117235236Y-113116239D01*
X117231490Y-113105947D01*
X117139414Y-112908489D01*
X117133931Y-112898994D01*
X117097491Y-112846952D01*
X117087012Y-112838576D01*
X117073566Y-112845644D01*
X116372022Y-113547188D01*
X116364408Y-113561132D01*
X115634356Y-113561132D01*
X115635592Y-113558868D01*
X115635461Y-113557035D01*
X115631210Y-113550420D01*
X114925713Y-112844923D01*
X114913938Y-112838493D01*
X114901923Y-112847789D01*
X114866069Y-112898994D01*
X114860586Y-112908489D01*
X114768510Y-113105947D01*
X114764764Y-113116239D01*
X114708375Y-113326688D01*
X114706472Y-113337481D01*
X114687483Y-113554525D01*
X114687483Y-113565475D01*
X110556264Y-113565475D01*
X110052811Y-113062021D01*
X110038868Y-113054408D01*
X110037034Y-113054539D01*
X110030420Y-113058790D01*
X109272112Y-113817099D01*
X109265355Y-113829474D01*
X108673214Y-113829474D01*
X108719305Y-113783303D01*
X108812115Y-113632738D01*
X108844787Y-113534235D01*
X108885218Y-113475875D01*
X108909687Y-113461102D01*
X109667979Y-112702811D01*
X109674356Y-112691132D01*
X110404408Y-112691132D01*
X110404539Y-112692966D01*
X110408790Y-112699580D01*
X111164810Y-113455599D01*
X111176816Y-113462155D01*
X111188555Y-113453186D01*
X111222206Y-113406356D01*
X111227516Y-113397519D01*
X111323329Y-113203655D01*
X111327128Y-113194060D01*
X111389991Y-112987156D01*
X111392170Y-112977075D01*
X111420635Y-112760868D01*
X111421154Y-112754193D01*
X111422641Y-112693364D01*
X111422447Y-112686646D01*
X111404882Y-112472988D01*
X115278576Y-112472988D01*
X115285644Y-112486434D01*
X115987188Y-113187978D01*
X116001132Y-113195592D01*
X116002965Y-113195461D01*
X116009580Y-113191210D01*
X116715077Y-112485713D01*
X116721507Y-112473938D01*
X116712211Y-112461923D01*
X116661006Y-112426069D01*
X116651511Y-112420586D01*
X116454053Y-112328510D01*
X116443761Y-112324764D01*
X116233312Y-112268375D01*
X116222519Y-112266472D01*
X116005475Y-112247483D01*
X115994525Y-112247483D01*
X115777481Y-112266472D01*
X115766688Y-112268375D01*
X115556239Y-112324764D01*
X115545947Y-112328510D01*
X115348489Y-112420586D01*
X115338994Y-112426069D01*
X115286952Y-112462509D01*
X115278576Y-112472988D01*
X111404882Y-112472988D01*
X111404580Y-112469316D01*
X111402897Y-112459154D01*
X111350213Y-112249407D01*
X111346895Y-112239660D01*
X111260659Y-112041330D01*
X111255792Y-112032255D01*
X111187528Y-111926734D01*
X111176843Y-111917531D01*
X111167276Y-111921935D01*
X110412021Y-112677189D01*
X110404408Y-112691132D01*
X109674356Y-112691132D01*
X109675592Y-112688868D01*
X109675461Y-112687034D01*
X109671210Y-112680420D01*
X108915453Y-111924664D01*
X108904734Y-111918811D01*
X108854532Y-111868609D01*
X108845595Y-111848099D01*
X108813868Y-111753002D01*
X108811550Y-111746054D01*
X108718478Y-111595652D01*
X108674891Y-111552141D01*
X109266936Y-111552141D01*
X109273679Y-111564468D01*
X110027189Y-112317979D01*
X110041132Y-112325592D01*
X110042966Y-112325461D01*
X110049580Y-112321210D01*
X110807633Y-111563156D01*
X110814650Y-111550305D01*
X110807295Y-111540210D01*
X110800664Y-111535804D01*
X110611334Y-111431288D01*
X110601937Y-111427065D01*
X110398086Y-111354877D01*
X110388115Y-111352243D01*
X110175216Y-111314321D01*
X110164962Y-111313351D01*
X109948716Y-111310708D01*
X109938431Y-111311428D01*
X109724666Y-111344138D01*
X109714647Y-111346525D01*
X109509086Y-111413713D01*
X109499584Y-111417708D01*
X109307768Y-111517560D01*
X109299048Y-111523052D01*
X109275390Y-111540815D01*
X109266936Y-111552141D01*
X108674891Y-111552141D01*
X108593303Y-111470695D01*
X108587072Y-111466854D01*
X108448968Y-111381725D01*
X108448966Y-111381724D01*
X108442738Y-111377885D01*
X108348190Y-111346525D01*
X108281389Y-111324368D01*
X108281387Y-111324368D01*
X108274861Y-111322203D01*
X108268025Y-111321503D01*
X108268022Y-111321502D01*
X108224969Y-111317091D01*
X108170400Y-111311500D01*
X106829600Y-111311500D01*
X106826354Y-111311837D01*
X106826350Y-111311837D01*
X106730692Y-111321762D01*
X106730688Y-111321763D01*
X106723834Y-111322474D01*
X106717298Y-111324655D01*
X106717296Y-111324655D01*
X106585194Y-111368728D01*
X106556054Y-111378450D01*
X106405652Y-111471522D01*
X106280695Y-111596697D01*
X106187885Y-111747262D01*
X106132203Y-111915139D01*
X106121500Y-112019600D01*
X106121500Y-113360400D01*
X100508500Y-113360400D01*
X100508500Y-105940000D01*
X103246502Y-105940000D01*
X103266457Y-106168087D01*
X103325716Y-106389243D01*
X103328039Y-106394224D01*
X103328039Y-106394225D01*
X103420151Y-106591762D01*
X103420154Y-106591767D01*
X103422477Y-106596749D01*
X103553802Y-106784300D01*
X103715700Y-106946198D01*
X103720208Y-106949355D01*
X103720211Y-106949357D01*
X103798389Y-107004098D01*
X103903251Y-107077523D01*
X103908233Y-107079846D01*
X103908238Y-107079849D01*
X104105775Y-107171961D01*
X104110757Y-107174284D01*
X104116065Y-107175706D01*
X104116067Y-107175707D01*
X104326598Y-107232119D01*
X104326600Y-107232119D01*
X104331913Y-107233543D01*
X104560000Y-107253498D01*
X104788087Y-107233543D01*
X104793400Y-107232119D01*
X104793402Y-107232119D01*
X105003933Y-107175707D01*
X105003935Y-107175706D01*
X105009243Y-107174284D01*
X105014225Y-107171961D01*
X105211762Y-107079849D01*
X105211767Y-107079846D01*
X105216749Y-107077523D01*
X105321611Y-107004098D01*
X105399789Y-106949357D01*
X105399792Y-106949355D01*
X105404300Y-106946198D01*
X105566198Y-106784300D01*
X105697523Y-106596749D01*
X105699846Y-106591767D01*
X105699849Y-106591762D01*
X105791961Y-106394225D01*
X105791961Y-106394224D01*
X105794284Y-106389243D01*
X105853543Y-106168087D01*
X105873498Y-105940000D01*
X110866502Y-105940000D01*
X110886457Y-106168087D01*
X110945716Y-106389243D01*
X110948039Y-106394224D01*
X110948039Y-106394225D01*
X111040151Y-106591762D01*
X111040154Y-106591767D01*
X111042477Y-106596749D01*
X111173802Y-106784300D01*
X111335700Y-106946198D01*
X111340208Y-106949355D01*
X111340211Y-106949357D01*
X111418389Y-107004098D01*
X111523251Y-107077523D01*
X111528233Y-107079846D01*
X111528238Y-107079849D01*
X111725775Y-107171961D01*
X111730757Y-107174284D01*
X111736065Y-107175706D01*
X111736067Y-107175707D01*
X111946598Y-107232119D01*
X111946600Y-107232119D01*
X111951913Y-107233543D01*
X112180000Y-107253498D01*
X112408087Y-107233543D01*
X112413400Y-107232119D01*
X112413402Y-107232119D01*
X112623933Y-107175707D01*
X112623935Y-107175706D01*
X112629243Y-107174284D01*
X112634225Y-107171961D01*
X112831762Y-107079849D01*
X112831767Y-107079846D01*
X112836749Y-107077523D01*
X112941611Y-107004098D01*
X113019789Y-106949357D01*
X113019792Y-106949355D01*
X113024300Y-106946198D01*
X113186198Y-106784300D01*
X113317523Y-106596749D01*
X113319846Y-106591767D01*
X113319849Y-106591762D01*
X113411961Y-106394225D01*
X113411961Y-106394224D01*
X113414284Y-106389243D01*
X113473543Y-106168087D01*
X113493498Y-105940000D01*
X114686502Y-105940000D01*
X114706457Y-106168087D01*
X114765716Y-106389243D01*
X114768039Y-106394224D01*
X114768039Y-106394225D01*
X114860151Y-106591762D01*
X114860154Y-106591767D01*
X114862477Y-106596749D01*
X114993802Y-106784300D01*
X115155700Y-106946198D01*
X115160208Y-106949355D01*
X115160211Y-106949357D01*
X115238389Y-107004098D01*
X115343251Y-107077523D01*
X115348233Y-107079846D01*
X115348238Y-107079849D01*
X115545775Y-107171961D01*
X115550757Y-107174284D01*
X115556065Y-107175706D01*
X115556067Y-107175707D01*
X115766598Y-107232119D01*
X115766600Y-107232119D01*
X115771913Y-107233543D01*
X116000000Y-107253498D01*
X116228087Y-107233543D01*
X116233400Y-107232119D01*
X116233402Y-107232119D01*
X116443933Y-107175707D01*
X116443935Y-107175706D01*
X116449243Y-107174284D01*
X116454225Y-107171961D01*
X116651762Y-107079849D01*
X116651767Y-107079846D01*
X116656749Y-107077523D01*
X116736727Y-107021522D01*
X121647273Y-107021522D01*
X121694764Y-107198761D01*
X121698510Y-107209053D01*
X121790586Y-107406511D01*
X121796069Y-107416007D01*
X121921028Y-107594467D01*
X121928084Y-107602875D01*
X122082125Y-107756916D01*
X122090533Y-107763972D01*
X122268993Y-107888931D01*
X122278489Y-107894414D01*
X122313641Y-107910805D01*
X122366926Y-107957722D01*
X122386387Y-108025999D01*
X122365845Y-108093959D01*
X122313641Y-108139195D01*
X122278489Y-108155586D01*
X122268993Y-108161069D01*
X122090533Y-108286028D01*
X122082125Y-108293084D01*
X121928084Y-108447125D01*
X121921028Y-108455533D01*
X121796069Y-108633993D01*
X121790586Y-108643489D01*
X121698510Y-108840947D01*
X121694764Y-108851239D01*
X121648606Y-109023503D01*
X121648942Y-109037599D01*
X121656884Y-109041000D01*
X122657885Y-109041000D01*
X122673124Y-109036525D01*
X122674329Y-109035135D01*
X122676000Y-109027452D01*
X122676000Y-109022885D01*
X123184000Y-109022885D01*
X123188475Y-109038124D01*
X123189865Y-109039329D01*
X123197548Y-109041000D01*
X124197967Y-109041000D01*
X124211498Y-109037027D01*
X124212727Y-109028478D01*
X124165236Y-108851239D01*
X124161490Y-108840947D01*
X124069414Y-108643489D01*
X124063931Y-108633993D01*
X123938972Y-108455533D01*
X123931916Y-108447125D01*
X123777875Y-108293084D01*
X123769467Y-108286028D01*
X123591007Y-108161069D01*
X123581511Y-108155586D01*
X123546359Y-108139195D01*
X123493074Y-108092278D01*
X123473613Y-108024001D01*
X123494155Y-107956041D01*
X123546359Y-107910805D01*
X123581511Y-107894414D01*
X123591007Y-107888931D01*
X123769467Y-107763972D01*
X123777875Y-107756916D01*
X123931916Y-107602875D01*
X123938972Y-107594467D01*
X124063931Y-107416007D01*
X124069414Y-107406511D01*
X124161490Y-107209053D01*
X124165236Y-107198761D01*
X124211394Y-107026497D01*
X124211275Y-107021522D01*
X129267273Y-107021522D01*
X129314764Y-107198761D01*
X129318510Y-107209053D01*
X129410586Y-107406511D01*
X129416069Y-107416007D01*
X129541028Y-107594467D01*
X129548084Y-107602875D01*
X129702125Y-107756916D01*
X129710533Y-107763972D01*
X129888993Y-107888931D01*
X129898489Y-107894414D01*
X129933641Y-107910805D01*
X129986926Y-107957722D01*
X130006387Y-108025999D01*
X129985845Y-108093959D01*
X129933641Y-108139195D01*
X129898489Y-108155586D01*
X129888993Y-108161069D01*
X129710533Y-108286028D01*
X129702125Y-108293084D01*
X129548084Y-108447125D01*
X129541028Y-108455533D01*
X129416069Y-108633993D01*
X129410586Y-108643489D01*
X129318510Y-108840947D01*
X129314764Y-108851239D01*
X129268606Y-109023503D01*
X129268942Y-109037599D01*
X129276884Y-109041000D01*
X130277885Y-109041000D01*
X130293124Y-109036525D01*
X130294329Y-109035135D01*
X130296000Y-109027452D01*
X130296000Y-109022885D01*
X130804000Y-109022885D01*
X130808475Y-109038124D01*
X130809865Y-109039329D01*
X130817548Y-109041000D01*
X131817967Y-109041000D01*
X131831498Y-109037027D01*
X131832727Y-109028478D01*
X131785236Y-108851239D01*
X131781490Y-108840947D01*
X131689414Y-108643489D01*
X131683931Y-108633993D01*
X131558972Y-108455533D01*
X131551916Y-108447125D01*
X131397875Y-108293084D01*
X131389467Y-108286028D01*
X131211007Y-108161069D01*
X131201511Y-108155586D01*
X131166359Y-108139195D01*
X131113074Y-108092278D01*
X131093613Y-108024001D01*
X131114155Y-107956041D01*
X131166359Y-107910805D01*
X131201511Y-107894414D01*
X131211007Y-107888931D01*
X131389467Y-107763972D01*
X131397875Y-107756916D01*
X131551916Y-107602875D01*
X131558972Y-107594467D01*
X131683931Y-107416007D01*
X131689414Y-107406511D01*
X131781490Y-107209053D01*
X131785236Y-107198761D01*
X131831394Y-107026497D01*
X131831058Y-107012401D01*
X131823116Y-107009000D01*
X130822115Y-107009000D01*
X130806876Y-107013475D01*
X130805671Y-107014865D01*
X130804000Y-107022548D01*
X130804000Y-109022885D01*
X130296000Y-109022885D01*
X130296000Y-107027115D01*
X130291525Y-107011876D01*
X130290135Y-107010671D01*
X130282452Y-107009000D01*
X129282033Y-107009000D01*
X129268502Y-107012973D01*
X129267273Y-107021522D01*
X124211275Y-107021522D01*
X124211058Y-107012401D01*
X124203116Y-107009000D01*
X123202115Y-107009000D01*
X123186876Y-107013475D01*
X123185671Y-107014865D01*
X123184000Y-107022548D01*
X123184000Y-109022885D01*
X122676000Y-109022885D01*
X122676000Y-107027115D01*
X122671525Y-107011876D01*
X122670135Y-107010671D01*
X122662452Y-107009000D01*
X121662033Y-107009000D01*
X121648502Y-107012973D01*
X121647273Y-107021522D01*
X116736727Y-107021522D01*
X116761611Y-107004098D01*
X116839789Y-106949357D01*
X116839792Y-106949355D01*
X116844300Y-106946198D01*
X117006198Y-106784300D01*
X117137523Y-106596749D01*
X117139846Y-106591767D01*
X117139849Y-106591762D01*
X117231961Y-106394225D01*
X117231961Y-106394224D01*
X117234284Y-106389243D01*
X117293543Y-106168087D01*
X117313498Y-105940000D01*
X117293543Y-105711913D01*
X117234284Y-105490757D01*
X117231134Y-105484001D01*
X117139849Y-105288238D01*
X117139846Y-105288233D01*
X117137523Y-105283251D01*
X117006198Y-105095700D01*
X116844300Y-104933802D01*
X116839792Y-104930645D01*
X116839789Y-104930643D01*
X116748199Y-104866511D01*
X116656749Y-104802477D01*
X116651767Y-104800154D01*
X116651762Y-104800151D01*
X116454225Y-104708039D01*
X116454224Y-104708039D01*
X116449243Y-104705716D01*
X116443935Y-104704294D01*
X116443933Y-104704293D01*
X116233402Y-104647881D01*
X116233400Y-104647881D01*
X116228087Y-104646457D01*
X116000000Y-104626502D01*
X115771913Y-104646457D01*
X115766600Y-104647881D01*
X115766598Y-104647881D01*
X115556067Y-104704293D01*
X115556065Y-104704294D01*
X115550757Y-104705716D01*
X115545776Y-104708039D01*
X115545775Y-104708039D01*
X115348238Y-104800151D01*
X115348233Y-104800154D01*
X115343251Y-104802477D01*
X115251801Y-104866511D01*
X115160211Y-104930643D01*
X115160208Y-104930645D01*
X115155700Y-104933802D01*
X114993802Y-105095700D01*
X114862477Y-105283251D01*
X114860154Y-105288233D01*
X114860151Y-105288238D01*
X114768866Y-105484001D01*
X114765716Y-105490757D01*
X114706457Y-105711913D01*
X114686502Y-105940000D01*
X113493498Y-105940000D01*
X113473543Y-105711913D01*
X113414284Y-105490757D01*
X113411134Y-105484001D01*
X113319849Y-105288238D01*
X113319846Y-105288233D01*
X113317523Y-105283251D01*
X113186198Y-105095700D01*
X113024300Y-104933802D01*
X113019792Y-104930645D01*
X113019789Y-104930643D01*
X112928199Y-104866511D01*
X112836749Y-104802477D01*
X112831767Y-104800154D01*
X112831762Y-104800151D01*
X112634225Y-104708039D01*
X112634224Y-104708039D01*
X112629243Y-104705716D01*
X112623935Y-104704294D01*
X112623933Y-104704293D01*
X112413402Y-104647881D01*
X112413400Y-104647881D01*
X112408087Y-104646457D01*
X112180000Y-104626502D01*
X111951913Y-104646457D01*
X111946600Y-104647881D01*
X111946598Y-104647881D01*
X111736067Y-104704293D01*
X111736065Y-104704294D01*
X111730757Y-104705716D01*
X111725776Y-104708039D01*
X111725775Y-104708039D01*
X111528238Y-104800151D01*
X111528233Y-104800154D01*
X111523251Y-104802477D01*
X111431801Y-104866511D01*
X111340211Y-104930643D01*
X111340208Y-104930645D01*
X111335700Y-104933802D01*
X111173802Y-105095700D01*
X111042477Y-105283251D01*
X111040154Y-105288233D01*
X111040151Y-105288238D01*
X110948866Y-105484001D01*
X110945716Y-105490757D01*
X110886457Y-105711913D01*
X110866502Y-105940000D01*
X105873498Y-105940000D01*
X105853543Y-105711913D01*
X105794284Y-105490757D01*
X105791134Y-105484001D01*
X105699849Y-105288238D01*
X105699846Y-105288233D01*
X105697523Y-105283251D01*
X105566198Y-105095700D01*
X105404300Y-104933802D01*
X105399792Y-104930645D01*
X105399789Y-104930643D01*
X105308199Y-104866511D01*
X105216749Y-104802477D01*
X105211767Y-104800154D01*
X105211762Y-104800151D01*
X105014225Y-104708039D01*
X105014224Y-104708039D01*
X105009243Y-104705716D01*
X105003935Y-104704294D01*
X105003933Y-104704293D01*
X104793402Y-104647881D01*
X104793400Y-104647881D01*
X104788087Y-104646457D01*
X104560000Y-104626502D01*
X104331913Y-104646457D01*
X104326600Y-104647881D01*
X104326598Y-104647881D01*
X104116067Y-104704293D01*
X104116065Y-104704294D01*
X104110757Y-104705716D01*
X104105776Y-104708039D01*
X104105775Y-104708039D01*
X103908238Y-104800151D01*
X103908233Y-104800154D01*
X103903251Y-104802477D01*
X103811801Y-104866511D01*
X103720211Y-104930643D01*
X103720208Y-104930645D01*
X103715700Y-104933802D01*
X103553802Y-105095700D01*
X103422477Y-105283251D01*
X103420154Y-105288233D01*
X103420151Y-105288238D01*
X103328866Y-105484001D01*
X103325716Y-105490757D01*
X103266457Y-105711913D01*
X103246502Y-105940000D01*
X100508500Y-105940000D01*
X100508500Y-104481522D01*
X121647273Y-104481522D01*
X121694764Y-104658761D01*
X121698510Y-104669053D01*
X121790586Y-104866511D01*
X121796069Y-104876007D01*
X121921028Y-105054467D01*
X121928084Y-105062875D01*
X122082125Y-105216916D01*
X122090533Y-105223972D01*
X122268993Y-105348931D01*
X122278489Y-105354414D01*
X122313641Y-105370805D01*
X122366926Y-105417722D01*
X122386387Y-105485999D01*
X122365845Y-105553959D01*
X122313641Y-105599195D01*
X122278489Y-105615586D01*
X122268993Y-105621069D01*
X122090533Y-105746028D01*
X122082125Y-105753084D01*
X121928084Y-105907125D01*
X121921028Y-105915533D01*
X121796069Y-106093993D01*
X121790586Y-106103489D01*
X121698510Y-106300947D01*
X121694764Y-106311239D01*
X121648606Y-106483503D01*
X121648942Y-106497599D01*
X121656884Y-106501000D01*
X122657885Y-106501000D01*
X122673124Y-106496525D01*
X122674329Y-106495135D01*
X122676000Y-106487452D01*
X122676000Y-106482885D01*
X123184000Y-106482885D01*
X123188475Y-106498124D01*
X123189865Y-106499329D01*
X123197548Y-106501000D01*
X124197967Y-106501000D01*
X124211498Y-106497027D01*
X124212727Y-106488478D01*
X124165236Y-106311239D01*
X124161490Y-106300947D01*
X124069414Y-106103489D01*
X124063931Y-106093993D01*
X123938972Y-105915533D01*
X123931916Y-105907125D01*
X123777875Y-105753084D01*
X123769467Y-105746028D01*
X123591007Y-105621069D01*
X123581511Y-105615586D01*
X123546359Y-105599195D01*
X123493074Y-105552278D01*
X123473613Y-105484001D01*
X123494155Y-105416041D01*
X123546359Y-105370805D01*
X123581511Y-105354414D01*
X123591007Y-105348931D01*
X123769467Y-105223972D01*
X123777875Y-105216916D01*
X123931916Y-105062875D01*
X123938972Y-105054467D01*
X124063931Y-104876007D01*
X124069414Y-104866511D01*
X124161490Y-104669053D01*
X124165236Y-104658761D01*
X124211394Y-104486497D01*
X124211275Y-104481522D01*
X129267273Y-104481522D01*
X129314764Y-104658761D01*
X129318510Y-104669053D01*
X129410586Y-104866511D01*
X129416069Y-104876007D01*
X129541028Y-105054467D01*
X129548084Y-105062875D01*
X129702125Y-105216916D01*
X129710533Y-105223972D01*
X129888993Y-105348931D01*
X129898489Y-105354414D01*
X129933641Y-105370805D01*
X129986926Y-105417722D01*
X130006387Y-105485999D01*
X129985845Y-105553959D01*
X129933641Y-105599195D01*
X129898489Y-105615586D01*
X129888993Y-105621069D01*
X129710533Y-105746028D01*
X129702125Y-105753084D01*
X129548084Y-105907125D01*
X129541028Y-105915533D01*
X129416069Y-106093993D01*
X129410586Y-106103489D01*
X129318510Y-106300947D01*
X129314764Y-106311239D01*
X129268606Y-106483503D01*
X129268942Y-106497599D01*
X129276884Y-106501000D01*
X130277885Y-106501000D01*
X130293124Y-106496525D01*
X130294329Y-106495135D01*
X130296000Y-106487452D01*
X130296000Y-106482885D01*
X130804000Y-106482885D01*
X130808475Y-106498124D01*
X130809865Y-106499329D01*
X130817548Y-106501000D01*
X131817967Y-106501000D01*
X131831498Y-106497027D01*
X131832727Y-106488478D01*
X131785236Y-106311239D01*
X131781490Y-106300947D01*
X131689414Y-106103489D01*
X131683931Y-106093993D01*
X131558972Y-105915533D01*
X131551916Y-105907125D01*
X131397875Y-105753084D01*
X131389467Y-105746028D01*
X131211007Y-105621069D01*
X131201511Y-105615586D01*
X131166359Y-105599195D01*
X131113074Y-105552278D01*
X131093613Y-105484001D01*
X131114155Y-105416041D01*
X131166359Y-105370805D01*
X131201511Y-105354414D01*
X131211007Y-105348931D01*
X131389467Y-105223972D01*
X131397875Y-105216916D01*
X131551916Y-105062875D01*
X131558972Y-105054467D01*
X131683931Y-104876007D01*
X131689414Y-104866511D01*
X131781490Y-104669053D01*
X131785236Y-104658761D01*
X131831394Y-104486497D01*
X131831058Y-104472401D01*
X131823116Y-104469000D01*
X130822115Y-104469000D01*
X130806876Y-104473475D01*
X130805671Y-104474865D01*
X130804000Y-104482548D01*
X130804000Y-106482885D01*
X130296000Y-106482885D01*
X130296000Y-104487115D01*
X130291525Y-104471876D01*
X130290135Y-104470671D01*
X130282452Y-104469000D01*
X129282033Y-104469000D01*
X129268502Y-104472973D01*
X129267273Y-104481522D01*
X124211275Y-104481522D01*
X124211058Y-104472401D01*
X124203116Y-104469000D01*
X123202115Y-104469000D01*
X123186876Y-104473475D01*
X123185671Y-104474865D01*
X123184000Y-104482548D01*
X123184000Y-106482885D01*
X122676000Y-106482885D01*
X122676000Y-104487115D01*
X122671525Y-104471876D01*
X122670135Y-104470671D01*
X122662452Y-104469000D01*
X121662033Y-104469000D01*
X121648502Y-104472973D01*
X121647273Y-104481522D01*
X100508500Y-104481522D01*
X100508500Y-101675000D01*
X121616502Y-101675000D01*
X121636457Y-101903087D01*
X121695716Y-102124243D01*
X121698039Y-102129224D01*
X121698039Y-102129225D01*
X121790151Y-102326762D01*
X121790154Y-102326767D01*
X121792477Y-102331749D01*
X121923802Y-102519300D01*
X122085700Y-102681198D01*
X122090208Y-102684355D01*
X122090211Y-102684357D01*
X122168389Y-102739098D01*
X122273251Y-102812523D01*
X122278233Y-102814846D01*
X122278238Y-102814849D01*
X122313049Y-102831081D01*
X122366334Y-102877998D01*
X122385795Y-102946275D01*
X122365253Y-103014235D01*
X122313049Y-103059471D01*
X122278489Y-103075586D01*
X122268993Y-103081069D01*
X122090533Y-103206028D01*
X122082125Y-103213084D01*
X121928084Y-103367125D01*
X121921028Y-103375533D01*
X121796069Y-103553993D01*
X121790586Y-103563489D01*
X121698510Y-103760947D01*
X121694764Y-103771239D01*
X121648606Y-103943503D01*
X121648942Y-103957599D01*
X121656884Y-103961000D01*
X124197967Y-103961000D01*
X124211498Y-103957027D01*
X124212727Y-103948478D01*
X124165236Y-103771239D01*
X124161490Y-103760947D01*
X124069414Y-103563489D01*
X124063931Y-103553993D01*
X123938972Y-103375533D01*
X123931916Y-103367125D01*
X123777875Y-103213084D01*
X123769467Y-103206028D01*
X123591007Y-103081069D01*
X123581511Y-103075586D01*
X123546951Y-103059471D01*
X123493666Y-103012554D01*
X123474205Y-102944277D01*
X123494747Y-102876317D01*
X123546951Y-102831081D01*
X123581762Y-102814849D01*
X123581767Y-102814846D01*
X123586749Y-102812523D01*
X123691611Y-102739098D01*
X123769789Y-102684357D01*
X123769792Y-102684355D01*
X123774300Y-102681198D01*
X123936198Y-102519300D01*
X124067523Y-102331749D01*
X124069846Y-102326767D01*
X124069849Y-102326762D01*
X124161961Y-102129225D01*
X124161961Y-102129224D01*
X124164284Y-102124243D01*
X124223543Y-101903087D01*
X124243498Y-101675000D01*
X129236502Y-101675000D01*
X129256457Y-101903087D01*
X129315716Y-102124243D01*
X129318039Y-102129224D01*
X129318039Y-102129225D01*
X129410151Y-102326762D01*
X129410154Y-102326767D01*
X129412477Y-102331749D01*
X129543802Y-102519300D01*
X129705700Y-102681198D01*
X129710208Y-102684355D01*
X129710211Y-102684357D01*
X129788389Y-102739098D01*
X129893251Y-102812523D01*
X129898233Y-102814846D01*
X129898238Y-102814849D01*
X129933049Y-102831081D01*
X129986334Y-102877998D01*
X130005795Y-102946275D01*
X129985253Y-103014235D01*
X129933049Y-103059471D01*
X129898489Y-103075586D01*
X129888993Y-103081069D01*
X129710533Y-103206028D01*
X129702125Y-103213084D01*
X129548084Y-103367125D01*
X129541028Y-103375533D01*
X129416069Y-103553993D01*
X129410586Y-103563489D01*
X129318510Y-103760947D01*
X129314764Y-103771239D01*
X129268606Y-103943503D01*
X129268942Y-103957599D01*
X129276884Y-103961000D01*
X131817967Y-103961000D01*
X131831498Y-103957027D01*
X131832727Y-103948478D01*
X131785236Y-103771239D01*
X131781490Y-103760947D01*
X131689414Y-103563489D01*
X131683931Y-103553993D01*
X131558972Y-103375533D01*
X131551916Y-103367125D01*
X131397875Y-103213084D01*
X131389467Y-103206028D01*
X131211007Y-103081069D01*
X131201511Y-103075586D01*
X131166951Y-103059471D01*
X131113666Y-103012554D01*
X131094205Y-102944277D01*
X131114747Y-102876317D01*
X131166951Y-102831081D01*
X131201762Y-102814849D01*
X131201767Y-102814846D01*
X131206749Y-102812523D01*
X131311611Y-102739098D01*
X131389789Y-102684357D01*
X131389792Y-102684355D01*
X131394300Y-102681198D01*
X131556198Y-102519300D01*
X131687523Y-102331749D01*
X131689846Y-102326767D01*
X131689849Y-102326762D01*
X131781961Y-102129225D01*
X131781961Y-102129224D01*
X131784284Y-102124243D01*
X131843543Y-101903087D01*
X131863498Y-101675000D01*
X131843543Y-101446913D01*
X131784284Y-101225757D01*
X131781961Y-101220775D01*
X131689849Y-101023238D01*
X131689846Y-101023233D01*
X131687523Y-101018251D01*
X131556198Y-100830700D01*
X131394300Y-100668802D01*
X131389792Y-100665645D01*
X131389789Y-100665643D01*
X131311611Y-100610902D01*
X131206749Y-100537477D01*
X131201767Y-100535154D01*
X131201762Y-100535151D01*
X131166951Y-100518919D01*
X131113666Y-100472002D01*
X131094205Y-100403725D01*
X131114747Y-100335765D01*
X131166951Y-100290529D01*
X131201511Y-100274414D01*
X131211007Y-100268931D01*
X131389467Y-100143972D01*
X131397875Y-100136916D01*
X131551916Y-99982875D01*
X131558972Y-99974467D01*
X131683931Y-99796007D01*
X131689414Y-99786511D01*
X131781490Y-99589053D01*
X131785236Y-99578761D01*
X131831394Y-99406497D01*
X131831058Y-99392401D01*
X131823116Y-99389000D01*
X129282033Y-99389000D01*
X129268502Y-99392973D01*
X129267273Y-99401522D01*
X129314764Y-99578761D01*
X129318510Y-99589053D01*
X129410586Y-99786511D01*
X129416069Y-99796007D01*
X129541028Y-99974467D01*
X129548084Y-99982875D01*
X129702125Y-100136916D01*
X129710533Y-100143972D01*
X129888993Y-100268931D01*
X129898489Y-100274414D01*
X129933049Y-100290529D01*
X129986334Y-100337446D01*
X130005795Y-100405723D01*
X129985253Y-100473683D01*
X129933049Y-100518919D01*
X129898238Y-100535151D01*
X129898233Y-100535154D01*
X129893251Y-100537477D01*
X129788389Y-100610902D01*
X129710211Y-100665643D01*
X129710208Y-100665645D01*
X129705700Y-100668802D01*
X129543802Y-100830700D01*
X129412477Y-101018251D01*
X129410154Y-101023233D01*
X129410151Y-101023238D01*
X129318039Y-101220775D01*
X129315716Y-101225757D01*
X129256457Y-101446913D01*
X129236502Y-101675000D01*
X124243498Y-101675000D01*
X124223543Y-101446913D01*
X124164284Y-101225757D01*
X124161961Y-101220775D01*
X124069849Y-101023238D01*
X124069846Y-101023233D01*
X124067523Y-101018251D01*
X123936198Y-100830700D01*
X123774300Y-100668802D01*
X123769792Y-100665645D01*
X123769789Y-100665643D01*
X123691611Y-100610902D01*
X123586749Y-100537477D01*
X123581767Y-100535154D01*
X123581762Y-100535151D01*
X123547543Y-100519195D01*
X123494258Y-100472278D01*
X123474797Y-100404001D01*
X123495339Y-100336041D01*
X123547543Y-100290805D01*
X123581762Y-100274849D01*
X123581767Y-100274846D01*
X123586749Y-100272523D01*
X123691611Y-100199098D01*
X123769789Y-100144357D01*
X123769792Y-100144355D01*
X123774300Y-100141198D01*
X123936198Y-99979300D01*
X123967652Y-99934380D01*
X124035093Y-99838064D01*
X124067523Y-99791749D01*
X124069846Y-99786767D01*
X124069849Y-99786762D01*
X124161961Y-99589225D01*
X124161961Y-99589224D01*
X124164284Y-99584243D01*
X124197761Y-99459308D01*
X124222119Y-99368402D01*
X124222119Y-99368400D01*
X124223543Y-99363087D01*
X124243498Y-99135000D01*
X124223543Y-98906913D01*
X124213244Y-98868478D01*
X124211911Y-98863503D01*
X129268606Y-98863503D01*
X129268942Y-98877599D01*
X129276884Y-98881000D01*
X130277885Y-98881000D01*
X130293124Y-98876525D01*
X130294329Y-98875135D01*
X130296000Y-98867452D01*
X130296000Y-98862885D01*
X130804000Y-98862885D01*
X130808475Y-98878124D01*
X130809865Y-98879329D01*
X130817548Y-98881000D01*
X131817967Y-98881000D01*
X131831498Y-98877027D01*
X131832727Y-98868478D01*
X131785236Y-98691239D01*
X131781490Y-98680947D01*
X131776572Y-98670400D01*
X140621500Y-98670400D01*
X140621837Y-98673646D01*
X140621837Y-98673650D01*
X140631378Y-98765599D01*
X140632474Y-98776166D01*
X140634655Y-98782702D01*
X140634655Y-98782704D01*
X140666124Y-98877027D01*
X140688450Y-98943946D01*
X140781522Y-99094348D01*
X140906697Y-99219305D01*
X140912927Y-99223145D01*
X140912928Y-99223146D01*
X141050090Y-99307694D01*
X141057262Y-99312115D01*
X141099049Y-99325975D01*
X141218611Y-99365632D01*
X141218613Y-99365632D01*
X141225139Y-99367797D01*
X141231975Y-99368497D01*
X141231978Y-99368498D01*
X141265828Y-99371966D01*
X141329600Y-99378500D01*
X142670400Y-99378500D01*
X142673646Y-99378163D01*
X142673650Y-99378163D01*
X142769308Y-99368238D01*
X142769312Y-99368237D01*
X142776166Y-99367526D01*
X142782702Y-99365345D01*
X142782704Y-99365345D01*
X142914806Y-99321272D01*
X142943946Y-99311550D01*
X143094348Y-99218478D01*
X143173214Y-99139474D01*
X143765355Y-99139474D01*
X143770636Y-99146529D01*
X143938087Y-99244380D01*
X143947370Y-99248827D01*
X144149402Y-99325975D01*
X144159300Y-99328851D01*
X144371219Y-99371966D01*
X144381447Y-99373185D01*
X144597560Y-99381111D01*
X144607846Y-99380644D01*
X144822353Y-99353164D01*
X144832439Y-99351021D01*
X145039581Y-99288875D01*
X145049158Y-99285122D01*
X145243378Y-99189975D01*
X145252216Y-99184706D01*
X145303587Y-99148064D01*
X145311988Y-99137364D01*
X145305002Y-99124213D01*
X144552811Y-98372021D01*
X144538868Y-98364408D01*
X144537034Y-98364539D01*
X144530420Y-98368790D01*
X143772112Y-99127099D01*
X143765355Y-99139474D01*
X143173214Y-99139474D01*
X143219305Y-99093303D01*
X143284735Y-98987156D01*
X143308275Y-98948968D01*
X143308276Y-98948966D01*
X143312115Y-98942738D01*
X143344787Y-98844235D01*
X143385218Y-98785875D01*
X143409687Y-98771102D01*
X144167979Y-98012811D01*
X144174356Y-98001132D01*
X144904408Y-98001132D01*
X144904539Y-98002966D01*
X144908790Y-98009580D01*
X145664810Y-98765599D01*
X145676816Y-98772155D01*
X145688555Y-98763186D01*
X145722206Y-98716356D01*
X145727516Y-98707519D01*
X145823329Y-98513655D01*
X145827128Y-98504060D01*
X145889991Y-98297156D01*
X145892170Y-98287075D01*
X145920635Y-98070868D01*
X145921154Y-98064193D01*
X145922641Y-98003364D01*
X145922447Y-97996646D01*
X145904580Y-97779316D01*
X145902897Y-97769154D01*
X145850213Y-97559407D01*
X145846895Y-97549660D01*
X145760659Y-97351330D01*
X145755792Y-97342255D01*
X145687528Y-97236734D01*
X145676843Y-97227531D01*
X145667276Y-97231935D01*
X144912021Y-97987189D01*
X144904408Y-98001132D01*
X144174356Y-98001132D01*
X144175592Y-97998868D01*
X144175461Y-97997034D01*
X144171210Y-97990420D01*
X143415453Y-97234664D01*
X143404734Y-97228811D01*
X143354532Y-97178609D01*
X143345595Y-97158099D01*
X143313868Y-97063002D01*
X143311550Y-97056054D01*
X143218478Y-96905652D01*
X143174891Y-96862141D01*
X143766936Y-96862141D01*
X143773679Y-96874468D01*
X144527189Y-97627979D01*
X144541132Y-97635592D01*
X144542966Y-97635461D01*
X144549580Y-97631210D01*
X145307633Y-96873156D01*
X145314650Y-96860305D01*
X145307295Y-96850210D01*
X145300664Y-96845804D01*
X145111334Y-96741288D01*
X145101937Y-96737065D01*
X144898086Y-96664877D01*
X144888115Y-96662243D01*
X144675216Y-96624321D01*
X144664962Y-96623351D01*
X144448716Y-96620708D01*
X144438431Y-96621428D01*
X144224666Y-96654138D01*
X144214647Y-96656525D01*
X144009086Y-96723713D01*
X143999584Y-96727708D01*
X143807768Y-96827560D01*
X143799048Y-96833052D01*
X143775390Y-96850815D01*
X143766936Y-96862141D01*
X143174891Y-96862141D01*
X143093303Y-96780695D01*
X143087072Y-96776854D01*
X142948968Y-96691725D01*
X142948966Y-96691724D01*
X142942738Y-96687885D01*
X142848190Y-96656525D01*
X142781389Y-96634368D01*
X142781387Y-96634368D01*
X142774861Y-96632203D01*
X142768025Y-96631503D01*
X142768022Y-96631502D01*
X142724969Y-96627091D01*
X142670400Y-96621500D01*
X141329600Y-96621500D01*
X141326354Y-96621837D01*
X141326350Y-96621837D01*
X141230692Y-96631762D01*
X141230688Y-96631763D01*
X141223834Y-96632474D01*
X141217298Y-96634655D01*
X141217296Y-96634655D01*
X141085194Y-96678728D01*
X141056054Y-96688450D01*
X140905652Y-96781522D01*
X140780695Y-96906697D01*
X140687885Y-97057262D01*
X140632203Y-97225139D01*
X140631503Y-97231975D01*
X140631502Y-97231978D01*
X140629772Y-97248868D01*
X140621500Y-97329600D01*
X140621500Y-98670400D01*
X131776572Y-98670400D01*
X131689414Y-98483489D01*
X131683931Y-98473993D01*
X131558972Y-98295533D01*
X131551916Y-98287125D01*
X131397875Y-98133084D01*
X131389467Y-98126028D01*
X131211007Y-98001069D01*
X131201511Y-97995586D01*
X131004053Y-97903510D01*
X130993761Y-97899764D01*
X130821497Y-97853606D01*
X130807401Y-97853942D01*
X130804000Y-97861884D01*
X130804000Y-98862885D01*
X130296000Y-98862885D01*
X130296000Y-97867033D01*
X130292027Y-97853502D01*
X130283478Y-97852273D01*
X130106239Y-97899764D01*
X130095947Y-97903510D01*
X129898489Y-97995586D01*
X129888993Y-98001069D01*
X129710533Y-98126028D01*
X129702125Y-98133084D01*
X129548084Y-98287125D01*
X129541028Y-98295533D01*
X129416069Y-98473993D01*
X129410586Y-98483489D01*
X129318510Y-98680947D01*
X129314764Y-98691239D01*
X129268606Y-98863503D01*
X124211911Y-98863503D01*
X124165707Y-98691067D01*
X124165706Y-98691065D01*
X124164284Y-98685757D01*
X124160289Y-98677189D01*
X124069849Y-98483238D01*
X124069846Y-98483233D01*
X124067523Y-98478251D01*
X123959211Y-98323566D01*
X123939357Y-98295211D01*
X123939355Y-98295208D01*
X123936198Y-98290700D01*
X123774300Y-98128802D01*
X123769792Y-98125645D01*
X123769789Y-98125643D01*
X123622938Y-98022817D01*
X123586749Y-97997477D01*
X123581767Y-97995154D01*
X123581762Y-97995151D01*
X123384225Y-97903039D01*
X123384224Y-97903039D01*
X123379243Y-97900716D01*
X123373935Y-97899294D01*
X123373933Y-97899293D01*
X123163402Y-97842881D01*
X123163400Y-97842881D01*
X123158087Y-97841457D01*
X122930000Y-97821502D01*
X122701913Y-97841457D01*
X122696600Y-97842881D01*
X122696598Y-97842881D01*
X122486067Y-97899293D01*
X122486065Y-97899294D01*
X122480757Y-97900716D01*
X122475776Y-97903039D01*
X122475775Y-97903039D01*
X122278238Y-97995151D01*
X122278233Y-97995154D01*
X122273251Y-97997477D01*
X122237062Y-98022817D01*
X122090211Y-98125643D01*
X122090208Y-98125645D01*
X122085700Y-98128802D01*
X121923802Y-98290700D01*
X121920645Y-98295208D01*
X121920643Y-98295211D01*
X121900789Y-98323566D01*
X121792477Y-98478251D01*
X121790154Y-98483233D01*
X121790151Y-98483238D01*
X121699711Y-98677189D01*
X121695716Y-98685757D01*
X121694294Y-98691065D01*
X121694293Y-98691067D01*
X121646756Y-98868478D01*
X121636457Y-98906913D01*
X121616502Y-99135000D01*
X121636457Y-99363087D01*
X121637881Y-99368400D01*
X121637881Y-99368402D01*
X121662240Y-99459308D01*
X121695716Y-99584243D01*
X121698039Y-99589224D01*
X121698039Y-99589225D01*
X121790151Y-99786762D01*
X121790154Y-99786767D01*
X121792477Y-99791749D01*
X121824907Y-99838064D01*
X121892349Y-99934380D01*
X121923802Y-99979300D01*
X122085700Y-100141198D01*
X122090208Y-100144355D01*
X122090211Y-100144357D01*
X122168389Y-100199098D01*
X122273251Y-100272523D01*
X122278233Y-100274846D01*
X122278238Y-100274849D01*
X122312457Y-100290805D01*
X122365742Y-100337722D01*
X122385203Y-100405999D01*
X122364661Y-100473959D01*
X122312457Y-100519195D01*
X122278238Y-100535151D01*
X122278233Y-100535154D01*
X122273251Y-100537477D01*
X122168389Y-100610902D01*
X122090211Y-100665643D01*
X122090208Y-100665645D01*
X122085700Y-100668802D01*
X121923802Y-100830700D01*
X121792477Y-101018251D01*
X121790154Y-101023233D01*
X121790151Y-101023238D01*
X121698039Y-101220775D01*
X121695716Y-101225757D01*
X121636457Y-101446913D01*
X121616502Y-101675000D01*
X100508500Y-101675000D01*
X100508500Y-99360400D01*
X105991500Y-99360400D01*
X105991837Y-99363646D01*
X105991837Y-99363650D01*
X106001378Y-99455599D01*
X106002474Y-99466166D01*
X106058450Y-99633946D01*
X106151522Y-99784348D01*
X106276697Y-99909305D01*
X106282927Y-99913145D01*
X106282928Y-99913146D01*
X106420090Y-99997694D01*
X106427262Y-100002115D01*
X106469049Y-100015975D01*
X106588611Y-100055632D01*
X106588613Y-100055632D01*
X106595139Y-100057797D01*
X106601975Y-100058497D01*
X106601978Y-100058498D01*
X106635828Y-100061966D01*
X106699600Y-100068500D01*
X108040400Y-100068500D01*
X108043646Y-100068163D01*
X108043650Y-100068163D01*
X108139308Y-100058238D01*
X108139312Y-100058237D01*
X108146166Y-100057526D01*
X108152702Y-100055345D01*
X108152704Y-100055345D01*
X108284806Y-100011272D01*
X108313946Y-100001550D01*
X108464348Y-99908478D01*
X108543214Y-99829474D01*
X109135355Y-99829474D01*
X109140636Y-99836529D01*
X109308087Y-99934380D01*
X109317370Y-99938827D01*
X109519402Y-100015975D01*
X109529300Y-100018851D01*
X109741219Y-100061966D01*
X109751447Y-100063185D01*
X109967560Y-100071111D01*
X109977846Y-100070644D01*
X110192353Y-100043164D01*
X110202439Y-100041021D01*
X110409581Y-99978875D01*
X110419158Y-99975122D01*
X110613378Y-99879975D01*
X110622216Y-99874706D01*
X110673587Y-99838064D01*
X110681988Y-99827364D01*
X110675002Y-99814213D01*
X109922811Y-99062021D01*
X109908868Y-99054408D01*
X109907034Y-99054539D01*
X109900420Y-99058790D01*
X109142112Y-99817099D01*
X109135355Y-99829474D01*
X108543214Y-99829474D01*
X108589305Y-99783303D01*
X108682115Y-99632738D01*
X108714787Y-99534235D01*
X108755218Y-99475875D01*
X108779687Y-99461102D01*
X109537979Y-98702811D01*
X109544356Y-98691132D01*
X110274408Y-98691132D01*
X110274539Y-98692966D01*
X110278790Y-98699580D01*
X111034810Y-99455599D01*
X111046816Y-99462155D01*
X111058555Y-99453186D01*
X111092206Y-99406356D01*
X111097516Y-99397519D01*
X111193329Y-99203655D01*
X111197128Y-99194060D01*
X111259991Y-98987156D01*
X111262170Y-98977075D01*
X111290635Y-98760868D01*
X111291154Y-98754193D01*
X111292641Y-98693364D01*
X111292447Y-98686646D01*
X111274580Y-98469316D01*
X111272897Y-98459154D01*
X111241979Y-98336062D01*
X115278493Y-98336062D01*
X115287789Y-98348077D01*
X115338994Y-98383931D01*
X115348489Y-98389414D01*
X115545947Y-98481490D01*
X115556239Y-98485236D01*
X115766688Y-98541625D01*
X115777481Y-98543528D01*
X115994525Y-98562517D01*
X116005475Y-98562517D01*
X116222519Y-98543528D01*
X116233312Y-98541625D01*
X116443761Y-98485236D01*
X116454053Y-98481490D01*
X116651511Y-98389414D01*
X116661006Y-98383931D01*
X116713048Y-98347491D01*
X116721424Y-98337012D01*
X116714356Y-98323566D01*
X116012812Y-97622022D01*
X115998868Y-97614408D01*
X115997035Y-97614539D01*
X115990420Y-97618790D01*
X115284923Y-98324287D01*
X115278493Y-98336062D01*
X111241979Y-98336062D01*
X111220213Y-98249407D01*
X111216895Y-98239660D01*
X111130659Y-98041330D01*
X111125792Y-98032255D01*
X111057528Y-97926734D01*
X111046843Y-97917531D01*
X111037276Y-97921935D01*
X110282021Y-98677189D01*
X110274408Y-98691132D01*
X109544356Y-98691132D01*
X109545592Y-98688868D01*
X109545461Y-98687034D01*
X109541210Y-98680420D01*
X108785453Y-97924664D01*
X108774734Y-97918811D01*
X108724532Y-97868609D01*
X108715595Y-97848099D01*
X108683868Y-97753002D01*
X108681550Y-97746054D01*
X108588478Y-97595652D01*
X108544891Y-97552141D01*
X109136936Y-97552141D01*
X109143679Y-97564468D01*
X109897189Y-98317979D01*
X109911132Y-98325592D01*
X109912966Y-98325461D01*
X109919580Y-98321210D01*
X110677633Y-97563156D01*
X110684650Y-97550305D01*
X110677295Y-97540210D01*
X110670664Y-97535804D01*
X110481334Y-97431288D01*
X110471937Y-97427065D01*
X110268086Y-97354877D01*
X110258115Y-97352243D01*
X110045216Y-97314321D01*
X110034962Y-97313351D01*
X109818716Y-97310708D01*
X109808431Y-97311428D01*
X109594666Y-97344138D01*
X109584647Y-97346525D01*
X109379086Y-97413713D01*
X109369584Y-97417708D01*
X109177768Y-97517560D01*
X109169048Y-97523052D01*
X109145390Y-97540815D01*
X109136936Y-97552141D01*
X108544891Y-97552141D01*
X108463303Y-97470695D01*
X108457072Y-97466854D01*
X108318968Y-97381725D01*
X108318966Y-97381724D01*
X108312738Y-97377885D01*
X108218190Y-97346525D01*
X108151389Y-97324368D01*
X108151387Y-97324368D01*
X108144861Y-97322203D01*
X108138025Y-97321503D01*
X108138022Y-97321502D01*
X108094969Y-97317091D01*
X108040400Y-97311500D01*
X106699600Y-97311500D01*
X106696354Y-97311837D01*
X106696350Y-97311837D01*
X106600692Y-97321762D01*
X106600688Y-97321763D01*
X106593834Y-97322474D01*
X106587298Y-97324655D01*
X106587296Y-97324655D01*
X106455194Y-97368728D01*
X106426054Y-97378450D01*
X106275652Y-97471522D01*
X106150695Y-97596697D01*
X106146855Y-97602927D01*
X106146854Y-97602928D01*
X106084520Y-97704053D01*
X106057885Y-97747262D01*
X106055581Y-97754209D01*
X106007303Y-97899764D01*
X106002203Y-97915139D01*
X105991500Y-98019600D01*
X105991500Y-99360400D01*
X100508500Y-99360400D01*
X100508500Y-97255475D01*
X114687483Y-97255475D01*
X114706472Y-97472519D01*
X114708375Y-97483312D01*
X114764764Y-97693761D01*
X114768510Y-97704053D01*
X114860586Y-97901511D01*
X114866069Y-97911006D01*
X114902509Y-97963048D01*
X114912988Y-97971424D01*
X114926434Y-97964356D01*
X115627978Y-97262812D01*
X115634356Y-97251132D01*
X116364408Y-97251132D01*
X116364539Y-97252965D01*
X116368790Y-97259580D01*
X117074287Y-97965077D01*
X117086062Y-97971507D01*
X117098077Y-97962211D01*
X117133931Y-97911006D01*
X117139414Y-97901511D01*
X117231490Y-97704053D01*
X117235236Y-97693761D01*
X117291625Y-97483312D01*
X117293528Y-97472519D01*
X117312517Y-97255475D01*
X117312517Y-97244525D01*
X117293528Y-97027481D01*
X117291625Y-97016688D01*
X117235236Y-96806239D01*
X117231490Y-96795947D01*
X117139414Y-96598489D01*
X117133931Y-96588994D01*
X117097491Y-96536952D01*
X117087012Y-96528576D01*
X117073566Y-96535644D01*
X116372022Y-97237188D01*
X116364408Y-97251132D01*
X115634356Y-97251132D01*
X115635592Y-97248868D01*
X115635461Y-97247035D01*
X115631210Y-97240420D01*
X114925713Y-96534923D01*
X114913938Y-96528493D01*
X114901923Y-96537789D01*
X114866069Y-96588994D01*
X114860586Y-96598489D01*
X114768510Y-96795947D01*
X114764764Y-96806239D01*
X114708375Y-97016688D01*
X114706472Y-97027481D01*
X114687483Y-97244525D01*
X114687483Y-97255475D01*
X100508500Y-97255475D01*
X100508500Y-96162988D01*
X115278576Y-96162988D01*
X115285644Y-96176434D01*
X115987188Y-96877978D01*
X116001132Y-96885592D01*
X116002965Y-96885461D01*
X116009580Y-96881210D01*
X116715077Y-96175713D01*
X116721507Y-96163938D01*
X116712211Y-96151923D01*
X116661006Y-96116069D01*
X116651511Y-96110586D01*
X116454053Y-96018510D01*
X116443761Y-96014764D01*
X116233312Y-95958375D01*
X116222519Y-95956472D01*
X116005475Y-95937483D01*
X115994525Y-95937483D01*
X115777481Y-95956472D01*
X115766688Y-95958375D01*
X115556239Y-96014764D01*
X115545947Y-96018510D01*
X115348489Y-96110586D01*
X115338994Y-96116069D01*
X115286952Y-96152509D01*
X115278576Y-96162988D01*
X100508500Y-96162988D01*
X100508500Y-94500000D01*
X121626502Y-94500000D01*
X121646457Y-94728087D01*
X121705716Y-94949243D01*
X121708039Y-94954224D01*
X121708039Y-94954225D01*
X121800151Y-95151762D01*
X121800154Y-95151767D01*
X121802477Y-95156749D01*
X121933802Y-95344300D01*
X122095700Y-95506198D01*
X122100208Y-95509355D01*
X122100211Y-95509357D01*
X122178389Y-95564098D01*
X122283251Y-95637523D01*
X122288233Y-95639846D01*
X122288238Y-95639849D01*
X122485775Y-95731961D01*
X122490757Y-95734284D01*
X122496065Y-95735706D01*
X122496067Y-95735707D01*
X122706598Y-95792119D01*
X122706600Y-95792119D01*
X122711913Y-95793543D01*
X122940000Y-95813498D01*
X123168087Y-95793543D01*
X123173400Y-95792119D01*
X123173402Y-95792119D01*
X123383933Y-95735707D01*
X123383935Y-95735706D01*
X123389243Y-95734284D01*
X123394225Y-95731961D01*
X123591762Y-95639849D01*
X123591767Y-95639846D01*
X123596749Y-95637523D01*
X123701611Y-95564098D01*
X123779789Y-95509357D01*
X123779792Y-95509355D01*
X123784300Y-95506198D01*
X123946198Y-95344300D01*
X124077523Y-95156749D01*
X124079846Y-95151767D01*
X124079849Y-95151762D01*
X124171961Y-94954225D01*
X124171961Y-94954224D01*
X124174284Y-94949243D01*
X124233543Y-94728087D01*
X124253498Y-94500000D01*
X129246502Y-94500000D01*
X129266457Y-94728087D01*
X129325716Y-94949243D01*
X129328039Y-94954224D01*
X129328039Y-94954225D01*
X129420151Y-95151762D01*
X129420154Y-95151767D01*
X129422477Y-95156749D01*
X129553802Y-95344300D01*
X129715700Y-95506198D01*
X129720208Y-95509355D01*
X129720211Y-95509357D01*
X129798389Y-95564098D01*
X129903251Y-95637523D01*
X129908233Y-95639846D01*
X129908238Y-95639849D01*
X130105775Y-95731961D01*
X130110757Y-95734284D01*
X130116065Y-95735706D01*
X130116067Y-95735707D01*
X130326598Y-95792119D01*
X130326600Y-95792119D01*
X130331913Y-95793543D01*
X130560000Y-95813498D01*
X130788087Y-95793543D01*
X130793400Y-95792119D01*
X130793402Y-95792119D01*
X131003933Y-95735707D01*
X131003935Y-95735706D01*
X131009243Y-95734284D01*
X131014225Y-95731961D01*
X131211762Y-95639849D01*
X131211767Y-95639846D01*
X131216749Y-95637523D01*
X131321611Y-95564098D01*
X131399789Y-95509357D01*
X131399792Y-95509355D01*
X131404300Y-95506198D01*
X131566198Y-95344300D01*
X131697523Y-95156749D01*
X131699846Y-95151767D01*
X131699849Y-95151762D01*
X131791961Y-94954225D01*
X131791961Y-94954224D01*
X131794284Y-94949243D01*
X131853543Y-94728087D01*
X131873498Y-94500000D01*
X131853543Y-94271913D01*
X131794284Y-94050757D01*
X131734226Y-93921961D01*
X131699849Y-93848238D01*
X131699846Y-93848233D01*
X131697523Y-93843251D01*
X131594555Y-93696198D01*
X131569357Y-93660211D01*
X131569355Y-93660208D01*
X131566198Y-93655700D01*
X131404300Y-93493802D01*
X131399792Y-93490645D01*
X131399789Y-93490643D01*
X131252518Y-93387523D01*
X131216749Y-93362477D01*
X131211767Y-93360154D01*
X131211762Y-93360151D01*
X131014225Y-93268039D01*
X131014224Y-93268039D01*
X131009243Y-93265716D01*
X131003935Y-93264294D01*
X131003933Y-93264293D01*
X130793402Y-93207881D01*
X130793400Y-93207881D01*
X130788087Y-93206457D01*
X130560000Y-93186502D01*
X130331913Y-93206457D01*
X130326600Y-93207881D01*
X130326598Y-93207881D01*
X130116067Y-93264293D01*
X130116065Y-93264294D01*
X130110757Y-93265716D01*
X130105776Y-93268039D01*
X130105775Y-93268039D01*
X129908238Y-93360151D01*
X129908233Y-93360154D01*
X129903251Y-93362477D01*
X129867482Y-93387523D01*
X129720211Y-93490643D01*
X129720208Y-93490645D01*
X129715700Y-93493802D01*
X129553802Y-93655700D01*
X129550645Y-93660208D01*
X129550643Y-93660211D01*
X129525445Y-93696198D01*
X129422477Y-93843251D01*
X129420154Y-93848233D01*
X129420151Y-93848238D01*
X129385774Y-93921961D01*
X129325716Y-94050757D01*
X129266457Y-94271913D01*
X129246502Y-94500000D01*
X124253498Y-94500000D01*
X124233543Y-94271913D01*
X124174284Y-94050757D01*
X124114226Y-93921961D01*
X124079849Y-93848238D01*
X124079846Y-93848233D01*
X124077523Y-93843251D01*
X123974555Y-93696198D01*
X123949357Y-93660211D01*
X123949355Y-93660208D01*
X123946198Y-93655700D01*
X123784300Y-93493802D01*
X123779792Y-93490645D01*
X123779789Y-93490643D01*
X123632518Y-93387523D01*
X123596749Y-93362477D01*
X123591767Y-93360154D01*
X123591762Y-93360151D01*
X123394225Y-93268039D01*
X123394224Y-93268039D01*
X123389243Y-93265716D01*
X123383935Y-93264294D01*
X123383933Y-93264293D01*
X123173402Y-93207881D01*
X123173400Y-93207881D01*
X123168087Y-93206457D01*
X122940000Y-93186502D01*
X122711913Y-93206457D01*
X122706600Y-93207881D01*
X122706598Y-93207881D01*
X122496067Y-93264293D01*
X122496065Y-93264294D01*
X122490757Y-93265716D01*
X122485776Y-93268039D01*
X122485775Y-93268039D01*
X122288238Y-93360151D01*
X122288233Y-93360154D01*
X122283251Y-93362477D01*
X122247482Y-93387523D01*
X122100211Y-93490643D01*
X122100208Y-93490645D01*
X122095700Y-93493802D01*
X121933802Y-93655700D01*
X121930645Y-93660208D01*
X121930643Y-93660211D01*
X121905445Y-93696198D01*
X121802477Y-93843251D01*
X121800154Y-93848233D01*
X121800151Y-93848238D01*
X121765774Y-93921961D01*
X121705716Y-94050757D01*
X121646457Y-94271913D01*
X121626502Y-94500000D01*
X100508500Y-94500000D01*
X100508500Y-92690000D01*
X103496502Y-92690000D01*
X103516457Y-92918087D01*
X103575716Y-93139243D01*
X103578039Y-93144224D01*
X103578039Y-93144225D01*
X103670151Y-93341762D01*
X103670154Y-93341767D01*
X103672477Y-93346749D01*
X103702656Y-93389849D01*
X103778174Y-93497699D01*
X103803802Y-93534300D01*
X103965700Y-93696198D01*
X103970208Y-93699355D01*
X103970211Y-93699357D01*
X104048389Y-93754098D01*
X104153251Y-93827523D01*
X104158233Y-93829846D01*
X104158238Y-93829849D01*
X104355775Y-93921961D01*
X104360757Y-93924284D01*
X104366065Y-93925706D01*
X104366067Y-93925707D01*
X104576598Y-93982119D01*
X104576600Y-93982119D01*
X104581913Y-93983543D01*
X104810000Y-94003498D01*
X105038087Y-93983543D01*
X105043400Y-93982119D01*
X105043402Y-93982119D01*
X105253933Y-93925707D01*
X105253935Y-93925706D01*
X105259243Y-93924284D01*
X105264225Y-93921961D01*
X105461762Y-93829849D01*
X105461767Y-93829846D01*
X105466749Y-93827523D01*
X105571611Y-93754098D01*
X105649789Y-93699357D01*
X105649792Y-93699355D01*
X105654300Y-93696198D01*
X105816198Y-93534300D01*
X105841827Y-93497699D01*
X105917344Y-93389849D01*
X105947523Y-93346749D01*
X105949846Y-93341767D01*
X105949849Y-93341762D01*
X106041961Y-93144225D01*
X106041961Y-93144224D01*
X106044284Y-93139243D01*
X106103543Y-92918087D01*
X106123498Y-92690000D01*
X111116502Y-92690000D01*
X111136457Y-92918087D01*
X111195716Y-93139243D01*
X111198039Y-93144224D01*
X111198039Y-93144225D01*
X111290151Y-93341762D01*
X111290154Y-93341767D01*
X111292477Y-93346749D01*
X111322656Y-93389849D01*
X111398174Y-93497699D01*
X111423802Y-93534300D01*
X111585700Y-93696198D01*
X111590208Y-93699355D01*
X111590211Y-93699357D01*
X111668389Y-93754098D01*
X111773251Y-93827523D01*
X111778233Y-93829846D01*
X111778238Y-93829849D01*
X111975775Y-93921961D01*
X111980757Y-93924284D01*
X111986065Y-93925706D01*
X111986067Y-93925707D01*
X112196598Y-93982119D01*
X112196600Y-93982119D01*
X112201913Y-93983543D01*
X112430000Y-94003498D01*
X112658087Y-93983543D01*
X112663400Y-93982119D01*
X112663402Y-93982119D01*
X112873933Y-93925707D01*
X112873935Y-93925706D01*
X112879243Y-93924284D01*
X112884225Y-93921961D01*
X113081762Y-93829849D01*
X113081767Y-93829846D01*
X113086749Y-93827523D01*
X113191611Y-93754098D01*
X113269789Y-93699357D01*
X113269792Y-93699355D01*
X113274300Y-93696198D01*
X113436198Y-93534300D01*
X113461827Y-93497699D01*
X113537344Y-93389849D01*
X113567523Y-93346749D01*
X113569846Y-93341767D01*
X113569849Y-93341762D01*
X113661961Y-93144225D01*
X113661961Y-93144224D01*
X113664284Y-93139243D01*
X113723543Y-92918087D01*
X113743498Y-92690000D01*
X113723543Y-92461913D01*
X113666761Y-92250000D01*
X114686502Y-92250000D01*
X114706457Y-92478087D01*
X114765716Y-92699243D01*
X114768039Y-92704224D01*
X114768039Y-92704225D01*
X114860151Y-92901762D01*
X114860154Y-92901767D01*
X114862477Y-92906749D01*
X114993802Y-93094300D01*
X115155700Y-93256198D01*
X115160208Y-93259355D01*
X115160211Y-93259357D01*
X115238389Y-93314098D01*
X115343251Y-93387523D01*
X115348233Y-93389846D01*
X115348238Y-93389849D01*
X115545775Y-93481961D01*
X115550757Y-93484284D01*
X115556065Y-93485706D01*
X115556067Y-93485707D01*
X115766598Y-93542119D01*
X115766600Y-93542119D01*
X115771913Y-93543543D01*
X116000000Y-93563498D01*
X116228087Y-93543543D01*
X116233400Y-93542119D01*
X116233402Y-93542119D01*
X116443933Y-93485707D01*
X116443935Y-93485706D01*
X116449243Y-93484284D01*
X116454225Y-93481961D01*
X116651762Y-93389849D01*
X116651767Y-93389846D01*
X116656749Y-93387523D01*
X116761611Y-93314098D01*
X116839789Y-93259357D01*
X116839792Y-93259355D01*
X116844300Y-93256198D01*
X117006198Y-93094300D01*
X117137523Y-92906749D01*
X117139846Y-92901767D01*
X117139849Y-92901762D01*
X117231961Y-92704225D01*
X117231961Y-92704224D01*
X117234284Y-92699243D01*
X117293543Y-92478087D01*
X117313498Y-92250000D01*
X117293543Y-92021913D01*
X117234284Y-91800757D01*
X117181565Y-91687699D01*
X117139849Y-91598238D01*
X117139846Y-91598233D01*
X117137523Y-91593251D01*
X117006198Y-91405700D01*
X116844300Y-91243802D01*
X116839792Y-91240645D01*
X116839789Y-91240643D01*
X116761611Y-91185902D01*
X116656749Y-91112477D01*
X116651767Y-91110154D01*
X116651762Y-91110151D01*
X116454225Y-91018039D01*
X116454224Y-91018039D01*
X116449243Y-91015716D01*
X116443935Y-91014294D01*
X116443933Y-91014293D01*
X116233402Y-90957881D01*
X116233400Y-90957881D01*
X116228087Y-90956457D01*
X116000000Y-90936502D01*
X115771913Y-90956457D01*
X115766600Y-90957881D01*
X115766598Y-90957881D01*
X115556067Y-91014293D01*
X115556065Y-91014294D01*
X115550757Y-91015716D01*
X115545776Y-91018039D01*
X115545775Y-91018039D01*
X115348238Y-91110151D01*
X115348233Y-91110154D01*
X115343251Y-91112477D01*
X115238389Y-91185902D01*
X115160211Y-91240643D01*
X115160208Y-91240645D01*
X115155700Y-91243802D01*
X114993802Y-91405700D01*
X114862477Y-91593251D01*
X114860154Y-91598233D01*
X114860151Y-91598238D01*
X114818435Y-91687699D01*
X114765716Y-91800757D01*
X114706457Y-92021913D01*
X114686502Y-92250000D01*
X113666761Y-92250000D01*
X113664284Y-92240757D01*
X113661961Y-92235775D01*
X113569849Y-92038238D01*
X113569846Y-92038233D01*
X113567523Y-92033251D01*
X113436198Y-91845700D01*
X113274300Y-91683802D01*
X113269792Y-91680645D01*
X113269789Y-91680643D01*
X113138542Y-91588743D01*
X113086749Y-91552477D01*
X113081767Y-91550154D01*
X113081762Y-91550151D01*
X112884225Y-91458039D01*
X112884224Y-91458039D01*
X112879243Y-91455716D01*
X112873935Y-91454294D01*
X112873933Y-91454293D01*
X112663402Y-91397881D01*
X112663400Y-91397881D01*
X112658087Y-91396457D01*
X112430000Y-91376502D01*
X112201913Y-91396457D01*
X112196600Y-91397881D01*
X112196598Y-91397881D01*
X111986067Y-91454293D01*
X111986065Y-91454294D01*
X111980757Y-91455716D01*
X111975776Y-91458039D01*
X111975775Y-91458039D01*
X111778238Y-91550151D01*
X111778233Y-91550154D01*
X111773251Y-91552477D01*
X111721458Y-91588743D01*
X111590211Y-91680643D01*
X111590208Y-91680645D01*
X111585700Y-91683802D01*
X111423802Y-91845700D01*
X111292477Y-92033251D01*
X111290154Y-92038233D01*
X111290151Y-92038238D01*
X111198039Y-92235775D01*
X111195716Y-92240757D01*
X111136457Y-92461913D01*
X111116502Y-92690000D01*
X106123498Y-92690000D01*
X106103543Y-92461913D01*
X106044284Y-92240757D01*
X106041961Y-92235775D01*
X105949849Y-92038238D01*
X105949846Y-92038233D01*
X105947523Y-92033251D01*
X105816198Y-91845700D01*
X105654300Y-91683802D01*
X105649792Y-91680645D01*
X105649789Y-91680643D01*
X105518542Y-91588743D01*
X105466749Y-91552477D01*
X105461767Y-91550154D01*
X105461762Y-91550151D01*
X105264225Y-91458039D01*
X105264224Y-91458039D01*
X105259243Y-91455716D01*
X105253935Y-91454294D01*
X105253933Y-91454293D01*
X105043402Y-91397881D01*
X105043400Y-91397881D01*
X105038087Y-91396457D01*
X104810000Y-91376502D01*
X104581913Y-91396457D01*
X104576600Y-91397881D01*
X104576598Y-91397881D01*
X104366067Y-91454293D01*
X104366065Y-91454294D01*
X104360757Y-91455716D01*
X104355776Y-91458039D01*
X104355775Y-91458039D01*
X104158238Y-91550151D01*
X104158233Y-91550154D01*
X104153251Y-91552477D01*
X104101458Y-91588743D01*
X103970211Y-91680643D01*
X103970208Y-91680645D01*
X103965700Y-91683802D01*
X103803802Y-91845700D01*
X103672477Y-92033251D01*
X103670154Y-92038233D01*
X103670151Y-92038238D01*
X103578039Y-92235775D01*
X103575716Y-92240757D01*
X103516457Y-92461913D01*
X103496502Y-92690000D01*
X100508500Y-92690000D01*
X100508500Y-90836062D01*
X123528493Y-90836062D01*
X123537789Y-90848077D01*
X123588994Y-90883931D01*
X123598489Y-90889414D01*
X123795947Y-90981490D01*
X123806239Y-90985236D01*
X124016688Y-91041625D01*
X124027481Y-91043528D01*
X124244525Y-91062517D01*
X124255475Y-91062517D01*
X124472519Y-91043528D01*
X124483312Y-91041625D01*
X124693761Y-90985236D01*
X124704053Y-90981490D01*
X124901511Y-90889414D01*
X124911006Y-90883931D01*
X124963048Y-90847491D01*
X124971424Y-90837012D01*
X124964356Y-90823566D01*
X124262812Y-90122022D01*
X124248868Y-90114408D01*
X124247035Y-90114539D01*
X124240420Y-90118790D01*
X123534923Y-90824287D01*
X123528493Y-90836062D01*
X100508500Y-90836062D01*
X100508500Y-89755475D01*
X122937483Y-89755475D01*
X122956472Y-89972519D01*
X122958375Y-89983312D01*
X123014764Y-90193761D01*
X123018510Y-90204053D01*
X123110586Y-90401511D01*
X123116069Y-90411006D01*
X123152509Y-90463048D01*
X123162988Y-90471424D01*
X123176434Y-90464356D01*
X123877978Y-89762812D01*
X123884356Y-89751132D01*
X124614408Y-89751132D01*
X124614539Y-89752965D01*
X124618790Y-89759580D01*
X125324287Y-90465077D01*
X125336062Y-90471507D01*
X125348077Y-90462211D01*
X125383931Y-90411006D01*
X125389414Y-90401511D01*
X125481490Y-90204053D01*
X125485236Y-90193761D01*
X125541625Y-89983312D01*
X125543528Y-89972519D01*
X125562517Y-89755475D01*
X125562517Y-89744525D01*
X125543528Y-89527481D01*
X125541625Y-89516688D01*
X125485236Y-89306239D01*
X125481490Y-89295947D01*
X125389414Y-89098489D01*
X125383931Y-89088994D01*
X125347491Y-89036952D01*
X125337012Y-89028576D01*
X125323566Y-89035644D01*
X124622022Y-89737188D01*
X124614408Y-89751132D01*
X123884356Y-89751132D01*
X123885592Y-89748868D01*
X123885461Y-89747035D01*
X123881210Y-89740420D01*
X123175713Y-89034923D01*
X123163938Y-89028493D01*
X123151923Y-89037789D01*
X123116069Y-89088994D01*
X123110586Y-89098489D01*
X123018510Y-89295947D01*
X123014764Y-89306239D01*
X122958375Y-89516688D01*
X122956472Y-89527481D01*
X122937483Y-89744525D01*
X122937483Y-89755475D01*
X100508500Y-89755475D01*
X100508500Y-87492925D01*
X113986645Y-87492925D01*
X113995254Y-87587518D01*
X113995310Y-87588159D01*
X114003268Y-87682934D01*
X114004248Y-87686353D01*
X114004570Y-87689888D01*
X114014761Y-87724513D01*
X114031364Y-87780928D01*
X114031577Y-87781660D01*
X114057783Y-87873050D01*
X114059406Y-87876208D01*
X114060410Y-87879619D01*
X114072224Y-87902216D01*
X114104410Y-87963783D01*
X114104814Y-87964563D01*
X114145369Y-88043473D01*
X114148187Y-88048956D01*
X114150393Y-88051739D01*
X114152040Y-88054890D01*
X114211466Y-88128800D01*
X114212015Y-88129488D01*
X114254646Y-88183274D01*
X114271035Y-88203953D01*
X114273743Y-88206258D01*
X114275968Y-88209025D01*
X114348781Y-88270123D01*
X114349247Y-88270516D01*
X114421650Y-88332136D01*
X114424751Y-88333869D01*
X114427474Y-88336154D01*
X114432869Y-88339120D01*
X114432872Y-88339122D01*
X114510718Y-88381919D01*
X114511485Y-88382344D01*
X114594294Y-88428624D01*
X114597677Y-88429723D01*
X114600787Y-88431433D01*
X114606668Y-88433298D01*
X114606669Y-88433299D01*
X114691233Y-88460124D01*
X114692071Y-88460393D01*
X114776532Y-88487836D01*
X114782392Y-88489740D01*
X114785919Y-88490161D01*
X114789306Y-88491235D01*
X114795427Y-88491922D01*
X114795429Y-88491922D01*
X114883594Y-88501811D01*
X114884468Y-88501912D01*
X114978777Y-88513158D01*
X114984912Y-88512686D01*
X114984914Y-88512686D01*
X115034489Y-88508871D01*
X115044156Y-88508500D01*
X123403509Y-88508500D01*
X123471630Y-88528502D01*
X123518123Y-88582158D01*
X123528839Y-88647472D01*
X123527454Y-88660853D01*
X123535644Y-88676434D01*
X124237188Y-89377978D01*
X124251132Y-89385592D01*
X124252965Y-89385461D01*
X124259580Y-89381210D01*
X124965077Y-88675713D01*
X124972691Y-88661769D01*
X124971384Y-88643489D01*
X124986475Y-88574115D01*
X125036677Y-88523913D01*
X125097063Y-88508500D01*
X128342125Y-88508500D01*
X128410246Y-88528502D01*
X128456739Y-88582158D01*
X128466843Y-88652432D01*
X128437349Y-88717012D01*
X128414396Y-88737713D01*
X128410211Y-88740643D01*
X128410208Y-88740645D01*
X128405700Y-88743802D01*
X128243802Y-88905700D01*
X128112477Y-89093251D01*
X128110154Y-89098233D01*
X128110151Y-89098238D01*
X128110034Y-89098489D01*
X128015716Y-89300757D01*
X128014294Y-89306065D01*
X128014293Y-89306067D01*
X127993019Y-89385461D01*
X127956457Y-89521913D01*
X127936502Y-89750000D01*
X127956457Y-89978087D01*
X127957881Y-89983400D01*
X127957881Y-89983402D01*
X127995025Y-90122022D01*
X128015716Y-90199243D01*
X128018039Y-90204224D01*
X128018039Y-90204225D01*
X128110151Y-90401762D01*
X128110154Y-90401767D01*
X128112477Y-90406749D01*
X128243802Y-90594300D01*
X128405700Y-90756198D01*
X128410208Y-90759355D01*
X128410211Y-90759357D01*
X128488389Y-90814098D01*
X128593251Y-90887523D01*
X128598233Y-90889846D01*
X128598238Y-90889849D01*
X128740054Y-90955978D01*
X128800757Y-90984284D01*
X128806065Y-90985706D01*
X128806067Y-90985707D01*
X129016598Y-91042119D01*
X129016600Y-91042119D01*
X129021913Y-91043543D01*
X129250000Y-91063498D01*
X129478087Y-91043543D01*
X129483400Y-91042119D01*
X129483402Y-91042119D01*
X129693933Y-90985707D01*
X129693935Y-90985706D01*
X129699243Y-90984284D01*
X129759946Y-90955978D01*
X129901762Y-90889849D01*
X129901767Y-90889846D01*
X129906749Y-90887523D01*
X130011611Y-90814098D01*
X130089789Y-90759357D01*
X130089792Y-90759355D01*
X130094300Y-90756198D01*
X130256198Y-90594300D01*
X130387523Y-90406749D01*
X130389846Y-90401767D01*
X130389849Y-90401762D01*
X130481961Y-90204225D01*
X130481961Y-90204224D01*
X130484284Y-90199243D01*
X130504976Y-90122022D01*
X130542119Y-89983402D01*
X130542119Y-89983400D01*
X130543543Y-89978087D01*
X130563498Y-89750000D01*
X130543543Y-89521913D01*
X130506981Y-89385461D01*
X130485707Y-89306067D01*
X130485706Y-89306065D01*
X130484284Y-89300757D01*
X130389966Y-89098489D01*
X130389849Y-89098238D01*
X130389846Y-89098233D01*
X130387523Y-89093251D01*
X130256198Y-88905700D01*
X130094300Y-88743802D01*
X130089792Y-88740645D01*
X130089789Y-88740643D01*
X130085604Y-88737713D01*
X130041276Y-88682256D01*
X130033967Y-88611637D01*
X130065998Y-88548276D01*
X130127199Y-88512291D01*
X130157875Y-88508500D01*
X135182226Y-88508500D01*
X135197145Y-88509386D01*
X135228777Y-88513158D01*
X135234912Y-88512686D01*
X135234914Y-88512686D01*
X135284489Y-88508871D01*
X135294156Y-88508500D01*
X135299769Y-88508500D01*
X135336591Y-88504890D01*
X135339212Y-88504660D01*
X135345818Y-88504152D01*
X135419831Y-88498457D01*
X135419835Y-88498456D01*
X135425972Y-88497984D01*
X135431903Y-88496328D01*
X135436345Y-88495545D01*
X135440708Y-88494681D01*
X135446833Y-88494080D01*
X135530131Y-88468931D01*
X135532665Y-88468195D01*
X135610525Y-88446456D01*
X135610526Y-88446456D01*
X135616463Y-88444798D01*
X135621967Y-88442018D01*
X135626164Y-88440390D01*
X135630273Y-88438696D01*
X135636169Y-88436916D01*
X135712994Y-88396068D01*
X135715336Y-88394854D01*
X135787502Y-88358400D01*
X135792996Y-88355625D01*
X135797849Y-88351833D01*
X135801608Y-88349448D01*
X135805351Y-88346961D01*
X135810796Y-88344066D01*
X135878248Y-88289053D01*
X135880289Y-88287424D01*
X135943987Y-88237659D01*
X135943993Y-88237653D01*
X135948847Y-88233861D01*
X135952873Y-88229197D01*
X135956094Y-88226129D01*
X135959283Y-88222963D01*
X135964062Y-88219065D01*
X136019541Y-88152003D01*
X136021175Y-88150069D01*
X136078078Y-88084145D01*
X136081121Y-88078788D01*
X136083708Y-88075121D01*
X136086204Y-88071421D01*
X136090130Y-88066675D01*
X136131537Y-87990095D01*
X136132808Y-87987803D01*
X136146454Y-87963783D01*
X136175769Y-87912179D01*
X136177713Y-87906335D01*
X136179547Y-87902216D01*
X136181272Y-87898113D01*
X136184198Y-87892701D01*
X136189178Y-87876615D01*
X136209928Y-87809580D01*
X136210735Y-87807067D01*
X136236249Y-87730369D01*
X136238197Y-87724513D01*
X136238970Y-87718392D01*
X136239969Y-87713995D01*
X136240860Y-87709652D01*
X136242682Y-87703768D01*
X136251780Y-87617205D01*
X136252082Y-87614597D01*
X136262543Y-87531796D01*
X136262543Y-87531791D01*
X136262985Y-87528295D01*
X136263270Y-87507884D01*
X136263355Y-87507075D01*
X136263291Y-87506372D01*
X136263380Y-87500000D01*
X136254105Y-87405403D01*
X136254023Y-87404528D01*
X136245988Y-87316245D01*
X136245430Y-87310112D01*
X136244427Y-87306703D01*
X136244080Y-87303167D01*
X136216639Y-87212279D01*
X136216414Y-87211525D01*
X136189590Y-87120381D01*
X136187942Y-87117228D01*
X136186916Y-87113831D01*
X136142289Y-87029899D01*
X136141922Y-87029201D01*
X136135877Y-87017637D01*
X136097960Y-86945110D01*
X136095735Y-86942342D01*
X136094066Y-86939204D01*
X136079310Y-86921111D01*
X136034059Y-86865628D01*
X136033506Y-86864944D01*
X135977898Y-86795782D01*
X135977892Y-86795776D01*
X135974032Y-86790975D01*
X135971311Y-86788692D01*
X135969065Y-86785938D01*
X135963018Y-86780935D01*
X135936051Y-86758627D01*
X135895864Y-86725381D01*
X135895329Y-86724935D01*
X135822526Y-86663846D01*
X135819411Y-86662134D01*
X135816675Y-86659870D01*
X135733101Y-86614682D01*
X135732363Y-86614279D01*
X135721084Y-86608078D01*
X135649213Y-86568567D01*
X135645830Y-86567494D01*
X135642701Y-86565802D01*
X135551974Y-86537718D01*
X135551158Y-86537462D01*
X135466565Y-86510627D01*
X135466561Y-86510626D01*
X135460694Y-86508765D01*
X135457163Y-86508369D01*
X135453768Y-86507318D01*
X135359293Y-86497389D01*
X135358579Y-86497311D01*
X135306773Y-86491500D01*
X135304200Y-86491500D01*
X135300224Y-86491180D01*
X135263204Y-86487289D01*
X135263202Y-86487289D01*
X135257075Y-86486645D01*
X135211309Y-86490810D01*
X135209430Y-86490981D01*
X135198010Y-86491500D01*
X115059873Y-86491500D01*
X115046703Y-86490810D01*
X115013204Y-86487289D01*
X115013202Y-86487289D01*
X115007075Y-86486645D01*
X114956827Y-86491218D01*
X114952793Y-86491500D01*
X114950231Y-86491500D01*
X114947173Y-86491800D01*
X114947169Y-86491800D01*
X114905404Y-86495895D01*
X114904529Y-86495977D01*
X114889982Y-86497301D01*
X114810112Y-86504570D01*
X114806703Y-86505573D01*
X114803167Y-86505920D01*
X114712279Y-86533361D01*
X114711610Y-86533561D01*
X114620381Y-86560410D01*
X114617228Y-86562058D01*
X114613831Y-86563084D01*
X114608401Y-86565971D01*
X114608399Y-86565972D01*
X114584013Y-86578938D01*
X114529899Y-86607711D01*
X114529319Y-86608016D01*
X114445110Y-86652040D01*
X114442342Y-86654265D01*
X114439204Y-86655934D01*
X114429503Y-86663846D01*
X114365628Y-86715941D01*
X114364944Y-86716494D01*
X114295782Y-86772102D01*
X114295776Y-86772108D01*
X114290975Y-86775968D01*
X114288692Y-86778689D01*
X114285938Y-86780935D01*
X114282011Y-86785682D01*
X114282009Y-86785684D01*
X114225441Y-86854064D01*
X114224935Y-86854671D01*
X114163846Y-86927474D01*
X114162134Y-86930589D01*
X114159870Y-86933325D01*
X114154995Y-86942342D01*
X114114700Y-87016865D01*
X114114298Y-87017603D01*
X114068567Y-87100787D01*
X114067494Y-87104170D01*
X114065802Y-87107299D01*
X114059923Y-87126291D01*
X114037725Y-87198002D01*
X114037468Y-87198822D01*
X114008765Y-87289306D01*
X114008369Y-87292837D01*
X114007318Y-87296232D01*
X114005454Y-87313970D01*
X113997397Y-87390625D01*
X113997302Y-87391500D01*
X113995743Y-87405403D01*
X113986719Y-87485851D01*
X113987016Y-87489392D01*
X113986645Y-87492925D01*
X100508500Y-87492925D01*
X100508500Y-82420400D01*
X123081500Y-82420400D01*
X123081837Y-82423646D01*
X123081837Y-82423650D01*
X123091378Y-82515599D01*
X123092474Y-82526166D01*
X123148450Y-82693946D01*
X123241522Y-82844348D01*
X123366697Y-82969305D01*
X123372927Y-82973145D01*
X123372928Y-82973146D01*
X123510090Y-83057694D01*
X123517262Y-83062115D01*
X123559049Y-83075975D01*
X123678611Y-83115632D01*
X123678613Y-83115632D01*
X123685139Y-83117797D01*
X123691975Y-83118497D01*
X123691978Y-83118498D01*
X123735031Y-83122909D01*
X123789600Y-83128500D01*
X125130400Y-83128500D01*
X125133646Y-83128163D01*
X125133650Y-83128163D01*
X125229308Y-83118238D01*
X125229312Y-83118237D01*
X125236166Y-83117526D01*
X125242702Y-83115345D01*
X125242704Y-83115345D01*
X125374806Y-83071272D01*
X125403946Y-83061550D01*
X125554348Y-82968478D01*
X125679305Y-82843303D01*
X125772115Y-82692738D01*
X125774164Y-82694001D01*
X125813487Y-82649344D01*
X125881765Y-82629886D01*
X125949724Y-82650430D01*
X125975997Y-82673384D01*
X126032209Y-82738276D01*
X126206615Y-82883071D01*
X126211082Y-82885681D01*
X126397867Y-82994829D01*
X126397870Y-82994831D01*
X126402329Y-82997436D01*
X126614093Y-83078301D01*
X126619161Y-83079332D01*
X126619164Y-83079333D01*
X126725764Y-83101021D01*
X126836221Y-83123494D01*
X126841394Y-83123684D01*
X126841397Y-83123684D01*
X127057583Y-83131611D01*
X127057587Y-83131611D01*
X127062747Y-83131800D01*
X127067867Y-83131144D01*
X127067869Y-83131144D01*
X127139513Y-83121966D01*
X127287588Y-83102997D01*
X127292537Y-83101512D01*
X127292543Y-83101511D01*
X127499756Y-83039344D01*
X127499755Y-83039344D01*
X127504706Y-83037859D01*
X127708270Y-82938134D01*
X127712475Y-82935134D01*
X127712481Y-82935131D01*
X127776490Y-82889474D01*
X128765355Y-82889474D01*
X128770636Y-82896529D01*
X128938087Y-82994380D01*
X128947370Y-82998827D01*
X129149402Y-83075975D01*
X129159300Y-83078851D01*
X129371219Y-83121966D01*
X129381447Y-83123185D01*
X129597560Y-83131111D01*
X129607846Y-83130644D01*
X129822353Y-83103164D01*
X129832439Y-83101021D01*
X130039581Y-83038875D01*
X130049158Y-83035122D01*
X130243378Y-82939975D01*
X130252216Y-82934706D01*
X130303587Y-82898064D01*
X130311988Y-82887364D01*
X130305002Y-82874213D01*
X129552811Y-82122021D01*
X129538868Y-82114408D01*
X129537034Y-82114539D01*
X129530420Y-82118790D01*
X128772112Y-82877099D01*
X128765355Y-82889474D01*
X127776490Y-82889474D01*
X127888609Y-82809500D01*
X127888611Y-82809498D01*
X127892813Y-82806501D01*
X128053378Y-82646495D01*
X128169262Y-82485226D01*
X128225256Y-82441578D01*
X128295959Y-82435132D01*
X128358924Y-82467935D01*
X128379016Y-82492916D01*
X128391914Y-82513962D01*
X128402372Y-82523424D01*
X128411148Y-82519641D01*
X129167979Y-81762811D01*
X129174356Y-81751132D01*
X129904408Y-81751132D01*
X129904539Y-81752966D01*
X129908790Y-81759580D01*
X130664810Y-82515599D01*
X130676816Y-82522155D01*
X130688555Y-82513186D01*
X130722206Y-82466356D01*
X130727516Y-82457519D01*
X130823329Y-82263655D01*
X130827128Y-82254060D01*
X130889991Y-82047156D01*
X130892170Y-82037075D01*
X130920635Y-81820868D01*
X130921154Y-81814193D01*
X130922641Y-81753364D01*
X130922447Y-81746646D01*
X130904580Y-81529316D01*
X130902897Y-81519154D01*
X130850213Y-81309407D01*
X130846895Y-81299660D01*
X130760659Y-81101330D01*
X130755792Y-81092255D01*
X130687528Y-80986734D01*
X130676843Y-80977531D01*
X130667276Y-80981935D01*
X129912021Y-81737189D01*
X129904408Y-81751132D01*
X129174356Y-81751132D01*
X129175592Y-81748868D01*
X129175461Y-81747034D01*
X129171210Y-81740420D01*
X128415451Y-80984662D01*
X128403920Y-80978365D01*
X128391636Y-80987989D01*
X128373940Y-81013931D01*
X128319029Y-81058935D01*
X128248504Y-81067107D01*
X128184757Y-81035853D01*
X128164059Y-81011368D01*
X128098722Y-80910373D01*
X128098720Y-80910370D01*
X128095914Y-80906033D01*
X127943356Y-80738374D01*
X127939305Y-80735175D01*
X127939301Y-80735171D01*
X127783518Y-80612141D01*
X128766936Y-80612141D01*
X128773679Y-80624468D01*
X129527189Y-81377979D01*
X129541132Y-81385592D01*
X129542966Y-81385461D01*
X129549580Y-81381210D01*
X130307633Y-80623156D01*
X130314650Y-80610305D01*
X130307295Y-80600210D01*
X130300664Y-80595804D01*
X130111334Y-80491288D01*
X130101937Y-80487065D01*
X129898086Y-80414877D01*
X129888115Y-80412243D01*
X129675216Y-80374321D01*
X129664962Y-80373351D01*
X129448716Y-80370708D01*
X129438431Y-80371428D01*
X129224666Y-80404138D01*
X129214647Y-80406525D01*
X129009086Y-80473713D01*
X128999584Y-80477708D01*
X128807768Y-80577560D01*
X128799048Y-80583052D01*
X128775390Y-80600815D01*
X128766936Y-80612141D01*
X127783518Y-80612141D01*
X127769519Y-80601085D01*
X127769515Y-80601083D01*
X127765464Y-80597883D01*
X127567015Y-80488334D01*
X127562146Y-80486610D01*
X127562142Y-80486608D01*
X127358214Y-80414393D01*
X127358210Y-80414392D01*
X127353339Y-80412667D01*
X127348246Y-80411760D01*
X127348243Y-80411759D01*
X127275832Y-80398861D01*
X127130173Y-80372915D01*
X127041227Y-80371828D01*
X126908681Y-80370208D01*
X126908679Y-80370208D01*
X126903511Y-80370145D01*
X126679441Y-80404433D01*
X126463979Y-80474857D01*
X126459391Y-80477245D01*
X126459387Y-80477247D01*
X126267502Y-80577136D01*
X126262913Y-80579525D01*
X126258780Y-80582628D01*
X126258777Y-80582630D01*
X126085776Y-80712523D01*
X126081641Y-80715628D01*
X126078069Y-80719366D01*
X125971634Y-80830743D01*
X125910109Y-80866173D01*
X125839197Y-80862716D01*
X125781411Y-80821470D01*
X125771821Y-80805887D01*
X125771550Y-80806054D01*
X125682332Y-80661880D01*
X125678478Y-80655652D01*
X125553303Y-80530695D01*
X125547072Y-80526854D01*
X125408968Y-80441725D01*
X125408966Y-80441724D01*
X125402738Y-80437885D01*
X125301883Y-80404433D01*
X125241389Y-80384368D01*
X125241387Y-80384368D01*
X125234861Y-80382203D01*
X125228025Y-80381503D01*
X125228022Y-80381502D01*
X125184969Y-80377091D01*
X125130400Y-80371500D01*
X123789600Y-80371500D01*
X123786354Y-80371837D01*
X123786350Y-80371837D01*
X123690692Y-80381762D01*
X123690688Y-80381763D01*
X123683834Y-80382474D01*
X123677298Y-80384655D01*
X123677296Y-80384655D01*
X123545194Y-80428728D01*
X123516054Y-80438450D01*
X123365652Y-80531522D01*
X123240695Y-80656697D01*
X123147885Y-80807262D01*
X123092203Y-80975139D01*
X123081500Y-81079600D01*
X123081500Y-82420400D01*
X100508500Y-82420400D01*
X100508500Y-81800785D01*
X107291500Y-81800785D01*
X107298255Y-81862967D01*
X107349385Y-81999356D01*
X107436739Y-82115912D01*
X107553295Y-82203266D01*
X107689684Y-82254396D01*
X107751866Y-82261151D01*
X110248134Y-82261151D01*
X110310316Y-82254396D01*
X110446705Y-82203266D01*
X110563261Y-82115912D01*
X110650615Y-81999356D01*
X110701745Y-81862967D01*
X110708500Y-81800785D01*
X110708500Y-79304517D01*
X110701745Y-79242335D01*
X110650615Y-79105946D01*
X110563261Y-78989390D01*
X110446705Y-78902036D01*
X110310316Y-78850906D01*
X110248134Y-78844151D01*
X107751866Y-78844151D01*
X107689684Y-78850906D01*
X107553295Y-78902036D01*
X107436739Y-78989390D01*
X107349385Y-79105946D01*
X107298255Y-79242335D01*
X107291500Y-79304517D01*
X107291500Y-81800785D01*
X100508500Y-81800785D01*
X100508500Y-75507802D01*
X107287296Y-75507802D01*
X107299480Y-75761449D01*
X107349021Y-76010508D01*
X107350600Y-76014906D01*
X107350602Y-76014913D01*
X107395022Y-76138631D01*
X107434831Y-76249509D01*
X107555025Y-76473202D01*
X107557820Y-76476945D01*
X107557822Y-76476948D01*
X107704171Y-76672933D01*
X107704176Y-76672939D01*
X107706963Y-76676671D01*
X107710272Y-76679951D01*
X107710277Y-76679957D01*
X107808859Y-76777682D01*
X107887307Y-76855448D01*
X107891069Y-76858206D01*
X107891072Y-76858209D01*
X107996764Y-76935705D01*
X108092094Y-77005604D01*
X108096229Y-77007780D01*
X108096233Y-77007782D01*
X108214289Y-77069894D01*
X108316827Y-77123842D01*
X108556568Y-77207563D01*
X108806050Y-77254929D01*
X108926532Y-77259662D01*
X109055125Y-77264715D01*
X109055130Y-77264715D01*
X109059793Y-77264898D01*
X109158774Y-77254058D01*
X109307569Y-77237763D01*
X109307575Y-77237762D01*
X109312222Y-77237253D01*
X109421680Y-77208435D01*
X109553273Y-77173789D01*
X109557793Y-77172599D01*
X109676353Y-77121662D01*
X109786807Y-77074208D01*
X109786810Y-77074206D01*
X109791110Y-77072359D01*
X109795090Y-77069896D01*
X109795094Y-77069894D01*
X110003064Y-76941198D01*
X110003066Y-76941196D01*
X110007047Y-76938733D01*
X110105428Y-76855448D01*
X110197289Y-76777682D01*
X110197291Y-76777680D01*
X110200862Y-76774657D01*
X110368295Y-76583735D01*
X110393840Y-76544022D01*
X110470275Y-76425190D01*
X110505669Y-76370163D01*
X110609967Y-76138631D01*
X110678896Y-75894226D01*
X110696382Y-75756777D01*
X110710545Y-75645449D01*
X110710545Y-75645443D01*
X110710943Y-75642318D01*
X110713291Y-75552651D01*
X110694472Y-75299410D01*
X110684531Y-75255475D01*
X110683292Y-75250000D01*
X121876502Y-75250000D01*
X121896457Y-75478087D01*
X121897881Y-75483400D01*
X121897881Y-75483402D01*
X121916437Y-75552651D01*
X121955716Y-75699243D01*
X121958039Y-75704224D01*
X121958039Y-75704225D01*
X122050151Y-75901762D01*
X122050154Y-75901767D01*
X122052477Y-75906749D01*
X122183802Y-76094300D01*
X122345700Y-76256198D01*
X122350208Y-76259355D01*
X122350211Y-76259357D01*
X122428389Y-76314098D01*
X122533251Y-76387523D01*
X122538233Y-76389846D01*
X122538238Y-76389849D01*
X122735775Y-76481961D01*
X122740757Y-76484284D01*
X122746065Y-76485706D01*
X122746067Y-76485707D01*
X122956598Y-76542119D01*
X122956600Y-76542119D01*
X122961913Y-76543543D01*
X123190000Y-76563498D01*
X123418087Y-76543543D01*
X123423400Y-76542119D01*
X123423402Y-76542119D01*
X123633933Y-76485707D01*
X123633935Y-76485706D01*
X123639243Y-76484284D01*
X123644225Y-76481961D01*
X123841762Y-76389849D01*
X123841767Y-76389846D01*
X123846749Y-76387523D01*
X123951611Y-76314098D01*
X124029789Y-76259357D01*
X124029792Y-76259355D01*
X124034300Y-76256198D01*
X124196198Y-76094300D01*
X124327523Y-75906749D01*
X124329846Y-75901767D01*
X124329849Y-75901762D01*
X124421961Y-75704225D01*
X124421961Y-75704224D01*
X124424284Y-75699243D01*
X124463564Y-75552651D01*
X124482119Y-75483402D01*
X124482119Y-75483400D01*
X124483543Y-75478087D01*
X124503498Y-75250000D01*
X129496502Y-75250000D01*
X129516457Y-75478087D01*
X129517881Y-75483400D01*
X129517881Y-75483402D01*
X129536437Y-75552651D01*
X129575716Y-75699243D01*
X129578039Y-75704224D01*
X129578039Y-75704225D01*
X129670151Y-75901762D01*
X129670154Y-75901767D01*
X129672477Y-75906749D01*
X129803802Y-76094300D01*
X129965700Y-76256198D01*
X129970208Y-76259355D01*
X129970211Y-76259357D01*
X130048389Y-76314098D01*
X130153251Y-76387523D01*
X130158233Y-76389846D01*
X130158238Y-76389849D01*
X130355775Y-76481961D01*
X130360757Y-76484284D01*
X130366065Y-76485706D01*
X130366067Y-76485707D01*
X130576598Y-76542119D01*
X130576600Y-76542119D01*
X130581913Y-76543543D01*
X130810000Y-76563498D01*
X131038087Y-76543543D01*
X131043400Y-76542119D01*
X131043402Y-76542119D01*
X131253933Y-76485707D01*
X131253935Y-76485706D01*
X131259243Y-76484284D01*
X131264225Y-76481961D01*
X131461762Y-76389849D01*
X131461767Y-76389846D01*
X131466749Y-76387523D01*
X131571611Y-76314098D01*
X131649789Y-76259357D01*
X131649792Y-76259355D01*
X131654300Y-76256198D01*
X131816198Y-76094300D01*
X131947523Y-75906749D01*
X131949846Y-75901767D01*
X131949849Y-75901762D01*
X132041961Y-75704225D01*
X132041961Y-75704224D01*
X132044284Y-75699243D01*
X132083564Y-75552651D01*
X132102119Y-75483402D01*
X132102119Y-75483400D01*
X132103543Y-75478087D01*
X132123498Y-75250000D01*
X132103543Y-75021913D01*
X132102119Y-75016598D01*
X132045707Y-74806067D01*
X132045706Y-74806065D01*
X132044284Y-74800757D01*
X131950040Y-74598648D01*
X131949849Y-74598238D01*
X131949846Y-74598233D01*
X131947523Y-74593251D01*
X131816198Y-74405700D01*
X131654300Y-74243802D01*
X131649792Y-74240645D01*
X131649789Y-74240643D01*
X131571611Y-74185902D01*
X131466749Y-74112477D01*
X131461767Y-74110154D01*
X131461762Y-74110151D01*
X131264225Y-74018039D01*
X131264224Y-74018039D01*
X131259243Y-74015716D01*
X131253935Y-74014294D01*
X131253933Y-74014293D01*
X131043402Y-73957881D01*
X131043400Y-73957881D01*
X131038087Y-73956457D01*
X130810000Y-73936502D01*
X130581913Y-73956457D01*
X130576600Y-73957881D01*
X130576598Y-73957881D01*
X130366067Y-74014293D01*
X130366065Y-74014294D01*
X130360757Y-74015716D01*
X130355776Y-74018039D01*
X130355775Y-74018039D01*
X130158238Y-74110151D01*
X130158233Y-74110154D01*
X130153251Y-74112477D01*
X130048389Y-74185902D01*
X129970211Y-74240643D01*
X129970208Y-74240645D01*
X129965700Y-74243802D01*
X129803802Y-74405700D01*
X129672477Y-74593251D01*
X129670154Y-74598233D01*
X129670151Y-74598238D01*
X129669960Y-74598648D01*
X129575716Y-74800757D01*
X129574294Y-74806065D01*
X129574293Y-74806067D01*
X129517881Y-75016598D01*
X129516457Y-75021913D01*
X129496502Y-75250000D01*
X124503498Y-75250000D01*
X124483543Y-75021913D01*
X124482119Y-75016598D01*
X124425707Y-74806067D01*
X124425706Y-74806065D01*
X124424284Y-74800757D01*
X124330040Y-74598648D01*
X124329849Y-74598238D01*
X124329846Y-74598233D01*
X124327523Y-74593251D01*
X124196198Y-74405700D01*
X124034300Y-74243802D01*
X124029792Y-74240645D01*
X124029789Y-74240643D01*
X123951611Y-74185902D01*
X123846749Y-74112477D01*
X123841767Y-74110154D01*
X123841762Y-74110151D01*
X123644225Y-74018039D01*
X123644224Y-74018039D01*
X123639243Y-74015716D01*
X123633935Y-74014294D01*
X123633933Y-74014293D01*
X123423402Y-73957881D01*
X123423400Y-73957881D01*
X123418087Y-73956457D01*
X123190000Y-73936502D01*
X122961913Y-73956457D01*
X122956600Y-73957881D01*
X122956598Y-73957881D01*
X122746067Y-74014293D01*
X122746065Y-74014294D01*
X122740757Y-74015716D01*
X122735776Y-74018039D01*
X122735775Y-74018039D01*
X122538238Y-74110151D01*
X122538233Y-74110154D01*
X122533251Y-74112477D01*
X122428389Y-74185902D01*
X122350211Y-74240643D01*
X122350208Y-74240645D01*
X122345700Y-74243802D01*
X122183802Y-74405700D01*
X122052477Y-74593251D01*
X122050154Y-74598233D01*
X122050151Y-74598238D01*
X122049960Y-74598648D01*
X121955716Y-74800757D01*
X121954294Y-74806065D01*
X121954293Y-74806067D01*
X121897881Y-75016598D01*
X121896457Y-75021913D01*
X121876502Y-75250000D01*
X110683292Y-75250000D01*
X110639459Y-75056290D01*
X110638428Y-75051733D01*
X110546391Y-74815060D01*
X110525866Y-74779149D01*
X110422702Y-74598648D01*
X110422700Y-74598646D01*
X110420383Y-74594591D01*
X110263171Y-74395168D01*
X110106406Y-74247699D01*
X110081610Y-74224373D01*
X110081608Y-74224371D01*
X110078209Y-74221174D01*
X110034483Y-74190840D01*
X109873393Y-74079088D01*
X109873390Y-74079086D01*
X109869561Y-74076430D01*
X109865384Y-74074370D01*
X109865377Y-74074366D01*
X109645996Y-73966179D01*
X109645992Y-73966178D01*
X109641810Y-73964115D01*
X109399960Y-73886698D01*
X109395355Y-73885948D01*
X109153935Y-73846631D01*
X109153934Y-73846631D01*
X109149323Y-73845880D01*
X109022365Y-73844218D01*
X108900083Y-73842617D01*
X108900080Y-73842617D01*
X108895406Y-73842556D01*
X108643787Y-73876800D01*
X108399993Y-73947859D01*
X108395740Y-73949819D01*
X108395739Y-73949820D01*
X108367818Y-73962692D01*
X108169380Y-74054173D01*
X108165471Y-74056736D01*
X107960928Y-74190840D01*
X107960923Y-74190844D01*
X107957015Y-74193406D01*
X107767562Y-74362499D01*
X107605183Y-74557738D01*
X107473447Y-74774833D01*
X107471638Y-74779147D01*
X107471637Y-74779149D01*
X107460350Y-74806067D01*
X107375246Y-75009016D01*
X107374095Y-75013548D01*
X107374094Y-75013551D01*
X107370579Y-75027393D01*
X107312738Y-75255141D01*
X107287296Y-75507802D01*
X100508500Y-75507802D01*
X100508500Y-68336062D01*
X122528493Y-68336062D01*
X122537789Y-68348077D01*
X122588994Y-68383931D01*
X122598489Y-68389414D01*
X122795947Y-68481490D01*
X122806239Y-68485236D01*
X123016688Y-68541625D01*
X123027481Y-68543528D01*
X123244525Y-68562517D01*
X123255475Y-68562517D01*
X123472519Y-68543528D01*
X123483312Y-68541625D01*
X123693761Y-68485236D01*
X123704053Y-68481490D01*
X123901511Y-68389414D01*
X123911006Y-68383931D01*
X123963048Y-68347491D01*
X123971424Y-68337012D01*
X123964356Y-68323566D01*
X123262812Y-67622022D01*
X123248868Y-67614408D01*
X123247035Y-67614539D01*
X123240420Y-67618790D01*
X122534923Y-68324287D01*
X122528493Y-68336062D01*
X100508500Y-68336062D01*
X100508500Y-67255475D01*
X121937483Y-67255475D01*
X121956472Y-67472519D01*
X121958375Y-67483312D01*
X122014764Y-67693761D01*
X122018510Y-67704053D01*
X122110586Y-67901511D01*
X122116069Y-67911006D01*
X122152509Y-67963048D01*
X122162988Y-67971424D01*
X122176434Y-67964356D01*
X122877978Y-67262812D01*
X122884356Y-67251132D01*
X123614408Y-67251132D01*
X123614539Y-67252965D01*
X123618790Y-67259580D01*
X124324287Y-67965077D01*
X124336062Y-67971507D01*
X124348077Y-67962211D01*
X124383931Y-67911006D01*
X124389414Y-67901511D01*
X124481490Y-67704053D01*
X124485236Y-67693761D01*
X124541625Y-67483312D01*
X124543528Y-67472519D01*
X124562517Y-67255475D01*
X124562517Y-67250000D01*
X129556502Y-67250000D01*
X129576457Y-67478087D01*
X129577881Y-67483400D01*
X129577881Y-67483402D01*
X129615025Y-67622022D01*
X129635716Y-67699243D01*
X129638039Y-67704224D01*
X129638039Y-67704225D01*
X129730151Y-67901762D01*
X129730154Y-67901767D01*
X129732477Y-67906749D01*
X129863802Y-68094300D01*
X130025700Y-68256198D01*
X130030208Y-68259355D01*
X130030211Y-68259357D01*
X130108389Y-68314098D01*
X130213251Y-68387523D01*
X130218233Y-68389846D01*
X130218238Y-68389849D01*
X130414765Y-68481490D01*
X130420757Y-68484284D01*
X130426065Y-68485706D01*
X130426067Y-68485707D01*
X130636598Y-68542119D01*
X130636600Y-68542119D01*
X130641913Y-68543543D01*
X130870000Y-68563498D01*
X131098087Y-68543543D01*
X131103400Y-68542119D01*
X131103402Y-68542119D01*
X131313933Y-68485707D01*
X131313935Y-68485706D01*
X131319243Y-68484284D01*
X131325235Y-68481490D01*
X131521762Y-68389849D01*
X131521767Y-68389846D01*
X131526749Y-68387523D01*
X131631611Y-68314098D01*
X131709789Y-68259357D01*
X131709792Y-68259355D01*
X131714300Y-68256198D01*
X131876198Y-68094300D01*
X132007523Y-67906749D01*
X132009846Y-67901767D01*
X132009849Y-67901762D01*
X132101961Y-67704225D01*
X132101961Y-67704224D01*
X132104284Y-67699243D01*
X132124976Y-67622022D01*
X132162119Y-67483402D01*
X132162119Y-67483400D01*
X132163543Y-67478087D01*
X132183498Y-67250000D01*
X132163543Y-67021913D01*
X132126981Y-66885461D01*
X132105707Y-66806067D01*
X132105706Y-66806065D01*
X132104284Y-66800757D01*
X132009966Y-66598489D01*
X132009849Y-66598238D01*
X132009846Y-66598233D01*
X132007523Y-66593251D01*
X131876198Y-66405700D01*
X131714300Y-66243802D01*
X131709792Y-66240645D01*
X131709789Y-66240643D01*
X131583920Y-66152509D01*
X131526749Y-66112477D01*
X131521767Y-66110154D01*
X131521762Y-66110151D01*
X131324225Y-66018039D01*
X131324224Y-66018039D01*
X131319243Y-66015716D01*
X131313935Y-66014294D01*
X131313933Y-66014293D01*
X131103402Y-65957881D01*
X131103400Y-65957881D01*
X131098087Y-65956457D01*
X130870000Y-65936502D01*
X130641913Y-65956457D01*
X130636600Y-65957881D01*
X130636598Y-65957881D01*
X130426067Y-66014293D01*
X130426065Y-66014294D01*
X130420757Y-66015716D01*
X130415776Y-66018039D01*
X130415775Y-66018039D01*
X130218238Y-66110151D01*
X130218233Y-66110154D01*
X130213251Y-66112477D01*
X130156080Y-66152509D01*
X130030211Y-66240643D01*
X130030208Y-66240645D01*
X130025700Y-66243802D01*
X129863802Y-66405700D01*
X129732477Y-66593251D01*
X129730154Y-66598233D01*
X129730151Y-66598238D01*
X129730034Y-66598489D01*
X129635716Y-66800757D01*
X129634294Y-66806065D01*
X129634293Y-66806067D01*
X129613019Y-66885461D01*
X129576457Y-67021913D01*
X129556502Y-67250000D01*
X124562517Y-67250000D01*
X124562517Y-67244525D01*
X124543528Y-67027481D01*
X124541625Y-67016688D01*
X124485236Y-66806239D01*
X124481490Y-66795947D01*
X124389414Y-66598489D01*
X124383931Y-66588994D01*
X124347491Y-66536952D01*
X124337012Y-66528576D01*
X124323566Y-66535644D01*
X123622022Y-67237188D01*
X123614408Y-67251132D01*
X122884356Y-67251132D01*
X122885592Y-67248868D01*
X122885461Y-67247035D01*
X122881210Y-67240420D01*
X122175713Y-66534923D01*
X122163938Y-66528493D01*
X122151923Y-66537789D01*
X122116069Y-66588994D01*
X122110586Y-66598489D01*
X122018510Y-66795947D01*
X122014764Y-66806239D01*
X121958375Y-67016688D01*
X121956472Y-67027481D01*
X121937483Y-67244525D01*
X121937483Y-67255475D01*
X100508500Y-67255475D01*
X100508500Y-66162988D01*
X122528576Y-66162988D01*
X122535644Y-66176434D01*
X123237188Y-66877978D01*
X123251132Y-66885592D01*
X123252965Y-66885461D01*
X123259580Y-66881210D01*
X123965077Y-66175713D01*
X123971507Y-66163938D01*
X123962211Y-66151923D01*
X123911006Y-66116069D01*
X123901511Y-66110586D01*
X123704053Y-66018510D01*
X123693761Y-66014764D01*
X123483312Y-65958375D01*
X123472519Y-65956472D01*
X123255475Y-65937483D01*
X123244525Y-65937483D01*
X123027481Y-65956472D01*
X123016688Y-65958375D01*
X122806239Y-66014764D01*
X122795947Y-66018510D01*
X122598489Y-66110586D01*
X122588994Y-66116069D01*
X122536952Y-66152509D01*
X122528576Y-66162988D01*
X100508500Y-66162988D01*
X100508500Y-59920400D01*
X124081500Y-59920400D01*
X124092474Y-60026166D01*
X124148450Y-60193946D01*
X124241522Y-60344348D01*
X124366697Y-60469305D01*
X124372927Y-60473145D01*
X124372928Y-60473146D01*
X124510090Y-60557694D01*
X124517262Y-60562115D01*
X124560499Y-60576456D01*
X124678611Y-60615632D01*
X124678613Y-60615632D01*
X124685139Y-60617797D01*
X124691975Y-60618497D01*
X124691978Y-60618498D01*
X124735031Y-60622909D01*
X124789600Y-60628500D01*
X126130400Y-60628500D01*
X126133646Y-60628163D01*
X126133650Y-60628163D01*
X126229308Y-60618238D01*
X126229312Y-60618237D01*
X126236166Y-60617526D01*
X126242702Y-60615345D01*
X126242704Y-60615345D01*
X126374806Y-60571272D01*
X126403946Y-60561550D01*
X126554348Y-60468478D01*
X126679305Y-60343303D01*
X126772115Y-60192738D01*
X126774164Y-60194001D01*
X126813487Y-60149344D01*
X126881765Y-60129886D01*
X126949724Y-60150430D01*
X126975997Y-60173384D01*
X127032209Y-60238276D01*
X127206615Y-60383071D01*
X127211082Y-60385681D01*
X127397867Y-60494829D01*
X127397870Y-60494831D01*
X127402329Y-60497436D01*
X127614093Y-60578301D01*
X127619161Y-60579332D01*
X127619164Y-60579333D01*
X127728172Y-60601511D01*
X127836221Y-60623494D01*
X127841394Y-60623684D01*
X127841397Y-60623684D01*
X128057583Y-60631611D01*
X128057587Y-60631611D01*
X128062747Y-60631800D01*
X128067867Y-60631144D01*
X128067869Y-60631144D01*
X128138607Y-60622082D01*
X128287588Y-60602997D01*
X128292537Y-60601512D01*
X128292543Y-60601511D01*
X128499756Y-60539344D01*
X128499755Y-60539344D01*
X128504706Y-60537859D01*
X128708270Y-60438134D01*
X128712475Y-60435134D01*
X128712481Y-60435131D01*
X128888609Y-60309500D01*
X128888611Y-60309498D01*
X128892813Y-60306501D01*
X129053378Y-60146495D01*
X129185654Y-59962413D01*
X129208033Y-59917134D01*
X129283795Y-59763840D01*
X129286089Y-59759199D01*
X129351985Y-59542310D01*
X129381573Y-59317570D01*
X129383224Y-59250000D01*
X129377077Y-59175233D01*
X129365074Y-59029235D01*
X129365073Y-59029229D01*
X129364650Y-59024084D01*
X129309428Y-58804234D01*
X129219040Y-58596356D01*
X129210282Y-58582817D01*
X129098722Y-58410373D01*
X129098720Y-58410370D01*
X129095914Y-58406033D01*
X128943356Y-58238374D01*
X128939305Y-58235175D01*
X128939301Y-58235171D01*
X128769519Y-58101085D01*
X128769515Y-58101083D01*
X128765464Y-58097883D01*
X128567015Y-57988334D01*
X128562146Y-57986610D01*
X128562142Y-57986608D01*
X128358214Y-57914393D01*
X128358210Y-57914392D01*
X128353339Y-57912667D01*
X128348246Y-57911760D01*
X128348243Y-57911759D01*
X128275832Y-57898861D01*
X128130173Y-57872915D01*
X128041227Y-57871828D01*
X127908681Y-57870208D01*
X127908679Y-57870208D01*
X127903511Y-57870145D01*
X127679441Y-57904433D01*
X127463979Y-57974857D01*
X127459391Y-57977245D01*
X127459387Y-57977247D01*
X127267502Y-58077136D01*
X127262913Y-58079525D01*
X127258780Y-58082628D01*
X127258777Y-58082630D01*
X127085776Y-58212523D01*
X127081641Y-58215628D01*
X127078069Y-58219366D01*
X126971634Y-58330743D01*
X126910109Y-58366173D01*
X126839197Y-58362716D01*
X126781411Y-58321470D01*
X126771821Y-58305887D01*
X126771550Y-58306054D01*
X126682332Y-58161880D01*
X126678478Y-58155652D01*
X126553303Y-58030695D01*
X126466595Y-57977247D01*
X126408968Y-57941725D01*
X126408966Y-57941724D01*
X126402738Y-57937885D01*
X126242254Y-57884655D01*
X126241389Y-57884368D01*
X126241387Y-57884368D01*
X126234861Y-57882203D01*
X126228025Y-57881503D01*
X126228022Y-57881502D01*
X126184969Y-57877091D01*
X126130400Y-57871500D01*
X124789600Y-57871500D01*
X124786354Y-57871837D01*
X124786350Y-57871837D01*
X124690692Y-57881762D01*
X124690688Y-57881763D01*
X124683834Y-57882474D01*
X124677298Y-57884655D01*
X124677296Y-57884655D01*
X124620359Y-57903651D01*
X124516054Y-57938450D01*
X124365652Y-58031522D01*
X124240695Y-58156697D01*
X124147885Y-58307262D01*
X124092203Y-58475139D01*
X124081500Y-58579600D01*
X124081500Y-59920400D01*
X100508500Y-59920400D01*
X100508500Y-44053250D01*
X100510246Y-44032345D01*
X100512770Y-44017344D01*
X100512770Y-44017341D01*
X100513576Y-44012552D01*
X100513729Y-44000000D01*
X100513040Y-43995185D01*
X100513039Y-43995177D01*
X100511550Y-43984781D01*
X100510429Y-43960735D01*
X100514191Y-43884175D01*
X100525010Y-43663949D01*
X100526221Y-43651650D01*
X100574679Y-43324969D01*
X100577091Y-43312841D01*
X100657339Y-42992477D01*
X100660928Y-42980645D01*
X100772190Y-42669689D01*
X100776922Y-42658265D01*
X100878652Y-42443173D01*
X100918128Y-42359708D01*
X100923955Y-42348807D01*
X101093744Y-42065533D01*
X101100614Y-42055252D01*
X101153099Y-41984483D01*
X101297350Y-41789983D01*
X101305177Y-41780444D01*
X101526985Y-41535718D01*
X101535718Y-41526985D01*
X101780444Y-41305177D01*
X101789983Y-41297350D01*
X102055252Y-41100614D01*
X102065533Y-41093744D01*
X102256819Y-40979091D01*
X102348812Y-40923953D01*
X102359708Y-40918128D01*
X102590500Y-40808972D01*
X102658265Y-40776922D01*
X102669689Y-40772191D01*
X102905165Y-40687936D01*
X102976042Y-40683819D01*
X103037893Y-40718675D01*
X103071081Y-40781437D01*
X103065069Y-40852179D01*
X103023619Y-40907063D01*
X102941367Y-40969270D01*
X102680559Y-41215043D01*
X102447819Y-41487546D01*
X102445900Y-41490358D01*
X102445897Y-41490363D01*
X102420919Y-41526980D01*
X102245871Y-41783591D01*
X102077077Y-42099714D01*
X101943411Y-42432218D01*
X101942491Y-42435492D01*
X101942489Y-42435497D01*
X101876661Y-42669689D01*
X101846437Y-42777213D01*
X101787290Y-43130663D01*
X101766661Y-43488434D01*
X101784792Y-43846340D01*
X101785329Y-43849695D01*
X101785330Y-43849701D01*
X101807901Y-43990618D01*
X101841470Y-44200195D01*
X101936033Y-44545859D01*
X102067374Y-44879288D01*
X102233957Y-45196582D01*
X102235858Y-45199411D01*
X102235864Y-45199421D01*
X102419569Y-45472800D01*
X102433834Y-45494029D01*
X102664665Y-45768150D01*
X102923751Y-46015738D01*
X103208061Y-46233897D01*
X103240056Y-46253350D01*
X103511355Y-46418303D01*
X103511360Y-46418306D01*
X103514270Y-46420075D01*
X103517358Y-46421521D01*
X103517357Y-46421521D01*
X103835710Y-46570649D01*
X103835720Y-46570653D01*
X103838794Y-46572093D01*
X103842012Y-46573195D01*
X103842015Y-46573196D01*
X104174615Y-46687071D01*
X104174623Y-46687073D01*
X104177838Y-46688174D01*
X104527435Y-46766959D01*
X104579728Y-46772917D01*
X104880114Y-46807142D01*
X104880122Y-46807142D01*
X104883497Y-46807527D01*
X104886901Y-46807545D01*
X104886904Y-46807545D01*
X105081227Y-46808562D01*
X105241857Y-46809403D01*
X105245243Y-46809053D01*
X105245245Y-46809053D01*
X105594932Y-46772917D01*
X105594941Y-46772916D01*
X105598324Y-46772566D01*
X105601657Y-46771852D01*
X105601660Y-46771851D01*
X105774186Y-46734864D01*
X105948727Y-46697446D01*
X106288968Y-46584922D01*
X106615066Y-46436311D01*
X106709052Y-46380506D01*
X106920262Y-46255099D01*
X106920267Y-46255096D01*
X106923207Y-46253350D01*
X107209786Y-46038180D01*
X107471451Y-45793319D01*
X107705140Y-45521630D01*
X107811750Y-45366512D01*
X107906190Y-45229101D01*
X107906195Y-45229094D01*
X107908120Y-45226292D01*
X107909732Y-45223298D01*
X107909737Y-45223290D01*
X108076395Y-44913772D01*
X108078017Y-44910760D01*
X108212842Y-44578724D01*
X108223142Y-44542568D01*
X108243527Y-44471006D01*
X108311020Y-44234070D01*
X108348885Y-44012552D01*
X108370829Y-43884175D01*
X108370829Y-43884173D01*
X108371401Y-43880828D01*
X108373511Y-43846340D01*
X108393168Y-43524928D01*
X108393278Y-43523131D01*
X108393359Y-43500000D01*
X108373979Y-43142159D01*
X108316066Y-42788505D01*
X108220297Y-42443173D01*
X108217243Y-42435497D01*
X108089052Y-42113369D01*
X108087793Y-42110205D01*
X108057768Y-42053498D01*
X107921702Y-41796513D01*
X107921698Y-41796506D01*
X107920103Y-41793494D01*
X107719190Y-41496746D01*
X107487403Y-41223432D01*
X107227454Y-40976750D01*
X106965142Y-40776922D01*
X106945091Y-40761647D01*
X106945089Y-40761646D01*
X106942384Y-40759585D01*
X106939466Y-40757825D01*
X106939459Y-40757820D01*
X106913880Y-40742390D01*
X106865881Y-40690077D01*
X106853785Y-40620118D01*
X106881432Y-40554726D01*
X106940044Y-40514661D01*
X106978962Y-40508500D01*
X143020006Y-40508500D01*
X143088127Y-40528502D01*
G37*
%TD.AperFunction*%
%TD*%
M02*
